<?xml version="1.0" encoding="utf-8"?>
<!-- Generator: Adobe Illustrator 16.0.0, SVG Export Plug-In . SVG Version: 6.00 Build 0)  -->
<!DOCTYPE svg PUBLIC "-//W3C//DTD SVG 1.1//EN" "http://www.w3.org/Graphics/SVG/1.1/DTD/svg11.dtd">
<svg version="1.1" id="Layer_1" xmlns="http://www.w3.org/2000/svg" xmlns:xlink="http://www.w3.org/1999/xlink" x="0px" y="0px"
	 width="50px" height="40px" viewBox="0 0 50 40" enable-background="new 0 0 50 40" xml:space="preserve">
<g>
	<path fill="#4B97D3" d="M7.783,18.249c-0.367,0-0.668-0.299-0.668-0.668v-6.805c0-0.91,0.243-1.716,1.057-2.167
		c0.561-0.311,1.312-0.325,1.375-0.333l0.072-0.004h3.489c0.368,0,0.669,0.301,0.669,0.668c0,0.369-0.301,0.668-0.669,0.668H9.514
		c-0.215,0.033-1.061,0.234-1.061,1.168v6.805C8.453,17.95,8.152,18.249,7.783,18.249z"/>
	<path fill-rule="evenodd" clip-rule="evenodd" fill="#4B97D3" d="M14.971,11.892c-0.502,0-0.427-1.905-0.429-2.858
		c-0.001-0.964-0.003-2.892,0.419-2.892c0.412,0.391,1.889,1.828,2.215,2.154c0.557,0.541,0.474,0.963-0.095,1.527
		C16.381,10.517,15.674,11.202,14.971,11.892z"/>
	<path fill-rule="evenodd" clip-rule="evenodd" fill="#2573B2" d="M13.258,12.214c-0.177-0.184-0.172-0.71-0.172-1.22
		c0.01-0.328,0-3.737,0-4.292c0-0.205,0.02-0.408,0.066-0.605c0.133-0.554,0.788-0.795,1.262-0.473
		c0.205,0.143,0.363,0.314,0.547,0.518c0.004,1.916-0.004,3.834,0,5.75C14.281,12.585,13.73,12.747,13.258,12.214z"/>
	<path fill="#4B97D3" d="M44.643,22.282c0.369,0,0.668,0.299,0.668,0.668v6.805c0,0.91-0.422,1.722-1.234,2.172
		c-0.562,0.311-1.244,0.332-1.27,0.332h-4.17c-0.367,0-0.666-0.301-0.666-0.668c0-0.369,0.299-0.67,0.666-0.67h4.127
		c0.213-0.031,1.21-0.232,1.21-1.166V22.95C43.974,22.581,44.273,22.282,44.643,22.282z"/>
	<path fill-rule="evenodd" clip-rule="evenodd" fill="#4B97D3" d="M36.775,28.64c0.381,0.595,1.002,1.948,1.004,2.923
		c0.002,0.942-0.717,2.375-0.994,2.827c-0.412-0.393-1.89-1.828-2.215-2.154c-0.557-0.541-0.474-0.963,0.096-1.527
		C35.365,30.015,36.07,29.329,36.775,28.64z"/>
	<path fill-rule="evenodd" clip-rule="evenodd" fill="#2573B2" d="M38.488,28.315c0.178,0.231,0.172,1.004,0.172,1.516
		c-0.01,0.326,0,3.441,0,3.998c0,0.205-0.02,0.408-0.067,0.605c-0.132,0.555-0.786,0.795-1.259,0.471
		c-0.207-0.141-0.363-0.312-0.549-0.516c-0.003-1.918,0.002-3.832,0-5.75C37.469,27.946,38.016,27.784,38.488,28.315z"/>
	<path fill="#0E9347" d="M46.557,17.778H21.646c-0.685,0-1.247-0.561-1.247-1.244V2.833c0-0.686,0.562-1.246,1.247-1.246h24.911
		c0.685,0,1.246,0.561,1.246,1.246v13.701C47.803,17.218,47.241,17.778,46.557,17.778z"/>
	<path fill="#3BB54A" d="M44.065,16.534H24.137c0-1.371-1.123-2.492-2.491-2.492V5.323c1.368,0,2.491-1.121,2.491-2.49h19.929
		c0,1.369,1.12,2.49,2.491,2.49v8.719C45.186,14.042,44.065,15.163,44.065,16.534z"/>
	<path fill="#0E9347" d="M34.102,4.079c2.75,0,4.98,2.51,4.98,5.604c0,3.096-2.23,5.605-4.98,5.605c-2.754,0-4.982-2.51-4.982-5.605
		C29.119,6.589,31.348,4.079,34.102,4.079z"/>
	<circle fill="#0E9347" cx="26.627" cy="9.684" r="1.245"/>
	<circle fill="#0E9347" cx="41.573" cy="9.684" r="1.245"/>
	<path fill="#89C763" d="M30.469,9.3c-0.209,0-0.379-0.168-0.379-0.379c0-0.209,0.17-0.377,0.379-0.377h0.83
		c0.346-1.48,1.395-2.5,2.93-2.5c0.975,0,1.742,0.494,2.152,1.008c0.105,0.137,0.189,0.264,0.189,0.43
		c0,0.328-0.283,0.527-0.559,0.527c-0.209,0-0.346-0.086-0.471-0.242c-0.325-0.41-0.725-0.672-1.26-0.672
		c-0.873,0-1.471,0.557-1.732,1.449h1.764c0.209,0,0.377,0.168,0.377,0.377c0,0.211-0.168,0.379-0.377,0.379h-1.9
		C32.4,9.415,32.4,9.54,32.4,9.667c0,0.125,0,0.251,0.012,0.367h1.9c0.209,0,0.377,0.168,0.377,0.379
		c0,0.209-0.168,0.377-0.377,0.377h-1.764c0.262,0.893,0.859,1.451,1.732,1.451c0.535,0,0.935-0.264,1.26-0.674
		c0.125-0.158,0.262-0.24,0.471-0.24c0.275,0,0.559,0.199,0.559,0.523c0,0.168-0.084,0.295-0.189,0.432
		c-0.41,0.516-1.178,1.008-2.152,1.008c-1.535,0-2.584-1.018-2.93-2.5h-0.83c-0.209,0-0.379-0.168-0.379-0.377
		c0-0.211,0.17-0.379,0.379-0.379h0.713c-0.01-0.115-0.01-0.242-0.01-0.367c0-0.127,0-0.252,0.01-0.368H30.469z"/>
	<path fill="#C97629" d="M19.729,38.413H5.703c-0.42,0-0.699-0.283-0.699-0.699V20.882h14.73v17.531H19.729z"/>
	<path fill="#C97629" d="M19.729,38.413H5.703c-0.42,0-0.699-0.283-0.699-0.699V20.882h14.73v17.531H19.729z"/>
	<path fill="#B06328" d="M19.729,38.413h9.815c0.421,0,0.7-0.283,0.7-0.699V20.882H19.729V38.413z"/>
	<path fill="#B06328" d="M19.729,38.413h9.815c0.421,0,0.7-0.283,0.7-0.699V20.882H19.729V38.413z"/>
	<path fill="#B06328" d="M5.703,37.708v-8.414c0-0.771,0.635-1.404,1.406-1.404h10.659c0.35,0,0.634-0.209,0.7-0.559l1.26-6.457
		H5.703H5v7.016v9.818c0,0.422,0.283,0.697,0.697,0.697h14.023c-0.422-0.42-1.053-0.697-1.682-0.697H5.703z"/>
	<path fill="#A35425" d="M29.544,20.882h-9.815l1.258,6.454c0.072,0.349,0.35,0.56,0.699,0.56h6.454
		c0.772,0,1.404,0.633,1.404,1.404v8.414h-8.136c-0.633,0-1.26,0.283-1.68,0.699h9.815c0.421,0,0.7-0.283,0.7-0.699V27.89v-7.008
		H29.544z"/>
	<path fill="#C97629" d="M24.006,26.487h8.346c0.422,0,0.7-0.352,0.7-0.701c0-0.139-0.14-0.35-0.14-0.35l-2.664-4.555h-10.52
		l3.084,4.977C23.096,26.21,23.513,26.487,24.006,26.487z"/>
	<path fill="#DA8C36" d="M15.447,26.487H2.895c-0.42,0-0.697-0.352-0.697-0.701c0-0.139,0.139-0.35,0.139-0.35L5,20.882h14.729
		l-3.088,4.977C16.364,26.21,15.943,26.487,15.447,26.487z"/>
	<path fill="#FFCB5B" d="M6.752,33.502h4.207c0.211,0,0.351,0.138,0.351,0.349s-0.14,0.35-0.351,0.35H6.752
		c-0.211,0-0.35-0.139-0.35-0.35S6.541,33.502,6.752,33.502z"/>
	<path fill="#FFCB5B" d="M6.752,34.905h2.803c0.211,0,0.35,0.139,0.35,0.35s-0.139,0.35-0.35,0.35H6.752
		c-0.211,0-0.35-0.139-0.35-0.35S6.541,34.905,6.752,34.905z"/>
</g>
</svg>
