<?xml version="1.0" encoding="utf-8"?>
<!-- Generator: Adobe Illustrator 16.0.0, SVG Export Plug-In . SVG Version: 6.00 Build 0)  -->
<!DOCTYPE svg PUBLIC "-//W3C//DTD SVG 1.1//EN" "http://www.w3.org/Graphics/SVG/1.1/DTD/svg11.dtd">
<svg version="1.1" id="Layer_1" xmlns="http://www.w3.org/2000/svg" xmlns:xlink="http://www.w3.org/1999/xlink" x="0px" y="0px"
	 width="415px" height="320px" viewBox="0 0 415 320" enable-background="new 0 0 415 320" xml:space="preserve">
<g>
	<path opacity="0.3" fill="#84C3F7" d="M303.829,0H110.172C46.795,35,3.767,101.467,3.767,178.652
		C3.767,233.623,25.603,284,61.061,320h291.879c35.459-36,57.294-86.377,57.294-141.348C410.233,101.467,367.207,35,303.829,0z"/>
	<g>
		<g>
			<circle opacity="0.3" fill="#84C3F7" cx="203.362" cy="179.136" r="76.3"/>
			<path opacity="0.3" fill="#84C3F7" d="M265.701,197.475v25.654c-2.812,3.975-5.973,7.647-9.468,11.012v-36.666h-0.015v-0.086
				c-0.045-0.189-4.647-4.007-8.187-6.906v-1.601l4.282-1.109c1.763-0.449,3.612-0.304,5.259,0.41
				c0.742,0.319,1.514,0.626,2.288,0.873v3.351c3.539,2.899,5.782,4.793,5.826,4.982v0.086H265.701z"/>
		</g>
		<g>
			<polygon fill="#FFFFFF" points="97.298,81.242 119.688,133.776 136.053,122.582 145.537,136.36 147.248,113.116 167.053,101.048 
							"/>
			<polygon fill="#EFF4F4" points="139.681,120.095 119.688,133.776 136.053,122.582 145.537,136.36 147.248,113.116 115.689,94.32 
							"/>
			<polygon fill="#E5E5E5" points="146.829,118.812 115.689,94.32 147.248,113.116 			"/>
		</g>
		<g>
			<path fill="#00C8B7" d="M145.938,142.914c-0.176-1.024-0.4-2.044-0.665-3.037l1.535-0.411c0.278,1.039,0.511,2.106,0.696,3.177
				L145.938,142.914z"/>
			<path fill="#00C8B7" d="M127.398,178.599c-2.309-0.156-4.515-0.891-6.384-2.131l0.878-1.324c1.639,1.088,3.579,1.732,5.61,1.868
				L127.398,178.599z M134.001,177.303l-0.702-1.428c1.653-0.813,3.252-2.07,4.754-3.744l1.183,1.062
				C137.597,175.018,135.836,176.4,134.001,177.303z M116.591,171.394c-0.896-1.817-1.371-3.813-1.369-5.775
				c0-0.161,0.003-0.321,0.01-0.482l0.019-0.345l1.585,0.116l-0.016,0.29c-0.006,0.142-0.009,0.282-0.009,0.421
				c0,1.718,0.417,3.472,1.205,5.07L116.591,171.394z M178.085,171.028l-0.009-1.589c2.072-0.01,4.202-0.094,6.333-0.251
				l0.116,1.584C182.359,170.934,180.191,171.019,178.085,171.028z M171.638,170.821l-1.015-0.079
				c-1.953-0.162-3.724-0.383-5.412-0.674l0.271-1.566c1.642,0.285,3.365,0.498,5.272,0.658l0.993,0.073L171.638,170.821z
				 M190.928,170.097l-0.213-1.573c2.043-0.279,4.15-0.627,6.262-1.033l0.301,1.56C195.138,169.463,193.003,169.816,190.928,170.097
				z M158.895,168.492c-1.867-0.637-3.618-1.414-5.205-2.308c-0.248-0.14-0.497-0.284-0.743-0.433l0.821-1.362
				c0.232,0.14,0.465,0.276,0.701,0.408c1.504,0.851,3.164,1.585,4.938,2.19L158.895,168.492z M143.034,167.859l-1.378-0.792
				c1.029-1.791,1.911-3.697,2.621-5.668l1.495,0.538C145.031,163.996,144.109,165.986,143.034,167.859z M203.56,167.684
				l-0.374-1.544c1.986-0.484,4.057-1.031,6.147-1.63l0.438,1.528C207.658,166.643,205.569,167.194,203.56,167.684z
				 M215.909,164.162l-0.49-1.512c2.02-0.654,4.031-1.34,6.031-2.05l0.53,1.497C219.97,162.813,217.944,163.504,215.909,164.162z
				 M147.64,162.068c-1.462-1.065-3.031-2.183-4.731-3.113l-0.53-0.282l0.726-1.413c0.19,0.099,0.381,0.199,0.567,0.301
				c1.783,0.977,3.467,2.174,4.905,3.224L147.64,162.068z M119.062,159.678l-1.111-1.136c1.398-1.37,3.312-2.396,5.85-3.14
				l0.533,1.502C121.999,157.586,120.255,158.512,119.062,159.678z M136.571,156.576c-1.807-0.404-3.659-0.61-5.51-0.61
				l-0.644,0.008l-0.039-1.59c2.188-0.053,4.396,0.159,6.54,0.641L136.571,156.576z M147.45,155.639l-1.564-0.277
				c0.365-2.055,0.555-4.148,0.564-6.225l1.59,0.01C148.029,151.309,147.831,153.495,147.45,155.639z"/>
			<path fill="#00C8B7" d="M228.064,159.857l-0.564-1.486c0.988-0.376,1.978-0.759,2.964-1.145l0.576,1.48
				C230.052,159.094,229.061,159.478,228.064,159.857z"/>
		</g>
		<path fill="#00C8B7" d="M278.101,198.593c-0.808,0-1.502-0.614-1.58-1.437c-0.084-0.873,0.554-1.65,1.428-1.734
			c9.606-0.93,18.442-5.516,24.883-12.91c0.576-0.664,1.581-0.73,2.241-0.156c0.663,0.578,0.732,1.581,0.154,2.244
			c-6.975,8.011-16.554,12.979-26.971,13.985C278.203,198.59,278.152,198.593,278.101,198.593z"/>
		<g>
			<g>
				<path fill="#7A4C08" d="M258.73,197.477l-55.371,32.652l-55.371-32.652c0-0.025,0-0.062,0.01-0.09
					c0.044-0.206,3.1-2.758,7.761-6.546c0.046-0.035,0.081-0.071,0.126-0.106c15.29-12.414,47.475-37.837,47.475-37.837
					s32.184,25.423,47.473,37.837c4.734,3.84,7.845,6.438,7.889,6.652C258.73,197.414,258.73,197.451,258.73,197.477z"/>
				<g>
					<path fill="#F0EABD" d="M226.131,125.855h-59.742c-5.124,0-9.278,4.153-9.278,9.277v90.33c0,5.123,4.154,9.277,9.278,9.277
						h74.86c5.122,0,9.276-4.154,9.276-9.277V150.25L226.131,125.855z"/>
					<path fill="#B9B093" d="M226.131,140.972c0,5.126,4.154,9.278,9.277,9.278h15.117l-24.395-24.395V140.972z"/>
					<path fill="#82EBE3" d="M195.157,141.124h-20.61c-1.825,0-3.305,1.479-3.305,3.305v20.611c0,1.824,1.479,3.306,3.305,3.306
						h20.61c1.826,0,3.307-1.481,3.307-3.306v-20.611C198.464,142.604,196.983,141.124,195.157,141.124z"/>
					<path fill="#B9B093" d="M223.394,175.909h-49.456c-1.471,0-2.664,1.192-2.664,2.663l0,0c0,1.471,1.193,2.664,2.664,2.664
						h49.456c1.47,0,2.663-1.193,2.663-2.664l0,0C226.057,177.102,224.863,175.909,223.394,175.909z"/>
					<path fill="#B9B093" d="M223.394,189.176h-49.456c-1.471,0-2.664,1.192-2.664,2.662l0,0c0,1.472,1.193,2.663,2.664,2.663
						h49.456c1.47,0,2.663-1.191,2.663-2.663l0,0C226.057,190.368,224.863,189.176,223.394,189.176z"/>
					<path fill="#B9B093" d="M200.933,202.044h-26.995c-1.471,0-2.664,1.192-2.664,2.663l0,0c0,1.472,1.193,2.664,2.664,2.664
						h26.995c1.471,0,2.663-1.192,2.663-2.664l0,0C203.596,203.236,202.403,202.044,200.933,202.044z"/>
				</g>
				<g>
					<path fill="#FF5E4A" d="M258.736,197.475v53.12c0,3.715-3.035,6.748-6.748,6.748h-97.265c-3.713,0-6.729-3.033-6.729-6.748
						v-53.12l55.37,32.648L258.736,197.475z"/>
					<path fill="#FF7156" d="M256.865,255.23l-35.639-35.639l-17.862,10.531l-17.868-10.535l-35.641,35.639
						c1.227,1.298,2.949,2.116,4.868,2.116h97.265C253.907,257.343,255.633,256.524,256.865,255.23z"/>
				</g>
			</g>
		</g>
		<g>
			<g>
				<path fill="#00C8B7" d="M269.92,124.553c-15.939,1.564-28.674,14.703-29.814,30.678c-0.566,7.951,1.686,15.335,5.835,21.311
					c1.563,2.251,1.819,5.16,0.77,7.689l-2.629,6.328l10.743-2.786c1.752-0.454,3.602-0.311,5.262,0.406
					c4.98,2.161,10.59,3.146,16.484,2.576c15.646-1.515,28.305-14.149,29.816-29.794
					C308.414,139.971,290.916,122.492,269.92,124.553z"/>
				<g>
					<path fill="#F0EABD" d="M274.106,174.461l1.829-1.827c0,0-1.453-3.425,4.635-9.194c3.623-3.434,4.435-6.76,4.139-9.479
						c-0.467-4.328-4.003-7.862-8.331-8.333c-2.72-0.294-6.046,0.517-9.479,4.141c-5.771,6.089-9.193,4.635-9.193,4.635
						l-1.828,1.828L274.106,174.461z"/>
					<path fill="#F0EABD" d="M260.002,163.294c-1.448,1.974-1.284,4.759,0.5,6.541c1.783,1.785,4.568,1.948,6.541,0.502
						L260.002,163.294z"/>
					<path fill="#F0EABD" d="M285.987,147.847l-1.138,1.138c-0.887-1.409-2.092-2.612-3.51-3.489l1.148-1.147
						c0.97-0.97,2.538-0.97,3.509,0C286.958,145.309,286.958,146.877,285.987,147.847z"/>
				</g>
			</g>
			<path fill="#08B29D" d="M272.388,124.409c11.848,3.548,20.489,14.521,20.489,27.526c0,15.871-12.868,28.739-28.742,28.739
				c-8.359,0-15.864-3.593-21.116-9.294c0.826,1.809,1.798,3.54,2.922,5.16c1.563,2.251,1.819,5.16,0.77,7.689l-2.629,6.328
				l10.743-2.786c1.752-0.454,3.602-0.312,5.262,0.406c4.98,2.161,10.59,3.146,16.484,2.576
				c15.646-1.515,28.305-14.149,29.816-29.794C308.334,140.799,292.266,123.888,272.388,124.409z"/>
		</g>
		<path fill="#F0EABD" d="M94.54,100.42l4.374,10.038c0.222,0.51-0.014,1.106-0.525,1.326l-0.156,0.067
			c-0.514,0.223-1.111-0.018-1.329-0.533l-4.217-10.104c-0.224-0.531,0.041-1.139,0.58-1.338l0,0
			C93.769,99.692,94.328,99.932,94.54,100.42z"/>
		<path fill="#F0EABD" d="M127.647,214.103c-2.949,0-5.34,2.392-5.34,5.34c0,2.949,2.391,5.34,5.34,5.34
			c2.948,0,5.339-2.391,5.339-5.34C132.986,216.494,130.596,214.103,127.647,214.103z M127.647,221.604
			c-1.193,0-2.161-0.968-2.161-2.161s0.968-2.159,2.161-2.159c1.192,0,2.16,0.966,2.16,2.159S128.84,221.604,127.647,221.604z"/>
		<path fill="#F0EABD" d="M270.729,235.708c-2.949,0-5.34,2.392-5.34,5.342c0,2.949,2.391,5.341,5.34,5.341
			c2.948,0,5.34-2.392,5.34-5.341C276.069,238.1,273.678,235.708,270.729,235.708z M270.729,243.211
			c-1.193,0-2.162-0.967-2.162-2.161c0-1.195,0.969-2.161,2.162-2.161s2.161,0.966,2.161,2.161
			C272.891,242.244,271.923,243.211,270.729,243.211z"/>
		<path fill="#FF5E4A" d="M314.413,152.779c-2.257,0-4.088,1.83-4.088,4.088c0,2.259,1.831,4.089,4.088,4.089
			c2.258,0,4.088-1.83,4.088-4.089C318.501,154.609,316.671,152.779,314.413,152.779z M314.413,158.522
			c-0.913,0-1.654-0.741-1.654-1.655c0-0.913,0.741-1.656,1.654-1.656c0.915,0,1.655,0.743,1.655,1.656
			C316.068,157.781,315.328,158.522,314.413,158.522z"/>
		<path fill="#F0EABD" d="M242.426,87.38c-2.389,0-4.323,1.936-4.323,4.322c0,2.388,1.935,4.323,4.323,4.323
			c2.387,0,4.322-1.936,4.322-4.323C246.748,89.315,244.812,87.38,242.426,87.38z M242.426,93.451c-0.966,0-1.75-0.783-1.75-1.749
			c0-0.967,0.784-1.75,1.75-1.75s1.75,0.783,1.75,1.75C244.176,92.668,243.392,93.451,242.426,93.451z"/>
		<circle fill="#F0EABD" cx="286.494" cy="206.446" r="3.305"/>
		<circle fill="#F0EABD" cx="177.03" cy="93.569" r="4.831"/>
		<circle fill="#FF5E4A" cx="202.894" cy="267.257" r="3.521"/>
		<circle fill="#FF5E4A" cx="271.038" cy="111.505" r="4.132"/>
		<circle fill="#FF5E4A" cx="124.682" cy="141.849" r="2.353"/>
		<circle fill="#F0EABD" cx="315.841" cy="136.186" r="4.012"/>
		<circle fill="#F0EABD" cx="101.904" cy="155.967" r="2.561"/>
		<path fill="#FF5E4A" d="M209.534,80.154l1.607-1.608c0.558-0.556,0.558-1.47,0-2.026c-0.559-0.558-1.47-0.558-2.026,0
			l-1.609,1.607l-1.606-1.607c-0.558-0.558-1.471-0.558-2.028,0c-0.557,0.557-0.557,1.471,0,2.026l1.608,1.608l-1.608,1.608
			c-0.557,0.558-0.557,1.47,0,2.026c0.558,0.558,1.471,0.558,2.028,0l1.606-1.606l1.609,1.606c0.557,0.558,1.468,0.558,2.026,0
			c0.558-0.557,0.558-1.469,0-2.026L209.534,80.154z"/>
		<path fill="#FF5E4A" d="M100.073,128.749l1.609-1.609c0.557-0.558,0.557-1.47,0-2.028c-0.558-0.556-1.47-0.556-2.027,0
			l-1.607,1.611l-1.608-1.611c-0.558-0.556-1.47-0.556-2.026,0c-0.558,0.559-0.558,1.471,0,2.028l1.607,1.609l-1.607,1.605
			c-0.558,0.559-0.558,1.471,0,2.028c0.557,0.559,1.469,0.559,2.026,0l1.608-1.607l1.607,1.607c0.558,0.559,1.47,0.559,2.027,0
			c0.557-0.558,0.557-1.47,0-2.028L100.073,128.749z"/>
		<path fill="#FF5E4A" d="M289.729,226.938l1.361-1.361c0.473-0.473,0.473-1.244,0-1.718c-0.471-0.473-1.243-0.473-1.716,0
			l-1.362,1.362l-1.361-1.362c-0.473-0.473-1.244-0.473-1.717,0c-0.473,0.474-0.473,1.245,0,1.718l1.362,1.361l-1.362,1.362
			c-0.473,0.473-0.473,1.244,0,1.717c0.473,0.472,1.244,0.472,1.717,0l1.361-1.362l1.362,1.362c0.473,0.472,1.245,0.472,1.716,0
			c0.473-0.473,0.473-1.244,0-1.717L289.729,226.938z"/>
		<g>
			<g>
				<g>
					<path fill="#5F5F5D" d="M180.842,148.537c0,0-3.488-4.567-4.903-3.938c-1.414,0.633-0.121,5.82,0.721,8.291l4.023-2.775
						L180.842,148.537z"/>
					<path fill="#F3F4E7" d="M180.123,149.674c0,0-2.495-3.641-3.221-3.318c-0.727,0.324,0.521,3.915,0.953,5.183l2.086-1.588
						L180.123,149.674z"/>
				</g>
				<g>
					<path fill="#5F5F5D" d="M187.277,148.537c0,0,3.488-4.567,4.902-3.938c1.416,0.633,0.122,5.82-0.721,8.291l-4.021-2.775
						L187.277,148.537z"/>
					<path fill="#F3F4E7" d="M187.995,149.674c0,0,2.495-3.641,3.222-3.318c0.726,0.324-0.521,3.915-0.953,5.183l-2.086-1.588
						L187.995,149.674z"/>
				</g>
			</g>
			<g>
				<path fill="#F3F4E7" d="M192.332,153.978c-0.989-5.436-6.572-5.839-8.016-5.927v-0.011c0,0-0.081-0.002-0.222,0.001
					c-0.142-0.003-0.224-0.001-0.224-0.001v0.011c-1.443,0.088-7.021,0.491-8.016,5.927c-1.516,8.28,3.277,10.617,8.016,10.896
					v0.014c0.074,0,0.148-0.003,0.224-0.007c0.074,0.004,0.148,0.007,0.222,0.007v-0.014
					C189.055,164.595,193.634,161.131,192.332,153.978z"/>
				<g>
					<g>
						<g>
							<ellipse fill="#5F5F5D" cx="187.403" cy="156.089" rx="0.616" ry="0.969"/>
							<ellipse fill="#F1EDEC" cx="187.302" cy="155.514" rx="0.229" ry="0.17"/>
						</g>
						<g>
							<ellipse fill="#5F5F5D" cx="181.141" cy="156.089" rx="0.616" ry="0.969"/>
							<ellipse fill="#F1EDEC" cx="181.04" cy="155.514" rx="0.228" ry="0.17"/>
						</g>
					</g>
					<path fill="#5F5F5D" d="M184.115,158.475c0,0-1.562-0.044-1.865,0.824c0,0,0.087,1.605,1.865,1.605s1.865-1.605,1.865-1.605
						C185.677,158.431,184.115,158.475,184.115,158.475z"/>
					<path fill="#5F5F5D" d="M187.045,160.58c-0.01,0.058-0.228,1.414-1.398,1.414c-1.068,0-1.352-1.144-1.398-1.386
						c0-0.001,0-0.003,0-0.003h-0.002c-0.004-0.021-0.006-0.035-0.007-0.04l-0.124,0.02l-0.123-0.02
						c-0.002,0.005-0.004,0.02-0.008,0.04h-0.002c0,0,0.001,0.002,0.001,0.003c-0.048,0.242-0.331,1.386-1.399,1.386
						c-1.171,0-1.39-1.356-1.398-1.414l-0.257,0.038c0.002,0.016,0.26,1.636,1.655,1.636c0.912,0,1.343-0.699,1.531-1.189
						c0.188,0.49,0.618,1.189,1.531,1.189c1.396,0,1.653-1.62,1.654-1.636L187.045,160.58z"/>
				</g>
				<path fill="#5F5F5D" d="M192.45,153.976c-1.004-5.514-6.667-5.923-8.13-6.012v-0.011c0,0-0.082-0.002-0.226,0.002
					c-0.144-0.004-0.226-0.002-0.226-0.002v0.011c-1.463,0.089-7.121,0.499-8.131,6.012c-0.475,2.593-0.266,4.611,0.29,6.171
					l0.13,0.152c0,0,2.1-1.121,2.148-3.803s0.616-4.262,2.293-4.262c1.729,0,2.282,1.502,2.65,2.33h1.627
					c0.368-0.828,0.897-2.33,2.65-2.33c1.923,0,2.245,1.58,2.293,4.262c0.041,2.215,1.418,3.356,1.948,3.689
					C192.503,158.549,192.907,156.491,192.45,153.976z"/>
			</g>
		</g>
	</g>
</g>
</svg>
