<?xml version="1.0" encoding="UTF-8" standalone="no"?>
<svg
   id="Capa_1"
   version="1.1"
   viewBox="0 0 1438.5 223.44652"
   sodipodi:docname="KompyMascotas-logo-blanco-recortado.svg"
   width="1438.5"
   height="223.44652"
   inkscape:version="1.4 (e7c3feb100, 2024-10-09)"
   xmlns:inkscape="http://www.inkscape.org/namespaces/inkscape"
   xmlns:sodipodi="http://sodipodi.sourceforge.net/DTD/sodipodi-0.dtd"
   xmlns="http://www.w3.org/2000/svg"
   xmlns:svg="http://www.w3.org/2000/svg">
  <defs
     id="defs13" />
  <sodipodi:namedview
     id="namedview13"
     pagecolor="#ffffff"
     bordercolor="#000000"
     borderopacity="0.25"
     inkscape:showpageshadow="2"
     inkscape:pageopacity="0.0"
     inkscape:pagecheckerboard="0"
     inkscape:deskcolor="#d1d1d1"
     inkscape:zoom="1.0333333"
     inkscape:cx="719.03226"
     inkscape:cy="81.290323"
     inkscape:window-width="2560"
     inkscape:window-height="1334"
     inkscape:window-x="0"
     inkscape:window-y="30"
     inkscape:window-maximized="1"
     inkscape:current-layer="Capa_1" />
  <!-- Generator: Adobe Illustrator 29.5.0, SVG Export Plug-In . SVG Version: 2.1.0 Build 137)  -->
  <path
     d="m 762,44.2 c -2.2,-3.8 -5.3,-6.9 -9.2,-9.3 -3.9,-2.4 -9.1,-3.6 -15.4,-3.6 -6.3,0 -14.9,1.7 -21,5 -4.9,2.6 -9,6.2 -12.4,10.6 -0.5,-1.2 -1.1,-2.3 -1.7,-3.4 -1.4,-2.4 -3.4,-4.6 -5.7,-6.4 -2.3,-1.8 -5.1,-3.2 -8.2,-4.3 -3.1,-1 -6.8,-1.5 -10.9,-1.5 -8.1,0 -15.4,1.6 -21.5,4.7 -4.2,2.1 -7.9,4.9 -10.9,8.4 v -7.3 c 0,-2.2 -1.8,-4 -4,-4 h -21.9 c -2.2,0 -4,1.8 -4,4 v 89.8 c 0,2.2 1.8,4 4,4 H 644 c 2.2,0 4,-1.8 4,-4 V 75.5 c 1.5,-4.4 3.9,-8.1 7.2,-10.7 3.3,-2.7 6.5,-4 9.8,-4 3.3,0 5.2,1.1 7.1,3.4 1.9,2.4 2.9,6.5 2.9,12.1 V 127 c 0,2.2 1.8,4 4,4 h 24.8 c 2.2,0 4,-1.8 4,-4 V 75.6 c 0.7,-2.1 1.7,-4 2.9,-5.8 1.3,-1.9 2.7,-3.5 4.2,-4.9 1.5,-1.3 3.1,-2.4 4.8,-3.1 1.7,-0.7 3.4,-1.1 5,-1.1 2.9,0 5.2,1.1 7.1,3.4 1.9,2.4 2.9,6.5 2.9,12.1 v 50.7 c 0,2.2 1.8,4 4,4 h 24.8 c 2.2,0 4,-1.8 4,-4 v -58 c 0,-4 -0.3,-8.2 -1,-12.4 -0.7,-4.4 -2.1,-8.5 -4.3,-12.2 z"
     fill="#ffffff"
     id="path1" />
  <path
     d="m 872.6,102.4 c -1,-0.2 -1.7,-0.6 -2.1,-1.1 -0.3,-0.3 -0.9,-1.5 -0.9,-4.6 V 72.6 c 0,-13.4 -4.1,-23.8 -12.3,-30.8 -8.1,-7 -19.6,-10.5 -34.2,-10.5 -14.6,0 -15,1 -21.8,3.1 -6.3,1.9 -12.5,4.8 -18.4,8.4 -1.7,1.1 -2.3,3.2 -1.5,5.1 l 6.8,14.4 c 0.5,1 1.4,1.8 2.5,2.1 1.1,0.3 2.3,0.1 3.3,-0.5 4.3,-2.8 8.5,-4.9 12.4,-6.4 4.4,-1.6 9,-2.4 13.9,-2.4 11.3,0 16.6,4.5 16.6,14.1 v 1.1 c -2.1,-0.8 -4.5,-1.4 -7.1,-1.9 -3.8,-0.7 -7.8,-1 -11.8,-1 -6.1,0 -11.8,0.8 -16.9,2.4 -5.1,1.6 -9.6,3.9 -13.3,6.8 -3.8,2.9 -6.8,6.5 -8.9,10.5 -2.1,4.1 -3.2,8.7 -3.2,13.6 0,4.9 0.9,8.9 2.7,12.7 1.8,3.9 4.2,7.3 7.2,10.1 3,2.9 6.7,5.1 11,6.7 4.2,1.6 8.8,2.4 13.7,2.4 4.9,0 13.2,-1.5 19.2,-4.5 4.6,-2.3 8.8,-5.4 12.4,-9.2 0.8,4.2 2.8,7.5 5.9,9.8 3.1,2.4 7.6,3.6 13.4,3.6 5.8,0 3.6,0 5.7,-0.3 1.7,-0.1 3.6,-0.4 5.5,-0.9 1.8,-0.4 3.2,-2 3.2,-3.9 v -21 c 0,-1.9 -1.3,-3.5 -3.1,-3.9 z M 836.9,90 v 7.4 c 0,1.7 -1.1,3.4 -3.3,5.1 0,0 0,0 -0.1,0.1 -1.7,1.6 -3.9,2.9 -6.5,3.8 -2.7,1 -5.4,1.5 -8.3,1.5 -2.9,0 -6.4,-0.9 -8.6,-2.8 -2.1,-1.8 -3.2,-4 -3.2,-6.8 0,-2.8 1.4,-5.6 4.2,-7.5 3,-2.1 6.9,-3.2 11.7,-3.2 4.8,0 5,0.3 7.7,0.8 2.2,0.4 4.4,1 6.4,1.6 z"
     fill="#ffffff"
     id="path2" />
  <path
     d="m 956.5,80.8 c -3,-2.3 -6.9,-4.4 -11.7,-6.3 -4.6,-1.8 -10.4,-3.6 -17.1,-5.4 -6.1,-1.5 -10.2,-2.9 -12.4,-4.1 -1.7,-0.9 -2.4,-2.2 -2.4,-4 0,-1.8 0.7,-3.3 2.2,-4.1 1.8,-1 4.1,-1.6 6.8,-1.6 2.7,0 7.4,0.8 11.3,2.3 3.6,1.4 7.7,3.7 12.3,6.8 0.9,0.6 2,0.8 3,0.6 1.1,-0.2 2,-0.8 2.5,-1.7 l 9.1,-14.1 c 1.1,-1.7 0.7,-4 -0.8,-5.3 -5.5,-4.6 -11.3,-7.8 -17.2,-9.6 -6.3,-2 -13.1,-2.9 -20.3,-2.9 -7.2,0 -10.8,0.8 -15.6,2.4 -4.8,1.6 -9,3.9 -12.5,6.8 -3.6,2.9 -6.4,6.5 -8.4,10.7 -2,4.2 -3.1,8.9 -3.1,13.9 0,5 0.7,7.3 2,10.1 1.3,2.9 3.5,5.6 6.6,7.8 2.9,2.1 6.6,4.1 11.1,5.8 4.4,1.7 9.8,3.4 16.2,5.2 6.2,1.6 10.5,3.1 12.9,4.5 2.5,1.4 2.8,3.1 2.8,4.1 0,1.8 -0.7,3 -2.1,3.9 -1.7,1.1 -4.1,1.6 -7.4,1.6 -4.7,0 -9.7,-1 -14.8,-3.1 -4.7,-1.9 -9.7,-4.5 -14.6,-7.8 -0.9,-0.6 -2,-0.8 -3.1,-0.6 -1.1,0.2 -2,0.9 -2.5,1.9 l -8.4,14.4 c -1,1.7 -0.6,3.8 0.9,5.1 5.3,4.5 11.7,8 19.1,10.5 7.9,2.6 16,3.9 24.2,3.9 12.2,0 22.1,-2.9 29.3,-8.7 7.4,-5.9 11.1,-13.9 11.1,-23.8 0,-9.9 -0.7,-7.9 -2.2,-11 -1.4,-3.2 -3.8,-6 -6.9,-8.4 z"
     fill="#ffffff"
     id="path3" />
  <path
     d="m 1064.4,103 -24.3,-7.5 c -1.7,-0.5 -3.6,0.2 -4.5,1.7 -1.2,1.9 -2.9,3.5 -5.2,4.8 -2.6,1.5 -5.6,2.3 -8.7,2.3 -3.1,0 -5,-0.5 -7.2,-1.6 -2.3,-1.1 -4.3,-2.6 -6,-4.5 -1.7,-1.9 -3.1,-4.3 -4,-7 -1,-2.8 -1.5,-5.9 -1.5,-9.4 0,-6.8 1.8,-12.2 5.4,-16.2 3.6,-4 7.9,-5.9 13.3,-5.9 5.4,0 10.5,2.3 13.7,6.9 1,1.4 2.8,2 4.4,1.5 l 24.3,-7.3 c 1.2,-0.4 2.1,-1.2 2.6,-2.3 0.5,-1.1 0.4,-2.4 -0.2,-3.4 -3.8,-6.7 -9.3,-12.3 -16.2,-16.6 -7.7,-4.8 -17.2,-7.2 -28.4,-7.2 -11.2,0 -15.6,1.4 -22.1,4.1 -6.5,2.7 -12,6.4 -16.5,11.1 -4.5,4.6 -7.9,10.1 -10.2,16.2 -2.3,6.1 -3.5,12.6 -3.5,19.2 0,6.6 1.2,13.1 3.5,19.2 2.3,6.1 5.8,11.6 10.3,16.2 4.5,4.6 10.1,8.4 16.5,11.2 6.5,2.8 13.9,4.2 21.9,4.2 8,0 20.8,-2.4 28.6,-7.3 7.1,-4.4 12.6,-10 16.2,-16.6 0.6,-1.1 0.6,-2.3 0.2,-3.4 -0.5,-1.1 -1.4,-2 -2.5,-2.3 z"
     fill="#ffffff"
     id="path4" />
  <path
     d="m 1160.7,46.6 c -4.5,-4.6 -10,-8.4 -16.4,-11.2 -6.4,-2.8 -13.8,-4.2 -22,-4.2 -8.2,0 -15.7,1.4 -22.1,4.2 -6.5,2.8 -12,6.5 -16.5,11.2 -4.5,4.6 -7.9,10.1 -10.2,16.2 -2.3,6.1 -3.4,12.5 -3.4,19.2 0,6.7 1.2,13.1 3.4,19.2 2.3,6.1 5.7,11.6 10.2,16.2 4.5,4.6 10,8.4 16.5,11.1 6.5,2.7 13.9,4.1 22.1,4.1 8.2,0 15.6,-1.4 22.1,-4.1 6.5,-2.7 12,-6.4 16.5,-11.1 4.5,-4.6 7.9,-10.1 10.2,-16.2 2.3,-6.1 3.4,-12.5 3.4,-19.2 0,-6.7 -1.2,-13.1 -3.5,-19.2 -2.3,-6.1 -5.8,-11.6 -10.3,-16.2 z m -25.3,51.7 c -1.6,1.9 -3.6,3.4 -5.8,4.5 -2.2,1 -4.6,1.6 -7.3,1.6 -5.5,0 -9.8,-1.9 -13.4,-6 -3.5,-4 -5.3,-9.5 -5.3,-16.3 0,-6.8 0.5,-6.4 1.5,-9.2 1,-2.8 2.3,-5.1 4,-7.1 1.6,-1.9 3.6,-3.4 5.9,-4.4 2.3,-1.1 4.7,-1.6 7.4,-1.6 2.7,0 4.4,0.3 6.8,1 7.9,4.2 11.8,11.1 11.8,21.3 0,10.2 -0.5,6.4 -1.5,9.2 -1,2.8 -2.3,5.1 -4,7.1 z"
     fill="#ffffff"
     id="path5" />
  <path
     d="m 1242.9,102.8 c -0.3,-1.1 -1,-2.1 -2.1,-2.6 -1,-0.5 -2.3,-0.6 -3.3,-0.1 -1.1,0.5 -2.4,0.9 -3.7,1.3 -2,0.6 -4,1 -6,1 -2,0 -3.3,-0.5 -4.5,-1.5 -1.1,-0.9 -1.6,-2.6 -1.6,-5.1 V 58.9 h 15.1 c 2.2,0 4,-1.8 4,-4 V 37.1 c 0,-2.2 -1.8,-4 -4,-4 h -15.1 V 7.3 c 0,-2.2 -1.8,-4 -4,-4 h -24.8 c -2.2,0 -4,1.8 -4,4 v 25.8 h -7.9 c -2.2,0 -4,1.8 -4,4 v 17.8 c 0,2.2 1.8,4 4,4 h 7.9 v 46.7 c 0,4.8 0.7,9 2.2,12.4 1.5,3.5 3.6,6.4 6.2,8.6 2.6,2.1 5.6,3.7 9.1,4.7 3.3,0.9 6.9,1.4 10.6,1.4 3.7,0 10.6,-0.7 15.8,-2.2 4.5,-1.3 8.6,-2.6 12.2,-4.1 1.8,-0.7 2.9,-2.7 2.4,-4.7 l -4.6,-18.9 z"
     fill="#ffffff"
     id="path6" />
  <path
     d="m 1345.6,102.4 c -1,-0.2 -1.7,-0.6 -2.1,-1.1 -0.3,-0.3 -0.9,-1.5 -0.9,-4.6 V 72.6 c 0,-13.4 -4.1,-23.8 -12.3,-30.8 -8.1,-7 -19.6,-10.5 -34.2,-10.5 -14.6,0 -15,1 -21.8,3.1 -6.3,1.9 -12.5,4.8 -18.4,8.4 -1.7,1.1 -2.3,3.2 -1.5,5.1 l 6.8,14.4 c 0.5,1 1.4,1.8 2.5,2.1 1.1,0.3 2.3,0.1 3.3,-0.5 4.3,-2.8 8.5,-4.9 12.4,-6.4 4.4,-1.6 9,-2.4 13.9,-2.4 11.3,0 16.6,4.5 16.6,14.1 v 1.1 c -2.1,-0.8 -4.5,-1.4 -7.1,-1.9 -3.8,-0.7 -7.8,-1 -11.8,-1 -6.1,0 -11.8,0.8 -16.9,2.4 -5.1,1.6 -9.6,3.9 -13.3,6.8 -3.8,2.9 -6.8,6.5 -8.9,10.5 -2.1,4.1 -3.2,8.7 -3.2,13.6 0,4.9 0.9,8.9 2.7,12.7 1.8,3.9 4.2,7.3 7.2,10.1 3,2.9 6.7,5.1 11,6.7 4.2,1.6 8.8,2.4 13.7,2.4 4.9,0 13.2,-1.5 19.2,-4.5 4.6,-2.3 8.8,-5.4 12.4,-9.2 0.8,4.2 2.8,7.5 5.9,9.8 3.1,2.4 7.6,3.6 13.4,3.6 5.8,0 3.6,0 5.7,-0.3 1.7,-0.1 3.6,-0.4 5.5,-0.9 1.8,-0.4 3.2,-2 3.2,-3.9 v -21 c 0,-1.9 -1.3,-3.5 -3.1,-3.9 z M 1309.9,90 v 7.4 c 0,1.7 -1.1,3.4 -3.3,5.1 0,0 0,0 -0.1,0.1 -1.7,1.6 -3.9,2.9 -6.5,3.8 -2.7,1 -5.4,1.5 -8.3,1.5 -2.9,0 -6.4,-0.9 -8.6,-2.8 -2.1,-1.8 -3.2,-4 -3.2,-6.8 0,-2.8 1.4,-5.6 4.2,-7.5 3,-2.1 6.9,-3.2 11.7,-3.2 4.8,0 5,0.3 7.7,0.8 2.2,0.4 4.4,1 6.4,1.6 z"
     fill="#ffffff"
     id="path7" />
  <path
     d="m 1436.4,89.2 c -1.4,-3.2 -3.8,-6 -6.9,-8.4 -3,-2.3 -6.9,-4.4 -11.7,-6.3 -4.6,-1.8 -10.4,-3.6 -17.1,-5.4 -6.1,-1.5 -10.2,-2.9 -12.4,-4.1 -1.7,-0.9 -2.4,-2.2 -2.4,-4 0,-1.8 0.7,-3.3 2.2,-4.1 1.8,-1 4.1,-1.6 6.8,-1.6 2.7,0 7.4,0.8 11.3,2.3 3.6,1.4 7.7,3.7 12.3,6.8 0.9,0.6 2,0.8 3,0.6 1.1,-0.2 2,-0.8 2.5,-1.7 l 9.1,-14.1 c 1.1,-1.7 0.7,-4 -0.8,-5.3 -5.5,-4.6 -11.3,-7.8 -17.2,-9.6 -6.3,-2 -13.1,-2.9 -20.3,-2.9 -7.2,0 -10.8,0.8 -15.6,2.4 -4.8,1.6 -9,3.9 -12.5,6.8 -3.6,2.9 -6.4,6.5 -8.4,10.7 -2,4.2 -3.1,8.9 -3.1,13.9 0,5 0.7,7.3 2,10.1 1.3,2.9 3.5,5.6 6.6,7.8 2.9,2.1 6.6,4.1 11.1,5.8 4.4,1.7 9.8,3.4 16.2,5.2 6.2,1.6 10.5,3.1 12.9,4.5 2.5,1.4 2.8,3.1 2.8,4.1 0,1.8 -0.7,3 -2.1,3.9 -1.7,1.1 -4.1,1.6 -7.4,1.6 -4.7,0 -9.7,-1 -14.8,-3.1 -4.7,-1.9 -9.7,-4.5 -14.6,-7.8 -0.9,-0.6 -2,-0.8 -3.1,-0.6 -1.1,0.2 -2,0.9 -2.5,1.9 l -8.4,14.4 c -1,1.7 -0.6,3.8 0.9,5.1 5.3,4.5 11.7,8 19.1,10.5 7.9,2.6 16,3.9 24.2,3.9 12.2,0 22.1,-2.9 29.3,-8.7 7.4,-5.9 11.1,-13.9 11.1,-23.8 0,-9.9 -0.7,-7.9 -2.2,-11 z"
     fill="#ffffff"
     id="path8" />
  <path
     d="M 65.6,58.8 109.4,6.7 c 1,-1.2 1.2,-2.8 0.6,-4.3 C 109.3,1 108,0.1 106.4,0.1 H 78.5 c -1.2,0 -2.3,0.5 -3,1.4 l -42,49.4 V 4 c 0,-2.2 -1.8,-4 -4,-4 H 4 C 1.8,0 0,1.8 0,4 v 122.8 c 0,2.2 1.8,4 4,4 h 25.5 c 2.2,0 4,-1.8 4,-4 V 92.3 l 10.8,-11.2 33.8,48 c 0.7,1.1 2,1.7 3.3,1.7 h 28.7 c 1.5,0 2.9,-0.8 3.6,-2.2 0.7,-1.3 0.6,-2.9 -0.3,-4.2 L 65.9,58.7 Z"
     fill="#ffffff"
     id="path9" />
  <path
     d="m 199,46.6 c -4.5,-4.6 -10,-8.4 -16.4,-11.2 -6.4,-2.8 -13.8,-4.2 -22,-4.2 -8.2,0 -15.7,1.4 -22.1,4.2 -6.5,2.8 -12,6.5 -16.5,11.2 -4.5,4.6 -7.9,10.1 -10.2,16.2 -2.3,6.1 -3.4,12.5 -3.4,19.2 0,6.7 1.2,13.1 3.4,19.2 2.3,6.1 5.7,11.6 10.2,16.2 4.5,4.6 10,8.4 16.5,11.1 6.5,2.7 13.9,4.1 22.1,4.1 8.2,0 15.6,-1.4 22.1,-4.1 6.5,-2.7 12,-6.4 16.5,-11.1 4.5,-4.6 7.9,-10.1 10.2,-16.2 2.3,-6.1 3.4,-12.5 3.4,-19.2 0,-6.7 -1.2,-13.1 -3.5,-19.2 C 207,56.7 203.5,51.2 199,46.6 Z m -25.4,51.7 c -1.6,1.9 -3.6,3.4 -5.8,4.5 -2.2,1 -4.6,1.6 -7.3,1.6 -5.5,0 -9.8,-1.9 -13.4,-6 -3.5,-4 -5.3,-9.5 -5.3,-16.3 0,-6.8 0.5,-6.4 1.5,-9.2 1,-2.8 2.3,-5.1 4,-7.1 1.6,-1.9 3.6,-3.4 5.9,-4.4 2.3,-1.1 4.7,-1.6 7.4,-1.6 2.7,0 4.4,0.3 6.7,1 7.9,4.2 11.8,11.1 11.8,21.3 0,10.2 -0.5,6.4 -1.5,9.2 -1,2.8 -2.3,5.1 -4,7.1 z"
     fill="#ffffff"
     id="path10" />
  <path
     d="m 369.4,44.2 c -2.2,-3.8 -5.3,-6.9 -9.2,-9.3 -3.9,-2.4 -9.1,-3.6 -15.4,-3.6 -6.3,0 -14.9,1.7 -21,5 -4.9,2.6 -9,6.2 -12.4,10.6 -0.5,-1.2 -1.1,-2.3 -1.7,-3.4 -1.4,-2.4 -3.4,-4.6 -5.7,-6.4 -2.3,-1.8 -5.1,-3.2 -8.2,-4.3 -3.1,-1 -6.8,-1.5 -10.9,-1.5 -8.1,0 -15.4,1.6 -21.5,4.7 -4.2,2.1 -7.9,4.9 -10.9,8.4 v -7.3 c 0,-2.2 -1.8,-4 -4,-4 h -21.9 c -2.2,0 -4,1.8 -4,4 v 89.8 c 0,2.2 1.8,4 4,4 h 24.8 c 2.2,0 4,-1.8 4,-4 V 75.5 c 1.5,-4.4 3.9,-8.1 7.2,-10.7 3.3,-2.7 6.5,-4 9.8,-4 3.3,0 5.2,1.1 7.1,3.4 1.9,2.4 2.9,6.5 2.9,12.1 V 127 c 0,2.2 1.8,4 4,4 h 24.8 c 2.2,0 4,-1.8 4,-4 V 75.6 c 0.7,-2.1 1.7,-4 2.9,-5.8 1.3,-1.9 2.7,-3.5 4.2,-4.9 1.5,-1.3 3.1,-2.4 4.8,-3.1 1.7,-0.7 3.4,-1.1 5,-1.1 2.9,0 5.2,1.1 7.1,3.4 1.9,2.4 2.9,6.5 2.9,12.1 v 50.7 c 0,2.2 1.8,4 4,4 h 24.8 c 2.2,0 4,-1.8 4,-4 v -58 c 0,-4 -0.3,-8.2 -1,-12.4 -0.7,-4.4 -2.1,-8.5 -4.3,-12.2 z"
     fill="#ffffff"
     id="path11" />
  <path
     d="M 489.5,62 C 487.2,55.9 484,50.5 480,46 c -4,-4.5 -8.9,-8.1 -14.4,-10.8 -5.5,-2.6 -11.7,-3.9 -18.3,-3.9 -6.6,0 -14,1.6 -19.5,4.7 -3.6,2.1 -6.9,4.8 -9.7,8 v -6.9 c 0,-2.2 -1.8,-4 -4,-4 h -21 c -2.2,0 -4,1.8 -4,4 v 127.7 c 0,2.2 1.8,4 4,4 h 24.8 c 2.2,0 4,-1.8 4,-4 v -44.3 c 2.5,2.9 5.5,5.4 8.9,7.4 5.5,3.1 12.1,4.7 19.6,4.7 7.5,0 11.9,-1.3 17.2,-4 5.2,-2.6 9.8,-6.3 13.5,-10.8 3.7,-4.5 6.7,-9.9 8.7,-16.1 2.1,-6.1 3.1,-12.9 3.1,-20.1 0,-7.2 -1.2,-13.6 -3.4,-19.7 z m -31,28.2 c -0.9,2.6 -2.2,4.9 -3.8,6.8 -1.6,1.9 -3.6,3.4 -5.8,4.5 -2.2,1.1 -4.7,1.6 -7.4,1.6 -5.4,0 -9.9,-2 -13.4,-6 -3.4,-3.9 -5.2,-9 -5.2,-15.3 0,-6.3 0.5,-5.9 1.4,-8.5 0.9,-2.6 2.2,-4.9 3.8,-6.8 1.6,-1.9 3.6,-3.4 5.9,-4.5 4,-1.9 8.7,-2.1 13.8,-0.7 0.2,0 0.5,0.2 0.7,0.3 7.5,3.9 11.3,10.7 11.3,20.1 0,9.4 -0.5,5.9 -1.4,8.5 z"
     fill="#ffffff"
     id="path12" />
  <path
     d="m 596.5,37 c 0,-2.2 -1.8,-4 -4,-4 h -23.2 c -2.2,0 -4,1.8 -4,4 v 54.2 c 0,0.4 -0.2,0.9 -0.5,1.3 -2.5,3.8 -4.9,6.8 -7.7,8.5 -3.1,1.8 -6.4,2.8 -9.8,2.8 -3.4,0 -6,-1.2 -7.8,-3.8 -1.9,-2.7 -2.9,-6.7 -2.9,-11.9 V 37 c 0,-2.2 -1.8,-4 -4,-4 h -23.2 c -2.2,0 -4,1.8 -4,4 v 57.3 c 0,11.9 2.5,21.2 7.5,27.4 5.1,6.4 12.7,9.6 22.5,9.6 9.8,0 15,-1.5 21.3,-4.5 3.8,-1.8 7.2,-4.2 10.3,-7.2 0,5.1 0,11.9 -3.4,20.9 -5.8,15.3 -16.6,19.6 -28.2,20.7 -11.5,1.1 -26.7,-10.2 -39,-13.3 -7.2,-1.8 -35,-8.1 -48.6,20.5 -2.7,5.7 -10.7,38 14.7,49.9 25.4,11.9 2.3,-0.4 2.1,-1.6 -0.4,-2 -0.7,-5 -0.4,-8.1 0,0 1.8,-25.1 31.6,-13.9 0,0 17.9,7.7 32.7,7.7 14.8,0 24,-3.3 30.9,-7.1 6.7,-3.7 36.9,-21 36.9,-79.7 V 36.9 Z"
     fill="#ffffff"
     id="path13" />
</svg>
