<?xml version="1.0" encoding="utf-8"?>
<!-- Generator: Adobe Illustrator 16.0.0, SVG Export Plug-In . SVG Version: 6.00 Build 0)  -->
<!DOCTYPE svg PUBLIC "-//W3C//DTD SVG 1.1//EN" "http://www.w3.org/Graphics/SVG/1.1/DTD/svg11.dtd">
<svg version="1.1" id="Layer_1" xmlns="http://www.w3.org/2000/svg" xmlns:xlink="http://www.w3.org/1999/xlink" x="0px" y="0px"
	 width="48px" height="44px" viewBox="0 0 48 44" enable-background="new 0 0 48 44" xml:space="preserve">
<g>
	<g>
		<path fill="#4398D1" d="M28.776,8.867H1.179V6.238l13.799-5.257l13.799,5.257V8.867z"/>
		<path fill="#4398D1" d="M23.519,8.867h2.629v11.827h-2.629V8.867z"/>
		<path fill="#4398D1" d="M16.948,8.867h2.629v11.827h-2.629V8.867z"/>
		<path fill="#4398D1" d="M10.378,8.867h2.627v11.827h-2.627V8.867z"/>
		<path fill="#4398D1" d="M3.807,8.867h2.628v11.827H3.807V8.867z"/>
		<path fill="#3582BD" d="M23.519,8.867h2.629v1.314h-2.629V8.867z"/>
		<path fill="#3582BD" d="M16.948,8.867h2.629v1.314h-2.629V8.867z"/>
		<path fill="#3582BD" d="M10.378,8.867h2.627v1.314h-2.627V8.867z"/>
		<path fill="#3582BD" d="M3.807,8.867h2.628v1.314H3.807V8.867z"/>
		<path fill="#3E8CC7" d="M2.493,20.694h24.969v2.628H2.493V20.694z"/>
		<path fill="#4398D1" d="M1.179,23.322h27.598v2.628H1.179V23.322z"/>
		<path fill="#3582BD" d="M16.292,4.925c0,0.727-0.59,1.313-1.314,1.313c-0.727,0-1.314-0.587-1.314-1.313
			c0-0.726,0.588-1.314,1.314-1.314C15.702,3.61,16.292,4.199,16.292,4.925z"/>
	</g>
	<g>
		<path fill="#4398D1" d="M46.821,25.934H19.224v-2.628l13.799-5.257l13.799,5.257V25.934z"/>
		<path fill="#4398D1" d="M41.565,25.934h2.628v11.828h-2.628V25.934z"/>
		<path fill="#4398D1" d="M34.993,25.934h2.629v11.828h-2.629V25.934z"/>
		<path fill="#4398D1" d="M28.423,25.934h2.629v11.828h-2.629V25.934z"/>
		<path fill="#4398D1" d="M21.853,25.934h2.628v11.828h-2.628V25.934z"/>
		<path fill="#3582BD" d="M41.565,25.934h2.628v1.314h-2.628V25.934z"/>
		<path fill="#3582BD" d="M34.993,25.934h2.629v1.314h-2.629V25.934z"/>
		<path fill="#3582BD" d="M28.423,25.934h2.629v1.314h-2.629V25.934z"/>
		<path fill="#3582BD" d="M21.853,25.934h2.628v1.314h-2.628V25.934z"/>
		<path fill="#3E8CC7" d="M20.538,37.762h24.97v2.628h-24.97V37.762z"/>
		<path fill="#4398D1" d="M19.224,40.39h27.598v2.629H19.224V40.39z"/>
		<path fill="#3582BD" d="M34.337,21.991c0,0.726-0.589,1.314-1.314,1.314c-0.727,0-1.312-0.589-1.312-1.314
			c0-0.727,0.586-1.314,1.312-1.314C33.748,20.677,34.337,21.265,34.337,21.991z"/>
	</g>
	<path fill="#FDB62F" d="M10.378,30.552h1.313v1.313h-1.313V30.552z"/>
	<path fill="#FDB62F" d="M10.378,27.923h1.313v1.314h-1.313V27.923z"/>
	<path fill="#FDB62F" d="M10.378,33.18h1.313v1.313h-1.313V33.18z"/>
	<path fill="#FDB62F" d="M10.378,35.808h1.313v1.315h-1.313V35.808z"/>
	<path fill="#FDB62F" d="M13.005,35.808h1.314v1.315h-1.314V35.808z"/>
	<path fill="#FDB62F" d="M15.634,35.808h1.314v1.315h-1.314V35.808z"/>
	<path fill="#FDB62F" d="M18.263,35.808h1.314v1.315h-1.314V35.808z"/>
</g>
</svg>
