<?xml version="1.0" encoding="UTF-8"?>
<svg xmlns="http://www.w3.org/2000/svg" xmlns:xlink="http://www.w3.org/1999/xlink" width="57pt" height="68pt" viewBox="0 0 57 68" version="1.1">
<g id="surface1">
<path style=" stroke:none;fill-rule:nonzero;fill:rgb(37.647059%,77.254902%,90.980392%);fill-opacity:1;" d="M 51 52.601562 L 33.300781 62.800781 C 30.300781 64.5 26.601562 64.5 23.699219 62.800781 L 6 52.601562 C 3 50.898438 1.199219 47.699219 1.199219 44.199219 L 1.199219 23.800781 C 1.199219 20.398438 3 17.199219 6 15.398438 L 23.699219 5.199219 C 26.699219 3.5 30.398438 3.5 33.300781 5.199219 L 51 15.398438 C 54 17.101562 55.800781 20.300781 55.800781 23.800781 L 55.800781 44.199219 C 55.800781 47.699219 54 50.800781 51 52.601562 Z M 51 52.601562 "/>
<path style=" stroke:none;fill-rule:nonzero;fill:rgb(91.764706%,35.294118%,32.156863%);fill-opacity:1;" d="M 50.601562 34.699219 L 6.398438 34.699219 L 4 51 C 4.601562 51.601562 5.300781 52.101562 6 52.601562 L 23.699219 62.800781 C 25 63.601562 26.5 64 28 64 C 28.101562 64 28.199219 64 28.300781 64 C 28.398438 64 28.5 64 28.601562 64 C 28.800781 64 29 64 29.101562 64 C 30.601562 63.898438 32.101562 63.5 33.398438 62.699219 L 51 52.601562 C 51.800781 52.101562 52.5 51.601562 53.101562 50.898438 Z M 50.601562 34.699219 "/>
<path style=" stroke:none;fill-rule:nonzero;fill:rgb(82.745098%,20.784314%,19.215686%);fill-opacity:1;" d="M 14.300781 38.398438 L 10.199219 34.699219 L 6.398438 34.699219 L 4 51 C 4.601562 51.601562 5.300781 52.101562 6 52.601562 L 23.699219 62.800781 C 25 63.601562 26.5 64 28 64.101562 C 28.199219 64.101562 28.398438 64.101562 28.601562 64.101562 C 10.5 57.5 14.300781 38.398438 14.300781 38.398438 Z M 14.300781 38.398438 "/>
<path style=" stroke:none;fill-rule:nonzero;fill:rgb(91.764706%,35.294118%,32.156863%);fill-opacity:1;" d="M 28.5 42.199219 C 23 42.199219 17.800781 41.601562 13.898438 40.601562 C 8.898438 39.300781 6.398438 37.300781 6.398438 34.699219 C 6.398438 32.101562 8.898438 30.101562 13.898438 28.800781 C 17.800781 27.800781 23 27.199219 28.5 27.199219 C 34 27.199219 39.199219 27.800781 43.101562 28.800781 C 48.101562 30.101562 50.601562 32.101562 50.601562 34.699219 C 50.601562 37.300781 48.101562 39.300781 43.101562 40.601562 C 39.199219 41.601562 34 42.199219 28.5 42.199219 Z M 28.5 42.199219 "/>
<path style=" stroke:none;fill-rule:nonzero;fill:rgb(100%,100%,100%);fill-opacity:1;" d="M 48.398438 34.699219 C 48.398438 31.828125 39.492188 29.5 28.5 29.5 C 17.507812 29.5 8.601562 31.828125 8.601562 34.699219 C 8.601562 37.570312 17.507812 39.898438 28.5 39.898438 C 39.492188 39.898438 48.398438 37.570312 48.398438 34.699219 Z M 48.398438 34.699219 "/>
<path style=" stroke:none;fill-rule:nonzero;fill:rgb(77.647059%,77.647059%,77.647059%);fill-opacity:1;" d="M 45.800781 34.699219 C 45.398438 35 44.601562 35.398438 43.199219 35.898438 C 42.800781 36 42.300781 36.199219 41.699219 36.300781 C 41.398438 36.398438 41.101562 36.398438 40.800781 36.5 C 37.398438 37.300781 33 37.699219 28.398438 37.699219 C 26.601562 37.699219 24.800781 37.601562 23.101562 37.5 C 22.199219 37.398438 21.398438 37.398438 20.601562 37.300781 C 19 37.101562 17.398438 36.898438 16.101562 36.5 C 15.800781 36.398438 15.5 36.398438 15.199219 36.300781 C 14.699219 36.199219 14.199219 36 13.699219 35.898438 C 12.300781 35.5 11.5 35 11.101562 34.699219 C 11.601562 34.398438 12.398438 33.898438 14 33.398438 C 14.5 33.300781 15 33.101562 15.601562 33 C 15.699219 33 15.898438 32.898438 16 32.898438 C 17.5 32.601562 19.199219 32.300781 21 32.101562 C 21.800781 32 22.601562 31.898438 23.398438 31.898438 C 25 31.800781 26.699219 31.699219 28.398438 31.699219 C 33 31.699219 37.398438 32.101562 40.800781 32.898438 C 40.898438 32.898438 41.101562 33 41.199219 33 C 41.800781 33.101562 42.300781 33.300781 42.800781 33.398438 C 44.5 33.898438 45.398438 34.398438 45.800781 34.699219 Z M 45.800781 34.699219 "/>
<path style=" stroke:none;fill-rule:nonzero;fill:rgb(72.941176%,29.803922%,12.54902%);fill-opacity:1;" d="M 42.601562 35 C 42.5 34.898438 42.300781 34.898438 42.199219 34.800781 C 42.699219 34.5 43 34 43 33.398438 C 43 33.300781 43 33.199219 43 33.101562 C 42.898438 32.398438 42.300781 31.898438 41.699219 31.898438 C 42.199219 31.5 42.5 30.800781 42.300781 30.199219 C 42.101562 29.5 41.5 29.101562 40.800781 29.101562 C 41.300781 28.601562 41.398438 27.898438 41.101562 27.300781 C 40.800781 26.699219 40.101562 26.398438 39.5 26.5 C 39.898438 26 39.898438 25.199219 39.5 24.699219 C 39.101562 24.101562 38.398438 23.898438 37.699219 24.199219 C 38 23.601562 37.898438 22.898438 37.398438 22.398438 C 36.898438 21.898438 36.101562 21.898438 35.5 22.199219 C 35.699219 21.5 35.398438 20.800781 34.800781 20.5 C 34.199219 20.101562 33.398438 20.300781 32.898438 20.699219 C 32.898438 20 32.5 19.398438 31.800781 19.199219 C 31.101562 19 30.398438 19.300781 30 19.898438 C 29.898438 19.5 29.601562 19.101562 29.300781 18.898438 C 29.300781 18.898438 29.300781 18.898438 29.199219 18.898438 C 29.199219 18.898438 29.101562 18.898438 29.101562 18.898438 C 29.101562 18.898438 29 18.898438 29 18.898438 C 28.800781 18.800781 28.699219 18.800781 28.5 18.800781 C 27.800781 18.800781 27.199219 19.300781 27 20 C 26.699219 19.398438 25.898438 19.101562 25.199219 19.300781 C 24.5 19.5 24.101562 20.101562 24.101562 20.800781 C 23.601562 20.300781 22.800781 20.199219 22.199219 20.601562 C 21.601562 21 21.300781 21.699219 21.5 22.300781 C 20.898438 21.898438 20.199219 22 19.601562 22.5 C 19.101562 23 19 23.699219 19.300781 24.300781 C 18.699219 24.101562 17.898438 24.300781 17.5 24.800781 C 17.101562 25.398438 17.101562 26.101562 17.5 26.601562 C 16.800781 26.5 16.199219 26.800781 15.898438 27.398438 C 15.601562 28 15.699219 28.699219 16.199219 29.199219 C 15.5 29.199219 14.898438 29.601562 14.699219 30.300781 C 14.5 31 14.699219 31.699219 15.300781 32 C 14.601562 32.101562 14.101562 32.601562 14 33.199219 C 14 33.300781 14 33.398438 14 33.5 C 14 34.101562 14.300781 34.601562 14.800781 34.898438 C 14.601562 35 14.398438 35.101562 14.199219 35.199219 C 14 35.398438 13.800781 35.699219 13.699219 36 C 14.101562 36.101562 14.601562 36.300781 15.199219 36.398438 C 15.5 36.5 15.800781 36.5 16.101562 36.601562 C 17.5 36.898438 19 37.199219 20.601562 37.398438 C 21.398438 37.5 22.300781 37.601562 23.101562 37.601562 C 24.800781 37.699219 26.601562 37.800781 28.398438 37.800781 C 33 37.800781 37.398438 37.398438 40.800781 36.601562 C 41.101562 36.5 41.398438 36.5 41.699219 36.398438 C 42.300781 36.300781 42.699219 36.101562 43.199219 36 C 43.101562 35.5 42.898438 35.199219 42.601562 35 Z M 42.601562 35 "/>
<path style=" stroke:none;fill-rule:nonzero;fill:rgb(62.745098%,20.784314%,6.27451%);fill-opacity:1;" d="M 29 18.699219 C 28.5 18.5 27.898438 18.601562 27.5 19 C 27 19.398438 26.800781 20 27 20.601562 C 26.398438 20.5 25.800781 20.601562 25.398438 21.101562 C 25 21.601562 25 22.199219 25.199219 22.699219 C 24.601562 22.699219 24.101562 22.898438 23.800781 23.5 C 23.5 24 23.5 24.601562 23.898438 25.101562 C 23.300781 25.101562 22.800781 25.5 22.601562 26.101562 C 22.398438 26.699219 22.5 27.300781 22.898438 27.699219 C 22.398438 27.800781 21.898438 28.199219 21.699219 28.800781 C 21.5 29.398438 21.699219 30 22.101562 30.300781 C 21.601562 30.5 21.199219 30.898438 21.101562 31.5 C 21.101562 31.699219 21.101562 32 21.101562 32.199219 C 21.199219 32.5 21.398438 32.800781 21.601562 33 C 21.101562 33.199219 20.699219 33.699219 20.699219 34.300781 C 20.699219 34.898438 20.898438 35.398438 21.398438 35.699219 C 21.300781 35.699219 21.199219 35.800781 21.199219 35.898438 C 20.800781 36.300781 20.601562 36.898438 20.699219 37.398438 C 19.101562 37.199219 17.5 37 16.199219 36.601562 C 15.898438 36.5 15.601562 36.5 15.300781 36.398438 C 14.800781 36.300781 14.300781 36.101562 13.800781 36 C 13.898438 35.699219 14.101562 35.398438 14.300781 35.199219 C 14.5 35.101562 14.699219 35 14.898438 34.898438 C 14.398438 34.601562 14.101562 34.101562 14.101562 33.5 C 14.101562 33.398438 14.101562 33.300781 14.101562 33.199219 C 14.199219 32.5 14.800781 32 15.398438 32 C 14.898438 31.601562 14.601562 30.898438 14.800781 30.300781 C 15 29.601562 15.601562 29.199219 16.300781 29.199219 C 15.800781 28.699219 15.699219 28 16 27.398438 C 16.300781 26.800781 17 26.5 17.601562 26.601562 C 17.199219 26.101562 17.199219 25.300781 17.601562 24.800781 C 18 24.199219 18.699219 24 19.398438 24.300781 C 19.101562 23.699219 19.199219 23 19.699219 22.5 C 20.199219 22 21 22 21.601562 22.300781 C 21.398438 21.601562 21.699219 20.898438 22.300781 20.601562 C 22.898438 20.199219 23.699219 20.300781 24.199219 20.800781 C 24.199219 20.101562 24.601562 19.5 25.300781 19.300781 C 26 19.101562 26.699219 19.398438 27.101562 20 C 27.300781 19.300781 27.898438 18.800781 28.601562 18.800781 C 28.699219 18.601562 28.800781 18.699219 29 18.699219 Z M 29 18.699219 "/>
</g>
</svg>
