<?xml version="1.0" encoding="UTF-8"?>
<svg xmlns="http://www.w3.org/2000/svg" xmlns:xlink="http://www.w3.org/1999/xlink" width="57pt" height="68pt" viewBox="0 0 57 68" version="1.1">
<g id="surface1">
<path style=" stroke:none;fill-rule:nonzero;fill:rgb(99.607843%,39.215686%,43.529412%);fill-opacity:1;" d="M 51 52.601562 L 33.300781 62.800781 C 30.300781 64.5 26.601562 64.5 23.699219 62.800781 L 6 52.601562 C 3 50.898438 1.199219 47.699219 1.199219 44.199219 L 1.199219 23.800781 C 1.199219 20.398438 3 17.199219 6 15.398438 L 23.699219 5.199219 C 26.699219 3.5 30.398438 3.5 33.300781 5.199219 L 51 15.398438 C 54 17.101562 55.800781 20.300781 55.800781 23.800781 L 55.800781 44.199219 C 55.800781 47.699219 54 50.800781 51 52.601562 Z M 51 52.601562 "/>
<path style=" stroke:none;fill-rule:nonzero;fill:rgb(60%,26.27451%,20.392157%);fill-opacity:1;" d="M 8.800781 20.5 L 9.5 20.5 L 9.5 20 C 9.5 19.699219 9.699219 19.5 10 19.5 L 17.199219 19.5 C 19.5 19.5 21.601562 18.398438 22.800781 16.5 C 22.898438 16.398438 23 16.300781 23.199219 16.300781 C 23.398438 16.300781 23.5 16.398438 23.601562 16.5 C 24.898438 18.300781 27 19.5 29.199219 19.5 L 29.398438 19.5 C 29.699219 19.5 29.898438 19.699219 29.898438 20 L 29.898438 20.5 L 30.601562 20.5 C 30.898438 20.5 31.101562 20.601562 31.398438 20.601562 L 31.398438 16 C 31.398438 10.800781 27 6.601562 21.5 6.601562 L 17.898438 6.601562 C 12.5 6.601562 8 10.800781 8 16 L 8 20.601562 C 8.300781 20.601562 8.5 20.5 8.800781 20.5 Z M 8.800781 20.5 "/>
<path style=" stroke:none;fill-rule:nonzero;fill:rgb(48.627451%,18.039216%,14.117647%);fill-opacity:1;" d="M 8.800781 20.5 L 9.5 20.5 L 9.5 20 C 9.5 19.699219 9.699219 19.5 10 19.5 L 10.800781 19.5 L 10.800781 16 C 10.800781 10.800781 15.199219 6.601562 20.699219 6.601562 L 18 6.601562 C 12.601562 6.601562 8.101562 10.800781 8.101562 16 L 8.101562 20.601562 C 8.300781 20.601562 8.5 20.5 8.800781 20.5 Z M 8.800781 20.5 "/>
<path style=" stroke:none;fill-rule:nonzero;fill:rgb(93.333333%,96.470588%,100%);fill-opacity:1;" d="M 23.699219 62.800781 C 23.898438 62.898438 24.199219 63 24.398438 63.101562 C 23.800781 59.699219 23.601562 56.199219 23.699219 52.601562 L 23 52.601562 C 22.199219 52.601562 21.5 51.898438 21.5 51.101562 L 21.5 47.300781 C 21.5 46.5 22.199219 45.800781 23 45.800781 L 24.300781 45.800781 C 24.800781 42 25.699219 38.199219 27 34.398438 C 26.898438 34 26.800781 33.601562 26.800781 33.101562 L 23.199219 33.101562 L 23.199219 33.601562 C 23.199219 35.398438 21.699219 36.898438 19.800781 36.898438 C 17.898438 36.898438 16.398438 35.398438 16.398438 33.601562 L 16.398438 33.101562 L 10 33.101562 C 7.5 33.101562 5.5 35.101562 5.5 37.601562 L 5.5 51 C 5.898438 51.699219 6.398438 52.300781 6.898438 53 Z M 23.699219 62.800781 "/>
<path style=" stroke:none;fill-rule:nonzero;fill:rgb(85.098039%,91.764706%,98.823529%);fill-opacity:1;" d="M 8 37.199219 C 8.300781 37.199219 8.699219 37.300781 9 37.398438 C 9.101562 35.101562 11.101562 33.199219 13.5 33.199219 L 10 33.199219 C 7.5 33.199219 5.5 35.199219 5.5 37.699219 L 5.5 39.699219 C 5.5 38.300781 6.601562 37.199219 8 37.199219 Z M 8 37.199219 "/>
<path style=" stroke:none;fill-rule:nonzero;fill:rgb(100%,68.627451%,40.784314%);fill-opacity:1;" d="M 19.699219 33.300781 C 18.5 33.300781 17.300781 33.101562 16.199219 32.699219 L 16.199219 33.699219 C 16.199219 35.601562 17.800781 37.101562 19.699219 37.101562 C 21.601562 37.101562 23.199219 35.601562 23.199219 33.699219 L 23.199219 32.699219 C 22.101562 33 20.898438 33.300781 19.699219 33.300781 Z M 19.699219 33.300781 "/>
<path style=" stroke:none;fill-rule:nonzero;fill:rgb(100%,62.352941%,37.647059%);fill-opacity:1;" d="M 18.5 33.699219 L 18.5 33.199219 C 17.699219 33.101562 16.898438 32.898438 16.199219 32.601562 L 16.199219 33.601562 C 16.199219 35.5 17.800781 37 19.699219 37 C 20.101562 37 20.5 36.898438 20.898438 36.800781 C 19.5 36.398438 18.5 35.101562 18.5 33.699219 Z M 18.5 33.699219 "/>
<path style=" stroke:none;fill-rule:nonzero;fill:rgb(96.862745%,61.568627%,34.901961%);fill-opacity:1;" d="M 9.5 23.101562 L 9.5 20.398438 L 8.800781 20.398438 C 7.601562 20.398438 6.601562 21.398438 6.601562 22.601562 L 6.601562 24.800781 C 6.601562 26 7.601562 27 8.800781 27 L 10.300781 27 C 9.800781 25.800781 9.5 24.5 9.5 23.101562 Z M 9.5 23.101562 "/>
<path style=" stroke:none;fill-rule:nonzero;fill:rgb(96.862745%,61.568627%,34.901961%);fill-opacity:1;" d="M 30.601562 20.398438 L 29.898438 20.398438 L 29.898438 23.101562 C 29.898438 24.5 29.601562 25.800781 29.101562 27 L 30.601562 27 C 31.800781 27 32.800781 26 32.800781 24.800781 L 32.800781 22.601562 C 32.800781 21.398438 31.800781 20.398438 30.601562 20.398438 Z M 30.601562 20.398438 "/>
<path style=" stroke:none;fill-rule:nonzero;fill:rgb(100%,78.823529%,52.941176%);fill-opacity:1;" d="M 27.300781 30 C 27.699219 29.101562 28.199219 28.300781 28.898438 27.699219 C 29.601562 26.300781 30 24.699219 30 23.101562 L 30 20 C 30 19.699219 29.699219 19.398438 29.398438 19.398438 L 29.199219 19.398438 C 27 19.398438 24.898438 18.300781 23.601562 16.5 C 23.5 16.300781 23.300781 16.199219 23.101562 16.199219 C 22.898438 16.199219 22.699219 16.300781 22.601562 16.5 C 21.300781 18.300781 19.300781 19.398438 17 19.398438 L 10 19.398438 C 9.699219 19.398438 9.398438 19.699219 9.398438 20 L 9.398438 23.101562 C 9.398438 28.800781 14 33.398438 19.699219 33.398438 C 22.699219 33.398438 25.398438 32.101562 27.300781 30 Z M 27.300781 30 "/>
<path style=" stroke:none;fill-rule:nonzero;fill:rgb(100%,68.627451%,40.784314%);fill-opacity:1;" d="M 11.800781 23.101562 L 11.800781 20 C 11.800781 19.699219 12.101562 19.398438 12.398438 19.398438 L 10 19.398438 C 9.699219 19.398438 9.398438 19.699219 9.398438 20 L 9.398438 23.101562 C 9.398438 28.800781 14 33.398438 19.699219 33.398438 C 20.101562 33.398438 20.5 33.398438 20.898438 33.300781 C 15.800781 32.699219 11.800781 28.398438 11.800781 23.101562 Z M 11.800781 23.101562 "/>
<path style=" stroke:none;fill-rule:nonzero;fill:rgb(10.196078%,16.862745%,38.823529%);fill-opacity:1;" d="M 16.300781 23.300781 C 16.300781 24.101562 15.601562 24.800781 14.800781 24.800781 C 14 24.800781 13.300781 24.101562 13.300781 23.300781 L 13.300781 22.199219 C 13.300781 21.398438 14 20.699219 14.800781 20.699219 C 15.601562 20.699219 16.300781 21.398438 16.300781 22.199219 Z M 16.300781 23.300781 "/>
<path style=" stroke:none;fill-rule:nonzero;fill:rgb(10.196078%,16.862745%,38.823529%);fill-opacity:1;" d="M 26 23.300781 C 26 24.101562 25.300781 24.800781 24.5 24.800781 C 23.699219 24.800781 23 24.101562 23 23.300781 L 23 22.199219 C 23 21.398438 23.699219 20.699219 24.5 20.699219 C 25.300781 20.699219 26 21.398438 26 22.199219 Z M 26 23.300781 "/>
<path style=" stroke:none;fill-rule:nonzero;fill:rgb(100%,62.352941%,37.647059%);fill-opacity:1;" d="M 19.699219 31.800781 C 17.300781 31.800781 15.398438 29.898438 15.398438 27.5 C 15.398438 27.199219 15.699219 26.898438 16 26.898438 L 23.398438 26.898438 C 23.699219 26.898438 24 27.199219 24 27.5 C 24 29.898438 22.101562 31.800781 19.699219 31.800781 Z M 19.699219 31.800781 "/>
<path style=" stroke:none;fill-rule:nonzero;fill:rgb(96.862745%,52.941176%,28.235294%);fill-opacity:1;" d="M 17.800781 27.5 C 17.800781 27.199219 18.101562 26.898438 18.398438 26.898438 L 16 26.898438 C 15.699219 26.898438 15.398438 27.199219 15.398438 27.5 C 15.398438 29.898438 17.300781 31.800781 19.699219 31.800781 C 20.101562 31.800781 20.5 31.699219 20.898438 31.601562 C 19.101562 31.101562 17.800781 29.398438 17.800781 27.5 Z M 17.800781 27.5 "/>
<path style=" stroke:none;fill-rule:nonzero;fill:rgb(74.901961%,49.411765%,32.156863%);fill-opacity:1;" d="M 20.601562 25.699219 L 19.398438 25.699219 C 18.601562 25.699219 17.898438 25 17.898438 24.199219 L 17.898438 22.5 C 17.898438 22 18.300781 21.601562 18.800781 21.601562 C 19.300781 21.601562 19.699219 22 19.699219 22.5 L 19.699219 24 L 20.601562 24 C 21.101562 24 21.5 24.398438 21.5 24.898438 C 21.398438 25.300781 21.101562 25.699219 20.601562 25.699219 Z M 20.601562 25.699219 "/>
<path style=" stroke:none;fill-rule:nonzero;fill:rgb(74.901961%,49.411765%,32.156863%);fill-opacity:1;" d="M 27.898438 64 C 28.101562 64 28.398438 64 28.601562 64 C 30.199219 64 31.800781 63.601562 33.300781 62.699219 L 48.800781 53.800781 C 48.800781 52.601562 48.800781 51.398438 48.699219 50.199219 L 47.699219 50.199219 C 47.300781 50.199219 46.898438 49.800781 46.898438 49.398438 C 46.898438 49.101562 47 48.898438 47.199219 48.800781 C 47.300781 48.800781 47.300781 48.699219 47.300781 48.601562 C 47.300781 48.5 47.300781 48.398438 47.199219 48.398438 C 47 48.199219 46.898438 48 46.898438 47.800781 C 46.898438 47.5 47 47.300781 47.199219 47.199219 C 47.300781 47.199219 47.300781 47.101562 47.300781 47 C 47.300781 46.898438 47.300781 46.800781 47.199219 46.800781 C 47 46.601562 46.898438 46.398438 46.898438 46.199219 C 46.898438 45.898438 47 45.699219 47.199219 45.601562 C 47.300781 45.601562 47.300781 45.5 47.300781 45.398438 C 47.300781 45.300781 47.300781 45.199219 47.199219 45.199219 C 47 45 46.898438 44.800781 46.898438 44.601562 C 46.898438 44.199219 47.300781 43.800781 47.699219 43.800781 L 47.898438 43.800781 C 47.300781 40.699219 46.5 37.699219 45.5 34.699219 C 45.601562 34.199219 45.699219 33.601562 45.699219 33 C 45.699219 30.898438 44.800781 28.898438 43.199219 27.601562 C 43.101562 27.5 43 27.5 42.800781 27.5 C 42.601562 27.5 42.5 27.5 42.398438 27.601562 C 41.199219 28.699219 40.300781 30.101562 40 31.699219 C 37.398438 31.699219 34.699219 31.699219 32.101562 31.699219 C 31.800781 30.101562 31 28.699219 29.699219 27.601562 C 29.601562 27.5 29.5 27.5 29.300781 27.5 C 29.199219 27.5 29 27.5 28.898438 27.601562 C 27.300781 29 26.398438 30.898438 26.398438 33 C 26.398438 33.601562 26.5 34.101562 26.601562 34.699219 C 25.300781 38.398438 24.398438 42.300781 23.800781 46.101562 L 24.898438 46.101562 C 25.300781 46.101562 25.699219 46.5 25.699219 46.898438 C 25.699219 47.199219 25.601562 47.398438 25.398438 47.5 C 25.300781 47.5 25.300781 47.601562 25.300781 47.699219 C 25.300781 47.800781 25.300781 47.898438 25.398438 47.898438 C 25.601562 48.101562 25.699219 48.300781 25.699219 48.5 C 25.699219 48.800781 25.601562 49 25.398438 49.101562 C 25.300781 49.101562 25.300781 49.199219 25.300781 49.300781 C 25.300781 49.398438 25.300781 49.5 25.398438 49.5 C 25.601562 49.699219 25.699219 49.898438 25.699219 50.101562 C 25.699219 50.398438 25.601562 50.601562 25.398438 50.699219 C 25.300781 50.699219 25.300781 50.800781 25.300781 50.898438 C 25.300781 51 25.300781 51.101562 25.398438 51.101562 C 25.601562 51.300781 25.699219 51.5 25.699219 51.699219 C 25.699219 52.101562 25.300781 52.5 24.898438 52.5 L 23.199219 52.5 C 23.101562 56 23.398438 59.5 24 62.898438 C 25.398438 63.601562 26.601562 64 27.898438 64 Z M 27.898438 64 "/>
<path style=" stroke:none;fill-rule:nonzero;fill:rgb(26.666667%,36.862745%,62.745098%);fill-opacity:1;" d="M 34.199219 46.699219 L 26 46.699219 C 26 47 25.898438 47.199219 25.699219 47.300781 C 25.601562 47.300781 25.601562 47.398438 25.601562 47.5 C 25.601562 47.601562 25.601562 47.699219 25.699219 47.699219 C 25.898438 47.898438 26 48.101562 26 48.300781 C 26 48.601562 25.898438 48.800781 25.699219 48.898438 C 25.601562 48.898438 25.601562 49 25.601562 49.101562 C 25.601562 49.101562 25.601562 49.199219 25.601562 49.199219 L 34.398438 49.199219 C 34.300781 49 34.199219 48.699219 34.199219 48.398438 Z M 34.199219 46.699219 "/>
<path style=" stroke:none;fill-rule:nonzero;fill:rgb(26.666667%,36.862745%,62.745098%);fill-opacity:1;" d="M 47.199219 48.800781 C 47.300781 48.800781 47.300781 48.699219 47.300781 48.601562 C 47.300781 48.5 47.300781 48.398438 47.199219 48.398438 C 47 48.199219 46.898438 48 46.898438 47.800781 C 46.898438 47.5 47 47.300781 47.199219 47.199219 C 47.300781 47.199219 47.300781 47.101562 47.300781 47 C 47.300781 46.898438 47.300781 46.800781 47.199219 46.800781 L 38.101562 46.800781 L 38.101562 48.699219 C 38.101562 49 38 49.300781 37.898438 49.5 L 46.898438 49.5 C 46.898438 49.199219 47 49 47.199219 48.800781 Z M 47.199219 48.800781 "/>
<path style=" stroke:none;fill-rule:nonzero;fill:rgb(18.039216%,29.803922%,53.72549%);fill-opacity:1;" d="M 26 46.699219 C 26 47 25.898438 47.199219 25.699219 47.300781 C 25.601562 47.300781 25.601562 47.398438 25.601562 47.5 C 25.601562 47.601562 25.601562 47.699219 25.699219 47.699219 C 25.898438 47.898438 26 48.101562 26 48.300781 C 26 48.601562 25.898438 48.800781 25.699219 48.898438 C 25.601562 48.898438 25.601562 49 25.601562 49.101562 C 25.601562 49.101562 25.601562 49.199219 25.601562 49.199219 L 27.601562 49.199219 L 27.601562 46.5 Z M 26 46.699219 "/>
<path style=" stroke:none;fill-rule:nonzero;fill:rgb(10.196078%,16.862745%,38.823529%);fill-opacity:1;" d="M 32.800781 38.101562 C 32.800781 38.699219 32.300781 39.199219 31.699219 39.199219 C 31.101562 39.199219 30.601562 38.699219 30.601562 38.101562 C 30.601562 37.5 31.101562 37 31.699219 37 C 32.300781 36.898438 32.800781 37.398438 32.800781 38.101562 Z M 32.800781 38.101562 "/>
<path style=" stroke:none;fill-rule:nonzero;fill:rgb(10.196078%,16.862745%,38.823529%);fill-opacity:1;" d="M 41.601562 38.101562 C 41.601562 38.699219 41.101562 39.199219 40.5 39.199219 C 39.898438 39.199219 39.398438 38.699219 39.398438 38.101562 C 39.398438 37.5 39.898438 37 40.5 37 C 41.101562 37 41.601562 37.398438 41.601562 38.101562 Z M 41.601562 38.101562 "/>
<path style=" stroke:none;fill-rule:nonzero;fill:rgb(99.607843%,21.568627%,27.058824%);fill-opacity:1;" d="M 36.101562 45.699219 C 35.398438 45.699219 34.699219 45.601562 34 45.398438 L 34 48.601562 C 34 49.699219 34.898438 50.699219 36.101562 50.699219 C 37.300781 50.699219 38.199219 49.800781 38.199219 48.601562 L 38.199219 45.398438 C 37.601562 45.601562 36.898438 45.699219 36.101562 45.699219 Z M 36.101562 45.699219 "/>
<path style=" stroke:none;fill-rule:nonzero;fill:rgb(91.764706%,16.470588%,23.921569%);fill-opacity:1;" d="M 35.601562 48.601562 L 35.601562 45.699219 C 35.101562 45.699219 34.5 45.5 34.101562 45.398438 L 34.101562 48.601562 C 34.101562 49.699219 35 50.699219 36.199219 50.699219 C 36.5 50.699219 36.699219 50.601562 37 50.5 C 36.199219 50.199219 35.601562 49.398438 35.601562 48.601562 Z M 35.601562 48.601562 "/>
<path style=" stroke:none;fill-rule:nonzero;fill:rgb(100%,68.627451%,40.784314%);fill-opacity:1;" d="M 38.300781 39.898438 C 38.300781 40 38.300781 40.101562 38.300781 40.199219 C 38.300781 40.800781 37.800781 41.398438 37.101562 41.398438 L 34.898438 41.398438 C 34.300781 41.398438 33.699219 40.898438 33.699219 40.199219 C 33.699219 40.101562 33.699219 40 33.699219 39.898438 C 32.300781 40.398438 31.398438 41.5 31.398438 42.601562 C 31.398438 44.300781 33.398438 45.699219 35.898438 45.699219 C 38.398438 45.699219 40.398438 44.300781 40.398438 42.601562 C 40.699219 41.5 39.699219 40.398438 38.300781 39.898438 Z M 38.300781 39.898438 "/>
<path style=" stroke:none;fill-rule:nonzero;fill:rgb(96.862745%,61.568627%,34.901961%);fill-opacity:1;" d="M 33.300781 42.699219 C 33.300781 42 33.601562 41.398438 34.101562 40.898438 C 34 40.699219 33.898438 40.5 33.898438 40.199219 C 33.898438 40.101562 33.898438 40 33.898438 39.898438 C 32.5 40.398438 31.601562 41.5 31.601562 42.601562 C 31.601562 44.300781 33.601562 45.699219 36.101562 45.699219 C 36.398438 45.699219 36.699219 45.699219 37 45.601562 C 34.898438 45.5 33.300781 44.199219 33.300781 42.699219 Z M 33.300781 42.699219 "/>
<path style=" stroke:none;fill-rule:nonzero;fill:rgb(60%,26.27451%,20.392157%);fill-opacity:1;" d="M 38.5 40.199219 C 38.5 40.898438 37.898438 41.5 37.199219 41.5 L 35 41.5 C 34.300781 41.5 33.699219 40.898438 33.699219 40.199219 C 33.699219 39.5 34.300781 38.898438 35 38.898438 L 37.199219 38.898438 C 37.898438 38.898438 38.5 39.5 38.5 40.199219 Z M 38.5 40.199219 "/>
<path style=" stroke:none;fill-rule:nonzero;fill:rgb(48.627451%,18.039216%,14.117647%);fill-opacity:1;" d="M 38 40.699219 L 35.800781 40.699219 C 35.101562 40.699219 34.5 40.101562 34.5 39.398438 C 34.5 39.300781 34.5 39.199219 34.601562 39 C 34.101562 39.199219 33.800781 39.601562 33.800781 40.199219 C 33.800781 40.898438 34.398438 41.5 35.101562 41.5 L 37.300781 41.5 C 37.898438 41.5 38.398438 41.101562 38.5 40.601562 C 38.300781 40.601562 38.101562 40.699219 38 40.699219 Z M 38 40.699219 "/>
<path style=" stroke:none;fill-rule:nonzero;fill:rgb(91.764706%,67.45098%,40.784314%);fill-opacity:1;" d="M 33.300781 62.800781 L 42.699219 57.398438 C 42.300781 54.199219 39.5 51.699219 36.101562 51.699219 C 32.398438 51.699219 29.5 54.699219 29.5 58.300781 L 29.5 64 C 30.800781 63.898438 32.101562 63.5 33.300781 62.800781 Z M 33.300781 62.800781 "/>
<path style=" stroke:none;fill-rule:nonzero;fill:rgb(85.882353%,58.823529%,32.156863%);fill-opacity:1;" d="M 31.800781 63.5 L 31.800781 58.300781 C 31.800781 55 34.199219 52.300781 37.300781 51.800781 C 36.898438 51.699219 36.601562 51.699219 36.199219 51.699219 C 32.5 51.699219 29.601562 54.699219 29.601562 58.300781 L 29.601562 64 C 30.300781 63.898438 31 63.800781 31.800781 63.5 Z M 31.800781 63.5 "/>
<path style=" stroke:none;fill-rule:nonzero;fill:rgb(100%,62.352941%,37.647059%);fill-opacity:1;" d="M 49.898438 43.398438 C 50.800781 43.398438 51.5 44.101562 51.5 45 L 51.5 48.800781 C 51.5 49.699219 50.800781 50.398438 49.898438 50.398438 L 47.601562 50.398438 C 47.101562 50.398438 46.699219 50 46.699219 49.5 C 46.699219 49.199219 46.800781 48.898438 47.101562 48.800781 C 47.101562 48.800781 47.199219 48.699219 47.199219 48.699219 C 47.199219 48.699219 47.199219 48.601562 47.101562 48.601562 C 46.898438 48.398438 46.699219 48.199219 46.699219 47.898438 C 46.699219 47.601562 46.800781 47.300781 47.101562 47.199219 C 47.101562 47.199219 47.199219 47.101562 47.199219 47.101562 C 47.199219 47.101562 47.199219 47 47.101562 47 C 46.898438 46.800781 46.699219 46.601562 46.699219 46.300781 C 46.699219 46 46.800781 45.699219 47.101562 45.601562 C 47.101562 45.601562 47.199219 45.5 47.199219 45.5 C 47.199219 45.5 47.199219 45.398438 47.101562 45.398438 C 46.898438 45.199219 46.699219 45 46.699219 44.699219 C 46.699219 44.199219 47.101562 43.800781 47.601562 43.800781 L 49.898438 43.800781 Z M 49.898438 43.398438 "/>
<path style=" stroke:none;fill-rule:nonzero;fill:rgb(96.862745%,52.941176%,28.235294%);fill-opacity:1;" d="M 48.101562 49.5 C 48.101562 49.199219 48.199219 48.898438 48.5 48.800781 C 48.5 48.800781 48.601562 48.699219 48.601562 48.699219 C 48.601562 48.699219 48.601562 48.601562 48.5 48.601562 C 48.300781 48.398438 48.101562 48.199219 48.101562 47.898438 C 48.101562 47.601562 48.199219 47.300781 48.5 47.199219 C 48.5 47.199219 48.601562 47.101562 48.601562 47.101562 C 48.601562 47.101562 48.601562 47 48.5 47 C 48.300781 46.800781 48.101562 46.601562 48.101562 46.300781 C 48.101562 46 48.199219 45.699219 48.5 45.601562 C 48.5 45.601562 48.601562 45.5 48.601562 45.5 C 48.601562 45.5 48.601562 45.398438 48.5 45.398438 C 48.300781 45.199219 48.101562 45 48.101562 44.699219 C 48.101562 44.199219 48.5 43.800781 49 43.800781 L 47.601562 43.800781 C 47.101562 43.800781 46.699219 44.199219 46.699219 44.699219 C 46.699219 45 46.800781 45.300781 47.101562 45.398438 C 47.101562 45.398438 47.199219 45.5 47.199219 45.5 C 47.199219 45.5 47.199219 45.601562 47.101562 45.601562 C 46.898438 45.800781 46.699219 46 46.699219 46.300781 C 46.699219 46.601562 46.800781 46.898438 47.101562 47 C 47.101562 47 47.199219 47.101562 47.199219 47.101562 C 47.199219 47.101562 47.199219 47.199219 47.101562 47.199219 C 46.898438 47.398438 46.699219 47.601562 46.699219 47.898438 C 46.699219 48.199219 46.800781 48.5 47.101562 48.601562 C 47.101562 48.601562 47.199219 48.699219 47.199219 48.699219 C 47.199219 48.699219 47.199219 48.800781 47.101562 48.800781 C 46.898438 49 46.699219 49.199219 46.699219 49.5 C 46.699219 50 47.101562 50.398438 47.601562 50.398438 L 49 50.398438 C 48.5 50.398438 48.101562 50 48.101562 49.5 Z M 48.101562 49.5 "/>
<path style=" stroke:none;fill-rule:nonzero;fill:rgb(85.098039%,91.764706%,98.823529%);fill-opacity:1;" d="M 21.398438 51.199219 L 21.398438 47.398438 C 21.398438 47.300781 21.398438 47.300781 21.398438 47.199219 L 10.5 53.199219 L 10.5 39.699219 C 10.5 38.300781 9.398438 37.199219 8 37.199219 C 6.601562 37.199219 5.5 38.300781 5.5 39.699219 L 5.5 54.601562 C 5.5 56.199219 6.199219 57.601562 7.5 58.398438 C 8.101562 58.800781 8.800781 58.898438 9.5 58.898438 C 10.199219 58.898438 11 58.699219 11.800781 58.300781 L 22.398438 52.5 C 21.800781 52.300781 21.398438 51.800781 21.398438 51.199219 Z M 21.398438 51.199219 "/>
<path style=" stroke:none;fill-rule:nonzero;fill:rgb(76.470588%,86.666667%,95.686275%);fill-opacity:1;" d="M 9.699219 58.398438 C 8.5 57.699219 7.699219 56.300781 7.699219 54.601562 L 7.699219 39.699219 C 7.699219 38.699219 8.300781 37.898438 9.101562 37.398438 C 8.800781 37.199219 8.398438 37.101562 8 37.101562 C 6.601562 37.101562 5.5 38.199219 5.5 39.601562 L 5.5 54.5 C 5.5 56.101562 6.199219 57.5 7.5 58.300781 C 8.101562 58.699219 8.800781 58.800781 9.5 58.800781 C 9.898438 58.800781 10.300781 58.699219 10.699219 58.601562 C 10.300781 58.699219 10 58.601562 9.699219 58.398438 Z M 9.699219 58.398438 "/>
<path style=" stroke:none;fill-rule:nonzero;fill:rgb(100%,62.352941%,37.647059%);fill-opacity:1;" d="M 22.898438 52.800781 C 22 52.800781 21.300781 52.101562 21.300781 51.199219 L 21.300781 47.398438 C 21.300781 46.5 22 45.800781 22.898438 45.800781 L 25.199219 45.800781 C 25.699219 45.800781 26.101562 46.199219 26.101562 46.699219 C 26.101562 47 26 47.300781 25.699219 47.398438 C 25.699219 47.398438 25.601562 47.5 25.601562 47.5 C 25.601562 47.5 25.601562 47.601562 25.699219 47.601562 C 25.898438 47.800781 26.101562 48 26.101562 48.300781 C 26.101562 48.601562 26 48.898438 25.699219 49 C 25.699219 49 25.601562 49.101562 25.601562 49.101562 C 25.601562 49.101562 25.601562 49.199219 25.699219 49.199219 C 25.898438 49.398438 26.101562 49.601562 26.101562 49.898438 C 26.101562 50.199219 26 50.5 25.699219 50.601562 C 25.699219 50.601562 25.601562 50.699219 25.601562 50.699219 C 25.601562 50.699219 25.601562 50.800781 25.699219 50.800781 C 25.898438 51 26.101562 51.199219 26.101562 51.5 C 26.101562 52 25.699219 52.398438 25.199219 52.398438 Z M 22.898438 52.800781 "/>
<path style=" stroke:none;fill-rule:nonzero;fill:rgb(96.862745%,52.941176%,28.235294%);fill-opacity:1;" d="M 22.898438 51.199219 L 22.898438 47.398438 C 22.898438 46.5 23.601562 45.800781 24.5 45.800781 L 22.898438 45.800781 C 22 45.800781 21.300781 46.5 21.300781 47.398438 L 21.300781 51.199219 C 21.300781 52.101562 22 52.800781 22.898438 52.800781 L 24.5 52.800781 C 23.601562 52.800781 22.898438 52 22.898438 51.199219 Z M 22.898438 51.199219 "/>
<path style=" stroke:none;fill-rule:nonzero;fill:rgb(65.882353%,40.784314%,23.921569%);fill-opacity:1;" d="M 42.199219 32.800781 C 42 32.800781 41.898438 32.699219 41.800781 32.601562 C 41.699219 32.5 41.601562 32.300781 41.699219 32.199219 C 41.800781 31.5 42 30.800781 42.398438 30.199219 C 42.5 30 42.699219 29.898438 42.898438 29.898438 C 43.101562 29.898438 43.300781 30 43.398438 30.199219 C 43.699219 30.800781 44 31.5 44.101562 32.199219 C 44.101562 32.398438 44.101562 32.5 44 32.601562 C 43.898438 32.699219 43.699219 32.800781 43.601562 32.800781 Z M 42.199219 32.800781 "/>
<path style=" stroke:none;fill-rule:nonzero;fill:rgb(65.882353%,40.784314%,23.921569%);fill-opacity:1;" d="M 28.898438 32.800781 C 28.699219 32.800781 28.601562 32.699219 28.5 32.601562 C 28.398438 32.5 28.300781 32.300781 28.398438 32.199219 C 28.5 31.5 28.699219 30.800781 29.101562 30.199219 C 29.199219 30 29.398438 29.898438 29.601562 29.898438 C 29.800781 29.898438 30 30 30.101562 30.199219 C 30.398438 30.800781 30.699219 31.5 30.800781 32.199219 C 30.800781 32.398438 30.800781 32.5 30.699219 32.601562 C 30.601562 32.699219 30.398438 32.800781 30.300781 32.800781 Z M 28.898438 32.800781 "/>
</g>
</svg>
