<?xml version="1.0" encoding="UTF-8"?>
<svg xmlns="http://www.w3.org/2000/svg" xmlns:xlink="http://www.w3.org/1999/xlink" width="57pt" height="68pt" viewBox="0 0 57 68" version="1.1">
<g id="surface1">
<path style=" stroke:none;fill-rule:nonzero;fill:rgb(26.27451%,36.078431%,71.764706%);fill-opacity:1;" d="M 51 52.601562 L 33.300781 62.800781 C 30.300781 64.5 26.601562 64.5 23.699219 62.800781 L 6 52.601562 C 3 50.898438 1.199219 47.699219 1.199219 44.199219 L 1.199219 23.800781 C 1.199219 20.398438 3 17.199219 6 15.398438 L 23.699219 5.199219 C 26.699219 3.5 30.398438 3.5 33.300781 5.199219 L 51 15.398438 C 54 17.101562 55.800781 20.300781 55.800781 23.800781 L 55.800781 44.199219 C 55.800781 47.699219 54 50.800781 51 52.601562 Z M 51 52.601562 "/>
<path style=" stroke:none;fill-rule:nonzero;fill:rgb(99.607843%,39.215686%,43.529412%);fill-opacity:1;" d="M 33.398438 40.601562 L 33.398438 27.398438 C 33.398438 25.101562 31.5 23.101562 29.101562 23.101562 L 27.300781 23.101562 C 25 23.101562 23 25 23 27.398438 L 23 40.601562 C 23 42.898438 24.898438 44.898438 27.300781 44.898438 L 29.101562 44.898438 C 31.5 44.898438 33.398438 43 33.398438 40.601562 Z M 33.398438 40.601562 "/>
<path style=" stroke:none;fill-rule:nonzero;fill:rgb(81.568627%,30.196078%,49.803922%);fill-opacity:1;" d="M 33.398438 40.601562 L 33.398438 38.101562 C 33.398438 40.398438 31.5 42.398438 29.101562 42.398438 L 27.300781 42.398438 C 25 42.398438 23 40.5 23 38.101562 L 23 40.601562 C 23 42.898438 24.898438 44.898438 27.300781 44.898438 L 29.101562 44.898438 C 31.5 44.898438 33.398438 43 33.398438 40.601562 Z M 33.398438 40.601562 "/>
<path style=" stroke:none;fill-rule:nonzero;fill:rgb(100%,95.686275%,94.509804%);fill-opacity:1;" d="M 26.898438 37.699219 C 26.898438 36.300781 26.5 35 25.699219 33.800781 C 26.5 32.699219 26.898438 31.300781 26.898438 29.898438 C 26.898438 26.101562 23.800781 23.101562 20.101562 23.101562 C 18.398438 23.101562 16.800781 23.699219 15.5 24.898438 C 14.398438 25.898438 13.699219 27.199219 13.398438 28.601562 L 6.398438 28.601562 L 6.398438 39 L 13.5 39 C 13.800781 40.398438 14.5 41.699219 15.601562 42.699219 C 16.898438 43.898438 18.5 44.5 20.199219 44.5 C 23.898438 44.5 26.898438 41.398438 26.898438 37.699219 Z M 26.898438 37.699219 "/>
<path style=" stroke:none;fill-rule:nonzero;fill:rgb(100%,95.686275%,94.509804%);fill-opacity:1;" d="M 10.601562 33.800781 C 10.601562 36.699219 9.300781 39 6.398438 39 C 3.5 39 1.199219 36.699219 1.199219 33.800781 C 1.199219 30.898438 3.5 28.601562 6.398438 28.601562 C 9.300781 28.601562 10.601562 30.898438 10.601562 33.800781 Z M 10.601562 33.800781 "/>
<path style=" stroke:none;fill-rule:nonzero;fill:rgb(86.27451%,87.058824%,88.627451%);fill-opacity:1;" d="M 26.898438 37.699219 C 26.898438 37.300781 26.898438 36.898438 26.800781 36.5 C 26.199219 39.699219 23.398438 42.101562 20.101562 42.101562 C 18.398438 42.101562 16.800781 41.5 15.5 40.300781 C 14.398438 39.300781 13.699219 38 13.398438 36.601562 L 1.898438 36.601562 C 1.898438 36.601562 3.300781 39.101562 6.300781 39.101562 C 8.601562 39.101562 13.398438 39.101562 13.398438 39.101562 C 13.699219 40.5 14.398438 41.800781 15.5 42.800781 C 16.800781 44 18.398438 44.601562 20.101562 44.601562 C 23.898438 44.5 26.898438 41.398438 26.898438 37.699219 Z M 26.898438 37.699219 "/>
<path style=" stroke:none;fill-rule:nonzero;fill:rgb(100%,95.686275%,94.509804%);fill-opacity:1;" d="M 41.5 42.699219 C 42.601562 41.699219 43.300781 40.398438 43.601562 39 L 50.699219 39 L 50.699219 28.601562 L 43.601562 28.601562 C 43.300781 27.199219 42.601562 25.898438 41.5 24.898438 C 40.199219 23.699219 38.601562 23.101562 36.898438 23.101562 C 33.101562 23.101562 30.101562 26.199219 30.101562 29.898438 C 30.101562 31.300781 30.5 32.601562 31.300781 33.800781 C 30.5 34.898438 30.101562 36.300781 30.101562 37.699219 C 30.101562 38.898438 30.398438 40.101562 31.101562 41.199219 C 31.5 41.898438 32.5 41.800781 33.398438 41.699219 C 33.601562 41.699219 34 41.601562 34.199219 41.601562 C 34.199219 41.800781 34.199219 42 34.199219 42.199219 C 34.199219 42.800781 34.199219 43.898438 35.300781 44.199219 C 35.800781 44.300781 36.398438 44.398438 36.898438 44.398438 C 38.601562 44.5 40.199219 43.898438 41.5 42.699219 Z M 41.5 42.699219 "/>
<path style=" stroke:none;fill-rule:nonzero;fill:rgb(100%,95.686275%,94.509804%);fill-opacity:1;" d="M 55.800781 33.800781 C 55.800781 36.699219 53.5 39 50.601562 39 C 47.699219 39 46.398438 36.699219 46.398438 33.800781 C 46.398438 30.898438 47.699219 28.601562 50.601562 28.601562 C 53.5 28.601562 55.800781 30.898438 55.800781 33.800781 Z M 55.800781 33.800781 "/>
<path style=" stroke:none;fill-rule:nonzero;fill:rgb(86.27451%,87.058824%,88.627451%);fill-opacity:1;" d="M 41.5 42.699219 C 42.601562 41.699219 43.300781 40.398438 43.601562 39 C 43.601562 39 48.601562 39 50.699219 39 C 53.800781 39 55.199219 36.5 55.199219 36.5 L 43.601562 36.5 C 43.300781 37.898438 42.601562 39.199219 41.5 40.199219 C 40.199219 41.398438 38.601562 42 36.898438 42 C 36.300781 42 35.800781 41.898438 35.300781 41.800781 C 34.199219 41.5 34.199219 40.398438 34.199219 39.800781 C 34.199219 39.601562 34.199219 39.300781 34.199219 39.199219 C 34 39.199219 33.601562 39.199219 33.398438 39.300781 C 32.5 39.398438 31.601562 39.5 31.101562 38.800781 C 30.699219 38.101562 30.398438 37.300781 30.199219 36.5 C 30.101562 36.898438 30.101562 37.300781 30.101562 37.699219 C 30.101562 38.898438 30.398438 40.101562 31.101562 41.199219 C 31.5 41.898438 32.5 41.800781 33.398438 41.699219 C 33.601562 41.699219 34 41.601562 34.199219 41.601562 C 34.199219 41.800781 34.199219 42 34.199219 42.199219 C 34.199219 42.800781 34.199219 43.898438 35.300781 44.199219 C 35.800781 44.300781 36.398438 44.398438 36.898438 44.398438 C 38.601562 44.5 40.199219 43.898438 41.5 42.699219 Z M 41.5 42.699219 "/>
</g>
</svg>
