<?xml version="1.0" encoding="UTF-8"?>
<svg xmlns="http://www.w3.org/2000/svg" xmlns:xlink="http://www.w3.org/1999/xlink" width="57pt" height="68pt" viewBox="0 0 57 68" version="1.1">
<defs>
<clipPath id="clip1">
  <path d="M 17 4 L 40 4 L 40 32 L 17 32 Z M 17 4 "/>
</clipPath>
<clipPath id="clip2">
  <path d="M 51 53 L 33.300781 63.199219 C 30.300781 64.898438 26.601562 64.898438 23.699219 63.199219 L 6 53 C 3 51.300781 1.199219 48.101562 1.199219 44.601562 L 1.199219 24.199219 C 1.199219 20.800781 3 17.601562 6 15.800781 L 23.699219 5.601562 C 26.699219 3.898438 30.398438 3.898438 33.300781 5.601562 L 51 15.800781 C 54 17.5 55.800781 20.699219 55.800781 24.199219 L 55.800781 44.601562 C 55.800781 48.101562 54 51.199219 51 53 Z M 51 53 "/>
</clipPath>
<clipPath id="clip3">
  <path d="M 17 36 L 40 36 L 40 65 L 17 65 Z M 17 36 "/>
</clipPath>
<clipPath id="clip4">
  <path d="M 51 53 L 33.300781 63.199219 C 30.300781 64.898438 26.601562 64.898438 23.699219 63.199219 L 6 53 C 3 51.300781 1.199219 48.101562 1.199219 44.601562 L 1.199219 24.199219 C 1.199219 20.800781 3 17.601562 6 15.800781 L 23.699219 5.601562 C 26.699219 3.898438 30.398438 3.898438 33.300781 5.601562 L 51 15.800781 C 54 17.5 55.800781 20.699219 55.800781 24.199219 L 55.800781 44.601562 C 55.800781 48.101562 54 51.199219 51 53 Z M 51 53 "/>
</clipPath>
<clipPath id="clip5">
  <path d="M 16 4 L 41 4 L 41 33 L 16 33 Z M 16 4 "/>
</clipPath>
<clipPath id="clip6">
  <path d="M 51 53 L 33.300781 63.199219 C 30.300781 64.898438 26.601562 64.898438 23.699219 63.199219 L 6 53 C 3 51.300781 1.199219 48.101562 1.199219 44.601562 L 1.199219 24.199219 C 1.199219 20.800781 3 17.601562 6 15.800781 L 23.699219 5.601562 C 26.699219 3.898438 30.398438 3.898438 33.300781 5.601562 L 51 15.800781 C 54 17.5 55.800781 20.699219 55.800781 24.199219 L 55.800781 44.601562 C 55.800781 48.101562 54 51.199219 51 53 Z M 51 53 "/>
</clipPath>
<clipPath id="clip7">
  <path d="M 16 35 L 41 35 L 41 65 L 16 65 Z M 16 35 "/>
</clipPath>
<clipPath id="clip8">
  <path d="M 51 53 L 33.300781 63.199219 C 30.300781 64.898438 26.601562 64.898438 23.699219 63.199219 L 6 53 C 3 51.300781 1.199219 48.101562 1.199219 44.601562 L 1.199219 24.199219 C 1.199219 20.800781 3 17.601562 6 15.800781 L 23.699219 5.601562 C 26.699219 3.898438 30.398438 3.898438 33.300781 5.601562 L 51 15.800781 C 54 17.5 55.800781 20.699219 55.800781 24.199219 L 55.800781 44.601562 C 55.800781 48.101562 54 51.199219 51 53 Z M 51 53 "/>
</clipPath>
<clipPath id="clip9">
  <path d="M 1 4 L 56 4 L 56 65 L 1 65 Z M 1 4 "/>
</clipPath>
<clipPath id="clip10">
  <path d="M 51 53 L 33.300781 63.199219 C 30.300781 64.898438 26.601562 64.898438 23.699219 63.199219 L 6 53 C 3 51.300781 1.199219 48.101562 1.199219 44.601562 L 1.199219 24.199219 C 1.199219 20.800781 3 17.601562 6 15.800781 L 23.699219 5.601562 C 26.699219 3.898438 30.398438 3.898438 33.300781 5.601562 L 51 15.800781 C 54 17.5 55.800781 20.699219 55.800781 24.199219 L 55.800781 44.601562 C 55.800781 48.101562 54 51.199219 51 53 Z M 51 53 "/>
</clipPath>
<filter id="alpha" filterUnits="objectBoundingBox" x="0%" y="0%" width="100%" height="100%">
  <feColorMatrix type="matrix" in="SourceGraphic" values="0 0 0 0 1 0 0 0 0 1 0 0 0 0 1 0 0 0 1 0"/>
</filter>
<mask id="mask0">
  <g filter="url(#alpha)">
<rect x="0" y="0" width="57" height="68" style="fill:rgb(0%,0%,0%);fill-opacity:0.8;stroke:none;"/>
  </g>
</mask>
<clipPath id="clip11">
  <rect x="0" y="0" width="57" height="68"/>
</clipPath>
<g id="surface5" clip-path="url(#clip11)">
<path style=" stroke:none;fill-rule:nonzero;fill:rgb(100%,100%,100%);fill-opacity:1;" d="M 24.800781 47.800781 C 24.5 47.800781 24.300781 48.101562 24.5 48.398438 C 25.199219 49.300781 25.601562 50.800781 25.601562 52.398438 L 25.601562 65.199219 L 26.800781 65.199219 L 25.601562 65.199219 L 27.699219 65.199219 L 27.699219 52.398438 C 27.699219 50.398438 26.601562 48.699219 24.898438 47.898438 C 24.898438 47.800781 24.800781 47.800781 24.800781 47.800781 "/>
</g>
<mask id="mask1">
  <g filter="url(#alpha)">
<rect x="0" y="0" width="57" height="68" style="fill:rgb(0%,0%,0%);fill-opacity:0.8;stroke:none;"/>
  </g>
</mask>
<clipPath id="clip12">
  <rect x="0" y="0" width="57" height="68"/>
</clipPath>
<g id="surface8" clip-path="url(#clip12)">
<path style=" stroke:none;fill-rule:nonzero;fill:rgb(100%,100%,100%);fill-opacity:1;" d="M 24.800781 20.398438 C 24.898438 20.398438 24.898438 20.398438 25 20.398438 C 26.601562 19.601562 27.800781 17.898438 27.800781 15.898438 L 27.800781 0.898438 L 25.699219 0.898438 L 26.898438 0.898438 L 25.699219 0.898438 L 25.699219 15.800781 C 25.699219 17.398438 25.300781 18.800781 24.601562 19.800781 C 24.300781 20 24.5 20.398438 24.800781 20.398438 "/>
</g>
<mask id="mask2">
  <g filter="url(#alpha)">
<rect x="0" y="0" width="57" height="68" style="fill:rgb(0%,0%,0%);fill-opacity:0.8;stroke:none;"/>
  </g>
</mask>
<clipPath id="clip13">
  <rect x="0" y="0" width="57" height="68"/>
</clipPath>
<g id="surface11" clip-path="url(#clip13)">
<path style=" stroke:none;fill-rule:nonzero;fill:rgb(100%,100%,100%);fill-opacity:1;" d="M 24.800781 47.601562 C 24.5 47.601562 24.300781 47.898438 24.5 48.199219 C 25.199219 49.101562 25.601562 50.601562 25.601562 52.199219 L 25.601562 67.101562 L 26.800781 67.101562 L 25.601562 67.101562 L 27.699219 67.101562 L 27.699219 52.199219 C 27.699219 50.199219 26.601562 48.5 24.898438 47.699219 C 24.898438 47.601562 24.800781 47.601562 24.800781 47.601562 "/>
</g>
</defs>
<g id="surface1">
<path style=" stroke:none;fill-rule:nonzero;fill:rgb(100%,32.54902%,40.784314%);fill-opacity:1;" d="M 51 53 L 33.300781 63.199219 C 30.300781 64.898438 26.601562 64.898438 23.699219 63.199219 L 6 53 C 3 51.300781 1.199219 48.101562 1.199219 44.601562 L 1.199219 24.199219 C 1.199219 20.800781 3 17.601562 6 15.800781 L 23.699219 5.601562 C 26.699219 3.898438 30.398438 3.898438 33.300781 5.601562 L 51 15.800781 C 54 17.5 55.800781 20.699219 55.800781 24.199219 L 55.800781 44.601562 C 55.800781 48.101562 54 51.199219 51 53 Z M 51 53 "/>
<g clip-path="url(#clip1)" clip-rule="nonzero">
<g clip-path="url(#clip2)" clip-rule="nonzero">
<path style=" stroke:none;fill-rule:nonzero;fill:rgb(92.156863%,89.803922%,91.372549%);fill-opacity:1;" d="M 37.800781 21.300781 C 37.601562 21 37.300781 20.699219 37.101562 20.5 L 34 17.398438 L 34 1.898438 L 23 1.898438 L 23 17.398438 L 19.898438 20.5 C 19.601562 20.800781 19.398438 21 19.199219 21.300781 C 17.101562 24.300781 17.800781 28.398438 20.800781 30.601562 C 21.898438 31.398438 23.300781 31.800781 24.699219 31.800781 C 26.101562 31.800781 27.5 31.398438 28.601562 30.5 C 29.699219 31.300781 31.101562 31.800781 32.5 31.800781 C 36.199219 31.800781 39.199219 28.800781 39.199219 25.199219 C 39.101562 23.800781 38.601562 22.5 37.800781 21.300781 Z M 37.800781 21.300781 "/>
</g>
</g>
<g clip-path="url(#clip3)" clip-rule="nonzero">
<g clip-path="url(#clip4)" clip-rule="nonzero">
<path style=" stroke:none;fill-rule:nonzero;fill:rgb(92.156863%,89.803922%,91.372549%);fill-opacity:1;" d="M 34 50.699219 L 37.101562 47.601562 C 37.398438 47.300781 37.601562 47.101562 37.800781 46.800781 C 39.898438 43.800781 39.199219 39.699219 36.199219 37.5 C 35.101562 36.699219 33.699219 36.300781 32.300781 36.300781 C 30.898438 36.300781 29.5 36.699219 28.398438 37.601562 C 27.300781 36.800781 25.898438 36.300781 24.5 36.300781 C 20.800781 36.300781 17.800781 39.300781 17.800781 42.898438 C 17.800781 44.300781 18.199219 45.601562 19 46.800781 C 19.199219 47.101562 19.5 47.398438 19.699219 47.601562 L 22.800781 50.699219 L 22.800781 66.199219 L 34 66.199219 Z M 34 50.699219 "/>
</g>
</g>
<g clip-path="url(#clip5)" clip-rule="nonzero">
<g clip-path="url(#clip6)" clip-rule="nonzero">
<path style=" stroke:none;fill-rule:nonzero;fill:rgb(77.254902%,19.607843%,30.980392%);fill-opacity:1;" d="M 32.398438 33 C 31 33 29.699219 32.601562 28.5 31.898438 C 25.5 33.699219 21.601562 33.199219 19.101562 30.699219 C 16.398438 28 16.101562 23.800781 18.300781 20.699219 C 18.601562 20.398438 18.800781 20 19.101562 19.699219 L 21.898438 16.898438 L 21.898438 1.898438 C 21.898438 1.300781 22.398438 0.800781 23 0.800781 L 34 0.800781 C 34.601562 0.800781 35.101562 1.300781 35.101562 1.898438 L 35.101562 17 L 37.898438 19.800781 C 38.199219 20.101562 38.5 20.398438 38.699219 20.800781 C 40.898438 23.898438 40.601562 28.101562 37.898438 30.800781 C 36.5 32.101562 34.5 33 32.398438 33 Z M 28.5 29.5 C 28.699219 29.5 29 29.601562 29.199219 29.699219 C 30.101562 30.398438 31.300781 30.800781 32.5 30.800781 C 35.601562 30.800781 38 28.300781 38 25.300781 C 38 24.101562 37.601562 23 37 22.101562 C 36.800781 21.898438 36.601562 21.601562 36.398438 21.398438 L 33.300781 18.300781 C 33.101562 18.101562 33 17.800781 33 17.5 L 33 3 L 24.101562 3 L 24.101562 17.398438 C 24.101562 17.699219 24 18 23.800781 18.199219 L 20.699219 21.300781 C 20.5 21.5 20.300781 21.800781 20.101562 22 C 18.300781 24.5 18.898438 28 21.398438 29.699219 C 22.300781 30.398438 23.5 30.699219 24.601562 30.699219 C 25.800781 30.699219 26.898438 30.300781 27.898438 29.601562 C 28 29.5 28.300781 29.5 28.5 29.5 Z M 28.5 29.5 "/>
</g>
</g>
<g clip-path="url(#clip7)" clip-rule="nonzero">
<g clip-path="url(#clip8)" clip-rule="nonzero">
<path style=" stroke:none;fill-rule:nonzero;fill:rgb(77.254902%,19.607843%,30.980392%);fill-opacity:1;" d="M 34 67.300781 L 23 67.300781 C 22.398438 67.300781 21.898438 66.800781 21.898438 66.199219 L 21.898438 51.101562 L 19.101562 48.300781 C 18.800781 48 18.5 47.699219 18.300781 47.300781 C 16.101562 44.199219 16.398438 40 19.101562 37.300781 C 20.601562 35.800781 22.5 35 24.601562 35 C 26 35 27.300781 35.398438 28.5 36.101562 C 31.601562 34.300781 35.398438 34.800781 37.898438 37.300781 C 40.601562 40 40.898438 44.199219 38.699219 47.300781 C 38.398438 47.699219 38.199219 48 37.898438 48.300781 L 35.101562 51.101562 L 35.101562 66.199219 C 35.101562 66.800781 34.699219 67.300781 34 67.300781 Z M 24.101562 65.101562 L 33 65.101562 L 33 50.699219 C 33 50.398438 33.101562 50.101562 33.300781 49.898438 L 36.398438 46.800781 C 36.601562 46.601562 36.800781 46.300781 37 46.101562 C 38.800781 43.601562 38.199219 40.101562 35.699219 38.398438 C 34.800781 37.699219 33.601562 37.398438 32.5 37.398438 C 31.300781 37.398438 30.199219 37.800781 29.199219 38.5 C 28.800781 38.800781 28.300781 38.800781 27.898438 38.5 C 27 37.800781 25.800781 37.398438 24.601562 37.398438 C 21.5 37.398438 19.101562 39.898438 19.101562 42.898438 C 19.101562 44.101562 19.5 45.199219 20.101562 46.101562 C 20.300781 46.300781 20.5 46.601562 20.699219 46.800781 L 23.800781 49.898438 C 24 50.101562 24.101562 50.398438 24.101562 50.699219 Z M 24.101562 65.101562 "/>
</g>
</g>
<g clip-path="url(#clip9)" clip-rule="nonzero">
<g clip-path="url(#clip10)" clip-rule="nonzero">
<use xlink:href="#surface5" mask="url(#mask0)"/>
</g>
</g>
<path style=" stroke:none;fill-rule:nonzero;fill:rgb(92.156863%,89.803922%,91.372549%);fill-opacity:1;" d="M 32.898438 5.398438 C 32.898438 3 30.898438 1 28.5 1 C 26.101562 1 24.101562 3 24.101562 5.398438 L 24.101562 8.699219 C 24.101562 11.101562 26.101562 13.101562 28.5 13.101562 C 30.898438 13.101562 32.898438 11.101562 32.898438 8.699219 Z M 32.898438 5.398438 "/>
<use xlink:href="#surface8" mask="url(#mask1)"/>
<path style=" stroke:none;fill-rule:nonzero;fill:rgb(92.156863%,89.803922%,91.372549%);fill-opacity:1;" d="M 24.101562 62.601562 C 24.101562 65 26.101562 67 28.5 67 C 30.898438 67 32.898438 65 32.898438 62.601562 L 32.898438 59.300781 C 32.898438 56.898438 30.898438 64.300781 28.5 64.300781 C 26.101562 64.300781 24.101562 56.898438 24.101562 59.300781 Z M 24.101562 62.601562 "/>
<use xlink:href="#surface11" mask="url(#mask2)"/>
</g>
</svg>
