<?xml version="1.0" encoding="UTF-8"?>
<svg xmlns="http://www.w3.org/2000/svg" xmlns:xlink="http://www.w3.org/1999/xlink" width="57pt" height="68pt" viewBox="0 0 57 68" version="1.1">
<g id="surface1">
<path style=" stroke:none;fill-rule:nonzero;fill:rgb(100%,80.392157%,65.882353%);fill-opacity:1;" d="M 51 52.601562 L 33.300781 62.800781 C 30.300781 64.5 26.601562 64.5 23.699219 62.800781 L 6 52.601562 C 3 50.898438 1.199219 47.699219 1.199219 44.199219 L 1.199219 23.800781 C 1.199219 20.398438 3 17.199219 6 15.398438 L 23.699219 5.199219 C 26.699219 3.5 30.398438 3.5 33.300781 5.199219 L 51 15.398438 C 54 17.101562 55.800781 20.300781 55.800781 23.800781 L 55.800781 44.199219 C 55.800781 47.699219 54 50.800781 51 52.601562 Z M 51 52.601562 "/>
<path style=" stroke:none;fill-rule:nonzero;fill:rgb(100%,35.686275%,27.843137%);fill-opacity:1;" d="M 42.199219 42 C 41.398438 45.398438 36.199219 47.101562 30.601562 45.800781 C 28.601562 45.300781 26.898438 44.601562 25.5 43.699219 C 22.800781 41.898438 21.300781 39.601562 21.800781 37.398438 C 22.601562 34 27.800781 32.300781 33.398438 33.601562 C 39 34.800781 43 38.601562 42.199219 42 Z M 42.199219 42 "/>
<path style=" stroke:none;fill-rule:nonzero;fill:rgb(89.803922%,24.313725%,17.647059%);fill-opacity:1;" d="M 32 39.5 C 28.898438 38.800781 26.601562 36.898438 26.300781 35 C 26.101562 35.300781 26 35.601562 25.898438 35.898438 C 25.398438 38.101562 27.898438 40.5 31.601562 41.398438 C 35.199219 42.199219 38.601562 41.101562 39.101562 39 C 39.199219 38.699219 39.199219 38.300781 39.101562 38 C 38 39.5 35.101562 40.199219 32 39.5 Z M 32 39.5 "/>
<path style=" stroke:none;fill-rule:nonzero;fill:rgb(89.803922%,24.313725%,17.647059%);fill-opacity:1;" d="M 28.199219 37.800781 L 27.300781 39.398438 C 27.300781 39.398438 23.601562 40.699219 25.398438 43.699219 C 22.699219 41.898438 21.199219 39.601562 21.699219 37.398438 C 22.5 34 27.699219 32.300781 33.300781 33.601562 C 33.398438 33.5 27 34.800781 28.199219 37.800781 Z M 28.199219 37.800781 "/>
<path style=" stroke:none;fill-rule:nonzero;fill:rgb(100%,35.686275%,27.843137%);fill-opacity:1;" d="M 28.300781 27.398438 C 27.300781 31.898438 20.398438 34.101562 12.898438 32.398438 C 10.300781 31.800781 8 30.800781 6.101562 29.601562 C 2.601562 27.300781 0.601562 24.101562 1.300781 21.199219 C 2.300781 16.699219 9.199219 14.5 16.699219 16.199219 C 24.199219 17.898438 29.300781 22.898438 28.300781 27.398438 Z M 28.300781 27.398438 "/>
<path style=" stroke:none;fill-rule:nonzero;fill:rgb(89.803922%,24.313725%,17.647059%);fill-opacity:1;" d="M 14.800781 24.101562 C 10.699219 23.199219 7.699219 20.699219 7.300781 18.199219 C 7 18.601562 6.800781 19 6.699219 19.398438 C 6 22.300781 9.398438 25.5 14.199219 26.601562 C 19 27.699219 23.5 26.300781 24.101562 23.398438 C 24.199219 23 24.199219 22.5 24.101562 22 C 22.699219 24.101562 18.898438 25 14.800781 24.101562 Z M 14.800781 24.101562 "/>
<path style=" stroke:none;fill-rule:nonzero;fill:rgb(89.803922%,24.313725%,17.647059%);fill-opacity:1;" d="M 9.800781 21.800781 L 8.601562 23.898438 C 8.601562 23.898438 3.699219 25.699219 6.101562 29.601562 C 2.601562 27.300781 0.601562 24.101562 1.300781 21.199219 C 2.300781 16.699219 9.199219 14.5 16.699219 16.199219 C 16.699219 16.199219 8.199219 17.898438 9.800781 21.800781 Z M 9.800781 21.800781 "/>
<path style=" stroke:none;fill-rule:nonzero;fill:rgb(100%,100%,100%);fill-opacity:1;" d="M 33.699219 44.699219 C 33.699219 50.113281 29.3125 54.5 23.898438 54.5 C 18.488281 54.5 14.101562 50.113281 14.101562 44.699219 C 14.101562 39.289062 18.488281 34.898438 23.898438 34.898438 C 29.3125 34.898438 33.699219 39.289062 33.699219 44.699219 Z M 33.699219 44.699219 "/>
<path style=" stroke:none;fill-rule:nonzero;fill:rgb(90.196078%,90.196078%,90.196078%);fill-opacity:1;" d="M 21.601562 54.300781 C 16.300781 53 13.101562 47.699219 14.398438 42.398438 C 15.699219 37.101562 21 33.898438 26.300781 35.199219 C 23.898438 34.601562 21 38.398438 19.699219 43.699219 C 18.398438 49 19.199219 53.699219 21.601562 54.300781 Z M 21.601562 54.300781 "/>
<path style=" stroke:none;fill-rule:nonzero;fill:rgb(100%,100%,100%);fill-opacity:1;" d="M 51.601562 19.101562 C 51.601562 24.511719 47.210938 28.898438 41.800781 28.898438 C 36.386719 28.898438 32 24.511719 32 19.101562 C 32 13.6875 36.386719 9.300781 41.800781 9.300781 C 47.210938 9.300781 51.601562 13.6875 51.601562 19.101562 Z M 51.601562 19.101562 "/>
<path style=" stroke:none;fill-rule:nonzero;fill:rgb(90.196078%,90.196078%,90.196078%);fill-opacity:1;" d="M 43.101562 28.800781 C 37.699219 29.601562 32.800781 25.800781 32 20.5 C 31.199219 15.101562 35 10.199219 40.300781 9.398438 C 37.898438 9.699219 36.601562 14.398438 37.300781 19.699219 C 38.199219 25.101562 40.699219 29.101562 43.101562 28.800781 Z M 43.101562 28.800781 "/>
<path style=" stroke:none;fill-rule:nonzero;fill:rgb(100%,35.686275%,27.843137%);fill-opacity:1;" d="M 52.898438 49.199219 C 51.800781 48.898438 50.601562 48.699219 49.398438 48.601562 C 41.800781 47.800781 35.199219 50.898438 34.800781 55.5 C 34.601562 57.398438 35.5 59.199219 37.101562 60.699219 L 51.101562 52.601562 C 52.398438 51.898438 53.5 50.800781 54.300781 49.601562 C 53.800781 49.398438 53.398438 49.300781 52.898438 49.199219 Z M 52.898438 49.199219 "/>
<path style=" stroke:none;fill-rule:nonzero;fill:rgb(89.803922%,24.313725%,17.647059%);fill-opacity:1;" d="M 40.300781 51.699219 C 40.101562 52.101562 39.898438 52.5 39.898438 53 C 39.699219 54.5 40.898438 56.300781 42.601562 57.398438 L 45.300781 55.898438 C 45.300781 55.898438 43.800781 55.300781 43.101562 54.898438 C 43.101562 54.898438 43 54.800781 43 54.800781 C 41.5 53.898438 40.699219 52.898438 40.300781 51.699219 Z M 40.300781 51.699219 "/>
<path style=" stroke:none;fill-rule:nonzero;fill:rgb(100%,35.686275%,27.843137%);fill-opacity:1;" d="M 3.199219 46.398438 C 2.5 46.601562 2 46.800781 1.601562 47 C 2.300781 49.300781 3.800781 51.300781 6 52.5 L 15 57.699219 C 18.101562 54.601562 19.398438 51 18 48.199219 C 16.101562 44.398438 9.601562 43.601562 3.199219 46.398438 Z M 3.199219 46.398438 "/>
<path style=" stroke:none;fill-rule:nonzero;fill:rgb(89.803922%,24.313725%,17.647059%);fill-opacity:1;" d="M 11.5 46.699219 C 11.601562 48.601562 9.699219 51.601562 7.199219 53.199219 L 9.601562 54.601562 C 12.101562 52.5 13.300781 49.800781 12.300781 47.800781 C 12.101562 47.398438 11.800781 47 11.5 46.699219 Z M 11.5 46.699219 "/>
<path style=" stroke:none;fill-rule:nonzero;fill:rgb(100%,35.686275%,27.843137%);fill-opacity:1;" d="M 55.800781 27.601562 C 49 29 44 33.300781 44.601562 37.601562 C 45 40.601562 48 42.800781 52.101562 43.699219 C 53.101562 43.898438 54.699219 44.199219 55.800781 44.199219 Z M 55.800781 27.601562 "/>
<path style=" stroke:none;fill-rule:nonzero;fill:rgb(89.803922%,24.313725%,17.647059%);fill-opacity:1;" d="M 55.800781 38.199219 L 55.800781 35.601562 C 54.699219 35.601562 53.699219 35.398438 52.800781 35.101562 C 51.101562 34.601562 49.800781 33.800781 49.101562 32.601562 C 49 33.101562 49 33.5 49.101562 34 C 49.300781 35.5 50.601562 36.699219 52.398438 37.5 C 53.398438 37.800781 54.601562 38.101562 55.800781 38.199219 Z M 55.800781 38.199219 "/>
<path style=" stroke:none;fill-rule:nonzero;fill:rgb(89.803922%,24.313725%,17.647059%);fill-opacity:1;" d="M 55.800781 28.398438 L 55.800781 27.699219 C 49 29 44 33.300781 44.601562 37.601562 C 45 40.601562 48 42.800781 52.101562 43.699219 C 48.398438 40.898438 52.398438 37.5 52.398438 37.5 L 52.800781 35.101562 C 50.800781 32.898438 53.898438 29.898438 55.800781 28.398438 Z M 55.800781 28.398438 "/>
</g>
</svg>
