<?xml version="1.0" encoding="utf-8"?>
<!-- Generator: Adobe Illustrator 16.0.0, SVG Export Plug-In . SVG Version: 6.00 Build 0)  -->
<!DOCTYPE svg PUBLIC "-//W3C//DTD SVG 1.1//EN" "http://www.w3.org/Graphics/SVG/1.1/DTD/svg11.dtd">
<svg version="1.1" id="Layer_1" xmlns="http://www.w3.org/2000/svg" xmlns:xlink="http://www.w3.org/1999/xlink" x="0px" y="0px"
	 width="57px" height="57px" viewBox="0 0 57 57" enable-background="new 0 0 57 57" xml:space="preserve">
<g>
	<circle fill="#3DB39E" cx="28.5" cy="28.5" r="28"/>
	<path fill="#37A18E" d="M51.95,13.232L27.188,38.869l0.045,2.756h1.137l26.818-21.611C54.399,17.607,53.307,15.287,51.95,13.232z"
		/>
	<path fill="#F2F1EF" d="M55.976,12.008l-4.943-4.901c-0.657-0.657-1.751-0.657-2.451,0L27.45,28.938l-9.143-9.013
		c-0.657-0.655-1.751-0.655-2.45,0l-4.375,4.332c-0.655,0.655-0.655,1.751,0,2.406l14.612,14.48
		c0.394,0.395,0.919,0.526,1.443,0.481c0.525,0.045,1.05-0.087,1.443-0.481l26.994-26.687
		C56.632,13.758,56.632,12.663,55.976,12.008z"/>
	<path fill="#E6E5E3" d="M28.981,41.144l26.994-26.687c0.656-0.656,0.656-1.751,0-2.406l-0.788-0.744L27.494,38.518L12.182,23.602
		l-0.656,0.655c-0.656,0.655-0.656,1.751,0,2.406l14.612,14.48c0.394,0.395,0.92,0.526,1.443,0.481
		C28.063,41.67,28.588,41.538,28.981,41.144z"/>
</g>
</svg>
