<?xml version="1.0" encoding="UTF-8"?>
<svg xmlns="http://www.w3.org/2000/svg" xmlns:xlink="http://www.w3.org/1999/xlink" width="57pt" height="68pt" viewBox="0 0 57 68" version="1.1">
<defs>
<filter id="alpha" filterUnits="objectBoundingBox" x="0%" y="0%" width="100%" height="100%">
  <feColorMatrix type="matrix" in="SourceGraphic" values="0 0 0 0 1 0 0 0 0 1 0 0 0 0 1 0 0 0 1 0"/>
</filter>
<mask id="mask0">
  <g filter="url(#alpha)">
<rect x="0" y="0" width="57" height="68" style="fill:rgb(0%,0%,0%);fill-opacity:0.2;stroke:none;"/>
  </g>
</mask>
<clipPath id="clip1">
  <rect x="0" y="0" width="57" height="68"/>
</clipPath>
<g id="surface5" clip-path="url(#clip1)">
<path style=" stroke:none;fill-rule:nonzero;fill:rgb(78.823529%,48.235294%,0%);fill-opacity:1;" d="M 40.398438 46.5 C 42.898438 44 43.699219 40.199219 44.699219 37 C 44.800781 36.800781 44.800781 36.5 44.898438 36.300781 C 36.398438 52.300781 15.101562 36.601562 13.101562 27.601562 C 12.300781 30.101562 12.101562 32.800781 12.101562 35.5 C 12.101562 39.300781 13.5 43.5 16.300781 46.398438 C 18.800781 48.898438 22.601562 49.398438 25.699219 50.5 C 31.101562 52.5 36.199219 50.601562 40.398438 46.5 Z M 40.398438 46.5 "/>
</g>
</defs>
<g id="surface1">
<path style=" stroke:none;fill-rule:nonzero;fill:rgb(38.431373%,85.882353%,98.431373%);fill-opacity:1;" d="M 51 52.601562 L 33.300781 62.800781 C 30.300781 64.5 26.601562 64.5 23.699219 62.800781 L 6 52.601562 C 3 50.898438 1.199219 47.699219 1.199219 44.199219 L 1.199219 23.800781 C 1.199219 20.398438 3 17.199219 6 15.398438 L 23.699219 5.199219 C 26.699219 3.5 30.398438 3.5 33.300781 5.199219 L 51 15.398438 C 54 17.101562 55.800781 20.300781 55.800781 23.800781 L 55.800781 44.199219 C 55.800781 47.699219 54 50.800781 51 52.601562 Z M 51 52.601562 "/>
<path style=" stroke:none;fill-rule:nonzero;fill:rgb(73.72549%,41.568627%,27.45098%);fill-opacity:1;" d="M 40.5 22.398438 C 44.699219 26.601562 46.398438 31.601562 44.699219 37.101562 C 43.699219 40.199219 42.898438 44.101562 40.398438 46.601562 C 36.199219 50.699219 31.101562 52.601562 25.699219 50.699219 C 22.601562 49.601562 18.800781 49.101562 16.300781 46.601562 C 13.398438 43.699219 12.101562 39.5 12.101562 35.699219 C 12.101562 30.800781 12.601562 26.300781 16.398438 22.5 C 19.398438 19.5 23.300781 18.5 27.199219 17.601562 C 31.898438 16.300781 36.800781 18.699219 40.5 22.398438 Z M 40.5 22.398438 "/>
<use xlink:href="#surface5" mask="url(#mask0)"/>
<path style=" stroke:none;fill-rule:nonzero;fill:rgb(60%,23.137255%,13.333333%);fill-opacity:1;" d="M 32.398438 25.398438 C 32.199219 25.601562 31.898438 25.601562 31.699219 25.398438 C 30.398438 24.300781 29.5 22.300781 29.300781 19.898438 C 29.101562 17.601562 29.5 15.5 30.398438 14.300781 C 30.601562 14.101562 30.898438 14 31.199219 14.199219 C 31.398438 14.398438 31.5 14.699219 31.300781 15 C 30.5 16 30.199219 17.800781 30.398438 19.800781 C 30.601562 21.898438 31.398438 23.699219 32.5 24.601562 C 32.601562 24.800781 32.601562 25.199219 32.398438 25.398438 Z M 32.398438 25.398438 "/>
<path style=" stroke:none;fill-rule:nonzero;fill:rgb(60%,23.137255%,13.333333%);fill-opacity:1;" d="M 30.101562 20.5 C 29.898438 20.699219 29.699219 20.699219 29.5 20.601562 C 29.199219 20.5 27.398438 20.398438 26.101562 21.101562 C 25.800781 21.199219 25.5 21.101562 25.398438 20.898438 C 25.300781 20.601562 25.398438 20.300781 25.601562 20.199219 C 27.101562 19.398438 29.5 19.300781 30.101562 19.699219 C 30.300781 19.898438 30.398438 20.199219 30.101562 20.5 C 30.199219 20.5 30.199219 20.5 30.101562 20.5 Z M 29.5 20.601562 Z M 29.5 20.601562 Z M 29.5 20.601562 "/>
<path style=" stroke:none;fill-rule:nonzero;fill:rgb(64.705882%,30.196078%,18.431373%);fill-opacity:1;" d="M 29.199219 40.601562 C 29.101562 40.699219 29 40.800781 28.800781 40.800781 C 27.699219 40.800781 24.5 39.5 23.601562 37.398438 C 23.300781 36.601562 22.199219 35.300781 20.898438 34.199219 C 19.601562 33.101562 18.300781 32.398438 17.601562 32.300781 C 17.300781 32.300781 17.101562 32 17.101562 31.699219 C 17.101562 31.398438 17.398438 31.199219 17.699219 31.199219 C 19.101562 31.300781 20.898438 32.699219 21.601562 33.300781 C 23 34.5 24.101562 35.898438 24.5 36.898438 C 25.199219 38.5 27.898438 39.699219 28.699219 39.699219 C 29 39.699219 29.199219 39.898438 29.199219 40.199219 C 29.300781 40.300781 29.300781 40.5 29.199219 40.601562 Z M 29.199219 40.601562 "/>
<path style=" stroke:none;fill-rule:nonzero;fill:rgb(64.705882%,30.196078%,18.431373%);fill-opacity:1;" d="M 24.5 37.398438 C 24.300781 37.601562 24.101562 37.601562 23.898438 37.5 C 21.601562 36.199219 19.898438 36.898438 18.800781 37.300781 C 18.601562 37.398438 18.398438 37.5 18.199219 37.5 C 17.898438 37.601562 17.601562 37.398438 17.5 37.101562 C 17.398438 36.800781 17.601562 36.5 17.898438 36.398438 C 18 36.398438 18.199219 36.300781 18.398438 36.199219 C 19.601562 35.699219 21.699219 34.898438 24.398438 36.398438 C 24.699219 36.5 24.699219 36.898438 24.601562 37.101562 C 24.5 37.398438 24.5 37.398438 24.5 37.398438 Z M 24.5 37.398438 "/>
<path style=" stroke:none;fill-rule:nonzero;fill:rgb(64.705882%,30.196078%,18.431373%);fill-opacity:1;" d="M 23.199219 29.699219 C 23 29.898438 22.601562 29.898438 22.398438 29.699219 C 22.199219 29.5 22.199219 29.199219 22.398438 28.898438 C 23.199219 28.101562 23.5 27.101562 23.898438 26 C 24.199219 24.898438 24.601562 23.800781 25.398438 22.898438 C 25.601562 22.699219 25.898438 22.699219 26.199219 22.898438 C 26.398438 23.101562 26.398438 23.398438 26.199219 23.699219 C 25.5 24.398438 25.199219 25.398438 24.898438 26.398438 C 24.601562 27.5 24.199219 28.699219 23.199219 29.699219 Z M 23.199219 29.699219 "/>
<path style=" stroke:none;fill-rule:nonzero;fill:rgb(64.705882%,30.196078%,18.431373%);fill-opacity:1;" d="M 25 25.898438 C 24.300781 26.601562 23.300781 26.898438 22.199219 26.898438 C 20.398438 26.898438 18.699219 25.898438 18.300781 25.5 C 18.101562 25.300781 18.101562 24.898438 18.398438 24.699219 C 18.601562 24.5 19 24.5 19.199219 24.800781 C 19.398438 25 20.898438 25.800781 22.398438 25.898438 C 23.199219 25.898438 23.898438 25.601562 24.398438 25.101562 C 24.601562 24.898438 24.898438 24.898438 25.199219 25.101562 C 25.300781 25.300781 25.300781 25.601562 25 25.898438 Z M 25 25.898438 "/>
<path style=" stroke:none;fill-rule:nonzero;fill:rgb(64.705882%,30.196078%,18.431373%);fill-opacity:1;" d="M 15.898438 36.101562 C 15.800781 36.199219 15.800781 36.199219 15.699219 36.199219 C 13.699219 36.699219 11.300781 39.398438 11 40.898438 C 10.898438 41.199219 10.699219 41.398438 10.398438 41.300781 C 10 41.300781 9.800781 41 9.898438 40.699219 C 10.300781 38.800781 13 35.800781 15.398438 35.199219 C 15.699219 35.101562 16 35.300781 16.101562 35.601562 C 16.101562 35.800781 16.101562 36 15.898438 36.101562 Z M 15.898438 36.101562 "/>
<path style=" stroke:none;fill-rule:nonzero;fill:rgb(60%,23.137255%,13.333333%);fill-opacity:1;" d="M 17.898438 29.300781 C 17.898438 29.300781 17.800781 29.398438 17.800781 29.398438 C 17.5 29.5 17.199219 29.5 17.101562 29.199219 C 16.800781 28.601562 16.199219 28.300781 15.5 28.199219 C 13.800781 28 11.699219 29 11.398438 29.300781 C 11.199219 29.5 10.898438 29.5 10.601562 29.300781 C 10.398438 29.101562 10.398438 28.800781 10.601562 28.5 C 11.101562 28 13.5 26.800781 15.601562 27.101562 C 16.699219 27.300781 17.5 27.800781 18 28.699219 C 18.199219 28.898438 18.101562 29.101562 17.898438 29.300781 Z M 17.898438 29.300781 "/>
<path style=" stroke:none;fill-rule:nonzero;fill:rgb(60%,23.137255%,13.333333%);fill-opacity:1;" d="M 16.898438 28.199219 C 16.898438 28.199219 16.800781 28.300781 16.699219 28.300781 C 16.398438 28.398438 16.101562 28.300781 16 28 C 15.898438 27.800781 15.898438 27.601562 15.800781 26.898438 C 15.699219 25.898438 15.5 23.5 14.699219 23.199219 C 14.398438 23.101562 14.300781 22.800781 14.398438 22.5 C 14.5 22.199219 14.800781 22.101562 15.101562 22.199219 C 16.601562 22.800781 16.800781 25.300781 16.898438 26.800781 C 16.898438 27.101562 17 27.398438 17 27.5 C 17.101562 27.898438 17 28.101562 16.898438 28.199219 Z M 17 27.699219 Z M 17 27.699219 "/>
<path style=" stroke:none;fill-rule:nonzero;fill:rgb(64.705882%,30.196078%,18.431373%);fill-opacity:1;" d="M 22.300781 22.601562 C 22.199219 22.699219 22.101562 22.800781 21.898438 22.800781 C 21.601562 22.800781 21.398438 22.5 21.398438 22.199219 L 21.398438 22 C 21.5 20.199219 21.601562 17.5 24 16.398438 C 24.300781 16.300781 24.601562 16.398438 24.699219 16.699219 C 24.800781 17 24.699219 17.300781 24.398438 17.398438 C 22.601562 18.199219 22.5 20.398438 22.5 22.101562 L 22.5 22.300781 C 22.5 22.398438 22.398438 22.5 22.300781 22.601562 Z M 22.300781 22.601562 "/>
<path style=" stroke:none;fill-rule:nonzero;fill:rgb(60%,23.137255%,13.333333%);fill-opacity:1;" d="M 20.398438 50.898438 C 20.199219 51.101562 19.800781 51.101562 19.601562 50.898438 C 15.601562 46.601562 16.300781 43.800781 17 41 C 17.101562 40.800781 17.101562 40.601562 17.199219 40.300781 C 17.300781 40 17.601562 39.800781 17.800781 39.898438 C 18.101562 40 18.300781 40.300781 18.199219 40.5 C 18.101562 40.699219 18.101562 41 18 41.199219 C 17.300781 44 16.800781 46.199219 20.398438 50.101562 C 20.601562 50.300781 20.601562 50.699219 20.398438 50.898438 Z M 20.398438 50.898438 "/>
<path style=" stroke:none;fill-rule:nonzero;fill:rgb(60%,23.137255%,13.333333%);fill-opacity:1;" d="M 22.898438 46.800781 C 22.699219 47 22.398438 47 22.101562 46.800781 C 21.199219 45.898438 18.898438 45.898438 17.800781 45.898438 C 17.601562 45.898438 17.398438 45.898438 17.199219 45.898438 C 17 45.898438 16.601562 45.898438 16.5 45.398438 C 16.398438 45.101562 16.601562 44.800781 16.898438 44.800781 C 17 44.800781 17.101562 44.800781 17.199219 44.800781 C 17.300781 44.800781 17.5 44.800781 17.699219 44.800781 C 19 44.800781 21.5 44.800781 22.699219 46 C 23.101562 46.300781 23.101562 46.601562 22.898438 46.800781 Z M 17.601562 45.199219 Z M 17.601562 45.199219 Z M 17.601562 45.199219 Z M 17.601562 45.199219 "/>
<path style=" stroke:none;fill-rule:nonzero;fill:rgb(64.705882%,30.196078%,18.431373%);fill-opacity:1;" d="M 28.800781 53.601562 C 28.699219 53.699219 28.5 53.800781 28.300781 53.699219 C 27.199219 53.398438 25.199219 50.601562 25.101562 48.398438 C 25.101562 48.101562 25.300781 47.898438 25.601562 47.800781 C 25.898438 47.800781 26.101562 48 26.199219 48.300781 C 26.199219 49.101562 26.601562 50.101562 27.300781 51.101562 C 27.898438 52.101562 28.5 52.601562 28.699219 52.601562 C 29 52.699219 29.101562 53 29.101562 53.300781 C 28.898438 53.398438 28.898438 53.5 28.800781 53.601562 Z M 28.800781 53.601562 "/>
<path style=" stroke:none;fill-rule:nonzero;fill:rgb(64.705882%,30.196078%,18.431373%);fill-opacity:1;" d="M 34.199219 43.898438 C 34.199219 44 34.101562 44 34 44 C 32.398438 44.601562 31 44.398438 29.898438 44.300781 C 28.300781 44.101562 27.101562 44 25.300781 45.5 C 25.101562 45.699219 24.699219 45.699219 24.5 45.398438 C 24.300781 45.101562 24.300781 44.800781 24.601562 44.601562 C 26.699219 42.800781 28.398438 43 30 43.101562 C 31.101562 43.199219 32.300781 43.300781 33.699219 42.800781 C 34 42.699219 34.300781 42.800781 34.398438 43.101562 C 34.398438 43.5 34.398438 43.800781 34.199219 43.898438 Z M 34.199219 43.898438 "/>
<path style=" stroke:none;fill-rule:nonzero;fill:rgb(64.705882%,30.196078%,18.431373%);fill-opacity:1;" d="M 34.101562 40.699219 C 34 40.800781 33.800781 40.898438 33.699219 40.898438 C 32.699219 40.800781 32 42.101562 31.398438 43.101562 C 31.101562 43.601562 30.898438 44 30.601562 44.199219 C 30.398438 44.398438 30.101562 44.398438 29.800781 44.199219 C 29.601562 44 29.601562 43.699219 29.800781 43.398438 C 30 43.199219 30.199219 42.800781 30.398438 42.398438 C 31.101562 41.199219 32.101562 39.5 33.800781 39.699219 C 34.101562 39.699219 34.300781 40 34.300781 40.300781 C 34.199219 40.5 34.199219 40.601562 34.101562 40.699219 Z M 34.101562 40.699219 "/>
<path style=" stroke:none;fill-rule:nonzero;fill:rgb(60%,23.137255%,13.333333%);fill-opacity:1;" d="M 36 52.101562 C 35.898438 52.199219 35.898438 52.199219 35.800781 52.199219 C 35.5 52.300781 35.199219 52.101562 35.101562 51.800781 C 34.601562 50 33.5 48.800781 31.800781 48.101562 C 30.398438 47.5 29 47.601562 28.800781 47.601562 C 28.5 47.601562 28.199219 47.398438 28.199219 47.101562 C 28.199219 46.800781 28.398438 46.5 28.699219 46.5 C 29.199219 46.398438 30.699219 46.5 32.199219 47.101562 C 34.300781 47.898438 35.601562 49.398438 36.199219 51.5 C 36.199219 51.800781 36.101562 52 36 52.101562 Z M 36 52.101562 "/>
<path style=" stroke:none;fill-rule:nonzero;fill:rgb(60%,23.137255%,13.333333%);fill-opacity:1;" d="M 34.101562 48.800781 C 34 48.898438 33.898438 49 33.800781 49 C 33.5 49.101562 33.199219 49 33.101562 48.699219 C 33 48.398438 33.101562 48.101562 33.398438 48 C 33.5 47.898438 33.800781 47.5 33.898438 47.199219 C 34.398438 46.398438 35 45.398438 36.101562 44.800781 C 36.398438 44.699219 36.699219 44.800781 36.800781 45.101562 C 36.898438 45.398438 36.800781 45.699219 36.5 45.800781 C 35.699219 46.199219 35.199219 47 34.800781 47.699219 C 34.5 48.300781 34.300781 48.601562 34.101562 48.800781 Z M 33.300781 48.101562 Z M 33.300781 48.101562 "/>
<path style=" stroke:none;fill-rule:nonzero;fill:rgb(64.705882%,30.196078%,18.431373%);fill-opacity:1;" d="M 38.300781 43.5 C 38.199219 43.601562 38 43.699219 37.800781 43.601562 C 37.5 43.5 37.300781 43.199219 37.398438 43 C 37.601562 42.300781 38.101562 41.601562 38.699219 40.800781 C 39.398438 39.898438 40.199219 38.800781 40.800781 37.300781 C 40.898438 37 41.199219 36.898438 41.5 37 C 41.800781 37.101562 41.898438 37.398438 41.800781 37.699219 C 41.199219 39.398438 40.300781 40.5 39.601562 41.5 C 39.101562 42.199219 38.601562 42.800781 38.5 43.300781 C 38.398438 43.300781 38.300781 43.398438 38.300781 43.5 Z M 38.300781 43.5 "/>
<path style=" stroke:none;fill-rule:nonzero;fill:rgb(64.705882%,30.196078%,18.431373%);fill-opacity:1;" d="M 45.398438 38.101562 C 44.800781 38.699219 43.800781 39.199219 42.5 39.699219 C 41.300781 40.101562 40.199219 40.300781 40.199219 40.300781 C 39.898438 40.300781 39.601562 40.101562 39.601562 39.898438 C 39.601562 39.601562 39.800781 39.300781 40 39.300781 C 41.101562 39.101562 44.199219 38.398438 44.898438 37.101562 C 45.101562 36.800781 45.398438 36.800781 45.601562 36.898438 C 45.898438 37.101562 45.898438 37.398438 45.800781 37.601562 C 45.699219 37.699219 45.601562 37.898438 45.398438 38.101562 Z M 45.398438 38.101562 "/>
<path style=" stroke:none;fill-rule:nonzero;fill:rgb(60%,23.137255%,13.333333%);fill-opacity:1;" d="M 37.601562 38.300781 C 37.5 38.398438 37.398438 38.398438 37.300781 38.398438 C 37 38.5 36.699219 38.300781 36.699219 38 C 36.101562 35.101562 38.199219 32.101562 40.300781 29.601562 C 40.5 29.398438 40.800781 29.300781 41.101562 29.5 C 41.300781 29.699219 41.398438 30 41.199219 30.300781 C 39.199219 32.699219 37.300781 35.398438 37.800781 37.800781 C 37.800781 38 37.699219 38.199219 37.601562 38.300781 Z M 37.601562 38.300781 "/>
<path style=" stroke:none;fill-rule:nonzero;fill:rgb(60%,23.137255%,13.333333%);fill-opacity:1;" d="M 44.601562 32.601562 C 44.199219 33 43.800781 33.300781 43.398438 33.5 C 41.800781 34.300781 39.898438 34.300781 38.199219 34.101562 C 37.898438 34.101562 37.699219 33.800781 37.699219 33.5 C 37.699219 33.199219 38 33 38.300781 33 C 39.800781 33.199219 41.5 33.199219 42.898438 32.5 C 44.300781 31.800781 45.101562 30.300781 45.5 28 C 45.5 27.699219 45.800781 27.5 46.101562 27.601562 C 46.398438 27.601562 46.601562 27.898438 46.5 28.199219 C 46.199219 30.199219 45.601562 31.601562 44.601562 32.601562 Z M 44.601562 32.601562 "/>
<path style=" stroke:none;fill-rule:nonzero;fill:rgb(64.705882%,30.196078%,18.431373%);fill-opacity:1;" d="M 40.300781 26.101562 C 40.300781 26.101562 40.300781 26.199219 40.300781 26.101562 C 40 26.300781 39.601562 26.300781 39.5 26 C 38.898438 25 38.699219 23.699219 38.5 22.5 C 38.300781 21.101562 38.101562 19.800781 37.199219 19.101562 C 37 18.898438 36.898438 18.601562 37.101562 18.300781 C 37.300781 18.101562 37.601562 18 37.898438 18.199219 C 39.199219 19.199219 39.398438 20.800781 39.601562 22.300781 C 39.699219 23.398438 39.898438 24.5 40.398438 25.300781 C 40.5 25.699219 40.5 25.898438 40.300781 26.101562 Z M 40.300781 26.101562 "/>
<path style=" stroke:none;fill-rule:nonzero;fill:rgb(64.705882%,30.196078%,18.431373%);fill-opacity:1;" d="M 39.5 23.699219 C 39.300781 23.898438 39 23.898438 38.800781 23.800781 C 38.699219 23.800781 38.199219 23.699219 37.898438 23.699219 C 36.300781 23.5 33.699219 23.199219 32.898438 21.300781 C 32.800781 21 32.898438 20.699219 33.199219 20.601562 C 33.5 20.5 33.800781 20.601562 33.898438 20.898438 C 34.5 22.199219 36.699219 22.5 38.101562 22.601562 C 38.898438 22.699219 39.300781 22.699219 39.5 23 C 39.699219 23.101562 39.699219 23.5 39.5 23.699219 Z M 38.800781 23.699219 Z M 38.800781 23.699219 "/>
<path style=" stroke:none;fill-rule:nonzero;fill:rgb(64.705882%,30.196078%,18.431373%);fill-opacity:1;" d="M 42.800781 28.300781 C 42.699219 28.398438 42.601562 28.398438 42.5 28.398438 C 42.199219 28.5 41.898438 28.300781 41.898438 28 C 41.699219 27.199219 42.5 23.898438 42.699219 23.300781 C 42.800781 23 43.101562 22.800781 43.398438 22.898438 C 43.699219 23 43.898438 23.300781 43.800781 23.601562 C 43.398438 25.300781 43 27.5 43.101562 27.800781 C 43 28 42.898438 28.199219 42.800781 28.300781 Z M 42.800781 28.300781 "/>
<path style=" stroke:none;fill-rule:nonzero;fill:rgb(60%,23.137255%,13.333333%);fill-opacity:1;" d="M 14.800781 33 C 14.699219 33 14.699219 33 14.800781 33 C 14.398438 33.300781 13.699219 33.601562 13 33.699219 C 12.101562 33.800781 11.398438 33.601562 10.800781 33.199219 C 10.601562 33 10.5 32.699219 10.699219 32.398438 C 10.898438 32.199219 11.199219 32.101562 11.5 32.300781 C 12.199219 32.898438 13.601562 32.5 14.101562 32.199219 C 14.300781 32 14.699219 32.101562 14.800781 32.300781 C 15 32.5 14.898438 32.800781 14.800781 33 Z M 14.800781 33 "/>
<path style=" stroke:none;fill-rule:nonzero;fill:rgb(64.705882%,30.196078%,18.431373%);fill-opacity:1;" d="M 22.300781 43.199219 C 22.300781 43.199219 22.199219 43.300781 22.101562 43.300781 C 21.800781 43.398438 21.5 43.300781 21.398438 43 C 21.199219 42.5 21.199219 40.699219 21.601562 40 C 21.699219 39.699219 22.101562 39.601562 22.300781 39.800781 C 22.601562 39.898438 22.699219 40.300781 22.5 40.5 C 22.300781 40.898438 22.300781 42.199219 22.398438 42.601562 C 22.5 42.898438 22.398438 43.101562 22.300781 43.199219 Z M 22.398438 42.601562 Z M 22.398438 42.601562 "/>
<path style=" stroke:none;fill-rule:nonzero;fill:rgb(60%,23.137255%,13.333333%);fill-opacity:1;" d="M 15.398438 40.898438 C 15.300781 41 15.101562 41 15 41 C 14.699219 41 14.5 40.699219 14.5 40.5 C 14.5 39.699219 15.101562 38.800781 15.601562 38.5 C 15.800781 38.300781 16.199219 38.398438 16.300781 38.601562 C 16.5 38.800781 16.398438 39.199219 16.199219 39.300781 C 15.898438 39.5 15.5 40.101562 15.5 40.5 C 15.5 40.601562 15.5 40.800781 15.398438 40.898438 Z M 15.398438 40.898438 "/>
<path style=" stroke:none;fill-rule:nonzero;fill:rgb(60%,23.137255%,13.333333%);fill-opacity:1;" d="M 33.601562 36.898438 C 33.601562 37 33.398438 37 33.300781 37 C 31.601562 37.101562 30.5 36.5 29.601562 36.101562 C 28.699219 35.601562 28 35.300781 26.898438 35.699219 C 26.601562 35.800781 26.300781 35.601562 26.199219 35.398438 C 26.101562 35.101562 26.300781 34.800781 26.5 34.699219 C 28 34.199219 29 34.699219 30 35.199219 C 30.898438 35.601562 31.800781 36.101562 33.199219 36 C 33.5 36 33.699219 36.199219 33.800781 36.5 C 33.800781 36.601562 33.699219 36.800781 33.601562 36.898438 Z M 33.601562 36.898438 "/>
<path style=" stroke:none;fill-rule:nonzero;fill:rgb(60%,23.137255%,13.333333%);fill-opacity:1;" d="M 30.898438 35.398438 C 30.5 35.800781 30.199219 36 29.898438 36.101562 C 29.601562 36.199219 29.300781 36 29.199219 35.699219 C 29.101562 35.398438 29.300781 35.101562 29.601562 35 C 29.800781 34.898438 30.398438 34.5 30.898438 33.601562 C 31.101562 33.398438 31.398438 33.300781 31.601562 33.398438 C 31.800781 33.601562 31.898438 33.898438 31.800781 34.101562 C 31.5 34.699219 31.199219 35.101562 30.898438 35.398438 Z M 30.898438 35.398438 "/>
<path style=" stroke:none;fill-rule:nonzero;fill:rgb(60%,23.137255%,13.333333%);fill-opacity:1;" d="M 37.300781 27 C 37.300781 27 37.199219 27 37.300781 27 C 37 27.199219 36.699219 27.199219 36.5 26.898438 C 36.199219 26.5 35.5 26.601562 35.300781 26.699219 C 35.101562 26.800781 34.800781 26.800781 34.601562 26.699219 C 34.398438 26.5 34.398438 26.199219 34.601562 25.898438 C 34.898438 25.601562 35.5 25.601562 35.898438 25.601562 C 36.5 25.601562 37 25.898438 37.300781 26.300781 C 37.5 26.5 37.5 26.800781 37.300781 27 Z M 35.300781 26.699219 Z M 35.199219 26.699219 Z M 35.199219 26.699219 "/>
<path style=" stroke:none;fill-rule:nonzero;fill:rgb(60%,23.137255%,13.333333%);fill-opacity:1;" d="M 33.101562 34.398438 C 33 34.5 32.898438 34.601562 32.699219 34.601562 L 30.101562 34.601562 C 29.800781 34.601562 29.601562 34.398438 29.601562 34.101562 C 29.601562 33.800781 29.800781 33.601562 30.101562 33.601562 L 32.699219 33.601562 C 33 33.601562 33.199219 33.800781 33.199219 34.101562 C 33.199219 34.199219 33.101562 34.300781 33.101562 34.398438 Z M 33.101562 34.398438 "/>
<path style=" stroke:none;fill-rule:nonzero;fill:rgb(94.901961%,57.647059%,49.411765%);fill-opacity:1;" d="M 25.804688 29.625 C 24.8125 29.625 24.003906 30.292969 24 31.121094 C 24 31.949219 24.800781 32.625 25.796875 32.625 C 26.789062 32.628906 27.597656 31.960938 27.601562 31.132812 C 27.601562 30.304688 26.800781 29.628906 25.804688 29.625 Z M 25.804688 29.625 "/>
<path style=" stroke:none;fill-rule:nonzero;fill:rgb(94.901961%,57.647059%,49.411765%);fill-opacity:1;" d="M 35.753906 29.734375 C 34.757812 29.734375 33.949219 30.402344 33.949219 31.230469 C 33.945312 32.058594 34.75 32.734375 35.742188 32.734375 C 36.738281 32.738281 37.546875 32.070312 37.546875 31.242188 C 37.550781 30.414062 36.746094 29.738281 35.753906 29.734375 Z M 35.753906 29.734375 "/>
<path style=" stroke:none;fill-rule:nonzero;fill:rgb(18.431373%,21.568627%,23.137255%);fill-opacity:1;" d="M 26.5 29.800781 C 26.398438 29.898438 26.300781 30 26.101562 30 C 25.800781 30 25.601562 29.800781 25.601562 29.5 L 25.601562 28.699219 C 25.601562 28.398438 25.800781 28.199219 26.101562 28.199219 C 26.398438 28.199219 26.601562 28.398438 26.601562 28.699219 L 26.601562 29.5 C 26.601562 29.601562 26.601562 29.699219 26.5 29.800781 Z M 26.5 29.800781 "/>
<path style=" stroke:none;fill-rule:nonzero;fill:rgb(18.431373%,21.568627%,23.137255%);fill-opacity:1;" d="M 30.800781 31.398438 C 30.101562 31.398438 29.5 30.800781 29.5 30.101562 L 29.5 29.101562 C 29.5 28.898438 29.699219 28.699219 29.898438 28.699219 L 31.800781 28.699219 C 32 28.699219 32.199219 28.898438 32.199219 29.101562 L 32.199219 30.101562 C 32.101562 30.800781 31.5 31.398438 30.800781 31.398438 Z M 30.800781 31.398438 "/>
<path style=" stroke:none;fill-rule:nonzero;fill:rgb(18.431373%,21.568627%,23.137255%);fill-opacity:1;" d="M 35.800781 29.800781 C 35.699219 29.898438 35.601562 30 35.398438 30 C 35.101562 30 34.898438 29.800781 34.898438 29.5 L 34.898438 28.699219 C 34.898438 28.398438 35.101562 28.199219 35.398438 28.199219 C 35.699219 28.199219 35.898438 28.398438 35.898438 28.699219 L 35.898438 29.5 C 36 29.601562 35.898438 29.699219 35.800781 29.800781 Z M 35.800781 29.800781 "/>
</g>
</svg>
