<?xml version="1.0" encoding="UTF-8"?>
<svg xmlns="http://www.w3.org/2000/svg" xmlns:xlink="http://www.w3.org/1999/xlink" width="57pt" height="68pt" viewBox="0 0 57 68" version="1.1">
<g id="surface1">
<path style=" stroke:none;fill-rule:nonzero;fill:rgb(98.039216%,82.352941%,30.196078%);fill-opacity:1;" d="M 51 52.601562 L 33.300781 62.800781 C 30.300781 64.5 26.601562 64.5 23.699219 62.800781 L 6 52.601562 C 3 50.898438 1.199219 47.699219 1.199219 44.199219 L 1.199219 23.800781 C 1.199219 20.398438 3 17.199219 6 15.398438 L 23.699219 5.199219 C 26.699219 3.5 30.398438 3.5 33.300781 5.199219 L 51 15.398438 C 54 17.101562 55.800781 20.300781 55.800781 23.800781 L 55.800781 44.199219 C 55.800781 47.699219 54 50.800781 51 52.601562 Z M 51 52.601562 "/>
<path style=" stroke:none;fill-rule:nonzero;fill:rgb(53.72549%,25.490196%,16.862745%);fill-opacity:1;" d="M 45.5 30.101562 L 45.5 37.398438 L 11.5 37.398438 L 11.5 30.101562 C 11.5 25.398438 13.398438 21.199219 16.5 18.101562 C 19.601562 15 23.800781 13.101562 28.5 13.101562 C 29.601562 13.101562 30.699219 13.199219 31.699219 13.398438 C 39.601562 14.898438 45.5 21.800781 45.5 30.101562 Z M 45.5 30.101562 "/>
<path style=" stroke:none;fill-rule:nonzero;fill:rgb(66.666667%,41.176471%,32.156863%);fill-opacity:1;" d="M 45.5 30.101562 L 45.5 37.398438 L 17.898438 37.398438 L 17.898438 30.101562 C 17.898438 25.398438 19.800781 21.199219 22.898438 18.101562 C 25.300781 15.699219 28.300781 14.101562 31.699219 13.398438 C 39.601562 14.898438 45.5 21.800781 45.5 30.101562 Z M 45.5 30.101562 "/>
<path style=" stroke:none;fill-rule:nonzero;fill:rgb(95.686275%,32.54902%,58.431373%);fill-opacity:1;" d="M 33.601562 46.699219 L 33.601562 56.898438 C 33.601562 59.699219 31.300781 62 28.5 62 C 25.699219 62 23.398438 59.699219 23.398438 56.898438 L 23.398438 46.699219 Z M 33.601562 46.699219 "/>
<path style=" stroke:none;fill-rule:nonzero;fill:rgb(80.784314%,10.588235%,42.745098%);fill-opacity:1;" d="M 28.5 57.398438 C 28 57.398438 27.699219 57 27.699219 56.601562 L 27.699219 48.699219 C 27.699219 48.199219 28.101562 47.898438 28.5 47.898438 C 28.898438 47.898438 29.300781 48.300781 29.300781 48.699219 L 29.300781 56.601562 C 29.300781 57.101562 29 57.398438 28.5 57.398438 Z M 28.5 57.398438 "/>
<path style=" stroke:none;fill-rule:nonzero;fill:rgb(100%,81.568627%,65.098039%);fill-opacity:1;" d="M 29.101562 30 C 29.101562 29.800781 29.101562 29.601562 29.101562 29.398438 C 29.101562 25.300781 31.601562 22 34.800781 22 C 38 22 40.5 25.300781 40.5 29.398438 C 40.5 30.898438 40.101562 32.300781 39.5 33.5 L 32.300781 38.300781 "/>
<path style=" stroke:none;fill-rule:nonzero;fill:rgb(80.784314%,10.588235%,42.745098%);fill-opacity:1;" d="M 33.601562 46.699219 L 33.601562 56.5 C 31.5 55.800781 29.699219 54.5 28.5 52.800781 C 27.199219 54.5 25.5 55.800781 23.398438 56.5 L 23.398438 46.699219 Z M 33.601562 46.699219 "/>
<path style=" stroke:none;fill-rule:nonzero;fill:rgb(90.196078%,90.196078%,90.196078%);fill-opacity:1;" d="M 34.398438 32.699219 C 35.199219 32.5 36 32.398438 36.800781 32.398438 C 42.398438 32.5 47 37 47 42.699219 C 47 48.398438 42.398438 52.898438 36.800781 52.898438 C 33.398438 52.898438 30.398438 51.199219 28.5 48.699219 C 26.601562 51.199219 23.601562 52.898438 20.199219 52.898438 C 14.5 52.898438 10 48.300781 10 42.699219 C 10 37.101562 14.601562 32.5 20.199219 32.5 C 21 32.5 21.800781 32.601562 22.601562 32.800781 "/>
<path style=" stroke:none;fill-rule:nonzero;fill:rgb(80%,80%,80%);fill-opacity:1;" d="M 15.199219 42.699219 C 15.199219 47.398438 18.398438 51.398438 22.800781 52.601562 C 22 52.800781 21.101562 52.898438 20.199219 52.898438 C 14.5 52.898438 10 48.300781 10 42.699219 C 10 37.101562 14.601562 32.5 20.199219 32.5 C 21 32.5 21.800781 32.601562 22.601562 32.800781 L 23.101562 32.800781 C 18.601562 33.800781 15.199219 37.898438 15.199219 42.699219 Z M 15.199219 42.699219 "/>
<path style=" stroke:none;fill-rule:nonzero;fill:rgb(80%,80%,80%);fill-opacity:1;" d="M 39.398438 52.601562 C 38.601562 52.800781 37.699219 52.898438 36.800781 52.898438 C 33.398438 52.898438 30.398438 51.199219 28.5 48.699219 L 28.5 36.601562 C 30.398438 34.101562 33.398438 32.398438 36.800781 32.398438 C 37.601562 32.398438 38.398438 32.5 39.199219 32.699219 L 39.699219 32.699219 C 35.199219 33.800781 31.800781 37.800781 31.800781 42.699219 C 31.800781 47.398438 35 51.398438 39.398438 52.601562 Z M 39.398438 52.601562 "/>
<path style=" stroke:none;fill-rule:nonzero;fill:rgb(18.039216%,34.901961%,40.784314%);fill-opacity:1;" d="M 34.398438 32.699219 L 32.398438 35.898438 C 31.398438 37.5 29.699219 38.199219 28 38 C 26.699219 37.898438 25.398438 37.199219 24.601562 35.898438 L 22.601562 32.699219 C 23.699219 31.101562 25.398438 30 27.398438 29.601562 C 27.800781 29.5 28.101562 29.5 28.5 29.5 C 28.898438 29.5 29.300781 29.5 29.699219 29.601562 C 30 29.699219 30.300781 29.699219 30.601562 29.800781 C 32.199219 30.398438 33.5 31.398438 34.398438 32.699219 Z M 34.398438 32.699219 "/>
<path style=" stroke:none;fill-rule:nonzero;fill:rgb(10.196078%,25.490196%,29.803922%);fill-opacity:1;" d="M 27.398438 29.699219 L 29 29.800781 C 26.898438 30.5 25.898438 34.898438 28 38.101562 C 26.699219 38 25.398438 37.300781 24.601562 36 L 22.601562 32.800781 C 23.699219 31.101562 25.398438 30 27.398438 29.699219 Z M 27.398438 29.699219 "/>
<path style=" stroke:none;fill-rule:nonzero;fill:rgb(18.039216%,34.901961%,40.784314%);fill-opacity:1;" d="M 54.800781 28.101562 C 53.800781 30.300781 51 30.800781 49.300781 29.101562 L 34.199219 14 C 36.800781 11.398438 40.101562 10.199219 43.5 10.300781 C 46.601562 10.398438 49.699219 11.601562 52.101562 14 C 55.898438 17.898438 56.800781 23.5 54.800781 28.101562 Z M 54.800781 28.101562 "/>
<path style=" stroke:none;fill-rule:nonzero;fill:rgb(18.039216%,34.901961%,40.784314%);fill-opacity:1;" d="M 22.800781 14 L 7.699219 29.101562 C 6 30.800781 3.199219 30.300781 2.199219 28.101562 C 0.199219 23.5 1.101562 17.898438 4.898438 14 C 8 10.898438 12.398438 9.699219 16.5 10.601562 C 18.800781 11.101562 21 12.199219 22.800781 14 Z M 22.800781 14 "/>
<path style=" stroke:none;fill-rule:nonzero;fill:rgb(10.196078%,25.490196%,29.803922%);fill-opacity:1;" d="M 16.5 10.601562 C 9.800781 9.699219 5.800781 23.5 9.300781 27.5 L 7.699219 29.101562 C 6 30.800781 3.199219 30.300781 2.199219 28.101562 C 0.199219 23.5 1.101562 17.898438 4.898438 14 C 8 10.898438 12.398438 9.699219 16.5 10.601562 Z M 16.5 10.601562 "/>
<path style=" stroke:none;fill-rule:nonzero;fill:rgb(10.196078%,25.490196%,29.803922%);fill-opacity:1;" d="M 43.5 23.300781 L 34.199219 14 C 36.800781 11.398438 40.101562 10.199219 43.5 10.300781 C 39.898438 10.300781 39.101562 19 43.5 23.300781 Z M 43.5 23.300781 "/>
<path style=" stroke:none;fill-rule:nonzero;fill:rgb(18.039216%,34.901961%,40.784314%);fill-opacity:1;" d="M 41.398438 42.101562 C 40.601562 42.101562 40.300781 41.101562 40.898438 40.601562 C 41.5 40.101562 42.398438 40.699219 42.300781 41.398438 C 42.101562 41.800781 41.800781 42.101562 41.398438 42.101562 Z M 41.398438 42.101562 "/>
<path style=" stroke:none;fill-rule:nonzero;fill:rgb(18.039216%,34.901961%,40.784314%);fill-opacity:1;" d="M 40.699219 45.800781 C 40.300781 45.800781 40 45.5 39.898438 45.199219 C 39.800781 44.898438 39.898438 44.5 40.199219 44.300781 C 40.800781 43.800781 41.699219 44.300781 41.601562 45 C 41.5 45.5 41.101562 45.800781 40.699219 45.800781 Z M 40.699219 45.800781 "/>
<path style=" stroke:none;fill-rule:nonzero;fill:rgb(18.039216%,34.901961%,40.784314%);fill-opacity:1;" d="M 43.300781 44.5 C 42.5 44.5 42.199219 43.5 42.800781 43 C 43.398438 42.5 44.300781 43 44.199219 43.800781 C 44.101562 44.199219 43.699219 44.5 43.300781 44.5 Z M 43.300781 44.5 "/>
<path style=" stroke:none;fill-rule:nonzero;fill:rgb(18.039216%,34.901961%,40.784314%);fill-opacity:1;" d="M 15.601562 42.101562 C 14.898438 42.101562 14.5 41.199219 15 40.601562 C 15.199219 40.398438 15.601562 40.300781 15.898438 40.5 C 16.199219 40.699219 16.398438 41 16.398438 41.398438 C 16.398438 41.800781 16 42.101562 15.601562 42.101562 Z M 15.601562 42.101562 "/>
<path style=" stroke:none;fill-rule:nonzero;fill:rgb(18.039216%,34.901961%,40.784314%);fill-opacity:1;" d="M 16.300781 45.800781 C 15.5 45.800781 15.199219 44.800781 15.800781 44.300781 C 16.398438 43.800781 17.300781 44.398438 17.101562 45.101562 C 17 45.5 16.699219 45.800781 16.300781 45.800781 Z M 16.300781 45.800781 "/>
<path style=" stroke:none;fill-rule:nonzero;fill:rgb(18.039216%,34.901961%,40.784314%);fill-opacity:1;" d="M 13.699219 44.5 C 13 44.5 12.601562 43.601562 13.101562 43 C 13.699219 42.5 14.601562 43 14.5 43.699219 C 14.398438 44.199219 14.101562 44.5 13.699219 44.5 Z M 13.699219 44.5 "/>
<path style=" stroke:none;fill-rule:nonzero;fill:rgb(10.196078%,25.490196%,29.803922%);fill-opacity:1;" d="M 25 29.101562 C 24.800781 29.101562 24.601562 29 24.398438 28.898438 C 23.5 28 21.898438 28 21 28.898438 C 20.699219 29.199219 20.101562 29.199219 19.800781 28.898438 C 19.5 28.601562 19.5 28 19.800781 27.699219 C 21.398438 26.101562 24 26.101562 25.601562 27.699219 C 25.898438 28 25.898438 28.601562 25.601562 28.898438 C 25.5 29 25.300781 29.101562 25 29.101562 Z M 25 29.101562 "/>
<path style=" stroke:none;fill-rule:nonzero;fill:rgb(10.196078%,25.490196%,29.803922%);fill-opacity:1;" d="M 36.5 29.101562 C 36.300781 29.101562 36.101562 29 35.898438 28.898438 C 35.398438 28.398438 34.800781 28.199219 34.199219 28.199219 C 33.601562 28.199219 33 28.398438 32.5 28.898438 C 32.199219 29.199219 31.601562 29.199219 31.300781 28.898438 C 31 28.601562 31 28 31.300781 27.699219 C 32.101562 26.898438 33.101562 26.5 34.199219 26.5 C 35.300781 26.5 36.300781 26.898438 37.101562 27.699219 C 37.398438 28 37.398438 28.601562 37.101562 28.898438 C 37 29 36.699219 29.101562 36.5 29.101562 Z M 36.5 29.101562 "/>
<path style=" stroke:none;fill-rule:nonzero;fill:rgb(10.196078%,25.490196%,29.803922%);fill-opacity:1;" d="M 30.601562 29.898438 L 29 29.800781 C 29.199219 29.699219 29.398438 29.699219 29.699219 29.699219 C 30 29.699219 30.300781 29.699219 30.601562 29.898438 Z M 30.601562 29.898438 "/>
</g>
</svg>
