<?xml version="1.0" encoding="UTF-8"?>
<svg xmlns="http://www.w3.org/2000/svg" xmlns:xlink="http://www.w3.org/1999/xlink" width="57pt" height="68pt" viewBox="0 0 57 68" version="1.1">
<g id="surface1">
<path style=" stroke:none;fill-rule:nonzero;fill:rgb(98.039216%,82.352941%,30.196078%);fill-opacity:1;" d="M 51 52.601562 L 33.300781 62.800781 C 30.300781 64.5 26.601562 64.5 23.699219 62.800781 L 6 52.601562 C 3 50.898438 1.199219 47.699219 1.199219 44.199219 L 1.199219 23.800781 C 1.199219 20.398438 3 17.199219 6 15.398438 L 23.699219 5.199219 C 26.699219 3.5 30.398438 3.5 33.300781 5.199219 L 51 15.398438 C 54 17.101562 55.800781 20.300781 55.800781 23.800781 L 55.800781 44.199219 C 55.800781 47.699219 54 50.800781 51 52.601562 Z M 51 52.601562 "/>
<path style=" stroke:none;fill-rule:nonzero;fill:rgb(24.705882%,36.078431%,42.352941%);fill-opacity:1;" d="M 50.398438 26.800781 C 50.199219 26.800781 50.101562 26.800781 49.898438 26.699219 L 48 25.398438 L 41.398438 25.398438 C 40.898438 25.398438 40.5 25 40.5 24.5 C 40.5 24 40.898438 23.601562 41.398438 23.601562 L 48.300781 23.601562 C 48.5 23.601562 48.601562 23.601562 48.800781 23.699219 L 51 25.101562 C 51.300781 25.300781 51.5 25.699219 51.300781 26.101562 C 51.101562 26.601562 50.800781 26.800781 50.398438 26.800781 Z M 50.398438 26.800781 "/>
<path style=" stroke:none;fill-rule:nonzero;fill:rgb(24.705882%,36.078431%,42.352941%);fill-opacity:1;" d="M 50 36.601562 L 44 36.601562 C 43.5 36.601562 43.101562 36.199219 43.101562 35.699219 C 43.101562 35.199219 43.5 34.800781 44 34.800781 L 50 34.800781 C 50.5 34.800781 50.898438 35.199219 50.898438 35.699219 C 50.898438 36.199219 50.398438 36.601562 50 36.601562 Z M 50 36.601562 "/>
<path style=" stroke:none;fill-rule:nonzero;fill:rgb(24.705882%,36.078431%,42.352941%);fill-opacity:1;" d="M 48.101562 46 L 46.5 46 C 46.300781 46 46.199219 46 46.101562 45.898438 L 43.5 44.398438 C 43.199219 44.199219 43.101562 44 43.101562 43.601562 C 43.101562 43.300781 43.300781 43 43.5 42.898438 C 43.800781 42.800781 44.101562 42.800781 44.398438 42.898438 L 46.800781 44.300781 L 48.101562 44.300781 C 48.601562 44.300781 49 44.699219 49 45.199219 C 49 45.601562 48.601562 46 48.101562 46 Z M 48.101562 46 "/>
<path style=" stroke:none;fill-rule:nonzero;fill:rgb(24.705882%,36.078431%,42.352941%);fill-opacity:1;" d="M 15.601562 28 L 8.800781 28 C 8.601562 28 8.398438 27.898438 8.199219 27.699219 L 6 25.5 C 5.800781 25.300781 5.699219 25 5.800781 24.699219 C 5.898438 24.398438 6.101562 24.199219 6.398438 24.101562 C 6.699219 24 7 24.101562 7.199219 24.300781 L 9.199219 26.300781 L 15.699219 26.300781 C 16.199219 26.300781 16.601562 26.699219 16.601562 27.199219 C 16.5 27.601562 16.101562 28 15.601562 28 Z M 15.601562 28 "/>
<path style=" stroke:none;fill-rule:nonzero;fill:rgb(24.705882%,36.078431%,42.352941%);fill-opacity:1;" d="M 13.101562 36.601562 L 7 36.601562 C 6.5 36.601562 6.101562 36.199219 6.101562 35.699219 C 6.101562 35.199219 6.5 34.800781 7 34.800781 L 13 34.800781 C 13.5 34.800781 13.898438 35.199219 13.898438 35.699219 C 13.898438 36.199219 13.5 36.601562 13.101562 36.601562 Z M 13.101562 36.601562 "/>
<path style=" stroke:none;fill-rule:nonzero;fill:rgb(24.705882%,36.078431%,42.352941%);fill-opacity:1;" d="M 10.5 46 L 8.898438 46 C 8.398438 46 8 45.601562 8 45.101562 C 8 44.601562 8.398438 44.199219 8.898438 44.199219 L 10.199219 44.199219 L 12.601562 42.800781 C 12.898438 42.601562 13.199219 42.601562 13.5 42.800781 C 13.800781 42.898438 13.898438 43.199219 13.898438 43.5 C 13.898438 43.800781 13.699219 44.101562 13.5 44.300781 L 10.898438 45.800781 C 10.800781 46 10.601562 46 10.5 46 Z M 10.5 46 "/>
<path style=" stroke:none;fill-rule:nonzero;fill:rgb(24.705882%,36.078431%,42.352941%);fill-opacity:1;" d="M 22.5 56.300781 C 22.300781 56.300781 22.101562 56.199219 21.898438 56 C 21.699219 55.800781 21.601562 55.601562 21.601562 55.398438 L 21.601562 49.398438 C 21.601562 48.898438 22 48.5 22.5 48.5 C 23 48.5 23.398438 48.898438 23.398438 49.398438 L 23.398438 55.398438 C 23.398438 55.601562 23.300781 55.800781 23.101562 56 C 22.898438 56.199219 22.699219 56.300781 22.5 56.300781 Z M 22.5 56.300781 "/>
<path style=" stroke:none;fill-rule:nonzero;fill:rgb(24.705882%,36.078431%,42.352941%);fill-opacity:1;" d="M 34.5 55.300781 C 34.300781 55.300781 34.101562 55.199219 33.898438 55 C 33.699219 54.800781 33.601562 54.601562 33.601562 54.398438 L 33.601562 49.398438 C 33.601562 48.898438 34 48.5 34.5 48.5 C 35 48.5 35.398438 48.898438 35.398438 49.398438 L 35.398438 54.398438 C 35.398438 54.601562 35.300781 54.800781 35.101562 55 C 35 55.199219 34.699219 55.300781 34.5 55.300781 Z M 34.5 55.300781 "/>
<path style=" stroke:none;fill-rule:nonzero;fill:rgb(24.705882%,36.078431%,42.352941%);fill-opacity:1;" d="M 34.5 58.699219 C 34.398438 58.699219 34.398438 58.699219 34.300781 58.699219 C 34.199219 58.699219 34.199219 58.699219 34.101562 58.601562 C 34 58.601562 34 58.601562 33.898438 58.5 C 33.898438 58.5 33.800781 58.398438 33.800781 58.398438 C 33.699219 58.300781 33.699219 58.199219 33.601562 58.101562 C 33.601562 58 33.5 57.898438 33.5 57.800781 C 33.5 57.601562 33.601562 57.398438 33.699219 57.199219 C 33.898438 57 34.300781 56.898438 34.601562 57 C 34.699219 57 34.800781 57.101562 34.898438 57.199219 C 35.101562 57.398438 35.101562 57.601562 35.101562 57.800781 C 35.101562 57.898438 35.101562 58 35 58.101562 C 35 58.199219 34.898438 58.300781 34.800781 58.398438 C 34.699219 58.5 34.601562 58.5 34.5 58.601562 C 34.699219 58.699219 34.601562 58.699219 34.5 58.699219 Z M 34.5 58.699219 "/>
<path style=" stroke:none;fill-rule:nonzero;fill:rgb(24.705882%,36.078431%,42.352941%);fill-opacity:1;" d="M 33.601562 19.398438 C 33.398438 19.398438 33.199219 19.300781 33 19.101562 C 32.800781 18.898438 32.699219 18.699219 32.699219 18.5 L 32.699219 12.5 C 32.699219 12 33.101562 11.601562 33.601562 11.601562 C 34.101562 11.601562 34.5 12 34.5 12.5 L 34.5 18.5 C 34.5 18.699219 34.398438 18.898438 34.199219 19.101562 C 34.101562 19.300781 33.898438 19.398438 33.601562 19.398438 Z M 33.601562 19.398438 "/>
<path style=" stroke:none;fill-rule:nonzero;fill:rgb(24.705882%,36.078431%,42.352941%);fill-opacity:1;" d="M 23.398438 19.398438 C 23.199219 19.398438 23 19.300781 22.800781 19.101562 C 22.601562 18.898438 22.5 18.699219 22.5 18.5 L 22.5 13.5 C 22.5 13 22.898438 12.601562 23.398438 12.601562 C 23.898438 12.601562 24.300781 13 24.300781 13.5 L 24.300781 18.5 C 24.300781 18.699219 24.199219 18.898438 24 19.101562 C 23.800781 19.300781 23.601562 19.398438 23.398438 19.398438 Z M 23.398438 19.398438 "/>
<path style=" stroke:none;fill-rule:nonzero;fill:rgb(24.705882%,36.078431%,42.352941%);fill-opacity:1;" d="M 23.398438 11 C 23.199219 11 23 10.898438 22.800781 10.800781 C 22.601562 10.601562 22.601562 10.398438 22.601562 10.199219 C 22.601562 10 22.699219 9.800781 22.800781 9.601562 C 23.101562 9.300781 23.699219 9.300781 24 9.601562 C 24.199219 9.800781 24.300781 10 24.300781 10.199219 C 24.199219 10.601562 23.800781 11 23.398438 11 Z M 23.398438 11 "/>
<path style=" stroke:none;fill-rule:nonzero;fill:rgb(24.705882%,36.078431%,42.352941%);fill-opacity:1;" d="M 52.398438 46 L 51.5 46 C 51 46 50.601562 45.601562 50.601562 45.101562 C 50.601562 44.601562 51 44.199219 51.5 44.199219 L 52.398438 44.199219 C 52.898438 44.199219 53.300781 44.601562 53.300781 45.101562 C 53.300781 45.601562 52.898438 46 52.398438 46 Z M 52.398438 46 "/>
<path style=" stroke:none;fill-rule:nonzero;fill:rgb(24.705882%,36.078431%,42.352941%);fill-opacity:1;" d="M 5.5 46 L 4.601562 46 C 4.101562 46 3.699219 45.601562 3.699219 45.101562 C 3.699219 44.601562 4.101562 44.199219 4.601562 44.199219 L 5.5 44.199219 C 6 44.199219 6.398438 44.601562 6.398438 45.101562 C 6.398438 45.601562 5.898438 46 5.5 46 Z M 5.5 46 "/>
<path style=" stroke:none;fill-rule:nonzero;fill:rgb(98.431373%,48.235294%,46.27451%);fill-opacity:1;" d="M 44.398438 40.601562 C 44.398438 40.898438 44.5 41.101562 44.5 41.398438 C 44.5 43.898438 42.699219 46 40.300781 46.398438 C 40.300781 46.5 40.199219 46.601562 40.199219 46.800781 C 40.199219 46.898438 40.199219 46.898438 40.101562 47 C 40.101562 47.101562 40 47.300781 39.898438 47.398438 C 39.898438 47.5 39.800781 47.601562 39.699219 47.699219 C 39.699219 47.800781 39.699219 47.800781 39.601562 47.898438 C 39.601562 48 39.5 48.101562 39.5 48.199219 C 39.5 48.300781 39.398438 48.300781 39.398438 48.300781 C 39.300781 48.5 39.199219 48.601562 39.101562 48.800781 C 39.101562 48.898438 39 49 38.898438 49 C 38.601562 49.398438 38.300781 49.699219 37.898438 49.898438 C 37.800781 50 37.699219 50 37.699219 50.101562 C 37.300781 50.398438 36.898438 50.601562 36.398438 50.699219 C 36.300781 50.699219 36.199219 50.800781 36.101562 50.800781 C 36 50.800781 35.898438 50.898438 35.898438 50.898438 C 35.699219 51 35.5 51 35.300781 51 C 35.199219 51 35.199219 51 35.101562 51 C 34.898438 51 34.699219 51 34.398438 51 C 31.101562 51 28.5 48.300781 28.5 45.101562 C 28.5 48.398438 25.800781 51 22.601562 51 C 22.398438 51 22.199219 51 21.898438 51 C 21.800781 51 21.699219 51 21.699219 51 C 21.5 51 21.300781 50.898438 21.101562 50.898438 C 21 50.898438 20.898438 50.898438 20.898438 50.800781 C 20.800781 50.800781 20.699219 50.699219 20.601562 50.699219 C 20.199219 50.5 19.699219 50.300781 19.300781 50.101562 C 19.199219 50.101562 19.101562 50 19 50 C 18.601562 49.699219 18.300781 49.398438 18 49.101562 C 17.898438 49 17.898438 48.898438 17.800781 48.800781 C 17.699219 48.601562 17.601562 48.5 17.5 48.300781 C 17.5 48.300781 17.398438 48.199219 17.398438 48.199219 C 17.300781 48.101562 17.300781 48 17.300781 47.898438 C 17.300781 47.800781 17.199219 47.800781 17.199219 47.699219 C 17.101562 47.601562 17.101562 47.5 17 47.398438 C 17 47.199219 17 47.101562 16.898438 47 C 16.898438 46.898438 16.898438 46.898438 16.800781 46.800781 C 16.800781 46.699219 16.699219 46.601562 16.699219 46.398438 C 14.300781 46 12.5 43.898438 12.5 41.398438 C 12.5 41.101562 12.5 40.800781 12.601562 40.601562 C 12.601562 40.5 12.601562 40.398438 12.699219 40.300781 C 12.699219 40.101562 12.800781 40 12.800781 39.800781 C 12.800781 39.699219 12.898438 39.5 13 39.398438 C 13.101562 39.199219 13.199219 38.898438 13.398438 38.699219 C 13.5 38.601562 13.5 38.5 13.601562 38.398438 C 12.199219 37.398438 11.398438 35.800781 11.398438 34.101562 C 11.398438 34 11.398438 33.898438 11.398438 33.800781 C 11.398438 33.699219 11.398438 33.699219 11.398438 33.601562 C 11.398438 33.5 11.398438 33.398438 11.398438 33.300781 C 11.398438 33.199219 11.398438 33.101562 11.5 33 C 11.5 32.898438 11.601562 32.800781 11.601562 32.601562 C 11.800781 31.800781 12.199219 31.101562 12.800781 30.5 C 12.800781 30.398438 12.898438 30.398438 12.898438 30.300781 C 13.300781 29.898438 13.800781 29.5 14.300781 29.300781 C 13.898438 28.601562 13.699219 27.800781 13.699219 27 C 13.699219 24.398438 15.800781 22.300781 18.398438 22.300781 L 18.398438 22 C 18.398438 19.199219 20.699219 17 23.398438 17 C 25.898438 17 28.398438 18.5 28.398438 21.300781 C 28.398438 18.5 31 17 33.398438 17 C 36.199219 17 38.398438 19.300781 38.398438 22 L 38.398438 22.300781 C 39.699219 22.300781 40.898438 22.800781 41.699219 23.699219 C 42.601562 24.601562 43.101562 25.800781 43.101562 27 C 43.101562 27.800781 42.898438 28.601562 42.5 29.300781 C 43 29.601562 43.5 29.898438 43.898438 30.300781 C 44 30.398438 44 30.398438 44 30.5 C 44.601562 31.101562 45 31.800781 45.199219 32.601562 C 45.199219 32.699219 45.300781 32.800781 45.300781 33 C 45.300781 33.101562 45.300781 33.199219 45.398438 33.300781 C 45.398438 33.398438 45.398438 33.5 45.398438 33.601562 C 45.398438 33.699219 45.398438 33.699219 45.398438 33.800781 C 45.398438 33.898438 45.398438 34 45.398438 34.101562 C 45.398438 35.800781 44.601562 37.398438 43.199219 38.398438 C 43.300781 38.5 43.398438 38.601562 43.398438 38.699219 C 43.5 38.898438 43.699219 39.199219 43.800781 39.398438 C 43.898438 39.5 43.898438 39.601562 44 39.800781 C 44.101562 40 44.101562 40.101562 44.101562 40.300781 C 44.398438 40.300781 44.398438 40.398438 44.398438 40.601562 Z M 44.398438 40.601562 "/>
<path style=" stroke:none;fill-rule:nonzero;fill:rgb(40.392157%,72.54902%,80%);fill-opacity:1;" d="M 53.398438 35.699219 C 53.398438 36.640625 52.640625 37.398438 51.699219 37.398438 C 50.761719 37.398438 50 36.640625 50 35.699219 C 50 34.761719 50.761719 34 51.699219 34 C 52.640625 34 53.398438 34.761719 53.398438 35.699219 Z M 53.398438 35.699219 "/>
<path style=" stroke:none;fill-rule:nonzero;fill:rgb(40.392157%,72.54902%,80%);fill-opacity:1;" d="M 53.398438 27.101562 C 53.398438 28.039062 52.640625 28.800781 51.699219 28.800781 C 50.761719 28.800781 50 28.039062 50 27.101562 C 50 26.160156 50.761719 25.398438 51.699219 25.398438 C 52.640625 25.398438 53.398438 26.160156 53.398438 27.101562 Z M 53.398438 27.101562 "/>
<path style=" stroke:none;fill-rule:nonzero;fill:rgb(40.392157%,72.54902%,80%);fill-opacity:1;" d="M 7 35.699219 C 7 36.640625 6.238281 37.398438 5.300781 37.398438 C 4.359375 37.398438 3.601562 36.640625 3.601562 35.699219 C 3.601562 34.761719 4.359375 34 5.300781 34 C 6.238281 34 7 34.761719 7 35.699219 Z M 7 35.699219 "/>
<path style=" stroke:none;fill-rule:nonzero;fill:rgb(40.392157%,72.54902%,80%);fill-opacity:1;" d="M 7 23.699219 C 7 24.640625 6.238281 25.398438 5.300781 25.398438 C 4.359375 25.398438 3.601562 24.640625 3.601562 23.699219 C 3.601562 22.761719 4.359375 22 5.300781 22 C 6.238281 22 7 22.761719 7 23.699219 Z M 7 23.699219 "/>
<path style=" stroke:none;fill-rule:nonzero;fill:rgb(40.392157%,72.54902%,80%);fill-opacity:1;" d="M 24.199219 57.199219 C 24.199219 58.140625 23.4375 58.898438 22.5 58.898438 C 21.5625 58.898438 20.800781 58.140625 20.800781 57.199219 C 20.800781 56.261719 21.5625 55.5 22.5 55.5 C 23.4375 55.5 24.199219 56.261719 24.199219 57.199219 Z M 24.199219 57.199219 "/>
<path style=" stroke:none;fill-rule:nonzero;fill:rgb(40.392157%,72.54902%,80%);fill-opacity:1;" d="M 35.300781 10.800781 C 35.300781 11.738281 34.539062 12.5 33.601562 12.5 C 32.660156 12.5 31.898438 11.738281 31.898438 10.800781 C 31.898438 9.859375 32.660156 9.101562 33.601562 9.101562 C 34.539062 9.101562 35.300781 9.859375 35.300781 10.800781 Z M 35.300781 10.800781 "/>
<path style=" stroke:none;fill-rule:nonzero;fill:rgb(87.45098%,30.196078%,37.647059%);fill-opacity:1;" d="M 34.699219 24.300781 C 34.300781 24.300781 34 24 33.898438 23.699219 C 33.800781 23.300781 34 22.898438 34.300781 22.699219 C 35.101562 22.199219 36.101562 21.898438 37.101562 22 C 37.601562 22 38 22.398438 38 22.898438 C 38 23.398438 37.601562 23.800781 37.101562 23.800781 C 36.398438 23.800781 35.800781 24 35.199219 24.300781 C 35 24.300781 34.898438 24.300781 34.699219 24.300781 Z M 34.699219 24.300781 "/>
<path style=" stroke:none;fill-rule:nonzero;fill:rgb(87.45098%,30.196078%,37.647059%);fill-opacity:1;" d="M 40.5 30.101562 C 40.398438 30.101562 40.199219 30.101562 40.101562 30 C 39.5 29.699219 38.800781 29.5 38.101562 29.5 C 37.601562 29.5 37.199219 29.101562 37.199219 28.601562 C 37.199219 28.101562 37.601562 27.699219 38.101562 27.699219 C 39 27.699219 40 27.898438 40.800781 28.300781 C 41.199219 28.5 41.300781 28.898438 41.300781 29.300781 C 41.300781 29.800781 40.898438 30.101562 40.5 30.101562 Z M 40.5 30.101562 "/>
<path style=" stroke:none;fill-rule:nonzero;fill:rgb(87.45098%,30.196078%,37.647059%);fill-opacity:1;" d="M 42.199219 37.5 C 41.898438 37.5 41.699219 37.398438 41.5 37.199219 C 41 36.5 40.300781 36 39.398438 35.800781 C 39.101562 35.699219 38.898438 35.5 38.800781 35.199219 C 38.699219 34.898438 38.800781 34.601562 39.101562 34.398438 C 39.398438 34.199219 39.601562 34.101562 39.898438 34.199219 C 41.101562 34.601562 42.101562 35.300781 42.800781 36.300781 C 43 36.601562 43 36.898438 42.898438 37.199219 C 42.800781 37.300781 42.5 37.5 42.199219 37.5 Z M 42.199219 37.5 "/>
<path style=" stroke:none;fill-rule:nonzero;fill:rgb(87.45098%,30.196078%,37.647059%);fill-opacity:1;" d="M 39.5 46 C 39.398438 46 39.398438 46 39.300781 46 C 38.800781 45.898438 38.5 45.5 38.601562 45 C 38.699219 44.699219 38.699219 44.398438 38.699219 44 C 38.699219 42.898438 38.300781 41.800781 37.699219 41 C 37.5 40.800781 37.5 40.398438 37.601562 40.101562 C 37.699219 39.800781 38 39.601562 38.300781 39.601562 C 38.601562 39.601562 38.898438 39.699219 39.101562 39.898438 C 40.199219 41.398438 40.699219 43.398438 40.300781 45.300781 C 40.300781 45.699219 40 46 39.5 46 Z M 39.5 46 "/>
<path style=" stroke:none;fill-rule:nonzero;fill:rgb(87.45098%,30.196078%,37.647059%);fill-opacity:1;" d="M 22.199219 24.300781 C 22.601562 24.300781 22.898438 24 23 23.699219 C 23.101562 23.300781 22.898438 22.898438 22.601562 22.699219 C 21.800781 22.199219 20.800781 21.898438 19.800781 22 C 19.300781 22 18.898438 22.398438 18.898438 22.898438 C 18.898438 23.398438 19.300781 23.800781 19.800781 23.800781 C 20.5 23.800781 21.101562 24 21.699219 24.300781 C 21.898438 24.300781 22.101562 24.300781 22.199219 24.300781 Z M 22.199219 24.300781 "/>
<path style=" stroke:none;fill-rule:nonzero;fill:rgb(87.45098%,30.196078%,37.647059%);fill-opacity:1;" d="M 16.398438 30.101562 C 16.5 30.101562 16.699219 30.101562 16.800781 30 C 17.398438 29.699219 18.101562 29.5 18.800781 29.5 C 19.300781 29.5 19.699219 29.101562 19.699219 28.601562 C 19.699219 28.101562 19.300781 27.699219 18.800781 27.699219 C 17.898438 27.699219 16.898438 27.898438 16.101562 28.300781 C 15.699219 28.5 15.601562 28.898438 15.601562 29.300781 C 15.699219 29.800781 16 30.101562 16.398438 30.101562 Z M 16.398438 30.101562 "/>
<path style=" stroke:none;fill-rule:nonzero;fill:rgb(87.45098%,30.196078%,37.647059%);fill-opacity:1;" d="M 14.800781 37.5 C 15.101562 37.5 15.300781 37.398438 15.5 37.199219 C 16 36.5 16.699219 36 17.601562 35.800781 C 18.101562 35.699219 18.300781 35.199219 18.199219 34.699219 C 18 34.101562 17.5 33.898438 17 34 C 15.800781 34.398438 14.800781 35.101562 14.101562 36.101562 C 13.898438 36.398438 13.898438 36.699219 14 37 C 14.101562 37.300781 14.398438 37.5 14.800781 37.5 Z M 14.800781 37.5 "/>
<path style=" stroke:none;fill-rule:nonzero;fill:rgb(87.45098%,30.196078%,37.647059%);fill-opacity:1;" d="M 17.398438 46 C 17.5 46 17.5 46 17.601562 46 C 18.101562 45.898438 18.398438 45.5 18.300781 45 C 18.199219 44.699219 18.199219 44.398438 18.199219 44 C 18.199219 42.898438 18.601562 41.800781 19.199219 41 C 19.398438 40.800781 19.398438 40.398438 19.300781 40.101562 C 19.199219 39.800781 18.898438 39.601562 18.601562 39.601562 C 18.300781 39.601562 18 39.699219 17.800781 39.898438 C 16.699219 41.398438 16.199219 43.398438 16.601562 45.300781 C 16.601562 45.699219 17 46 17.398438 46 Z M 17.398438 46 "/>
</g>
</svg>
