<?xml version="1.0" encoding="UTF-8"?>
<svg xmlns="http://www.w3.org/2000/svg" xmlns:xlink="http://www.w3.org/1999/xlink" width="57pt" height="68pt" viewBox="0 0 57 68" version="1.1">
<g id="surface1">
<path style=" stroke:none;fill-rule:nonzero;fill:rgb(5.490196%,81.960784%,69.803922%);fill-opacity:1;" d="M 51 52.601562 L 33.300781 62.800781 C 30.300781 64.5 26.601562 64.5 23.699219 62.800781 L 6 52.601562 C 3 50.898438 1.199219 47.699219 1.199219 44.199219 L 1.199219 23.800781 C 1.199219 20.398438 3 17.199219 6 15.398438 L 23.699219 5.199219 C 26.699219 3.5 30.398438 3.5 33.300781 5.199219 L 51 15.398438 C 54 17.101562 55.800781 20.300781 55.800781 23.800781 L 55.800781 44.199219 C 55.800781 47.699219 54 50.800781 51 52.601562 Z M 51 52.601562 "/>
<path style=" stroke:none;fill-rule:nonzero;fill:rgb(100%,13.333333%,38.039216%);fill-opacity:1;" d="M 51.699219 28.800781 C 51.699219 30.300781 51.601562 31.699219 51.300781 33.101562 L 48.300781 41.199219 C 48.199219 41.300781 48.199219 41.398438 48.101562 41.601562 C 46.199219 44.800781 43.5 48 40.199219 50.898438 C 34.601562 55.898438 29.101562 58.5 28.800781 58.699219 L 28.601562 58.800781 C 28.300781 58.898438 28 58.898438 27.699219 58.800781 L 27.5 58.699219 C 27.300781 58.601562 21.699219 55.898438 16.101562 50.898438 C 12.800781 48 10.101562 44.800781 8.199219 41.601562 C 6 37.5 4.800781 33.199219 4.800781 28.800781 C 4.800781 21.101562 11.101562 14.800781 18.800781 14.800781 C 22.300781 14.800781 25.699219 16.101562 28.300781 18.5 C 30.601562 16.398438 33.398438 15.101562 36.5 14.800781 C 36.898438 14.800781 37.398438 14.699219 37.800781 14.699219 C 45.398438 14.898438 51.699219 21.101562 51.699219 28.800781 Z M 51.699219 28.800781 "/>
<path style=" stroke:none;fill-rule:nonzero;fill:rgb(71.764706%,18.823529%,36.470588%);fill-opacity:1;" d="M 37.699219 14.898438 C 37.300781 14.898438 36.800781 14.898438 36.398438 15 C 42.601562 15.199219 47.601562 21.398438 47.601562 29 C 47.601562 33.398438 46.601562 37.699219 44.601562 41.800781 C 43 45 40.800781 48.199219 38.101562 51.101562 C 33.5 56.101562 29 58.699219 28.800781 58.800781 C 29 58.699219 34.601562 56 40.199219 51 C 43.5 48.101562 46.199219 44.898438 48.101562 41.699219 C 48.199219 41.601562 48.199219 41.5 48.300781 41.300781 L 51.300781 33.199219 C 51.601562 31.800781 51.699219 30.300781 51.699219 28.898438 C 51.699219 21.101562 45.398438 14.898438 37.699219 14.898438 Z M 37.699219 14.898438 "/>
<path style=" stroke:none;fill-rule:nonzero;fill:rgb(60%,96.078431%,82.352941%);fill-opacity:1;" d="M 46.199219 36.699219 L 39.398438 36.699219 C 39.101562 36.699219 38.898438 36.800781 38.800781 37 L 36.398438 40.300781 L 33.898438 37 C 33.699219 36.800781 33.398438 36.601562 33.101562 36.699219 C 32.800781 36.699219 32.601562 37 32.5 37.199219 L 30 44.800781 L 27.300781 25.601562 C 27.199219 25.199219 26.898438 24.898438 26.601562 24.898438 C 26.199219 24.898438 25.898438 25.101562 25.800781 25.5 L 22.699219 35.800781 L 20.601562 32.898438 C 20.398438 32.699219 20.199219 32.601562 19.898438 32.601562 C 19.601562 32.601562 19.398438 32.699219 19.300781 32.898438 L 16.398438 36.800781 L 2 36.800781 C 1.601562 36.800781 1.199219 37.199219 1.199219 37.601562 C 1.199219 38 1.601562 38.398438 2 38.398438 L 16.800781 38.398438 C 17.101562 38.398438 17.300781 38.300781 17.398438 38.101562 L 19.800781 34.800781 L 22.199219 38.101562 C 22.398438 38.300781 22.699219 38.5 23 38.398438 C 23.300781 38.300781 23.5 38.101562 23.601562 37.800781 L 26.101562 29.398438 L 28.800781 48.398438 C 28.898438 48.800781 29.199219 49.101562 29.5 49.101562 C 29.5 49.101562 29.5 49.101562 29.601562 49.101562 C 29.898438 49.101562 30.300781 48.898438 30.398438 48.5 L 33.5 39.199219 L 35.601562 42.101562 C 35.800781 42.300781 36 42.398438 36.199219 42.398438 C 36.5 42.398438 36.699219 42.300781 36.800781 42.101562 L 39.699219 38.199219 L 46.101562 38.199219 C 46.5 38.199219 46.898438 37.800781 46.898438 37.398438 C 47 37.101562 46.699219 36.699219 46.199219 36.699219 Z M 46.199219 36.699219 "/>
<path style=" stroke:none;fill-rule:nonzero;fill:rgb(89.411765%,95.686275%,100%);fill-opacity:1;" d="M 55.800781 37.5 C 55.800781 40.398438 53.5 42.699219 50.601562 42.699219 C 50 42.699219 49.5 42.601562 49 42.398438 C 46.898438 41.699219 45.398438 39.800781 45.398438 37.398438 C 45.398438 35 46.898438 33.101562 49 32.398438 C 49.5 32.199219 50.101562 32.101562 50.601562 32.101562 C 53.5 32.300781 55.800781 34.601562 55.800781 37.5 Z M 55.800781 37.5 "/>
<path style=" stroke:none;fill-rule:nonzero;fill:rgb(75.294118%,91.764706%,96.862745%);fill-opacity:1;" d="M 55.800781 37.5 C 55.800781 40.398438 53.5 42.699219 50.601562 42.699219 C 50 42.699219 49.5 42.601562 49 42.398438 C 51.101562 41.699219 52.601562 39.800781 52.601562 37.398438 C 52.601562 35 51.101562 33.101562 49 32.398438 C 49.5 32.199219 50.101562 32.101562 50.601562 32.101562 C 53.5 32.300781 55.800781 34.601562 55.800781 37.5 Z M 55.800781 37.5 "/>
</g>
</svg>
