<?xml version="1.0" encoding="UTF-8"?>
<svg xmlns="http://www.w3.org/2000/svg" xmlns:xlink="http://www.w3.org/1999/xlink" width="57pt" height="68pt" viewBox="0 0 57 68" version="1.1">
<g id="surface1">
<path style=" stroke:none;fill-rule:nonzero;fill:rgb(92.156863%,47.058824%,63.529412%);fill-opacity:1;" d="M 51 52.601562 L 33.300781 62.800781 C 30.300781 64.5 26.601562 64.5 23.699219 62.800781 L 6 52.601562 C 3 50.898438 1.199219 47.699219 1.199219 44.199219 L 1.199219 23.800781 C 1.199219 20.398438 3 17.199219 6 15.398438 L 23.699219 5.199219 C 26.699219 3.5 30.398438 3.5 33.300781 5.199219 L 51 15.398438 C 54 17.101562 55.800781 20.300781 55.800781 23.800781 L 55.800781 44.199219 C 55.800781 47.699219 54 50.800781 51 52.601562 Z M 51 52.601562 "/>
<path style=" stroke:none;fill-rule:nonzero;fill:rgb(100%,67.45098%,0%);fill-opacity:1;" d="M 13 56.601562 C 13.699219 51.601562 15.398438 47.300781 17.898438 42.199219 C 17.199219 41.5 16.601562 40.699219 16.101562 39.800781 C 15.601562 41.300781 14.699219 43.5 13.300781 45.898438 C 12.101562 47.898438 10.101562 51.101562 9 54.199219 Z M 13 56.601562 "/>
<path style=" stroke:none;fill-rule:nonzero;fill:rgb(100%,80.392157%,21.960784%);fill-opacity:1;" d="M 48 54.300781 C 46.898438 51.199219 44.898438 48 43.699219 46 C 42.300781 43.601562 41.398438 41.398438 40.898438 39.898438 C 40.398438 40.800781 39.800781 41.601562 39.101562 42.300781 C 41.601562 47.398438 43.300781 51.699219 44 56.699219 Z M 48 54.300781 "/>
<path style=" stroke:none;fill-rule:nonzero;fill:rgb(98.823529%,85.098039%,50.588235%);fill-opacity:1;" d="M 23.699219 62.800781 C 23.800781 62.800781 23.898438 62.898438 23.898438 62.898438 C 23.898438 62.800781 24 62.699219 24 62.699219 C 24.601562 60.699219 26.398438 59.199219 28.5 59.199219 C 30.601562 59.199219 32.5 60.601562 33 62.699219 C 33 62.800781 33 62.800781 33.101562 62.898438 C 33.199219 62.898438 33.300781 62.800781 33.300781 62.800781 L 44.5 56.300781 C 43.699219 51.5 42.101562 47.300781 39.601562 42.398438 C 33.398438 49.101562 23.5 49 17.398438 42.398438 C 14.898438 47.300781 13.300781 51.5 12.5 56.300781 Z M 23.699219 62.800781 "/>
<path style=" stroke:none;fill-rule:nonzero;fill:rgb(100%,80.392157%,21.960784%);fill-opacity:1;" d="M 23.699219 62.800781 C 23.800781 62.800781 23.898438 62.898438 23.898438 62.898438 C 23.898438 62.800781 24 62.699219 24 62.699219 C 24.5 60.800781 26.101562 59.5 28 59.300781 C 24.800781 58.101562 24 53.5 26.5 51 L 26.5 47.300781 C 23 46.800781 19.800781 45 17.398438 42.5 C 14.898438 47.398438 13.300781 51.601562 12.5 56.398438 Z M 23.699219 62.800781 "/>
<path style=" stroke:none;fill-rule:nonzero;fill:rgb(97.647059%,35.294118%,59.215686%);fill-opacity:1;" d="M 19.398438 44.300781 C 20.300781 48.300781 24 51.398438 28.5 51.398438 C 33 51.398438 36.699219 48.398438 37.601562 44.300781 C 32.199219 48.5 24.800781 48.5 19.398438 44.300781 Z M 19.398438 44.300781 "/>
<path style=" stroke:none;fill-rule:nonzero;fill:rgb(86.666667%,21.568627%,48.235294%);fill-opacity:1;" d="M 30.5 48.199219 L 30.5 47.199219 C 26.699219 47.699219 22.699219 46.699219 19.398438 44.199219 C 20.300781 48.199219 24 51.300781 28.5 51.300781 C 29.5 51.300781 30.398438 51.199219 31.300781 50.898438 C 29.898438 50.800781 29.398438 49.101562 30.5 48.199219 Z M 30.5 48.199219 "/>
<path style=" stroke:none;fill-rule:nonzero;fill:rgb(97.647059%,43.921569%,70.980392%);fill-opacity:1;" d="M 28.5 53.601562 C 28 53.601562 27.601562 53.199219 27.601562 52.699219 L 27.601562 50.398438 C 27.601562 49.898438 28 49.5 28.5 49.5 C 29 49.5 29.398438 49.898438 29.398438 50.398438 L 29.398438 52.699219 C 29.398438 53.199219 29 53.601562 28.5 53.601562 Z M 28.5 53.601562 "/>
<path style=" stroke:none;fill-rule:nonzero;fill:rgb(98.823529%,85.098039%,50.588235%);fill-opacity:1;" d="M 44.300781 30.5 C 44.300781 21 37.199219 13.398438 28.5 13.398438 C 19.800781 13.398438 12.699219 21.101562 12.699219 30.5 C 12.699219 40 19.800781 47.601562 28.5 47.601562 C 37.199219 47.601562 44.300781 40 44.300781 30.5 Z M 44.300781 30.5 "/>
<path style=" stroke:none;fill-rule:nonzero;fill:rgb(100%,80.392157%,21.960784%);fill-opacity:1;" d="M 22.601562 26.699219 C 22.601562 21.300781 24.898438 16.601562 28.398438 13.398438 C 19.800781 13.5 12.800781 21.101562 12.800781 30.5 C 12.800781 44.300781 27.101562 52.300781 37.398438 44.699219 C 29.101562 44.101562 22.601562 35.800781 22.601562 26.699219 Z M 22.601562 26.699219 "/>
<path style=" stroke:none;fill-rule:nonzero;fill:rgb(100%,80.392157%,21.960784%);fill-opacity:1;" d="M 17.800781 19.898438 C 16.398438 22.699219 14.699219 27.5 14.800781 33.601562 C 14.800781 36.601562 12.398438 38.898438 9.398438 38.800781 C 6.398438 38.601562 4.199219 35.898438 4.699219 33 C 5.398438 27.898438 7.898438 20.800781 16 18 C 17.199219 17.601562 18.300781 18.800781 17.800781 19.898438 Z M 17.800781 19.898438 "/>
<path style=" stroke:none;fill-rule:nonzero;fill:rgb(100%,80.392157%,21.960784%);fill-opacity:1;" d="M 39.199219 19.898438 C 40.601562 22.699219 42.300781 27.5 42.199219 33.601562 C 42.199219 36.601562 44.601562 38.898438 47.601562 38.800781 C 50.601562 38.601562 52.800781 35.898438 52.300781 33 C 51.601562 27.898438 49 20.800781 40.898438 18 C 39.800781 17.601562 38.699219 18.800781 39.199219 19.898438 Z M 39.199219 19.898438 "/>
<path style=" stroke:none;fill-rule:nonzero;fill:rgb(98.823529%,92.54902%,80.392157%);fill-opacity:1;" d="M 39.398438 39.5 C 39.398438 34.601562 34.5 30.5 28.5 30.5 C 22.5 30.5 17.601562 34.5 17.601562 39.5 C 17.601562 44.5 22.5 48.5 28.5 48.5 C 34.5 48.5 39.398438 44.398438 39.398438 39.5 Z M 39.398438 39.5 "/>
<path style=" stroke:none;fill-rule:nonzero;fill:rgb(98.823529%,85.098039%,50.588235%);fill-opacity:1;" d="M 32.5 46.5 C 24 46.5 18.898438 38.101562 23.199219 31.699219 C 19.898438 33.199219 17.601562 36.199219 17.601562 39.5 C 17.601562 47.398438 29.101562 51.398438 35.898438 46 C 34.898438 46.300781 33.699219 46.5 32.5 46.5 Z M 32.5 46.5 "/>
<path style=" stroke:none;fill-rule:nonzero;fill:rgb(34.509804%,43.921569%,63.137255%);fill-opacity:1;" d="M 23.800781 29 C 23.199219 28 22 27.699219 21 28.300781 C 20 28.898438 19.699219 30.101562 20.300781 31.101562 C 20.898438 32.101562 22.101562 32.398438 23.101562 31.800781 C 24 31.199219 24.300781 30 23.800781 29 Z M 23.800781 29 "/>
<path style=" stroke:none;fill-rule:nonzero;fill:rgb(10.196078%,16.862745%,38.823529%);fill-opacity:1;" d="M 22 30 C 21.601562 29.398438 21.699219 28.601562 22 28 C 21.699219 28 21.300781 28.101562 21 28.300781 C 20 28.898438 19.699219 30.101562 20.300781 31.101562 C 20.898438 32.101562 22.101562 32.398438 23.101562 31.800781 C 23.398438 31.601562 23.699219 31.398438 23.800781 31.101562 C 23.101562 31 22.398438 30.699219 22 30 Z M 22 30 "/>
<path style=" stroke:none;fill-rule:nonzero;fill:rgb(100%,67.45098%,0%);fill-opacity:1;" d="M 25.398438 41.300781 C 25.199219 40.898438 25.300781 40.398438 25.800781 40.101562 L 27.699219 39.101562 L 27.699219 37.5 C 27.699219 37 28.101562 36.601562 28.601562 36.601562 C 29.101562 36.601562 29.5 37 29.5 37.5 L 29.5 39.601562 C 29.5 39.898438 29.300781 40.199219 29 40.398438 L 26.601562 41.699219 C 26.101562 41.898438 25.601562 41.699219 25.398438 41.300781 Z M 25.398438 41.300781 "/>
<path style=" stroke:none;fill-rule:nonzero;fill:rgb(100%,80.392157%,21.960784%);fill-opacity:1;" d="M 30.5 41.699219 L 28.101562 40.398438 C 27.800781 40.300781 27.601562 40 27.601562 39.601562 L 27.601562 37.398438 C 27.601562 36.898438 28 36.5 28.5 36.5 C 29 36.5 29.398438 36.898438 29.398438 37.398438 L 29.398438 39 L 31.300781 40 C 31.699219 40.199219 31.898438 40.699219 31.699219 41.199219 C 31.398438 41.699219 30.898438 41.898438 30.5 41.699219 Z M 30.5 41.699219 "/>
<path style=" stroke:none;fill-rule:nonzero;fill:rgb(100%,67.45098%,0%);fill-opacity:1;" d="M 52.398438 33 C 52.101562 30.800781 51.398438 28.199219 50.101562 25.699219 C 50.800781 28.5 48.699219 31.199219 45.800781 31.199219 C 44.199219 31.199219 42.800781 30.398438 42 29.101562 C 42.199219 30.5 42.300781 32.101562 42.300781 33.699219 C 42.300781 36.699219 44.699219 39 47.699219 38.898438 C 50.601562 38.699219 52.800781 36 52.398438 33 Z M 52.398438 33 "/>
<path style=" stroke:none;fill-rule:nonzero;fill:rgb(100%,67.45098%,0%);fill-opacity:1;" d="M 15 29.101562 C 14.199219 30.398438 12.800781 31.199219 11.199219 31.199219 C 8.300781 31.199219 6.199219 28.5 6.898438 25.699219 C 5.601562 28.199219 4.898438 30.800781 4.601562 33 C 4.199219 36 6.398438 38.601562 9.300781 38.800781 C 12.199219 39 14.699219 36.601562 14.699219 33.601562 C 14.699219 32 14.800781 30.5 15 29.101562 Z M 15 29.101562 "/>
<path style=" stroke:none;fill-rule:nonzero;fill:rgb(34.509804%,43.921569%,63.137255%);fill-opacity:1;" d="M 36.800781 29 C 36.199219 28 35 27.699219 34 28.300781 C 33 28.898438 32.699219 30.101562 33.300781 31.101562 C 33.898438 32.101562 35.101562 32.398438 36.101562 31.800781 C 37 31.199219 37.300781 30 36.800781 29 Z M 36.800781 29 "/>
<path style=" stroke:none;fill-rule:nonzero;fill:rgb(10.196078%,16.862745%,38.823529%);fill-opacity:1;" d="M 35 30 C 34.601562 29.398438 34.699219 28.601562 35 28 C 34.699219 28 34.300781 28.101562 34 28.300781 C 33 28.898438 32.699219 30.101562 33.300781 31.101562 C 33.898438 32.101562 35.101562 32.398438 36.101562 31.800781 C 36.398438 31.601562 36.699219 31.398438 36.800781 31.101562 C 36.101562 31 35.398438 30.699219 35 30 Z M 35 30 "/>
<path style=" stroke:none;fill-rule:nonzero;fill:rgb(100%,67.45098%,0%);fill-opacity:1;" d="M 28.601562 40.199219 C 28.601562 39.699219 29 39.199219 29.601562 39.199219 L 29.398438 39.101562 L 29.398438 37.5 C 29.398438 37 29 36.601562 28.5 36.601562 C 28 36.601562 27.601562 37 27.601562 37.5 L 27.601562 39.699219 C 27.601562 40 27.800781 40.300781 28.101562 40.5 L 28.800781 40.898438 C 28.699219 40.601562 28.601562 40.398438 28.601562 40.199219 Z M 28.601562 40.199219 "/>
<path style=" stroke:none;fill-rule:nonzero;fill:rgb(34.509804%,43.921569%,63.137255%);fill-opacity:1;" d="M 31.898438 35.5 C 31.898438 34.398438 30.398438 33.5 28.5 33.5 C 26.601562 33.5 25.101562 34.398438 25.101562 35.5 C 25.101562 36.601562 26.601562 37.5 28.5 37.5 C 30.398438 37.5 31.898438 36.601562 31.898438 35.5 Z M 31.898438 35.5 "/>
<path style=" stroke:none;fill-rule:nonzero;fill:rgb(10.196078%,16.862745%,38.823529%);fill-opacity:1;" d="M 29.601562 33.601562 C 29.199219 33.5 28.898438 33.5 28.5 33.5 C 26.601562 33.5 25.101562 34.398438 25.101562 35.5 C 25.101562 36.601562 26.601562 37.5 28.5 37.5 C 28.898438 37.5 29.300781 37.5 29.601562 37.398438 C 28.101562 36.800781 28.101562 34.199219 29.601562 33.601562 Z M 29.601562 33.601562 "/>
</g>
</svg>
