<?xml version="1.0" encoding="UTF-8"?>
<svg xmlns="http://www.w3.org/2000/svg" xmlns:xlink="http://www.w3.org/1999/xlink" width="57pt" height="68pt" viewBox="0 0 57 68" version="1.1">
<g id="surface1">
<path style=" stroke:none;fill-rule:nonzero;fill:rgb(23.921569%,70.196078%,61.960784%);fill-opacity:1;" d="M 51 52.601562 L 33.300781 62.800781 C 30.300781 64.5 26.601562 64.5 23.699219 62.800781 L 6 52.601562 C 3 50.898438 1.199219 47.699219 1.199219 44.199219 L 1.199219 23.800781 C 1.199219 20.398438 3 17.199219 6 15.398438 L 23.699219 5.199219 C 26.699219 3.5 30.398438 3.5 33.300781 5.199219 L 51 15.398438 C 54 17.101562 55.800781 20.300781 55.800781 23.800781 L 55.800781 44.199219 C 55.800781 47.699219 54 50.800781 51 52.601562 Z M 51 52.601562 "/>
<path style=" stroke:none;fill-rule:nonzero;fill:rgb(100%,39.215686%,10.196078%);fill-opacity:1;" d="M 35.5 4 C 32.601562 4 30 5.398438 28.5 7.601562 C 27.398438 9 26.699219 10.898438 26.699219 12.800781 L 26.699219 14.601562 L 42.5 14.601562 C 47.398438 14.601562 51.300781 10.699219 51.300781 5.800781 L 51.300781 4 Z M 35.5 4 "/>
<path style=" stroke:none;fill-rule:nonzero;fill:rgb(94.117647%,21.960784%,0%);fill-opacity:1;" d="M 51.398438 4 L 51.398438 5.800781 C 51.398438 10.699219 47.5 14.601562 42.601562 14.601562 L 28.5 14.601562 L 28.5 7.601562 C 30.101562 5.5 32.699219 4 35.5 4 Z M 51.398438 4 "/>
<path style=" stroke:none;fill-rule:nonzero;fill:rgb(82.745098%,95.294118%,76.078431%);fill-opacity:1;" d="M 47.898438 30.5 L 47.898438 39.300781 L 9.101562 39.300781 L 9.101562 30.5 C 9.101562 19.800781 17.800781 11 28.5 11 C 39.199219 11 47.898438 19.898438 47.898438 30.5 Z M 47.898438 30.5 "/>
<path style=" stroke:none;fill-rule:nonzero;fill:rgb(70.196078%,87.45098%,70.196078%);fill-opacity:1;" d="M 47.898438 30.5 L 47.898438 39.300781 L 28.5 39.300781 L 28.5 11.101562 C 39.199219 11.101562 47.898438 19.898438 47.898438 30.5 Z M 47.898438 30.5 "/>
<path style=" stroke:none;fill-rule:nonzero;fill:rgb(44.705882%,36.470588%,34.117647%);fill-opacity:1;" d="M 26.699219 18.199219 L 30.199219 18.199219 L 30.199219 23.5 L 26.699219 23.5 Z M 26.699219 18.199219 "/>
<path style=" stroke:none;fill-rule:nonzero;fill:rgb(32.54902%,26.27451%,24.705882%);fill-opacity:1;" d="M 28.5 18.199219 L 30.300781 18.199219 L 30.300781 23.5 L 28.5 23.5 Z M 28.5 18.199219 "/>
<path style=" stroke:none;fill-rule:nonzero;fill:rgb(82.745098%,95.294118%,76.078431%);fill-opacity:1;" d="M 23.699219 62.800781 C 26.699219 64.5 30.398438 64.5 33.300781 62.800781 L 47.800781 54.398438 L 47.800781 42.800781 L 9.101562 42.800781 L 9.101562 54.300781 Z M 23.699219 62.800781 "/>
<path style=" stroke:none;fill-rule:nonzero;fill:rgb(70.196078%,87.45098%,70.196078%);fill-opacity:1;" d="M 33.300781 62.800781 L 47.800781 54.398438 L 47.800781 42.800781 L 28.5 42.800781 L 28.5 64 C 30.199219 64.101562 31.800781 63.601562 33.300781 62.800781 Z M 33.300781 62.800781 "/>
<path style=" stroke:none;fill-rule:nonzero;fill:rgb(93.72549%,100%,80%);fill-opacity:1;" d="M 28.5 21.5 L 5.601562 33 L 5.601562 42.199219 L 28.5 53.601562 L 51.398438 42.199219 L 51.398438 33 Z M 28.5 21.5 "/>
<path style=" stroke:none;fill-rule:nonzero;fill:rgb(82.745098%,95.294118%,76.078431%);fill-opacity:1;" d="M 51.398438 33 L 51.398438 42.199219 L 28.5 53.601562 L 28.5 21.5 Z M 51.398438 33 "/>
<path style=" stroke:none;fill-rule:nonzero;fill:rgb(44.705882%,36.470588%,34.117647%);fill-opacity:1;" d="M 26.699219 28.800781 L 30.199219 28.800781 L 30.199219 46.398438 L 26.699219 46.398438 Z M 26.699219 28.800781 "/>
<path style=" stroke:none;fill-rule:nonzero;fill:rgb(32.54902%,26.27451%,24.705882%);fill-opacity:1;" d="M 33.800781 32.300781 L 37.300781 32.300781 L 37.300781 42.898438 L 33.800781 42.898438 Z M 33.800781 32.300781 "/>
<path style=" stroke:none;fill-rule:nonzero;fill:rgb(32.54902%,26.27451%,24.705882%);fill-opacity:1;" d="M 40.800781 35.800781 L 44.300781 35.800781 L 44.300781 39.300781 L 40.800781 39.300781 Z M 40.800781 35.800781 "/>
<path style=" stroke:none;fill-rule:nonzero;fill:rgb(44.705882%,36.470588%,34.117647%);fill-opacity:1;" d="M 19.699219 32.300781 L 23.199219 32.300781 L 23.199219 42.898438 L 19.699219 42.898438 Z M 19.699219 32.300781 "/>
<path style=" stroke:none;fill-rule:nonzero;fill:rgb(44.705882%,36.470588%,34.117647%);fill-opacity:1;" d="M 12.699219 35.800781 L 16.199219 35.800781 L 16.199219 39.300781 L 12.699219 39.300781 Z M 12.699219 35.800781 "/>
<path style=" stroke:none;fill-rule:nonzero;fill:rgb(32.54902%,26.27451%,24.705882%);fill-opacity:1;" d="M 28.5 28.800781 L 30.300781 28.800781 L 30.300781 46.398438 L 28.5 46.398438 Z M 28.5 28.800781 "/>
</g>
</svg>
