<?xml version="1.0" encoding="UTF-8"?>
<svg xmlns="http://www.w3.org/2000/svg" xmlns:xlink="http://www.w3.org/1999/xlink" width="57pt" height="68pt" viewBox="0 0 57 68" version="1.1">
<g id="surface1">
<path style=" stroke:none;fill-rule:nonzero;fill:rgb(98.039216%,82.352941%,30.196078%);fill-opacity:1;" d="M 51 52.601562 L 33.300781 62.800781 C 30.300781 64.5 26.601562 64.5 23.699219 62.800781 L 6 52.601562 C 3 50.898438 1.199219 47.699219 1.199219 44.199219 L 1.199219 23.800781 C 1.199219 20.398438 3 17.199219 6 15.398438 L 23.699219 5.199219 C 26.699219 3.5 30.398438 3.5 33.300781 5.199219 L 51 15.398438 C 54 17.101562 55.800781 20.300781 55.800781 23.800781 L 55.800781 44.199219 C 55.800781 47.699219 54 50.800781 51 52.601562 Z M 51 52.601562 "/>
<path style=" stroke:none;fill-rule:nonzero;fill:rgb(100%,35.686275%,38.431373%);fill-opacity:1;" d="M 22.800781 11.699219 C 22.5 14.101562 22.101562 20.5 25.601562 25.300781 C 26.898438 27.101562 28.300781 27.199219 28.800781 27.898438 C 35.601562 39.101562 23.601562 42.898438 22.898438 40.5 C 21.601562 36.199219 12.398438 33.300781 5.398438 40.601562 C -1.601562 47.898438 3.300781 55.300781 3.300781 55.300781 L 9 51.398438 C 9 51.398438 5.699219 45.898438 10.800781 43.199219 C 15.898438 40.5 17.199219 42.398438 16.601562 44.699219 C 16.101562 46.898438 16 54.199219 23.800781 55.398438 C 50.699219 59.199219 58 17.800781 40.199219 17.699219 C 35.300781 17.699219 31.699219 22 31.300781 22 C 29.398438 21.800781 27.699219 14.199219 28.800781 12 C 29.398438 10.800781 24.101562 9.699219 22.800781 11.699219 Z M 22.800781 11.699219 "/>
<path style=" stroke:none;fill-rule:nonzero;fill:rgb(92.941176%,29.803922%,32.941176%);fill-opacity:1;" d="M 7.101562 54.898438 C 5.5 55.898438 3.699219 55.898438 3.101562 54.898438 C 2.5 53.898438 3.398438 52.398438 5 51.398438 C 6.601562 50.398438 8.398438 50.398438 9 51.398438 C 9.601562 52.398438 8.699219 54 7.101562 54.898438 Z M 7.101562 54.898438 "/>
<path style=" stroke:none;fill-rule:nonzero;fill:rgb(100%,52.941176%,55.686275%);fill-opacity:1;" d="M 9.5 37.398438 C 8.101562 38.101562 6.699219 39.101562 5.398438 40.5 C -1.601562 47.800781 3.300781 55.199219 3.300781 55.199219 L 3.5 55 L 3.199219 53.199219 C 3.199219 53.199219 2 51.199219 2.300781 47.699219 C 2.5 44.398438 6.398438 39.398438 9.5 37.398438 Z M 9.5 37.398438 "/>
<path style=" stroke:none;fill-rule:nonzero;fill:rgb(92.941176%,29.803922%,32.941176%);fill-opacity:1;" d="M 3.601562 55.398438 C 3.398438 55.300781 3.199219 55.101562 3.101562 54.898438 C 2.800781 54.398438 2.898438 53.800781 3.300781 53.101562 Z M 3.601562 55.398438 "/>
<path style=" stroke:none;fill-rule:nonzero;fill:rgb(100%,52.941176%,55.686275%);fill-opacity:1;" d="M 27.601562 42.5 C 25.300781 43.601562 22.800781 43.601562 21.5 42.300781 C 21.5 42.300781 19 40.800781 18.300781 41 C 18.199219 41 18.101562 41.101562 18 41.101562 C 18.101562 41.199219 18.101562 41.199219 18.199219 41.300781 C 19 42.398438 19.101562 43.898438 18.800781 45.199219 C 18.5 46.5 18.699219 48.398438 19.199219 49.601562 C 20.101562 51.800781 21.898438 52.800781 24.199219 53.101562 C 33.800781 54.5 41.398438 49.300781 45.398438 40.699219 C 37.5 44 33.101562 39.5 27.601562 42.5 Z M 27.601562 42.5 "/>
<path style=" stroke:none;fill-rule:nonzero;fill:rgb(92.941176%,29.803922%,32.941176%);fill-opacity:1;" d="M 17.398438 50.398438 C 18 52 19.101562 53.601562 21.101562 54.601562 C 21.898438 55 22.800781 55.199219 23.898438 55.398438 C 47.300781 58.699219 55.800781 27.601562 45.800781 19.601562 C 48.101562 22.199219 50.800781 32.800781 46.398438 41.300781 C 41.800781 50.199219 35.898438 54 29.398438 54.699219 C 23 55.300781 18.699219 53.800781 17.398438 50.398438 Z M 17.398438 50.398438 "/>
<path style=" stroke:none;fill-rule:nonzero;fill:rgb(100%,52.941176%,55.686275%);fill-opacity:1;" d="M 22.898438 11.5 C 22.101562 22.5 26.300781 25.199219 24.699219 22.5 C 23.101562 19.800781 23.101562 13.601562 23.5 11.101562 C 23.300781 11.199219 23.101562 11.300781 22.898438 11.5 Z M 22.898438 11.5 "/>
<path style=" stroke:none;fill-rule:nonzero;fill:rgb(100%,52.941176%,55.686275%);fill-opacity:1;" d="M 40.800781 17.898438 C 48.101562 17.800781 48.199219 27.601562 47.800781 32.199219 C 47.800781 18 41.601562 18.5 40.800781 17.898438 Z M 40.800781 17.898438 "/>
<path style=" stroke:none;fill-rule:nonzero;fill:rgb(92.941176%,29.803922%,32.941176%);fill-opacity:1;" d="M 28.398438 11.199219 C 27.699219 14.5 28.398438 21.101562 30.898438 23.300781 C 30.898438 23.300781 31.101562 22.398438 32.101562 21.398438 C 31.699219 21.699219 31.398438 22 31.398438 22 C 29.5 21.800781 27.800781 14.199219 28.898438 12 C 29 11.699219 28.800781 11.398438 28.398438 11.199219 Z M 28.398438 11.199219 "/>
<path style=" stroke:none;fill-rule:nonzero;fill:rgb(92.941176%,29.803922%,32.941176%);fill-opacity:1;" d="M 16.800781 44 C 18.398438 38.898438 5.898438 42.199219 8.101562 48.898438 C 7.800781 47 8 44.699219 10.800781 43.199219 C 15.300781 40.898438 16.800781 42.101562 16.800781 44 Z M 16.800781 44 "/>
</g>
</svg>
