<?xml version="1.0" encoding="utf-8"?>
<!-- Generator: Adobe Illustrator 16.0.0, SVG Export Plug-In . SVG Version: 6.00 Build 0)  -->
<!DOCTYPE svg PUBLIC "-//W3C//DTD SVG 1.1//EN" "http://www.w3.org/Graphics/SVG/1.1/DTD/svg11.dtd">
<svg version="1.1" id="Layer_1" xmlns="http://www.w3.org/2000/svg" xmlns:xlink="http://www.w3.org/1999/xlink" x="0px" y="0px"
	 width="57px" height="68px" viewBox="0 0 57 68" enable-background="new 0 0 57 68" xml:space="preserve">
<g>
	<path fill="#FAD24D" d="M51.149,52.829L33.351,63.188c-3.002,1.748-6.701,1.748-9.703,0L5.849,52.829
		C2.849,51.082,1,47.853,1,44.358V23.64c0-3.495,1.849-6.723,4.849-8.47L23.647,4.81c3.002-1.747,6.701-1.747,9.703,0l17.799,10.359
		C54.151,16.917,56,20.145,56,23.64v20.719C56,47.853,54.151,51.082,51.149,52.829z"/>
	<g>
		<path fill="#FF5B62" d="M22.773,11.371c-0.293,2.405-0.711,8.942,2.809,13.775c1.301,1.784,2.682,1.896,3.224,2.595
			c6.812,11.323-5.212,15.188-5.947,12.75c-1.318-4.368-10.587-7.291-17.593,0.076c-7.006,7.367-2.163,14.874-2.163,14.874
			l5.803-3.752c0,0-3.3-5.619,1.802-8.322c5.102-2.702,6.398-0.785,5.88,1.483c-0.519,2.267-0.576,9.681,7.267,10.81
			c26.93,3.879,34.288-38.094,16.449-38.207c-4.901-0.032-8.562,4.377-8.915,4.334c-1.957-0.239-3.64-7.919-2.519-10.175
			C29.427,10.493,24.07,9.367,22.773,11.371L22.773,11.371z"/>
		<path fill="#ED4C54" d="M6.958,55.227c-1.646,0.978-3.441,0.979-4.01,0.004c-0.57-0.976,0.304-2.557,1.949-3.534
			c1.646-0.977,3.442-0.979,4.01-0.004C9.477,52.667,8.605,54.249,6.958,55.227z"/>
		<path fill="#FF878E" d="M9.367,37.457c-1.401,0.715-2.79,1.734-4.1,3.111c-7.006,7.367-2.163,14.874-2.163,14.874l0.29-0.188
			l-0.29-1.808c0,0-1.199-1.987-0.948-5.544C2.394,44.531,6.246,39.518,9.367,37.457z"/>
		<path fill="#ED4C54" d="M3.469,55.723c-0.221-0.121-0.399-0.285-0.521-0.494c-0.288-0.492-0.208-1.138,0.153-1.783L3.469,55.723z"
			/>
		<path fill="#FF878E" d="M27.636,42.622c-2.346,1.089-4.843,1.072-6.146-0.221l0,0c0,0-2.497-1.474-3.257-1.331
			c-0.071,0.014-0.163,0.057-0.273,0.124c0.053,0.062,0.103,0.127,0.153,0.193c0.847,1.146,0.941,2.611,0.633,3.963
			c-0.309,1.349-0.106,3.234,0.396,4.506c0.886,2.243,2.719,3.265,5.025,3.597c9.705,1.396,17.336-3.804,21.282-12.549
			C37.582,44.122,33.172,39.591,27.636,42.622L27.636,42.622z"/>
		<path fill="#ED4C54" d="M17.332,50.603c0.599,1.65,1.723,3.25,3.723,4.267c0.798,0.361,1.725,0.636,2.802,0.791
			c23.534,3.39,32.119-28.232,22.007-36.341c2.296,2.611,5.001,13.388,0.624,22.011c-4.595,9.051-10.552,12.875-17.064,13.555
			C22.927,55.564,18.606,54.063,17.332,50.603L17.332,50.603z"/>
		<g>
			<path fill="#FF878E" d="M22.907,11.193c-0.797,11.143,3.458,13.864,1.815,11.126c-1.621-2.703-1.582-9.008-1.226-11.594
				C23.267,10.851,23.066,11.004,22.907,11.193z"/>
			<path fill="#FF878E" d="M40.865,17.718c7.391-0.08,7.434,9.802,7.047,14.464C47.896,17.783,41.658,18.268,40.865,17.718z"/>
		</g>
		<g>
			<path fill="#ED4C54" d="M28.396,10.854c-0.664,3.393-0.043,10.006,2.541,12.25c0,0,0.154-0.888,1.196-1.884
				c-0.405,0.352-0.66,0.576-0.743,0.566c-1.957-0.238-3.64-7.918-2.519-10.174C29.003,11.345,28.801,11.079,28.396,10.854z"/>
			<path fill="#ED4C54" d="M16.693,44.098L16.693,44.098c1.597-5.188-10.957-1.83-8.725,4.96L7.97,49.06
				c-0.332-1.831-0.071-4.205,2.739-5.692C15.233,40.972,16.766,42.207,16.693,44.098z"/>
		</g>
	</g>
</g>
</svg>
