<?xml version="1.0" encoding="utf-8"?>
<!-- Generator: Adobe Illustrator 22.1.0, SVG Export Plug-In . SVG Version: 6.00 Build 0)  -->
<svg version="1.1" id="Capa_1" xmlns="http://www.w3.org/2000/svg" xmlns:xlink="http://www.w3.org/1999/xlink" x="0px" y="0px"
	 viewBox="0 0 57 68" style="enable-background:new 0 0 57 68;" xml:space="preserve">
<style type="text/css">
	.st0{fill:#FECF32;}
	.st1{fill:#E5B01A;}
	.st2{fill:#596C76;}
	.st3{fill:#465A61;}
	.st4{fill:#BF6015;}
	.st5{fill:#994C0F;}
	.st6{fill:#E08344;}
	.st7{fill:#D6702B;}
	.st8{fill:#53433F;}
	.st9{fill:#3E322E;}
	.st10{fill:#FF9100;}
	.st11{fill:#FF641A;}
	.st12{fill:#725D57;}
	.st13{fill:#EF3A47;}
</style>
<g>
	<path class="st0" d="M51,52.6L33.3,62.8c-3,1.7-6.7,1.7-9.6,0L6,52.6c-3-1.7-4.8-4.9-4.8-8.4V23.8c0-3.4,1.8-6.6,4.8-8.4L23.7,5.2
		c3-1.7,6.7-1.7,9.6,0L51,15.4c3,1.7,4.8,4.9,4.8,8.4v20.4C55.8,47.7,54,50.8,51,52.6z"/>
	<g>
		<g>
			<path class="st1" d="M16.9,28.3c-0.3,0-0.6-0.3-0.6-0.6v-0.2c0-0.9-0.8-1.7-1.7-1.7c-0.3,0-0.6-0.3-0.6-0.6
				c0-0.3,0.3-0.6,0.6-0.6c1.6,0,2.8,1.3,2.8,2.9v0.2C17.5,28,17.2,28.3,16.9,28.3z"/>
			<path class="st1" d="M19.1,28.3c-0.3,0-0.6-0.3-0.6-0.6v-0.2c0-1.6,1.3-2.9,2.8-2.9c0.3,0,0.6,0.3,0.6,0.6c0,0.3-0.3,0.6-0.6,0.6
				c-0.9,0-1.7,0.8-1.7,1.7v0.2C19.7,28,19.5,28.3,19.1,28.3z"/>
			<path class="st1" d="M20.8,29.8c0,0.3,0,0.5-0.1,0.8h-5.4c-0.1-0.2-0.1-0.5-0.1-0.8c0-1.6,1.3-2.8,2.8-2.8S20.8,28.3,20.8,29.8z"
				/>
			<path class="st1" d="M20.8,29.8c0,0.3,0,0.5-0.1,0.8H18V27C19.6,27,20.8,28.3,20.8,29.8z"/>
			<g>
				<path class="st1" d="M10.7,42.5l-1.1-2.3c-0.1-0.1-0.1-0.3,0-0.4c0.1-0.1,0.2-0.3,0.3-0.3l2.7-1.1c0.3-0.1,0.6,0,0.7,0.3
					c0.1,0.3,0,0.6-0.3,0.7l-2.2,0.9l0.9,1.7c0.1,0.3,0,0.6-0.3,0.8C11.2,42.9,10.9,42.8,10.7,42.5L10.7,42.5z"/>
				<path class="st1" d="M8.7,37.1c-0.3-0.1-0.4-0.5-0.3-0.8l1.2-2.3c0.1-0.3,0.5-0.4,0.8-0.3l2.3,1.1c0.3,0.1,0.4,0.5,0.3,0.8
					c-0.1,0.3-0.5,0.4-0.8,0.3l-1.8-0.9l-0.9,1.8C9.4,37.1,9,37.2,8.7,37.1L8.7,37.1z"/>
				<path class="st1" d="M13.8,32.6L11,31.5c-0.2-0.1-0.4-0.3-0.4-0.5v-2.3c0-0.3,0.3-0.6,0.6-0.6s0.6,0.3,0.6,0.6v1.9l2.4,1
					c0.3,0.1,0.4,0.4,0.3,0.7C14.4,32.6,14.1,32.7,13.8,32.6z"/>
			</g>
			<path class="st1" d="M24.5,42.7c-0.3-0.1-0.4-0.5-0.3-0.8l0.9-1.7L23,39.4c-0.3-0.1-0.4-0.4-0.3-0.7s0.5-0.4,0.7-0.3l2.7,1.1
				c0.1,0.1,0.3,0.2,0.3,0.3c0.1,0.1,0,0.3,0,0.4l-1.1,2.3C25.2,42.8,24.8,42.9,24.5,42.7L24.5,42.7z"/>
			<path class="st1" d="M26.6,36.8l-0.9-1.8L23.9,36c-0.3,0.1-0.6,0-0.8-0.3c-0.1-0.3,0-0.6,0.3-0.8l2.3-1.1c0.3-0.1,0.6,0,0.8,0.3
				l1.2,2.3c0.1,0.3,0,0.6-0.3,0.8C27.1,37.2,26.7,37.1,26.6,36.8L26.6,36.8z"/>
			<path class="st1" d="M21.5,32.3c-0.1-0.3,0-0.6,0.3-0.7l2.4-1v-1.9c0-0.3,0.3-0.6,0.6-0.6s0.6,0.3,0.6,0.6v2.3
				c0,0.2-0.1,0.4-0.4,0.5l-2.8,1.1C22,32.7,21.6,32.6,21.5,32.3L21.5,32.3z"/>
			<path class="st1" d="M16.9,44c-0.3,0-0.6-0.3-0.6-0.6v-1.1c0-0.3,0.3-0.6,0.6-0.6s0.6,0.3,0.6,0.6v1.1C17.5,43.7,17.2,44,16.9,44
				z"/>
			<path class="st1" d="M19.1,44c-0.3,0-0.6-0.3-0.6-0.6v-1.1c0-0.3,0.3-0.6,0.6-0.6c0.3,0,0.6,0.3,0.6,0.6v1.1
				C19.7,43.7,19.5,44,19.1,44z"/>
			<path class="st1" d="M18,32.6h2.8l1.5-1.1c-1.1-1.3-2.6-2.3-4.3-2.3s-3.2,0.9-4.3,2.3l1.5,1.1H18z"/>
			<path class="st1" d="M22.3,31.5c-1.1-1.3-2.6-2.3-4.3-2.3v3.4h2.8L22.3,31.5z"/>
			<path class="st1" d="M18,34.9h4l1.7-1.1c-0.3-0.8-0.8-1.6-1.3-2.3H18h-4.3c-0.6,0.7-1,1.4-1.3,2.3l1.3,1.1H18z"/>
			<path class="st1" d="M23.6,33.8c-0.3-0.8-0.8-1.6-1.3-2.3H18v3.4h4L23.6,33.8z"/>
			<path class="st1" d="M18,37.1h5.1l1.1-1.1c-0.1-0.8-0.3-1.5-0.6-2.3H18h-5.6c-0.3,0.7-0.5,1.5-0.6,2.3l1.4,1.1H18z"/>
			<path class="st1" d="M24.2,36c-0.1-0.8-0.3-1.5-0.6-2.3H18v3.4h5.1L24.2,36z"/>
			<path class="st1" d="M24.2,36H18h-6.2c0,0.2,0,0.4,0,0.6c0,0.6,0.1,1.2,0.2,1.7l1.4,1.1H18h4.3l1.7-1.1c0.2-0.5,0.2-1.1,0.2-1.7
				C24.2,36.4,24.2,36.2,24.2,36L24.2,36z"/>
			<path class="st1" d="M24,38.3c0.2-0.5,0.2-1.1,0.2-1.7c0-0.2,0-0.4,0-0.6H18v3.4h4.3L24,38.3z"/>
			<path class="st1" d="M12,38.3c0.2,0.8,0.6,1.6,1.2,2.3l2.5,1.2H18h2.3l2.5-1.2c0.5-0.7,0.9-1.4,1.2-2.3h-6H12z"/>
			<path class="st1" d="M22.8,40.5c0.5-0.7,0.9-1.4,1.2-2.3h-6v3.4h2.3L22.8,40.5z"/>
			<path class="st1" d="M13.2,40.5c1.1,1.4,2.9,2.3,4.8,2.3s3.6-0.9,4.8-2.3H18H13.2z"/>
			<path class="st1" d="M22.8,40.5H18v2.3C19.9,42.8,21.7,41.9,22.8,40.5z"/>
		</g>
		<g>
			<path class="st2" d="M16.9,27.6c-0.3,0-0.6-0.3-0.6-0.6v-0.2c0-0.9-0.8-1.7-1.7-1.7c-0.3,0-0.6-0.3-0.6-0.6
				c0-0.3,0.3-0.6,0.6-0.6c1.6,0,2.8,1.3,2.8,2.9v0.2C17.5,27.4,17.2,27.6,16.9,27.6z"/>
			<path class="st3" d="M19.1,27.6c-0.3,0-0.6-0.3-0.6-0.6v-0.2c0-1.6,1.3-2.9,2.8-2.9c0.3,0,0.6,0.3,0.6,0.6c0,0.3-0.3,0.6-0.6,0.6
				c-0.9,0-1.7,0.8-1.7,1.7v0.2C19.7,27.4,19.5,27.6,19.1,27.6z"/>
			<path class="st4" d="M20.8,29.2c0,0.3,0,0.5-0.1,0.8h-5.4c-0.1-0.2-0.1-0.5-0.1-0.8c0-1.6,1.3-2.8,2.8-2.8S20.8,27.6,20.8,29.2z"
				/>
			<path class="st5" d="M20.8,29.2c0,0.3,0,0.5-0.1,0.8H18v-3.6C19.6,26.3,20.8,27.6,20.8,29.2z"/>
			<g>
				<path class="st2" d="M10.7,41.8l-1.1-2.3c-0.1-0.1-0.1-0.3,0-0.4c0.1-0.1,0.2-0.3,0.3-0.3l2.7-1.1c0.3-0.1,0.6,0,0.7,0.3
					c0.1,0.3,0,0.6-0.3,0.7l-2.2,0.9l0.9,1.7c0.1,0.3,0,0.6-0.3,0.8C11.2,42.2,10.9,42.1,10.7,41.8L10.7,41.8z"/>
				<path class="st2" d="M8.7,36.4c-0.3-0.1-0.4-0.5-0.3-0.8l1.2-2.3c0.1-0.3,0.5-0.4,0.8-0.3l2.3,1.1c0.3,0.1,0.4,0.5,0.3,0.8
					c-0.1,0.3-0.5,0.4-0.8,0.3l-1.8-0.9l-0.9,1.8C9.4,36.5,9,36.6,8.7,36.4L8.7,36.4z"/>
				<path class="st2" d="M13.8,31.9L11,30.8c-0.2-0.1-0.4-0.3-0.4-0.5V28c0-0.3,0.3-0.6,0.6-0.6s0.6,0.3,0.6,0.6v1.9l2.4,1
					c0.3,0.1,0.4,0.4,0.3,0.7C14.4,31.9,14.1,32.1,13.8,31.9z"/>
			</g>
			<path class="st3" d="M24.5,42.1c-0.3-0.1-0.4-0.5-0.3-0.8l0.9-1.7L23,38.7c-0.3-0.1-0.4-0.4-0.3-0.7s0.5-0.4,0.7-0.3l2.7,1.1
				c0.1,0.1,0.3,0.2,0.3,0.3c0.1,0.1,0,0.3,0,0.4l-1.1,2.3C25.2,42.1,24.8,42.2,24.5,42.1L24.5,42.1z"/>
			<path class="st3" d="M26.6,36.2l-0.9-1.8l-1.8,0.9c-0.3,0.1-0.6,0-0.8-0.3c-0.1-0.3,0-0.6,0.3-0.8l2.3-1.1c0.3-0.1,0.6,0,0.8,0.3
				l1.2,2.3c0.1,0.3,0,0.6-0.3,0.8C27.1,36.6,26.7,36.5,26.6,36.2L26.6,36.2z"/>
			<path class="st3" d="M21.5,31.6c-0.1-0.3,0-0.6,0.3-0.7l2.4-1V28c0-0.3,0.3-0.6,0.6-0.6s0.6,0.3,0.6,0.6v2.3
				c0,0.2-0.1,0.4-0.4,0.5l-2.8,1.1C22,32.1,21.6,31.9,21.5,31.6L21.5,31.6z"/>
			<path class="st2" d="M16.9,43.3c-0.3,0-0.6-0.3-0.6-0.6v-1.1c0-0.3,0.3-0.6,0.6-0.6s0.6,0.3,0.6,0.6v1.1
				C17.5,43.1,17.2,43.3,16.9,43.3z"/>
			<path class="st3" d="M19.1,43.3c-0.3,0-0.6-0.3-0.6-0.6v-1.1c0-0.3,0.3-0.6,0.6-0.6c0.3,0,0.6,0.3,0.6,0.6v1.1
				C19.7,43.1,19.5,43.3,19.1,43.3z"/>
			<path class="st6" d="M18,32h2.8l1.5-1.1c-1.1-1.3-2.6-2.3-4.3-2.3s-3.2,0.9-4.3,2.3l1.5,1.1H18z"/>
			<path class="st7" d="M22.3,30.9c-1.1-1.3-2.6-2.3-4.3-2.3V32h2.8L22.3,30.9z"/>
			<path class="st4" d="M18,34.2h4l1.7-1.1c-0.3-0.8-0.8-1.6-1.3-2.3H18h-4.3c-0.6,0.7-1,1.4-1.3,2.3l1.3,1.1H18z"/>
			<path class="st5" d="M23.6,33.1c-0.3-0.8-0.8-1.6-1.3-2.3H18v3.4h4L23.6,33.1z"/>
			<path class="st6" d="M18,36.5h5.1l1.1-1.1c-0.1-0.8-0.3-1.5-0.6-2.3H18h-5.6c-0.3,0.7-0.5,1.5-0.6,2.3l1.4,1.1H18z"/>
			<path class="st7" d="M24.2,35.4c-0.1-0.8-0.3-1.5-0.6-2.3H18v3.4h5.1L24.2,35.4z"/>
			<path class="st4" d="M24.2,35.4H18h-6.2c0,0.2,0,0.4,0,0.6c0,0.6,0.1,1.2,0.2,1.7l1.4,1.1H18h4.3l1.7-1.1
				c0.2-0.5,0.2-1.1,0.2-1.7C24.2,35.7,24.2,35.6,24.2,35.4L24.2,35.4z"/>
			<path class="st5" d="M24,37.6c0.2-0.5,0.2-1.1,0.2-1.7c0-0.2,0-0.4,0-0.6H18v3.4h4.3L24,37.6z"/>
			<path class="st6" d="M12,37.6c0.2,0.8,0.6,1.6,1.2,2.3l2.5,1.2H18h2.3l2.5-1.2c0.5-0.7,0.9-1.4,1.2-2.3h-6H12z"/>
			<path class="st7" d="M22.8,39.9c0.5-0.7,0.9-1.4,1.2-2.3h-6V41h2.3L22.8,39.9z"/>
			<path class="st4" d="M13.2,39.9c1.1,1.4,2.9,2.3,4.8,2.3s3.6-0.9,4.8-2.3H18H13.2z"/>
			<path class="st5" d="M22.8,39.9H18v2.3C19.9,42.2,21.7,41.3,22.8,39.9z"/>
		</g>
	</g>
	<g>
		<g>
			<path class="st1" d="M38,32.4l-3-1c-0.1,0-0.3-0.2-0.3-0.3l-1-2h-2c-0.3,0-0.6-0.3-0.6-0.6s0.3-0.6,0.6-0.6H34
				c0.2,0,0.4,0.1,0.5,0.3l1.1,2.1l2.8,0.9c0.3,0.1,0.5,0.4,0.4,0.7C38.6,32.3,38.3,32.5,38,32.4L38,32.4z"/>
			<path class="st1" d="M31.1,36.9c-0.1-0.3,0-0.6,0.3-0.8l2.2-1.1l1.1-2.2c0.1-0.2,0.3-0.3,0.5-0.3h2.2c0.3,0,0.6,0.3,0.6,0.6
				c0,0.3-0.3,0.6-0.6,0.6h-1.8l-1,2c-0.1,0.1-0.1,0.2-0.3,0.3l-2.3,1.2C31.6,37.3,31.2,37.2,31.1,36.9L31.1,36.9z"/>
			<g>
				<path class="st1" d="M40.9,32c-0.1-0.3,0.1-0.6,0.4-0.7l2.8-0.9l1.1-2.1c0.1-0.2,0.3-0.3,0.5-0.3H48c0.3,0,0.6,0.3,0.6,0.6
					S48.4,29,48,29h-2l-1,2c-0.1,0.1-0.2,0.2-0.3,0.3l-3,1C41.4,32.5,41,32.3,40.9,32z"/>
				<path class="st1" d="M47.8,37.2L45.4,36c-0.1-0.1-0.2-0.1-0.3-0.3l-1-2h-1.8c-0.3,0-0.6-0.3-0.6-0.6c0-0.3,0.3-0.6,0.6-0.6h2.2
					c0.2,0,0.4,0.1,0.5,0.3l1.1,2.2l2.2,1.1c0.3,0.1,0.4,0.5,0.3,0.8C48.4,37.2,48.1,37.3,47.8,37.2L47.8,37.2z"/>
				<path class="st1" d="M42.2,28.9c-0.2,0-0.5-0.2-0.6-0.4c-0.1-0.3,0.1-0.6,0.4-0.7c0.5-0.2,0.8-0.6,0.8-1.1
					c0-0.6-0.5-1.2-1.2-1.2c-0.3,0-0.6-0.3-0.6-0.6c0-0.3,0.3-0.6,0.6-0.6c1.3,0,2.3,1.1,2.3,2.3c0,1-0.6,1.9-1.6,2.2
					C42.3,28.9,42.2,28.9,42.2,28.9z"/>
			</g>
			<path class="st1" d="M37.5,28.9c-0.1,0-0.1,0-0.2,0c-0.9-0.3-1.6-1.2-1.6-2.2c0-1.3,1.1-2.3,2.3-2.3c0.3,0,0.6,0.3,0.6,0.6
				c0,0.3-0.3,0.6-0.6,0.6c-0.6,0-1.2,0.5-1.2,1.2c0,0.5,0.3,0.9,0.8,1.1c0.3,0.1,0.5,0.4,0.4,0.7C37.9,28.8,37.7,28.9,37.5,28.9z"
				/>
			<path class="st1" d="M40.3,29.2C40.2,29.1,40,29,39.8,29c-0.2,0-0.3,0.1-0.4,0.2c-0.2,0.2-4.8,5.7-4.8,9.8c0,4.7,3,5.4,5.3,5.4
				c2.3,0,5.3-0.6,5.3-5.4C45.1,34.9,40.5,29.5,40.3,29.2z"/>
			<path class="st1" d="M45.1,39c0,4.7-3,5.4-5.3,5.4V29c0.2,0,0.3,0.1,0.4,0.2C40.5,29.5,45.1,34.9,45.1,39z"/>
			<path class="st1" d="M40.2,29.2C40.1,29.1,40,29,39.8,29s-0.3,0-0.4,0.2c-0.1,0.1-2.5,2.3-2.5,5.1c0,3,1.3,5.3,2.9,5.3
				s2.9-2.3,2.9-5.3C42.8,31.5,40.3,29.3,40.2,29.2z"/>
			<path class="st1" d="M42.8,34.3c0,3-1.3,5.3-2.9,5.3V29c0.1,0,0.3,0,0.4,0.2C40.3,29.3,42.8,31.5,42.8,34.3z"/>
			<path class="st1" d="M41,26.7h-2.3c-1,0-1.8,0.8-1.8,1.8c0,1,0.8,1.8,1.8,1.8H41c1,0,1.8-0.8,1.8-1.8C42.8,27.5,42,26.7,41,26.7z
				"/>
			<path class="st1" d="M42.8,28.4c0,1-0.8,1.8-1.8,1.8h-1.2v-3.5H41C42,26.7,42.8,27.5,42.8,28.4z"/>
		</g>
		<g>
			<path class="st8" d="M38,31.7l-3-1c-0.1,0-0.3-0.2-0.3-0.3l-1-2h-2c-0.3,0-0.6-0.3-0.6-0.6s0.3-0.6,0.6-0.6H34
				c0.2,0,0.4,0.1,0.5,0.3l1.1,2.1l2.8,0.9c0.3,0.1,0.5,0.4,0.4,0.7C38.6,31.6,38.3,31.8,38,31.7L38,31.7z"/>
			<path class="st8" d="M31.1,36.2c-0.1-0.3,0-0.6,0.3-0.8l2.2-1.1l1.1-2.2c0.1-0.2,0.3-0.3,0.5-0.3h2.2c0.3,0,0.6,0.3,0.6,0.6
				c0,0.3-0.3,0.6-0.6,0.6h-1.8l-1,2c-0.1,0.1-0.1,0.2-0.3,0.3l-2.3,1.2C31.6,36.6,31.2,36.5,31.1,36.2L31.1,36.2z"/>
			<g>
				<path class="st9" d="M40.9,31.3c-0.1-0.3,0.1-0.6,0.4-0.7l2.8-0.9l1.1-2.1c0.1-0.2,0.3-0.3,0.5-0.3H48c0.3,0,0.6,0.3,0.6,0.6
					s-0.3,0.6-0.6,0.6h-2l-1,2c-0.1,0.1-0.2,0.2-0.3,0.3l-3,1C41.4,31.8,41,31.6,40.9,31.3z"/>
				<path class="st9" d="M47.8,36.5l-2.3-1.2c-0.1-0.1-0.2-0.1-0.3-0.3l-1-2h-1.8c-0.3,0-0.6-0.3-0.6-0.6c0-0.3,0.3-0.6,0.6-0.6h2.2
					c0.2,0,0.4,0.1,0.5,0.3l1.1,2.2l2.2,1.1c0.3,0.1,0.4,0.5,0.3,0.8C48.4,36.5,48.1,36.6,47.8,36.5L47.8,36.5z"/>
				<path class="st9" d="M42.2,28.2c-0.2,0-0.5-0.2-0.6-0.4c-0.1-0.3,0.1-0.6,0.4-0.7c0.5-0.2,0.8-0.6,0.8-1.1
					c0-0.6-0.5-1.2-1.2-1.2c-0.3,0-0.6-0.3-0.6-0.6c0-0.3,0.3-0.6,0.6-0.6c1.3,0,2.3,1.1,2.3,2.3c0,1-0.6,1.9-1.6,2.2
					C42.3,28.2,42.2,28.2,42.2,28.2z"/>
			</g>
			<path class="st8" d="M37.5,28.2c-0.1,0-0.1,0-0.2,0c-0.9-0.3-1.6-1.2-1.6-2.2c0-1.3,1.1-2.3,2.3-2.3c0.3,0,0.6,0.3,0.6,0.6
				c0,0.3-0.3,0.6-0.6,0.6c-0.6,0-1.2,0.5-1.2,1.2c0,0.5,0.3,0.9,0.8,1.1c0.3,0.1,0.5,0.4,0.4,0.7C37.9,28.1,37.7,28.2,37.5,28.2z"
				/>
			<path class="st10" d="M40.3,28.6c-0.1-0.1-0.3-0.2-0.4-0.2c-0.2,0-0.3,0.1-0.4,0.2c-0.2,0.2-4.8,5.7-4.8,9.8c0,4.7,3,5.4,5.3,5.4
				c2.3,0,5.3-0.6,5.3-5.4C45.1,34.3,40.5,28.8,40.3,28.6z"/>
			<path class="st11" d="M45.1,38.3c0,4.7-3,5.4-5.3,5.4V28.4c0.2,0,0.3,0.1,0.4,0.2C40.5,28.8,45.1,34.3,45.1,38.3z"/>
			<path class="st8" d="M40.2,28.5c-0.1-0.1-0.2-0.2-0.4-0.2s-0.3,0-0.4,0.2c-0.1,0.1-2.5,2.3-2.5,5.1c0,3,1.3,5.3,2.9,5.3
				s2.9-2.3,2.9-5.3C42.8,30.8,40.3,28.6,40.2,28.5z"/>
			<path class="st9" d="M42.8,33.6c0,3-1.3,5.3-2.9,5.3V28.3c0.1,0,0.3,0,0.4,0.2C40.3,28.6,42.8,30.8,42.8,33.6z"/>
			<path class="st12" d="M41,26h-2.3c-1,0-1.8,0.8-1.8,1.8c0,1,0.8,1.8,1.8,1.8H41c1,0,1.8-0.8,1.8-1.8C42.8,26.8,42,26,41,26z"/>
			<path class="st8" d="M42.8,27.8c0,1-0.8,1.8-1.8,1.8h-1.2V26H41C42,26,42.8,26.8,42.8,27.8z"/>
		</g>
	</g>
	<path class="st13" d="M28.5,7.2c-3.5,0-6.3,2.8-6.3,6.3s2.8,6.3,6.3,6.3c3.5,0,6.3-2.8,6.3-6.3S32,7.2,28.5,7.2z M27.3,13.6
		l-2.7,2.7c-0.5-0.8-0.9-1.7-0.9-2.7c0-1,0.3-1.9,0.8-2.7L27.3,13.6z M25.8,9.7c0.8-0.5,1.7-0.8,2.7-0.8c1,0,1.9,0.3,2.7,0.9
		l-2.7,2.7L25.8,9.7z M28.5,14.7l2.7,2.7c-0.8,0.5-1.7,0.8-2.7,0.8c-1,0-1.9-0.3-2.7-0.9L28.5,14.7z M29.7,13.5l2.7-2.7
		c0.5,0.8,0.9,1.7,0.9,2.7c0,1-0.3,1.9-0.8,2.7L29.7,13.5z"/>
</g>
</svg>
