<?xml version="1.0" encoding="utf-8"?>
<!-- Generator: Adobe Illustrator 22.1.0, SVG Export Plug-In . SVG Version: 6.00 Build 0)  -->
<svg version="1.1" id="Capa_1" xmlns="http://www.w3.org/2000/svg" xmlns:xlink="http://www.w3.org/1999/xlink" x="0px" y="0px"
	 viewBox="0 0 57 68" style="enable-background:new 0 0 57 68;" xml:space="preserve">
<style type="text/css">
	.st0{fill:#FECF32;}
	.st1{fill:#E5B01A;}
	.st2{fill:#FFCA80;}
	.st3{fill:#F7B669;}
	.st4{fill:#FFE6B3;}
	.st5{fill:#FFF7CC;}
	.st6{fill:#783D3E;}
	.st7{fill:#59262B;}
	.st8{fill:#FFC277;}
	.st9{fill:#FF641A;}
	.st10{fill:#FF9A42;}
	.st11{fill:#FFD983;}
	.st12{fill:#A6696A;}
	.st13{fill:#F4B66C;}
	.st14{fill:#596C76;}
	.st15{fill:#465A61;}
	.st16{fill:#BF6015;}
	.st17{fill:#994C0F;}
	.st18{fill:#E08344;}
	.st19{fill:#D6702B;}
	.st20{fill:#EF3A47;}
</style>
<g>
	<path class="st0" d="M51,52.6L33.3,62.8c-3,1.7-6.7,1.7-9.6,0L6,52.6c-3-1.7-4.8-4.9-4.8-8.4V23.8c0-3.4,1.8-6.6,4.8-8.4L23.7,5.2
		c3-1.7,6.7-1.7,9.6,0L51,15.4c3,1.7,4.8,4.9,4.8,8.4v20.4C55.8,47.7,54,50.8,51,52.6z"/>
	<g>
		<g>
			<g>
				<path class="st1" d="M39.1,31.1c-0.1,0-0.1,0-0.2,0l-3.8-1.3c-0.3-0.1-0.4-0.3-0.4-0.6v-2.5c0-0.3,0.3-0.6,0.6-0.6
					c0.3,0,0.6,0.3,0.6,0.6v2.1l3.4,1.1c0.3,0.1,0.5,0.5,0.4,0.8C39.6,31,39.3,31.1,39.1,31.1z"/>
				<path class="st1" d="M34,34.9h-1.3c-0.3,0-0.6-0.3-0.6-0.6s0.3-0.6,0.6-0.6h0.9l1.1-2.2c0.1-0.2,0.3-0.3,0.6-0.3h3.8
					c0.3,0,0.6,0.3,0.6,0.6s-0.3,0.6-0.6,0.6h-3.4l-1.1,2.2C34.5,34.8,34.3,34.9,34,34.9z"/>
				<path class="st1" d="M41.6,31.1c-0.3,0-0.5-0.2-0.6-0.4c-0.1-0.3,0.1-0.7,0.4-0.8l3.4-1.1v-2.1c0-0.3,0.3-0.6,0.6-0.6
					s0.6,0.3,0.6,0.6v2.5c0,0.3-0.2,0.5-0.4,0.6l-3.8,1.3C41.7,31.1,41.7,31.1,41.6,31.1z"/>
				<path class="st1" d="M47.9,34.9h-1.3c-0.2,0-0.5-0.1-0.6-0.3L45,32.4h-3.4c-0.3,0-0.6-0.3-0.6-0.6c0-0.3,0.3-0.6,0.6-0.6h3.8
					c0.2,0,0.5,0.1,0.6,0.3l1.1,2.2h0.9c0.3,0,0.6,0.3,0.6,0.6S48.3,34.9,47.9,34.9z"/>
				<path class="st1" d="M39.3,26.5l-1.9-1.9c-0.2-0.2-0.2-0.6,0-0.9c0.2-0.2,0.6-0.2,0.9,0l1.9,1.9c0.2,0.2,0.2,0.6,0,0.9
					C39.9,26.8,39.5,26.8,39.3,26.5z"/>
				<path class="st1" d="M40.5,26.5c-0.2-0.2-0.2-0.6,0-0.9l1.9-1.9c0.2-0.2,0.6-0.2,0.9,0c0.2,0.2,0.2,0.6,0,0.9l-1.9,1.9
					C41.2,26.8,40.8,26.8,40.5,26.5z"/>
				<path class="st1" d="M41,43.2v1.3c0,0.4-0.3,0.6-0.6,0.6s-0.6-0.3-0.6-0.6v-1.3c0-0.4,0.3-0.6,0.6-0.6S41,42.9,41,43.2z"/>
				<path class="st1" d="M41,43.2v1.3c0,0.4-0.3,0.6-0.6,0.6v-2.5C40.7,42.6,41,42.9,41,43.2z"/>
				<path class="st1" d="M44.7,37.4l-1.5,0.6l1.1,0.6c-0.2,0.4-0.4,0.9-0.6,1.3L42,40.6l0.8,0.6c-1,1.3-2,2.4-2.1,2.5
					c-0.1,0.1-0.3,0.2-0.4,0.2s-0.3-0.1-0.4-0.2c-0.1-0.1-1.1-1.1-2.1-2.5l0.8-0.6L37,40c-0.3-0.4-0.5-0.8-0.6-1.3l1.1-0.6L36,37.4
					c0-0.2-0.1-0.4-0.1-0.6c0-0.2,0-0.4,0.1-0.6l1.4-0.6l-1.1-0.6c0.6-1.6,2-2.5,4.1-2.5s3.5,0.9,4.1,2.5l-1.1,0.6l1.4,0.6
					c0,0.2,0.1,0.4,0.1,0.6C44.8,37,44.7,37.2,44.7,37.4z"/>
				<path class="st1" d="M44.7,37.4l-1.5,0.6l1.1,0.6c-0.2,0.4-0.4,0.9-0.6,1.3L42,40.6l0.8,0.6c-1,1.3-2,2.4-2.1,2.5
					c-0.1,0.1-0.3,0.2-0.4,0.2V32.4c2.1,0,3.5,0.9,4.1,2.5l-1.1,0.6l1.4,0.6c0,0.2,0.1,0.4,0.1,0.6C44.8,37,44.7,37.2,44.7,37.4z"/>
				<path class="st1" d="M42.4,29.3L41.7,30H39l-0.7-0.7c-0.7-0.7-0.7-1.9,0-2.7l1.6-1.6c0.1-0.1,0.3-0.2,0.4-0.2
					c0.2,0,0.3,0.1,0.4,0.2l1.6,1.6C43.2,27.4,43.2,28.6,42.4,29.3L42.4,29.3z"/>
				<g>
					<path class="st1" d="M41.7,30h-1.3v-5.3c0.2,0,0.3,0.1,0.4,0.2l1.6,1.6c0.7,0.7,0.7,1.9,0,2.7L41.7,30z"/>
					<path class="st1" d="M44.7,36.2H36c0-0.5,0.1-0.9,0.3-1.3h8.2C44.6,35.3,44.7,35.7,44.7,36.2z"/>
					<path class="st1" d="M44.7,37.4c-0.1,0.4-0.2,0.8-0.4,1.3h-8c-0.2-0.4-0.3-0.8-0.4-1.3H44.7z"/>
					<path class="st1" d="M43.7,40c-0.3,0.4-0.5,0.9-0.8,1.3h-5.1c-0.3-0.4-0.6-0.8-0.8-1.3H43.7z"/>
					<path class="st1" d="M40.3,28.6c-1.1,0-1.9,0.8-1.9,1.9v1.3c0,1.1,0.8,1.9,1.9,1.9s1.9-0.8,1.9-1.9v-1.3
						C42.2,29.4,41.4,28.6,40.3,28.6z"/>
				</g>
				<path class="st1" d="M40.3,33.7v-5.1c1.1,0,1.9,0.8,1.9,1.9v1.3C42.2,32.8,41.4,33.7,40.3,33.7z"/>
				<path class="st1" d="M40.3,40h3.4c-0.3,0.4-0.5,0.9-0.8,1.3h-2.5V40z"/>
				<path class="st1" d="M40.3,37.4h4.4c-0.1,0.4-0.2,0.8-0.4,1.3h-4V37.4z"/>
				<path class="st1" d="M44.7,36.2h-4.4v-1.3h4.1C44.6,35.3,44.7,35.7,44.7,36.2z"/>
			</g>
			<g>
				<path class="st2" d="M39.1,30.5c-0.1,0-0.1,0-0.2,0l-3.8-1.3c-0.3-0.1-0.4-0.3-0.4-0.6V26c0-0.3,0.3-0.6,0.6-0.6
					c0.3,0,0.6,0.3,0.6,0.6v2.1l3.4,1.1c0.3,0.1,0.5,0.5,0.4,0.8C39.6,30.3,39.3,30.5,39.1,30.5z"/>
				<path class="st2" d="M34,34.3h-1.3c-0.3,0-0.6-0.3-0.6-0.6s0.3-0.6,0.6-0.6h0.9l1.1-2.2c0.1-0.2,0.3-0.3,0.6-0.3h3.8
					c0.3,0,0.6,0.3,0.6,0.6c0,0.3-0.3,0.6-0.6,0.6h-3.4l-1.1,2.2C34.5,34.1,34.3,34.3,34,34.3z"/>
				<path class="st3" d="M41.6,30.5c-0.3,0-0.5-0.2-0.6-0.4c-0.1-0.3,0.1-0.7,0.4-0.8l3.4-1.1V26c0-0.3,0.3-0.6,0.6-0.6
					S46,25.7,46,26v2.5c0,0.3-0.2,0.5-0.4,0.6l-3.8,1.3C41.7,30.5,41.7,30.5,41.6,30.5z"/>
				<path class="st3" d="M47.9,34.3h-1.3c-0.2,0-0.5-0.1-0.6-0.3L45,31.7h-3.4c-0.3,0-0.6-0.3-0.6-0.6c0-0.3,0.3-0.6,0.6-0.6h3.8
					c0.2,0,0.5,0.1,0.6,0.3l1.1,2.2h0.9c0.3,0,0.6,0.3,0.6,0.6S48.3,34.3,47.9,34.3z"/>
				<path class="st4" d="M39.3,25.9L37.4,24c-0.2-0.2-0.2-0.6,0-0.9c0.2-0.2,0.6-0.2,0.9,0l1.9,1.9c0.2,0.2,0.2,0.6,0,0.9
					C39.9,26.1,39.5,26.1,39.3,25.9z"/>
				<path class="st2" d="M40.5,25.9c-0.2-0.2-0.2-0.6,0-0.9l1.9-1.9c0.2-0.2,0.6-0.2,0.9,0c0.2,0.2,0.2,0.6,0,0.9l-1.9,1.9
					C41.2,26.1,40.8,26.1,40.5,25.9z"/>
				<path class="st4" d="M41,42.6v1.3c0,0.4-0.3,0.6-0.6,0.6s-0.6-0.3-0.6-0.6v-1.3c0-0.4,0.3-0.6,0.6-0.6S41,42.2,41,42.6z"/>
				<path class="st2" d="M41,42.6v1.3c0,0.4-0.3,0.6-0.6,0.6v-2.5C40.7,41.9,41,42.2,41,42.6z"/>
				<path class="st5" d="M44.7,36.8l-1.5,0.6l1.1,0.6c-0.2,0.4-0.4,0.9-0.6,1.3L42,40l0.8,0.6c-1,1.3-2,2.4-2.1,2.5
					c-0.1,0.1-0.3,0.2-0.4,0.2S40,43.2,39.9,43c-0.1-0.1-1.1-1.1-2.1-2.5l0.8-0.6L37,39.3c-0.3-0.4-0.5-0.8-0.6-1.3l1.1-0.6L36,36.8
					c0-0.2-0.1-0.4-0.1-0.6c0-0.2,0-0.4,0.1-0.6l1.4-0.6l-1.1-0.6c0.6-1.6,2-2.5,4.1-2.5s3.5,0.9,4.1,2.5l-1.1,0.6l1.4,0.6
					c0,0.2,0.1,0.4,0.1,0.6C44.8,36.4,44.7,36.6,44.7,36.8z"/>
				<path class="st4" d="M44.7,36.8l-1.5,0.6l1.1,0.6c-0.2,0.4-0.4,0.9-0.6,1.3L42,40l0.8,0.6c-1,1.3-2,2.4-2.1,2.5
					c-0.1,0.1-0.3,0.2-0.4,0.2V31.7c2.1,0,3.5,0.9,4.1,2.5l-1.1,0.6l1.4,0.6c0,0.2,0.1,0.4,0.1,0.6C44.8,36.4,44.7,36.6,44.7,36.8z"
					/>
				<path class="st5" d="M42.4,28.6l-0.7,0.7H39l-0.7-0.7c-0.7-0.7-0.7-1.9,0-2.7l1.6-1.6c0.1-0.1,0.3-0.2,0.4-0.2
					c0.2,0,0.3,0.1,0.4,0.2l1.6,1.6C43.2,26.7,43.2,27.9,42.4,28.6L42.4,28.6z"/>
				<g>
					<path class="st4" d="M41.7,29.4h-1.3v-5.3c0.2,0,0.3,0.1,0.4,0.2l1.6,1.6c0.7,0.7,0.7,1.9,0,2.7L41.7,29.4z"/>
					<path class="st4" d="M44.7,35.5H36c0-0.5,0.1-0.9,0.3-1.3h8.2C44.6,34.6,44.7,35.1,44.7,35.5z"/>
					<path class="st4" d="M44.7,36.8c-0.1,0.4-0.2,0.8-0.4,1.3h-8c-0.2-0.4-0.3-0.8-0.4-1.3H44.7z"/>
					<path class="st4" d="M43.7,39.3c-0.3,0.4-0.5,0.9-0.8,1.3h-5.1c-0.3-0.4-0.6-0.8-0.8-1.3H43.7z"/>
					<path class="st4" d="M40.3,27.9c-1.1,0-1.9,0.8-1.9,1.9v1.3c0,1.1,0.8,1.9,1.9,1.9s1.9-0.8,1.9-1.9v-1.3
						C42.2,28.8,41.4,27.9,40.3,27.9z"/>
				</g>
				<path class="st2" d="M40.3,33v-5.1c1.1,0,1.9,0.8,1.9,1.9v1.3C42.2,32.2,41.4,33,40.3,33z"/>
				<path class="st2" d="M40.3,39.3h3.4c-0.3,0.4-0.5,0.9-0.8,1.3h-2.5V39.3z"/>
				<path class="st2" d="M40.3,36.8h4.4c-0.1,0.4-0.2,0.8-0.4,1.3h-4V36.8z"/>
				<path class="st2" d="M44.7,35.5h-4.4v-1.3h4.1C44.6,34.6,44.7,35.1,44.7,35.5z"/>
			</g>
			<g>
				<path class="st6" d="M39.1,30.5c-0.1,0-0.1,0-0.2,0l-3.8-1.3c-0.3-0.1-0.4-0.3-0.4-0.6V26c0-0.3,0.3-0.6,0.6-0.6
					c0.3,0,0.6,0.3,0.6,0.6v2.1l3.4,1.1c0.3,0.1,0.5,0.5,0.4,0.8C39.6,30.3,39.3,30.5,39.1,30.5z"/>
				<path class="st6" d="M34,34.3h-1.3c-0.3,0-0.6-0.3-0.6-0.6s0.3-0.6,0.6-0.6h0.9l1.1-2.2c0.1-0.2,0.3-0.3,0.6-0.3h3.8
					c0.3,0,0.6,0.3,0.6,0.6c0,0.3-0.3,0.6-0.6,0.6h-3.4l-1.1,2.2C34.5,34.1,34.3,34.3,34,34.3z"/>
				<path class="st6" d="M41.6,30.5c-0.3,0-0.5-0.2-0.6-0.4c-0.1-0.3,0.1-0.7,0.4-0.8l3.4-1.1V26c0-0.3,0.3-0.6,0.6-0.6
					S46,25.7,46,26v2.5c0,0.3-0.2,0.5-0.4,0.6l-3.8,1.3C41.7,30.5,41.7,30.5,41.6,30.5z"/>
				<path class="st6" d="M47.9,34.3h-1.3c-0.2,0-0.5-0.1-0.6-0.3L45,31.7h-3.4c-0.3,0-0.6-0.3-0.6-0.6c0-0.3,0.3-0.6,0.6-0.6h3.8
					c0.2,0,0.5,0.1,0.6,0.3l1.1,2.2h0.9c0.3,0,0.6,0.3,0.6,0.6S48.3,34.3,47.9,34.3z"/>
				<path class="st6" d="M39.3,25.9L37.4,24c-0.2-0.2-0.2-0.6,0-0.9c0.2-0.2,0.6-0.2,0.9,0l1.9,1.9c0.2,0.2,0.2,0.6,0,0.9
					C39.9,26.1,39.5,26.1,39.3,25.9z"/>
				<path class="st7" d="M40.5,25.9c-0.2-0.2-0.2-0.6,0-0.9l1.9-1.9c0.2-0.2,0.6-0.2,0.9,0c0.2,0.2,0.2,0.6,0,0.9l-1.9,1.9
					C41.2,26.1,40.8,26.1,40.5,25.9z"/>
				<path class="st8" d="M41,42.6v1.3c0,0.4-0.3,0.6-0.6,0.6s-0.6-0.3-0.6-0.6v-1.3c0-0.4,0.3-0.6,0.6-0.6S41,42.2,41,42.6z"/>
				<path class="st9" d="M41,42.6v1.3c0,0.4-0.3,0.6-0.6,0.6v-2.5C40.7,41.9,41,42.2,41,42.6z"/>
				<path class="st10" d="M44.7,36.8l-1.5,0.6l1.1,0.6c-0.2,0.4-0.4,0.9-0.6,1.3L42,40l0.8,0.6c-1,1.3-2,2.4-2.1,2.5
					c-0.1,0.1-0.3,0.2-0.4,0.2S40,43.2,39.9,43c-0.1-0.1-1.1-1.1-2.1-2.5l0.8-0.6L37,39.3c-0.3-0.4-0.5-0.8-0.6-1.3l1.1-0.6L36,36.8
					c0-0.2-0.1-0.4-0.1-0.6c0-0.2,0-0.4,0.1-0.6l1.4-0.6l-1.1-0.6c0.6-1.6,2-2.5,4.1-2.5s3.5,0.9,4.1,2.5l-1.1,0.6l1.4,0.6
					c0,0.2,0.1,0.4,0.1,0.6C44.8,36.4,44.7,36.6,44.7,36.8z"/>
				<path class="st9" d="M44.7,36.8l-1.5,0.6l1.1,0.6c-0.2,0.4-0.4,0.9-0.6,1.3L42,40l0.8,0.6c-1,1.3-2,2.4-2.1,2.5
					c-0.1,0.1-0.3,0.2-0.4,0.2V31.7c2.1,0,3.5,0.9,4.1,2.5l-1.1,0.6l1.4,0.6c0,0.2,0.1,0.4,0.1,0.6C44.8,36.4,44.7,36.6,44.7,36.8z"
					/>
				<path class="st6" d="M42.4,28.6l-0.7,0.7H39l-0.7-0.7c-0.7-0.7-0.7-1.9,0-2.7l1.6-1.6c0.1-0.1,0.3-0.2,0.4-0.2
					c0.2,0,0.3,0.1,0.4,0.2l1.6,1.6C43.2,26.7,43.2,27.9,42.4,28.6L42.4,28.6z"/>
				<g>
					<path class="st7" d="M41.7,29.4h-1.3v-5.3c0.2,0,0.3,0.1,0.4,0.2l1.6,1.6c0.7,0.7,0.7,1.9,0,2.7L41.7,29.4z"/>
					<path class="st11" d="M44.7,35.5H36c0-0.5,0.1-0.9,0.3-1.3h8.2C44.6,34.6,44.7,35.1,44.7,35.5z"/>
					<path class="st11" d="M44.7,36.8c-0.1,0.4-0.2,0.8-0.4,1.3h-8c-0.2-0.4-0.3-0.8-0.4-1.3H44.7z"/>
					<path class="st11" d="M43.7,39.3c-0.3,0.4-0.5,0.9-0.8,1.3h-5.1c-0.3-0.4-0.6-0.8-0.8-1.3H43.7z"/>
					<path class="st12" d="M40.3,27.9c-1.1,0-1.9,0.8-1.9,1.9v1.3c0,1.1,0.8,1.9,1.9,1.9s1.9-0.8,1.9-1.9v-1.3
						C42.2,28.8,41.4,27.9,40.3,27.9z"/>
				</g>
				<path class="st6" d="M40.3,33v-5.1c1.1,0,1.9,0.8,1.9,1.9v1.3C42.2,32.2,41.4,33,40.3,33z"/>
				<path class="st13" d="M40.3,39.3h3.4c-0.3,0.4-0.5,0.9-0.8,1.3h-2.5V39.3z"/>
				<path class="st13" d="M40.3,36.8h4.4c-0.1,0.4-0.2,0.8-0.4,1.3h-4V36.8z"/>
				<path class="st13" d="M44.7,35.5h-4.4v-1.3h4.1C44.6,34.6,44.7,35.1,44.7,35.5z"/>
			</g>
		</g>
		<g>
			<g>
				<path class="st1" d="M16.9,28.3c-0.3,0-0.6-0.3-0.6-0.6v-0.2c0-0.9-0.8-1.7-1.7-1.7c-0.3,0-0.6-0.3-0.6-0.6
					c0-0.3,0.3-0.6,0.6-0.6c1.6,0,2.8,1.3,2.8,2.9v0.2C17.5,28,17.3,28.3,16.9,28.3z"/>
				<path class="st1" d="M19.2,28.3c-0.3,0-0.6-0.3-0.6-0.6v-0.2c0-1.6,1.3-2.9,2.8-2.9c0.3,0,0.6,0.3,0.6,0.6
					c0,0.3-0.3,0.6-0.6,0.6c-0.9,0-1.7,0.8-1.7,1.7v0.2C19.8,28,19.5,28.3,19.2,28.3z"/>
				<path class="st1" d="M20.9,29.8c0,0.3,0,0.5-0.1,0.8h-5.4c-0.1-0.2-0.1-0.5-0.1-0.8c0-1.6,1.3-2.8,2.8-2.8S20.9,28.3,20.9,29.8z
					"/>
				<path class="st1" d="M20.9,29.8c0,0.3,0,0.5-0.1,0.8h-2.7V27C19.6,27,20.9,28.3,20.9,29.8z"/>
				<g>
					<path class="st1" d="M10.8,42.5l-1.1-2.3c-0.1-0.1-0.1-0.3,0-0.4c0.1-0.1,0.2-0.3,0.3-0.3l2.7-1.1c0.3-0.1,0.6,0,0.7,0.3
						c0.1,0.3,0,0.6-0.3,0.7l-2.2,0.9l0.9,1.7c0.1,0.3,0,0.6-0.3,0.8C11.3,42.9,10.9,42.8,10.8,42.5L10.8,42.5z"/>
					<path class="st1" d="M8.8,37.1c-0.3-0.1-0.4-0.5-0.3-0.8l1.2-2.3c0.1-0.3,0.5-0.4,0.8-0.3l2.3,1.1c0.3,0.1,0.4,0.5,0.3,0.8
						c-0.1,0.3-0.5,0.4-0.8,0.3l-1.8-0.9l-0.9,1.8C9.4,37.1,9,37.2,8.8,37.1L8.8,37.1z"/>
					<path class="st1" d="M13.8,32.6l-2.8-1.1c-0.2-0.1-0.4-0.3-0.4-0.5v-2.3c0-0.3,0.3-0.6,0.6-0.6s0.6,0.3,0.6,0.6v1.9l2.4,1
						c0.3,0.1,0.4,0.4,0.3,0.7C14.5,32.6,14.1,32.7,13.8,32.6z"/>
				</g>
				<path class="st1" d="M24.6,42.7c-0.3-0.1-0.4-0.5-0.3-0.8l0.9-1.7L23,39.4c-0.3-0.1-0.4-0.4-0.3-0.7s0.5-0.4,0.7-0.3l2.7,1.1
					c0.1,0.1,0.3,0.2,0.3,0.3c0.1,0.1,0,0.3,0,0.4l-1.1,2.3C25.2,42.8,24.9,42.9,24.6,42.7L24.6,42.7z"/>
				<path class="st1" d="M26.6,36.8l-0.9-1.8L24,36c-0.3,0.1-0.6,0-0.8-0.3c-0.1-0.3,0-0.6,0.3-0.8l2.3-1.1c0.3-0.1,0.6,0,0.8,0.3
					l1.2,2.3c0.1,0.3,0,0.6-0.3,0.8C27.1,37.2,26.8,37.1,26.6,36.8L26.6,36.8z"/>
				<path class="st1" d="M21.6,32.3c-0.1-0.3,0-0.6,0.3-0.7l2.4-1v-1.9c0-0.3,0.3-0.6,0.6-0.6s0.6,0.3,0.6,0.6v2.3
					c0,0.2-0.1,0.4-0.4,0.5l-2.8,1.1C22,32.7,21.7,32.6,21.6,32.3L21.6,32.3z"/>
				<path class="st1" d="M16.9,44c-0.3,0-0.6-0.3-0.6-0.6v-1.1c0-0.3,0.3-0.6,0.6-0.6c0.3,0,0.6,0.3,0.6,0.6v1.1
					C17.5,43.7,17.3,44,16.9,44z"/>
				<path class="st1" d="M19.2,44c-0.3,0-0.6-0.3-0.6-0.6v-1.1c0-0.3,0.3-0.6,0.6-0.6s0.6,0.3,0.6,0.6v1.1
					C19.8,43.7,19.5,44,19.2,44z"/>
				<path class="st1" d="M18.1,32.6h2.8l1.5-1.1c-1.1-1.3-2.6-2.3-4.3-2.3s-3.2,0.9-4.3,2.3l1.5,1.1H18.1z"/>
				<path class="st1" d="M22.4,31.5c-1.1-1.3-2.6-2.3-4.3-2.3v3.4h2.8L22.4,31.5z"/>
				<path class="st1" d="M18.1,34.9h4l1.7-1.1c-0.3-0.8-0.8-1.6-1.3-2.3h-4.3h-4.3c-0.6,0.7-1,1.4-1.3,2.3l1.3,1.1H18.1z"/>
				<path class="st1" d="M23.7,33.8c-0.3-0.8-0.8-1.6-1.3-2.3h-4.3v3.4h4L23.7,33.8z"/>
				<path class="st1" d="M18.1,37.1h5.1l1.1-1.1c-0.1-0.8-0.3-1.5-0.6-2.3h-5.6h-5.6c-0.3,0.7-0.5,1.5-0.6,2.3l1.4,1.1H18.1z"/>
				<path class="st1" d="M24.3,36c-0.1-0.8-0.3-1.5-0.6-2.3h-5.6v3.4h5.1L24.3,36z"/>
				<path class="st1" d="M24.3,36h-6.2h-6.2c0,0.2,0,0.4,0,0.6c0,0.6,0.1,1.2,0.2,1.7l1.4,1.1h4.6h4.3l1.7-1.1
					c0.2-0.5,0.2-1.1,0.2-1.7C24.3,36.4,24.3,36.2,24.3,36L24.3,36z"/>
				<path class="st1" d="M24,38.3c0.2-0.5,0.2-1.1,0.2-1.7c0-0.2,0-0.4,0-0.6h-6.2v3.4h4.3L24,38.3z"/>
				<path class="st1" d="M12.1,38.3c0.2,0.8,0.6,1.6,1.2,2.3l2.5,1.2h2.3h2.3l2.5-1.2c0.5-0.7,0.9-1.4,1.2-2.3h-6H12.1z"/>
				<path class="st1" d="M22.9,40.5c0.5-0.7,0.9-1.4,1.2-2.3h-6v3.4h2.3L22.9,40.5z"/>
				<path class="st1" d="M13.3,40.5c1.1,1.4,2.9,2.3,4.8,2.3s3.6-0.9,4.8-2.3h-4.8H13.3z"/>
				<path class="st1" d="M22.9,40.5h-4.8v2.3C20,42.8,21.7,41.9,22.9,40.5z"/>
			</g>
			<g>
				<path class="st14" d="M16.9,27.6c-0.3,0-0.6-0.3-0.6-0.6v-0.2c0-0.9-0.8-1.7-1.7-1.7c-0.3,0-0.6-0.3-0.6-0.6
					c0-0.3,0.3-0.6,0.6-0.6c1.6,0,2.8,1.3,2.8,2.9v0.2C17.5,27.4,17.3,27.6,16.9,27.6z"/>
				<path class="st15" d="M19.2,27.6c-0.3,0-0.6-0.3-0.6-0.6v-0.2c0-1.6,1.3-2.9,2.8-2.9c0.3,0,0.6,0.3,0.6,0.6
					c0,0.3-0.3,0.6-0.6,0.6c-0.9,0-1.7,0.8-1.7,1.7v0.2C19.8,27.4,19.5,27.6,19.2,27.6z"/>
				<path class="st16" d="M20.9,29.2c0,0.3,0,0.5-0.1,0.8h-5.4c-0.1-0.2-0.1-0.5-0.1-0.8c0-1.6,1.3-2.8,2.8-2.8S20.9,27.6,20.9,29.2
					z"/>
				<path class="st17" d="M20.9,29.2c0,0.3,0,0.5-0.1,0.8h-2.7v-3.6C19.6,26.3,20.9,27.6,20.9,29.2z"/>
				<g>
					<path class="st14" d="M10.8,41.8l-1.1-2.3c-0.1-0.1-0.1-0.3,0-0.4c0.1-0.1,0.2-0.3,0.3-0.3l2.7-1.1c0.3-0.1,0.6,0,0.7,0.3
						c0.1,0.3,0,0.6-0.3,0.7l-2.2,0.9l0.9,1.7c0.1,0.3,0,0.6-0.3,0.8C11.3,42.2,10.9,42.1,10.8,41.8L10.8,41.8z"/>
					<path class="st14" d="M8.8,36.4c-0.3-0.1-0.4-0.5-0.3-0.8l1.2-2.3c0.1-0.3,0.5-0.4,0.8-0.3l2.3,1.1c0.3,0.1,0.4,0.5,0.3,0.8
						c-0.1,0.3-0.5,0.4-0.8,0.3l-1.8-0.9l-0.9,1.8C9.4,36.5,9,36.6,8.8,36.4L8.8,36.4z"/>
					<path class="st14" d="M13.8,31.9l-2.8-1.1c-0.2-0.1-0.4-0.3-0.4-0.5V28c0-0.3,0.3-0.6,0.6-0.6s0.6,0.3,0.6,0.6v1.9l2.4,1
						c0.3,0.1,0.4,0.4,0.3,0.7C14.5,31.9,14.1,32.1,13.8,31.9z"/>
				</g>
				<path class="st15" d="M24.6,42.1c-0.3-0.1-0.4-0.5-0.3-0.8l0.9-1.7L23,38.7c-0.3-0.1-0.4-0.4-0.3-0.7s0.5-0.4,0.7-0.3l2.7,1.1
					c0.1,0.1,0.3,0.2,0.3,0.3c0.1,0.1,0,0.3,0,0.4l-1.1,2.3C25.2,42.1,24.9,42.2,24.6,42.1L24.6,42.1z"/>
				<path class="st15" d="M26.6,36.2l-0.9-1.8L24,35.3c-0.3,0.1-0.6,0-0.8-0.3c-0.1-0.3,0-0.6,0.3-0.8l2.3-1.1
					c0.3-0.1,0.6,0,0.8,0.3l1.2,2.3c0.1,0.3,0,0.6-0.3,0.8C27.1,36.6,26.8,36.5,26.6,36.2L26.6,36.2z"/>
				<path class="st15" d="M21.6,31.6c-0.1-0.3,0-0.6,0.3-0.7l2.4-1V28c0-0.3,0.3-0.6,0.6-0.6s0.6,0.3,0.6,0.6v2.3
					c0,0.2-0.1,0.4-0.4,0.5l-2.8,1.1C22,32.1,21.7,31.9,21.6,31.6L21.6,31.6z"/>
				<path class="st14" d="M16.9,43.3c-0.3,0-0.6-0.3-0.6-0.6v-1.1c0-0.3,0.3-0.6,0.6-0.6c0.3,0,0.6,0.3,0.6,0.6v1.1
					C17.5,43.1,17.3,43.3,16.9,43.3z"/>
				<path class="st15" d="M19.2,43.3c-0.3,0-0.6-0.3-0.6-0.6v-1.1c0-0.3,0.3-0.6,0.6-0.6s0.6,0.3,0.6,0.6v1.1
					C19.8,43.1,19.5,43.3,19.2,43.3z"/>
				<path class="st18" d="M18.1,32h2.8l1.5-1.1c-1.1-1.3-2.6-2.3-4.3-2.3s-3.2,0.9-4.3,2.3l1.5,1.1H18.1z"/>
				<path class="st19" d="M22.4,30.9c-1.1-1.3-2.6-2.3-4.3-2.3V32h2.8L22.4,30.9z"/>
				<path class="st16" d="M18.1,34.2h4l1.7-1.1c-0.3-0.8-0.8-1.6-1.3-2.3h-4.3h-4.3c-0.6,0.7-1,1.4-1.3,2.3l1.3,1.1H18.1z"/>
				<path class="st17" d="M23.7,33.1c-0.3-0.8-0.8-1.6-1.3-2.3h-4.3v3.4h4L23.7,33.1z"/>
				<path class="st18" d="M18.1,36.5h5.1l1.1-1.1c-0.1-0.8-0.3-1.5-0.6-2.3h-5.6h-5.6c-0.3,0.7-0.5,1.5-0.6,2.3l1.4,1.1H18.1z"/>
				<path class="st19" d="M24.3,35.4c-0.1-0.8-0.3-1.5-0.6-2.3h-5.6v3.4h5.1L24.3,35.4z"/>
				<path class="st16" d="M24.3,35.4h-6.2h-6.2c0,0.2,0,0.4,0,0.6c0,0.6,0.1,1.2,0.2,1.7l1.4,1.1h4.6h4.3l1.7-1.1
					c0.2-0.5,0.2-1.1,0.2-1.7C24.3,35.7,24.3,35.6,24.3,35.4L24.3,35.4z"/>
				<path class="st17" d="M24,37.6c0.2-0.5,0.2-1.1,0.2-1.7c0-0.2,0-0.4,0-0.6h-6.2v3.4h4.3L24,37.6z"/>
				<path class="st18" d="M12.1,37.6c0.2,0.8,0.6,1.6,1.2,2.3l2.5,1.2h2.3h2.3l2.5-1.2c0.5-0.7,0.9-1.4,1.2-2.3h-6H12.1z"/>
				<path class="st19" d="M22.9,39.9c0.5-0.7,0.9-1.4,1.2-2.3h-6V41h2.3L22.9,39.9z"/>
				<path class="st16" d="M13.3,39.9c1.1,1.4,2.9,2.3,4.8,2.3s3.6-0.9,4.8-2.3h-4.8H13.3z"/>
				<path class="st17" d="M22.9,39.9h-4.8v2.3C20,42.2,21.7,41.3,22.9,39.9z"/>
			</g>
		</g>
	</g>
	<path class="st20" d="M28.5,7.2c-3.5,0-6.3,2.8-6.3,6.3s2.8,6.3,6.3,6.3c3.5,0,6.3-2.8,6.3-6.3S32,7.2,28.5,7.2z M27.3,13.6
		l-2.7,2.7c-0.5-0.8-0.9-1.7-0.9-2.7c0-1,0.3-1.9,0.8-2.7L27.3,13.6z M25.8,9.7c0.8-0.5,1.7-0.8,2.7-0.8c1,0,1.9,0.3,2.7,0.9
		l-2.7,2.7L25.8,9.7z M28.5,14.7l2.7,2.7c-0.8,0.5-1.7,0.8-2.7,0.8c-1,0-1.9-0.3-2.7-0.9L28.5,14.7z M29.7,13.5l2.7-2.7
		c0.5,0.8,0.9,1.7,0.9,2.7c0,1-0.3,1.9-0.8,2.7L29.7,13.5z"/>
</g>
</svg>
