<?xml version="1.0" encoding="utf-8"?>
<!-- Generator: Adobe Illustrator 22.1.0, SVG Export Plug-In . SVG Version: 6.00 Build 0)  -->
<svg version="1.1" id="Capa_1" xmlns="http://www.w3.org/2000/svg" xmlns:xlink="http://www.w3.org/1999/xlink" x="0px" y="0px"
	 viewBox="0 0 57 68" style="enable-background:new 0 0 57 68;" xml:space="preserve">
<style type="text/css">
	.st0{fill:#FECF32;}
	.st1{fill:#E5B01A;}
	.st2{fill:#53433F;}
	.st3{fill:#3E322E;}
	.st4{fill:#FF9100;}
	.st5{fill:#FF641A;}
	.st6{fill:#725D57;}
	.st7{fill:#596C76;}
	.st8{fill:#465A61;}
	.st9{fill:#BF6015;}
	.st10{fill:#994C0F;}
	.st11{fill:#E08344;}
	.st12{fill:#D6702B;}
	.st13{fill:#FFE6B3;}
	.st14{fill:#FFF7CC;}
	.st15{fill:#EF3A47;}
</style>
<g>
	<path class="st0" d="M51,52.6L33.3,62.8c-3,1.7-6.7,1.7-9.6,0L6,52.6c-3-1.7-4.8-4.9-4.8-8.4V23.8c0-3.4,1.8-6.6,4.8-8.4L23.7,5.2
		c3-1.7,6.7-1.7,9.6,0L51,15.4c3,1.7,4.8,4.9,4.8,8.4v20.4C55.8,47.7,54,50.8,51,52.6z"/>
	<g>
		<g>
			<path class="st1" d="M18.1,29.7l-2.5-0.8c-0.1,0-0.2-0.1-0.3-0.2l-0.8-1.7h-1.6c-0.3,0-0.5-0.2-0.5-0.5s0.2-0.5,0.5-0.5h1.9
				c0.2,0,0.4,0.1,0.4,0.3l0.9,1.8l2.3,0.8c0.3,0.1,0.4,0.4,0.3,0.6C18.6,29.6,18.3,29.8,18.1,29.7L18.1,29.7z"/>
			<path class="st1" d="M12.4,33.4c-0.1-0.2,0-0.5,0.2-0.6l1.8-0.9l0.9-1.8c0.1-0.2,0.2-0.3,0.4-0.3h1.8c0.3,0,0.5,0.2,0.5,0.5
				s-0.2,0.5-0.5,0.5H16l-0.8,1.7c0,0.1-0.1,0.2-0.2,0.2l-1.9,1C12.8,33.8,12.5,33.7,12.4,33.4L12.4,33.4z"/>
			<g>
				<path class="st1" d="M20.5,29.4c-0.1-0.3,0.1-0.5,0.3-0.6l2.3-0.8l0.9-1.8c0.1-0.2,0.2-0.3,0.4-0.3h1.9c0.3,0,0.5,0.2,0.5,0.5
					s-0.2,0.5-0.5,0.5h-1.6l-0.8,1.7c-0.1,0.1-0.2,0.2-0.3,0.2l-2.5,0.8C20.9,29.8,20.6,29.6,20.5,29.4z"/>
				<path class="st1" d="M26.1,33.7l-1.9-1c-0.1,0-0.2-0.1-0.2-0.2l-0.8-1.7h-1.5c-0.3,0-0.5-0.2-0.5-0.5c0-0.3,0.2-0.5,0.5-0.5h1.8
					c0.2,0,0.4,0.1,0.4,0.3l0.9,1.8l1.8,0.9c0.2,0.1,0.3,0.4,0.2,0.6C26.7,33.7,26.4,33.8,26.1,33.7L26.1,33.7z"/>
				<path class="st1" d="M21.5,26.9c-0.2,0-0.4-0.1-0.5-0.3c-0.1-0.3,0-0.5,0.3-0.6c0.4-0.1,0.6-0.5,0.6-0.9c0-0.5-0.4-1-1-1
					c-0.3,0-0.5-0.2-0.5-0.5s0.2-0.5,0.5-0.5c1.1,0,1.9,0.9,1.9,1.9c0,0.8-0.5,1.6-1.3,1.8C21.6,26.8,21.6,26.9,21.5,26.9z"/>
			</g>
			<path class="st1" d="M17.7,26.9c-0.1,0-0.1,0-0.2,0c-0.8-0.3-1.3-1-1.3-1.8c0-1.1,0.9-1.9,1.9-1.9c0.3,0,0.5,0.2,0.5,0.5
				c0,0.3-0.2,0.5-0.5,0.5c-0.5,0-1,0.4-1,1c0,0.4,0.3,0.8,0.6,0.9c0.3,0.1,0.4,0.4,0.3,0.6C18,26.7,17.9,26.9,17.7,26.9z"/>
			<path class="st1" d="M20,27.1c-0.1-0.1-0.2-0.2-0.4-0.2c-0.1,0-0.3,0-0.4,0.2c-0.2,0.2-4,4.7-4,8c0,3.9,2.5,4.4,4.4,4.4
				c1.9,0,4.4-0.5,4.4-4.4C23.9,31.8,20.1,27.3,20,27.1z"/>
			<path class="st1" d="M23.9,35.2c0,3.9-2.5,4.4-4.4,4.4V26.9c0.1,0,0.3,0,0.4,0.2C20.1,27.3,23.9,31.8,23.9,35.2z"/>
			<path class="st1" d="M19.9,27.1c-0.1-0.1-0.2-0.1-0.3-0.1s-0.2,0-0.3,0.1c-0.1,0.1-2.1,1.9-2.1,4.2c0,2.5,1,4.4,2.4,4.4
				c1.4,0,2.4-1.9,2.4-4.4C22,29,20,27.1,19.9,27.1z"/>
			<path class="st1" d="M22,31.3c0,2.5-1,4.4-2.4,4.4v-8.7c0.1,0,0.2,0,0.3,0.1C20,27.1,22,29,22,31.3z"/>
			<path class="st1" d="M20.6,25h-1.9c-0.8,0-1.5,0.6-1.5,1.5c0,0.8,0.6,1.5,1.5,1.5h1.9c0.8,0,1.5-0.6,1.5-1.5
				C22,25.7,21.4,25,20.6,25z"/>
			<path class="st1" d="M22,26.5c0,0.8-0.6,1.5-1.5,1.5h-1V25h1C21.4,25,22,25.7,22,26.5z"/>
		</g>
		<g>
			<path class="st2" d="M18.1,29.1l-2.5-0.8c-0.1,0-0.2-0.1-0.3-0.2l-0.8-1.7h-1.6c-0.3,0-0.5-0.2-0.5-0.5c0-0.3,0.2-0.5,0.5-0.5
				h1.9c0.2,0,0.4,0.1,0.4,0.3l0.9,1.8l2.3,0.8c0.3,0.1,0.4,0.4,0.3,0.6C18.6,29.1,18.3,29.2,18.1,29.1L18.1,29.1z"/>
			<path class="st2" d="M12.4,32.9c-0.1-0.2,0-0.5,0.2-0.6l1.8-0.9l0.9-1.8c0.1-0.2,0.2-0.3,0.4-0.3h1.8c0.3,0,0.5,0.2,0.5,0.5
				c0,0.3-0.2,0.5-0.5,0.5H16l-0.8,1.7c0,0.1-0.1,0.2-0.2,0.2l-1.9,1C12.8,33.2,12.5,33.1,12.4,32.9L12.4,32.9z"/>
			<g>
				<path class="st3" d="M20.5,28.8c-0.1-0.3,0.1-0.5,0.3-0.6l2.3-0.8l0.9-1.8c0.1-0.2,0.2-0.3,0.4-0.3h1.9c0.3,0,0.5,0.2,0.5,0.5
					c0,0.3-0.2,0.5-0.5,0.5h-1.6L23.9,28c-0.1,0.1-0.2,0.2-0.3,0.2l-2.5,0.8C20.9,29.2,20.6,29.1,20.5,28.8z"/>
				<path class="st3" d="M26.1,33.1l-1.9-1c-0.1,0-0.2-0.1-0.2-0.2l-0.8-1.7h-1.5c-0.3,0-0.5-0.2-0.5-0.5c0-0.3,0.2-0.5,0.5-0.5h1.8
					c0.2,0,0.4,0.1,0.4,0.3l0.9,1.8l1.8,0.9c0.2,0.1,0.3,0.4,0.2,0.6C26.7,33.1,26.4,33.2,26.1,33.1L26.1,33.1z"/>
				<path class="st3" d="M21.5,26.3c-0.2,0-0.4-0.1-0.5-0.3c-0.1-0.3,0-0.5,0.3-0.6c0.4-0.1,0.6-0.5,0.6-0.9c0-0.5-0.4-1-1-1
					c-0.3,0-0.5-0.2-0.5-0.5c0-0.3,0.2-0.5,0.5-0.5c1.1,0,1.9,0.9,1.9,1.9c0,0.8-0.5,1.6-1.3,1.8C21.6,26.3,21.6,26.3,21.5,26.3z"/>
			</g>
			<path class="st2" d="M17.7,26.3c-0.1,0-0.1,0-0.2,0c-0.8-0.3-1.3-1-1.3-1.8c0-1.1,0.9-1.9,1.9-1.9c0.3,0,0.5,0.2,0.5,0.5
				c0,0.3-0.2,0.5-0.5,0.5c-0.5,0-1,0.4-1,1c0,0.4,0.3,0.8,0.6,0.9c0.3,0.1,0.4,0.4,0.3,0.6C18,26.2,17.9,26.3,17.7,26.3z"/>
			<path class="st4" d="M20,26.6c-0.1-0.1-0.2-0.2-0.4-0.2c-0.1,0-0.3,0-0.4,0.2c-0.2,0.2-4,4.7-4,8c0,3.9,2.5,4.4,4.4,4.4
				c1.9,0,4.4-0.5,4.4-4.4C23.9,31.3,20.1,26.7,20,26.6z"/>
			<path class="st5" d="M23.9,34.6c0,3.9-2.5,4.4-4.4,4.4V26.4c0.1,0,0.3,0,0.4,0.2C20.1,26.7,23.9,31.3,23.9,34.6z"/>
			<path class="st2" d="M19.9,26.5c-0.1-0.1-0.2-0.1-0.3-0.1s-0.2,0-0.3,0.1c-0.1,0.1-2.1,1.9-2.1,4.2c0,2.5,1,4.4,2.4,4.4
				c1.4,0,2.4-1.9,2.4-4.4C22,28.4,20,26.6,19.9,26.5z"/>
			<path class="st3" d="M22,30.7c0,2.5-1,4.4-2.4,4.4v-8.7c0.1,0,0.2,0,0.3,0.1C20,26.6,22,28.4,22,30.7z"/>
			<path class="st6" d="M20.6,24.4h-1.9c-0.8,0-1.5,0.6-1.5,1.5c0,0.8,0.6,1.5,1.5,1.5h1.9c0.8,0,1.5-0.6,1.5-1.5
				C22,25.1,21.4,24.4,20.6,24.4z"/>
			<path class="st2" d="M22,25.9c0,0.8-0.6,1.5-1.5,1.5h-1v-2.9h1C21.4,24.4,22,25.1,22,25.9z"/>
		</g>
	</g>
	<g>
		<g>
			<path class="st1" d="M27.5,42.8c-0.3,0-0.5-0.2-0.5-0.5v-0.1c0-0.8-0.7-1.5-1.5-1.5c-0.3,0-0.5-0.2-0.5-0.5s0.2-0.5,0.5-0.5
				c1.3,0,2.4,1.1,2.4,2.5v0.1C28,42.6,27.8,42.8,27.5,42.8z"/>
			<path class="st1" d="M29.5,42.8c-0.3,0-0.5-0.2-0.5-0.5v-0.1c0-1.3,1.1-2.5,2.4-2.5c0.3,0,0.5,0.2,0.5,0.5s-0.2,0.5-0.5,0.5
				c-0.8,0-1.5,0.7-1.5,1.5v0.1C30,42.6,29.7,42.8,29.5,42.8z"/>
			<path class="st1" d="M30.9,44.1c0,0.2,0,0.4-0.1,0.6h-4.7c-0.1-0.2-0.1-0.4-0.1-0.6c0-1.3,1.1-2.4,2.4-2.4S30.9,42.8,30.9,44.1z"
				/>
			<path class="st1" d="M30.9,44.1c0,0.2,0,0.4-0.1,0.6h-2.3v-3.1C29.8,41.7,30.9,42.8,30.9,44.1z"/>
			<g>
				<path class="st1" d="M22.3,55l-1-1.9c-0.1-0.1-0.1-0.3,0-0.4c0-0.1,0.1-0.2,0.3-0.3l2.3-1c0.2-0.1,0.5,0,0.6,0.3s0,0.5-0.3,0.6
					l-1.9,0.8l0.7,1.5c0.1,0.2,0,0.5-0.2,0.6C22.7,55.3,22.4,55.2,22.3,55L22.3,55z"/>
				<path class="st1" d="M20.5,50.4c-0.2-0.1-0.3-0.4-0.2-0.6l1-1.9c0.1-0.2,0.4-0.3,0.6-0.2l1.9,1c0.2,0.1,0.3,0.4,0.2,0.6
					c-0.1,0.2-0.4,0.3-0.6,0.2l-1.5-0.8l-0.8,1.5C21.1,50.4,20.8,50.5,20.5,50.4L20.5,50.4z"/>
				<path class="st1" d="M24.9,46.5l-2.4-1c-0.2-0.1-0.3-0.3-0.3-0.4v-1.9c0-0.3,0.2-0.5,0.5-0.5c0.3,0,0.5,0.2,0.5,0.5v1.6l2.1,0.8
					c0.2,0.1,0.4,0.4,0.3,0.6C25.4,46.5,25.1,46.6,24.9,46.5z"/>
			</g>
			<path class="st1" d="M34.1,55.2c-0.2-0.1-0.3-0.4-0.2-0.6l0.7-1.5l-1.9-0.8c-0.2-0.1-0.4-0.4-0.3-0.6s0.4-0.4,0.6-0.3l2.3,1
				c0.1,0.1,0.2,0.2,0.3,0.3c0,0.1,0,0.3,0,0.4l-1,1.9C34.6,55.2,34.3,55.3,34.1,55.2L34.1,55.2z"/>
			<path class="st1" d="M35.8,50.1l-0.8-1.5l-1.5,0.8c-0.2,0.1-0.5,0-0.6-0.2c-0.1-0.2,0-0.5,0.2-0.6l1.9-1c0.2-0.1,0.5,0,0.6,0.2
				l1,1.9c0.1,0.2,0,0.5-0.2,0.6C36.2,50.5,36,50.4,35.8,50.1L35.8,50.1z"/>
			<path class="st1" d="M31.5,46.2c-0.1-0.2,0-0.5,0.3-0.6l2.1-0.8v-1.6c0-0.3,0.2-0.5,0.5-0.5s0.5,0.2,0.5,0.5v1.9
				c0,0.2-0.1,0.4-0.3,0.4l-2.4,1C31.9,46.6,31.6,46.5,31.5,46.2L31.5,46.2z"/>
			<path class="st1" d="M27.5,56.3c-0.3,0-0.5-0.2-0.5-0.5v-1c0-0.3,0.2-0.5,0.5-0.5c0.3,0,0.5,0.2,0.5,0.5v1
				C28,56,27.8,56.3,27.5,56.3z"/>
			<path class="st1" d="M29.5,56.3c-0.3,0-0.5-0.2-0.5-0.5v-1c0-0.3,0.2-0.5,0.5-0.5c0.3,0,0.5,0.2,0.5,0.5v1
				C30,56,29.7,56.3,29.5,56.3z"/>
			<path class="st1" d="M28.5,46.5h2.4l1.3-1c-0.9-1.1-2.2-1.9-3.7-1.9s-2.7,0.8-3.7,1.9l1.3,1H28.5z"/>
			<path class="st1" d="M32.2,45.6c-0.9-1.1-2.2-1.9-3.7-1.9v2.9h2.4L32.2,45.6z"/>
			<path class="st1" d="M28.5,48.5h3.4l1.4-1c-0.3-0.7-0.7-1.4-1.1-1.9h-3.7h-3.7c-0.5,0.6-0.9,1.2-1.1,1.9l1.1,1H28.5z"/>
			<path class="st1" d="M33.3,47.5c-0.3-0.7-0.7-1.4-1.1-1.9h-3.7v2.9h3.4L33.3,47.5z"/>
			<path class="st1" d="M28.5,50.4h4.4l0.9-1c-0.1-0.6-0.2-1.3-0.5-1.9h-4.8h-4.8c-0.3,0.6-0.4,1.3-0.5,1.9l1.2,1H28.5z"/>
			<path class="st1" d="M33.8,49.4c-0.1-0.6-0.2-1.3-0.5-1.9h-4.8v2.9h4.4L33.8,49.4z"/>
			<path class="st1" d="M33.8,49.4h-5.3h-5.3c0,0.2,0,0.3,0,0.5c0,0.5,0.1,1,0.2,1.5l1.2,1h4h3.7l1.4-1c0.1-0.5,0.2-0.9,0.2-1.5
				C33.8,49.8,33.8,49.6,33.8,49.4L33.8,49.4z"/>
			<path class="st1" d="M33.6,51.4c0.1-0.5,0.2-0.9,0.2-1.5c0-0.2,0-0.3,0-0.5h-5.3v2.9h3.7L33.6,51.4z"/>
			<path class="st1" d="M23.4,51.4c0.2,0.7,0.6,1.4,1,1.9l2.1,1h2h2l2.1-1c0.5-0.6,0.8-1.2,1-1.9h-5.1H23.4z"/>
			<path class="st1" d="M32.6,53.3c0.5-0.6,0.8-1.2,1-1.9h-5.1v2.9h2L32.6,53.3z"/>
			<path class="st1" d="M24.4,53.3c1,1.2,2.5,2,4.1,2s3.1-0.8,4.1-2h-4.1H24.4z"/>
			<path class="st1" d="M32.6,53.3h-4.1v2C30.1,55.3,31.6,54.5,32.6,53.3z"/>
		</g>
		<g>
			<path class="st7" d="M27.5,42.3c-0.3,0-0.5-0.2-0.5-0.5v-0.1c0-0.8-0.7-1.5-1.5-1.5c-0.3,0-0.5-0.2-0.5-0.5s0.2-0.5,0.5-0.5
				c1.3,0,2.4,1.1,2.4,2.5v0.1C28,42,27.8,42.3,27.5,42.3z"/>
			<path class="st8" d="M29.5,42.3c-0.3,0-0.5-0.2-0.5-0.5v-0.1c0-1.3,1.1-2.5,2.4-2.5c0.3,0,0.5,0.2,0.5,0.5s-0.2,0.5-0.5,0.5
				c-0.8,0-1.5,0.7-1.5,1.5v0.1C30,42,29.7,42.3,29.5,42.3z"/>
			<path class="st9" d="M30.9,43.6c0,0.2,0,0.4-0.1,0.6h-4.7c-0.1-0.2-0.1-0.4-0.1-0.6c0-1.3,1.1-2.4,2.4-2.4S30.9,42.2,30.9,43.6z"
				/>
			<path class="st10" d="M30.9,43.6c0,0.2,0,0.4-0.1,0.6h-2.3v-3.1C29.8,41.1,30.9,42.2,30.9,43.6z"/>
			<g>
				<path class="st7" d="M22.3,54.4l-1-1.9c-0.1-0.1-0.1-0.3,0-0.4c0-0.1,0.1-0.2,0.3-0.3l2.3-1c0.2-0.1,0.5,0,0.6,0.3
					s0,0.5-0.3,0.6l-1.9,0.8l0.7,1.5c0.1,0.2,0,0.5-0.2,0.6C22.7,54.8,22.4,54.7,22.3,54.4L22.3,54.4z"/>
				<path class="st7" d="M20.5,49.8c-0.2-0.1-0.3-0.4-0.2-0.6l1-1.9c0.1-0.2,0.4-0.3,0.6-0.2l1.9,1c0.2,0.1,0.3,0.4,0.2,0.6
					c-0.1,0.2-0.4,0.3-0.6,0.2l-1.5-0.8l-0.8,1.5C21.1,49.8,20.8,49.9,20.5,49.8L20.5,49.8z"/>
				<path class="st7" d="M24.9,45.9l-2.4-1c-0.2-0.1-0.3-0.3-0.3-0.4v-1.9c0-0.3,0.2-0.5,0.5-0.5c0.3,0,0.5,0.2,0.5,0.5v1.6l2.1,0.8
					c0.2,0.1,0.4,0.4,0.3,0.6C25.4,45.9,25.1,46,24.9,45.9z"/>
			</g>
			<path class="st8" d="M34.1,54.6c-0.2-0.1-0.3-0.4-0.2-0.6l0.7-1.5l-1.9-0.8c-0.2-0.1-0.4-0.4-0.3-0.6s0.4-0.4,0.6-0.3l2.3,1
				c0.1,0.1,0.2,0.2,0.3,0.3c0,0.1,0,0.3,0,0.4l-1,1.9C34.6,54.7,34.3,54.8,34.1,54.6L34.1,54.6z"/>
			<path class="st8" d="M35.8,49.6l-0.8-1.5l-1.5,0.8c-0.2,0.1-0.5,0-0.6-0.2c-0.1-0.2,0-0.5,0.2-0.6l1.9-1c0.2-0.1,0.5,0,0.6,0.2
				l1,1.9c0.1,0.2,0,0.5-0.2,0.6C36.2,49.9,36,49.8,35.8,49.6L35.8,49.6z"/>
			<path class="st8" d="M31.5,45.7c-0.1-0.2,0-0.5,0.3-0.6l2.1-0.8v-1.6c0-0.3,0.2-0.5,0.5-0.5s0.5,0.2,0.5,0.5v1.9
				c0,0.2-0.1,0.4-0.3,0.4l-2.4,1C31.9,46,31.6,45.9,31.5,45.7L31.5,45.7z"/>
			<path class="st7" d="M27.5,55.7c-0.3,0-0.5-0.2-0.5-0.5v-1c0-0.3,0.2-0.5,0.5-0.5c0.3,0,0.5,0.2,0.5,0.5v1
				C28,55.5,27.8,55.7,27.5,55.7z"/>
			<path class="st8" d="M29.5,55.7c-0.3,0-0.5-0.2-0.5-0.5v-1c0-0.3,0.2-0.5,0.5-0.5c0.3,0,0.5,0.2,0.5,0.5v1
				C30,55.5,29.7,55.7,29.5,55.7z"/>
			<path class="st11" d="M28.5,46h2.4l1.3-1c-0.9-1.1-2.2-1.9-3.7-1.9s-2.7,0.8-3.7,1.9l1.3,1H28.5z"/>
			<path class="st12" d="M32.2,45c-0.9-1.1-2.2-1.9-3.7-1.9V46h2.4L32.2,45z"/>
			<path class="st9" d="M28.5,47.9h3.4l1.4-1c-0.3-0.7-0.7-1.4-1.1-1.9h-3.7h-3.7c-0.5,0.6-0.9,1.2-1.1,1.9l1.1,1H28.5z"/>
			<path class="st10" d="M33.3,47c-0.3-0.7-0.7-1.4-1.1-1.9h-3.7v2.9h3.4L33.3,47z"/>
			<path class="st11" d="M28.5,49.9h4.4l0.9-1c-0.1-0.6-0.2-1.3-0.5-1.9h-4.8h-4.8c-0.3,0.6-0.4,1.3-0.5,1.9l1.2,1H28.5z"/>
			<path class="st12" d="M33.8,48.9c-0.1-0.6-0.2-1.3-0.5-1.9h-4.8v2.9h4.4L33.8,48.9z"/>
			<path class="st9" d="M33.8,48.9h-5.3h-5.3c0,0.2,0,0.3,0,0.5c0,0.5,0.1,1,0.2,1.5l1.2,1h4h3.7l1.4-1c0.1-0.5,0.2-0.9,0.2-1.5
				C33.8,49.2,33.8,49,33.8,48.9L33.8,48.9z"/>
			<path class="st10" d="M33.6,50.8c0.1-0.5,0.2-0.9,0.2-1.5c0-0.2,0-0.3,0-0.5h-5.3v2.9h3.7L33.6,50.8z"/>
			<path class="st11" d="M23.4,50.8c0.2,0.7,0.6,1.4,1,1.9l2.1,1h2h2l2.1-1c0.5-0.6,0.8-1.2,1-1.9h-5.1H23.4z"/>
			<path class="st12" d="M32.6,52.8c0.5-0.6,0.8-1.2,1-1.9h-5.1v2.9h2L32.6,52.8z"/>
			<path class="st9" d="M24.4,52.8c1,1.2,2.5,2,4.1,2s3.1-0.8,4.1-2h-4.1H24.4z"/>
			<path class="st10" d="M32.6,52.8h-4.1v2C30.1,54.7,31.6,53.9,32.6,52.8z"/>
		</g>
	</g>
	<g>
		<g>
			<path class="st1" d="M38.1,25.9v-2.4c0-0.3-0.2-0.5-0.5-0.5s-0.5,0.2-0.5,0.5v2.4c-0.5,0.2-0.9,0.7-0.9,1.3
				c0,0.8,0.6,1.4,1.4,1.4c0.8,0,1.4-0.6,1.4-1.4C39,26.6,38.6,26.1,38.1,25.9z"/>
			<path class="st1" d="M36.3,29.4l-1.9-1.9c-0.1-0.1-0.1-0.2-0.1-0.3v-2.5l-1.6-0.8c-0.2-0.1-0.3-0.4-0.2-0.6
				c0.1-0.2,0.4-0.3,0.6-0.2L35,24c0.2,0.1,0.3,0.2,0.3,0.4V27l1.7,1.7c0.2,0.2,0.2,0.5,0,0.7C36.8,29.6,36.5,29.6,36.3,29.4
				L36.3,29.4z"/>
			<g>
				<path class="st1" d="M38.2,29.4c-0.2-0.2-0.2-0.5,0-0.7L40,27v-2.6c0-0.2,0.1-0.3,0.3-0.4l1.9-0.9c0.2-0.1,0.5,0,0.6,0.2
					c0.1,0.2,0,0.5-0.2,0.6l-1.6,0.8v2.5c0,0.1,0,0.2-0.1,0.3l-1.9,1.9C38.7,29.6,38.4,29.6,38.2,29.4L38.2,29.4z"/>
				<path class="st1" d="M43.8,37.9L42,36c-0.1-0.1-0.1-0.2-0.1-0.3v-1.5l-3.4-0.8c-0.3-0.1-0.4-0.3-0.3-0.6
					c0.1-0.3,0.3-0.4,0.6-0.3l3.8,0.9c0.2,0.1,0.4,0.2,0.4,0.5v1.7l1.7,1.8c0.2,0.2,0.2,0.5,0,0.7C44.3,38.1,44,38.1,43.8,37.9
					L43.8,37.9z"/>
				<path class="st1" d="M42,38.9l-1.9-1.9C40,36.8,40,36.7,40,36.6v-1.7l-1.7-1.7c-0.2-0.2-0.2-0.5,0-0.7s0.5-0.2,0.7,0l1.9,1.9
					c0.1,0.1,0.1,0.2,0.1,0.3v1.7l1.7,1.8c0.2,0.2,0.2,0.5,0,0.7C42.4,39,42.2,39,42,38.9L42,38.9z"/>
				<path class="st1" d="M38.1,25.9v-2.4c0-0.3-0.2-0.5-0.5-0.5v2.8v0.9v1.9c0.8,0,1.4-0.6,1.4-1.4C39,26.6,38.6,26.1,38.1,25.9z"/>
			</g>
			<path class="st1" d="M37.6,27.7c-0.8,0-1.4,0.6-1.4,1.4V30c0,0.8,0.6,1.4,1.4,1.4c0.8,0,1.4-0.6,1.4-1.4v-0.9
				C39,28.3,38.4,27.7,37.6,27.7z"/>
			<path class="st1" d="M39,29.1V30c0,0.8-0.6,1.4-1.4,1.4v-3.8C38.4,27.7,39,28.3,39,29.1z"/>
			<path class="st1" d="M44.2,31.4h-3.8c-1.3,0-2.3-1.1-2.3-2.3c0-0.3,0.2-0.5,0.5-0.5h5.7c0.8,0,1.4,0.6,1.4,1.4S45,31.4,44.2,31.4
				z"/>
			<path class="st1" d="M34.8,31.4H31c-0.8,0-1.4-0.6-1.4-1.4s0.6-1.4,1.4-1.4h5.7c0.3,0,0.5,0.2,0.5,0.5
				C37.1,30.4,36.1,31.4,34.8,31.4z"/>
			<path class="st1" d="M30.7,37.9c-0.2-0.2-0.2-0.5,0-0.7l1.7-1.8v-1.7c0-0.2,0.1-0.4,0.4-0.5l3.8-0.9c0.2-0.1,0.5,0.1,0.6,0.3
				c0.1,0.3-0.1,0.5-0.3,0.6l-3.4,0.8v1.5c0,0.1,0,0.2-0.1,0.3l-1.9,1.9C31.2,38.1,30.9,38.1,30.7,37.9L30.7,37.9z"/>
			<path class="st1" d="M32.6,38.9c-0.2-0.2-0.2-0.5,0-0.7l1.7-1.8v-1.7c0-0.1,0-0.2,0.1-0.3l1.9-1.9c0.2-0.2,0.5-0.2,0.7,0
				s0.2,0.5,0,0.7l-1.7,1.7v1.7c0,0.1,0,0.2-0.1,0.3l-1.9,1.9C33.1,39,32.8,39,32.6,38.9z"/>
			<path class="st1" d="M38.5,34.7L38.5,34.7L38.5,34.7z M37.6,30.5c-0.8,0-1.4,0.6-1.4,1.4v2.8c0,0.1,0,0.1,0,0.2l0.9,1.9
				c0.1,0.2,0.2,0.3,0.4,0.3s0.3-0.1,0.4-0.3l0.9-1.9c0-0.1,0-0.1,0-0.2v-2.8C39,31.1,38.4,30.5,37.6,30.5z"/>
			<path class="st1" d="M39,31.9v2.8c0,0.1,0,0.1,0,0.2L38,36.8c-0.1,0.2-0.2,0.3-0.4,0.3v-6.6C38.4,30.5,39,31.1,39,31.9z"/>
		</g>
		<g>
			<path class="st2" d="M38.1,25.4v-2.4c0-0.3-0.2-0.5-0.5-0.5s-0.5,0.2-0.5,0.5v2.4c-0.5,0.2-0.9,0.7-0.9,1.3
				c0,0.8,0.6,1.4,1.4,1.4c0.8,0,1.4-0.6,1.4-1.4C39,26.1,38.6,25.6,38.1,25.4z"/>
			<path class="st2" d="M36.3,28.9L34.5,27c-0.1-0.1-0.1-0.2-0.1-0.3v-2.5l-1.6-0.8c-0.2-0.1-0.3-0.4-0.2-0.6
				c0.1-0.2,0.4-0.3,0.6-0.2l1.9,0.9c0.2,0.1,0.3,0.2,0.3,0.4v2.6l1.7,1.7c0.2,0.2,0.2,0.5,0,0.7C36.8,29.1,36.5,29.1,36.3,28.9
				L36.3,28.9z"/>
			<g>
				<path class="st3" d="M38.2,28.9c-0.2-0.2-0.2-0.5,0-0.7l1.7-1.7v-2.6c0-0.2,0.1-0.3,0.3-0.4l1.9-0.9c0.2-0.1,0.5,0,0.6,0.2
					c0.1,0.2,0,0.5-0.2,0.6l-1.6,0.8v2.5c0,0.1,0,0.2-0.1,0.3l-1.9,1.9C38.7,29.1,38.4,29.1,38.2,28.9L38.2,28.9z"/>
				<path class="st3" d="M43.8,37.4L42,35.5c-0.1-0.1-0.1-0.2-0.1-0.3v-1.5l-3.4-0.8c-0.3-0.1-0.4-0.3-0.3-0.6
					c0.1-0.3,0.3-0.4,0.6-0.3l3.8,0.9c0.2,0.1,0.4,0.2,0.4,0.5v1.7l1.7,1.8c0.2,0.2,0.2,0.5,0,0.7C44.3,37.6,44,37.6,43.8,37.4
					L43.8,37.4z"/>
				<path class="st3" d="M42,38.3l-1.9-1.9C40,36.3,40,36.2,40,36.1v-1.7l-1.7-1.7c-0.2-0.2-0.2-0.5,0-0.7s0.5-0.2,0.7,0l1.9,1.9
					c0.1,0.1,0.1,0.2,0.1,0.3v1.7l1.7,1.8c0.2,0.2,0.2,0.5,0,0.7C42.4,38.5,42.2,38.5,42,38.3L42,38.3z"/>
				<path class="st3" d="M38.1,25.4v-2.4c0-0.3-0.2-0.5-0.5-0.5v2.8v0.9v1.9c0.8,0,1.4-0.6,1.4-1.4C39,26.1,38.6,25.6,38.1,25.4z"/>
			</g>
			<path class="st6" d="M37.6,27.2c-0.8,0-1.4,0.6-1.4,1.4v0.9c0,0.8,0.6,1.4,1.4,1.4c0.8,0,1.4-0.6,1.4-1.4v-0.9
				C39,27.8,38.4,27.2,37.6,27.2z"/>
			<path class="st2" d="M39,28.6v0.9c0,0.8-0.6,1.4-1.4,1.4v-3.8C38.4,27.2,39,27.8,39,28.6z"/>
			<path class="st13" d="M44.2,30.9h-3.8c-1.3,0-2.3-1.1-2.3-2.3c0-0.3,0.2-0.5,0.5-0.5h5.7c0.8,0,1.4,0.6,1.4,1.4
				S45,30.9,44.2,30.9z"/>
			<path class="st14" d="M34.8,30.9H31c-0.8,0-1.4-0.6-1.4-1.4s0.6-1.4,1.4-1.4h5.7c0.3,0,0.5,0.2,0.5,0.5
				C37.1,29.9,36.1,30.9,34.8,30.9z"/>
			<path class="st2" d="M30.7,37.4c-0.2-0.2-0.2-0.5,0-0.7l1.7-1.8v-1.7c0-0.2,0.1-0.4,0.4-0.5l3.8-0.9c0.2-0.1,0.5,0.1,0.6,0.3
				c0.1,0.3-0.1,0.5-0.3,0.6l-3.4,0.8v1.5c0,0.1,0,0.2-0.1,0.3l-1.9,1.9C31.2,37.6,30.9,37.6,30.7,37.4L30.7,37.4z"/>
			<path class="st2" d="M32.6,38.3c-0.2-0.2-0.2-0.5,0-0.7l1.7-1.8v-1.7c0-0.1,0-0.2,0.1-0.3l1.9-1.9c0.2-0.2,0.5-0.2,0.7,0
				s0.2,0.5,0,0.7l-1.7,1.7v1.7c0,0.1,0,0.2-0.1,0.3l-1.9,1.9C33.1,38.5,32.8,38.5,32.6,38.3z"/>
			<path class="st4" d="M38.5,34.2L38.5,34.2L38.5,34.2z M37.6,30c-0.8,0-1.4,0.6-1.4,1.4v2.8c0,0.1,0,0.1,0,0.2l0.9,1.9
				c0.1,0.2,0.2,0.3,0.4,0.3s0.3-0.1,0.4-0.3l0.9-1.9c0-0.1,0-0.1,0-0.2v-2.8C39,30.6,38.4,30,37.6,30z"/>
			<path class="st5" d="M39,31.4v2.8c0,0.1,0,0.1,0,0.2L38,36.3c-0.1,0.2-0.2,0.3-0.4,0.3V30C38.4,30,39,30.6,39,31.4z"/>
		</g>
	</g>
	<path class="st15" d="M28.5,7.2c-3.5,0-6.3,2.8-6.3,6.3s2.8,6.3,6.3,6.3c3.5,0,6.3-2.8,6.3-6.3S32,7.2,28.5,7.2z M27.3,13.6
		l-2.7,2.7c-0.5-0.8-0.9-1.7-0.9-2.7c0-1,0.3-1.9,0.8-2.7L27.3,13.6z M25.8,9.7c0.8-0.5,1.7-0.8,2.7-0.8c1,0,1.9,0.3,2.7,0.9
		l-2.7,2.7L25.8,9.7z M28.5,14.7l2.7,2.7c-0.8,0.5-1.7,0.8-2.7,0.8c-1,0-1.9-0.3-2.7-0.9L28.5,14.7z M29.7,13.5l2.7-2.7
		c0.5,0.8,0.9,1.7,0.9,2.7c0,1-0.3,1.9-0.8,2.7L29.7,13.5z"/>
</g>
</svg>
