<?xml version="1.0" encoding="UTF-8"?>
<svg xmlns="http://www.w3.org/2000/svg" xmlns:xlink="http://www.w3.org/1999/xlink" width="57pt" height="68pt" viewBox="0 0 57 68" version="1.1">
<g id="surface1">
<path style=" stroke:none;fill-rule:nonzero;fill:rgb(100%,47.843137%,32.54902%);fill-opacity:1;" d="M 51 52.699219 L 33.300781 62.898438 C 30.300781 64.601562 26.601562 64.601562 23.699219 62.898438 L 6 52.699219 C 3 51 1.199219 47.800781 1.199219 44.300781 L 1.199219 23.898438 C 1.199219 20.5 3 17.300781 6 15.5 L 23.699219 5.300781 C 26.699219 3.601562 30.398438 3.601562 33.300781 5.300781 L 51 15.5 C 54 17.199219 55.800781 20.398438 55.800781 23.898438 L 55.800781 44.300781 C 55.800781 47.800781 54 51 51 52.699219 Z M 51 52.699219 "/>
<path style=" stroke:none;fill-rule:nonzero;fill:rgb(62.352941%,85.490196%,98.823529%);fill-opacity:1;" d="M 43.101562 17 L 43.101562 10.898438 L 13.898438 10.898438 L 13.898438 17 C 13.898438 23.699219 18.398438 29.398438 24.601562 31.101562 C 25.5 31.398438 26.199219 32.199219 26.199219 33.199219 C 26.199219 34.199219 25.601562 35 24.601562 35.300781 C 18.398438 37 13.898438 42.699219 13.898438 49.398438 L 13.898438 55.5 L 43.199219 55.5 L 43.199219 49.398438 C 43.199219 42.699219 38.699219 37 32.5 35.300781 C 31.601562 35 30.898438 34.199219 30.898438 33.199219 C 30.898438 32.199219 31.5 31.398438 32.5 31.101562 C 38.601562 29.5 43.101562 23.800781 43.101562 17 "/>
<path style=" stroke:none;fill-rule:nonzero;fill:rgb(94.117647%,62.745098%,21.568627%);fill-opacity:1;" d="M 40.898438 17.800781 C 40.898438 23.398438 37.199219 28.300781 31.800781 29.800781 C 30.5 30.199219 29.398438 30.800781 28.5 31.699219 C 27.601562 30.800781 26.5 30.101562 25.199219 29.800781 C 23.101562 29.199219 21.300781 28.101562 19.800781 26.699219 C 17.5 24.398438 16.101562 21.300781 16.101562 17.898438 C 16.898438 18.101562 17.601562 18.398438 18.398438 18.601562 C 19.601562 18.898438 20.898438 19.199219 22.101562 19.398438 C 24.199219 19.699219 26.398438 19.898438 28.5 19.898438 C 32.699219 19.800781 36.898438 19.199219 40.898438 17.800781 Z M 40.898438 17.800781 "/>
<path style=" stroke:none;fill-rule:nonzero;fill:rgb(87.843137%,56.862745%,19.607843%);fill-opacity:1;" d="M 28.5 31.699219 C 27.601562 30.800781 26.5 30.101562 25.199219 29.800781 C 23.101562 29.199219 21.300781 28.101562 19.800781 26.699219 C 17.5 24.398438 16.101562 21.300781 16.101562 17.898438 C 16.898438 18.101562 17.601562 18.398438 18.398438 18.601562 C 19.601562 18.898438 20.898438 19.199219 22.101562 19.398438 C 22.101562 19.5 21.601562 24.5 25.199219 28 C 27.398438 30.101562 28.5 31.699219 28.5 31.699219 Z M 28.5 31.699219 "/>
<path style=" stroke:none;fill-rule:nonzero;fill:rgb(94.117647%,62.745098%,21.568627%);fill-opacity:1;" d="M 28.5 46.199219 L 19.898438 53.800781 L 18 55.601562 L 39 55.601562 Z M 28.5 46.199219 "/>
<path style=" stroke:none;fill-rule:nonzero;fill:rgb(87.843137%,56.862745%,19.607843%);fill-opacity:1;" d="M 28.5 46.199219 L 24.5 56.699219 L 18 55.601562 Z M 28.5 46.199219 "/>
<path style=" stroke:none;fill-rule:nonzero;fill:rgb(84.313725%,90.196078%,92.54902%);fill-opacity:1;" d="M 19.898438 55.601562 L 13.800781 55.601562 L 19.898438 55.601562 M 25.300781 35 C 25.199219 35.101562 25.101562 35.101562 25.101562 35.101562 C 25.101562 35.101562 25.199219 35.101562 25.300781 35 M 25.300781 35 L 25.300781 35 M 25.5 31.601562 C 25.898438 32 26.199219 32.601562 26.199219 33.199219 C 26.199219 33.5 26.101562 33.800781 26 34.101562 C 26.101562 33.800781 26.199219 33.5 26.199219 33.199219 C 26.199219 32.601562 25.898438 32 25.5 31.601562 M 19.898438 10.898438 L 13.800781 10.898438 L 19.898438 10.898438 "/>
<path style=" stroke:none;fill-rule:nonzero;fill:rgb(57.254902%,80%,91.764706%);fill-opacity:1;" d="M 19.898438 10.898438 L 13.800781 10.898438 L 13.800781 17 C 13.800781 23.699219 18.300781 29.398438 24.5 31.101562 C 24.800781 31.199219 25.101562 31.398438 25.398438 31.601562 C 25.800781 32 26.101562 32.601562 26.101562 33.199219 C 26.101562 33.5 26 33.800781 25.898438 34.101562 C 25.800781 34.199219 25.800781 34.398438 25.699219 34.5 C 25.601562 34.699219 25.398438 34.800781 25.199219 35 C 25.101562 35.101562 25 35.101562 25 35.101562 C 24.898438 35.199219 24.699219 35.199219 24.601562 35.300781 C 18.398438 37 13.898438 42.699219 13.898438 49.398438 L 13.898438 55.5 L 20 55.5 L 18 55.5 L 19.898438 53.800781 L 19.898438 49.398438 C 19.898438 42.699219 22.601562 37 26.199219 35.300781 C 26.5 35.199219 26.699219 34.898438 26.898438 34.5 C 27.101562 34.101562 27.199219 33.699219 27.199219 33.199219 C 27.199219 32.199219 26.800781 31.398438 26.300781 31.101562 C 25.398438 30.699219 24.601562 30.101562 23.898438 29.300781 C 22.398438 28.699219 21 27.800781 19.800781 26.601562 C 17.5 24.300781 16.101562 21.199219 16.101562 17.800781 C 16.898438 18 17.601562 18.300781 18.398438 18.5 C 18.898438 18.601562 19.5 18.800781 20 18.898438 C 20 18.300781 19.898438 17.699219 19.898438 17 L 19.898438 10.898438 "/>
<path style=" stroke:none;fill-rule:nonzero;fill:rgb(82.745098%,51.764706%,18.431373%);fill-opacity:1;" d="M 16.101562 17.800781 C 16.101562 21.199219 17.5 24.398438 19.800781 26.601562 C 20.898438 27.699219 22.300781 28.699219 23.898438 29.300781 C 21.800781 27 20.398438 23.199219 20.101562 18.898438 C 19.601562 18.800781 19 18.699219 18.5 18.5 C 17.601562 18.300781 16.898438 18.101562 16.101562 17.800781 "/>
<path style=" stroke:none;fill-rule:nonzero;fill:rgb(82.745098%,51.764706%,18.431373%);fill-opacity:1;" d="M 19.898438 53.800781 L 18 55.601562 L 19.898438 55.601562 L 19.898438 53.800781 "/>
<path style=" stroke:none;fill-rule:nonzero;fill:rgb(80.392157%,92.54902%,99.215686%);fill-opacity:1;" d="M 33 36.300781 C 32.101562 36.300781 31.601562 37.300781 32.199219 38 C 34.199219 40.699219 35.398438 44.800781 35.398438 49.5 L 35.398438 52.398438 L 39 55.601562 L 35.398438 55.601562 L 41.5 55.601562 L 41.5 49.5 C 41.5 43.800781 38.199219 38.898438 33.5 36.398438 C 33.300781 36.300781 33.199219 36.300781 33 36.300781 "/>
<path style=" stroke:none;fill-rule:nonzero;fill:rgb(97.647059%,69.411765%,35.294118%);fill-opacity:1;" d="M 35.398438 52.300781 L 35.398438 55.601562 L 39 55.601562 L 35.398438 52.300781 "/>
<path style=" stroke:none;fill-rule:nonzero;fill:rgb(80.392157%,92.54902%,99.215686%);fill-opacity:1;" d="M 41.5 10.898438 L 35.398438 10.898438 L 35.398438 17 C 35.398438 17.699219 35.398438 18.5 35.300781 19.199219 C 37.199219 18.898438 39.101562 18.398438 40.898438 17.800781 C 40.898438 23.300781 37.300781 28.101562 32.101562 29.699219 C 32.300781 30 32.601562 30.199219 33 30.199219 C 33.199219 30.199219 33.300781 30.199219 33.5 30.101562 C 38.300781 27.699219 41.5 22.699219 41.5 17 L 41.5 10.898438 "/>
<path style=" stroke:none;fill-rule:nonzero;fill:rgb(97.647059%,69.411765%,35.294118%);fill-opacity:1;" d="M 40.898438 17.800781 C 39.101562 18.398438 37.199219 18.898438 35.300781 19.199219 C 35 22.898438 33.800781 26.199219 32.199219 28.5 C 31.898438 28.898438 31.898438 29.300781 32.101562 29.699219 C 37.300781 28.101562 40.898438 23.300781 40.898438 17.800781 "/>
<path style=" stroke:none;fill-rule:nonzero;fill:rgb(19.607843%,66.666667%,80.784314%);fill-opacity:1;" d="M 10.101562 3.800781 L 46.898438 3.800781 L 46.898438 11.101562 L 10.101562 11.101562 Z M 10.101562 3.800781 "/>
<path style=" stroke:none;fill-rule:nonzero;fill:rgb(16.470588%,63.137255%,73.72549%);fill-opacity:1;" d="M 10.101562 3.800781 L 15.898438 3.800781 L 15.898438 11.101562 L 10.101562 11.101562 Z M 10.101562 3.800781 "/>
<path style=" stroke:none;fill-rule:nonzero;fill:rgb(19.607843%,66.666667%,80.784314%);fill-opacity:1;" d="M 23.699219 62.898438 C 26.699219 64.601562 30.398438 64.601562 33.300781 62.898438 L 46.300781 55.398438 L 10.699219 55.398438 Z M 23.699219 62.898438 "/>
<path style=" stroke:none;fill-rule:nonzero;fill:rgb(16.470588%,63.137255%,73.72549%);fill-opacity:1;" d="M 15.898438 58.398438 L 15.898438 55.398438 L 10.699219 55.398438 Z M 15.898438 58.398438 "/>
</g>
</svg>
