<?xml version="1.0" encoding="UTF-8"?>
<svg xmlns="http://www.w3.org/2000/svg" xmlns:xlink="http://www.w3.org/1999/xlink" width="57pt" height="68pt" viewBox="0 0 57 68" version="1.1">
<g id="surface1">
<path style=" stroke:none;fill-rule:nonzero;fill:rgb(21.176471%,32.941176%,65.882353%);fill-opacity:1;" d="M 51 52.601562 L 33.300781 62.800781 C 30.300781 64.5 26.601562 64.5 23.699219 62.800781 L 6 52.601562 C 3 50.898438 1.199219 47.699219 1.199219 44.199219 L 1.199219 23.800781 C 1.199219 20.398438 3 17.199219 6 15.398438 L 23.699219 5.199219 C 26.699219 3.5 30.398438 3.5 33.300781 5.199219 L 51 15.398438 C 54 17.101562 55.800781 20.300781 55.800781 23.800781 L 55.800781 44.199219 C 55.800781 47.699219 54 50.800781 51 52.601562 Z M 51 52.601562 "/>
<path style=" stroke:none;fill-rule:nonzero;fill:rgb(100%,35.686275%,27.843137%);fill-opacity:1;" d="M 16.300781 9.398438 C 24 10.5 29.699219 15.101562 29 19.699219 C 28.601562 22.699219 25.5 25 21.398438 25.898438 C 19.199219 26.398438 16.601562 26.5 13.898438 26.101562 C 6.199219 25 0.5 20.398438 1.101562 15.699219 C 1.800781 11.101562 8.601562 8.300781 16.300781 9.398438 Z M 16.300781 9.398438 "/>
<path style=" stroke:none;fill-rule:nonzero;fill:rgb(89.803922%,24.313725%,17.647059%);fill-opacity:1;" d="M 7 12.199219 C 6.800781 12.601562 6.601562 13 6.5 13.5 C 6.101562 16.5 9.800781 19.5 14.699219 20.199219 C 19.699219 20.898438 24 19.101562 24.5 16.101562 C 24.601562 15.601562 24.5 15.199219 24.398438 14.699219 C 23.101562 16.898438 19.300781 18.101562 15.101562 17.5 C 10.898438 16.898438 7.601562 14.699219 7 12.199219 Z M 7 12.199219 "/>
<path style=" stroke:none;fill-rule:nonzero;fill:rgb(89.803922%,24.313725%,17.647059%);fill-opacity:1;" d="M 16.300781 9.398438 C 24 10.5 29.699219 15.101562 29 19.699219 C 28.601562 22.699219 25.5 25 21.398438 25.898438 C 25.199219 23.101562 21.101562 19.601562 21.101562 19.601562 L 20.699219 17.199219 C 23.601562 14.101562 16.300781 9.398438 16.300781 9.398438 Z M 16.300781 9.398438 "/>
<path style=" stroke:none;fill-rule:nonzero;fill:rgb(100%,35.686275%,27.843137%);fill-opacity:1;" d="M 1.101562 29 L 1.101562 44.300781 C 1.101562 44.699219 1.101562 45.101562 1.199219 45.601562 C 2.199219 45.5 3.199219 45.398438 4.199219 45.199219 C 8.398438 44.300781 11.398438 42 11.800781 39 C 12.398438 34.699219 7.800781 30.5 1.101562 29 Z M 1.101562 29 "/>
<path style=" stroke:none;fill-rule:nonzero;fill:rgb(89.803922%,24.313725%,17.647059%);fill-opacity:1;" d="M 1.101562 29 L 1.101562 30.199219 C 3 31.800781 5.300781 34.5 3.5 36.5 C 2.800781 36.699219 2 36.800781 1.101562 36.898438 L 1.101562 39.5 C 2.101562 39.398438 3.101562 39.199219 3.898438 38.898438 C 3.898438 38.898438 7.898438 42.398438 4.199219 45.199219 C 8.398438 44.300781 11.398438 42 11.800781 39 C 12.398438 34.699219 7.800781 30.5 1.101562 29 Z M 1.101562 29 "/>
<path style=" stroke:none;fill-rule:nonzero;fill:rgb(100%,35.686275%,27.843137%);fill-opacity:1;" d="M 26.699219 35.601562 C 32.699219 30.601562 39.898438 29.5 42.898438 33.101562 C 44.800781 35.398438 44.5 39.199219 42.300781 42.898438 C 41.199219 44.898438 39.5 46.800781 37.398438 48.601562 C 31.398438 53.601562 24.199219 54.699219 21.199219 51.101562 C 18.300781 47.5 20.699219 40.601562 26.699219 35.601562 Z M 26.699219 35.601562 "/>
<path style=" stroke:none;fill-rule:nonzero;fill:rgb(89.803922%,24.313725%,17.647059%);fill-opacity:1;" d="M 22.5 44.398438 C 22.601562 44.800781 22.800781 45.300781 23.101562 45.601562 C 25 47.898438 29.699219 47.199219 33.601562 44 C 37.5 40.800781 39 36.300781 37.101562 34 C 36.800781 33.601562 36.398438 33.398438 36 33.101562 C 36.699219 35.601562 35.101562 39.199219 31.800781 41.898438 C 28.699219 44.699219 24.800781 45.601562 22.5 44.398438 Z M 22.5 44.398438 "/>
<path style=" stroke:none;fill-rule:nonzero;fill:rgb(89.803922%,24.313725%,17.647059%);fill-opacity:1;" d="M 26.699219 35.601562 C 32.699219 30.601562 39.898438 29.5 42.898438 33.101562 C 44.800781 35.398438 44.5 39.199219 42.300781 42.898438 C 42.699219 38.199219 37.5 38.898438 37.5 38.898438 L 35.5 37.601562 C 35.101562 33.398438 26.699219 35.601562 26.699219 35.601562 Z M 26.699219 35.601562 "/>
<path style=" stroke:none;fill-rule:nonzero;fill:rgb(100%,35.686275%,27.843137%);fill-opacity:1;" d="M 40.199219 17.199219 C 47.800781 15.5 54.800781 17.699219 55.800781 22.300781 C 56.5 25.300781 54.5 28.5 50.898438 30.800781 C 49 32 46.601562 33 44 33.601562 C 36.398438 35.300781 29.398438 33.101562 28.398438 28.5 C 27.300781 24 32.601562 18.898438 40.199219 17.199219 Z M 40.199219 17.199219 "/>
<path style=" stroke:none;fill-rule:nonzero;fill:rgb(89.803922%,24.313725%,17.647059%);fill-opacity:1;" d="M 32.5 23.199219 C 32.398438 23.699219 32.398438 24.101562 32.5 24.601562 C 33.199219 27.5 37.699219 29 42.601562 27.898438 C 47.5 26.800781 50.898438 23.5 50.199219 20.5 C 50.101562 20 49.898438 19.601562 49.601562 19.300781 C 49.199219 21.800781 46.101562 24.300781 41.898438 25.300781 C 37.898438 26.101562 34 25.199219 32.5 23.199219 Z M 32.5 23.199219 "/>
<path style=" stroke:none;fill-rule:nonzero;fill:rgb(89.803922%,24.313725%,17.647059%);fill-opacity:1;" d="M 40.199219 17.199219 C 47.800781 15.5 54.800781 17.699219 55.800781 22.300781 C 56.5 25.300781 54.5 28.5 50.898438 30.800781 C 53.398438 26.800781 48.398438 25 48.398438 25 L 47.199219 22.898438 C 48.699219 18.898438 40.199219 17.199219 40.199219 17.199219 Z M 40.199219 17.199219 "/>
<path style=" stroke:none;fill-rule:nonzero;fill:rgb(100%,35.686275%,27.843137%);fill-opacity:1;" d="M 7 50 C 5.800781 50.101562 4.699219 50.300781 3.601562 50.601562 C 4.300781 51.300781 5 52 5.898438 52.5 L 20.601562 61 C 21.5 59.699219 21.898438 58.398438 21.800781 57 C 21.398438 52.398438 14.699219 49.300781 7 50 Z M 7 50 "/>
<path style=" stroke:none;fill-rule:nonzero;fill:rgb(89.803922%,24.313725%,17.647059%);fill-opacity:1;" d="M 7 50 C 7 50 15.300781 52.800781 13.199219 56.5 C 13.101562 56.5 13.101562 56.601562 13 56.601562 L 20.601562 61 C 21.5 59.699219 21.898438 58.398438 21.800781 57 C 21.398438 52.398438 14.699219 49.300781 7 50 Z M 7 50 "/>
<path style=" stroke:none;fill-rule:nonzero;fill:rgb(100%,35.686275%,27.843137%);fill-opacity:1;" d="M 54 47.800781 C 47.398438 45 40.898438 45.800781 38.898438 49.699219 C 37.699219 52.199219 38.601562 55.398438 41 58.300781 L 51 52.5 C 52.699219 51.5 54.101562 50 54.898438 48.199219 C 54.601562 48.101562 54.300781 48 54 47.800781 Z M 54 47.800781 "/>
<path style=" stroke:none;fill-rule:nonzero;fill:rgb(89.803922%,24.313725%,17.647059%);fill-opacity:1;" d="M 45.5 48.199219 C 45.101562 48.5 44.898438 48.898438 44.699219 49.300781 C 43.800781 51 44.601562 53.300781 46.398438 55.199219 L 48.699219 53.898438 C 46.601562 52.199219 45.398438 50 45.5 48.199219 Z M 45.5 48.199219 "/>
</g>
</svg>
