<?xml version="1.0" encoding="UTF-8"?>
<svg xmlns="http://www.w3.org/2000/svg" xmlns:xlink="http://www.w3.org/1999/xlink" width="57pt" height="68pt" viewBox="0 0 57 68" version="1.1">
<g id="surface1">
<path style=" stroke:none;fill-rule:nonzero;fill:rgb(21.176471%,32.941176%,65.882353%);fill-opacity:1;" d="M 51 52.699219 L 33.300781 62.898438 C 30.300781 64.601562 26.601562 64.601562 23.699219 62.898438 L 6 52.699219 C 3 51 1.199219 47.800781 1.199219 44.300781 L 1.199219 23.898438 C 1.199219 20.5 3 17.300781 6 15.5 L 23.699219 5.300781 C 26.699219 3.601562 30.398438 3.601562 33.300781 5.300781 L 51 15.601562 C 54 17.300781 55.800781 20.5 55.800781 24 L 55.800781 44.398438 C 55.800781 47.800781 54 51 51 52.699219 Z M 51 52.699219 "/>
<path style=" stroke:none;fill-rule:nonzero;fill:rgb(100%,55.686275%,61.960784%);fill-opacity:1;" d="M 31 18.5 C 30.398438 15.101562 30.800781 11.601562 32.199219 8.300781 C 32.898438 6.699219 32.199219 4.800781 30.5 4 C 28.898438 3.300781 27 4 26.199219 5.699219 C 24.898438 8.699219 24.199219 11.898438 24.199219 15.101562 C 24.199219 19.199219 24.898438 22.898438 27.601562 25.898438 C 27.800781 26.101562 28.101562 26.398438 28.300781 26.601562 L 32.898438 22 C 31.898438 21.199219 31.199219 20 31 18.5 Z M 31 18.5 "/>
<path style=" stroke:none;fill-rule:nonzero;fill:rgb(100%,55.686275%,61.960784%);fill-opacity:1;" d="M 20.898438 37.300781 C 15.5 31.898438 6.300781 34.800781 5 42.300781 C 4.800781 43.601562 4.699219 44.898438 4.699219 46.199219 C 4.699219 49.101562 5.398438 51.800781 6.5 54.300781 C 7 55.5 8.199219 56.199219 9.398438 56.199219 C 11.699219 56.199219 13.300781 53.800781 12.300781 51.601562 C 11.601562 49.898438 11.101562 48 11.101562 46 C 11.101562 45.101562 11.199219 44.300781 11.300781 43.398438 C 11.699219 41 14.601562 40 16.398438 41.800781 Z M 20.898438 37.300781 "/>
<path style=" stroke:none;fill-rule:nonzero;fill:rgb(100%,70.980392%,75.294118%);fill-opacity:1;" d="M 52.398438 30.199219 C 52.300781 24.699219 48.800781 20.101562 44 18.101562 C 42.5 17.5 40.800781 17.101562 39 17.101562 C 31.398438 17.101562 25.601562 23.199219 25.601562 30.300781 C 25.601562 32.699219 24.101562 34.5 22 35.199219 C 17.5 36.699219 14.199219 41 14.300781 46 C 14.398438 52.199219 19.601562 57.300781 25.898438 57.199219 C 30.199219 57.199219 34.300781 56.101562 37.898438 54.199219 C 46.398438 49.800781 52.199219 41 52.300781 30.800781 C 52.300781 30.699219 52.300781 30.601562 52.300781 30.5 C 52.398438 30.398438 52.398438 30.300781 52.398438 30.199219 Z M 52.398438 30.199219 "/>
<path style=" stroke:none;fill-rule:nonzero;fill:rgb(100%,55.686275%,61.960784%);fill-opacity:1;" d="M 31.601562 48.199219 C 30.199219 44.101562 31.699219 39.800781 35 37.300781 C 36.5 36.199219 37.199219 34.300781 36.601562 32.300781 C 34.699219 26.601562 37.800781 20.101562 44 18 C 42.5 17.398438 40.800781 17 39 17 C 31.398438 17 25.601562 23.101562 25.601562 30.199219 C 25.601562 32.601562 24.101562 34.398438 22 35.101562 C 17.5 36.601562 14.199219 40.898438 14.300781 45.898438 C 14.398438 52.101562 19.601562 57.199219 25.898438 57.101562 C 30.199219 57.101562 34.300781 56 37.898438 54.101562 C 35.101562 53.398438 32.601562 51.300781 31.601562 48.199219 Z M 31.601562 48.199219 "/>
<path style=" stroke:none;fill-rule:nonzero;fill:rgb(100%,70.980392%,75.294118%);fill-opacity:1;" d="M 32.601562 31.699219 C 32.601562 30.320312 31.167969 29.199219 29.398438 29.199219 C 27.632812 29.199219 26.199219 30.320312 26.199219 31.699219 C 26.199219 33.082031 27.632812 34.199219 29.398438 34.199219 C 31.167969 34.199219 32.601562 33.082031 32.601562 31.699219 Z M 32.601562 31.699219 "/>
<path style=" stroke:none;fill-rule:nonzero;fill:rgb(100%,85.882353%,87.843137%);fill-opacity:1;" d="M 49.699219 31.699219 C 49.699219 30.320312 48.265625 29.199219 46.5 29.199219 C 44.734375 29.199219 43.300781 30.320312 43.300781 31.699219 C 43.300781 33.082031 44.734375 34.199219 46.5 34.199219 C 48.265625 34.199219 49.699219 33.082031 49.699219 31.699219 Z M 49.699219 31.699219 "/>
<path style=" stroke:none;fill-rule:nonzero;fill:rgb(19.215686%,23.921569%,25.098039%);fill-opacity:1;" d="M 31.199219 27.199219 C 30.800781 27.199219 30.398438 27.601562 30.398438 28 L 30.398438 29.300781 C 30.398438 29.699219 30.800781 30.101562 31.199219 30.101562 C 31.601562 30.101562 32 29.699219 32 29.300781 L 32 28 C 32 27.601562 31.601562 27.199219 31.199219 27.199219 Z M 31.199219 27.199219 "/>
<path style=" stroke:none;fill-rule:nonzero;fill:rgb(19.215686%,23.921569%,25.098039%);fill-opacity:1;" d="M 44.601562 27.199219 C 44.199219 27.199219 43.800781 27.601562 43.800781 28 L 43.800781 29.300781 C 43.800781 29.699219 44.199219 30.101562 44.601562 30.101562 C 45 30.101562 45.398438 29.699219 45.398438 29.300781 L 45.398438 28 C 45.5 27.601562 45.101562 27.199219 44.601562 27.199219 Z M 44.601562 27.199219 "/>
<path style=" stroke:none;fill-rule:nonzero;fill:rgb(19.215686%,23.921569%,25.098039%);fill-opacity:1;" d="M 40.199219 28.699219 C 39.898438 28.398438 39.398438 28.398438 39.101562 28.800781 C 38.800781 29.101562 38.398438 29.300781 37.898438 29.300781 C 37.5 29.300781 37 29.101562 36.699219 28.800781 C 36.398438 28.5 35.898438 28.398438 35.601562 28.699219 C 35.300781 29 35.199219 29.5 35.5 29.800781 C 36.101562 30.5 37 30.898438 37.898438 30.898438 C 38.800781 30.898438 39.699219 30.5 40.300781 29.800781 C 40.601562 29.5 40.601562 29 40.199219 28.699219 Z M 40.199219 28.699219 "/>
</g>
</svg>
