<?xml version="1.0" encoding="UTF-8"?>
<svg xmlns="http://www.w3.org/2000/svg" xmlns:xlink="http://www.w3.org/1999/xlink" width="57pt" height="68pt" viewBox="0 0 57 68" version="1.1">
<g id="surface1">
<path style=" stroke:none;fill-rule:nonzero;fill:rgb(28.235294%,29.411765%,49.803922%);fill-opacity:1;" d="M 51 52.601562 L 33.300781 62.800781 C 30.300781 64.5 26.601562 64.5 23.699219 62.800781 L 6 52.601562 C 3 50.898438 1.199219 47.699219 1.199219 44.199219 L 1.199219 23.800781 C 1.199219 20.398438 3 17.199219 6 15.398438 L 23.699219 5.199219 C 26.699219 3.5 30.398438 3.5 33.300781 5.199219 L 51 15.398438 C 54 17.101562 55.800781 20.300781 55.800781 23.800781 L 55.800781 44.199219 C 55.800781 47.699219 54 50.800781 51 52.601562 Z M 51 52.601562 "/>
<path style=" stroke:none;fill-rule:nonzero;fill:rgb(98.823529%,16.862745%,22.745098%);fill-opacity:1;" d="M 39.101562 28.898438 C 35.601562 28.898438 32.898438 28.398438 31.300781 28 C 30.398438 27.800781 29.800781 27 29.800781 26.101562 L 29.800781 15.300781 L 26.800781 15.300781 L 26.800781 24.800781 C 26.800781 25.898438 26.199219 26.898438 25.300781 27.398438 C 23.898438 28.199219 21.199219 29 18.398438 29.101562 L 18.398438 31.800781 C 21.101562 31.800781 23.800781 31.101562 25.398438 30.300781 C 26 30 26.800781 30.5 26.800781 31.199219 L 26.800781 53.199219 C 26.800781 54 27.5 54.699219 28.300781 54.699219 C 29.101562 54.699219 29.800781 54 29.800781 53.199219 L 29.800781 32.199219 C 29.800781 31.300781 30.601562 30.699219 31.398438 30.898438 C 33.300781 31.300781 35.800781 31.699219 39.101562 31.699219 C 39.101562 31.699219 39.101562 31.699219 39.199219 31.699219 L 39.199219 29 C 39.199219 28.898438 39.199219 28.898438 39.101562 28.898438 Z M 39.101562 28.898438 "/>
<path style=" stroke:none;fill-rule:nonzero;fill:rgb(77.647059%,9.803922%,14.901961%);fill-opacity:1;" d="M 29.800781 15.300781 C 29.800781 14.800781 29.101562 14.300781 28.300781 14.300781 C 27.5 14.300781 26.800781 14.699219 26.800781 15.300781 C 26.800781 15.800781 27.5 16.300781 28.300781 16.300781 C 29.199219 16.199219 29.800781 15.800781 29.800781 15.300781 Z M 29.800781 15.300781 "/>
<path style=" stroke:none;fill-rule:nonzero;fill:rgb(100%,39.215686%,43.529412%);fill-opacity:1;" d="M 47.101562 24.898438 C 44.5 22.300781 40.199219 22.300781 37.601562 24.898438 C 35 27.5 35 31.800781 37.601562 34.398438 C 38.398438 35.199219 38.398438 36.5 37.601562 37.300781 C 35 39.898438 35 44.199219 37.601562 46.800781 C 40.199219 49.398438 44.5 49.398438 47.101562 46.800781 C 53.101562 40.699219 53.199219 30.898438 47.101562 24.898438 Z M 47.101562 24.898438 "/>
<path style=" stroke:none;fill-rule:nonzero;fill:rgb(100%,27.843137%,33.333333%);fill-opacity:1;" d="M 51.601562 35.800781 C 51.601562 39.800781 50.101562 43.699219 47 46.800781 C 45.699219 48.101562 44 48.800781 42.199219 48.800781 C 41.800781 48.800781 41.398438 48.800781 41.101562 48.699219 C 42.398438 48.5 43.699219 47.898438 44.699219 46.800781 C 47.699219 43.800781 49.300781 39.800781 49.300781 35.800781 C 49.300781 31.800781 47.800781 27.898438 44.800781 24.800781 C 43.800781 23.800781 42.5 23.101562 41.199219 22.898438 C 43.300781 22.601562 45.5 23.199219 47.101562 24.800781 C 50.101562 27.898438 51.601562 31.898438 51.601562 35.800781 Z M 51.601562 35.800781 "/>
<path style=" stroke:none;fill-rule:nonzero;fill:rgb(100%,27.843137%,33.333333%);fill-opacity:1;" d="M 42.601562 44 C 42.199219 44 41.898438 43.699219 41.898438 43.300781 C 41.898438 42.898438 42.199219 42.601562 42.601562 42.601562 C 43 42.601562 43.300781 42.898438 43.300781 43.300781 C 43.300781 43.699219 43 44 42.601562 44 Z M 42.601562 44 "/>
<path style=" stroke:none;fill-rule:nonzero;fill:rgb(100%,27.843137%,33.333333%);fill-opacity:1;" d="M 45.199219 42.601562 C 44.800781 42.601562 44.5 42.300781 44.5 41.898438 C 44.5 41.5 44.800781 41.199219 45.199219 41.199219 C 45.601562 41.199219 45.898438 41.5 45.898438 41.898438 C 45.898438 42.300781 45.5 42.601562 45.199219 42.601562 Z M 45.199219 42.601562 "/>
<path style=" stroke:none;fill-rule:nonzero;fill:rgb(98.823529%,16.862745%,22.745098%);fill-opacity:1;" d="M 40.601562 31.699219 C 40.199219 31.699219 39.898438 31.398438 39.898438 31 C 39.898438 30.601562 40.199219 30.300781 40.601562 30.300781 C 41 30.300781 41.300781 30.601562 41.300781 31 C 41.300781 31.398438 41 31.699219 40.601562 31.699219 Z M 40.601562 31.699219 "/>
<path style=" stroke:none;fill-rule:nonzero;fill:rgb(100%,39.215686%,43.529412%);fill-opacity:1;" d="M 9.898438 24 C 12.5 21.398438 16.800781 21.398438 19.398438 24 C 22 26.601562 22 30.898438 19.398438 33.5 C 18.601562 34.300781 18.601562 35.601562 19.398438 36.398438 C 22 39 22 43.300781 19.398438 45.898438 C 16.800781 48.5 12.5 48.5 9.898438 45.898438 C 3.800781 39.898438 3.800781 30 9.898438 24 Z M 9.898438 24 "/>
<path style=" stroke:none;fill-rule:nonzero;fill:rgb(100%,27.843137%,33.333333%);fill-opacity:1;" d="M 19.398438 36.398438 C 20.699219 37.699219 21.398438 39.398438 21.398438 41.199219 C 21.398438 42.898438 20.699219 44.601562 19.398438 46 C 18.101562 47.300781 16.398438 48 14.601562 48 C 14.300781 48 14.101562 48 13.800781 48 C 15.300781 47.800781 16.699219 47.199219 17.800781 46.101562 C 19.101562 44.800781 19.800781 43.101562 19.800781 41.300781 C 19.800781 39.601562 19.101562 37.898438 17.800781 36.5 C 17.398438 36.101562 17.199219 35.601562 17.199219 35 C 17.199219 34.5 17.398438 33.898438 17.800781 33.5 C 19.101562 32.199219 19.800781 30.5 19.800781 28.699219 C 19.800781 27 19.101562 25.300781 17.800781 23.898438 C 16.699219 22.800781 15.300781 22.101562 13.800781 22 C 15.800781 21.800781 17.800781 22.398438 19.300781 23.898438 C 20.601562 25.199219 21.300781 26.898438 21.300781 28.699219 C 21.300781 30.398438 20.601562 32.101562 19.300781 33.5 C 18.898438 33.898438 18.699219 34.398438 18.699219 35 C 18.800781 35.5 19 36 19.398438 36.398438 Z M 19.398438 36.398438 "/>
<path style=" stroke:none;fill-rule:nonzero;fill:rgb(98.823529%,16.862745%,22.745098%);fill-opacity:1;" d="M 16.898438 41.898438 C 16.5 41.898438 16.199219 41.601562 16.199219 41.199219 C 16.199219 40.800781 16.5 40.5 16.898438 40.5 C 17.300781 40.5 17.601562 40.800781 17.601562 41.199219 C 17.601562 41.601562 17.300781 41.898438 16.898438 41.898438 Z M 16.898438 41.898438 "/>
<path style=" stroke:none;fill-rule:nonzero;fill:rgb(100%,27.843137%,33.333333%);fill-opacity:1;" d="M 14.898438 43.5 C 14.5 43.5 14.199219 43.199219 14.199219 42.800781 C 14.199219 42.398438 14.5 42.101562 14.898438 42.101562 C 15.300781 42.101562 15.601562 42.398438 15.601562 42.800781 C 15.601562 43.199219 15.300781 43.5 14.898438 43.5 Z M 14.898438 43.5 "/>
<path style=" stroke:none;fill-rule:nonzero;fill:rgb(100%,27.843137%,33.333333%);fill-opacity:1;" d="M 16.398438 28 C 16 28 15.699219 27.699219 15.699219 27.300781 C 15.699219 26.898438 16 26.601562 16.398438 26.601562 C 16.800781 26.601562 17.101562 26.898438 17.101562 27.300781 C 17.101562 27.699219 16.800781 28 16.398438 28 Z M 16.398438 28 "/>
<path style=" stroke:none;fill-rule:nonzero;fill:rgb(37.647059%,72.156863%,100%);fill-opacity:1;" d="M 38.699219 33.800781 C 35.101562 33.699219 30.101562 33.300781 28.699219 32.898438 C 27.800781 32.699219 27.199219 31.898438 27.199219 31 L 27.199219 20.199219 L 24.199219 20.199219 L 24.199219 31.300781 C 24.199219 32.398438 23.601562 33.398438 22.699219 33.898438 C 21.5 34.601562 19.5 35.199219 17.300781 35.5 C 16.601562 35.601562 16.101562 36.199219 16.101562 36.898438 C 16.101562 37.699219 16.800781 38.300781 17.601562 38.300781 C 19.601562 38.101562 21.5 37.5 22.800781 36.898438 C 23.398438 36.601562 24.199219 37.101562 24.199219 37.800781 L 24.199219 53 C 24.199219 53.800781 24.800781 54.5 25.5 54.5 C 26.398438 54.601562 27.199219 53.898438 27.199219 53 L 27.199219 37 C 27.199219 36.101562 28 35.5 28.800781 35.699219 C 30.398438 36.101562 35.199219 36.398438 38.601562 36.5 C 39.398438 36.5 40 35.898438 40 35.101562 C 40.101562 34.398438 39.5 33.800781 38.699219 33.800781 Z M 38.699219 33.800781 "/>
<path style=" stroke:none;fill-rule:nonzero;fill:rgb(0%,51.372549%,99.215686%);fill-opacity:1;" d="M 27.300781 20.199219 C 27.300781 19.699219 26.601562 19.199219 25.800781 19.199219 C 25 19.199219 24.300781 19.601562 24.300781 20.199219 C 24.300781 20.699219 25 21.199219 25.800781 21.199219 C 26.601562 21.101562 27.300781 20.699219 27.300781 20.199219 Z M 27.300781 20.199219 "/>
<path style=" stroke:none;fill-rule:nonzero;fill:rgb(63.921569%,90.588235%,17.647059%);fill-opacity:1;" d="M 50.5 17.5 C 50.5 22.699219 46.300781 26.898438 41.101562 26.898438 C 35.898438 26.898438 31.699219 22.699219 31.699219 17.5 C 31.699219 12.300781 35.898438 8.101562 41.101562 8.101562 C 46.300781 8.101562 50.5 12.300781 50.5 17.5 Z M 50.5 17.5 "/>
<path style=" stroke:none;fill-rule:nonzero;fill:rgb(59.607843%,84.705882%,16.078431%);fill-opacity:1;" d="M 50.5 17.5 C 50.5 22.699219 46.300781 26.898438 41.101562 26.898438 C 40.601562 26.898438 40.101562 26.898438 39.601562 26.800781 C 44.101562 26.101562 47.5 22.199219 47.5 17.5 C 47.5 12.800781 44.101562 8.898438 39.601562 8.199219 C 40.101562 8.101562 40.601562 8.101562 41.101562 8.101562 C 46.199219 8.101562 50.5 12.300781 50.5 17.5 Z M 50.5 17.5 "/>
<path style=" stroke:none;fill-rule:nonzero;fill:rgb(100%,100%,100%);fill-opacity:1;" d="M 39.300781 21.5 C 39 21.5 38.699219 21.398438 38.5 21.199219 L 36.300781 19 C 35.898438 18.601562 35.898438 17.800781 36.300781 17.398438 C 36.699219 17 37.5 17 37.898438 17.398438 L 39.300781 18.800781 L 44.199219 13.898438 C 44.601562 13.5 45.398438 13.5 45.800781 13.898438 C 46.199219 14.300781 46.199219 15.101562 45.800781 15.5 L 40.101562 21.199219 C 39.898438 21.398438 39.601562 21.5 39.300781 21.5 Z M 39.300781 21.5 "/>
</g>
</svg>
