<?xml version="1.0" encoding="utf-8"?>
<!-- Generator: Adobe Illustrator 22.1.0, SVG Export Plug-In . SVG Version: 6.00 Build 0)  -->
<svg version="1.1" id="Capa_1" xmlns="http://www.w3.org/2000/svg" xmlns:xlink="http://www.w3.org/1999/xlink" x="0px" y="0px"
	 viewBox="0 0 57 68" style="enable-background:new 0 0 57 68;" xml:space="preserve">
<style type="text/css">
	.st0{fill:#0ED1B2;}
	.st1{fill:#08AF8F;}
	.st2{fill:#5E240D;}
	.st3{fill:#7D3214;}
	.st4{fill:#963E1C;}
	.st5{fill:#B6F1FB;}
	.st6{fill:#6EE2F6;}
	.st7{fill:#FF9A42;}
	.st8{fill:#FFD185;}
	.st9{fill:#C24623;}
	.st10{fill:#EF3A47;}
</style>
<g>
	<path class="st0" d="M51,52.6L33.3,62.8c-3,1.7-6.7,1.7-9.6,0L6,52.6c-3-1.7-4.8-4.9-4.8-8.4V23.8c0-3.4,1.8-6.6,4.8-8.4L23.7,5.2
		c3-1.7,6.7-1.7,9.6,0L51,15.4c3,1.7,4.8,4.9,4.8,8.4v20.4C55.8,47.7,54,50.8,51,52.6z"/>
	<g>
		<g>
			<g>
				<path class="st1" d="M28.5,24.1c-0.2,0-0.4,0.2-0.4,0.4v6h0.8v-6C28.9,24.3,28.7,24.1,28.5,24.1z"/>
				<path class="st1" d="M41.2,49.4c-2-1-3.7-2.7-4.8-4.7v-4.1c0-0.1,0-0.2-0.1-0.3l-5.9-5.9L29.9,35l5.7,5.7v4c0,0.1,0,0.1,0,0.2
					c1.1,2.2,3,4.1,5.2,5.2c0.1,0,0.1,0,0.2,0c0.2,0,0.3-0.1,0.4-0.2C41.5,49.8,41.4,49.5,41.2,49.4L41.2,49.4z"/>
				<path class="st1" d="M38.7,51.4c-2-1-3.7-2.7-4.8-4.7v-4.9c0-0.1,0-0.2-0.1-0.2l-3.5-5.3l-0.7,0.5l3.5,5.2v4.9
					c0,0.1,0,0.1,0,0.2c1.1,2.2,3,4.1,5.2,5.2c0.1,0,0.1,0,0.2,0c0.2,0,0.3-0.1,0.4-0.2C39,51.8,38.9,51.5,38.7,51.4L38.7,51.4z"/>
				<path class="st1" d="M37.7,23.9c-0.1-0.2-0.4-0.3-0.6-0.2c-1.7,0.9-3.1,2.2-4,4c0,0.1,0,0.1,0,0.2v3.3l-3.2,3.2l0.6,0.6l3.3-3.3
					c0.1-0.1,0.1-0.2,0.1-0.3V28c0.8-1.5,2-2.7,3.6-3.5C37.7,24.4,37.8,24.1,37.7,23.9z"/>
				<path class="st1" d="M15.8,49.4c2-1,3.7-2.7,4.8-4.7v-4.1c0-0.1,0-0.2,0.1-0.3l5.9-5.9l0.6,0.6l-5.7,5.7v4c0,0.1,0,0.1,0,0.2
					c-1.1,2.2-3,4.1-5.2,5.2c-0.1,0-0.1,0-0.2,0c-0.2,0-0.3-0.1-0.4-0.2C15.5,49.8,15.6,49.5,15.8,49.4L15.8,49.4z"/>
				<path class="st1" d="M18.3,51.4c2-1,3.7-2.7,4.8-4.7v-4.9c0-0.1,0-0.2,0.1-0.2l3.5-5.3l0.7,0.5l-3.5,5.2v4.9c0,0.1,0,0.1,0,0.2
					c-1.1,2.2-3,4.1-5.2,5.2c-0.1,0-0.1,0-0.2,0c-0.2,0-0.3-0.1-0.4-0.2C18,51.8,18.1,51.5,18.3,51.4z"/>
				<path class="st1" d="M19.3,23.9c0.1-0.2,0.4-0.3,0.6-0.2c1.7,0.9,3.1,2.2,4,4c0,0.1,0,0.1,0,0.2v3.3l3.2,3.2L26.5,35l-3.3-3.3
					c-0.1-0.1-0.1-0.2-0.1-0.3V28c-0.8-1.5-2-2.7-3.6-3.5C19.3,24.4,19.2,24.1,19.3,23.9z"/>
			</g>
			<path class="st1" d="M30.2,30.6l-1.7-1.3l-0.4,4.2l1.4-0.8c0.6,0,1.1-0.5,1.1-1.1C30.6,31.2,30.4,30.8,30.2,30.6z"/>
			<path class="st1" d="M28.9,31.5c0-0.3,0-0.7-0.1-0.9l-0.3-1.3l-1.7,1.3c-0.3,0.2-0.4,0.5-0.4,0.9c0,0.6,0.5,1.1,1.1,1.1l0.5,0.8
				l0.6-0.8C28.8,32.6,28.9,32.1,28.9,31.5z"/>
			<path class="st1" d="M15.9,33.9c-0.7,0-1.3,0.6-1.3,1.3c0,0.7,0.6,1.3,1.3,1.3h5.6c0.5,0,1-0.1,1.5-0.2l3-0.7l1.7-1.7H15.9z"/>
			<path class="st1" d="M41.1,33.9h-1.7v2.5h1.7c0.7,0,1.3-0.6,1.3-1.3C42.4,34.4,41.8,33.9,41.1,33.9z"/>
			<path class="st1" d="M40.7,35.1c0-0.7-0.6-1.3-1.3-1.3H28.5l2.5,1.7l3,0.7c0.5,0.1,1,0.2,1.5,0.2h3.9
				C40.1,36.4,40.7,35.8,40.7,35.1z"/>
			<path class="st1" d="M29.8,44.3v1.3c0,0.7-0.6,1.3-1.3,1.3s-1.3-0.6-1.3-1.3v-1.3l1.3-0.8L29.8,44.3z"/>
			<path class="st1" d="M29.8,42.6v1.7h-2.5v-1.7l1.3-0.8L29.8,42.6z"/>
			<path class="st1" d="M29.8,40.9v1.7h-2.5v-1.7l1.3-0.8L29.8,40.9z"/>
			<path class="st1" d="M27.2,38.1h2.5v2.8h-2.5V38.1z"/>
			<path class="st1" d="M29.8,32.6h-1.7l0.4,6.6c1.4,0,2.5-1.1,2.5-2.5v-2.9C31,33.2,30.4,32.6,29.8,32.6z"/>
			<path class="st1" d="M29.3,36.8v-2.9c0-0.7-0.6-1.3-1.3-1.3h-0.8c-0.7,0-1.3,0.6-1.3,1.3v2.8c0,1.4,1.1,2.5,2.5,2.5
				C28.9,39.3,29.3,38.1,29.3,36.8z"/>
		</g>
		<g>
			<g>
				<path class="st2" d="M28.5,23.2c-0.2,0-0.4,0.2-0.4,0.4v6h0.8v-6C28.9,23.4,28.7,23.2,28.5,23.2z"/>
				<path class="st2" d="M41.2,48.5c-2-1-3.7-2.7-4.8-4.7v-4.1c0-0.1,0-0.2-0.1-0.3l-5.9-5.9l-0.6,0.6l5.7,5.7v4c0,0.1,0,0.1,0,0.2
					c1.1,2.2,3,4.1,5.2,5.2c0.1,0,0.1,0,0.2,0c0.2,0,0.3-0.1,0.4-0.2C41.5,48.9,41.4,48.6,41.2,48.5L41.2,48.5z"/>
				<path class="st2" d="M38.7,50.5c-2-1-3.7-2.7-4.8-4.7v-4.9c0-0.1,0-0.2-0.1-0.2l-3.5-5.3l-0.7,0.5l3.5,5.2v4.9
					c0,0.1,0,0.1,0,0.2c1.1,2.2,3,4.1,5.2,5.2c0.1,0,0.1,0,0.2,0c0.2,0,0.3-0.1,0.4-0.2C39,50.9,38.9,50.6,38.7,50.5L38.7,50.5z"/>
				<path class="st2" d="M37.7,23c-0.1-0.2-0.4-0.3-0.6-0.2c-1.7,0.9-3.1,2.2-4,4c0,0.1,0,0.1,0,0.2v3.3l-3.2,3.2l0.6,0.6l3.3-3.3
					c0.1-0.1,0.1-0.2,0.1-0.3v-3.4c0.8-1.5,2-2.7,3.6-3.5C37.7,23.5,37.8,23.2,37.7,23z"/>
				<path class="st2" d="M15.8,48.5c2-1,3.7-2.7,4.8-4.7v-4.1c0-0.1,0-0.2,0.1-0.3l5.9-5.9l0.6,0.6l-5.7,5.7v4c0,0.1,0,0.1,0,0.2
					c-1.1,2.2-3,4.1-5.2,5.2c-0.1,0-0.1,0-0.2,0c-0.2,0-0.3-0.1-0.4-0.2C15.5,48.9,15.6,48.6,15.8,48.5L15.8,48.5z"/>
				<path class="st2" d="M18.3,50.5c2-1,3.7-2.7,4.8-4.7v-4.9c0-0.1,0-0.2,0.1-0.2l3.5-5.3l0.7,0.5L23.9,41v4.9c0,0.1,0,0.1,0,0.2
					c-1.1,2.2-3,4.1-5.2,5.2c-0.1,0-0.1,0-0.2,0c-0.2,0-0.3-0.1-0.4-0.2C18,50.9,18.1,50.6,18.3,50.5z"/>
				<path class="st2" d="M19.3,23c0.1-0.2,0.4-0.3,0.6-0.2c1.7,0.9,3.1,2.2,4,4c0,0.1,0,0.1,0,0.2v3.3l3.2,3.2l-0.6,0.6l-3.3-3.3
					c-0.1-0.1-0.1-0.2-0.1-0.3v-3.4c-0.8-1.5-2-2.7-3.6-3.5C19.3,23.5,19.2,23.2,19.3,23z"/>
			</g>
			<path class="st3" d="M30.2,29.7l-1.7-1.3l-0.4,4.2l1.4-0.8c0.6,0,1.1-0.5,1.1-1.1C30.6,30.3,30.4,29.9,30.2,29.7z"/>
			<path class="st4" d="M28.9,30.6c0-0.3,0-0.7-0.1-0.9l-0.3-1.3l-1.7,1.3c-0.3,0.2-0.4,0.5-0.4,0.9c0,0.6,0.5,1.1,1.1,1.1l0.5,0.8
				l0.6-0.8C28.8,31.7,28.9,31.2,28.9,30.6z"/>
			<path class="st5" d="M15.9,33c-0.7,0-1.3,0.6-1.3,1.3c0,0.7,0.6,1.3,1.3,1.3h5.6c0.5,0,1-0.1,1.5-0.2l3-0.7l1.7-1.7H15.9z"/>
			<path class="st6" d="M41.1,33h-1.7v2.5h1.7c0.7,0,1.3-0.6,1.3-1.3C42.4,33.5,41.8,33,41.1,33z"/>
			<path class="st5" d="M40.7,34.2c0-0.7-0.6-1.3-1.3-1.3H28.5l2.5,1.7l3,0.7c0.5,0.1,1,0.2,1.5,0.2h3.9
				C40.1,35.5,40.7,34.9,40.7,34.2z"/>
			<path class="st7" d="M29.8,43.4v1.3c0,0.7-0.6,1.3-1.3,1.3s-1.3-0.6-1.3-1.3v-1.3l1.3-0.8L29.8,43.4z"/>
			<path class="st8" d="M29.8,41.7v1.7h-2.5v-1.7l1.3-0.8L29.8,41.7z"/>
			<path class="st7" d="M29.8,40v1.7h-2.5V40l1.3-0.8L29.8,40z"/>
			<path class="st8" d="M27.2,37.2h2.5V40h-2.5V37.2z"/>
			<path class="st4" d="M29.8,31.7h-1.7l0.4,6.6c1.4,0,2.5-1.1,2.5-2.5V33C31,32.3,30.4,31.7,29.8,31.7z"/>
			<path class="st9" d="M29.3,35.9V33c0-0.7-0.6-1.3-1.3-1.3h-0.8c-0.7,0-1.3,0.6-1.3,1.3v2.8c0,1.4,1.1,2.5,2.5,2.5
				C28.9,38.4,29.3,37.2,29.3,35.9z"/>
		</g>
	</g>
	<path class="st10" d="M28.5,7.5c-3.3,0-6,2.7-6,6s2.7,6,6,6s6-2.7,6-6S31.8,7.5,28.5,7.5z M24.9,10.4c0.1-0.2,0.3-0.3,0.5-0.5
		c0.8-0.7,1.9-1.2,3.1-1.2c1,0,1.9,0.3,2.7,0.9l-6.5,6.5c-0.5-0.8-0.9-1.7-0.9-2.7C23.8,12.3,24.2,11.3,24.9,10.4z M32.1,16.6
		c-0.1,0.2-0.3,0.3-0.5,0.5c-0.8,0.7-1.9,1.2-3.1,1.2c-1,0-1.9-0.3-2.7-0.9l6.5-6.5c0.5,0.8,0.9,1.7,0.9,2.7
		C33.2,14.7,32.8,15.8,32.1,16.6z"/>
</g>
</svg>
