<?xml version="1.0" encoding="utf-8"?>
<!-- Generator: Adobe Illustrator 22.1.0, SVG Export Plug-In . SVG Version: 6.00 Build 0)  -->
<svg version="1.1" id="Capa_1" xmlns="http://www.w3.org/2000/svg" xmlns:xlink="http://www.w3.org/1999/xlink" x="0px" y="0px"
	 viewBox="0 0 57 68" style="enable-background:new 0 0 57 68;" xml:space="preserve">
<style type="text/css">
	.st0{fill:#F2C09A;}
	.st1{fill:#DA4836;}
	.st2{fill:#C13421;}
	.st3{fill:#E9937C;}
</style>
<g>
	<path class="st0" d="M51,52.5L33.3,62.7c-3,1.7-6.7,1.7-9.6,0L6,52.5c-3-1.7-4.8-4.9-4.8-8.4V23.7c0-3.4,1.8-6.6,4.8-8.4L23.7,5.1
		c3-1.7,6.7-1.7,9.6,0L51,15.3c3,1.7,4.8,4.9,4.8,8.4v20.4C55.8,47.6,54,50.7,51,52.5z"/>
	<path class="st1" d="M23.7,5.1L13.5,11l0,0.1c0.5,2.4,1.6,4.6,3.4,6.3l-4,4c-4.1,4.1-4.1,10.6,0,14.7c2,2,4.6,3,7.4,3h2.1
		c-4.8,4.8-6.2,12-3.5,18.2l1.4,3.3l3.5,2c3,1.7,6.7,1.7,9.6,0l0.5-0.3c0-0.1-0.1-0.2-0.1-0.3l-1.4-2c-2.7-3.8-3.1-8.8-1-13h5.2
		c4.3,0,8-2.9,9-7c1-3.9-0.7-8-4.1-10.1L38,27.7l0,0c1.6-1.1,2.9-2.5,3.8-4.2c1.3-2.4,1.8-5.1,1.5-7.8l-0.2-5l-9.7-5.6
		C30.3,3.4,26.7,3.4,23.7,5.1z"/>
	<g>
		<path class="st2" d="M31.3,22.2h-5.7c-3.2,0-6.2-1.1-8.6-3.1c-0.5-0.4-0.6-1.1-0.2-1.6c0.4-0.5,1.1-0.6,1.6-0.2c0,0,0,0,0.1,0.1
			c2,1.7,4.6,2.6,7.2,2.6h5.7c0.6,0,1.1,0.5,1.1,1.1C32.5,21.6,32,22.2,31.3,22.2z"/>
		<path class="st2" d="M31.3,40.3h-7.9c-0.6,0-1.1-0.5-1.1-1.1s0.5-1.1,1.1-1.1h7.9c0.6,0,1.1,0.5,1.1,1.1S32,40.3,31.3,40.3z"/>
		<path class="st2" d="M30.6,31.2h-8.4c-0.6,0-1.1-0.5-1.1-1.1c0-0.6,0.5-1.1,1.1-1.1h8.4c2.1,0,4.2-0.6,6-1.7
			c0.5-0.3,1.2-0.2,1.6,0.4c0.3,0.5,0.2,1.2-0.4,1.6c0,0,0,0,0,0C35.6,30.5,33.1,31.2,30.6,31.2z"/>
		<path class="st2" d="M30.2,48.2h-3.4c-0.6,0-1.1-0.5-1.1-1.1s0.5-1.1,1.1-1.1h3.4c0.6,0,1.1,0.5,1.1,1.1S30.8,48.2,30.2,48.2z"/>
	</g>
	<rect x="4.1" y="24.4" class="st3" width="2.3" height="2.3"/>
	<rect x="5.3" y="35.1" class="st3" width="2.3" height="2.3"/>
	<rect x="10.9" y="41.4" class="st3" width="2.3" height="2.3"/>
	<rect x="46.1" y="24.4" class="st3" width="2.3" height="2.3"/>
	<rect x="9.8" y="47.8" class="st3" width="2.3" height="2.3"/>
	<rect x="46.1" y="45.9" class="st3" width="2.3" height="2.3"/>
	<rect x="49.5" y="34.6" class="st3" width="2.3" height="2.3"/>
</g>
</svg>
