<?xml version="1.0" encoding="utf-8"?>
<!-- Generator: Adobe Illustrator 22.1.0, SVG Export Plug-In . SVG Version: 6.00 Build 0)  -->
<svg version="1.1" id="Capa_1" xmlns="http://www.w3.org/2000/svg" xmlns:xlink="http://www.w3.org/1999/xlink" x="0px" y="0px"
	 viewBox="0 0 57 68" style="enable-background:new 0 0 57 68;" xml:space="preserve">
<style type="text/css">
	.st0{fill:#62DBFB;}
	.st1{fill:#FFC89F;}
	.st2{fill:#DB9975;}
	.st3{fill:#F7B081;}
	.st4{fill:#F77474;}
	.st5{fill:#E55555;}
</style>
<g>
	<path class="st0" d="M51,52.5L33.3,62.7c-3,1.7-6.7,1.7-9.6,0L6,52.5c-3-1.7-4.8-4.9-4.8-8.4V23.7c0-3.4,1.8-6.6,4.8-8.4L23.7,5.1
		c3-1.7,6.7-1.7,9.6,0L51,15.3c3,1.7,4.8,4.9,4.8,8.4v20.4C55.8,47.6,54,50.7,51,52.5z"/>
	<g>
		<path class="st1" d="M28.5,22.6c-4.1,0.1-8.3-1.2-12.5-3.8v6v6v7.8c-0.5,0.9-0.8,2-0.8,3.2c0,1.8,0.8,3.5,2.2,4.6
			c1.3,1,2.9,1.5,4.8,1.5c1.1,0,2.2-0.2,3.3-0.5c0.2,0,1-0.3,2.1-0.8c1,0,2.2,0,3.5,0.1c0.1,0,0.2,0,0.3,0c2.5,0.2,4.9-0.6,6.8-2.3
			c1.9-1.7,2.9-4.1,2.9-6.7v-5.9v-13C36.8,21.4,32.6,22.6,28.5,22.6z"/>
		<path class="st2" d="M19,47.2c1.8-0.2,4.3-1,5.9-1.4c0.4-0.1,4.4-1,6.4-4.2c0.2-0.4,0.1-0.9-0.3-1.1c-0.4-0.2-0.9-0.1-1.1,0.3
			c-1.6,2.7-5.3,3.5-5.3,3.5c0,0,0,0-0.1,0c-2.3,0.6-5.6,1.5-7.8,1.4C17.3,46.4,18.1,46.9,19,47.2z"/>
		<path class="st3" d="M37.8,20.5v11.2v5.9c0,2.6-1,4.9-2.9,6.7c-1.3,1.2-2.9,2-4.6,2.3c0.2,0,0.5,0,0.7,0.1c0.1,0,0.2,0,0.3,0
			c2.5,0.2,4.9-0.6,6.8-2.3c1.9-1.7,2.9-4.1,2.9-6.7v-5.9v-13C40,19.4,38.9,20,37.8,20.5z"/>
		<g>
			<path class="st2" d="M39.7,25.6c-1-0.8-2.2-1.2-3.6-1c-1,0.1-1.7,0.6-2.3,1.4c-0.7,1-1.1,2.5-1.1,4.5c0,0.5,0,0.9,0.1,1.2
				c-1.8-0.4-3.7,0.1-4.9,0.5c-0.2-0.6-0.5-1.2-0.8-1.7c-0.4-0.6-0.9-1.2-1.5-1.6c-0.5-0.4-0.8-1-0.8-1.6c-0.1-1.7,1.5-3.9,2.2-4.6
				c0.3-0.3,0.3-0.8,0-1.1c-0.3-0.3-0.8-0.3-1.1,0c-0.1,0.1-2.7,3-2.6,5.8c0,0.1,0,0.3,0,0.4c-0.1,0-0.3-0.1-0.4-0.1
				c-3.6-0.6-7.3,2-7.4,2.1c-0.4,0.3-0.4,0.8-0.2,1.1c0.3,0.4,0.8,0.4,1.1,0.2c0,0,3.3-2.4,6.2-1.8c0.7,0.1,1.4,0.4,1.9,0.8
				c0,0,0,0,0,0c0,0,0,0,0.1,0.1c0.4,0.3,0.8,0.8,1.1,1.3c2.5,3.7-1.7,7.2-1.8,7.4c-0.3,0.3-0.4,0.8-0.1,1.1
				c0.2,0.2,0.4,0.3,0.6,0.3c0.2,0,0.4-0.1,0.5-0.2c0.1,0,1.4-1.1,2.3-2.8c0.6-1.1,0.9-2.3,0.9-3.4c1-0.4,3.5-1.2,5.1-0.2
				c1.3,0.7,2.2,2.7,2.3,4.7c0,0.9-0.2,2.5-1.6,3.4c-0.4,0.2-0.5,0.7-0.2,1.1c0.2,0.2,0.4,0.4,0.7,0.4c0.1,0,0.3,0,0.4-0.1
				c1.5-1,2.4-2.7,2.3-4.8c-0.1-2.3-1.2-4.7-2.7-5.8c-0.2-1.3-0.3-4.2,0.7-5.5c0.3-0.4,0.7-0.7,1.2-0.7c0.9-0.1,1.7,0.1,2.3,0.6
				c0.8,0.7,1.6,2.2,1.6,4.6c0,0.4,0.4,0.8,0.8,0.8c0.4,0,0.8-0.4,0.8-0.8C41.8,30.5,41.7,27.4,39.7,25.6z"/>
			<path class="st2" d="M29.5,30C29.5,30,29.5,30,29.5,30c0.5,0,0.8-0.4,0.8-0.8c0-3.3,3.8-6.8,3.8-6.9c0.3-0.3,0.4-0.8,0.1-1.1
				c-0.3-0.3-0.8-0.4-1.1-0.1c-0.2,0.2-4.4,4-4.3,8.1C28.7,29.7,29.1,30,29.5,30z"/>
			<path class="st2" d="M15.6,25.2c0.1,0,1,0.5,2.2,0.5c1,0,2.3-0.3,3.5-1.4c0.3-0.3,0.4-0.8,0.1-1.1c-0.3-0.3-0.8-0.4-1.1-0.1
				c-1.8,1.6-3.8,0.7-3.9,0.7c-0.4-0.2-0.9,0-1.1,0.4C15,24.5,15.2,25,15.6,25.2z"/>
		</g>
		<path class="st4" d="M45.5,10.5C45.5,10.5,45.5,10.5,45.5,10.5c-2.9-1.6-6.5-1.5-9.3,0.2c-2.7,1.7-5.3,2.5-7.6,2.5
			c-0.1,0-0.1,0-0.2,0c-2.3,0-4.9-0.8-7.6-2.5c-2.8-1.7-6.4-1.8-9.3-0.2c-2.9,1.6-4.7,4.7-4.7,8v23.3c0,2.8,2.2,5,5,5s5-2.2,5-5
			V19.9c3.9,2.2,7.9,3.3,11.7,3.2c3.9,0.1,7.8-1,11.7-3.2v17.5c0,2.3-1,4.5-2.7,6.1c-1.7,1.6-3.9,2.3-6.2,2.1c-0.1,0-0.2,0-0.3,0
			c-2.5-0.2-4.4-0.2-5.9,0.1c-3.4,0.7-4.7,2.9-5.2,4.1c-0.5,1.2-0.8,3.2,0.4,5.6c0.4,0.9,1.1,1.8,1.9,2.7c1,1.6,2.9,2.6,5.4,2.8
			c0,1.6,1.2,2.9,2.8,3c0.1,0,0.2,0,0.2,0c1.6,0,2.9-1.2,3-2.8c0-0.3,0.2-3-0.8-5.6c4.2-0.2,8.4-1.9,11.5-4.8
			c3.7-3.5,5.9-8.4,5.9-13.5V18.5C50.2,15.2,48.4,12.1,45.5,10.5z"/>
		<g>
			<path class="st5" d="M16.8,19.8c-1.6-1-3.1-1.8-4.1-2.8v24.8c0,2-1.2,3.8-2.9,4.6c0.6,0.3,1.3,0.4,2,0.4c2.8,0,5-2.2,5-5V19.8z"
				/>
			<path class="st5" d="M45.5,10.5C45.5,10.5,45.5,10.5,45.5,10.5c-2-1.1-4.3-1.4-6.5-0.9c0.8,0.2,1.7,0.5,2.4,0.9c0,0,0,0,0,0
				c2.9,1.6,4.7,4.7,4.7,8v18.9c0,5.1-2.1,10-5.9,13.5c-3.1,2.9-7.3,4.6-11.5,4.8c1,2.6,0.9,5.2,0.8,5.6c-0.1,0.8-0.4,1.5-0.9,2
				c0.5,0.5,1.1,0.7,1.8,0.8c0.1,0,0.2,0,0.2,0c1.6,0,2.9-1.2,3-2.8c0-0.3,0.2-3-0.8-5.6c4.2-0.2,8.4-1.9,11.5-4.8
				c3.7-3.5,5.9-8.4,5.9-13.5V18.5C50.2,15.2,48.4,12.1,45.5,10.5z"/>
		</g>
	</g>
</g>
</svg>
