<?xml version="1.0" encoding="utf-8"?>
<!-- Generator: Adobe Illustrator 22.1.0, SVG Export Plug-In . SVG Version: 6.00 Build 0)  -->
<svg version="1.1" id="Capa_1" xmlns="http://www.w3.org/2000/svg" xmlns:xlink="http://www.w3.org/1999/xlink" x="0px" y="0px"
	 viewBox="0 0 57 68" style="enable-background:new 0 0 57 68;" xml:space="preserve">
<style type="text/css">
	.st0{fill:#3654A8;}
	.st1{fill:#FF6D7A;}
	.st2{fill:#ED3E57;}
	.st3{fill:#FF9FAB;}
	.st4{fill:#FFFFFF;}
	.st5{fill:#42DB8F;}
	.st6{fill:url(#SVGID_1_);}
</style>
<g>
	<path class="st0" d="M51,52.5L33.3,62.7c-3,1.7-6.7,1.7-9.6,0L6,52.5c-3-1.7-4.8-4.9-4.8-8.4V23.7c0-3.4,1.8-6.6,4.8-8.4L23.7,5.1
		c3-1.7,6.7-1.7,9.6,0L51,15.3c3,1.7,4.8,4.9,4.8,8.4v20.4C55.8,47.6,54,50.7,51,52.5z"/>
	<g>
		<path class="st1" d="M49.3,12.9c-0.6-1.5-2.1-2.4-4.3-1.1c-1.7,1.3-3.7,2.4-5.7,3.1c0,0,0,0,0,0c-1.3-0.8-2.9-1.1-4.5-0.8
			c-8.8,1.3-18-0.4-23.4,3.9c-8,6.3-5.2,24.7,1.8,30.4c6.9,5.6,7.5-2.9,12.7-6.4c2.5-1.7,7.9-3.4,13-6.2c2.1-1.1,3.7-2.8,4.8-4.7
			c0,0,0,0,0,0C48.4,27.9,52.6,21.3,49.3,12.9L49.3,12.9z"/>
		<path class="st2" d="M49.3,12.9c3.2,8.3-1,14.9-5.6,18.1c-0.1,0,1.3-1.9,1.4-5.1c0-0.4,0-0.7,0-1.1c-0.5-3.8-2.3-6.7-4-8.6
			c-0.5-0.6-1.1-1-1.7-1.4c2.1-0.7,4-1.8,5.7-3.1C47.2,10.5,48.8,11.5,49.3,12.9L49.3,12.9z"/>
		<path class="st3" d="M39.1,14.7c0.9,0.5,0.7,1.9-0.4,2.1c-8.8,1.3-18-0.4-23.4,3.9c-4.1,3.2-5.4,9.6-4.7,15.9
			c0.2,2-2.8,2.5-3.3,0.5c-1.6-7.2-0.6-15.4,4.2-19.2c5.4-4.2,14.6-2.5,23.4-3.9C36.4,13.8,37.8,14,39.1,14.7z"/>
		<path class="st4" d="M19.1,21.5c-0.7,0-1-0.9-0.5-1.3c0.1,0,0.1-0.1,0.2-0.1c0.3-0.2,0.8-0.2,1.1,0.2c0.2,0.3,0.2,0.8-0.2,1
			C19.5,21.3,19.4,21.5,19.1,21.5z"/>
		<path class="st4" d="M12,32.3c-0.5,0-0.8-0.4-0.7-0.9c0.8-3.4,2.5-6.5,4.9-9.1c0.3-0.3,0.8-0.3,1.1,0c0.3,0.3,0.3,0.7,0,1
			c-2.2,2.3-3.8,5.2-4.5,8.4C12.6,32.1,12.3,32.3,12,32.3z"/>
		<path class="st2" d="M32.4,48.2l-2.8,0.8c-0.4,0.1-0.9-0.2-1-0.6c-0.7-5.1-3.7-9.6-8.3-12.4c-0.3-0.2-0.4-0.6-0.3-0.9l1.3-3
			c0.2-0.4,0.7-0.6,1.1-0.4c1,0.5,1.9,1.1,2.9,1.7c0.4,0.3,0.9,0.1,1.1-0.3c0.7-1.4,1.5-2.6,2.5-3.8c0.2-0.3,0.7-0.3,1-0.1l2.3,1.4
			c0.4,0.2,0.5,0.7,0.2,1c-0.5,0.7-1.1,1.7-1.5,3c-0.8,2.5-0.3,4.7,0.3,7.4c0.3,1.3,0.8,3.1,1.6,5.1C33.1,47.7,32.8,48.1,32.4,48.2z
			"/>
		<path class="st1" d="M46.8,13.5c-0.2,0.1-0.4,0.2-0.6,0.3c-1.1,0.9-2.4,1.6-3.7,2.2c-0.7,0.3-1.5,0.2-2-0.3
			c-0.3-0.3-0.7-0.6-1.2-0.9c2.1-0.7,4-1.8,5.7-3.1c0.3-0.2,0.6-0.3,0.8-0.4C47.3,10.9,48.2,12.9,46.8,13.5z"/>
	</g>
	<g>
		<g>
			<path class="st5" d="M51.5,40.8c-3.7,0-7.6-3.5-7.7-3.5c-0.3-0.2-0.7-0.2-0.9,0c0,0-3.9,3.5-7.7,3.5c-0.4,0-0.7,0.3-0.7,0.7v8.1
				c0,6.6,4.9,9.2,8.5,10.6c0.1,0,0.2,0,0.2,0s0.2,0,0.2,0c5.1-2,8.5-5,8.5-10.6v-8.1C52.2,41.1,51.9,40.8,51.5,40.8z"/>
		</g>
	</g>
	<g>
		<g>
			
				<linearGradient id="SVGID_1_" gradientUnits="userSpaceOnUse" x1="43.4198" y1="13.9567" x2="43.4198" y2="22.8" gradientTransform="matrix(1 0 0 -1 0 67)">
				<stop  offset="0" style="stop-color:#C3FFE8"/>
				<stop  offset="0.9973" style="stop-color:#F0FFF4"/>
			</linearGradient>
			<path class="st6" d="M48.8,46.5l-6.2,6.2c-0.3,0.3-0.6,0.4-0.9,0.4s-0.7-0.1-0.9-0.4L38,49.9c-0.5-0.5-0.5-1.4,0-1.9
				c0.5-0.5,1.4-0.5,1.9,0l1.8,1.8l5.2-5.2c0.5-0.5,1.4-0.5,1.9,0C49.4,45.1,49.4,46,48.8,46.5z"/>
		</g>
	</g>
</g>
</svg>
