<?xml version="1.0" encoding="utf-8"?>
<!-- Generator: Adobe Illustrator 22.1.0, SVG Export Plug-In . SVG Version: 6.00 Build 0)  -->
<svg version="1.1" id="Capa_1" xmlns="http://www.w3.org/2000/svg" xmlns:xlink="http://www.w3.org/1999/xlink" x="0px" y="0px"
	 viewBox="0 0 57 68" style="enable-background:new 0 0 57 68;" xml:space="preserve">
<style type="text/css">
	.st0{fill:#0ED1B2;}
	.st1{fill:#EF3A47;}
	.st2{fill:#08AF8F;}
	.st3{fill:#53433F;}
	.st4{fill:#3E322E;}
	.st5{fill:#725D57;}
	.st6{fill:#FFE6B3;}
	.st7{fill:#FFF7CC;}
	.st8{fill:#FF9100;}
	.st9{fill:#FF641A;}
	.st10{fill:#5E240D;}
	.st11{fill:#7D3214;}
	.st12{fill:#963E1C;}
	.st13{fill:#B6F1FB;}
	.st14{fill:#6EE2F6;}
	.st15{fill:#FF9A42;}
	.st16{fill:#FFD185;}
	.st17{fill:#C24623;}
</style>
<g>
	<path class="st0" d="M51,52.6L33.3,62.8c-3,1.7-6.7,1.7-9.6,0L6,52.6c-3-1.7-4.8-4.9-4.8-8.4V23.8c0-3.4,1.8-6.6,4.8-8.4L23.7,5.2
		c3-1.7,6.7-1.7,9.6,0L51,15.4c3,1.7,4.8,4.9,4.8,8.4v20.4C55.8,47.7,54,50.8,51,52.6z"/>
	<path class="st1" d="M28.5,7.5c-3.3,0-6,2.7-6,6s2.7,6,6,6s6-2.7,6-6S31.8,7.5,28.5,7.5z M24.9,10.4c0.1-0.2,0.3-0.3,0.5-0.5
		c0.8-0.7,1.9-1.2,3.1-1.2c1,0,1.9,0.3,2.7,0.9l-6.5,6.5c-0.5-0.8-0.9-1.7-0.9-2.7C23.8,12.3,24.2,11.3,24.9,10.4z M32.1,16.6
		c-0.1,0.2-0.3,0.3-0.5,0.5c-0.8,0.7-1.9,1.2-3.1,1.2c-1,0-1.9-0.3-2.7-0.9l6.5-6.5c0.5,0.8,0.9,1.7,0.9,2.7
		C33.2,14.7,32.8,15.8,32.1,16.6z"/>
	<g>
		<g>
			<g>
				<path class="st2" d="M20.7,25.3V23c0-0.3-0.2-0.4-0.4-0.4c-0.3,0-0.4,0.2-0.4,0.4v2.3c-0.5,0.2-0.9,0.7-0.9,1.3
					c0,0.7,0.6,1.3,1.3,1.3c0.7,0,1.3-0.6,1.3-1.3C21.6,26,21.2,25.5,20.7,25.3z"/>
				<path class="st2" d="M19.1,28.7l-1.8-1.8c-0.1-0.1-0.1-0.2-0.1-0.3v-2.4l-1.5-0.8c-0.2-0.1-0.3-0.4-0.2-0.6
					c0.1-0.2,0.4-0.3,0.6-0.2l1.8,0.9c0.2,0.1,0.2,0.2,0.2,0.4v2.5l1.7,1.7c0.2,0.2,0.2,0.5,0,0.6C19.5,28.9,19.2,28.9,19.1,28.7
					L19.1,28.7z"/>
				<g>
					<path class="st2" d="M20.9,28.7c-0.2-0.2-0.2-0.5,0-0.6l1.7-1.7v-2.5c0-0.2,0.1-0.3,0.2-0.4l1.8-0.9c0.2-0.1,0.5,0,0.6,0.2
						c0.1,0.2,0,0.5-0.2,0.6l-1.5,0.8v2.4c0,0.1,0,0.2-0.1,0.3l-1.8,1.8C21.3,28.9,21,28.9,20.9,28.7L20.9,28.7z"/>
					<path class="st2" d="M26.2,36.9L24.5,35c-0.1-0.1-0.1-0.2-0.1-0.3v-1.4l-3.3-0.8c-0.2-0.1-0.4-0.3-0.3-0.5
						c0.1-0.2,0.3-0.4,0.5-0.3l3.6,0.9c0.2,0.1,0.3,0.2,0.3,0.4v1.6l1.7,1.7c0.2,0.2,0.2,0.5,0,0.6C26.7,37.1,26.4,37.1,26.2,36.9
						L26.2,36.9z"/>
					<path class="st2" d="M24.5,37.8l-1.8-1.9c-0.1-0.1-0.1-0.2-0.1-0.3V34l-1.7-1.7c-0.2-0.2-0.2-0.5,0-0.6s0.5-0.2,0.6,0l1.8,1.8
						c0.1,0.1,0.1,0.2,0.1,0.3v1.6l1.7,1.7c0.2,0.2,0.2,0.5,0,0.6C24.9,38,24.6,38,24.5,37.8L24.5,37.8z"/>
					<path class="st2" d="M20.7,25.3V23c0-0.3-0.2-0.4-0.4-0.4v2.7v0.9V28c0.7,0,1.3-0.6,1.3-1.3C21.6,26,21.2,25.5,20.7,25.3z"/>
				</g>
				<path class="st2" d="M20.3,27.1c-0.7,0-1.3,0.6-1.3,1.3v0.9c0,0.7,0.6,1.3,1.3,1.3c0.7,0,1.3-0.6,1.3-1.3v-0.9
					C21.6,27.7,21,27.1,20.3,27.1z"/>
				<path class="st2" d="M21.6,28.4v0.9c0,0.7-0.6,1.3-1.3,1.3v-3.6C21,27.1,21.6,27.7,21.6,28.4z"/>
				<path class="st2" d="M26.6,30.7H23c-1.2,0-2.2-1-2.2-2.2c0-0.2,0.2-0.4,0.4-0.4h5.4c0.7,0,1.3,0.6,1.3,1.3S27.3,30.7,26.6,30.7z
					"/>
				<path class="st2" d="M17.6,30.7H14c-0.7,0-1.3-0.6-1.3-1.3S13.2,28,14,28h5.4c0.2,0,0.4,0.2,0.4,0.4
					C19.8,29.7,18.8,30.7,17.6,30.7z"/>
				<path class="st2" d="M13.7,36.9c-0.2-0.2-0.2-0.5,0-0.6l1.7-1.7v-1.6c0-0.2,0.1-0.4,0.3-0.4l3.6-0.9c0.2-0.1,0.5,0.1,0.5,0.3
					c0.1,0.2-0.1,0.5-0.3,0.5l-3.3,0.8v1.4c0,0.1,0,0.2-0.1,0.3l-1.8,1.9C14.1,37.1,13.8,37.1,13.7,36.9L13.7,36.9z"/>
				<path class="st2" d="M15.5,37.8c-0.2-0.2-0.2-0.5,0-0.6l1.7-1.7v-1.6c0-0.1,0-0.2,0.1-0.3l1.8-1.8c0.2-0.2,0.5-0.2,0.6,0
					c0.2,0.2,0.2,0.5,0,0.6L18,34v1.6c0,0.1,0,0.2-0.1,0.3l-1.8,1.9C15.9,38,15.6,38,15.5,37.8z"/>
				<path class="st2" d="M21.2,33.8L21.2,33.8L21.2,33.8z M20.3,29.8c-0.7,0-1.3,0.6-1.3,1.3v2.7c0,0.1,0,0.1,0,0.2l0.9,1.8
					c0.1,0.2,0.2,0.3,0.4,0.3c0.2,0,0.3-0.1,0.4-0.3l0.9-1.8c0-0.1,0-0.1,0-0.2v-2.7C21.6,30.4,21,29.8,20.3,29.8z"/>
				<path class="st2" d="M21.6,31.1v2.7c0,0.1,0,0.1,0,0.2l-0.9,1.8c-0.1,0.2-0.2,0.3-0.4,0.3v-6.3C21,29.8,21.6,30.4,21.6,31.1z"/>
			</g>
			<g>
				<path class="st3" d="M20.7,24.9v-2.3c0-0.3-0.2-0.4-0.4-0.4c-0.3,0-0.4,0.2-0.4,0.4v2.3c-0.5,0.2-0.9,0.7-0.9,1.3
					c0,0.7,0.6,1.3,1.3,1.3c0.7,0,1.3-0.6,1.3-1.3C21.6,25.5,21.2,25,20.7,24.9z"/>
				<path class="st3" d="M19.1,28.3l-1.8-1.8c-0.1-0.1-0.1-0.2-0.1-0.3v-2.4l-1.5-0.8c-0.2-0.1-0.3-0.4-0.2-0.6
					c0.1-0.2,0.4-0.3,0.6-0.2l1.8,0.9c0.2,0.1,0.2,0.2,0.2,0.4V26l1.7,1.7c0.2,0.2,0.2,0.5,0,0.6C19.5,28.4,19.2,28.4,19.1,28.3
					L19.1,28.3z"/>
				<g>
					<path class="st4" d="M20.9,28.3c-0.2-0.2-0.2-0.5,0-0.6l1.7-1.7v-2.5c0-0.2,0.1-0.3,0.2-0.4l1.8-0.9c0.2-0.1,0.5,0,0.6,0.2
						c0.1,0.2,0,0.5-0.2,0.6l-1.5,0.8v2.4c0,0.1,0,0.2-0.1,0.3l-1.8,1.8C21.3,28.4,21,28.4,20.9,28.3L20.9,28.3z"/>
					<path class="st4" d="M26.2,36.4l-1.8-1.9c-0.1-0.1-0.1-0.2-0.1-0.3v-1.4L21.1,32c-0.2-0.1-0.4-0.3-0.3-0.5
						c0.1-0.2,0.3-0.4,0.5-0.3l3.6,0.9c0.2,0.1,0.3,0.2,0.3,0.4V34l1.7,1.7c0.2,0.2,0.2,0.5,0,0.6C26.7,36.6,26.4,36.6,26.2,36.4
						L26.2,36.4z"/>
					<path class="st4" d="M24.5,37.3l-1.8-1.9c-0.1-0.1-0.1-0.2-0.1-0.3v-1.6l-1.7-1.7c-0.2-0.2-0.2-0.5,0-0.6s0.5-0.2,0.6,0
						l1.8,1.8c0.1,0.1,0.1,0.2,0.1,0.3v1.6l1.7,1.7c0.2,0.2,0.2,0.5,0,0.6C24.9,37.5,24.6,37.5,24.5,37.3L24.5,37.3z"/>
					<path class="st4" d="M20.7,24.9v-2.3c0-0.3-0.2-0.4-0.4-0.4v2.7v0.9v1.8c0.7,0,1.3-0.6,1.3-1.3C21.6,25.5,21.2,25,20.7,24.9z"
						/>
				</g>
				<path class="st5" d="M20.3,26.6c-0.7,0-1.3,0.6-1.3,1.3v0.9c0,0.7,0.6,1.3,1.3,1.3c0.7,0,1.3-0.6,1.3-1.3v-0.9
					C21.6,27.2,21,26.6,20.3,26.6z"/>
				<path class="st3" d="M21.6,27.9v0.9c0,0.7-0.6,1.3-1.3,1.3v-3.6C21,26.6,21.6,27.2,21.6,27.9z"/>
				<path class="st6" d="M26.6,30.2H23c-1.2,0-2.2-1-2.2-2.2c0-0.2,0.2-0.4,0.4-0.4h5.4c0.7,0,1.3,0.6,1.3,1.3
					C27.9,29.6,27.3,30.2,26.6,30.2z"/>
				<path class="st7" d="M17.6,30.2H14c-0.7,0-1.3-0.6-1.3-1.3c0-0.7,0.6-1.3,1.3-1.3h5.4c0.2,0,0.4,0.2,0.4,0.4
					C19.8,29.2,18.8,30.2,17.6,30.2z"/>
				<path class="st3" d="M13.7,36.4c-0.2-0.2-0.2-0.5,0-0.6l1.7-1.7v-1.6c0-0.2,0.1-0.4,0.3-0.4l3.6-0.9c0.2-0.1,0.5,0.1,0.5,0.3
					c0.1,0.2-0.1,0.5-0.3,0.5l-3.3,0.8v1.4c0,0.1,0,0.2-0.1,0.3l-1.8,1.9C14.1,36.6,13.8,36.6,13.7,36.4L13.7,36.4z"/>
				<path class="st3" d="M15.5,37.3c-0.2-0.2-0.2-0.5,0-0.6l1.7-1.7v-1.6c0-0.1,0-0.2,0.1-0.3l1.8-1.8c0.2-0.2,0.5-0.2,0.6,0
					c0.2,0.2,0.2,0.5,0,0.6L18,33.5v1.6c0,0.1,0,0.2-0.1,0.3l-1.8,1.9C15.9,37.5,15.6,37.5,15.5,37.3z"/>
				<path class="st8" d="M21.2,33.3L21.2,33.3L21.2,33.3z M20.3,29.3c-0.7,0-1.3,0.6-1.3,1.3v2.7c0,0.1,0,0.1,0,0.2l0.9,1.8
					c0.1,0.2,0.2,0.3,0.4,0.3c0.2,0,0.3-0.1,0.4-0.3l0.9-1.8c0-0.1,0-0.1,0-0.2v-2.7C21.6,29.9,21,29.3,20.3,29.3z"/>
				<path class="st9" d="M21.6,30.6v2.7c0,0.1,0,0.1,0,0.2l-0.9,1.8c-0.1,0.2-0.2,0.3-0.4,0.3v-6.3C21,29.3,21.6,29.9,21.6,30.6z"/>
			</g>
		</g>
		<g>
			<g>
				<g>
					<path class="st2" d="M36.9,22.8c-0.1,0-0.2,0.1-0.2,0.2v3.2h0.4V23C37.2,22.9,37.1,22.8,36.9,22.8z"/>
					<path class="st2" d="M43.8,36.4c-1.1-0.6-2-1.5-2.6-2.5v-2.2c0-0.1,0-0.1-0.1-0.2L38,28.4l-0.3,0.3l3.1,3.1v2.2
						c0,0,0,0.1,0,0.1c0.6,1.2,1.6,2.2,2.8,2.8c0,0,0.1,0,0.1,0c0.1,0,0.2,0,0.2-0.1C43.9,36.6,43.9,36.5,43.8,36.4L43.8,36.4z"/>
					<path class="st2" d="M42.4,37.5c-1.1-0.6-2-1.5-2.6-2.5v-2.6c0,0,0-0.1,0-0.1l-1.9-2.8l-0.4,0.2l1.9,2.8V35c0,0,0,0.1,0,0.1
						c0.6,1.2,1.6,2.2,2.8,2.8c0,0,0.1,0,0.1,0c0.1,0,0.2,0,0.2-0.1C42.6,37.7,42.6,37.5,42.4,37.5L42.4,37.5z"/>
					<path class="st2" d="M41.9,22.7c-0.1-0.1-0.2-0.2-0.3-0.1c-0.9,0.5-1.7,1.2-2.1,2.1c0,0,0,0.1,0,0.1v1.8l-1.7,1.7l0.3,0.3
						l1.8-1.8c0,0,0.1-0.1,0.1-0.2v-1.8c0.4-0.8,1.1-1.5,1.9-1.9C41.9,22.9,41.9,22.8,41.9,22.7z"/>
					<path class="st2" d="M30.1,36.4c1.1-0.6,2-1.5,2.6-2.5v-2.2c0-0.1,0-0.1,0.1-0.2l3.1-3.1l0.3,0.3l-3.1,3.1v2.2c0,0,0,0.1,0,0.1
						c-0.6,1.2-1.6,2.2-2.8,2.8c0,0-0.1,0-0.1,0c-0.1,0-0.2,0-0.2-0.1C30,36.6,30,36.5,30.1,36.4L30.1,36.4z"/>
					<path class="st2" d="M31.5,37.5c1.1-0.6,2-1.5,2.6-2.5v-2.6c0,0,0-0.1,0-0.1l1.9-2.8l0.4,0.2l-1.9,2.8V35c0,0,0,0.1,0,0.1
						c-0.6,1.2-1.6,2.2-2.8,2.8c0,0-0.1,0-0.1,0c-0.1,0-0.2,0-0.2-0.1C31.3,37.7,31.3,37.5,31.5,37.5z"/>
					<path class="st2" d="M32,22.7c0.1-0.1,0.2-0.2,0.3-0.1c0.9,0.5,1.7,1.2,2.1,2.1c0,0,0,0.1,0,0.1v1.8l1.7,1.7l-0.3,0.3l-1.8-1.8
						c0,0-0.1-0.1-0.1-0.2v-1.8c-0.4-0.8-1.1-1.5-1.9-1.9C32,22.9,32,22.8,32,22.7z"/>
				</g>
				<path class="st2" d="M37.8,26.3l-0.9-0.7l-0.2,2.2l0.7-0.4c0.3,0,0.6-0.3,0.6-0.6C38.1,26.6,38,26.4,37.8,26.3z"/>
				<path class="st2" d="M37.2,26.8c0-0.2,0-0.4,0-0.5l-0.2-0.7l-0.9,0.7c-0.1,0.1-0.2,0.3-0.2,0.5c0,0.3,0.3,0.6,0.6,0.6l0.3,0.4
					l0.3-0.4C37.1,27.4,37.2,27.1,37.2,26.8z"/>
				<path class="st2" d="M30.2,28.1c-0.4,0-0.7,0.3-0.7,0.7c0,0.4,0.3,0.7,0.7,0.7h3c0.3,0,0.5,0,0.8-0.1l1.6-0.4l0.9-0.9H30.2z"/>
				<path class="st2" d="M43.7,28.1h-0.9v1.3h0.9c0.4,0,0.7-0.3,0.7-0.7C44.4,28.4,44.1,28.1,43.7,28.1z"/>
				<path class="st2" d="M43.5,28.7c0-0.4-0.3-0.7-0.7-0.7h-5.9l1.3,0.9l1.6,0.4c0.3,0.1,0.5,0.1,0.8,0.1h2.1
					C43.2,29.4,43.5,29.1,43.5,28.7z"/>
				<path class="st2" d="M37.6,33.6v0.7c0,0.4-0.3,0.7-0.7,0.7s-0.7-0.3-0.7-0.7v-0.7l0.7-0.4L37.6,33.6z"/>
				<path class="st2" d="M37.6,32.7v0.9h-1.3v-0.9l0.7-0.4L37.6,32.7z"/>
				<path class="st2" d="M37.6,31.8v0.9h-1.3v-0.9l0.7-0.4L37.6,31.8z"/>
				<path class="st2" d="M36.3,30.3h1.3v1.5h-1.3V30.3z"/>
				<path class="st2" d="M37.6,27.4h-0.9l0.2,3.6c0.8,0,1.4-0.6,1.4-1.3v-1.5C38.3,27.7,38,27.4,37.6,27.4z"/>
				<path class="st2" d="M37.4,29.6v-1.5c0-0.4-0.3-0.7-0.7-0.7h-0.4c-0.4,0-0.7,0.3-0.7,0.7v1.5c0,0.7,0.6,1.4,1.3,1.4
					C37.2,31,37.4,30.4,37.4,29.6z"/>
			</g>
			<g>
				<g>
					<path class="st10" d="M36.9,22.3c-0.1,0-0.2,0.1-0.2,0.2v3.2h0.4v-3.2C37.2,22.4,37.1,22.3,36.9,22.3z"/>
					<path class="st10" d="M43.8,35.9c-1.1-0.6-2-1.5-2.6-2.5v-2.2c0-0.1,0-0.1-0.1-0.2L38,27.9l-0.3,0.3l3.1,3.1v2.2
						c0,0,0,0.1,0,0.1c0.6,1.2,1.6,2.2,2.8,2.8c0,0,0.1,0,0.1,0c0.1,0,0.2,0,0.2-0.1C43.9,36.1,43.9,36,43.8,35.9L43.8,35.9z"/>
					<path class="st10" d="M42.4,37c-1.1-0.6-2-1.5-2.6-2.5v-2.6c0,0,0-0.1,0-0.1l-1.9-2.8l-0.4,0.2l1.9,2.8v2.6c0,0,0,0.1,0,0.1
						c0.6,1.2,1.6,2.2,2.8,2.8c0,0,0.1,0,0.1,0c0.1,0,0.2,0,0.2-0.1C42.6,37.2,42.6,37.1,42.4,37L42.4,37z"/>
					<path class="st10" d="M41.9,22.2c-0.1-0.1-0.2-0.2-0.3-0.1c-0.9,0.5-1.7,1.2-2.1,2.1c0,0,0,0.1,0,0.1v1.8l-1.7,1.7l0.3,0.3
						l1.8-1.8c0,0,0.1-0.1,0.1-0.2v-1.8c0.4-0.8,1.1-1.5,1.9-1.9C41.9,22.5,41.9,22.3,41.9,22.2z"/>
					<path class="st10" d="M30.1,35.9c1.1-0.6,2-1.5,2.6-2.5v-2.2c0-0.1,0-0.1,0.1-0.2l3.1-3.1l0.3,0.3l-3.1,3.1v2.2
						c0,0,0,0.1,0,0.1c-0.6,1.2-1.6,2.2-2.8,2.8c0,0-0.1,0-0.1,0c-0.1,0-0.2,0-0.2-0.1C30,36.1,30,36,30.1,35.9L30.1,35.9z"/>
					<path class="st10" d="M31.5,37c1.1-0.6,2-1.5,2.6-2.5v-2.6c0,0,0-0.1,0-0.1l1.9-2.8l0.4,0.2l-1.9,2.8v2.6c0,0,0,0.1,0,0.1
						c-0.6,1.2-1.6,2.2-2.8,2.8c0,0-0.1,0-0.1,0c-0.1,0-0.2,0-0.2-0.1C31.3,37.2,31.3,37.1,31.5,37z"/>
					<path class="st10" d="M32,22.2c0.1-0.1,0.2-0.2,0.3-0.1c0.9,0.5,1.7,1.2,2.1,2.1c0,0,0,0.1,0,0.1v1.8l1.7,1.7l-0.3,0.3
						l-1.8-1.8c0,0-0.1-0.1-0.1-0.2v-1.8c-0.4-0.8-1.1-1.5-1.9-1.9C32,22.5,32,22.3,32,22.2z"/>
				</g>
				<path class="st11" d="M37.8,25.8l-0.9-0.7l-0.2,2.2l0.7-0.4c0.3,0,0.6-0.3,0.6-0.6C38.1,26.1,38,25.9,37.8,25.8z"/>
				<path class="st12" d="M37.2,26.3c0-0.2,0-0.4,0-0.5l-0.2-0.7l-0.9,0.7c-0.1,0.1-0.2,0.3-0.2,0.5c0,0.3,0.3,0.6,0.6,0.6l0.3,0.4
					l0.3-0.4C37.1,26.9,37.2,26.6,37.2,26.3z"/>
				<path class="st13" d="M30.2,27.6c-0.4,0-0.7,0.3-0.7,0.7c0,0.4,0.3,0.7,0.7,0.7h3c0.3,0,0.5,0,0.8-0.1l1.6-0.4l0.9-0.9H30.2z"/>
				<path class="st14" d="M43.7,27.6h-0.9v1.3h0.9c0.4,0,0.7-0.3,0.7-0.7C44.4,27.9,44.1,27.6,43.7,27.6z"/>
				<path class="st13" d="M43.5,28.3c0-0.4-0.3-0.7-0.7-0.7h-5.9l1.3,0.9l1.6,0.4c0.3,0.1,0.5,0.1,0.8,0.1h2.1
					C43.2,28.9,43.5,28.6,43.5,28.3z"/>
				<path class="st15" d="M37.6,33.2v0.7c0,0.4-0.3,0.7-0.7,0.7s-0.7-0.3-0.7-0.7v-0.7l0.7-0.4L37.6,33.2z"/>
				<path class="st16" d="M37.6,32.3v0.9h-1.3v-0.9l0.7-0.4L37.6,32.3z"/>
				<path class="st15" d="M37.6,31.4v0.9h-1.3v-0.9l0.7-0.4L37.6,31.4z"/>
				<path class="st16" d="M36.3,29.9h1.3v1.5h-1.3V29.9z"/>
				<path class="st12" d="M37.6,26.9h-0.9l0.2,3.6c0.8,0,1.4-0.6,1.4-1.3v-1.5C38.3,27.2,38,26.9,37.6,26.9z"/>
				<path class="st17" d="M37.4,29.1v-1.5c0-0.4-0.3-0.7-0.7-0.7h-0.4c-0.4,0-0.7,0.3-0.7,0.7v1.5c0,0.7,0.6,1.4,1.3,1.4
					C37.2,30.5,37.4,29.9,37.4,29.1z"/>
			</g>
		</g>
	</g>
	<g>
		<g>
			<path class="st2" d="M27,46.6l-2.5-0.8c-0.1,0-0.2-0.1-0.3-0.2l-0.8-1.7h-1.6c-0.3,0-0.5-0.2-0.5-0.5c0-0.3,0.2-0.5,0.5-0.5h1.9
				c0.2,0,0.4,0.1,0.4,0.3l0.9,1.8l2.3,0.8c0.3,0.1,0.4,0.4,0.3,0.6C27.5,46.5,27.2,46.7,27,46.6L27,46.6z"/>
			<path class="st2" d="M21.3,50.4c-0.1-0.2,0-0.5,0.2-0.6l1.8-0.9l0.9-1.8c0.1-0.2,0.2-0.3,0.4-0.3h1.8c0.3,0,0.5,0.2,0.5,0.5
				c0,0.3-0.2,0.5-0.5,0.5h-1.5l-0.8,1.7c0,0.1-0.1,0.2-0.2,0.2l-1.9,1C21.7,50.7,21.4,50.6,21.3,50.4L21.3,50.4z"/>
			<g>
				<path class="st2" d="M29.4,46.3c-0.1-0.3,0.1-0.5,0.3-0.6l2.3-0.8l0.9-1.8c0.1-0.2,0.2-0.3,0.4-0.3h1.9c0.3,0,0.5,0.2,0.5,0.5
					c0,0.3-0.2,0.5-0.5,0.5h-1.6l-0.8,1.7c-0.1,0.1-0.2,0.2-0.3,0.2L30,46.6C29.8,46.7,29.5,46.5,29.4,46.3z"/>
				<path class="st2" d="M35.1,50.6l-1.9-1c-0.1,0-0.2-0.1-0.2-0.2l-0.8-1.7h-1.5c-0.3,0-0.5-0.2-0.5-0.5c0-0.3,0.2-0.5,0.5-0.5h1.8
					c0.2,0,0.4,0.1,0.4,0.3l0.9,1.8l1.8,0.9c0.2,0.1,0.3,0.4,0.2,0.6C35.6,50.6,35.3,50.7,35.1,50.6L35.1,50.6z"/>
				<path class="st2" d="M30.4,43.8c-0.2,0-0.4-0.1-0.5-0.3c-0.1-0.3,0-0.5,0.3-0.6c0.4-0.1,0.6-0.5,0.6-0.9c0-0.5-0.4-1-1-1
					c-0.3,0-0.5-0.2-0.5-0.5S29.7,40,30,40c1.1,0,1.9,0.9,1.9,1.9c0,0.8-0.5,1.6-1.3,1.8C30.5,43.8,30.5,43.8,30.4,43.8z"/>
			</g>
			<path class="st2" d="M26.6,43.8c-0.1,0-0.1,0-0.2,0c-0.8-0.3-1.3-1-1.3-1.8c0-1.1,0.9-1.9,1.9-1.9c0.3,0,0.5,0.2,0.5,0.5
				s-0.2,0.5-0.5,0.5c-0.5,0-1,0.4-1,1c0,0.4,0.3,0.8,0.6,0.9c0.3,0.1,0.4,0.4,0.3,0.6C27,43.6,26.8,43.8,26.6,43.8z"/>
			<path class="st2" d="M28.9,44c-0.1-0.1-0.2-0.2-0.4-0.2s-0.3,0-0.4,0.2c-0.2,0.2-4,4.7-4,8c0,3.9,2.5,4.4,4.4,4.4
				s4.4-0.5,4.4-4.4C32.9,48.7,29,44.2,28.9,44z"/>
			<path class="st2" d="M32.9,52.1c0,3.9-2.5,4.4-4.4,4.4V43.9c0.1,0,0.3,0,0.4,0.2C29,44.2,32.9,48.7,32.9,52.1z"/>
			<path class="st2" d="M28.8,44c-0.1-0.1-0.2-0.1-0.3-0.1s-0.2,0-0.3,0.1c-0.1,0.1-2.1,1.9-2.1,4.2c0,2.5,1,4.4,2.4,4.4
				c1.4,0,2.4-1.9,2.4-4.4C30.9,45.9,28.9,44.1,28.8,44z"/>
			<path class="st2" d="M30.9,48.2c0,2.5-1,4.4-2.4,4.4v-8.7c0.1,0,0.2,0,0.3,0.1C28.9,44.1,30.9,45.9,30.9,48.2z"/>
			<path class="st2" d="M29.5,41.9h-1.9c-0.8,0-1.5,0.6-1.5,1.5c0,0.8,0.6,1.5,1.5,1.5h1.9c0.8,0,1.5-0.6,1.5-1.5
				C30.9,42.6,30.3,41.9,29.5,41.9z"/>
			<path class="st2" d="M30.9,43.4c0,0.8-0.6,1.5-1.5,1.5h-1v-2.9h1C30.3,41.9,30.9,42.6,30.9,43.4z"/>
		</g>
		<g>
			<path class="st3" d="M27,46l-2.5-0.8c-0.1,0-0.2-0.1-0.3-0.2l-0.8-1.7h-1.6c-0.3,0-0.5-0.2-0.5-0.5c0-0.3,0.2-0.5,0.5-0.5h1.9
				c0.2,0,0.4,0.1,0.4,0.3l0.9,1.8l2.3,0.8c0.3,0.1,0.4,0.4,0.3,0.6C27.5,46,27.2,46.1,27,46L27,46z"/>
			<path class="st3" d="M21.3,49.8c-0.1-0.2,0-0.5,0.2-0.6l1.8-0.9l0.9-1.8c0.1-0.2,0.2-0.3,0.4-0.3h1.8c0.3,0,0.5,0.2,0.5,0.5
				s-0.2,0.5-0.5,0.5h-1.5l-0.8,1.7c0,0.1-0.1,0.2-0.2,0.2l-1.9,1C21.7,50.1,21.4,50,21.3,49.8L21.3,49.8z"/>
			<g>
				<path class="st4" d="M29.4,45.7c-0.1-0.3,0.1-0.5,0.3-0.6l2.3-0.8l0.9-1.8c0.1-0.2,0.2-0.3,0.4-0.3h1.9c0.3,0,0.5,0.2,0.5,0.5
					c0,0.3-0.2,0.5-0.5,0.5h-1.6L32.8,45c-0.1,0.1-0.2,0.2-0.3,0.2L30,46C29.8,46.1,29.5,46,29.4,45.7z"/>
				<path class="st4" d="M35.1,50l-1.9-1c-0.1,0-0.2-0.1-0.2-0.2l-0.8-1.7h-1.5c-0.3,0-0.5-0.2-0.5-0.5s0.2-0.5,0.5-0.5h1.8
					c0.2,0,0.4,0.1,0.4,0.3l0.9,1.8l1.8,0.9c0.2,0.1,0.3,0.4,0.2,0.6C35.6,50,35.3,50.1,35.1,50L35.1,50z"/>
				<path class="st4" d="M30.4,43.2c-0.2,0-0.4-0.1-0.5-0.3c-0.1-0.3,0-0.5,0.3-0.6c0.4-0.1,0.6-0.5,0.6-0.9c0-0.5-0.4-1-1-1
					c-0.3,0-0.5-0.2-0.5-0.5c0-0.3,0.2-0.5,0.5-0.5c1.1,0,1.9,0.9,1.9,1.9c0,0.8-0.5,1.6-1.3,1.8C30.5,43.2,30.5,43.2,30.4,43.2z"/>
			</g>
			<path class="st3" d="M26.6,43.2c-0.1,0-0.1,0-0.2,0c-0.8-0.3-1.3-1-1.3-1.8c0-1.1,0.9-1.9,1.9-1.9c0.3,0,0.5,0.2,0.5,0.5
				c0,0.3-0.2,0.5-0.5,0.5c-0.5,0-1,0.4-1,1c0,0.4,0.3,0.8,0.6,0.9c0.3,0.1,0.4,0.4,0.3,0.6C27,43.1,26.8,43.2,26.6,43.2z"/>
			<path class="st8" d="M28.9,43.5c-0.1-0.1-0.2-0.2-0.4-0.2s-0.3,0-0.4,0.2c-0.2,0.2-4,4.7-4,8c0,3.9,2.5,4.4,4.4,4.4
				s4.4-0.5,4.4-4.4C32.9,48.2,29,43.6,28.9,43.5z"/>
			<path class="st9" d="M32.9,51.5c0,3.9-2.5,4.4-4.4,4.4V43.3c0.1,0,0.3,0,0.4,0.2C29,43.6,32.9,48.2,32.9,51.5z"/>
			<path class="st3" d="M28.8,43.4c-0.1-0.1-0.2-0.1-0.3-0.1s-0.2,0-0.3,0.1c-0.1,0.1-2.1,1.9-2.1,4.2c0,2.5,1,4.4,2.4,4.4
				c1.4,0,2.4-1.9,2.4-4.4C30.9,45.3,28.9,43.5,28.8,43.4z"/>
			<path class="st4" d="M30.9,47.6c0,2.5-1,4.4-2.4,4.4v-8.7c0.1,0,0.2,0,0.3,0.1C28.9,43.5,30.9,45.3,30.9,47.6z"/>
			<path class="st5" d="M29.5,41.4h-1.9c-0.8,0-1.5,0.6-1.5,1.5c0,0.8,0.6,1.5,1.5,1.5h1.9c0.8,0,1.5-0.6,1.5-1.5
				C30.9,42,30.3,41.4,29.5,41.4z"/>
			<path class="st3" d="M30.9,42.8c0,0.8-0.6,1.5-1.5,1.5h-1v-2.9h1C30.3,41.4,30.9,42,30.9,42.8z"/>
		</g>
	</g>
</g>
</svg>
