<?xml version="1.0" encoding="UTF-8"?>
<svg xmlns="http://www.w3.org/2000/svg" xmlns:xlink="http://www.w3.org/1999/xlink" width="57pt" height="68pt" viewBox="0 0 57 68" version="1.1">
<g id="surface1">
<path style=" stroke:none;fill-rule:nonzero;fill:rgb(28.235294%,29.411765%,49.803922%);fill-opacity:1;" d="M 51 52.601562 L 33.300781 62.800781 C 30.300781 64.5 26.601562 64.5 23.699219 62.800781 L 6 52.601562 C 3 50.898438 1.199219 47.699219 1.199219 44.199219 L 1.199219 23.800781 C 1.199219 20.398438 3 17.199219 6 15.398438 L 23.699219 5.199219 C 26.699219 3.5 30.398438 3.5 33.300781 5.199219 L 51 15.398438 C 54 17.101562 55.800781 20.300781 55.800781 23.800781 L 55.800781 44.199219 C 55.800781 47.699219 54 50.800781 51 52.601562 Z M 51 52.601562 "/>
<path style=" stroke:none;fill-rule:nonzero;fill:rgb(14.901961%,25.098039%,42.745098%);fill-opacity:1;" d="M 28.5 14.199219 C 16.5 14.199219 6.699219 24 6.699219 36 C 6.699219 48 16.5 57.800781 28.5 57.800781 C 40.5 57.800781 50.300781 48 50.300781 36 C 50.300781 24 40.5 14.199219 28.5 14.199219 Z M 15.5 24.800781 C 16 24.199219 16.601562 23.601562 17.199219 23.101562 C 20.199219 20.5 24.101562 18.898438 28.398438 18.898438 C 32.101562 18.898438 35.5 20.101562 38.199219 22 L 34.101562 26.101562 C 34.101562 26 34.101562 25.898438 34.101562 25.800781 C 34.101562 23.398438 32.5 21.300781 30.199219 20.699219 C 29.800781 20.601562 29.300781 20.5 28.800781 20.5 C 25.898438 20.5 23.601562 22.898438 23.601562 25.800781 C 23.601562 25.800781 23.601562 25.898438 23.601562 25.898438 C 23.101562 25.601562 22.601562 25.300781 22 25.101562 C 21.601562 25 21.101562 24.898438 20.601562 24.898438 C 17.699219 24.898438 15.398438 27.300781 15.398438 30.199219 C 15.398438 31.300781 15.800781 32.398438 16.398438 33.199219 C 15.300781 34.199219 14.601562 35.601562 14.601562 37.101562 C 14.601562 39 15.601562 40.699219 17.101562 41.601562 C 16.898438 42.101562 16.800781 42.699219 16.800781 43.300781 C 16.800781 43.300781 16.800781 43.398438 16.800781 43.398438 L 14.300781 45.898438 C 12.300781 43.101562 11.199219 39.699219 11.199219 36.101562 C 11.398438 31.699219 12.898438 27.800781 15.5 24.800781 Z M 41.5 47.199219 C 41 47.800781 40.398438 48.398438 39.800781 48.898438 C 36.800781 51.5 32.898438 53.101562 28.601562 53.101562 C 24.898438 53.101562 21.5 51.898438 18.800781 50 L 20.601562 48.199219 C 21.101562 48.398438 21.699219 48.5 22.300781 48.5 C 22.898438 48.5 23.5 48.398438 24.101562 48.199219 C 24.699219 48 25.199219 47.699219 25.699219 47.300781 C 26.5 49.101562 28.300781 50.398438 30.5 50.398438 C 31.101562 50.398438 31.699219 50.300781 32.300781 50.101562 C 34 49.5 35.199219 48.101562 35.601562 46.398438 C 35.800781 46.398438 36.101562 46.5 36.300781 46.5 C 36.898438 46.5 37.5 46.398438 38.101562 46.199219 C 40.101562 45.5 41.601562 43.5 41.601562 41.199219 C 41.601562 40.101562 41.199219 39 40.601562 38.101562 C 41.398438 37.199219 41.898438 36 41.898438 34.601562 C 41.898438 32.5 40.699219 30.699219 38.898438 29.898438 L 42.699219 26.101562 C 44.699219 28.898438 45.800781 32.300781 45.800781 35.898438 C 45.601562 40.300781 44.101562 44.199219 41.5 47.199219 Z M 41.5 47.199219 "/>
<path style=" stroke:none;fill-rule:nonzero;fill:rgb(86.666667%,23.921569%,53.333333%);fill-opacity:1;" d="M 50.300781 34 C 50.300781 46 40.5 55.800781 28.5 55.800781 C 16.5 55.800781 6.699219 46 6.699219 34 C 6.699219 22 16.5 12.199219 28.5 12.199219 C 40.5 12.199219 50.300781 22 50.300781 34 Z M 50.300781 34 "/>
<path style=" stroke:none;fill-rule:nonzero;fill:rgb(28.235294%,29.411765%,49.803922%);fill-opacity:1;" d="M 45.601562 34 C 45.601562 38.300781 44 42.199219 41.398438 45.199219 C 40.898438 45.800781 40.300781 46.398438 39.699219 46.898438 C 36.699219 49.5 32.800781 51.101562 28.5 51.101562 C 19 51.101562 11.398438 43.398438 11.398438 34 C 11.398438 29.699219 13 25.800781 15.601562 22.800781 C 16.101562 22.199219 16.699219 21.601562 17.300781 21.101562 C 20.300781 18.5 24.199219 16.898438 28.5 16.898438 C 38 16.898438 45.601562 24.5 45.601562 34 Z M 45.601562 34 "/>
<path style=" stroke:none;fill-rule:nonzero;fill:rgb(97.647059%,54.901961%,23.529412%);fill-opacity:1;" d="M 34.300781 23.699219 C 34.300781 26 32.800781 27.898438 30.800781 28.699219 C 30.199219 28.898438 29.601562 29 29 29 C 26.101562 29 23.800781 26.601562 23.800781 23.699219 C 23.800781 20.800781 26.199219 18.398438 29 18.398438 C 29.5 18.398438 29.898438 18.5 30.398438 18.601562 C 32.601562 19.300781 34.300781 21.300781 34.300781 23.699219 Z M 34.300781 23.699219 "/>
<path style=" stroke:none;fill-rule:nonzero;fill:rgb(98.431373%,80.392157%,34.509804%);fill-opacity:1;" d="M 34.300781 23.699219 C 34.300781 26 32.800781 27.898438 30.800781 28.699219 C 28.601562 28.101562 26.898438 26.101562 26.898438 23.601562 C 26.898438 21.300781 28.398438 19.398438 30.398438 18.699219 C 32.601562 19.300781 34.300781 21.300781 34.300781 23.699219 Z M 34.300781 23.699219 "/>
<path style=" stroke:none;fill-rule:nonzero;fill:rgb(97.647059%,54.901961%,23.529412%);fill-opacity:1;" d="M 26 28.101562 C 26 30.398438 24.5 32.300781 22.5 33.101562 C 22 33.300781 21.398438 33.398438 20.699219 33.398438 C 17.800781 33.398438 15.5 31 15.5 28.101562 C 15.5 25.199219 17.898438 22.800781 20.699219 22.800781 C 21.199219 22.800781 21.601562 22.898438 22.101562 23 C 24.398438 23.699219 26 25.699219 26 28.101562 Z M 26 28.101562 "/>
<path style=" stroke:none;fill-rule:nonzero;fill:rgb(98.431373%,80.392157%,34.509804%);fill-opacity:1;" d="M 26 28.101562 C 26 30.398438 24.5 32.300781 22.5 33.101562 C 20.300781 32.5 18.601562 30.5 18.601562 28 C 18.601562 25.699219 20.101562 23.800781 22.101562 23 C 24.398438 23.699219 26 25.699219 26 28.101562 Z M 26 28.101562 "/>
<path style=" stroke:none;fill-rule:nonzero;fill:rgb(97.647059%,54.901961%,23.529412%);fill-opacity:1;" d="M 25.199219 35.101562 C 25.199219 38 22.800781 40.300781 19.898438 40.300781 C 17 40.300781 14.699219 37.898438 14.699219 35.101562 C 14.699219 32.199219 17.101562 29.800781 19.898438 29.800781 C 22.898438 29.898438 25.199219 32.199219 25.199219 35.101562 Z M 25.199219 35.101562 "/>
<path style=" stroke:none;fill-rule:nonzero;fill:rgb(97.647059%,54.901961%,23.529412%);fill-opacity:1;" d="M 32.800781 30.300781 C 32.800781 32.601562 31.300781 34.5 29.300781 35.300781 C 28.800781 35.5 28.199219 35.601562 27.5 35.601562 C 24.601562 35.601562 22.300781 33.199219 22.300781 30.300781 C 22.300781 27.398438 24.699219 25 27.5 25 C 28 25 28.398438 25.101562 28.898438 25.199219 C 31.101562 25.898438 32.800781 27.898438 32.800781 30.300781 Z M 32.800781 30.300781 "/>
<path style=" stroke:none;fill-rule:nonzero;fill:rgb(98.431373%,80.392157%,34.509804%);fill-opacity:1;" d="M 32.800781 30.300781 C 32.800781 32.601562 31.300781 34.5 29.300781 35.300781 C 27.101562 34.699219 25.398438 32.699219 25.398438 30.199219 C 25.398438 27.898438 26.898438 26 28.898438 25.199219 C 31.101562 25.898438 32.800781 27.898438 32.800781 30.300781 Z M 32.800781 30.300781 "/>
<path style=" stroke:none;fill-rule:nonzero;fill:rgb(97.647059%,54.901961%,23.529412%);fill-opacity:1;" d="M 41.699219 32.699219 C 41.699219 35 40.199219 36.898438 38.199219 37.699219 C 37.699219 37.898438 37.101562 38 36.398438 38 C 33.5 38 31.199219 35.601562 31.199219 32.699219 C 31.199219 29.800781 33.601562 27.398438 36.398438 27.398438 C 36.898438 27.398438 37.300781 27.5 37.800781 27.601562 C 40.101562 28.199219 41.699219 30.199219 41.699219 32.699219 Z M 41.699219 32.699219 "/>
<path style=" stroke:none;fill-rule:nonzero;fill:rgb(98.431373%,80.392157%,34.509804%);fill-opacity:1;" d="M 41.699219 32.699219 C 41.699219 35 40.199219 36.898438 38.199219 37.699219 C 36 37 34.300781 35 34.300781 32.5 C 34.300781 30.199219 35.800781 28.300781 37.800781 27.5 C 40.101562 28.199219 41.699219 30.199219 41.699219 32.699219 Z M 41.699219 32.699219 "/>
<path style=" stroke:none;fill-rule:nonzero;fill:rgb(98.431373%,80.392157%,34.509804%);fill-opacity:1;" d="M 25.199219 35.101562 C 25.199219 37.398438 23.699219 39.300781 21.699219 40.101562 C 19.5 39.5 17.800781 37.5 17.800781 35 C 17.800781 32.699219 19.300781 30.800781 21.300781 30 C 23.601562 30.601562 25.199219 32.699219 25.199219 35.101562 Z M 25.199219 35.101562 "/>
<path style=" stroke:none;fill-rule:nonzero;fill:rgb(97.647059%,54.901961%,23.529412%);fill-opacity:1;" d="M 33.398438 37.800781 C 33.398438 40.101562 31.898438 42 29.898438 42.800781 C 29.398438 43 28.800781 43.101562 28.101562 43.101562 C 25.199219 43.101562 22.898438 40.699219 22.898438 37.800781 C 22.898438 34.898438 25.300781 32.5 28.101562 32.5 C 28.601562 32.5 29 32.601562 29.5 32.699219 C 31.699219 33.300781 33.398438 35.398438 33.398438 37.800781 Z M 33.398438 37.800781 "/>
<path style=" stroke:none;fill-rule:nonzero;fill:rgb(98.431373%,80.392157%,34.509804%);fill-opacity:1;" d="M 33.398438 37.800781 C 33.398438 40.101562 31.898438 42 29.898438 42.800781 C 27.699219 42.199219 26 40.199219 26 37.699219 C 26 35.398438 27.5 33.5 29.5 32.800781 C 31.699219 33.300781 33.398438 35.398438 33.398438 37.800781 Z M 33.398438 37.800781 "/>
<path style=" stroke:none;fill-rule:nonzero;fill:rgb(97.647059%,54.901961%,23.529412%);fill-opacity:1;" d="M 41.398438 39.199219 C 41.398438 41.5 39.898438 43.398438 37.898438 44.101562 C 37.398438 44.300781 36.800781 44.398438 36.101562 44.398438 C 33.199219 44.398438 30.898438 42 30.898438 39.101562 C 30.898438 36.199219 33.300781 33.800781 36.101562 33.800781 C 36.601562 33.800781 37 33.898438 37.5 34 C 39.699219 34.699219 41.398438 36.699219 41.398438 39.199219 Z M 41.398438 39.199219 "/>
<path style=" stroke:none;fill-rule:nonzero;fill:rgb(98.431373%,80.392157%,34.509804%);fill-opacity:1;" d="M 41.398438 39.199219 C 41.398438 41.5 39.898438 43.398438 37.898438 44.101562 C 35.699219 43.5 34 41.5 34 39 C 34 36.699219 35.5 34.800781 37.5 34 C 39.699219 34.699219 41.398438 36.699219 41.398438 39.199219 Z M 41.398438 39.199219 "/>
<path style=" stroke:none;fill-rule:nonzero;fill:rgb(97.647059%,54.901961%,23.529412%);fill-opacity:1;" d="M 27.5 41.300781 C 27.5 43.601562 26 45.5 24 46.300781 C 23.5 46.5 22.898438 46.601562 22.199219 46.601562 C 19.300781 46.601562 17 44.199219 17 41.300781 C 17 38.398438 19.398438 36 22.199219 36 C 22.699219 36 23.101562 36.101562 23.601562 36.199219 C 25.800781 36.800781 27.5 38.800781 27.5 41.300781 Z M 27.5 41.300781 "/>
<path style=" stroke:none;fill-rule:nonzero;fill:rgb(98.431373%,80.392157%,34.509804%);fill-opacity:1;" d="M 27.5 41.300781 C 27.5 43.601562 26 45.5 24 46.300781 C 21.800781 45.699219 20.101562 43.699219 20.101562 41.199219 C 20.101562 38.898438 21.601562 37 23.601562 36.300781 C 25.800781 36.800781 27.5 38.800781 27.5 41.300781 Z M 27.5 41.300781 "/>
<path style=" stroke:none;fill-rule:nonzero;fill:rgb(97.647059%,54.901961%,23.529412%);fill-opacity:1;" d="M 35.601562 43.101562 C 35.601562 45.398438 34.101562 47.300781 32.101562 48 C 31.601562 48.199219 31 48.300781 30.300781 48.300781 C 27.398438 48.300781 25.101562 45.898438 25.101562 43 C 25.101562 40.101562 27.5 37.699219 30.300781 37.699219 C 30.800781 37.699219 31.199219 37.800781 31.699219 37.898438 C 33.898438 38.699219 35.601562 40.699219 35.601562 43.101562 Z M 35.601562 43.101562 "/>
<path style=" stroke:none;fill-rule:nonzero;fill:rgb(98.431373%,80.392157%,34.509804%);fill-opacity:1;" d="M 35.601562 43.101562 C 35.601562 45.398438 34.101562 47.300781 32.101562 48 C 29.898438 47.398438 28.199219 45.398438 28.199219 42.898438 C 28.199219 40.601562 29.699219 38.699219 31.699219 37.898438 C 33.898438 38.699219 35.601562 40.699219 35.601562 43.101562 Z M 35.601562 43.101562 "/>
<path style=" stroke:none;fill-rule:nonzero;fill:rgb(86.666667%,23.921569%,53.333333%);fill-opacity:1;" d="M 40.101562 18.199219 L 44.300781 22.398438 L 16.898438 49.800781 L 12.699219 45.601562 Z M 40.101562 18.199219 "/>
</g>
</svg>
