<?xml version="1.0" encoding="UTF-8"?>
<svg xmlns="http://www.w3.org/2000/svg" xmlns:xlink="http://www.w3.org/1999/xlink" width="57pt" height="68pt" viewBox="0 0 57 68" version="1.1">
<g id="surface1">
<path style=" stroke:none;fill-rule:nonzero;fill:rgb(86.666667%,38.823529%,43.137255%);fill-opacity:1;" d="M 51 52.601562 L 33.300781 62.800781 C 30.300781 64.5 26.601562 64.5 23.699219 62.800781 L 6 52.601562 C 3 50.898438 1.199219 47.699219 1.199219 44.199219 L 1.199219 23.800781 C 1.199219 20.398438 3 17.199219 6 15.398438 L 23.699219 5.199219 C 26.699219 3.5 30.398438 3.5 33.300781 5.199219 L 51 15.398438 C 54 17.101562 55.800781 20.300781 55.800781 23.800781 L 55.800781 44.199219 C 55.800781 47.699219 54 50.800781 51 52.601562 Z M 51 52.601562 "/>
<path style=" stroke:none;fill-rule:nonzero;fill:rgb(94.509804%,82.745098%,20%);fill-opacity:1;" d="M 52.898438 45.699219 C 52.898438 38.5 40.101562 21.601562 40.101562 21.601562 C 40.101562 21.601562 27.300781 38.398438 27.300781 45.699219 C 27.300781 53 33 58.800781 40.101562 58.800781 C 47.199219 58.800781 52.898438 52.898438 52.898438 45.699219 Z M 52.898438 45.699219 "/>
<path style=" stroke:none;fill-rule:nonzero;fill:rgb(90.588235%,64.705882%,18.039216%);fill-opacity:1;" d="M 40.101562 58.800781 C 33 58.800781 27.300781 52.898438 27.300781 45.699219 C 27.300781 38.5 40.101562 21.601562 40.101562 21.601562 C 40.101562 21.601562 34.101562 38.5 34.101562 45.699219 C 34.101562 52.898438 36.800781 58.800781 40.101562 58.800781 Z M 40.101562 58.800781 "/>
<path style=" stroke:none;fill-rule:nonzero;fill:rgb(97.647059%,93.72549%,38.823529%);fill-opacity:1;" d="M 50.699219 46 C 50.699219 43.957031 49.9375 42.300781 49 42.300781 C 48.0625 42.300781 47.300781 43.957031 47.300781 46 C 47.300781 48.042969 48.0625 49.699219 49 49.699219 C 49.9375 49.699219 50.699219 48.042969 50.699219 46 Z M 50.699219 46 "/>
<path style=" stroke:none;fill-rule:nonzero;fill:rgb(94.509804%,82.745098%,20%);fill-opacity:1;" d="M 33.601562 33.101562 C 33.601562 24.800781 18.898438 5.300781 18.898438 5.300781 C 18.898438 5.300781 4.101562 24.800781 4.101562 33.101562 C 4.101562 41.398438 10.699219 48.199219 18.800781 48.199219 C 26.898438 48.199219 33.601562 41.5 33.601562 33.101562 Z M 33.601562 33.101562 "/>
<path style=" stroke:none;fill-rule:nonzero;fill:rgb(90.588235%,64.705882%,18.039216%);fill-opacity:1;" d="M 18.800781 48.199219 C 10.699219 48.199219 4.101562 41.398438 4.101562 33.101562 C 4.101562 24.800781 18.800781 5.300781 18.800781 5.300781 C 18.800781 5.300781 12 24.800781 12 33.101562 C 12 41.398438 15 48.199219 18.800781 48.199219 Z M 18.800781 48.199219 "/>
<path style=" stroke:none;fill-rule:nonzero;fill:rgb(97.647059%,93.72549%,38.823529%);fill-opacity:1;" d="M 30.898438 33.5 C 30.898438 31.125 30.050781 29.199219 29 29.199219 C 27.949219 29.199219 27.101562 31.125 27.101562 33.5 C 27.101562 35.875 27.949219 37.800781 29 37.800781 C 30.050781 37.800781 30.898438 35.875 30.898438 33.5 Z M 30.898438 33.5 "/>
</g>
</svg>
