<?xml version="1.0" encoding="UTF-8"?>
<svg xmlns="http://www.w3.org/2000/svg" xmlns:xlink="http://www.w3.org/1999/xlink" width="57pt" height="68pt" viewBox="0 0 57 68" version="1.1">
<g id="surface1">
<path style=" stroke:none;fill-rule:nonzero;fill:rgb(99.607843%,81.176471%,19.607843%);fill-opacity:1;" d="M 51 52.601562 L 33.300781 62.800781 C 30.300781 64.5 26.601562 64.5 23.699219 62.800781 L 6 52.601562 C 3 50.898438 1.199219 47.699219 1.199219 44.199219 L 1.199219 23.800781 C 1.199219 20.398438 3 17.199219 6 15.398438 L 23.699219 5.199219 C 26.699219 3.5 30.398438 3.5 33.300781 5.199219 L 51 15.398438 C 54 17.101562 55.800781 20.300781 55.800781 23.800781 L 55.800781 44.199219 C 55.800781 47.699219 54 50.800781 51 52.601562 Z M 51 52.601562 "/>
<path style=" stroke:none;fill-rule:nonzero;fill:rgb(64.705882%,30.196078%,18.431373%);fill-opacity:1;" d="M 33 24.5 L 27.699219 29.800781 C 25.699219 29.800781 23.898438 29 22.699219 27.699219 C 21.398438 26.398438 20.601562 24.601562 20.601562 22.699219 C 20.601562 19.300781 22.898438 16.5 26.101562 15.800781 C 26.101562 15.898438 26.101562 16 26 16.101562 C 25.898438 16.5 25.898438 17 25.898438 17.5 C 25.898438 19.5 26.699219 21.300781 28 22.5 C 29.300781 23.699219 31 24.5 33 24.5 Z M 33 24.5 "/>
<path style=" stroke:none;fill-rule:nonzero;fill:rgb(73.72549%,41.568627%,27.45098%);fill-opacity:1;" d="M 33 24.5 L 30.300781 27.199219 C 28.898438 26.898438 27.699219 26.199219 26.699219 25.300781 C 25.398438 24 24.601562 22.199219 24.601562 20.300781 C 24.601562 18.699219 25.101562 17.199219 26 16 C 25.898438 16.398438 25.898438 16.898438 25.898438 17.398438 C 25.898438 19.398438 26.699219 21.199219 28 22.398438 C 29.300781 23.699219 31 24.5 33 24.5 Z M 33 24.5 "/>
<path style=" stroke:none;fill-rule:nonzero;fill:rgb(64.705882%,30.196078%,18.431373%);fill-opacity:1;" d="M 43.199219 31.601562 C 43.199219 35.5 40 38.699219 36.101562 38.699219 L 21 38.699219 C 17.101562 38.699219 13.898438 35.5 13.898438 31.601562 C 13.898438 27.699219 17.101562 24.5 21 24.5 L 36 24.5 C 40 24.5 43.199219 27.699219 43.199219 31.601562 Z M 43.199219 31.601562 "/>
<path style=" stroke:none;fill-rule:nonzero;fill:rgb(64.705882%,30.196078%,18.431373%);fill-opacity:1;" d="M 51.199219 44.601562 C 51.199219 48.5 48 51.699219 44.101562 51.699219 L 12.898438 51.699219 C 10.898438 51.699219 9.101562 50.898438 7.898438 49.601562 C 6.601562 48.300781 5.800781 46.5 5.800781 44.601562 C 5.800781 40.699219 9 37.5 12.898438 37.5 L 44 37.5 C 46 37.5 47.800781 38.300781 49 39.601562 C 50.398438 40.800781 51.199219 42.601562 51.199219 44.601562 Z M 51.199219 44.601562 "/>
<path style=" stroke:none;fill-rule:nonzero;fill:rgb(73.72549%,41.568627%,27.45098%);fill-opacity:1;" d="M 51.199219 44.601562 C 51.199219 46.300781 50.601562 47.898438 49.601562 49.199219 L 17.601562 49.199219 C 16.601562 48 16 46.398438 16 44.601562 C 16 40.699219 19.199219 37.5 23.101562 37.5 L 44.101562 37.5 C 46.101562 37.5 47.898438 38.300781 49.101562 39.601562 C 50.398438 40.800781 51.199219 42.601562 51.199219 44.601562 Z M 51.199219 44.601562 "/>
<path style=" stroke:none;fill-rule:nonzero;fill:rgb(73.72549%,41.568627%,27.45098%);fill-opacity:1;" d="M 43.199219 31.601562 C 43.199219 33 42.800781 34.300781 42.101562 35.398438 L 21.601562 35.398438 C 20.898438 34.300781 20.5 33 20.5 31.601562 C 20.5 27.699219 23.699219 24.5 27.601562 24.5 L 36 24.5 C 40 24.5 43.199219 27.699219 43.199219 31.601562 Z M 43.199219 31.601562 "/>
<path style=" stroke:none;fill-rule:nonzero;fill:rgb(64.705882%,30.196078%,18.431373%);fill-opacity:1;" d="M 7.5 51 C 7 51 6.5 51 6.101562 51.101562 C 5.5 51.300781 5.199219 51.601562 5.101562 51.898438 C 5.398438 52.101562 5.699219 52.300781 6 52.5 L 23.699219 62.699219 C 26.699219 64.398438 30.398438 64.398438 33.300781 62.699219 L 49.699219 53.199219 C 50.101562 52.5 50.5 51.800781 50.898438 51.101562 C 50.5 51.101562 50 51 49.5 51 Z M 7.5 51 "/>
<path style=" stroke:none;fill-rule:nonzero;fill:rgb(18.431373%,21.568627%,23.137255%);fill-opacity:1;" d="M 23.300781 45.101562 C 23.300781 46.601562 22.101562 47.898438 20.5 47.898438 C 18.898438 47.898438 17.699219 46.699219 17.699219 45.101562 C 17.699219 43.601562 18.898438 42.300781 20.5 42.300781 C 22.101562 42.300781 23.300781 43.601562 23.300781 45.101562 Z M 23.300781 45.101562 "/>
<path style=" stroke:none;fill-rule:nonzero;fill:rgb(18.431373%,21.568627%,23.137255%);fill-opacity:1;" d="M 39.199219 45.101562 C 39.199219 46.601562 38 47.898438 36.398438 47.898438 C 34.898438 47.898438 33.601562 46.699219 33.601562 45.101562 C 33.601562 43.601562 34.800781 42.300781 36.398438 42.300781 C 38 42.300781 39.199219 43.601562 39.199219 45.101562 Z M 39.199219 45.101562 "/>
<path style=" stroke:none;fill-rule:nonzero;fill:rgb(73.72549%,41.568627%,27.45098%);fill-opacity:1;" d="M 51 52.601562 C 51.199219 52.5 51.5 52.300781 51.699219 52.101562 C 51.601562 51.699219 51.300781 51.398438 50.898438 51.199219 C 50.5 51.101562 50 51 49.5 51 L 18.5 51 C 15.300781 51 12.699219 53 11.699219 55.898438 L 23.601562 62.800781 C 26.601562 64.5 30.300781 64.5 33.199219 62.800781 Z M 51 52.601562 "/>
<path style=" stroke:none;fill-rule:nonzero;fill:rgb(100%,100%,100%);fill-opacity:1;" d="M 22.699219 44.601562 C 22.699219 45.300781 22.199219 45.800781 21.5 45.800781 C 20.800781 45.800781 20.300781 45.300781 20.300781 44.601562 C 20.300781 43.898438 20.800781 43.398438 21.5 43.398438 C 22.199219 43.398438 22.699219 44 22.699219 44.601562 Z M 22.699219 44.601562 "/>
<path style=" stroke:none;fill-rule:nonzero;fill:rgb(100%,100%,100%);fill-opacity:1;" d="M 38.800781 44.601562 C 38.800781 45.300781 38.300781 45.800781 37.601562 45.800781 C 36.898438 45.800781 36.398438 45.300781 36.398438 44.601562 C 36.398438 43.898438 36.898438 43.398438 37.601562 43.398438 C 38.300781 43.398438 38.800781 44 38.800781 44.601562 Z M 38.800781 44.601562 "/>
<path style=" stroke:none;fill-rule:nonzero;fill:rgb(100%,100%,100%);fill-opacity:1;" d="M 22.699219 51 C 22.699219 54.199219 25.300781 56.800781 28.5 56.800781 C 31.699219 56.800781 34.300781 54.199219 34.300781 51 "/>
</g>
</svg>
