<?xml version="1.0" encoding="UTF-8"?>
<svg xmlns="http://www.w3.org/2000/svg" xmlns:xlink="http://www.w3.org/1999/xlink" width="57pt" height="68pt" viewBox="0 0 57 68" version="1.1">
<g id="surface1">
<path style=" stroke:none;fill-rule:nonzero;fill:rgb(60.392157%,90.588235%,99.215686%);fill-opacity:1;" d="M 51 52.601562 L 33.300781 62.800781 C 30.300781 64.5 26.601562 64.5 23.699219 62.800781 L 6 52.601562 C 3 50.898438 1.199219 47.699219 1.199219 44.199219 L 1.199219 23.800781 C 1.199219 20.398438 3 17.199219 6 15.398438 L 23.699219 5.199219 C 26.699219 3.5 30.398438 3.5 33.300781 5.199219 L 51 15.398438 C 54 17.101562 55.800781 20.300781 55.800781 23.800781 L 55.800781 44.199219 C 55.800781 47.699219 54 50.800781 51 52.601562 Z M 51 52.601562 "/>
<path style=" stroke:none;fill-rule:nonzero;fill:rgb(98.431373%,48.235294%,46.27451%);fill-opacity:1;" d="M 50.800781 37.800781 C 50.800781 39.398438 50.199219 41 49.101562 42.199219 C 49 43 48.699219 43.699219 48.398438 44.398438 C 47.800781 45.699219 46.800781 46.898438 45.601562 47.800781 C 45.5 47.898438 45.300781 48 45.199219 48.101562 C 45.199219 48.101562 45.101562 48.101562 45.101562 48.199219 C 44.601562 48.5 44.101562 48.800781 43.601562 49 C 44 49.398438 44.300781 49.800781 44.601562 50.199219 C 46.398438 52.699219 46.800781 56.5 46.898438 58.101562 C 46.898438 58.300781 46.800781 58.5 46.699219 58.699219 C 46.601562 58.898438 46.398438 58.898438 46.101562 58.898438 L 43.800781 58.898438 C 43.398438 58.898438 43.101562 58.601562 43 58.300781 C 42.800781 57.101562 41.898438 54.699219 38.5 53.5 C 34.699219 52.199219 33.5 51 33.199219 48.898438 C 33.101562 48.398438 33.101562 47.898438 33.101562 47.398438 C 31.800781 47.398438 30.398438 47.199219 29.199219 46.699219 C 27.699219 48.5 25.300781 49.300781 23 48.898438 C 20.699219 48.5 18.800781 46.800781 18.101562 44.601562 C 17.601562 44.800781 17.199219 44.898438 16.699219 45 C 16.199219 45.101562 15.601562 45.101562 15.101562 45.101562 C 10.199219 45.101562 6.300781 41.101562 6.300781 36.300781 C 6.300781 35 6.601562 33.699219 7.199219 32.5 C 7.398438 32 7.699219 31.5 8.101562 31.101562 C 8.101562 31 8 30.800781 8 30.699219 C 7.898438 30.398438 7.898438 30.101562 7.898438 29.800781 C 7.898438 28 9.199219 26.398438 11 26 C 11 25.800781 11 25.699219 11 25.5 C 11 25.101562 11 24.800781 11.101562 24.398438 C 11.601562 22.101562 13.601562 20.5 16 20.5 C 16.800781 20.5 17.5 20.699219 18.199219 21 C 19.300781 19.101562 21.199219 17.898438 23.300781 17.5 C 25.398438 17.199219 27.601562 17.800781 29.300781 19.199219 C 30.101562 18 31.398438 17.300781 32.898438 17.398438 C 34.300781 17.5 35.601562 18.398438 36.101562 19.800781 C 36.5 19.800781 36.800781 19.699219 37.199219 19.699219 C 42 19.699219 46 23.398438 46.398438 28.199219 C 47.800781 28.199219 49 28.898438 49.699219 30.101562 C 50.398438 31.300781 50.398438 32.699219 49.699219 33.898438 C 50.300781 35 50.800781 36.398438 50.800781 37.800781 Z M 50.800781 37.800781 "/>
<path style=" stroke:none;fill-rule:nonzero;fill:rgb(87.45098%,30.196078%,37.647059%);fill-opacity:1;" d="M 15.101562 27.199219 C 15 27.300781 14.800781 27.398438 14.601562 27.398438 C 14.398438 27.398438 14.101562 27.300781 14 27.101562 C 13.300781 26.199219 12.101562 25.699219 10.898438 25.898438 C 10.898438 25.898438 10.800781 25.898438 10.800781 25.898438 C 10.800781 25.699219 10.800781 25.601562 10.800781 25.398438 C 10.800781 25 10.800781 24.699219 10.898438 24.300781 C 12.601562 24.101562 14.199219 24.800781 15.199219 26.101562 C 15.5 26.5 15.398438 27 15.101562 27.199219 Z M 15.101562 27.199219 "/>
<path style=" stroke:none;fill-rule:nonzero;fill:rgb(87.45098%,30.196078%,37.647059%);fill-opacity:1;" d="M 9.5 33.398438 C 9.398438 33.601562 9.101562 33.800781 8.800781 33.800781 C 8.699219 33.800781 8.5 33.800781 8.398438 33.699219 C 7.898438 33.398438 7.398438 33 7 32.398438 C 7.199219 31.898438 7.5 31.398438 7.898438 31 C 7.898438 30.898438 7.800781 30.699219 7.800781 30.601562 C 7.800781 30.601562 7.898438 30.699219 7.898438 30.699219 C 8.101562 31.398438 8.601562 32 9.199219 32.300781 C 9.601562 32.5 9.699219 33 9.5 33.398438 Z M 9.5 33.398438 "/>
<path style=" stroke:none;fill-rule:nonzero;fill:rgb(87.45098%,30.196078%,37.647059%);fill-opacity:1;" d="M 36.5 48.398438 C 35.699219 48.699219 34.800781 48.800781 33.898438 48.898438 C 33.699219 48.898438 33.398438 48.898438 33.199219 48.898438 C 33.101562 48.398438 33.101562 47.898438 33.101562 47.398438 C 33.300781 47.398438 33.601562 47.398438 33.800781 47.398438 C 34.601562 47.398438 35.300781 47.199219 36 47 C 36.300781 46.898438 36.601562 47 36.800781 47.199219 C 37 47.398438 37.101562 47.699219 37 47.898438 C 36.898438 48.101562 36.699219 48.300781 36.5 48.398438 Z M 36.5 48.398438 "/>
<path style=" stroke:none;fill-rule:nonzero;fill:rgb(87.45098%,30.196078%,37.647059%);fill-opacity:1;" d="M 18.5 39.398438 C 18 40.300781 17.699219 41.300781 17.699219 42.398438 C 17.699219 43 17.800781 43.699219 18 44.300781 C 18 44.398438 18 44.5 18 44.601562 C 17.5 44.800781 17.101562 44.898438 16.601562 45 C 16.601562 45 16.601562 44.898438 16.5 44.898438 C 16.199219 44.101562 16.101562 43.300781 16.101562 42.5 C 16.101562 42.398438 16.101562 42.199219 16.101562 42.101562 C 14 42.101562 12.300781 40.398438 12.300781 38.300781 C 12.300781 37.898438 12.601562 37.5 13.101562 37.5 C 13.300781 37.5 13.5 37.601562 13.601562 37.699219 C 13.699219 37.800781 13.800781 38 13.800781 38.199219 C 13.800781 39.5 14.800781 40.5 16.101562 40.5 C 16.199219 40.5 16.300781 40.5 16.398438 40.5 C 16.601562 39.898438 16.800781 39.300781 17.199219 38.699219 C 17.398438 38.300781 17.898438 38.199219 18.300781 38.398438 C 18.601562 38.601562 18.699219 39.101562 18.5 39.398438 Z M 18.5 39.398438 "/>
<path style=" stroke:none;fill-rule:nonzero;fill:rgb(87.45098%,30.196078%,37.647059%);fill-opacity:1;" d="M 17.199219 23.601562 C 17.101562 23.601562 17.101562 23.601562 17 23.601562 C 16.800781 23.5 16.601562 23.398438 16.5 23.199219 C 16.398438 23 16.398438 22.800781 16.398438 22.601562 C 17.101562 19.898438 19.199219 17.699219 21.898438 16.898438 C 24.601562 16.101562 27.5 16.699219 29.601562 18.601562 C 29.800781 18.800781 29.898438 19.101562 29.898438 19.300781 C 29.800781 19.601562 29.601562 19.800781 29.398438 19.898438 C 29.101562 20 28.800781 19.898438 28.601562 19.699219 C 27.398438 18.699219 25.898438 18.101562 24.300781 18.101562 C 22 18.101562 19.898438 19.300781 18.699219 21.300781 C 18.398438 21.800781 18.199219 22.398438 18 23 C 17.800781 23.398438 17.5 23.601562 17.199219 23.601562 Z M 17.199219 23.601562 "/>
<path style=" stroke:none;fill-rule:nonzero;fill:rgb(87.45098%,30.196078%,37.647059%);fill-opacity:1;" d="M 36.199219 22 C 35.800781 22 35.398438 21.699219 35.398438 21.199219 C 35.398438 19.5 34 18.101562 32.300781 18.101562 C 30.601562 18.101562 29.199219 19.5 29.199219 21.199219 C 29.199219 21.601562 28.898438 22 28.398438 22 C 28 22 27.601562 21.699219 27.601562 21.199219 C 27.601562 18.699219 29.699219 16.601562 32.199219 16.601562 C 34.699219 16.601562 36.800781 18.699219 36.800781 21.199219 C 36.800781 21.398438 36.699219 21.601562 36.601562 21.699219 C 36.601562 21.898438 36.398438 22 36.199219 22 Z M 36.199219 22 "/>
<path style=" stroke:none;fill-rule:nonzero;fill:rgb(87.45098%,30.196078%,37.647059%);fill-opacity:1;" d="M 47.800781 36.300781 C 47.398438 36.300781 47.101562 36 47 35.699219 C 46.898438 35.300781 47.101562 35 47.398438 34.800781 C 48 34.5 48.5 34.101562 48.800781 33.5 C 49.5 32.199219 49.300781 30.601562 48.199219 29.699219 C 47.101562 28.699219 45.5 28.699219 44.300781 29.601562 C 44.101562 29.800781 43.800781 29.800781 43.5 29.699219 C 43.199219 29.601562 43.101562 29.398438 43 29.101562 C 43 28.800781 43.101562 28.601562 43.300781 28.398438 C 44.699219 27.398438 46.601562 27.199219 48.101562 28 C 49.699219 28.800781 50.699219 30.398438 50.699219 32.101562 C 50.699219 33.898438 49.699219 35.5 48 36.300781 C 48 36.199219 47.898438 36.300781 47.800781 36.300781 Z M 47.800781 36.300781 "/>
<path style=" stroke:none;fill-rule:nonzero;fill:rgb(94.901961%,61.176471%,12.156863%);fill-opacity:1;" d="M 43.199219 39 C 42.898438 38 42.101562 37.199219 41.199219 36.800781 L 40.199219 36.300781 C 38.699219 35.5 38.101562 33.601562 38.898438 32.101562 L 39.300781 31.300781 C 39.5 30.898438 39.300781 30.5 39 30.300781 C 38.601562 30.101562 38.199219 30.199219 38 30.601562 L 37.601562 31.398438 C 37 32.5 36.898438 33.699219 37.300781 34.898438 L 33.398438 33.101562 L 33.300781 33.101562 L 32.898438 32.898438 C 32.101562 32.5 31.5 31.898438 31.300781 31.101562 C 31 30.300781 31.101562 29.398438 31.5 28.699219 L 32.5 26.800781 C 32.601562 26.601562 32.601562 26.300781 32.5 26 C 32.398438 25.699219 32.101562 25.601562 31.800781 25.601562 C 31.5 25.601562 31.300781 25.800781 31.101562 26 L 30.101562 27.898438 C 29.5 29 29.398438 30.199219 29.800781 31.398438 L 25 29.300781 C 23.699219 28.699219 23 27.300781 23.300781 25.898438 C 23.398438 25.601562 23.300781 25.300781 23.101562 25.199219 C 22.898438 25.101562 22.601562 24.898438 22.300781 25 C 22 25.101562 21.800781 25.300781 21.800781 25.601562 C 21.601562 26.398438 21.699219 27.199219 21.898438 27.898438 L 21.199219 27.601562 C 19 26.601562 16.300781 27.5 15.199219 29.601562 C 15.101562 29.800781 15.101562 30 15.199219 30.199219 C 15.300781 30.398438 15.398438 30.5 15.601562 30.601562 C 16 30.800781 16.398438 30.601562 16.601562 30.300781 C 17.398438 28.898438 19.101562 28.300781 20.601562 29 L 24.601562 30.898438 C 23.601562 31.300781 22.800781 32 22.300781 33 L 22 33.398438 C 21.800781 33.800781 22 34.199219 22.300781 34.398438 C 22.699219 34.601562 23.101562 34.398438 23.300781 34.101562 L 23.601562 33.5 C 24.398438 32.101562 26.101562 31.5 27.5 32.101562 L 29.5 33 C 28.5 33.398438 27.699219 34.101562 27.199219 35.101562 L 24.5 40.199219 C 24.300781 40.601562 24.398438 41 24.800781 41.199219 C 24.898438 41.300781 25 41.300781 25.199219 41.300781 C 25.5 41.300781 25.699219 41.101562 25.898438 40.898438 L 28.601562 35.800781 C 29.398438 34.398438 31 33.800781 32.5 34.398438 L 36.300781 36.199219 C 35.300781 36.601562 34.5 37.300781 34 38.300781 L 33.398438 39.5 C 33.199219 39.898438 33.300781 40.300781 33.699219 40.5 C 34.101562 40.699219 34.5 40.601562 34.699219 40.199219 L 35.300781 39 C 36.101562 37.601562 37.800781 37 39.300781 37.601562 L 40.398438 38.101562 C 41 38.398438 41.398438 38.800781 41.601562 39.398438 C 41.800781 40 41.800781 40.601562 41.5 41.199219 L 41 42.699219 C 40.300781 44.199219 39.898438 45.800781 39.898438 47.398438 L 39.898438 50.5 C 39.898438 50.898438 40.199219 51.300781 40.699219 51.300781 C 41.101562 51.300781 41.5 51 41.5 50.5 L 41.5 47.398438 C 41.5 46 41.800781 44.601562 42.5 43.398438 L 43 42 C 43.5 41.101562 43.601562 40 43.199219 39 Z M 43.199219 39 "/>
<path style=" stroke:none;fill-rule:nonzero;fill:rgb(95.294118%,83.529412%,35.686275%);fill-opacity:1;" d="M 34.5 24.699219 C 34.5 25.75 33.648438 26.601562 32.601562 26.601562 C 31.550781 26.601562 30.699219 25.75 30.699219 24.699219 C 30.699219 23.652344 31.550781 22.800781 32.601562 22.800781 C 33.648438 22.800781 34.5 23.652344 34.5 24.699219 Z M 34.5 24.699219 "/>
<path style=" stroke:none;fill-rule:nonzero;fill:rgb(95.294118%,83.529412%,35.686275%);fill-opacity:1;" d="M 25.199219 23.898438 C 25.199219 24.949219 24.347656 25.800781 23.300781 25.800781 C 22.25 25.800781 21.398438 24.949219 21.398438 23.898438 C 21.398438 22.851562 22.25 22 23.300781 22 C 24.347656 22 25.199219 22.851562 25.199219 23.898438 Z M 25.199219 23.898438 "/>
<path style=" stroke:none;fill-rule:nonzero;fill:rgb(95.294118%,83.529412%,35.686275%);fill-opacity:1;" d="M 41.398438 29.300781 C 41.398438 30.347656 40.550781 31.199219 39.5 31.199219 C 38.449219 31.199219 37.601562 30.347656 37.601562 29.300781 C 37.601562 28.25 38.449219 27.398438 39.5 27.398438 C 40.550781 27.398438 41.398438 28.25 41.398438 29.300781 Z M 41.398438 29.300781 "/>
<path style=" stroke:none;fill-rule:nonzero;fill:rgb(95.294118%,83.529412%,35.686275%);fill-opacity:1;" d="M 16.800781 31.601562 C 16.800781 32.648438 15.949219 33.5 14.898438 33.5 C 13.851562 33.5 13 32.648438 13 31.601562 C 13 30.550781 13.851562 29.699219 14.898438 29.699219 C 15.949219 29.699219 16.800781 30.550781 16.800781 31.601562 Z M 16.800781 31.601562 "/>
<path style=" stroke:none;fill-rule:nonzero;fill:rgb(95.294118%,83.529412%,35.686275%);fill-opacity:1;" d="M 26.398438 42.398438 C 26.398438 43.449219 25.550781 44.300781 24.5 44.300781 C 23.449219 44.300781 22.601562 43.449219 22.601562 42.398438 C 22.601562 41.351562 23.449219 40.5 24.5 40.5 C 25.550781 40.5 26.398438 41.351562 26.398438 42.398438 Z M 26.398438 42.398438 "/>
<path style=" stroke:none;fill-rule:nonzero;fill:rgb(95.294118%,83.529412%,35.686275%);fill-opacity:1;" d="M 35.199219 41.601562 C 35.199219 42.648438 34.347656 43.5 33.300781 43.5 C 32.25 43.5 31.398438 42.648438 31.398438 41.601562 C 31.398438 40.550781 32.25 39.699219 33.300781 39.699219 C 34.347656 39.699219 35.199219 40.550781 35.199219 41.601562 Z M 35.199219 41.601562 "/>
<path style=" stroke:none;fill-rule:nonzero;fill:rgb(95.294118%,83.529412%,35.686275%);fill-opacity:1;" d="M 23.699219 35.5 C 23.699219 36.550781 22.847656 37.398438 21.800781 37.398438 C 20.75 37.398438 19.898438 36.550781 19.898438 35.5 C 19.898438 34.449219 20.75 33.601562 21.800781 33.601562 C 22.847656 33.601562 23.699219 34.449219 23.699219 35.5 Z M 23.699219 35.5 "/>
</g>
</svg>
