<?xml version="1.0" encoding="UTF-8"?>
<svg xmlns="http://www.w3.org/2000/svg" xmlns:xlink="http://www.w3.org/1999/xlink" width="57pt" height="68pt" viewBox="0 0 57 68" version="1.1">
<g id="surface1">
<path style=" stroke:none;fill-rule:nonzero;fill:rgb(14.901961%,25.098039%,42.745098%);fill-opacity:1;" d="M 51 52.601562 L 33.300781 62.800781 C 30.300781 64.5 26.601562 64.5 23.699219 62.800781 L 6 52.601562 C 3 50.898438 1.199219 47.699219 1.199219 44.199219 L 1.199219 23.800781 C 1.199219 20.398438 3 17.199219 6 15.398438 L 23.699219 5.199219 C 26.699219 3.5 30.398438 3.5 33.300781 5.199219 L 51 15.398438 C 54 17.101562 55.800781 20.300781 55.800781 23.800781 L 55.800781 44.199219 C 55.800781 47.699219 54 50.800781 51 52.601562 Z M 51 52.601562 "/>
<path style=" stroke:none;fill-rule:nonzero;fill:rgb(3.921569%,79.607843%,44.705882%);fill-opacity:1;" d="M 39 51.898438 L 28.5 59.101562 L 18 51.898438 C 11.800781 47.699219 8.199219 40.699219 8.199219 33.199219 L 8.199219 12.300781 L 28.5 7.300781 L 48.800781 12.300781 L 48.800781 33.199219 C 48.800781 40.699219 45.101562 47.699219 39 51.898438 Z M 39 51.898438 "/>
<path style=" stroke:none;fill-rule:nonzero;fill:rgb(0%,66.666667%,33.333333%);fill-opacity:1;" d="M 28.5 59.101562 L 39 51.898438 C 45.199219 47.699219 48.800781 40.699219 48.800781 33.199219 L 48.800781 12.300781 L 28.5 7.300781 Z M 28.5 59.101562 "/>
<path style=" stroke:none;fill-rule:nonzero;fill:rgb(25.882353%,85.882353%,56.078431%);fill-opacity:1;" d="M 36.800781 48.101562 L 28.5 53.800781 L 20.199219 48.101562 C 15.300781 44.699219 12.398438 39.101562 12.398438 33.199219 L 12.398438 16.601562 L 28.601562 12.601562 L 44.800781 16.601562 L 44.800781 33.199219 C 44.699219 39.199219 41.699219 44.800781 36.800781 48.101562 Z M 36.800781 48.101562 "/>
<path style=" stroke:none;fill-rule:nonzero;fill:rgb(3.921569%,79.607843%,44.705882%);fill-opacity:1;" d="M 28.5 53.898438 L 36.800781 48.199219 C 41.699219 44.800781 44.601562 39.199219 44.601562 33.300781 L 44.601562 16.601562 L 28.398438 12.601562 L 28.398438 53.898438 Z M 28.5 53.898438 "/>
<path style=" stroke:none;fill-rule:nonzero;fill:rgb(100%,100%,100%);fill-opacity:1;" d="M 25 20.699219 L 28.5 20.699219 L 28.5 41.699219 L 25 41.699219 Z M 25 20.699219 "/>
<path style=" stroke:none;fill-rule:nonzero;fill:rgb(90.196078%,90.196078%,90.196078%);fill-opacity:1;" d="M 28.5 20.699219 L 31.699219 20.699219 L 31.699219 41.699219 L 28.5 41.699219 Z M 28.5 20.699219 "/>
<path style=" stroke:none;fill-rule:nonzero;fill:rgb(100%,100%,100%);fill-opacity:1;" d="M 17.800781 27.898438 L 28.5 27.898438 L 28.5 34.601562 L 17.800781 34.601562 Z M 17.800781 27.898438 "/>
<path style=" stroke:none;fill-rule:nonzero;fill:rgb(90.196078%,90.196078%,90.196078%);fill-opacity:1;" d="M 28.5 27.898438 L 38.800781 27.898438 L 38.800781 34.601562 L 28.5 34.601562 Z M 28.5 27.898438 "/>
</g>
</svg>
