<?xml version="1.0" encoding="UTF-8"?>
<svg xmlns="http://www.w3.org/2000/svg" xmlns:xlink="http://www.w3.org/1999/xlink" width="57pt" height="68pt" viewBox="0 0 57 68" version="1.1">
<g id="surface1">
<path style=" stroke:none;fill-rule:nonzero;fill:rgb(28.235294%,29.411765%,49.803922%);fill-opacity:1;" d="M 51 52.601562 L 33.300781 62.800781 C 30.300781 64.5 26.601562 64.5 23.699219 62.800781 L 5.898438 52.601562 C 2.898438 50.898438 1.101562 47.699219 1.101562 44.199219 L 1.101562 23.800781 C 1.101562 20.398438 2.898438 17.199219 5.898438 15.398438 L 23.601562 5.199219 C 26.601562 3.5 30.300781 3.5 33.199219 5.199219 L 51 15.398438 C 54 17.101562 55.800781 20.300781 55.800781 23.800781 L 55.800781 44.199219 C 55.800781 47.699219 54 50.800781 51 52.601562 Z M 51 52.601562 "/>
<path style=" stroke:none;fill-rule:nonzero;fill:rgb(94.901961%,77.254902%,38.039216%);fill-opacity:1;" d="M 12.5 51 L 16.300781 57.601562 L 21 57.601562 L 21 51 Z M 12.5 51 "/>
<path style=" stroke:none;fill-rule:nonzero;fill:rgb(100%,70.588235%,0.392157%);fill-opacity:1;" d="M 50.199219 22.601562 L 50.199219 12.300781 L 49.300781 12.300781 C 47.601562 12.300781 46.101562 13.398438 45.699219 15 L 44.601562 18.898438 L 44.601562 22.699219 L 50.199219 22.699219 Z M 50.199219 22.601562 "/>
<path style=" stroke:none;fill-rule:nonzero;fill:rgb(94.901961%,77.254902%,38.039216%);fill-opacity:1;" d="M 38.898438 48.101562 L 33.199219 57.5 L 28.5 57.5 L 28.5 46.199219 L 38.898438 46.199219 Z M 38.898438 48.101562 "/>
<path style=" stroke:none;fill-rule:nonzero;fill:rgb(100%,76.862745%,19.215686%);fill-opacity:1;" d="M 5.898438 52.601562 L 7.300781 53.398438 L 8.199219 51 L 28.5 51 C 38.898438 51 47.398438 42.5 47.398438 32.101562 L 51.199219 32.101562 C 53.800781 32.101562 55.898438 30 55.898438 27.398438 C 55.898438 24.800781 53.800781 22.699219 51.199219 22.699219 L 50.300781 22.699219 C 49.800781 20.5 47.800781 19 45.601562 18.898438 C 45.601562 18.898438 45.5 18.898438 45.5 18.898438 L 41.800781 18.898438 L 41.800781 12.300781 L 40.398438 12.300781 C 38.898438 12.300781 37.601562 13.101562 37 14.5 L 29.5 30.300781 L 17.199219 30.300781 C 8.699219 30.300781 1.800781 36.898438 1.199219 45.199219 C 1.5 48.199219 3.199219 51 5.898438 52.601562 Z M 5.898438 52.601562 "/>
<path style=" stroke:none;fill-rule:nonzero;fill:rgb(100%,88.627451%,56.078431%);fill-opacity:1;" d="M 5.898438 52.601562 L 8 53.800781 L 9.601562 51 C 9.601562 51 13.898438 53 18.699219 53 C 41.699219 53 47.300781 42.5 47.300781 32.101562 L 51.101562 32.101562 C 53.699219 32.101562 55.800781 30 55.800781 27.398438 C 55.800781 24.800781 53.699219 22.699219 51.101562 22.699219 L 50.199219 22.699219 C 49.699219 20.5 47.699219 19 45.5 18.898438 L 45.5 23.101562 C 45.5 25.5 43.601562 27.398438 41.199219 27.398438 C 38.898438 27.398438 37 29.300781 37 31.699219 L 37 44.398438 L 10.601562 44.398438 L 7.199219 48.898438 C 6.398438 49.898438 5.398438 50.699219 4.199219 51.300781 C 4.699219 51.699219 5.300781 52.199219 5.898438 52.601562 Z M 5.898438 52.601562 "/>
<path style=" stroke:none;fill-rule:nonzero;fill:rgb(100%,76.862745%,19.215686%);fill-opacity:1;" d="M 26.601562 35.898438 L 26.601562 37.800781 C 26.601562 40.699219 28.300781 43.300781 30.898438 44.5 L 38.898438 48.199219 L 38.898438 51 L 42.699219 55.699219 C 44.300781 55.699219 45.5 54.398438 45.5 52.898438 L 45.5 47.5 C 45.5 44.898438 44.398438 42.5 42.5 40.800781 L 37 35.898438 Z M 26.601562 35.898438 "/>
<path style=" stroke:none;fill-rule:nonzero;fill:rgb(69.411765%,44.313725%,17.254902%);fill-opacity:1;" d="M 42.601562 22.601562 C 42.601562 23.097656 42.195312 23.5 41.699219 23.5 C 41.203125 23.5 40.800781 23.097656 40.800781 22.601562 C 40.800781 22.101562 41.203125 21.699219 41.699219 21.699219 C 42.195312 21.699219 42.601562 22.101562 42.601562 22.601562 Z M 42.601562 22.601562 "/>
<path style=" stroke:none;fill-rule:nonzero;fill:rgb(94.901961%,77.254902%,38.039216%);fill-opacity:1;" d="M 50.199219 28.300781 C 50.199219 29.898438 48.898438 31.101562 47.398438 31.101562 L 44.601562 31.101562 L 44.601562 33 L 47.398438 33 C 50 33 52.101562 30.898438 52.101562 28.300781 Z M 50.199219 28.300781 "/>
<path style=" stroke:none;fill-rule:nonzero;fill:rgb(100%,88.627451%,56.078431%);fill-opacity:1;" d="M 38.898438 50 L 40.199219 50 C 42.300781 50 44.300781 48.898438 45.5 47.199219 L 45.5 52.898438 C 45.5 54.5 44.199219 55.699219 42.699219 55.699219 C 42.699219 55.699219 38.898438 55.699219 38.898438 51 C 38.898438 50.699219 38.898438 50 38.898438 50 Z M 38.898438 50 "/>
<path style=" stroke:none;fill-rule:nonzero;fill:rgb(69.411765%,44.313725%,17.254902%);fill-opacity:1;" d="M 51.199219 29.199219 C 50.800781 29.199219 50.5 29 50.398438 28.699219 L 49.5 26.800781 C 49.300781 26.300781 49.5 25.800781 49.898438 25.5 C 50 25.398438 50.199219 25.398438 50.300781 25.398438 L 52.199219 25.398438 C 52.699219 25.398438 53.101562 25.800781 53.101562 26.300781 C 53.101562 26.398438 53.101562 26.601562 53 26.699219 L 52 28.699219 C 51.800781 29 51.5 29.199219 51.199219 29.199219 Z M 51.199219 29.199219 "/>
<path style=" stroke:none;fill-rule:nonzero;fill:rgb(69.411765%,44.313725%,17.254902%);fill-opacity:1;" d="M 14.5 49.398438 C 14.5 49.179688 14.277344 49 14 49 C 13.722656 49 13.5 49.179688 13.5 49.398438 C 13.5 49.621094 13.722656 49.800781 14 49.800781 C 14.277344 49.800781 14.5 49.621094 14.5 49.398438 Z M 14.5 49.398438 "/>
<path style=" stroke:none;fill-rule:nonzero;fill:rgb(69.411765%,44.313725%,17.254902%);fill-opacity:1;" d="M 19.101562 49.398438 C 19.101562 49.179688 18.875 49 18.601562 49 C 18.324219 49 18.101562 49.179688 18.101562 49.398438 C 18.101562 49.621094 18.324219 49.800781 18.601562 49.800781 C 18.875 49.800781 19.101562 49.621094 19.101562 49.398438 Z M 19.101562 49.398438 "/>
<path style=" stroke:none;fill-rule:nonzero;fill:rgb(69.411765%,44.313725%,17.254902%);fill-opacity:1;" d="M 23.800781 49.398438 C 23.800781 49.179688 23.574219 49 23.300781 49 C 23.023438 49 22.800781 49.179688 22.800781 49.398438 C 22.800781 49.621094 23.023438 49.800781 23.300781 49.800781 C 23.574219 49.800781 23.800781 49.621094 23.800781 49.398438 Z M 23.800781 49.398438 "/>
<path style=" stroke:none;fill-rule:nonzero;fill:rgb(69.411765%,44.313725%,17.254902%);fill-opacity:1;" d="M 28.398438 49.398438 C 28.398438 49.179688 28.175781 49 27.898438 49 C 27.625 49 27.398438 49.179688 27.398438 49.398438 C 27.398438 49.621094 27.625 49.800781 27.898438 49.800781 C 28.175781 49.800781 28.398438 49.621094 28.398438 49.398438 Z M 28.398438 49.398438 "/>
<path style=" stroke:none;fill-rule:nonzero;fill:rgb(19.607843%,74.509804%,65.098039%);fill-opacity:1;" d="M 23.601562 62.800781 C 26.601562 64.5 30.300781 64.5 33.199219 62.800781 L 42.199219 57.601562 L 14.601562 57.601562 Z M 23.601562 62.800781 "/>
</g>
</svg>
