<?xml version="1.0" encoding="UTF-8"?>
<svg xmlns="http://www.w3.org/2000/svg" xmlns:xlink="http://www.w3.org/1999/xlink" width="57pt" height="68pt" viewBox="0 0 57 68" version="1.1">
<g id="surface1">
<path style=" stroke:none;fill-rule:nonzero;fill:rgb(37.647059%,58.431373%,76.862745%);fill-opacity:1;" d="M 51 52.601562 L 33.300781 62.800781 C 30.300781 64.5 26.601562 64.5 23.699219 62.800781 L 6 52.601562 C 3 50.898438 1.199219 47.699219 1.199219 44.199219 L 1.199219 23.800781 C 1.199219 20.398438 3 17.199219 6 15.398438 L 23.699219 5.199219 C 26.699219 3.5 30.398438 3.5 33.300781 5.199219 L 51 15.398438 C 54 17.101562 55.800781 20.300781 55.800781 23.800781 L 55.800781 44.199219 C 55.800781 47.699219 54 50.800781 51 52.601562 Z M 51 52.601562 "/>
<path style=" stroke:none;fill-rule:nonzero;fill:rgb(100%,87.45098%,36.862745%);fill-opacity:1;" d="M 28.398438 64.101562 C 28.5 64.101562 28.601562 64.101562 28.699219 64.101562 C 30.300781 64.101562 31.898438 63.601562 33.300781 62.800781 L 35.300781 61.601562 C 40.898438 46.601562 49.800781 40.699219 53.800781 38.699219 C 55 38.101562 55.800781 37.800781 55.800781 37.800781 C 55.101562 37.800781 54.5 37.800781 53.800781 37.898438 C 39.300781 39.300781 31.101562 55.398438 27.800781 64 C 28 64 28.199219 64.101562 28.398438 64.101562 Z M 28.398438 64.101562 "/>
<path style=" stroke:none;fill-rule:nonzero;fill:rgb(100%,69.411765%,20%);fill-opacity:1;" d="M 15.601562 58.101562 C 12.5 51.898438 8.398438 46.101562 3.199219 42.699219 C 3.898438 46.699219 5.398438 50.398438 7.699219 53.5 Z M 15.601562 58.101562 "/>
<path style=" stroke:none;fill-rule:nonzero;fill:rgb(100%,69.411765%,20%);fill-opacity:1;" d="M 2.898438 37.300781 C 6.199219 39.398438 13.601562 45.601562 19.300781 60.300781 L 23.699219 62.800781 C 24.800781 63.398438 25.898438 63.800781 27.101562 64 C 22.898438 52.601562 15.199219 38 3.300781 36.398438 C 3.199219 36.398438 3.101562 36.398438 2.898438 36.398438 C 2.300781 36.300781 1.699219 36.300781 1.101562 36.300781 C 1.199219 36.300781 1.800781 36.601562 2.898438 37.300781 C 2.898438 37.199219 2.898438 37.300781 2.898438 37.300781 Z M 2.898438 37.300781 "/>
<path style=" stroke:none;fill-rule:nonzero;fill:rgb(100%,69.411765%,20%);fill-opacity:1;" d="M 24.300781 63.101562 C 25.601562 63.699219 27 64.101562 28.398438 64.101562 C 28.5 64.101562 28.5 64.101562 28.601562 64.101562 C 29.5 64.101562 30.398438 64 31.199219 63.699219 C 28.101562 52.898438 19.898438 30.300781 4.898438 28.398438 C 4.199219 28.300781 3.5 28.300781 2.800781 28.300781 C 2.800781 28.300781 3.5 28.601562 4.601562 29.300781 C 8.699219 31.800781 18.800781 40.300781 24.300781 63.101562 Z M 24.300781 63.101562 "/>
<path style=" stroke:none;fill-rule:nonzero;fill:rgb(100%,69.411765%,20%);fill-opacity:1;" d="M 28.398438 64.101562 C 28.5 64.101562 28.601562 64.101562 28.699219 64.101562 C 29.898438 64.101562 31.101562 63.800781 32.300781 63.300781 C 37.898438 40.398438 48 31.800781 52.101562 29.199219 C 53.199219 28.5 53.898438 28.199219 53.898438 28.199219 C 53.199219 28.199219 52.5 28.199219 51.800781 28.300781 C 36.898438 30.300781 28.699219 52.601562 25.5 63.5 C 26.398438 63.898438 27.398438 64.101562 28.398438 64.101562 Z M 28.398438 64.101562 "/>
<path style=" stroke:none;fill-rule:nonzero;fill:rgb(100%,69.411765%,20%);fill-opacity:1;" d="M 48.699219 53.898438 C 50.800781 51.199219 52.300781 48 53.101562 44.601562 C 46.800781 47.800781 42.101562 53.699219 38.699219 59.699219 Z M 48.699219 53.898438 "/>
<path style=" stroke:none;fill-rule:nonzero;fill:rgb(100%,87.45098%,36.862745%);fill-opacity:1;" d="M 15.699219 58.199219 L 21.101562 61.300781 C 19.398438 54.5 15.5 46.800781 6.800781 41.800781 C 6.699219 41.800781 13.300781 47.699219 15.699219 58.199219 Z M 15.699219 58.199219 "/>
<path style=" stroke:none;fill-rule:nonzero;fill:rgb(100%,87.45098%,36.862745%);fill-opacity:1;" d="M 41 58.398438 C 45.199219 50.398438 50.300781 47.398438 50.300781 47.398438 C 42.101562 49.300781 36.898438 55.699219 33.800781 62.601562 Z M 41 58.398438 "/>
<path style="fill:none;stroke-width:2.136;stroke-linecap:round;stroke-linejoin:miter;stroke:rgb(16.862745%,15.294118%,17.647059%);stroke-opacity:1;stroke-miterlimit:10;" d="M 38.199219 29.101562 L 41.199219 27.199219 "/>
<path style="fill:none;stroke-width:2.136;stroke-linecap:round;stroke-linejoin:miter;stroke:rgb(16.862745%,15.294118%,17.647059%);stroke-opacity:1;stroke-miterlimit:10;" d="M 27.300781 29.101562 L 24.300781 27.199219 "/>
<path style="fill:none;stroke-width:2.136;stroke-linecap:round;stroke-linejoin:miter;stroke:rgb(16.862745%,15.294118%,17.647059%);stroke-opacity:1;stroke-miterlimit:10;" d="M 39.398438 34.199219 L 43.398438 34.199219 "/>
<path style="fill:none;stroke-width:2.136;stroke-linecap:round;stroke-linejoin:miter;stroke:rgb(16.862745%,15.294118%,17.647059%);stroke-opacity:1;stroke-miterlimit:10;" d="M 37.699219 39.5 L 40.199219 41.898438 "/>
<path style=" stroke:none;fill-rule:nonzero;fill:rgb(84.705882%,84.705882%,84.705882%);fill-opacity:1;" d="M 31.5 21.398438 C 29.601562 21.398438 28 23 28 24.898438 C 28 26.800781 29.601562 28.398438 31.5 28.398438 "/>
<path style=" stroke:none;fill-rule:nonzero;fill:rgb(84.705882%,84.705882%,84.705882%);fill-opacity:1;" d="M 33.898438 21.398438 C 35.800781 21.398438 37.398438 23 37.398438 24.898438 C 37.398438 26.800781 35.800781 28.398438 33.898438 28.398438 "/>
<path style=" stroke:none;fill-rule:nonzero;fill:rgb(82.745098%,20.784314%,19.215686%);fill-opacity:1;" d="M 41.199219 34.199219 C 41.199219 38.300781 38.300781 41.699219 34.5 42.5 C 33.898438 42.601562 33.300781 42.699219 32.699219 42.699219 C 28 42.699219 24.199219 38.898438 24.199219 34.199219 C 24.199219 29.5 28 25.699219 32.699219 25.699219 C 33.300781 25.699219 33.898438 25.800781 34.5 25.898438 C 38.398438 26.699219 41.199219 30.101562 41.199219 34.199219 Z M 41.199219 34.199219 "/>
<path style=" stroke:none;fill-rule:nonzero;fill:rgb(91.764706%,35.294118%,32.156863%);fill-opacity:1;" d="M 41.199219 34.199219 C 41.199219 38.300781 38.300781 41.699219 34.5 42.5 C 30.699219 41.699219 27.800781 38.199219 27.800781 34.199219 C 27.800781 30.199219 30.699219 26.699219 34.5 25.898438 C 38.398438 26.699219 41.199219 30.101562 41.199219 34.199219 Z M 41.199219 34.199219 "/>
<path style=" stroke:none;fill-rule:nonzero;fill:rgb(23.529412%,21.176471%,24.705882%);fill-opacity:1;" d="M 32.5 29.300781 C 32.5 30.347656 31.648438 31.199219 30.601562 31.199219 C 29.550781 31.199219 28.699219 30.347656 28.699219 29.300781 C 28.699219 28.25 29.550781 27.398438 30.601562 27.398438 C 31.648438 27.398438 32.5 28.25 32.5 29.300781 Z M 32.5 29.300781 "/>
<path style=" stroke:none;fill-rule:nonzero;fill:rgb(23.529412%,21.176471%,24.705882%);fill-opacity:1;" d="M 36.699219 29.300781 C 36.699219 30.347656 35.847656 31.199219 34.800781 31.199219 C 33.75 31.199219 32.898438 30.347656 32.898438 29.300781 C 32.898438 28.25 33.75 27.398438 34.800781 27.398438 C 35.847656 27.398438 36.699219 28.25 36.699219 29.300781 Z M 36.699219 29.300781 "/>
<path style=" stroke:none;fill-rule:nonzero;fill:rgb(100%,87.45098%,36.862745%);fill-opacity:1;" d="M 25.5 63.601562 C 26.5 63.898438 27.398438 64.101562 28.398438 64.101562 C 28.5 64.101562 28.601562 64.101562 28.699219 64.101562 C 30.300781 64.101562 31.800781 63.699219 33.199219 62.898438 C 29.699219 31 16.398438 21.800781 11.5 19.398438 C 10.300781 18.800781 9.699219 18.699219 9.699219 18.699219 C 10.199219 19 10.699219 19.398438 11.101562 19.800781 C 22.800781 29.398438 25.101562 52.699219 25.5 63.601562 Z M 25.5 63.601562 "/>
</g>
</svg>
