<?xml version="1.0" encoding="UTF-8"?>
<svg xmlns="http://www.w3.org/2000/svg" xmlns:xlink="http://www.w3.org/1999/xlink" width="57pt" height="68pt" viewBox="0 0 57 68" version="1.1">
<g id="surface1">
<path style=" stroke:none;fill-rule:nonzero;fill:rgb(5.490196%,81.960784%,69.803922%);fill-opacity:1;" d="M 51 52.601562 L 33.300781 62.800781 C 30.300781 64.5 26.601562 64.5 23.699219 62.800781 L 6 52.601562 C 3 50.898438 1.199219 47.699219 1.199219 44.199219 L 1.199219 23.800781 C 1.199219 20.398438 3 17.199219 6 15.398438 L 23.699219 5.199219 C 26.699219 3.5 30.398438 3.5 33.300781 5.199219 L 51 15.398438 C 54 17.101562 55.800781 20.300781 55.800781 23.800781 L 55.800781 44.199219 C 55.800781 47.699219 54 50.800781 51 52.601562 Z M 51 52.601562 "/>
<path style=" stroke:none;fill-rule:nonzero;fill:rgb(93.72549%,22.745098%,27.843137%);fill-opacity:1;" d="M 33.199219 11.800781 C 31.5 11.800781 30.199219 13.101562 30.199219 14.800781 L 30.199219 21.601562 C 30.199219 21.898438 30.398438 22.199219 30.800781 22.300781 C 30.898438 22.300781 31 22.300781 31.199219 22.398438 C 32.601562 22.601562 34.101562 22.699219 35.601562 22.699219 C 35.800781 22.699219 36 22.601562 36.101562 22.5 C 36.199219 22.398438 36.300781 22.199219 36.300781 22 L 36.300781 14.800781 C 36.101562 13.199219 34.800781 11.800781 33.199219 11.800781 Z M 33.199219 11.800781 "/>
<path style=" stroke:none;fill-rule:nonzero;fill:rgb(80.784314%,18.823529%,26.27451%);fill-opacity:1;" d="M 31.300781 18.898438 C 30.898438 18.800781 30.5 18.800781 30.199219 18.699219 L 30.199219 21.601562 C 30.199219 21.898438 30.398438 22.199219 30.800781 22.300781 C 30.898438 22.300781 31 22.300781 31.199219 22.398438 C 32.601562 22.601562 34.101562 22.699219 35.601562 22.699219 C 35.800781 22.699219 36 22.601562 36.101562 22.5 C 36.199219 22.398438 36.300781 22.199219 36.300781 22 L 36.300781 19.199219 C 34.5 19.199219 32.898438 19.101562 31.300781 18.898438 Z M 31.300781 18.898438 "/>
<path style=" stroke:none;fill-rule:nonzero;fill:rgb(93.72549%,22.745098%,27.843137%);fill-opacity:1;" d="M 30.5 44.601562 C 30.300781 44.5 30 44.5 29.800781 44.601562 C 28.300781 45.5 26.699219 46.300781 25.199219 47 C 25 47.101562 24.800781 47.398438 24.800781 47.601562 L 24.800781 54.800781 C 24.800781 56.5 26.101562 57.800781 27.800781 57.800781 C 29.5 57.800781 30.800781 56.5 30.800781 54.800781 L 30.800781 45.199219 C 30.800781 44.898438 30.699219 44.699219 30.5 44.601562 Z M 30.5 44.601562 "/>
<path style=" stroke:none;fill-rule:nonzero;fill:rgb(80.784314%,18.823529%,26.27451%);fill-opacity:1;" d="M 30.800781 47.699219 L 30.800781 45.199219 C 30.800781 45 30.699219 44.699219 30.5 44.601562 C 30.300781 44.5 30 44.5 29.800781 44.601562 C 28.300781 45.5 26.699219 46.300781 25.199219 47 C 25 47.101562 24.800781 47.398438 24.800781 47.601562 L 24.800781 50.699219 C 26.601562 50 28.699219 48.898438 30.800781 47.699219 Z M 30.800781 47.699219 "/>
<path style=" stroke:none;fill-rule:nonzero;fill:rgb(94.901961%,79.215686%,35.294118%);fill-opacity:1;" d="M 24.199219 48.300781 C 24.199219 48.101562 24 47.898438 23.898438 47.800781 C 23.699219 47.699219 23.5 47.699219 23.300781 47.699219 C 22.699219 47.898438 22.101562 48.101562 21.699219 48.199219 C 21.5 48.199219 21.300781 48.300781 21.101562 48.398438 C 20.800781 48.5 20.601562 48.800781 20.601562 49.101562 C 20.800781 50.300781 20.699219 52 19.300781 53.601562 C 19 54 18.800781 54.5 18.800781 55 C 18.800781 55.5 19.101562 55.898438 19.398438 56.300781 C 19.699219 56.601562 20.199219 56.800781 20.601562 56.800781 C 20.898438 56.800781 21.199219 56.699219 21.398438 56.601562 C 21.601562 56.5 21.800781 56.300781 22 56.199219 C 24.398438 53.398438 24.5 50.398438 24.199219 48.300781 Z M 24.199219 48.300781 "/>
<path style=" stroke:none;fill-rule:nonzero;fill:rgb(100%,68.235294%,27.843137%);fill-opacity:1;" d="M 22 51.699219 C 22.601562 51.601562 23.398438 51.300781 24.300781 50.898438 C 24.398438 49.898438 24.300781 49 24.199219 48.300781 C 24.199219 48.101562 24 47.898438 23.898438 47.800781 C 23.800781 47.699219 23.5 47.699219 23.300781 47.699219 C 22.699219 47.898438 22.101562 48.101562 21.699219 48.199219 C 21.5 48.199219 21.300781 48.300781 21.101562 48.398438 C 20.800781 48.5 20.601562 48.800781 20.601562 49.101562 C 20.699219 50 20.699219 51.199219 20.101562 52.398438 C 20.699219 52.101562 21.300781 51.800781 22 51.699219 Z M 22 51.699219 "/>
<path style=" stroke:none;fill-rule:nonzero;fill:rgb(60.784314%,24.313725%,17.254902%);fill-opacity:1;" d="M 36.199219 47.199219 C 34.300781 46.398438 33.398438 44.800781 33 43.601562 C 32.898438 43.398438 32.800781 43.199219 32.601562 43.199219 C 32.398438 43.101562 32.199219 43.199219 32 43.300781 C 31.398438 43.699219 30.699219 44.101562 30 44.5 C 29.699219 44.699219 29.601562 45 29.699219 45.300781 C 30.398438 47 31.800781 49.398438 34.800781 50.601562 C 35 50.699219 35.300781 50.699219 35.5 50.699219 C 36.300781 50.699219 36.898438 50.300781 37.199219 49.601562 C 37.601562 48.699219 37.101562 47.601562 36.199219 47.199219 Z M 36.199219 47.199219 "/>
<path style=" stroke:none;fill-rule:nonzero;fill:rgb(36.862745%,9.411765%,13.72549%);fill-opacity:1;" d="M 33 43.601562 C 32.898438 43.398438 32.800781 43.199219 32.601562 43.199219 C 32.398438 43.101562 32.199219 43.199219 32 43.300781 C 31.398438 43.699219 30.699219 44.101562 30 44.5 C 29.699219 44.699219 29.601562 45 29.699219 45.300781 C 30 46 30.398438 46.800781 30.898438 47.601562 C 31.898438 47 33 46.300781 34 45.601562 C 33.5 44.898438 33.199219 44.199219 33 43.601562 Z M 33 43.601562 "/>
<path style=" stroke:none;fill-rule:nonzero;fill:rgb(60.784314%,24.313725%,17.254902%);fill-opacity:1;" d="M 52.898438 20.699219 C 52.101562 18.898438 48.101562 19.5 42.199219 20.601562 C 41.5 20.699219 40.898438 20.800781 40.300781 20.898438 C 37.300781 21.398438 34.300781 21.398438 31.300781 21 C 28 20.5 24.398438 20.5 20.5 21.101562 C 15.699219 21.800781 12.199219 24.199219 10.101562 28.300781 C 8.199219 31.898438 7.398438 36.898438 7.601562 43.199219 C 7.699219 45 7.5 47 7.398438 49 C 7 53.199219 6.699219 56.800781 9.199219 57.699219 C 9.5 57.800781 9.800781 57.898438 10.199219 57.898438 C 12.101562 57.898438 13.898438 56.101562 15.800781 54.199219 C 17.699219 52.300781 19.800781 50.199219 22 49.699219 C 25.398438 48.898438 34.800781 44.300781 39.699219 38.699219 C 41 37.199219 42.800781 35.5 44.699219 33.699219 C 49.5 29 54.601562 24.300781 52.898438 20.699219 Z M 52.898438 20.699219 "/>
<path style=" stroke:none;fill-rule:nonzero;fill:rgb(46.666667%,14.509804%,20%);fill-opacity:1;" d="M 52.898438 20.699219 C 52.5 19.898438 51.398438 19.601562 49.699219 19.601562 C 49.699219 19.800781 49.800781 20 49.898438 20.300781 C 50.898438 24.5 42.300781 30.898438 37.5 36 C 38.101562 33.5 38.199219 30.898438 37.5 28.800781 C 37.5 28.800781 35.699219 38.601562 28 43.800781 C 24.5 45.898438 21.101562 47.300781 19.398438 47.699219 C 15 48.699219 11.5 54.898438 8.398438 55.800781 C 8.101562 55.800781 7.898438 55.898438 7.699219 55.898438 C 8 56.699219 8.5 57.398438 9.300781 57.601562 C 9.601562 57.699219 9.898438 57.800781 10.300781 57.800781 C 12.199219 57.800781 14 56 15.898438 54.101562 C 17.800781 52.199219 19.898438 50.101562 22.101562 49.601562 C 25.5 48.800781 34.898438 44.199219 39.800781 38.601562 C 41.101562 37.101562 42.898438 35.398438 44.800781 33.601562 C 49.5 29 54.601562 24.300781 52.898438 20.699219 Z M 52.898438 20.699219 "/>
</g>
</svg>
