<?xml version="1.0" encoding="UTF-8"?>
<svg xmlns="http://www.w3.org/2000/svg" xmlns:xlink="http://www.w3.org/1999/xlink" width="57pt" height="68pt" viewBox="0 0 57 68" version="1.1">
<g id="surface1">
<path style=" stroke:none;fill-rule:nonzero;fill:rgb(100%,55.686275%,30.980392%);fill-opacity:1;" d="M 51 52.601562 L 33.300781 62.800781 C 30.300781 64.5 26.601562 64.5 23.699219 62.800781 L 6 52.601562 C 3 50.898438 1.199219 47.699219 1.199219 44.199219 L 1.199219 23.800781 C 1.199219 20.398438 3 17.199219 6 15.398438 L 23.699219 5.199219 C 26.699219 3.5 30.398438 3.5 33.300781 5.199219 L 51 15.398438 C 54 17.101562 55.800781 20.300781 55.800781 23.800781 L 55.800781 44.199219 C 55.800781 47.699219 54 50.800781 51 52.601562 Z M 51 52.601562 "/>
<path style=" stroke:none;fill-rule:nonzero;fill:rgb(62.745098%,20.784314%,6.27451%);fill-opacity:1;" d="M 40.398438 19.699219 L 39.601562 4.898438 C 39.5 3.898438 38.300781 3.5 37.699219 4.300781 L 30.601562 13.398438 "/>
<path style=" stroke:none;fill-rule:nonzero;fill:rgb(72.941176%,29.803922%,12.54902%);fill-opacity:1;" d="M 23.699219 62.800781 C 25 63.5 26.398438 64 27.898438 64.101562 C 28.898438 64.101562 29.898438 64 30.898438 63.898438 C 31.800781 63.699219 32.601562 63.398438 33.398438 62.898438 L 42.699219 57.5 L 40.5 19.800781 L 40.300781 16.5 C 40.199219 14.800781 38.800781 13.5 37.199219 13.5 L 10.699219 13.5 L 8.398438 54 Z M 23.699219 62.800781 "/>
<path style=" stroke:none;fill-rule:nonzero;fill:rgb(62.745098%,20.784314%,6.27451%);fill-opacity:1;" d="M 18 59.5 L 17.101562 13.398438 L 10.699219 13.398438 L 8.398438 54 Z M 18 59.5 "/>
<path style=" stroke:none;fill-rule:nonzero;fill:rgb(23.529412%,21.176471%,24.705882%);fill-opacity:1;" d="M 39.101562 23.300781 C 39.101562 21.257812 38.027344 19.601562 36.699219 19.601562 C 35.375 19.601562 34.300781 21.257812 34.300781 23.300781 C 34.300781 25.34375 35.375 27 36.699219 27 C 38.027344 27 39.101562 25.34375 39.101562 23.300781 Z M 39.101562 23.300781 "/>
<path style=" stroke:none;fill-rule:nonzero;fill:rgb(36.078431%,33.333333%,37.647059%);fill-opacity:1;" d="M 38.398438 23 C 38.398438 21.949219 38.042969 21.101562 37.601562 21.101562 C 37.15625 21.101562 36.800781 21.949219 36.800781 23 C 36.800781 24.050781 37.15625 24.898438 37.601562 24.898438 C 38.042969 24.898438 38.398438 24.050781 38.398438 23 Z M 38.398438 23 "/>
<path style=" stroke:none;fill-rule:nonzero;fill:rgb(72.941176%,29.803922%,12.54902%);fill-opacity:1;" d="M 20.199219 13.398438 L 15.898438 16.101562 L 14.601562 17 L 13.601562 17.699219 C 12.300781 18.5 10.601562 17.5 10.699219 16 L 11.300781 5 C 11.398438 4 12.601562 3.601562 13.199219 4.398438 Z M 20.199219 13.398438 "/>
<path style=" stroke:none;fill-rule:nonzero;fill:rgb(23.529412%,21.176471%,24.705882%);fill-opacity:1;" d="M 29.101562 23.300781 C 29.101562 21.257812 28.027344 19.601562 26.699219 19.601562 C 25.375 19.601562 24.300781 21.257812 24.300781 23.300781 C 24.300781 25.34375 25.375 27 26.699219 27 C 28.027344 27 29.101562 25.34375 29.101562 23.300781 Z M 29.101562 23.300781 "/>
<path style=" stroke:none;fill-rule:nonzero;fill:rgb(36.078431%,33.333333%,37.647059%);fill-opacity:1;" d="M 28.398438 23 C 28.398438 21.949219 28.042969 21.101562 27.601562 21.101562 C 27.15625 21.101562 26.800781 21.949219 26.800781 23 C 26.800781 24.050781 27.15625 24.898438 27.601562 24.898438 C 28.042969 24.898438 28.398438 24.050781 28.398438 23 Z M 28.398438 23 "/>
<path style=" stroke:none;fill-rule:nonzero;fill:rgb(97.647059%,71.764706%,82.352941%);fill-opacity:1;" d="M 15.898438 16.199219 L 14.601562 17 L 13.601562 17.699219 C 13.601562 17.699219 13.5 17.699219 13.5 17.800781 C 12.199219 18.5 10.601562 17.5 10.699219 16 L 11.300781 5 C 11.398438 4 12.601562 3.601562 13.199219 4.398438 C 13.699219 5.699219 14.5 7.800781 15.300781 9.800781 C 15.5 10.398438 15.699219 10.898438 15.898438 11.398438 C 16.199219 12.300781 16.5 13.199219 16.800781 13.800781 C 17 14.699219 16.699219 15.699219 15.898438 16.199219 Z M 15.898438 16.199219 "/>
<path style=" stroke:none;fill-rule:nonzero;fill:rgb(100%,78.431373%,37.254902%);fill-opacity:1;" d="M 16.699219 41.699219 L 15 43.398438 C 13.601562 44.800781 13.601562 47 15 48.398438 C 16.300781 49.699219 18.5 49.800781 19.898438 48.5 L 23.800781 41.699219 L 19.898438 34.898438 C 18.5 33.699219 16.398438 33.699219 15 35 C 13.601562 36.398438 13.601562 38.601562 15 40 Z M 16.699219 41.699219 "/>
<path style=" stroke:none;fill-rule:nonzero;fill:rgb(100%,88.627451%,47.058824%);fill-opacity:1;" d="M 19.699219 40 L 21.398438 41.699219 L 19.699219 43.398438 C 18.300781 44.800781 18.300781 47 19.699219 48.398438 C 19.699219 48.398438 19.800781 48.5 19.800781 48.5 C 19.800781 48.5 19.898438 48.398438 19.898438 48.398438 L 21.898438 46.398438 L 45.101562 46.398438 L 47.101562 48.398438 C 48.5 49.800781 50.699219 49.800781 52.101562 48.398438 C 53.5 47 53.5 44.800781 52.101562 43.398438 L 50.398438 41.699219 L 52.101562 40 C 53.5 38.601562 53.5 36.398438 52.101562 35 C 50.699219 33.601562 48.5 33.601562 47.101562 35 L 45.101562 37 L 22 37 L 20 35 C 20 35 19.898438 34.898438 19.898438 34.898438 C 19.898438 34.898438 19.800781 35 19.800781 35 C 18.300781 36.398438 18.300781 38.601562 19.699219 40 Z M 19.699219 40 "/>
<path style=" stroke:none;fill-rule:nonzero;fill:rgb(84.705882%,84.705882%,84.705882%);fill-opacity:1;" d="M 24.398438 28 L 48.398438 28 L 48.398438 42.398438 C 48.398438 44.5 47.101562 46.398438 45.199219 47.300781 L 36.300781 51.199219 C 33 52.699219 29.101562 50.898438 28 47.398438 L 22.699219 30.300781 C 22.398438 29.101562 23.300781 28 24.398438 28 Z M 24.398438 28 "/>
<path style=" stroke:none;fill-rule:nonzero;fill:rgb(91.764706%,91.764706%,91.764706%);fill-opacity:1;" d="M 44.800781 32.398438 L 44.800781 43.398438 C 44.800781 45.898438 43.300781 48.101562 41.101562 49.101562 L 36.398438 51.101562 C 33.101562 52.601562 29.199219 50.800781 28.101562 47.300781 L 22.800781 30.199219 C 22.5 29.101562 23.300781 27.898438 24.5 27.898438 L 43.800781 27.898438 Z M 44.800781 32.398438 "/>
<path style=" stroke:none;fill-rule:nonzero;fill:rgb(23.529412%,21.176471%,24.705882%);fill-opacity:1;" d="M 47.699219 28 L 40.601562 28 C 39.199219 28 38.101562 29.101562 38.101562 30.5 C 38.101562 31.898438 39.199219 33 40.601562 33 L 47.699219 33 C 49.101562 33 50.199219 31.898438 50.199219 30.5 C 50.101562 29.101562 49 28 47.699219 28 Z M 47.699219 28 "/>
<path style=" stroke:none;fill-rule:nonzero;fill:rgb(36.078431%,33.333333%,37.647059%);fill-opacity:1;" d="M 48.101562 28.800781 L 44.5 28.800781 C 43.800781 28.800781 43.300781 29.398438 43.300781 30 C 43.300781 30.699219 43.898438 31.199219 44.5 31.199219 L 48.101562 31.199219 C 48.800781 31.199219 49.300781 30.601562 49.300781 30 C 49.300781 29.300781 48.800781 28.800781 48.101562 28.800781 Z M 48.101562 28.800781 "/>
<path style=" stroke:none;fill-rule:nonzero;fill:rgb(84.705882%,84.705882%,84.705882%);fill-opacity:1;" d="M 35.101562 39.800781 C 35.101562 40.847656 34.25 41.699219 33.199219 41.699219 C 32.152344 41.699219 31.300781 40.847656 31.300781 39.800781 C 31.300781 38.75 32.152344 37.898438 33.199219 37.898438 C 34.25 37.898438 35.101562 38.75 35.101562 39.800781 Z M 35.101562 39.800781 "/>
<path style=" stroke:none;fill-rule:nonzero;fill:rgb(84.705882%,84.705882%,84.705882%);fill-opacity:1;" d="M 41.898438 39.800781 C 41.898438 40.847656 41.050781 41.699219 40 41.699219 C 38.949219 41.699219 38.101562 40.847656 38.101562 39.800781 C 38.101562 38.75 38.949219 37.898438 40 37.898438 C 41.050781 37.898438 41.898438 38.75 41.898438 39.800781 Z M 41.898438 39.800781 "/>
<path style=" stroke:none;fill-rule:nonzero;fill:rgb(84.705882%,84.705882%,84.705882%);fill-opacity:1;" d="M 38.699219 43.898438 C 38.699219 44.949219 37.847656 45.800781 36.800781 45.800781 C 35.75 45.800781 34.898438 44.949219 34.898438 43.898438 C 34.898438 42.851562 35.75 42 36.800781 42 C 37.847656 42 38.699219 42.851562 38.699219 43.898438 Z M 38.699219 43.898438 "/>
<path style=" stroke:none;fill-rule:nonzero;fill:rgb(100%,88.627451%,47.058824%);fill-opacity:1;" d="M 31.398438 41.699219 C 31.398438 44.296875 29.296875 46.398438 26.699219 46.398438 C 24.105469 46.398438 22 44.296875 22 41.699219 C 22 39.105469 24.105469 37 26.699219 37 C 29.296875 37 31.398438 39.105469 31.398438 41.699219 Z M 31.398438 41.699219 "/>
<path style=" stroke:none;fill-rule:nonzero;fill:rgb(100%,88.627451%,47.058824%);fill-opacity:1;" d="M 21.398438 37 L 26.800781 37 L 26.800781 46.398438 L 21.398438 46.398438 Z M 21.398438 37 "/>
</g>
</svg>
