<?xml version="1.0" encoding="utf-8"?>
<!-- Generator: Adobe Illustrator 22.1.0, SVG Export Plug-In . SVG Version: 6.00 Build 0)  -->
<svg version="1.1" id="Capa_1" xmlns="http://www.w3.org/2000/svg" xmlns:xlink="http://www.w3.org/1999/xlink" x="0px" y="0px"
	 viewBox="0 0 57 68" style="enable-background:new 0 0 57 68;" xml:space="preserve">
<style type="text/css">
	.st0{fill:#0ED1B2;}
	.st1{fill:#EF3A47;}
	.st2{fill:#08AF8F;}
	.st3{fill:#53433F;}
	.st4{fill:#3E322E;}
	.st5{fill:#725D57;}
	.st6{fill:#FFE6B3;}
	.st7{fill:#FFF7CC;}
	.st8{fill:#FF9100;}
	.st9{fill:#FF641A;}
	.st10{fill:#5E240D;}
	.st11{fill:#7D3214;}
	.st12{fill:#963E1C;}
	.st13{fill:#B6F1FB;}
	.st14{fill:#6EE2F6;}
	.st15{fill:#FF9A42;}
	.st16{fill:#FFD185;}
	.st17{fill:#C24623;}
</style>
<g>
	<path class="st0" d="M51,52.6L33.3,62.8c-3,1.7-6.7,1.7-9.6,0L6,52.6c-3-1.7-4.8-4.9-4.8-8.4V23.8c0-3.4,1.8-6.6,4.8-8.4L23.7,5.2
		c3-1.7,6.7-1.7,9.6,0L51,15.4c3,1.7,4.8,4.9,4.8,8.4v20.4C55.8,47.7,54,50.8,51,52.6z"/>
	<path class="st1" d="M28.5,7.5c-3.3,0-6,2.7-6,6s2.7,6,6,6s6-2.7,6-6S31.8,7.5,28.5,7.5z M24.9,10.4c0.1-0.2,0.3-0.3,0.5-0.5
		c0.8-0.7,1.9-1.2,3.1-1.2c1,0,1.9,0.3,2.7,0.9l-6.5,6.5c-0.5-0.8-0.9-1.7-0.9-2.7C23.8,12.3,24.2,11.3,24.9,10.4z M32.1,16.6
		c-0.1,0.2-0.3,0.3-0.5,0.5c-0.8,0.7-1.9,1.2-3.1,1.2c-1,0-1.9-0.3-2.7-0.9l6.5-6.5c0.5,0.8,0.9,1.7,0.9,2.7
		C33.2,14.7,32.8,15.8,32.1,16.6z"/>
	<g>
		<g>
			<path class="st2" d="M18,27.8v-3.1c0-0.3-0.3-0.6-0.6-0.6c-0.3,0-0.6,0.3-0.6,0.6v3.1c-0.7,0.2-1.2,0.9-1.2,1.7
				c0,1,0.8,1.8,1.8,1.8c1,0,1.8-0.8,1.8-1.8C19.2,28.7,18.7,28,18,27.8z"/>
			<path class="st2" d="M15.7,32.3l-2.4-2.4c-0.1-0.1-0.2-0.3-0.2-0.4v-3.2l-2.1-1c-0.3-0.1-0.4-0.5-0.3-0.8
				c0.1-0.3,0.5-0.4,0.8-0.3l2.4,1.2c0.2,0.1,0.3,0.3,0.3,0.5v3.4l2.2,2.2c0.2,0.2,0.2,0.6,0,0.8C16.3,32.5,16,32.5,15.7,32.3
				L15.7,32.3z"/>
			<g>
				<path class="st2" d="M18.1,32.3c-0.2-0.2-0.2-0.6,0-0.8l2.2-2.2v-3.4c0-0.2,0.1-0.4,0.3-0.5l2.4-1.2c0.3-0.1,0.7,0,0.8,0.3
					c0.1,0.3,0,0.7-0.3,0.8l-2.1,1v3.2c0,0.2-0.1,0.3-0.2,0.4L19,32.3C18.7,32.5,18.4,32.5,18.1,32.3L18.1,32.3z"/>
				<path class="st2" d="M25.3,43.2l-2.4-2.5c-0.1-0.1-0.2-0.3-0.2-0.4v-1.9l-4.3-1.1c-0.3-0.1-0.5-0.4-0.4-0.7
					c0.1-0.3,0.4-0.5,0.7-0.4l4.8,1.2c0.3,0.1,0.5,0.3,0.5,0.6V40l2.2,2.3c0.2,0.2,0.2,0.6,0,0.8C25.9,43.4,25.6,43.4,25.3,43.2
					L25.3,43.2z"/>
				<path class="st2" d="M22.9,44.4l-2.4-2.5c-0.1-0.1-0.2-0.3-0.2-0.4v-2.2l-2.2-2.2c-0.2-0.2-0.2-0.6,0-0.8c0.2-0.2,0.6-0.2,0.8,0
					l2.4,2.4c0.1,0.1,0.2,0.3,0.2,0.4v2.2l2.2,2.3c0.2,0.2,0.2,0.6,0,0.8C23.5,44.6,23.2,44.6,22.9,44.4L22.9,44.4z"/>
				<path class="st2" d="M18,27.8v-3.1c0-0.3-0.3-0.6-0.6-0.6v3.6v1.2v2.4c1,0,1.8-0.8,1.8-1.8C19.2,28.7,18.7,28,18,27.8z"/>
			</g>
			<path class="st2" d="M17.4,30.1c-1,0-1.8,0.8-1.8,1.8v1.2c0,1,0.8,1.8,1.8,1.8c1,0,1.8-0.8,1.8-1.8v-1.2
				C19.2,30.9,18.3,30.1,17.4,30.1z"/>
			<path class="st2" d="M19.2,31.9v1.2c0,1-0.8,1.8-1.8,1.8v-4.8C18.3,30.1,19.2,30.9,19.2,31.9z"/>
			<path class="st2" d="M25.8,34.9H21c-1.7,0-3-1.3-3-3c0-0.3,0.3-0.6,0.6-0.6h7.2c1,0,1.8,0.8,1.8,1.8
				C27.6,34.1,26.8,34.9,25.8,34.9z"/>
			<path class="st2" d="M13.8,34.9H8.9c-1,0-1.8-0.8-1.8-1.8c0-1,0.8-1.8,1.8-1.8h7.2c0.3,0,0.6,0.3,0.6,0.6
				C16.8,33.5,15.4,34.9,13.8,34.9z"/>
			<path class="st2" d="M8.5,43.2c-0.2-0.2-0.2-0.6,0-0.8l2.2-2.3v-2.2c0-0.3,0.2-0.5,0.5-0.6l4.8-1.2c0.3-0.1,0.6,0.1,0.7,0.4
				c0.1,0.3-0.1,0.6-0.4,0.7L12,38.4v1.9c0,0.2-0.1,0.3-0.2,0.4l-2.4,2.5C9.1,43.4,8.8,43.4,8.5,43.2L8.5,43.2z"/>
			<path class="st2" d="M10.9,44.4c-0.2-0.2-0.2-0.6,0-0.8l2.2-2.3v-2.2c0-0.2,0.1-0.3,0.2-0.4l2.4-2.4c0.2-0.2,0.6-0.2,0.8,0
				s0.2,0.6,0,0.8l-2.2,2.2v2.2c0,0.2-0.1,0.3-0.2,0.4l-2.4,2.5C11.5,44.6,11.2,44.6,10.9,44.4z"/>
			<path class="st2" d="M18.6,39.1L18.6,39.1L18.6,39.1z M17.4,33.7c-1,0-1.8,0.8-1.8,1.8v3.6c0,0.1,0,0.2,0.1,0.3l1.2,2.4
				c0.1,0.2,0.3,0.3,0.5,0.3c0.2,0,0.4-0.1,0.5-0.3l1.2-2.4c0-0.1,0.1-0.2,0.1-0.3v-3.6C19.2,34.5,18.3,33.7,17.4,33.7z"/>
			<path class="st2" d="M19.2,35.5v3.6c0,0.1,0,0.2-0.1,0.3l-1.2,2.4c-0.1,0.2-0.3,0.3-0.5,0.3v-8.4C18.3,33.7,19.2,34.5,19.2,35.5z
				"/>
		</g>
		<g>
			<path class="st3" d="M18,27.1V24c0-0.3-0.3-0.6-0.6-0.6c-0.3,0-0.6,0.3-0.6,0.6v3.1c-0.7,0.2-1.2,0.9-1.2,1.7
				c0,1,0.8,1.8,1.8,1.8c1,0,1.8-0.8,1.8-1.8C19.2,28,18.7,27.4,18,27.1z"/>
			<path class="st3" d="M15.7,31.7l-2.4-2.4c-0.1-0.1-0.2-0.3-0.2-0.4v-3.2l-2.1-1c-0.3-0.1-0.4-0.5-0.3-0.8
				c0.1-0.3,0.5-0.4,0.8-0.3l2.4,1.2c0.2,0.1,0.3,0.3,0.3,0.5v3.4l2.2,2.2c0.2,0.2,0.2,0.6,0,0.8C16.3,31.9,16,31.9,15.7,31.7
				L15.7,31.7z"/>
			<g>
				<path class="st4" d="M18.1,31.7c-0.2-0.2-0.2-0.6,0-0.8l2.2-2.2v-3.4c0-0.2,0.1-0.4,0.3-0.5l2.4-1.2c0.3-0.1,0.7,0,0.8,0.3
					c0.1,0.3,0,0.7-0.3,0.8l-2.1,1v3.2c0,0.2-0.1,0.3-0.2,0.4L19,31.7C18.7,31.9,18.4,31.9,18.1,31.7L18.1,31.7z"/>
				<path class="st4" d="M25.3,42.5l-2.4-2.5c-0.1-0.1-0.2-0.3-0.2-0.4v-1.9l-4.3-1.1c-0.3-0.1-0.5-0.4-0.4-0.7
					c0.1-0.3,0.4-0.5,0.7-0.4l4.8,1.2c0.3,0.1,0.5,0.3,0.5,0.6v2.2l2.2,2.3c0.2,0.2,0.2,0.6,0,0.8C25.9,42.8,25.6,42.8,25.3,42.5
					L25.3,42.5z"/>
				<path class="st4" d="M22.9,43.7l-2.4-2.5c-0.1-0.1-0.2-0.3-0.2-0.4v-2.2l-2.2-2.2c-0.2-0.2-0.2-0.6,0-0.8c0.2-0.2,0.6-0.2,0.8,0
					l2.4,2.4c0.1,0.1,0.2,0.3,0.2,0.4v2.2l2.2,2.3c0.2,0.2,0.2,0.6,0,0.8C23.5,44,23.2,44,22.9,43.7L22.9,43.7z"/>
				<path class="st4" d="M18,27.1V24c0-0.3-0.3-0.6-0.6-0.6V27v1.2v2.4c1,0,1.8-0.8,1.8-1.8C19.2,28,18.7,27.4,18,27.1z"/>
			</g>
			<path class="st5" d="M17.4,29.4c-1,0-1.8,0.8-1.8,1.8v1.2c0,1,0.8,1.8,1.8,1.8c1,0,1.8-0.8,1.8-1.8v-1.2
				C19.2,30.2,18.3,29.4,17.4,29.4z"/>
			<path class="st3" d="M19.2,31.2v1.2c0,1-0.8,1.8-1.8,1.8v-4.8C18.3,29.4,19.2,30.2,19.2,31.2z"/>
			<path class="st6" d="M25.8,34.2H21c-1.7,0-3-1.3-3-3c0-0.3,0.3-0.6,0.6-0.6h7.2c1,0,1.8,0.8,1.8,1.8
				C27.6,33.4,26.8,34.2,25.8,34.2z"/>
			<path class="st7" d="M13.8,34.2H8.9c-1,0-1.8-0.8-1.8-1.8c0-1,0.8-1.8,1.8-1.8h7.2c0.3,0,0.6,0.3,0.6,0.6
				C16.8,32.9,15.4,34.2,13.8,34.2z"/>
			<path class="st3" d="M8.5,42.5c-0.2-0.2-0.2-0.6,0-0.8l2.2-2.3v-2.2c0-0.3,0.2-0.5,0.5-0.6l4.8-1.2c0.3-0.1,0.6,0.1,0.7,0.4
				c0.1,0.3-0.1,0.6-0.4,0.7L12,37.7v1.9c0,0.2-0.1,0.3-0.2,0.4l-2.4,2.5C9.1,42.8,8.8,42.8,8.5,42.5L8.5,42.5z"/>
			<path class="st3" d="M10.9,43.7c-0.2-0.2-0.2-0.6,0-0.8l2.2-2.3v-2.2c0-0.2,0.1-0.3,0.2-0.4l2.4-2.4c0.2-0.2,0.6-0.2,0.8,0
				s0.2,0.6,0,0.8l-2.2,2.2v2.2c0,0.2-0.1,0.3-0.2,0.4l-2.4,2.5C11.5,44,11.2,44,10.9,43.7z"/>
			<path class="st8" d="M18.6,38.4L18.6,38.4L18.6,38.4z M17.4,33c-1,0-1.8,0.8-1.8,1.8v3.6c0,0.1,0,0.2,0.1,0.3l1.2,2.4
				c0.1,0.2,0.3,0.3,0.5,0.3c0.2,0,0.4-0.1,0.5-0.3l1.2-2.4c0-0.1,0.1-0.2,0.1-0.3v-3.6C19.2,33.8,18.3,33,17.4,33z"/>
			<path class="st9" d="M19.2,34.8v3.6c0,0.1,0,0.2-0.1,0.3l-1.2,2.4c-0.1,0.2-0.3,0.3-0.5,0.3V33C18.3,33,19.2,33.8,19.2,34.8z"/>
		</g>
	</g>
	<g>
		<g>
			<g>
				<path class="st2" d="M39.9,24.4c-0.2,0-0.3,0.1-0.3,0.3V29h0.6v-4.3C40.2,24.5,40.1,24.4,39.9,24.4z"/>
				<path class="st2" d="M49.1,42.5c-1.5-0.7-2.7-1.9-3.4-3.4v-2.9c0-0.1,0-0.2-0.1-0.2l-4.2-4.2l-0.4,0.4l4.1,4.1v2.9
					c0,0,0,0.1,0,0.1c0.8,1.6,2.1,2.9,3.7,3.7c0,0,0.1,0,0.1,0c0.1,0,0.2-0.1,0.3-0.2C49.3,42.8,49.2,42.6,49.1,42.5L49.1,42.5z"/>
				<path class="st2" d="M47.3,44c-1.5-0.7-2.7-1.9-3.4-3.4v-3.5c0-0.1,0-0.1-0.1-0.2l-2.5-3.8l-0.5,0.3l2.5,3.7v3.5
					c0,0,0,0.1,0,0.1c0.8,1.6,2.1,2.9,3.7,3.7c0,0,0.1,0,0.1,0c0.1,0,0.2-0.1,0.3-0.2C47.5,44.3,47.4,44.1,47.3,44L47.3,44z"/>
				<path class="st2" d="M46.5,24.2c-0.1-0.1-0.3-0.2-0.4-0.1c-1.2,0.6-2.2,1.6-2.9,2.8c0,0,0,0.1,0,0.1v2.4l-2.3,2.3l0.4,0.4
					l2.4-2.4c0.1-0.1,0.1-0.1,0.1-0.2v-2.4c0.6-1.1,1.4-2,2.6-2.5C46.5,24.6,46.6,24.4,46.5,24.2z"/>
				<path class="st2" d="M30.8,42.5c1.5-0.7,2.7-1.9,3.4-3.4v-2.9c0-0.1,0-0.2,0.1-0.2l4.2-4.2l0.4,0.4l-4.1,4.1v2.9
					c0,0,0,0.1,0,0.1c-0.8,1.6-2.1,2.9-3.7,3.7c0,0-0.1,0-0.1,0c-0.1,0-0.2-0.1-0.3-0.2C30.6,42.8,30.6,42.6,30.8,42.5L30.8,42.5z"
					/>
				<path class="st2" d="M32.6,44c1.5-0.7,2.7-1.9,3.4-3.4v-3.5c0-0.1,0-0.1,0.1-0.2l2.5-3.8l0.5,0.3l-2.5,3.7v3.5c0,0,0,0.1,0,0.1
					c-0.8,1.6-2.1,2.9-3.7,3.7c0,0-0.1,0-0.1,0c-0.1,0-0.2-0.1-0.3-0.2C32.4,44.3,32.4,44.1,32.6,44z"/>
				<path class="st2" d="M33.3,24.2c0.1-0.1,0.3-0.2,0.4-0.1c1.2,0.6,2.2,1.6,2.9,2.8c0,0,0,0.1,0,0.1v2.4l2.3,2.3l-0.4,0.4
					l-2.4-2.4c-0.1-0.1-0.1-0.1-0.1-0.2v-2.4c-0.6-1.1-1.4-2-2.6-2.5C33.3,24.6,33.3,24.4,33.3,24.2z"/>
			</g>
			<path class="st2" d="M41.1,29.1l-1.2-1l-0.3,3l1-0.6c0.4,0,0.8-0.4,0.8-0.8C41.4,29.4,41.3,29.2,41.1,29.1z"/>
			<path class="st2" d="M40.2,29.7c0-0.2,0-0.5-0.1-0.6l-0.2-1l-1.2,1c-0.2,0.2-0.3,0.4-0.3,0.6c0,0.4,0.4,0.8,0.8,0.8l0.4,0.6
				l0.4-0.6C40.1,30.5,40.2,30.1,40.2,29.7z"/>
			<path class="st2" d="M30.9,31.4c-0.5,0-0.9,0.4-0.9,0.9c0,0.5,0.4,0.9,0.9,0.9h4c0.4,0,0.7,0,1-0.1l2.2-0.5l1.2-1.2H30.9z"/>
			<path class="st2" d="M49,31.4h-1.2v1.8H49c0.5,0,0.9-0.4,0.9-0.9C49.9,31.8,49.5,31.4,49,31.4z"/>
			<path class="st2" d="M48.7,32.3c0-0.5-0.4-0.9-0.9-0.9h-7.8l1.8,1.2l2.2,0.5c0.3,0.1,0.7,0.1,1,0.1h2.8
				C48.3,33.2,48.7,32.8,48.7,32.3z"/>
			<path class="st2" d="M40.8,38.9v0.9c0,0.5-0.4,0.9-0.9,0.9c-0.5,0-0.9-0.4-0.9-0.9v-0.9l0.9-0.6L40.8,38.9z"/>
			<path class="st2" d="M40.8,37.7v1.2H39v-1.2l0.9-0.6L40.8,37.7z"/>
			<path class="st2" d="M40.8,36.5v1.2H39v-1.2l0.9-0.6L40.8,36.5z"/>
			<path class="st2" d="M39,34.5h1.8v2H39V34.5z"/>
			<path class="st2" d="M40.8,30.5h-1.2l0.3,4.8c1,0,1.8-0.8,1.8-1.8v-2.1C41.7,30.9,41.3,30.5,40.8,30.5z"/>
			<path class="st2" d="M40.5,33.5v-2.1c0-0.5-0.4-0.9-0.9-0.9H39c-0.5,0-0.9,0.4-0.9,0.9v2c0,1,0.8,1.8,1.8,1.8
				C40.2,35.3,40.5,34.5,40.5,33.5z"/>
		</g>
		<g>
			<g>
				<path class="st10" d="M39.9,23.7c-0.2,0-0.3,0.1-0.3,0.3v4.3h0.6V24C40.2,23.9,40.1,23.7,39.9,23.7z"/>
				<path class="st10" d="M49.1,41.9c-1.5-0.7-2.7-1.9-3.4-3.4v-2.9c0-0.1,0-0.2-0.1-0.2l-4.2-4.2l-0.4,0.4l4.1,4.1v2.9
					c0,0,0,0.1,0,0.1c0.8,1.6,2.1,2.9,3.7,3.7c0,0,0.1,0,0.1,0c0.1,0,0.2-0.1,0.3-0.2C49.3,42.1,49.2,42,49.1,41.9L49.1,41.9z"/>
				<path class="st10" d="M47.3,43.3c-1.5-0.7-2.7-1.9-3.4-3.4v-3.5c0-0.1,0-0.1-0.1-0.2l-2.5-3.8l-0.5,0.3l2.5,3.7V40
					c0,0,0,0.1,0,0.1c0.8,1.6,2.1,2.9,3.7,3.7c0,0,0.1,0,0.1,0c0.1,0,0.2-0.1,0.3-0.2C47.5,43.6,47.4,43.4,47.3,43.3L47.3,43.3z"/>
				<path class="st10" d="M46.5,23.6c-0.1-0.1-0.3-0.2-0.4-0.1c-1.2,0.6-2.2,1.6-2.9,2.8c0,0,0,0.1,0,0.1v2.4l-2.3,2.3l0.4,0.4
					l2.4-2.4c0.1-0.1,0.1-0.1,0.1-0.2v-2.4c0.6-1.1,1.4-2,2.6-2.5C46.5,23.9,46.6,23.7,46.5,23.6z"/>
				<path class="st10" d="M30.8,41.9c1.5-0.7,2.7-1.9,3.4-3.4v-2.9c0-0.1,0-0.2,0.1-0.2l4.2-4.2l0.4,0.4l-4.1,4.1v2.9
					c0,0,0,0.1,0,0.1c-0.8,1.6-2.1,2.9-3.7,3.7c0,0-0.1,0-0.1,0c-0.1,0-0.2-0.1-0.3-0.2C30.6,42.1,30.6,42,30.8,41.9L30.8,41.9z"/>
				<path class="st10" d="M32.6,43.3c1.5-0.7,2.7-1.9,3.4-3.4v-3.5c0-0.1,0-0.1,0.1-0.2l2.5-3.8l0.5,0.3l-2.5,3.7V40
					c0,0,0,0.1,0,0.1c-0.8,1.6-2.1,2.9-3.7,3.7c0,0-0.1,0-0.1,0c-0.1,0-0.2-0.1-0.3-0.2C32.4,43.6,32.4,43.4,32.6,43.3z"/>
				<path class="st10" d="M33.3,23.6c0.1-0.1,0.3-0.2,0.4-0.1c1.2,0.6,2.2,1.6,2.9,2.8c0,0,0,0.1,0,0.1v2.4l2.3,2.3l-0.4,0.4
					l-2.4-2.4C36.1,29.1,36,29,36,29v-2.4c-0.6-1.1-1.4-2-2.6-2.5C33.3,23.9,33.3,23.7,33.3,23.6z"/>
			</g>
			<path class="st11" d="M41.1,28.4l-1.2-1l-0.3,3l1-0.6c0.4,0,0.8-0.4,0.8-0.8C41.4,28.8,41.3,28.6,41.1,28.4z"/>
			<path class="st12" d="M40.2,29c0-0.2,0-0.5-0.1-0.6l-0.2-1l-1.2,1c-0.2,0.2-0.3,0.4-0.3,0.6c0,0.4,0.4,0.8,0.8,0.8l0.4,0.6
				l0.4-0.6C40.1,29.9,40.2,29.5,40.2,29z"/>
			<path class="st13" d="M30.9,30.8c-0.5,0-0.9,0.4-0.9,0.9c0,0.5,0.4,0.9,0.9,0.9h4c0.4,0,0.7,0,1-0.1l2.2-0.5l1.2-1.2H30.9z"/>
			<path class="st14" d="M49,30.8h-1.2v1.8H49c0.5,0,0.9-0.4,0.9-0.9C49.9,31.2,49.5,30.8,49,30.8z"/>
			<path class="st13" d="M48.7,31.7c0-0.5-0.4-0.9-0.9-0.9h-7.8l1.8,1.2l2.2,0.5c0.3,0.1,0.7,0.1,1,0.1h2.8
				C48.3,32.6,48.7,32.2,48.7,31.7z"/>
			<path class="st15" d="M40.8,38.2v0.9c0,0.5-0.4,0.9-0.9,0.9c-0.5,0-0.9-0.4-0.9-0.9v-0.9l0.9-0.6L40.8,38.2z"/>
			<path class="st16" d="M40.8,37v1.2H39V37l0.9-0.6L40.8,37z"/>
			<path class="st15" d="M40.8,35.8V37H39v-1.2l0.9-0.6L40.8,35.8z"/>
			<path class="st16" d="M39,33.8h1.8v2H39V33.8z"/>
			<path class="st12" d="M40.8,29.9h-1.2l0.3,4.8c1,0,1.8-0.8,1.8-1.8v-2.1C41.7,30.3,41.3,29.9,40.8,29.9z"/>
			<path class="st17" d="M40.5,32.8v-2.1c0-0.5-0.4-0.9-0.9-0.9H39c-0.5,0-0.9,0.4-0.9,0.9v2c0,1,0.8,1.8,1.8,1.8
				C40.2,34.6,40.5,33.8,40.5,32.8z"/>
		</g>
	</g>
</g>
</svg>
