<?xml version="1.0" encoding="UTF-8"?>
<svg xmlns="http://www.w3.org/2000/svg" xmlns:xlink="http://www.w3.org/1999/xlink" width="57pt" height="68pt" viewBox="0 0 57 68" version="1.1">
<g id="surface1">
<path style=" stroke:none;fill-rule:nonzero;fill:rgb(14.901961%,25.098039%,42.745098%);fill-opacity:1;" d="M 51 52.601562 L 33.300781 62.800781 C 30.300781 64.5 26.601562 64.5 23.699219 62.800781 L 6 52.601562 C 3 50.898438 1.199219 47.699219 1.199219 44.199219 L 1.199219 23.800781 C 1.199219 20.398438 3 17.199219 6 15.398438 L 23.699219 5.199219 C 26.699219 3.5 30.398438 3.5 33.300781 5.199219 L 51 15.398438 C 54 17.101562 55.800781 20.300781 55.800781 23.800781 L 55.800781 44.199219 C 55.800781 47.699219 54 50.800781 51 52.601562 Z M 51 52.601562 "/>
<path style=" stroke:none;fill-rule:nonzero;fill:rgb(77.254902%,19.607843%,30.980392%);fill-opacity:1;" d="M 52.601562 12.5 C 51.800781 13.898438 51.101562 15.398438 50.601562 16.898438 C 48.800781 21.300781 47 38.300781 39 45.398438 C 31 52.5 22 53.398438 14.898438 55.199219 C 8.800781 56.699219 7.199219 58.300781 5.199219 59.800781 C 4.699219 60.199219 4 60.300781 3.398438 60 C 2.800781 59.699219 2.398438 59.101562 2.398438 58.5 C 2.398438 58.5 2.398438 58.398438 2.398438 58.398438 C 2.398438 58 2.5 57.699219 2.699219 57.398438 C 5.398438 53.398438 6.601562 46.300781 7.800781 40.101562 C 10.5 25.800781 19.5 16.699219 29.199219 15.101562 C 34 14.300781 45.398438 12.5 50.101562 9.898438 C 50.398438 9.699219 50.800781 9.601562 51.199219 9.699219 C 51.800781 9.699219 52.300781 10 52.601562 10.5 C 52.898438 11 53 11.800781 52.601562 12.5 Z M 52.601562 12.5 "/>
<path style=" stroke:none;fill-rule:nonzero;fill:rgb(100%,35.686275%,38.431373%);fill-opacity:1;" d="M 51.101562 9.601562 C 51.199219 10 51.101562 10.398438 50.898438 10.800781 C 50.101562 12.199219 49.398438 13.699219 48.898438 15.199219 C 47.101562 19.699219 45.300781 36.601562 37.300781 43.800781 C 29.300781 50.898438 20.300781 51.800781 13.199219 53.601562 C 7.101562 55.101562 5.5 56.699219 3.5 58.199219 C 3.199219 58.398438 2.800781 58.601562 2.398438 58.601562 C 2.398438 58.601562 2.398438 58.5 2.398438 58.5 C 2.398438 58.101562 2.5 57.800781 2.699219 57.5 C 5.398438 53.5 6.601562 46.398438 7.800781 40.199219 C 10.5 25.898438 19.5 16.800781 29.199219 15.199219 C 34 14.398438 45.398438 12.601562 50.101562 10 C 50.300781 9.601562 50.699219 9.601562 51.101562 9.601562 Z M 51.101562 9.601562 "/>
<path style=" stroke:none;fill-rule:nonzero;fill:rgb(77.254902%,19.607843%,30.980392%);fill-opacity:1;" d="M 17.5 42.699219 C 14.5 48.800781 10.398438 50.699219 10.398438 50.699219 C 10.601562 49.699219 10.800781 48.699219 10.898438 47.699219 C 11.398438 43.601562 11.898438 37.699219 14 32.800781 C 15.800781 28.601562 18 26.800781 19.300781 26.101562 C 19.601562 25.898438 19.898438 25.800781 20.300781 25.699219 C 21.199219 31.601562 20.199219 37.5 17.5 42.699219 Z M 17.5 42.699219 "/>
<path style=" stroke:none;fill-rule:nonzero;fill:rgb(100%,52.941176%,55.686275%);fill-opacity:1;" d="M 16.199219 41 C 14.898438 43.699219 13.101562 46 10.800781 47.898438 C 11.300781 43.800781 11.800781 37.898438 13.898438 33 C 15.699219 28.800781 17.898438 27 19.199219 26.300781 C 19.601562 31.300781 18.601562 36.398438 16.199219 41 Z M 16.199219 41 "/>
<path style=" stroke:none;fill-rule:nonzero;fill:rgb(77.254902%,19.607843%,30.980392%);fill-opacity:1;" d="M 33.601562 43.601562 C 29.101562 47.199219 21.101562 49.800781 17.5 49.800781 C 17.5 49.800781 17.898438 49 18.5 47.699219 C 20.5 43.699219 25.300781 35.5 30 35.5 C 31.101562 35.5 32.199219 35.898438 33.101562 36.5 C 35.398438 38.101562 36.800781 41.101562 33.601562 43.601562 Z M 33.601562 43.601562 "/>
<path style=" stroke:none;fill-rule:nonzero;fill:rgb(100%,52.941176%,55.686275%);fill-opacity:1;" d="M 31.800781 41.800781 C 28.300781 44.601562 22.601562 46.898438 18.5 47.699219 C 20.5 43.699219 25.300781 35.5 30 35.5 C 31.101562 35.5 32.199219 35.898438 33.101562 36.5 C 34 38.101562 34 40.101562 31.800781 41.800781 Z M 31.800781 41.800781 "/>
<path style=" stroke:none;fill-rule:nonzero;fill:rgb(77.254902%,19.607843%,30.980392%);fill-opacity:1;" d="M 36.300781 27.601562 C 30.898438 32.101562 29.199219 29.398438 23.800781 33.800781 C 24.199219 32.5 24.800781 31.300781 25.5 30.101562 C 28.199219 25.699219 33 21 39.699219 19.699219 C 40 19.601562 40.398438 19.601562 40.699219 19.5 C 40.699219 19.5 42.199219 22.601562 36.300781 27.601562 Z M 36.300781 27.601562 "/>
<path style=" stroke:none;fill-rule:nonzero;fill:rgb(100%,52.941176%,55.686275%);fill-opacity:1;" d="M 39.699219 19.699219 C 39.398438 21.101562 38.300781 23.199219 35.199219 25.800781 C 30.898438 29.398438 28.898438 28.398438 25.5 30.199219 C 28.101562 25.699219 33 21.101562 39.699219 19.699219 Z M 39.699219 19.699219 "/>
<path style=" stroke:none;fill-rule:nonzero;fill:rgb(100%,52.941176%,55.686275%);fill-opacity:1;" d="M 22.898438 24 C 22.898438 22.199219 25 18.398438 31.800781 17.800781 C 28.398438 21.800781 25 24.398438 22.898438 24 Z M 22.898438 24 "/>
<path style=" stroke:none;fill-rule:nonzero;fill:rgb(100%,52.941176%,55.686275%);fill-opacity:1;" d="M 39.800781 37.398438 C 41.5 35 42.398438 32.199219 42.5 29.398438 C 42.101562 29.300781 36.800781 31.101562 39.800781 37.398438 Z M 39.800781 37.398438 "/>
</g>
</svg>
