<?xml version="1.0" encoding="UTF-8"?>
<svg xmlns="http://www.w3.org/2000/svg" xmlns:xlink="http://www.w3.org/1999/xlink" width="57pt" height="68pt" viewBox="0 0 57 68" version="1.1">
<g id="surface1">
<path style=" stroke:none;fill-rule:nonzero;fill:rgb(38.431373%,85.882353%,98.431373%);fill-opacity:1;" d="M 51 52.601562 L 33.300781 62.800781 C 30.300781 64.5 26.601562 64.5 23.699219 62.800781 L 6 52.601562 C 3 50.898438 1.199219 47.699219 1.199219 44.199219 L 1.199219 23.800781 C 1.199219 20.398438 3 17.199219 6 15.398438 L 23.699219 5.199219 C 26.699219 3.5 30.398438 3.5 33.300781 5.199219 L 51 15.398438 C 54 17.101562 55.800781 20.300781 55.800781 23.800781 L 55.800781 44.199219 C 55.800781 47.699219 54 50.800781 51 52.601562 Z M 51 52.601562 "/>
<path style=" stroke:none;fill-rule:nonzero;fill:rgb(99.607843%,65.098039%,7.45098%);fill-opacity:1;" d="M 6 52.601562 L 12.800781 56.5 L 44.300781 56.5 L 51.101562 52.601562 C 51.398438 52.398438 51.699219 52.199219 52 52 L 5.101562 52 C 5.398438 52.199219 5.699219 52.398438 6 52.601562 Z M 6 52.601562 "/>
<path style=" stroke:none;fill-rule:nonzero;fill:rgb(98.431373%,53.333333%,0.392157%);fill-opacity:1;" d="M 6 52.601562 L 23.699219 62.800781 C 26.699219 64.5 30.398438 64.5 33.300781 62.800781 L 51 52.601562 C 51.300781 52.398438 51.601562 52.199219 51.898438 52 L 5.101562 52 C 5.398438 52.199219 5.699219 52.398438 6 52.601562 Z M 6 52.601562 "/>
<path style=" stroke:none;fill-rule:nonzero;fill:rgb(99.607843%,65.098039%,7.45098%);fill-opacity:1;" d="M 6 52.601562 L 12.800781 56.5 L 44.300781 56.5 L 51.101562 52.601562 C 51.398438 52.398438 51.699219 52.199219 52 52 L 5.101562 52 C 5.398438 52.199219 5.699219 52.398438 6 52.601562 Z M 6 52.601562 "/>
<path style=" stroke:none;fill-rule:nonzero;fill:rgb(76.862745%,34.117647%,22.745098%);fill-opacity:1;" d="M 23.898438 27.300781 C 24.800781 27.300781 25.601562 27.699219 26.101562 28.5 L 26.199219 28.601562 L 26.300781 28.5 C 26.800781 27.800781 27.601562 27.300781 28.5 27.300781 C 29.398438 27.300781 30.199219 27.699219 30.699219 28.5 L 30.800781 28.601562 L 30.898438 28.5 C 31.398438 27.800781 32.199219 27.300781 33.101562 27.300781 C 33.300781 27.300781 33.5 27.300781 33.699219 27.398438 C 33.5 26.101562 32.398438 25.101562 31.101562 25.101562 C 30.398438 25.101562 29.699219 25.398438 29.199219 25.898438 C 28.800781 25 27.898438 24.398438 26.800781 24.398438 C 25.300781 24.398438 24.101562 25.601562 24.101562 27.101562 C 23.800781 27.199219 23.800781 27.199219 23.898438 27.300781 C 23.800781 27.300781 23.800781 27.300781 23.898438 27.300781 Z M 23.898438 27.300781 "/>
<path style=" stroke:none;fill-rule:nonzero;fill:rgb(65.490196%,29.411765%,18.823529%);fill-opacity:1;" d="M 23.898438 27.300781 C 24.699219 27.300781 25.398438 27.699219 25.898438 28.300781 C 25.699219 27.898438 25.601562 27.5 25.601562 27.101562 C 25.601562 25.898438 26.300781 25 27.398438 24.601562 C 27.101562 24.5 26.800781 24.398438 26.5 24.398438 C 25 24.398438 23.800781 25.601562 23.800781 27.101562 C 23.800781 27.199219 23.800781 27.199219 23.898438 27.300781 C 23.800781 27.300781 23.800781 27.300781 23.898438 27.300781 Z M 23.898438 27.300781 "/>
<path style=" stroke:none;fill-rule:nonzero;fill:rgb(83.921569%,41.176471%,29.411765%);fill-opacity:1;" d="M 18.800781 31.800781 L 18.898438 31.898438 L 19 31.800781 C 19.398438 30.898438 20.300781 30.300781 21.398438 30.300781 C 22.5 30.300781 23.300781 30.898438 23.800781 31.800781 L 23.898438 31.898438 L 24 31.800781 C 24.398438 30.898438 25.300781 30.300781 26.398438 30.300781 C 27.5 30.300781 28.300781 30.898438 28.800781 31.800781 L 28.898438 31.898438 L 29 31.800781 C 29.398438 30.898438 30.300781 30.300781 31.398438 30.300781 C 32.5 30.300781 33.300781 30.898438 33.800781 31.800781 L 33.898438 31.898438 L 34 31.800781 C 34.398438 30.898438 35.300781 30.300781 36.398438 30.300781 C 37.5 30.300781 38.300781 30.898438 38.800781 31.800781 L 38.898438 31.898438 L 39 31.800781 C 39.300781 31.101562 40 30.601562 40.699219 30.398438 C 40.699219 30.199219 40.699219 30.101562 40.699219 29.898438 C 40.699219 28.398438 39.5 27.199219 38 27.199219 C 37.101562 27.199219 36.199219 27.699219 35.800781 28.398438 C 35.300781 27.699219 34.5 27.199219 33.601562 27.199219 C 32.699219 27.199219 31.800781 27.699219 31.398438 28.398438 C 30.898438 27.699219 30.101562 27.199219 29.199219 27.199219 C 28.300781 27.199219 27.398438 27.699219 27 28.398438 C 26.5 27.699219 25.699219 27.199219 24.800781 27.199219 C 23.898438 27.199219 23 27.699219 22.601562 28.398438 C 22.101562 27.699219 21.300781 27.199219 20.398438 27.199219 C 18.898438 27.199219 17.699219 28.398438 17.699219 29.898438 C 17.699219 30.101562 17.699219 30.199219 17.699219 30.300781 C 17.601562 30.5 18.398438 31 18.800781 31.800781 Z M 18.800781 31.800781 "/>
<path style=" stroke:none;fill-rule:nonzero;fill:rgb(76.862745%,34.117647%,22.745098%);fill-opacity:1;" d="M 43.199219 33 C 43.199219 31.5 42 30.300781 40.5 30.300781 C 39.398438 30.300781 38.5 30.898438 38.101562 31.800781 C 37.699219 30.898438 36.800781 30.300781 35.699219 30.300781 C 34.601562 30.300781 33.699219 30.898438 33.300781 31.800781 C 32.898438 30.898438 32 30.300781 30.898438 30.300781 C 29.800781 30.300781 28.898438 30.898438 28.5 31.800781 C 28.101562 30.898438 27.199219 30.300781 26.101562 30.300781 C 25 30.300781 24.101562 30.898438 23.699219 31.800781 C 23.300781 30.898438 22.398438 30.300781 21.300781 30.300781 C 20.199219 30.300781 19.300781 30.898438 18.898438 31.800781 C 18.5 30.898438 17.601562 30.300781 16.5 30.300781 C 15 30.300781 13.800781 31.5 13.800781 33 Z M 43.199219 33 "/>
<path style=" stroke:none;fill-rule:nonzero;fill:rgb(65.490196%,29.411765%,18.823529%);fill-opacity:1;" d="M 15.699219 33 C 15.699219 31.898438 16.398438 30.898438 17.398438 30.5 C 17.101562 30.398438 16.800781 30.300781 16.398438 30.300781 C 14.898438 30.300781 13.699219 31.5 13.699219 33 Z M 15.699219 33 "/>
<path style=" stroke:none;fill-rule:nonzero;fill:rgb(99.607843%,39.215686%,43.529412%);fill-opacity:1;" d="M 18.699219 45.398438 C 20 45.398438 21.199219 46 22.101562 47 C 23.699219 48.898438 26.101562 50.101562 28.601562 50.101562 C 31.101562 50.101562 33.5 49 35.101562 47 C 35.898438 46 37.199219 45.398438 38.5 45.398438 L 48.300781 45.398438 L 45.898438 34.5 C 45.699219 33.601562 44.898438 33 44.101562 33 L 13.101562 33 C 12.199219 33 11.398438 33.601562 11.300781 34.5 L 8.898438 45.398438 Z M 18.699219 45.398438 "/>
<path style=" stroke:none;fill-rule:nonzero;fill:rgb(99.215686%,27.843137%,33.333333%);fill-opacity:1;" d="M 13.898438 45.398438 L 16.300781 34.5 C 16.5 33.601562 17.300781 33 18.101562 33 L 13.101562 33 C 12.199219 33 11.398438 33.601562 11.300781 34.5 L 8.898438 45.398438 Z M 13.898438 45.398438 "/>
<path style=" stroke:none;fill-rule:nonzero;fill:rgb(99.215686%,27.843137%,33.333333%);fill-opacity:1;" d="M 51.699219 52 L 51.699219 47.101562 C 51.699219 46.101562 50.898438 45.199219 49.800781 45.199219 L 38.300781 45.199219 C 37 45.199219 35.699219 45.800781 34.898438 46.800781 C 33.398438 48.699219 31.101562 49.800781 28.5 49.800781 C 25.898438 49.800781 23.601562 48.601562 22.101562 46.800781 C 21.300781 45.800781 20 45.199219 18.699219 45.199219 L 7.199219 45.199219 C 6.199219 45.199219 5.300781 46 5.300781 47.101562 L 5.300781 52 Z M 51.699219 52 "/>
<path style=" stroke:none;fill-rule:nonzero;fill:rgb(98.431373%,16.862745%,22.745098%);fill-opacity:1;" d="M 11.601562 52 L 11.601562 47.101562 C 11.601562 46.101562 12.398438 45.199219 13.5 45.199219 L 7.199219 45.199219 C 6.199219 45.199219 5.300781 46 5.300781 47.101562 L 5.300781 52 Z M 11.601562 52 "/>
<path style=" stroke:none;fill-rule:nonzero;fill:rgb(100%,100%,100%);fill-opacity:1;" d="M 31.5 41.800781 C 31.199219 41.601562 31 41.300781 30.898438 41 C 30.601562 39.898438 29.601562 39.199219 28.5 39.199219 C 27.398438 39.199219 26.398438 40 26.101562 41 C 26 41.300781 25.800781 41.601562 25.5 41.800781 C 24.699219 42.300781 24.199219 43.101562 24.300781 44.101562 C 24.398438 45.300781 25.398438 46.300781 26.699219 46.398438 C 27.101562 46.398438 27.601562 46.300781 27.898438 46.101562 C 28.300781 45.898438 28.800781 45.898438 29.199219 46.101562 C 29.601562 46.300781 30 46.398438 30.398438 46.398438 C 31.601562 46.300781 32.699219 45.300781 32.800781 44.101562 C 32.800781 43.101562 32.300781 42.199219 31.5 41.800781 Z M 31.5 41.800781 "/>
<path style=" stroke:none;fill-rule:nonzero;fill:rgb(100%,100%,100%);fill-opacity:1;" d="M 28 37 C 28 36.0625 27.375 35.300781 26.601562 35.300781 C 25.828125 35.300781 25.199219 36.0625 25.199219 37 C 25.199219 37.9375 25.828125 38.699219 26.601562 38.699219 C 27.375 38.699219 28 37.9375 28 37 Z M 28 37 "/>
<path style=" stroke:none;fill-rule:nonzero;fill:rgb(100%,100%,100%);fill-opacity:1;" d="M 31.800781 37 C 31.800781 36.0625 31.171875 35.300781 30.398438 35.300781 C 29.625 35.300781 29 36.0625 29 37 C 29 37.9375 29.625 38.699219 30.398438 38.699219 C 31.171875 38.699219 31.800781 37.9375 31.800781 37 Z M 31.800781 37 "/>
<path style=" stroke:none;fill-rule:nonzero;fill:rgb(100%,100%,100%);fill-opacity:1;" d="M 25.300781 40.101562 C 25.300781 40.875 24.671875 41.5 23.898438 41.5 C 23.125 41.5 22.5 40.875 22.5 40.101562 C 22.5 39.328125 23.125 38.699219 23.898438 38.699219 C 24.671875 38.699219 25.300781 39.328125 25.300781 40.101562 Z M 25.300781 40.101562 "/>
<path style=" stroke:none;fill-rule:nonzero;fill:rgb(100%,100%,100%);fill-opacity:1;" d="M 34.5 40.101562 C 34.5 40.875 33.875 41.5 33.101562 41.5 C 32.328125 41.5 31.699219 40.875 31.699219 40.101562 C 31.699219 39.328125 32.328125 38.699219 33.101562 38.699219 C 33.875 38.699219 34.5 39.328125 34.5 40.101562 Z M 34.5 40.101562 "/>
<path style=" stroke:none;fill-rule:nonzero;fill:rgb(83.921569%,41.176471%,29.411765%);fill-opacity:1;" d="M 24.300781 16.5 C 24.300781 17.992188 23.089844 19.199219 21.601562 19.199219 C 20.109375 19.199219 18.898438 17.992188 18.898438 16.5 C 18.898438 15.007812 20.109375 13.800781 21.601562 13.800781 C 23.089844 13.800781 24.300781 15.007812 24.300781 16.5 Z M 24.300781 16.5 "/>
<path style=" stroke:none;fill-rule:nonzero;fill:rgb(76.862745%,34.117647%,22.745098%);fill-opacity:1;" d="M 20.601562 16.5 C 20.601562 15.300781 21.398438 14.300781 22.5 13.898438 C 22.199219 13.800781 22 13.800781 21.699219 13.800781 C 20.199219 13.800781 19 15 19 16.5 C 19 18 20.199219 19.199219 21.699219 19.199219 C 22 19.199219 22.300781 19.199219 22.5 19.101562 C 21.398438 18.699219 20.601562 17.699219 20.601562 16.5 Z M 20.601562 16.5 "/>
<path style=" stroke:none;fill-rule:nonzero;fill:rgb(76.862745%,34.117647%,22.745098%);fill-opacity:1;" d="M 37.601562 20.601562 C 37.601562 22.089844 36.390625 23.300781 34.898438 23.300781 C 33.410156 23.300781 32.199219 22.089844 32.199219 20.601562 C 32.199219 19.109375 33.410156 17.898438 34.898438 17.898438 C 36.390625 17.898438 37.601562 19.109375 37.601562 20.601562 Z M 37.601562 20.601562 "/>
<path style=" stroke:none;fill-rule:nonzero;fill:rgb(76.862745%,34.117647%,22.745098%);fill-opacity:1;" d="M 32.800781 10.300781 C 32.800781 11.792969 31.589844 13 30.101562 13 C 28.609375 13 27.398438 11.792969 27.398438 10.300781 C 27.398438 8.808594 28.609375 7.601562 30.101562 7.601562 C 31.589844 7.601562 32.800781 8.808594 32.800781 10.300781 Z M 32.800781 10.300781 "/>
<path style=" stroke:none;fill-rule:nonzero;fill:rgb(65.490196%,29.411765%,18.823529%);fill-opacity:1;" d="M 33.898438 20.601562 C 33.898438 19.398438 34.699219 18.398438 35.800781 18 C 35.5 17.898438 35.300781 17.898438 35 17.898438 C 33.5 17.898438 32.300781 19.101562 32.300781 20.601562 C 32.300781 22.101562 33.5 23.300781 35 23.300781 C 35.300781 23.300781 35.601562 23.300781 35.800781 23.199219 C 34.699219 22.800781 33.898438 21.800781 33.898438 20.601562 Z M 33.898438 20.601562 "/>
<path style=" stroke:none;fill-rule:nonzero;fill:rgb(65.490196%,29.411765%,18.823529%);fill-opacity:1;" d="M 29.101562 10.300781 C 29.101562 9.101562 29.898438 8.101562 31 7.699219 C 30.699219 7.601562 30.5 7.601562 30.199219 7.601562 C 28.699219 7.601562 27.5 8.800781 27.5 10.300781 C 27.5 11.800781 28.699219 13 30.199219 13 C 30.5 13 30.800781 13 31 12.898438 C 29.898438 12.5 29.101562 11.5 29.101562 10.300781 Z M 29.101562 10.300781 "/>
<path style=" stroke:none;fill-rule:nonzero;fill:rgb(83.921569%,41.176471%,29.411765%);fill-opacity:1;" d="M 40.601562 6.601562 C 40.601562 8.089844 39.390625 9.300781 37.898438 9.300781 C 36.410156 9.300781 35.199219 8.089844 35.199219 6.601562 C 35.199219 5.109375 36.410156 3.898438 37.898438 3.898438 C 39.390625 3.898438 40.601562 5.109375 40.601562 6.601562 Z M 40.601562 6.601562 "/>
<path style=" stroke:none;fill-rule:nonzero;fill:rgb(76.862745%,34.117647%,22.745098%);fill-opacity:1;" d="M 36.898438 6.601562 C 36.898438 5.398438 37.699219 4.398438 38.800781 4 C 38.5 4 38.199219 4 37.898438 4 C 36.398438 4 35.199219 5.199219 35.199219 6.699219 C 35.199219 8.199219 36.398438 9.398438 37.898438 9.398438 C 38.199219 9.398438 38.5 9.398438 38.699219 9.300781 C 37.699219 8.800781 36.898438 7.800781 36.898438 6.601562 Z M 36.898438 6.601562 "/>
</g>
</svg>
