<?xml version="1.0" encoding="UTF-8"?>
<svg xmlns="http://www.w3.org/2000/svg" xmlns:xlink="http://www.w3.org/1999/xlink" width="57pt" height="68pt" viewBox="0 0 57 68" version="1.1">
<g id="surface1">
<path style=" stroke:none;fill-rule:nonzero;fill:rgb(67.058824%,14.509804%,21.960784%);fill-opacity:1;" d="M 51 52.5 L 33.300781 62.699219 C 30.300781 64.398438 26.601562 64.398438 23.699219 62.699219 L 6 52.5 C 3 50.800781 1.199219 47.601562 1.199219 44.101562 L 1.199219 23.699219 C 1.199219 20.300781 3 17.101562 6 15.300781 L 23.699219 5.300781 C 26.699219 3.601562 30.398438 3.601562 33.300781 5.300781 L 51 15.300781 C 54 17 55.800781 20.199219 55.800781 23.699219 L 55.800781 44.101562 C 55.800781 47.601562 54 50.800781 51 52.5 Z M 51 52.5 "/>
<path style=" stroke:none;fill-rule:nonzero;fill:rgb(95.686275%,66.666667%,22.352941%);fill-opacity:1;" d="M 33.300781 5.101562 C 30.300781 3.398438 26.601562 3.398438 23.699219 5.101562 L 9.601562 13.300781 C 9.398438 14.398438 9.300781 15.398438 9.300781 16.5 L 9.300781 20.398438 C 9.300781 20.699219 9.300781 21 9.300781 21.398438 L 9.300781 25.300781 L 16.800781 19.699219 C 19.199219 17.898438 22.101562 16.699219 25.101562 16.199219 L 29.699219 15.5 C 34.101562 14.898438 38 12.601562 40.800781 9.5 Z M 33.300781 5.101562 "/>
<path style=" stroke:none;fill-rule:nonzero;fill:rgb(94.509804%,60.784314%,4.313725%);fill-opacity:1;" d="M 37.699219 30 C 42.398438 33.601562 45.601562 42.101562 45.601562 48 L 41.699219 55.300781 C 41.898438 51 39.199219 47.101562 35.101562 45.800781 C 25.5 42.699219 9.199219 36.398438 9.199219 30 L 9.199219 19.601562 L 28.800781 20.398438 C 21.101562 21.601562 30.300781 24.601562 37.699219 30 Z M 37.699219 30 "/>
<path style=" stroke:none;fill-rule:nonzero;fill:rgb(99.215686%,79.607843%,41.960784%);fill-opacity:1;" d="M 34.300781 5.699219 C 32.898438 6.300781 31.300781 6.800781 29.699219 7 L 25.101562 7.699219 C 22.101562 8.101562 19.199219 9.300781 16.800781 11.199219 C 12.398438 14.5 9.699219 19.5 9.300781 25 L 9.300781 30.101562 C 10.5 28.898438 11.800781 27.898438 13.101562 27.101562 C 12.898438 27.800781 12.699219 28.5 12.601562 29.300781 C 12.5 29.800781 13.101562 30.101562 13.398438 29.699219 C 16.300781 26.601562 19.699219 24.5 23.199219 22.800781 C 32.800781 20.101562 42.199219 19.601562 43.699219 11.300781 Z M 34.300781 5.699219 "/>
<path style=" stroke:none;fill-rule:nonzero;fill:rgb(95.686275%,66.666667%,22.352941%);fill-opacity:1;" d="M 41.699219 55.300781 C 41.699219 50.898438 38.898438 47.101562 34.800781 45.699219 C 32.601562 45 30.101562 44.101562 27.601562 43.101562 C 26 42.5 24.800781 41.5 23.898438 40.300781 C 23.199219 39.398438 24.300781 38.300781 25.199219 38.898438 C 25.601562 39.101562 26 39.398438 26.398438 39.601562 C 29 40.898438 32.101562 42 34.398438 42.800781 C 34.898438 43 36 43.601562 36.101562 43.601562 C 37.5 44.101562 38.5 45.300781 38.898438 46.699219 C 39.601562 44.398438 38.398438 41.898438 36.101562 41 C 36 41 36 41 35.898438 40.898438 C 31.699219 39.5 25.199219 37.101562 22.699219 34.398438 C 22.5 34.199219 22.398438 33.800781 22.398438 33.5 C 22.601562 32.800781 23.398438 32.5 24 32.898438 C 24.800781 33.5 25.699219 34.101562 26.800781 34.699219 C 29.398438 36 32.5 37.101562 34.800781 37.898438 C 35.300781 38.101562 36.398438 38.699219 36.5 38.699219 C 37.898438 39.199219 38.898438 40.398438 39.300781 41.800781 C 40 39.5 38.800781 37 36.5 36.101562 C 36.398438 36.101562 36.398438 36.101562 36.300781 36 C 32.898438 34.898438 27.898438 33 24.800781 30.898438 C 24.300781 30.5 24.199219 29.800781 24.699219 29.398438 C 24.699219 29.398438 24.800781 29.300781 24.800781 29.300781 C 25.101562 29 25.5 29 25.898438 29.101562 C 27.5 29.800781 32.101562 31.800781 34.101562 32.398438 C 34.601562 32.601562 35.699219 33.199219 35.800781 33.199219 C 37.199219 33.699219 38.199219 34.898438 38.601562 36.300781 C 39.800781 31.101562 32.101562 29.398438 30.199219 28.601562 C 29.199219 28.199219 29.5 26.699219 30.601562 26.699219 C 31.800781 26.699219 33.398438 27 35.398438 28.300781 C 36.199219 28.800781 37 29.398438 37.800781 30 C 42.5 33.601562 45.699219 42.101562 45.699219 48 Z M 41.699219 55.300781 "/>
<path style=" stroke:none;fill-rule:nonzero;fill:rgb(99.215686%,79.607843%,41.960784%);fill-opacity:1;" d="M 45.601562 48.898438 C 45.601562 57.398438 38.699219 64.199219 30.199219 64.199219 C 23.199219 64.199219 18.898438 62.898438 16.398438 60.601562 C 14 59.300781 12.300781 56.898438 10.898438 53.699219 C 9.398438 50.199219 10.5 44.601562 14.199219 43.699219 C 14.300781 44.5 14.699219 45.199219 15.101562 45.800781 C 16.398438 44.101562 18.199219 42.898438 20.199219 43.300781 C 19 48.300781 26 53.101562 32.699219 51.898438 C 38.601562 50.800781 44.300781 44.398438 39.5 31.699219 C 47.300781 38.699219 45.601562 47.300781 45.601562 48.898438 Z M 45.601562 48.898438 "/>
<path style=" stroke:none;fill-rule:nonzero;fill:rgb(95.686275%,66.666667%,22.352941%);fill-opacity:1;" d="M 14.300781 23.898438 C 23.199219 17.5 34.898438 17.800781 41.398438 13.898438 C 42.5 13.199219 42.398438 11.601562 41.199219 11.101562 C 35.898438 14.101562 27.398438 14.5 19.699219 17.898438 C 17.101562 19 15 20.898438 13.601562 23.300781 C 13.300781 23.699219 13.800781 24.199219 14.300781 23.898438 Z M 14.300781 23.898438 "/>
<path style=" stroke:none;fill-rule:nonzero;fill:rgb(95.686275%,66.666667%,22.352941%);fill-opacity:1;" d="M 21.601562 11.398438 C 19 12.5 16.898438 14.398438 15.5 16.800781 C 15.199219 17.300781 15.800781 17.699219 16.199219 17.398438 C 23.699219 12 33.199219 11.398438 40 9 L 36.601562 7 C 32 8.300781 26.601562 9.199219 21.601562 11.398438 Z M 21.601562 11.398438 "/>
<path style=" stroke:none;fill-rule:nonzero;fill:rgb(95.686275%,66.666667%,22.352941%);fill-opacity:1;" d="M 43.5 39.800781 C 43.398438 39.5 43 39.601562 43 39.898438 C 44.601562 48.800781 39 53.398438 33.199219 54.300781 C 28.199219 55.101562 23 53.398438 20.300781 50.800781 C 20 50.5 19.601562 50.800781 19.699219 51.199219 C 20.699219 55.101562 27 58.300781 33.300781 57.800781 C 30.398438 59 27.300781 59.101562 25 58.398438 C 24.699219 58.300781 24.398438 58.699219 24.601562 59 C 26.898438 61.5 33 61.601562 37.5 58.601562 C 39.101562 57.5 41.101562 56.398438 41.898438 54.601562 C 42 54.5 46.699219 48.199219 43.5 39.800781 Z M 43.5 39.800781 "/>
<path style=" stroke:none;fill-rule:nonzero;fill:rgb(95.686275%,66.666667%,22.352941%);fill-opacity:1;" d="M 17.300781 54.300781 C 15.898438 51 16.800781 45.699219 20.101562 44.5 C 20.101562 44.101562 20.101562 43.699219 20.199219 43.300781 C 18.199219 43 16.398438 44.101562 15.101562 45.800781 C 14.601562 45.199219 14.300781 44.5 14.199219 43.699219 C 10.601562 44.601562 9.199219 49.800781 10.601562 53.699219 C 12.800781 59.601562 18.398438 62.199219 19.898438 62.699219 C 22.199219 63.601562 25.300781 64.101562 29.300781 64.199219 C 26.398438 63.601562 24.300781 62.601562 22.800781 61.199219 C 20.398438 59.898438 18.699219 57.5 17.300781 54.300781 Z M 17.300781 54.300781 "/>
<path style=" stroke:none;fill-rule:nonzero;fill:rgb(100%,96.078431%,96.078431%);fill-opacity:1;" d="M 14.398438 38.601562 L 13.800781 36.800781 C 13.800781 36.699219 13.699219 36.601562 13.601562 36.601562 L 11.800781 36 C 11.5 35.898438 11.5 35.398438 11.800781 35.300781 L 13.601562 34.699219 C 13.699219 34.699219 13.800781 34.601562 13.800781 34.5 L 14.398438 32.699219 C 14.5 32.398438 15 32.398438 15.101562 32.699219 L 15.699219 34.5 C 15.699219 34.601562 15.800781 34.699219 15.898438 34.699219 L 17.699219 35.300781 C 18 35.398438 18 35.898438 17.699219 36 L 16 36.5 C 15.898438 36.5 15.800781 36.601562 15.800781 36.699219 L 15.199219 38.5 C 15 38.898438 14.5 38.898438 14.398438 38.601562 Z M 41.898438 19.601562 L 42.699219 17.101562 C 42.699219 17 42.898438 16.800781 43 16.800781 L 45.5 16 C 45.898438 15.898438 45.898438 15.199219 45.5 15.101562 L 43 14.199219 C 42.898438 14.199219 42.699219 14 42.699219 13.898438 L 41.898438 11.398438 C 41.800781 11 41.101562 11 41 11.398438 L 40.199219 13.898438 C 40.199219 14 40 14.199219 39.898438 14.199219 L 37.398438 15 C 37 15.101562 37 15.800781 37.398438 15.898438 L 39.898438 16.699219 C 40 16.699219 40.199219 16.898438 40.199219 17 L 41 19.5 C 41.101562 20.101562 41.699219 20.101562 41.898438 19.601562 Z M 44.800781 54.300781 L 45.398438 52.5 C 45.398438 52.398438 45.5 52.300781 45.601562 52.300781 L 47.398438 51.699219 C 47.699219 51.601562 47.699219 51.101562 47.398438 51 L 45.601562 50.398438 C 45.5 50.398438 45.398438 50.300781 45.398438 50.199219 L 44.800781 48.398438 C 44.699219 48.101562 44.199219 48.101562 44.101562 48.398438 L 43.5 50.199219 C 43.5 50.300781 43.398438 50.398438 43.300781 50.398438 L 41.5 51 C 41.199219 51.101562 41.199219 51.601562 41.5 51.699219 L 43.300781 52.300781 C 43.398438 52.300781 43.5 52.398438 43.5 52.5 L 44.101562 54.300781 C 44.300781 54.601562 44.699219 54.601562 44.800781 54.300781 Z M 44.800781 54.300781 "/>
</g>
</svg>
