<?xml version="1.0" encoding="UTF-8"?>
<svg xmlns="http://www.w3.org/2000/svg" xmlns:xlink="http://www.w3.org/1999/xlink" width="57pt" height="68pt" viewBox="0 0 57 68" version="1.1">
<g id="surface1">
<path style=" stroke:none;fill-rule:nonzero;fill:rgb(28.235294%,29.411765%,49.803922%);fill-opacity:1;" d="M 51 52.601562 L 33.300781 62.800781 C 30.300781 64.5 26.601562 64.5 23.699219 62.800781 L 6 52.601562 C 3 50.898438 1.199219 47.699219 1.199219 44.199219 L 1.199219 23.800781 C 1.199219 20.398438 3 17.199219 6 15.398438 L 23.699219 5.199219 C 26.699219 3.5 30.398438 3.5 33.300781 5.199219 L 51 15.398438 C 54 17.101562 55.800781 20.300781 55.800781 23.800781 L 55.800781 44.199219 C 55.800781 47.699219 54 50.800781 51 52.601562 Z M 51 52.601562 "/>
<path style=" stroke:none;fill-rule:nonzero;fill:rgb(26.27451%,59.607843%,81.960784%);fill-opacity:1;" d="M 6 52.601562 L 23.699219 62.800781 C 26.699219 64.5 30.398438 64.5 33.300781 62.800781 L 51 52.601562 C 51.5 52.300781 52 51.898438 52.5 51.5 L 52.5 17.101562 C 52.5 14.398438 50.300781 12.101562 47.5 12.101562 L 9.5 12.101562 C 6.800781 12.101562 4.5 14.300781 4.5 17.101562 L 4.5 51.5 C 5 51.898438 5.398438 52.300781 6 52.601562 Z M 6 52.601562 "/>
<path style=" stroke:none;fill-rule:nonzero;fill:rgb(24.313725%,54.901961%,78.039216%);fill-opacity:1;" d="M 23.699219 62.800781 C 26.699219 64.5 30.398438 64.5 33.300781 62.800781 L 51 52.601562 C 51.5 52.300781 52 51.898438 52.5 51.5 L 52.5 17.101562 C 52.5 14.398438 50.300781 12.101562 47.5 12.101562 L 45.601562 12.101562 C 41.300781 24 33.398438 47.199219 19.601562 60.398438 Z M 23.699219 62.800781 "/>
<path style=" stroke:none;fill-rule:nonzero;fill:rgb(99.215686%,71.372549%,18.431373%);fill-opacity:1;" d="M 38.398438 12.101562 C 32.898438 6.601562 24 6.601562 18.5 12.101562 C 13 17.601562 13 26.5 18.5 32 C 24 37.5 32.898438 37.5 38.398438 32 C 41 29.398438 42.5 25.800781 42.5 22 C 42.601562 18.300781 41.101562 14.800781 38.398438 12.101562 Z M 38.398438 12.101562 "/>
<path style=" stroke:none;fill-rule:nonzero;fill:rgb(89.803922%,89.803922%,89.803922%);fill-opacity:1;" d="M 39.300781 22.101562 C 39.300781 28.066406 34.464844 32.898438 28.5 32.898438 C 22.535156 32.898438 17.699219 28.066406 17.699219 22.101562 C 17.699219 16.136719 22.535156 11.300781 28.5 11.300781 C 34.464844 11.300781 39.300781 16.136719 39.300781 22.101562 Z M 39.300781 22.101562 "/>
<path style=" stroke:none;fill-rule:nonzero;fill:rgb(87.058824%,29.803922%,23.529412%);fill-opacity:1;" d="M 29.300781 19.699219 L 29.300781 16.199219 L 27.601562 16.199219 L 27.601562 19.699219 C 26.300781 20.199219 25.601562 21.601562 26.101562 22.898438 C 26.601562 24.199219 28 24.898438 29.300781 24.398438 C 30.601562 23.898438 31.300781 22.5 30.800781 21.199219 C 30.601562 20.5 30 20 29.300781 19.699219 Z M 29.300781 19.699219 "/>
<path style=" stroke:none;fill-rule:nonzero;fill:rgb(81.176471%,81.176471%,81.176471%);fill-opacity:1;" d="M 27.699219 29.5 L 29.398438 29.5 L 29.398438 32.800781 L 27.699219 32.800781 Z M 27.699219 29.5 "/>
<path style=" stroke:none;fill-rule:nonzero;fill:rgb(81.176471%,81.176471%,81.176471%);fill-opacity:1;" d="M 27.699219 11.300781 L 29.398438 11.300781 L 29.398438 14.601562 L 27.699219 14.601562 Z M 27.699219 11.300781 "/>
<path style=" stroke:none;fill-rule:nonzero;fill:rgb(81.176471%,81.176471%,81.176471%);fill-opacity:1;" d="M 35.898438 21.199219 L 39.199219 21.199219 L 39.199219 22.898438 L 35.898438 22.898438 Z M 35.898438 21.199219 "/>
<path style=" stroke:none;fill-rule:nonzero;fill:rgb(81.176471%,81.176471%,81.176471%);fill-opacity:1;" d="M 17.699219 21.199219 L 21 21.199219 L 21 22.898438 L 17.699219 22.898438 Z M 17.699219 21.199219 "/>
<path style=" stroke:none;fill-rule:nonzero;fill:rgb(81.176471%,81.176471%,81.176471%);fill-opacity:1;" d="M 33.148438 27.886719 L 34.351562 26.683594 L 36.6875 29.019531 L 35.484375 30.21875 Z M 33.148438 27.886719 "/>
<path style=" stroke:none;fill-rule:nonzero;fill:rgb(81.176471%,81.176471%,81.176471%);fill-opacity:1;" d="M 20.304688 15.085938 L 21.507812 13.886719 L 23.839844 16.21875 L 22.636719 17.421875 Z M 20.304688 15.085938 "/>
<path style=" stroke:none;fill-rule:nonzero;fill:rgb(81.176471%,81.176471%,81.176471%);fill-opacity:1;" d="M 33.195312 16.195312 L 35.527344 13.863281 L 36.730469 15.066406 L 34.398438 17.398438 Z M 33.195312 16.195312 "/>
<path style=" stroke:none;fill-rule:nonzero;fill:rgb(81.176471%,81.176471%,81.176471%);fill-opacity:1;" d="M 20.328125 29.109375 L 22.660156 26.777344 L 23.863281 27.976562 L 21.53125 30.3125 Z M 20.328125 29.109375 "/>
<path style=" stroke:none;fill-rule:nonzero;fill:rgb(24.705882%,49.019608%,72.156863%);fill-opacity:1;" d="M 22.300781 41.101562 C 21.601562 41.101562 21.101562 40.5 21.101562 39.898438 C 21.101562 39.199219 21.699219 38.699219 22.300781 38.699219 C 22.898438 38.699219 23.5 39.300781 23.5 39.898438 C 23.5 40.5 23 41.101562 22.300781 41.101562 Z M 22.300781 41.101562 "/>
<path style=" stroke:none;fill-rule:nonzero;fill:rgb(24.705882%,49.019608%,72.156863%);fill-opacity:1;" d="M 22.300781 46.898438 C 21.601562 46.898438 21.101562 46.300781 21.101562 45.699219 C 21.101562 45.101562 21.699219 44.5 22.300781 44.5 C 22.898438 44.5 23.5 45.101562 23.5 45.699219 C 23.5 46.300781 23 46.898438 22.300781 46.898438 Z M 22.300781 46.898438 "/>
<path style=" stroke:none;fill-rule:nonzero;fill:rgb(24.705882%,49.019608%,72.156863%);fill-opacity:1;" d="M 22.300781 52.699219 C 21.601562 52.699219 21.101562 52.101562 21.101562 51.5 C 21.101562 50.898438 21.699219 50.300781 22.300781 50.300781 C 22.898438 50.300781 23.5 50.898438 23.5 51.5 C 23.5 52.101562 23 52.699219 22.300781 52.699219 Z M 22.300781 52.699219 "/>
<path style=" stroke:none;fill-rule:nonzero;fill:rgb(24.705882%,49.019608%,72.156863%);fill-opacity:1;" d="M 18.199219 37.800781 C 17.5 37.800781 17 37.199219 17 36.601562 C 17 36 17.601562 35.398438 18.199219 35.398438 C 18.800781 35.398438 19.398438 36 19.398438 36.601562 C 19.398438 37.199219 18.800781 37.800781 18.199219 37.800781 Z M 18.199219 37.800781 "/>
<path style=" stroke:none;fill-rule:nonzero;fill:rgb(24.705882%,49.019608%,72.156863%);fill-opacity:1;" d="M 18.199219 43.601562 C 17.5 43.601562 17 43 17 42.398438 C 17 41.699219 17.601562 41.199219 18.199219 41.199219 C 18.800781 41.199219 19.398438 41.800781 19.398438 42.398438 C 19.398438 43 18.800781 43.601562 18.199219 43.601562 Z M 18.199219 43.601562 "/>
<path style=" stroke:none;fill-rule:nonzero;fill:rgb(24.705882%,49.019608%,72.156863%);fill-opacity:1;" d="M 18.199219 49.398438 C 17.5 49.398438 17 48.800781 17 48.199219 C 17 47.5 17.601562 47 18.199219 47 C 18.800781 47 19.398438 47.601562 19.398438 48.199219 C 19.398438 48.800781 18.800781 49.398438 18.199219 49.398438 Z M 18.199219 49.398438 "/>
<path style=" stroke:none;fill-rule:nonzero;fill:rgb(24.705882%,49.019608%,72.156863%);fill-opacity:1;" d="M 14 41.101562 C 13.300781 41.101562 12.800781 40.5 12.800781 39.898438 C 12.800781 39.199219 13.398438 38.699219 14 38.699219 C 14.699219 38.699219 15.199219 39.300781 15.199219 39.898438 C 15.300781 40.5 14.699219 41.101562 14 41.101562 Z M 14 41.101562 "/>
<path style=" stroke:none;fill-rule:nonzero;fill:rgb(24.705882%,49.019608%,72.156863%);fill-opacity:1;" d="M 14 46.898438 C 13.300781 46.898438 12.800781 46.300781 12.800781 45.699219 C 12.800781 45.101562 13.398438 44.5 14 44.5 C 14.699219 44.5 15.199219 45.101562 15.199219 45.699219 C 15.199219 46.300781 14.699219 46.898438 14 46.898438 Z M 14 46.898438 "/>
<path style=" stroke:none;fill-rule:nonzero;fill:rgb(24.705882%,49.019608%,72.156863%);fill-opacity:1;" d="M 14 52.699219 C 13.300781 52.699219 12.800781 52.101562 12.800781 51.5 C 12.800781 50.898438 13.398438 50.300781 14 50.300781 C 14.699219 50.300781 15.199219 50.898438 15.199219 51.5 C 15.300781 52.101562 14.699219 52.699219 14 52.699219 Z M 14 52.699219 "/>
<path style=" stroke:none;fill-rule:nonzero;fill:rgb(24.705882%,49.019608%,72.156863%);fill-opacity:1;" d="M 9.898438 37.800781 C 9.199219 37.800781 8.699219 37.199219 8.699219 36.601562 C 8.699219 36 9.300781 35.398438 9.898438 35.398438 C 10.601562 35.398438 11.101562 36 11.101562 36.601562 C 11.101562 37.199219 10.601562 37.800781 9.898438 37.800781 Z M 9.898438 37.800781 "/>
<path style=" stroke:none;fill-rule:nonzero;fill:rgb(24.705882%,49.019608%,72.156863%);fill-opacity:1;" d="M 9.898438 32 C 9.199219 32 8.699219 31.398438 8.699219 30.800781 C 8.699219 30.101562 9.300781 29.601562 9.898438 29.601562 C 10.601562 29.601562 11.101562 30.199219 11.101562 30.800781 C 11.101562 31.398438 10.601562 32 9.898438 32 Z M 9.898438 32 "/>
<path style=" stroke:none;fill-rule:nonzero;fill:rgb(24.705882%,49.019608%,72.156863%);fill-opacity:1;" d="M 9.898438 43.601562 C 9.199219 43.601562 8.699219 43 8.699219 42.398438 C 8.699219 41.699219 9.300781 41.199219 9.898438 41.199219 C 10.601562 41.199219 11.101562 41.800781 11.101562 42.398438 C 11.101562 43 10.601562 43.601562 9.898438 43.601562 Z M 9.898438 43.601562 "/>
<path style=" stroke:none;fill-rule:nonzero;fill:rgb(24.705882%,49.019608%,72.156863%);fill-opacity:1;" d="M 9.898438 49.398438 C 9.199219 49.398438 8.699219 48.800781 8.699219 48.199219 C 8.699219 47.5 9.300781 47 9.898438 47 C 10.601562 47 11.101562 47.601562 11.101562 48.199219 C 11.101562 48.800781 10.601562 49.398438 9.898438 49.398438 Z M 9.898438 49.398438 "/>
<path style=" stroke:none;fill-rule:nonzero;fill:rgb(24.705882%,49.019608%,72.156863%);fill-opacity:1;" d="M 14 35.300781 C 13.300781 35.300781 12.800781 34.699219 12.800781 34.101562 C 12.800781 33.398438 13.398438 32.898438 14 32.898438 C 14.699219 32.898438 15.199219 33.5 15.199219 34.101562 C 15.300781 34.699219 14.699219 35.300781 14 35.300781 Z M 14 35.300781 "/>
<path style=" stroke:none;fill-rule:nonzero;fill:rgb(24.705882%,49.019608%,72.156863%);fill-opacity:1;" d="M 33.5 39.800781 C 33.5 39.101562 34.101562 38.601562 34.699219 38.601562 C 35.398438 38.601562 35.898438 39.199219 35.898438 39.800781 C 35.898438 40.5 35.300781 41 34.699219 41 C 34 41.101562 33.5 40.5 33.5 39.800781 Z M 33.5 39.800781 "/>
<path style=" stroke:none;fill-rule:nonzero;fill:rgb(24.705882%,49.019608%,72.156863%);fill-opacity:1;" d="M 33.5 45.601562 C 33.5 44.898438 34.101562 44.398438 34.699219 44.398438 C 35.398438 44.398438 35.898438 45 35.898438 45.601562 C 35.898438 46.199219 35.300781 46.800781 34.699219 46.800781 C 34 46.898438 33.5 46.300781 33.5 45.601562 Z M 33.5 45.601562 "/>
<path style=" stroke:none;fill-rule:nonzero;fill:rgb(24.705882%,49.019608%,72.156863%);fill-opacity:1;" d="M 33.5 51.398438 C 33.5 50.699219 34.101562 50.199219 34.699219 50.199219 C 35.398438 50.199219 35.898438 50.800781 35.898438 51.398438 C 35.898438 52 35.300781 52.601562 34.699219 52.601562 C 34 52.699219 33.5 52.101562 33.5 51.398438 Z M 33.5 51.398438 "/>
<path style=" stroke:none;fill-rule:nonzero;fill:rgb(24.705882%,49.019608%,72.156863%);fill-opacity:1;" d="M 37.601562 36.5 C 37.601562 35.800781 38.199219 35.300781 38.800781 35.300781 C 39.5 35.300781 40 35.898438 40 36.5 C 40 37.101562 39.398438 37.699219 38.800781 37.699219 C 38.199219 37.800781 37.601562 37.199219 37.601562 36.5 Z M 37.601562 36.5 "/>
<path style=" stroke:none;fill-rule:nonzero;fill:rgb(24.705882%,49.019608%,72.156863%);fill-opacity:1;" d="M 37.601562 42.300781 C 37.601562 41.601562 38.199219 41.101562 38.800781 41.101562 C 39.5 41.101562 40 41.699219 40 42.300781 C 40 43 39.398438 43.5 38.800781 43.5 C 38.199219 43.601562 37.601562 43 37.601562 42.300781 Z M 37.601562 42.300781 "/>
<path style=" stroke:none;fill-rule:nonzero;fill:rgb(24.705882%,49.019608%,72.156863%);fill-opacity:1;" d="M 37.601562 48.101562 C 37.601562 47.398438 38.199219 46.898438 38.800781 46.898438 C 39.5 46.898438 40 47.5 40 48.101562 C 40 48.800781 39.398438 49.300781 38.800781 49.300781 C 38.199219 49.398438 37.601562 48.800781 37.601562 48.101562 Z M 37.601562 48.101562 "/>
<path style=" stroke:none;fill-rule:nonzero;fill:rgb(24.705882%,49.019608%,72.156863%);fill-opacity:1;" d="M 41.699219 39.800781 C 41.699219 39.101562 42.300781 38.601562 42.898438 38.601562 C 43.601562 38.601562 44.101562 39.199219 44.101562 39.800781 C 44.101562 40.5 43.5 41 42.898438 41 C 42.300781 41.101562 41.699219 40.5 41.699219 39.800781 Z M 41.699219 39.800781 "/>
<path style=" stroke:none;fill-rule:nonzero;fill:rgb(24.705882%,49.019608%,72.156863%);fill-opacity:1;" d="M 41.699219 45.601562 C 41.699219 44.898438 42.300781 44.398438 42.898438 44.398438 C 43.601562 44.398438 44.101562 45 44.101562 45.601562 C 44.101562 46.199219 43.5 46.800781 42.898438 46.800781 C 42.300781 46.898438 41.699219 46.300781 41.699219 45.601562 Z M 41.699219 45.601562 "/>
<path style=" stroke:none;fill-rule:nonzero;fill:rgb(24.705882%,49.019608%,72.156863%);fill-opacity:1;" d="M 41.699219 51.398438 C 41.699219 50.699219 42.300781 50.199219 42.898438 50.199219 C 43.601562 50.199219 44.101562 50.800781 44.101562 51.398438 C 44.101562 52 43.5 52.601562 42.898438 52.601562 C 42.300781 52.699219 41.699219 52.101562 41.699219 51.398438 Z M 41.699219 51.398438 "/>
<path style=" stroke:none;fill-rule:nonzero;fill:rgb(24.705882%,49.019608%,72.156863%);fill-opacity:1;" d="M 45.898438 36.5 C 45.898438 35.800781 46.5 35.300781 47.101562 35.300781 C 47.800781 35.300781 48.300781 35.898438 48.300781 36.5 C 48.300781 37.101562 47.699219 37.699219 47.101562 37.699219 C 46.398438 37.800781 45.898438 37.199219 45.898438 36.5 Z M 45.898438 36.5 "/>
<path style=" stroke:none;fill-rule:nonzero;fill:rgb(24.705882%,49.019608%,72.156863%);fill-opacity:1;" d="M 45.898438 30.699219 C 45.898438 30 46.5 29.5 47.101562 29.5 C 47.800781 29.5 48.300781 30.101562 48.300781 30.699219 C 48.300781 31.398438 47.699219 31.898438 47.101562 31.898438 C 46.398438 32 45.898438 31.398438 45.898438 30.699219 Z M 45.898438 30.699219 "/>
<path style=" stroke:none;fill-rule:nonzero;fill:rgb(24.705882%,49.019608%,72.156863%);fill-opacity:1;" d="M 45.898438 42.300781 C 45.898438 41.601562 46.5 41.101562 47.101562 41.101562 C 47.800781 41.101562 48.300781 41.699219 48.300781 42.300781 C 48.300781 43 47.699219 43.5 47.101562 43.5 C 46.398438 43.601562 45.898438 43 45.898438 42.300781 Z M 45.898438 42.300781 "/>
<path style=" stroke:none;fill-rule:nonzero;fill:rgb(24.705882%,49.019608%,72.156863%);fill-opacity:1;" d="M 45.898438 48.101562 C 45.898438 47.398438 46.5 46.898438 47.101562 46.898438 C 47.800781 46.898438 48.300781 47.5 48.300781 48.101562 C 48.300781 48.800781 47.699219 49.300781 47.101562 49.300781 C 46.398438 49.398438 45.898438 48.800781 45.898438 48.101562 Z M 45.898438 48.101562 "/>
<path style=" stroke:none;fill-rule:nonzero;fill:rgb(24.705882%,49.019608%,72.156863%);fill-opacity:1;" d="M 41.699219 34.101562 C 41.699219 33.398438 42.300781 32.898438 42.898438 32.898438 C 43.601562 32.898438 44.101562 33.5 44.101562 34.101562 C 44.101562 34.800781 43.5 35.300781 42.898438 35.300781 C 42.300781 35.300781 41.699219 34.699219 41.699219 34.101562 Z M 41.699219 34.101562 "/>
<path style=" stroke:none;fill-rule:nonzero;fill:rgb(24.705882%,49.019608%,72.156863%);fill-opacity:1;" d="M 28.5 51.800781 C 28 51.800781 27.699219 51.398438 27.699219 51 L 27.699219 41.101562 C 27.699219 40.601562 28.101562 40.300781 28.5 40.300781 C 29 40.300781 29.300781 40.699219 29.300781 41.101562 L 29.300781 51 C 29.300781 51.5 29 51.800781 28.5 51.800781 Z M 28.5 51.800781 "/>
</g>
</svg>
