<?xml version="1.0" encoding="UTF-8"?>
<svg xmlns="http://www.w3.org/2000/svg" xmlns:xlink="http://www.w3.org/1999/xlink" width="57pt" height="68pt" viewBox="0 0 57 68" version="1.1">
<g id="surface1">
<path style=" stroke:none;fill-rule:nonzero;fill:rgb(98.823529%,82.745098%,32.941176%);fill-opacity:1;" d="M 51 52.601562 L 33.300781 62.800781 C 30.300781 64.5 26.601562 64.5 23.699219 62.800781 L 6 52.601562 C 3 50.898438 1.199219 47.699219 1.199219 44.199219 L 1.199219 23.800781 C 1.199219 20.398438 3 17.199219 6 15.398438 L 23.699219 5.199219 C 26.699219 3.5 30.398438 3.5 33.300781 5.199219 L 51 15.398438 C 54 17.101562 55.800781 20.300781 55.800781 23.800781 L 55.800781 44.199219 C 55.800781 47.699219 54 50.800781 51 52.601562 Z M 51 52.601562 "/>
<path style=" stroke:none;fill-rule:nonzero;fill:rgb(99.215686%,84.313725%,67.843137%);fill-opacity:1;" d="M 54.898438 38.300781 L 55.800781 38.300781 L 55.800781 31.101562 L 1.199219 31.101562 L 1.199219 38.300781 Z M 54.898438 38.300781 "/>
<path style=" stroke:none;fill-rule:nonzero;fill:rgb(98.431373%,48.235294%,46.27451%);fill-opacity:1;" d="M 1.199219 38.101562 L 1.199219 44.199219 C 1.199219 47.601562 3 50.800781 6 52.601562 L 8 53.800781 C 10.199219 54.101562 12.300781 54.300781 14.5 54.199219 C 25.601562 54.199219 31.101562 50.5 43.601562 50.398438 C 46.601562 50.398438 49.898438 50.601562 53.199219 50.898438 C 54.898438 49.101562 55.898438 46.800781 55.898438 44.300781 L 55.898438 38.199219 L 1.199219 38.199219 Z M 1.199219 38.101562 "/>
<path style=" stroke:none;fill-rule:nonzero;fill:rgb(50.196078%,32.54902%,20%);fill-opacity:1;" d="M 34.199219 9.898438 C 34.199219 9.898438 32.898438 14.5 32.898438 40.5 C 32.898438 42.300781 31.101562 43.800781 28.898438 43.800781 C 26.699219 43.800781 25 42.398438 24.898438 40.699219 L 24.898438 39.398438 C 25.101562 13.5 34.199219 9.898438 34.199219 9.898438 Z M 34.199219 9.898438 "/>
<path style=" stroke:none;fill-rule:nonzero;fill:rgb(64.705882%,41.568627%,26.27451%);fill-opacity:1;" d="M 19.101562 15.101562 C 19.101562 15.101562 18.300781 17.300781 18.300781 32.898438 C 18.199219 34.101562 17.101562 35 15.898438 34.898438 C 15.300781 35 14.699219 34.800781 14.199219 34.398438 C 13.699219 34 13.5 33.398438 13.398438 32.800781 C 14 17.300781 19.101562 15.101562 19.101562 15.101562 Z M 19.101562 15.101562 "/>
<path style=" stroke:none;fill-rule:nonzero;fill:rgb(64.705882%,41.568627%,26.27451%);fill-opacity:1;" d="M 46.398438 15.101562 C 46.398438 15.101562 45.601562 17.300781 45.601562 32.898438 C 45.5 34.101562 44.398438 35 43.199219 34.898438 C 42.601562 35 42 34.800781 41.5 34.398438 C 41 34 40.800781 33.398438 40.699219 32.800781 C 41.300781 17.300781 46.398438 15.101562 46.398438 15.101562 Z M 46.398438 15.101562 "/>
<path style=" stroke:none;fill-rule:nonzero;fill:rgb(87.45098%,30.196078%,37.647059%);fill-opacity:1;" d="M 6.800781 41.898438 C 6.800781 42.398438 6.398438 42.800781 5.898438 42.800781 C 5.402344 42.800781 5 42.398438 5 41.898438 C 5 41.402344 5.402344 41 5.898438 41 C 6.398438 41 6.800781 41.402344 6.800781 41.898438 Z M 6.800781 41.898438 "/>
<path style=" stroke:none;fill-rule:nonzero;fill:rgb(87.45098%,30.196078%,37.647059%);fill-opacity:1;" d="M 10.5 41.898438 C 10.5 42.398438 10.097656 42.800781 9.601562 42.800781 C 9.101562 42.800781 8.699219 42.398438 8.699219 41.898438 C 8.699219 41.402344 9.101562 41 9.601562 41 C 10.097656 41 10.5 41.402344 10.5 41.898438 Z M 10.5 41.898438 "/>
<path style=" stroke:none;fill-rule:nonzero;fill:rgb(87.45098%,30.196078%,37.647059%);fill-opacity:1;" d="M 14.300781 41.898438 C 14.300781 42.398438 13.898438 42.800781 13.398438 42.800781 C 12.902344 42.800781 12.5 42.398438 12.5 41.898438 C 12.5 41.402344 12.902344 41 13.398438 41 C 13.898438 41 14.300781 41.402344 14.300781 41.898438 Z M 14.300781 41.898438 "/>
<path style=" stroke:none;fill-rule:nonzero;fill:rgb(87.45098%,30.196078%,37.647059%);fill-opacity:1;" d="M 18.101562 41.898438 C 18.101562 42.398438 17.695312 42.800781 17.199219 42.800781 C 16.703125 42.800781 16.300781 42.398438 16.300781 41.898438 C 16.300781 41.402344 16.703125 41 17.199219 41 C 17.695312 41 18.101562 41.402344 18.101562 41.898438 Z M 18.101562 41.898438 "/>
<path style=" stroke:none;fill-rule:nonzero;fill:rgb(87.45098%,30.196078%,37.647059%);fill-opacity:1;" d="M 21.898438 41.898438 C 21.898438 42.398438 21.496094 42.800781 21 42.800781 C 20.503906 42.800781 20.101562 42.398438 20.101562 41.898438 C 20.101562 41.402344 20.503906 41 21 41 C 21.496094 41 21.898438 41.402344 21.898438 41.898438 Z M 21.898438 41.898438 "/>
<path style=" stroke:none;fill-rule:nonzero;fill:rgb(87.45098%,30.196078%,37.647059%);fill-opacity:1;" d="M 20 44.699219 C 20 45.195312 19.597656 45.601562 19.101562 45.601562 C 18.601562 45.601562 18.199219 45.195312 18.199219 44.699219 C 18.199219 44.203125 18.601562 43.800781 19.101562 43.800781 C 19.597656 43.800781 20 44.203125 20 44.699219 Z M 20 44.699219 "/>
<path style=" stroke:none;fill-rule:nonzero;fill:rgb(87.45098%,30.196078%,37.647059%);fill-opacity:1;" d="M 16.199219 44.699219 C 16.199219 45.195312 15.796875 45.601562 15.300781 45.601562 C 14.804688 45.601562 14.398438 45.195312 14.398438 44.699219 C 14.398438 44.203125 14.804688 43.800781 15.300781 43.800781 C 15.796875 43.800781 16.199219 44.203125 16.199219 44.699219 Z M 16.199219 44.699219 "/>
<path style=" stroke:none;fill-rule:nonzero;fill:rgb(87.45098%,30.196078%,37.647059%);fill-opacity:1;" d="M 12.398438 44.699219 C 12.398438 45.195312 11.996094 45.601562 11.5 45.601562 C 11.003906 45.601562 10.601562 45.195312 10.601562 44.699219 C 10.601562 44.203125 11.003906 43.800781 11.5 43.800781 C 11.996094 43.800781 12.398438 44.203125 12.398438 44.699219 Z M 12.398438 44.699219 "/>
<path style=" stroke:none;fill-rule:nonzero;fill:rgb(87.45098%,30.196078%,37.647059%);fill-opacity:1;" d="M 8.699219 44.699219 C 8.699219 45.195312 8.296875 45.601562 7.800781 45.601562 C 7.304688 45.601562 6.898438 45.195312 6.898438 44.699219 C 6.898438 44.203125 7.304688 43.800781 7.800781 43.800781 C 8.296875 43.800781 8.699219 44.203125 8.699219 44.699219 Z M 8.699219 44.699219 "/>
<path style=" stroke:none;fill-rule:nonzero;fill:rgb(87.45098%,30.196078%,37.647059%);fill-opacity:1;" d="M 6.800781 47.601562 C 6.800781 48.097656 6.398438 48.5 5.898438 48.5 C 5.402344 48.5 5 48.097656 5 47.601562 C 5 47.101562 5.402344 46.699219 5.898438 46.699219 C 6.398438 46.699219 6.800781 47.101562 6.800781 47.601562 Z M 6.800781 47.601562 "/>
<path style=" stroke:none;fill-rule:nonzero;fill:rgb(87.45098%,30.196078%,37.647059%);fill-opacity:1;" d="M 10.5 47.601562 C 10.5 48.097656 10.097656 48.5 9.601562 48.5 C 9.101562 48.5 8.699219 48.097656 8.699219 47.601562 C 8.699219 47.101562 9.101562 46.699219 9.601562 46.699219 C 10.097656 46.699219 10.5 47.101562 10.5 47.601562 Z M 10.5 47.601562 "/>
<path style=" stroke:none;fill-rule:nonzero;fill:rgb(87.45098%,30.196078%,37.647059%);fill-opacity:1;" d="M 14.300781 47.601562 C 14.300781 48.097656 13.898438 48.5 13.398438 48.5 C 12.902344 48.5 12.5 48.097656 12.5 47.601562 C 12.5 47.101562 12.902344 46.699219 13.398438 46.699219 C 13.898438 46.699219 14.300781 47.101562 14.300781 47.601562 Z M 14.300781 47.601562 "/>
<path style=" stroke:none;fill-rule:nonzero;fill:rgb(87.45098%,30.196078%,37.647059%);fill-opacity:1;" d="M 18.101562 47.601562 C 18.101562 48.097656 17.695312 48.5 17.199219 48.5 C 16.703125 48.5 16.300781 48.097656 16.300781 47.601562 C 16.300781 47.101562 16.703125 46.699219 17.199219 46.699219 C 17.695312 46.699219 18.101562 47.101562 18.101562 47.601562 Z M 18.101562 47.601562 "/>
<path style=" stroke:none;fill-rule:nonzero;fill:rgb(87.45098%,30.196078%,37.647059%);fill-opacity:1;" d="M 8.699219 50.398438 C 8.699219 50.898438 8.296875 51.300781 7.800781 51.300781 C 7.304688 51.300781 6.898438 50.898438 6.898438 50.398438 C 6.898438 49.902344 7.304688 49.5 7.800781 49.5 C 8.296875 49.5 8.699219 49.902344 8.699219 50.398438 Z M 8.699219 50.398438 "/>
<path style=" stroke:none;fill-rule:nonzero;fill:rgb(87.45098%,30.196078%,37.647059%);fill-opacity:1;" d="M 12.398438 50.398438 C 12.398438 50.898438 11.996094 51.300781 11.5 51.300781 C 11.003906 51.300781 10.601562 50.898438 10.601562 50.398438 C 10.601562 49.902344 11.003906 49.5 11.5 49.5 C 11.996094 49.5 12.398438 49.902344 12.398438 50.398438 Z M 12.398438 50.398438 "/>
<path style=" stroke:none;fill-rule:nonzero;fill:rgb(87.45098%,30.196078%,37.647059%);fill-opacity:1;" d="M 16.199219 50.398438 C 16.199219 50.898438 15.796875 51.300781 15.300781 51.300781 C 14.804688 51.300781 14.398438 50.898438 14.398438 50.398438 C 14.398438 49.902344 14.804688 49.5 15.300781 49.5 C 15.796875 49.5 16.199219 49.902344 16.199219 50.398438 Z M 16.199219 50.398438 "/>
<path style=" stroke:none;fill-rule:nonzero;fill:rgb(87.45098%,30.196078%,37.647059%);fill-opacity:1;" d="M 20 50.398438 C 20 50.898438 19.597656 51.300781 19.101562 51.300781 C 18.601562 51.300781 18.199219 50.898438 18.199219 50.398438 C 18.199219 49.902344 18.601562 49.5 19.101562 49.5 C 19.597656 49.5 20 49.902344 20 50.398438 Z M 20 50.398438 "/>
<path style=" stroke:none;fill-rule:nonzero;fill:rgb(87.45098%,30.196078%,37.647059%);fill-opacity:1;" d="M 23.699219 50.398438 C 23.699219 50.898438 23.296875 51.300781 22.800781 51.300781 C 22.304688 51.300781 21.898438 50.898438 21.898438 50.398438 C 21.898438 49.902344 22.304688 49.5 22.800781 49.5 C 23.296875 49.5 23.699219 49.902344 23.699219 50.398438 Z M 23.699219 50.398438 "/>
<path style=" stroke:none;fill-rule:nonzero;fill:rgb(87.45098%,30.196078%,37.647059%);fill-opacity:1;" d="M 21.898438 47.601562 C 21.898438 48.097656 21.496094 48.5 21 48.5 C 20.503906 48.5 20.101562 48.097656 20.101562 47.601562 C 20.101562 47.101562 20.503906 46.699219 21 46.699219 C 21.496094 46.699219 21.898438 47.101562 21.898438 47.601562 Z M 21.898438 47.601562 "/>
<path style=" stroke:none;fill-rule:nonzero;fill:rgb(87.45098%,30.196078%,37.647059%);fill-opacity:1;" d="M 23.699219 44.699219 C 23.699219 45.195312 23.296875 45.601562 22.800781 45.601562 C 22.304688 45.601562 21.898438 45.195312 21.898438 44.699219 C 21.898438 44.203125 22.304688 43.800781 22.800781 43.800781 C 23.296875 43.800781 23.699219 44.203125 23.699219 44.699219 Z M 23.699219 44.699219 "/>
<path style=" stroke:none;fill-rule:nonzero;fill:rgb(87.45098%,30.196078%,37.647059%);fill-opacity:1;" d="M 25.601562 47.601562 C 25.601562 48.097656 25.195312 48.5 24.699219 48.5 C 24.203125 48.5 23.800781 48.097656 23.800781 47.601562 C 23.800781 47.101562 24.203125 46.699219 24.699219 46.699219 C 25.195312 46.699219 25.601562 47.101562 25.601562 47.601562 Z M 25.601562 47.601562 "/>
<path style=" stroke:none;fill-rule:nonzero;fill:rgb(87.45098%,30.196078%,37.647059%);fill-opacity:1;" d="M 29.398438 47.601562 C 29.398438 48.097656 28.996094 48.5 28.5 48.5 C 28.003906 48.5 27.601562 48.097656 27.601562 47.601562 C 27.601562 47.101562 28.003906 46.699219 28.5 46.699219 C 28.996094 46.699219 29.398438 47.101562 29.398438 47.601562 Z M 29.398438 47.601562 "/>
<path style=" stroke:none;fill-rule:nonzero;fill:rgb(87.45098%,30.196078%,37.647059%);fill-opacity:1;" d="M 33.199219 47.601562 C 33.199219 48.097656 32.796875 48.5 32.300781 48.5 C 31.804688 48.5 31.398438 48.097656 31.398438 47.601562 C 31.398438 47.101562 31.804688 46.699219 32.300781 46.699219 C 32.796875 46.699219 33.199219 47.101562 33.199219 47.601562 Z M 33.199219 47.601562 "/>
<path style=" stroke:none;fill-rule:nonzero;fill:rgb(87.45098%,30.196078%,37.647059%);fill-opacity:1;" d="M 52 41.898438 C 52 42.398438 51.597656 42.800781 51.101562 42.800781 C 50.601562 42.800781 50.199219 42.398438 50.199219 41.898438 C 50.199219 41.402344 50.601562 41 51.101562 41 C 51.597656 41 52 41.402344 52 41.898438 Z M 52 41.898438 "/>
<path style=" stroke:none;fill-rule:nonzero;fill:rgb(87.45098%,30.196078%,37.647059%);fill-opacity:1;" d="M 48.300781 41.898438 C 48.300781 42.398438 47.898438 42.800781 47.398438 42.800781 C 46.902344 42.800781 46.5 42.398438 46.5 41.898438 C 46.5 41.402344 46.902344 41 47.398438 41 C 47.898438 41 48.300781 41.402344 48.300781 41.898438 Z M 48.300781 41.898438 "/>
<path style=" stroke:none;fill-rule:nonzero;fill:rgb(87.45098%,30.196078%,37.647059%);fill-opacity:1;" d="M 44.5 41.898438 C 44.5 42.398438 44.097656 42.800781 43.601562 42.800781 C 43.101562 42.800781 42.699219 42.398438 42.699219 41.898438 C 42.699219 41.402344 43.101562 41 43.601562 41 C 44.097656 41 44.5 41.402344 44.5 41.898438 Z M 44.5 41.898438 "/>
<path style=" stroke:none;fill-rule:nonzero;fill:rgb(87.45098%,30.196078%,37.647059%);fill-opacity:1;" d="M 40.699219 41.898438 C 40.699219 42.398438 40.296875 42.800781 39.800781 42.800781 C 39.304688 42.800781 38.898438 42.398438 38.898438 41.898438 C 38.898438 41.402344 39.304688 41 39.800781 41 C 40.296875 41 40.699219 41.402344 40.699219 41.898438 Z M 40.699219 41.898438 "/>
<path style=" stroke:none;fill-rule:nonzero;fill:rgb(87.45098%,30.196078%,37.647059%);fill-opacity:1;" d="M 36.898438 41.898438 C 36.898438 42.398438 36.496094 42.800781 36 42.800781 C 35.503906 42.800781 35.101562 42.398438 35.101562 41.898438 C 35.101562 41.402344 35.503906 41 36 41 C 36.496094 41 36.898438 41.402344 36.898438 41.898438 Z M 36.898438 41.898438 "/>
<path style=" stroke:none;fill-rule:nonzero;fill:rgb(87.45098%,30.196078%,37.647059%);fill-opacity:1;" d="M 38.800781 44.699219 C 38.800781 45.195312 38.398438 45.601562 37.898438 45.601562 C 37.402344 45.601562 37 45.195312 37 44.699219 C 37 44.203125 37.402344 43.800781 37.898438 43.800781 C 38.398438 43.800781 38.800781 44.203125 38.800781 44.699219 Z M 38.800781 44.699219 "/>
<path style=" stroke:none;fill-rule:nonzero;fill:rgb(87.45098%,30.196078%,37.647059%);fill-opacity:1;" d="M 42.601562 44.699219 C 42.601562 45.195312 42.195312 45.601562 41.699219 45.601562 C 41.203125 45.601562 40.800781 45.195312 40.800781 44.699219 C 40.800781 44.203125 41.203125 43.800781 41.699219 43.800781 C 42.195312 43.800781 42.601562 44.203125 42.601562 44.699219 Z M 42.601562 44.699219 "/>
<path style=" stroke:none;fill-rule:nonzero;fill:rgb(87.45098%,30.196078%,37.647059%);fill-opacity:1;" d="M 46.398438 44.699219 C 46.398438 45.195312 45.996094 45.601562 45.5 45.601562 C 45.003906 45.601562 44.601562 45.195312 44.601562 44.699219 C 44.601562 44.203125 45.003906 43.800781 45.5 43.800781 C 45.996094 43.800781 46.398438 44.203125 46.398438 44.699219 Z M 46.398438 44.699219 "/>
<path style=" stroke:none;fill-rule:nonzero;fill:rgb(87.45098%,30.196078%,37.647059%);fill-opacity:1;" d="M 50.101562 44.699219 C 50.101562 45.195312 49.695312 45.601562 49.199219 45.601562 C 48.703125 45.601562 48.300781 45.195312 48.300781 44.699219 C 48.300781 44.203125 48.703125 43.800781 49.199219 43.800781 C 49.695312 43.800781 50.101562 44.203125 50.101562 44.699219 Z M 50.101562 44.699219 "/>
<path style=" stroke:none;fill-rule:nonzero;fill:rgb(87.45098%,30.196078%,37.647059%);fill-opacity:1;" d="M 36.898438 47.601562 C 36.898438 48.097656 36.496094 48.5 36 48.5 C 35.503906 48.5 35.101562 48.097656 35.101562 47.601562 C 35.101562 47.101562 35.503906 46.699219 36 46.699219 C 36.496094 46.699219 36.898438 47.101562 36.898438 47.601562 Z M 36.898438 47.601562 "/>
<path style=" stroke:none;fill-rule:nonzero;fill:rgb(87.45098%,30.196078%,37.647059%);fill-opacity:1;" d="M 40.699219 47.601562 C 40.699219 48.097656 40.296875 48.5 39.800781 48.5 C 39.304688 48.5 38.898438 48.097656 38.898438 47.601562 C 38.898438 47.101562 39.304688 46.699219 39.800781 46.699219 C 40.296875 46.699219 40.699219 47.101562 40.699219 47.601562 Z M 40.699219 47.601562 "/>
<path style=" stroke:none;fill-rule:nonzero;fill:rgb(87.45098%,30.196078%,37.647059%);fill-opacity:1;" d="M 44.5 47.601562 C 44.5 48.097656 44.097656 48.5 43.601562 48.5 C 43.101562 48.5 42.699219 48.097656 42.699219 47.601562 C 42.699219 47.101562 43.101562 46.699219 43.601562 46.699219 C 44.097656 46.699219 44.5 47.101562 44.5 47.601562 Z M 44.5 47.601562 "/>
<path style=" stroke:none;fill-rule:nonzero;fill:rgb(87.45098%,30.196078%,37.647059%);fill-opacity:1;" d="M 48.300781 47.601562 C 48.300781 48.097656 47.898438 48.5 47.398438 48.5 C 46.902344 48.5 46.5 48.097656 46.5 47.601562 C 46.5 47.101562 46.902344 46.699219 47.398438 46.699219 C 47.898438 46.699219 48.300781 47.101562 48.300781 47.601562 Z M 48.300781 47.601562 "/>
<path style=" stroke:none;fill-rule:nonzero;fill:rgb(87.45098%,30.196078%,37.647059%);fill-opacity:1;" d="M 52 47.601562 C 52 48.097656 51.597656 48.5 51.101562 48.5 C 50.601562 48.5 50.199219 48.097656 50.199219 47.601562 C 50.199219 47.101562 50.601562 46.699219 51.101562 46.699219 C 51.597656 46.699219 52 47.101562 52 47.601562 Z M 52 47.601562 "/>
<path style=" stroke:none;fill-rule:nonzero;fill:rgb(87.45098%,30.196078%,37.647059%);fill-opacity:1;" d="M 35.101562 44.699219 C 35.101562 45.195312 34.695312 45.601562 34.199219 45.601562 C 33.703125 45.601562 33.300781 45.195312 33.300781 44.699219 C 33.300781 44.203125 33.703125 43.800781 34.199219 43.800781 C 34.695312 43.800781 35.101562 44.203125 35.101562 44.699219 Z M 35.101562 44.699219 "/>
<path style=" stroke:none;fill-rule:nonzero;fill:rgb(96.078431%,93.72549%,79.215686%);fill-opacity:1;" d="M 40.800781 54.5 L 38.898438 54.5 C 38.398438 54.5 38 54.101562 38 53.601562 C 38 53.101562 38.398438 52.699219 38.898438 52.699219 L 40.800781 52.699219 C 41.300781 52.699219 41.699219 53.101562 41.699219 53.601562 C 41.699219 54.101562 41.300781 54.5 40.800781 54.5 Z M 40.800781 54.5 "/>
<path style=" stroke:none;fill-rule:nonzero;fill:rgb(96.078431%,93.72549%,79.215686%);fill-opacity:1;" d="M 35.101562 54.5 L 33.199219 54.5 C 32.699219 54.5 32.300781 54.101562 32.300781 53.601562 C 32.300781 53.101562 32.699219 52.699219 33.199219 52.699219 L 35.101562 52.699219 C 35.601562 52.699219 36 53.101562 36 53.601562 C 36 54.101562 35.601562 54.5 35.101562 54.5 Z M 35.101562 54.5 "/>
<path style=" stroke:none;fill-rule:nonzero;fill:rgb(96.078431%,93.72549%,79.215686%);fill-opacity:1;" d="M 37.898438 57.398438 L 36 57.398438 C 35.5 57.398438 35.101562 57 35.101562 56.5 C 35.101562 56 35.5 55.601562 36 55.601562 L 37.898438 55.601562 C 38.398438 55.601562 38.800781 56 38.800781 56.5 C 38.800781 57 38.398438 57.398438 37.898438 57.398438 Z M 37.898438 57.398438 "/>
<path style=" stroke:none;fill-rule:nonzero;fill:rgb(96.078431%,93.72549%,79.215686%);fill-opacity:1;" d="M 32.300781 57.398438 L 30.398438 57.398438 C 29.898438 57.398438 29.5 57 29.5 56.5 C 29.5 56 29.898438 55.601562 30.398438 55.601562 L 32.300781 55.601562 C 32.800781 55.601562 33.199219 56 33.199219 56.5 C 33.199219 57 32.800781 57.398438 32.300781 57.398438 Z M 32.300781 57.398438 "/>
<path style=" stroke:none;fill-rule:nonzero;fill:rgb(96.078431%,93.72549%,79.215686%);fill-opacity:1;" d="M 26.601562 57.398438 L 24.699219 57.398438 C 24.199219 57.398438 23.800781 57 23.800781 56.5 C 23.800781 56 24.199219 55.601562 24.699219 55.601562 L 26.601562 55.601562 C 27.101562 55.601562 27.5 56 27.5 56.5 C 27.5 57 27.101562 57.398438 26.601562 57.398438 Z M 26.601562 57.398438 "/>
<path style=" stroke:none;fill-rule:nonzero;fill:rgb(96.078431%,93.72549%,79.215686%);fill-opacity:1;" d="M 21 57.398438 L 19.101562 57.398438 C 18.601562 57.398438 18.199219 57 18.199219 56.5 C 18.199219 56 18.601562 55.601562 19.101562 55.601562 L 21 55.601562 C 21.5 55.601562 21.898438 56 21.898438 56.5 C 21.898438 57 21.5 57.398438 21 57.398438 Z M 21 57.398438 "/>
</g>
</svg>
