<?xml version="1.0" encoding="UTF-8"?>
<svg xmlns="http://www.w3.org/2000/svg" xmlns:xlink="http://www.w3.org/1999/xlink" width="57pt" height="68pt" viewBox="0 0 57 68" version="1.1">
<g id="surface1">
<path style=" stroke:none;fill-rule:nonzero;fill:rgb(28.235294%,29.411765%,49.803922%);fill-opacity:1;" d="M 51 52.601562 L 33.300781 62.800781 C 30.300781 64.5 26.601562 64.5 23.699219 62.800781 L 6 52.601562 C 3 50.898438 1.199219 47.699219 1.199219 44.199219 L 1.199219 23.800781 C 1.199219 20.398438 3 17.199219 6 15.398438 L 23.699219 5.199219 C 26.699219 3.5 30.398438 3.5 33.300781 5.199219 L 51 15.398438 C 54 17.101562 55.800781 20.300781 55.800781 23.800781 L 55.800781 44.199219 C 55.800781 47.699219 54 50.800781 51 52.601562 Z M 51 52.601562 "/>
<path style=" stroke:none;fill-rule:nonzero;fill:rgb(37.254902%,86.27451%,40.784314%);fill-opacity:1;" d="M 38.300781 23 C 39.300781 10.5 21.5 5 16.199219 22.898438 C 16.199219 22.898438 19.300781 19.800781 22 20.300781 C 25.800781 21 28.398438 29.199219 38.300781 23 Z M 38.300781 23 "/>
<path style=" stroke:none;fill-rule:nonzero;fill:rgb(33.72549%,74.901961%,36.470588%);fill-opacity:1;" d="M 17.699219 19.101562 C 17.101562 20.199219 16.699219 21.5 16.199219 22.898438 C 16.199219 22.898438 19.300781 19.800781 22 20.300781 C 23 20.5 24 21.199219 25 22.101562 C 24.398438 21 21 17.5 17.699219 19.101562 Z M 17.699219 19.101562 "/>
<path style=" stroke:none;fill-rule:nonzero;fill:rgb(100%,89.019608%,33.72549%);fill-opacity:1;" d="M 39.800781 23.699219 L 39.199219 24.300781 C 35.300781 19.199219 26.199219 12.199219 20.800781 17.300781 C 26.398438 11.398438 36 18.5 39.800781 23.699219 Z M 39.800781 23.699219 "/>
<path style=" stroke:none;fill-rule:nonzero;fill:rgb(37.254902%,86.27451%,40.784314%);fill-opacity:1;" d="M 13.699219 31.101562 C 2.300781 36.5 6.601562 54.699219 24.699219 50.199219 C 24.699219 50.199219 20.5 49.101562 19.5 46.5 C 18.101562 42.898438 24 36.601562 13.699219 31.101562 Z M 13.699219 31.101562 "/>
<path style=" stroke:none;fill-rule:nonzero;fill:rgb(45.882353%,74.117647%,50.196078%);fill-opacity:1;" d="M 20.601562 50.898438 C 21.898438 50.800781 23.199219 50.601562 24.601562 50.300781 C 24.601562 50.300781 20.398438 49.199219 19.398438 46.601562 C 19 45.601562 19.199219 44.398438 19.398438 43.101562 C 18.898438 44.101562 17.5 48.898438 20.601562 50.898438 Z M 20.601562 50.898438 "/>
<path style=" stroke:none;fill-rule:nonzero;fill:rgb(100%,89.019608%,33.72549%);fill-opacity:1;" d="M 13.601562 29.5 L 14.398438 29.800781 C 12 35.699219 10.398438 47.101562 17.5 49.300781 C 9.601562 47.300781 10.898438 35.398438 13.601562 29.5 Z M 13.601562 29.5 "/>
<path style=" stroke:none;fill-rule:nonzero;fill:rgb(37.254902%,86.27451%,40.784314%);fill-opacity:1;" d="M 33.300781 48.800781 C 43.699219 55.898438 57.300781 43.199219 44.398438 29.699219 C 44.398438 29.699219 45.601562 33.898438 43.800781 36.101562 C 41.300781 39 32.800781 37.199219 33.300781 48.800781 Z M 33.300781 48.800781 "/>
<path style=" stroke:none;fill-rule:nonzero;fill:rgb(33.72549%,74.901961%,36.470588%);fill-opacity:1;" d="M 46.898438 32.898438 C 46.199219 31.898438 45.398438 30.800781 44.300781 29.699219 C 44.300781 29.699219 45.5 33.898438 43.699219 36.101562 C 43 36.898438 41.898438 37.398438 40.601562 37.800781 C 41.898438 37.800781 46.699219 36.601562 46.898438 32.898438 Z M 46.898438 32.898438 "/>
<path style=" stroke:none;fill-rule:nonzero;fill:rgb(100%,89.019608%,33.72549%);fill-opacity:1;" d="M 31.898438 49.800781 L 31.699219 48.898438 C 38 48.101562 48.699219 43.699219 47 36.398438 C 49.300781 44.300781 38.300781 49.101562 31.898438 49.800781 Z M 31.898438 49.800781 "/>
</g>
</svg>
