<?xml version="1.0" encoding="utf-8"?>
<!-- Generator: Adobe Illustrator 22.1.0, SVG Export Plug-In . SVG Version: 6.00 Build 0)  -->
<svg version="1.1" id="Capa_1" xmlns="http://www.w3.org/2000/svg" xmlns:xlink="http://www.w3.org/1999/xlink" x="0px" y="0px"
	 viewBox="0 0 57 68" style="enable-background:new 0 0 57 68;" xml:space="preserve">
<style type="text/css">
	.st0{fill:#FAD24D;}
	.st1{fill:#42342B;}
	.st2{fill:#574538;}
	.st3{fill:#1A1511;}
	.st4{fill:#F6FAFD;}
	.st5{fill:#AA7753;}
</style>
<g>
	<path class="st0" d="M51,52.5L33.3,62.7c-3,1.7-6.7,1.7-9.6,0L6,52.5c-3-1.7-4.8-4.9-4.8-8.4V23.7c0-3.4,1.8-6.6,4.8-8.4L23.7,5.1
		c3-1.7,6.7-1.7,9.6,0L51,15.3c3,1.7,4.8,4.9,4.8,8.4v20.4C55.8,47.6,54,50.7,51,52.5z"/>
	<g>
		<path class="st1" d="M37.4,20.7c7.3,4.9,9.3,14.9,4.4,22.2s-14.9,9.3-22.2,4.4S10.3,32.3,15.2,25c3-4.4,7.9-7.1,13.2-7.1
			c0.8,0,1.6,0.1,2.4,0.2C33.2,18.5,35.5,19.3,37.4,20.7z"/>
		<circle class="st2" cx="28.5" cy="33.9" r="16"/>
		<circle class="st3" cx="28.5" cy="33.9" r="8"/>
		<ellipse transform="matrix(0.7071 -0.7071 0.7071 0.7071 -10.2646 30.6753)" class="st4" cx="31.9" cy="27.7" rx="3.3" ry="4.6"/>
		<path class="st5" d="M55.8,31.5c-1.5-1.4-3-2.9-4.5-4.4c-4.1-4.6-9-8.4-14.5-11.3c-0.3-0.1-0.7-0.3-1-0.4
			c-0.7-0.3-1.5-0.5-2.2-0.7c-0.4-0.1-0.9-0.3-1.3-0.4c-10.8-2.1-21.3,4.9-23.5,15.8s4.9,21.3,15.8,23.5
			c10.8,2.1,21.3-4.9,23.5-15.8c0.2-0.8,0.3-1.6,0.3-2.4c2.1,2.6,4.7,4.7,7.5,6.4V31.5z M28.5,49.9L28.5,49.9
			c-8.8-0.1-15.9-7.4-15.8-16.2c0.1-7.2,5-13.4,11.9-15.3c1.3-0.3,2.6-0.5,3.9-0.5c1,0,2,0.1,3,0.3c0.4,0.1,0.8,0.2,1.1,0.3
			c0.6,0.2,1.2,0.3,1.8,0.6c0.2,0.1,0.4,0.2,0.6,0.3c3.2,1.4,5.7,3.9,7.4,6.9c0.9,1.6,1.4,3.2,1.7,5c0.2,0.9,0.2,1.7,0.3,2.6
			C44.5,42.8,37.3,49.9,28.5,49.9z"/>
	</g>
</g>
</svg>
