<?xml version="1.0" encoding="utf-8"?>
<!-- Generator: Adobe Illustrator 22.1.0, SVG Export Plug-In . SVG Version: 6.00 Build 0)  -->
<svg version="1.1" id="Capa_1" xmlns="http://www.w3.org/2000/svg" xmlns:xlink="http://www.w3.org/1999/xlink" x="0px" y="0px"
	 viewBox="0 0 57 68" style="enable-background:new 0 0 57 68;" xml:space="preserve">
<style type="text/css">
	.st0{fill:#0ED1B2;}
	.st1{fill:#EF3A47;}
	.st2{fill:#08AF8F;}
	.st3{fill:#596C76;}
	.st4{fill:#465A61;}
	.st5{fill:#BF6015;}
	.st6{fill:#994C0F;}
	.st7{fill:#E08344;}
	.st8{fill:#D6702B;}
	.st9{fill:#53433F;}
	.st10{fill:#3E322E;}
	.st11{fill:#FF9100;}
	.st12{fill:#FF641A;}
	.st13{fill:#725D57;}
	.st14{fill:#FFE6B3;}
	.st15{fill:#FFF7CC;}
</style>
<g>
	<path class="st0" d="M51,52.6L33.3,62.8c-3,1.7-6.7,1.7-9.6,0L6,52.6c-3-1.7-4.8-4.9-4.8-8.4V23.8c0-3.4,1.8-6.6,4.8-8.4L23.7,5.2
		c3-1.7,6.7-1.7,9.6,0L51,15.4c3,1.7,4.8,4.9,4.8,8.4v20.4C55.8,47.7,54,50.8,51,52.6z"/>
	<path class="st1" d="M28.5,7.5c-3.3,0-6,2.7-6,6s2.7,6,6,6s6-2.7,6-6S31.8,7.5,28.5,7.5z M24.9,10.4c0.1-0.2,0.3-0.3,0.5-0.5
		c0.8-0.7,1.9-1.2,3.1-1.2c1,0,1.9,0.3,2.7,0.9l-6.5,6.5c-0.5-0.8-0.9-1.7-0.9-2.7C23.8,12.3,24.2,11.3,24.9,10.4z M32.1,16.6
		c-0.1,0.2-0.3,0.3-0.5,0.5c-0.8,0.7-1.9,1.2-3.1,1.2c-1,0-1.9-0.3-2.7-0.9l6.5-6.5c0.5,0.8,0.9,1.7,0.9,2.7
		C33.2,14.7,32.8,15.8,32.1,16.6z"/>
	<g>
		<g>
			<g>
				<path class="st2" d="M18,23.8c-0.3,0-0.5-0.2-0.5-0.5v-0.1c0-0.8-0.6-1.5-1.4-1.5c-0.3,0-0.5-0.2-0.5-0.5c0-0.3,0.2-0.5,0.5-0.5
					c1.3,0,2.4,1.1,2.4,2.4v0.1C18.4,23.6,18.2,23.8,18,23.8z"/>
				<path class="st2" d="M19.9,23.8c-0.3,0-0.5-0.2-0.5-0.5v-0.1c0-1.3,1.1-2.4,2.4-2.4c0.3,0,0.5,0.2,0.5,0.5
					c0,0.3-0.2,0.5-0.5,0.5c-0.8,0-1.4,0.7-1.4,1.5v0.1C20.4,23.6,20.1,23.8,19.9,23.8z"/>
				<path class="st2" d="M21.3,25.1c0,0.2,0,0.4-0.1,0.6h-4.6c-0.1-0.2-0.1-0.4-0.1-0.6c0-1.3,1.1-2.4,2.4-2.4
					C20.2,22.7,21.3,23.8,21.3,25.1z"/>
				<path class="st2" d="M21.3,25.1c0,0.2,0,0.4-0.1,0.6h-2.3v-3C20.2,22.7,21.3,23.8,21.3,25.1z"/>
				<g>
					<path class="st2" d="M12.7,35.9l-1-1.9c-0.1-0.1-0.1-0.3,0-0.4c0-0.1,0.1-0.2,0.3-0.3l2.3-1c0.2-0.1,0.5,0,0.6,0.3
						c0.1,0.2,0,0.5-0.3,0.6L12.9,34l0.7,1.5c0.1,0.2,0,0.5-0.2,0.6C13.1,36.2,12.8,36.1,12.7,35.9L12.7,35.9z"/>
					<path class="st2" d="M11,31.3c-0.2-0.1-0.3-0.4-0.2-0.6l1-1.9c0.1-0.2,0.4-0.3,0.6-0.2l1.9,1c0.2,0.1,0.3,0.4,0.2,0.6
						c-0.1,0.2-0.4,0.3-0.6,0.2l-1.5-0.7l-0.7,1.5C11.6,31.3,11.2,31.4,11,31.3L11,31.3z"/>
					<path class="st2" d="M15.3,27.5l-2.3-1c-0.2-0.1-0.3-0.2-0.3-0.4v-1.9c0-0.3,0.2-0.5,0.5-0.5c0.3,0,0.5,0.2,0.5,0.5v1.6l2,0.8
						c0.2,0.1,0.4,0.4,0.3,0.6C15.8,27.5,15.6,27.6,15.3,27.5z"/>
				</g>
				<path class="st2" d="M24.5,36.1c-0.2-0.1-0.3-0.4-0.2-0.6L25,34l-1.8-0.8c-0.2-0.1-0.4-0.4-0.3-0.6c0.1-0.2,0.4-0.4,0.6-0.3
					l2.3,1c0.1,0.1,0.2,0.2,0.3,0.3c0,0.1,0,0.3,0,0.4l-1,1.9C25,36.1,24.7,36.2,24.5,36.1L24.5,36.1z"/>
				<path class="st2" d="M26.2,31.1l-0.8-1.5l-1.5,0.7c-0.2,0.1-0.5,0-0.6-0.2c-0.1-0.2,0-0.5,0.2-0.6l1.9-1c0.2-0.1,0.5,0,0.6,0.2
					l1,1.9c0.1,0.2,0,0.5-0.2,0.6C26.6,31.4,26.3,31.3,26.2,31.1L26.2,31.1z"/>
				<path class="st2" d="M21.9,27.2c-0.1-0.2,0-0.5,0.3-0.6l2-0.8v-1.6c0-0.3,0.2-0.5,0.5-0.5c0.3,0,0.5,0.2,0.5,0.5v1.9
					c0,0.2-0.1,0.4-0.3,0.4l-2.3,1C22.3,27.6,22,27.5,21.9,27.2L21.9,27.2z"/>
				<path class="st2" d="M18,37.1c-0.3,0-0.5-0.2-0.5-0.5v-1c0-0.3,0.2-0.5,0.5-0.5s0.5,0.2,0.5,0.5v1C18.4,36.9,18.2,37.1,18,37.1z
					"/>
				<path class="st2" d="M19.9,37.1c-0.3,0-0.5-0.2-0.5-0.5v-1c0-0.3,0.2-0.5,0.5-0.5c0.3,0,0.5,0.2,0.5,0.5v1
					C20.4,36.9,20.1,37.1,19.9,37.1z"/>
				<path class="st2" d="M18.9,27.5h2.4l1.3-1c-0.9-1.1-2.2-1.9-3.7-1.9s-2.7,0.8-3.7,1.9l1.3,1H18.9z"/>
				<path class="st2" d="M22.6,26.6c-0.9-1.1-2.2-1.9-3.7-1.9v2.9h2.4L22.6,26.6z"/>
				<path class="st2" d="M18.9,29.4h3.4l1.4-1c-0.3-0.7-0.7-1.3-1.1-1.9h-3.7h-3.7c-0.5,0.6-0.9,1.2-1.1,1.9l1.1,1H18.9z"/>
				<path class="st2" d="M23.7,28.5c-0.3-0.7-0.7-1.3-1.1-1.9h-3.7v2.9h3.4L23.7,28.5z"/>
				<path class="st2" d="M18.9,31.4h4.3l0.9-1c-0.1-0.6-0.2-1.3-0.5-1.9h-4.8h-4.8c-0.3,0.6-0.4,1.3-0.5,1.9l1.2,1H18.9z"/>
				<path class="st2" d="M24.2,30.4c-0.1-0.6-0.2-1.3-0.5-1.9h-4.8v2.9h4.3L24.2,30.4z"/>
				<path class="st2" d="M24.2,30.4h-5.3h-5.3c0,0.2,0,0.3,0,0.5c0,0.5,0.1,1,0.2,1.4l1.2,1h3.9h3.7l1.4-1c0.1-0.5,0.2-0.9,0.2-1.4
					C24.2,30.7,24.2,30.6,24.2,30.4L24.2,30.4z"/>
				<path class="st2" d="M24,32.3c0.1-0.5,0.2-0.9,0.2-1.4c0-0.2,0-0.3,0-0.5h-5.3v2.9h3.7L24,32.3z"/>
				<path class="st2" d="M13.8,32.3c0.2,0.7,0.5,1.4,1,1.9l2.1,1h2h2l2.1-1c0.5-0.6,0.8-1.2,1-1.9h-5.1H13.8z"/>
				<path class="st2" d="M23,34.2c0.5-0.6,0.8-1.2,1-1.9h-5.1v2.9h2L23,34.2z"/>
				<path class="st2" d="M14.8,34.2c1,1.2,2.4,2,4.1,2c1.6,0,3.1-0.8,4.1-2h-4.1H14.8z"/>
				<path class="st2" d="M23,34.2h-4.1v2C20.6,36.2,22,35.4,23,34.2z"/>
			</g>
			<g>
				<path class="st3" d="M18,23.3c-0.3,0-0.5-0.2-0.5-0.5v-0.1c0-0.8-0.6-1.5-1.4-1.5c-0.3,0-0.5-0.2-0.5-0.5c0-0.3,0.2-0.5,0.5-0.5
					c1.3,0,2.4,1.1,2.4,2.4v0.1C18.4,23,18.2,23.3,18,23.3z"/>
				<path class="st4" d="M19.9,23.3c-0.3,0-0.5-0.2-0.5-0.5v-0.1c0-1.3,1.1-2.4,2.4-2.4c0.3,0,0.5,0.2,0.5,0.5
					c0,0.3-0.2,0.5-0.5,0.5c-0.8,0-1.4,0.7-1.4,1.5v0.1C20.4,23,20.1,23.3,19.9,23.3z"/>
				<path class="st5" d="M21.3,24.6c0,0.2,0,0.4-0.1,0.6h-4.6c-0.1-0.2-0.1-0.4-0.1-0.6c0-1.3,1.1-2.4,2.4-2.4
					C20.2,22.2,21.3,23.2,21.3,24.6z"/>
				<path class="st6" d="M21.3,24.6c0,0.2,0,0.4-0.1,0.6h-2.3v-3C20.2,22.2,21.3,23.2,21.3,24.6z"/>
				<g>
					<path class="st3" d="M12.7,35.3l-1-1.9c-0.1-0.1-0.1-0.3,0-0.4c0-0.1,0.1-0.2,0.3-0.3l2.3-1c0.2-0.1,0.5,0,0.6,0.3
						c0.1,0.2,0,0.5-0.3,0.6l-1.8,0.8l0.7,1.5c0.1,0.2,0,0.5-0.2,0.6C13.1,35.7,12.8,35.6,12.7,35.3L12.7,35.3z"/>
					<path class="st3" d="M11,30.8c-0.2-0.1-0.3-0.4-0.2-0.6l1-1.9c0.1-0.2,0.4-0.3,0.6-0.2l1.9,1c0.2,0.1,0.3,0.4,0.2,0.6
						c-0.1,0.2-0.4,0.3-0.6,0.2L12.4,29l-0.7,1.5C11.6,30.8,11.2,30.9,11,30.8L11,30.8z"/>
					<path class="st3" d="M15.3,26.9L13,26c-0.2-0.1-0.3-0.2-0.3-0.4v-1.9c0-0.3,0.2-0.5,0.5-0.5c0.3,0,0.5,0.2,0.5,0.5v1.6l2,0.8
						c0.2,0.1,0.4,0.4,0.3,0.6C15.8,26.9,15.6,27,15.3,26.9z"/>
				</g>
				<path class="st4" d="M24.5,35.5c-0.2-0.1-0.3-0.4-0.2-0.6l0.7-1.5l-1.8-0.8c-0.2-0.1-0.4-0.4-0.3-0.6c0.1-0.2,0.4-0.4,0.6-0.3
					l2.3,1c0.1,0.1,0.2,0.2,0.3,0.3c0,0.1,0,0.3,0,0.4l-1,1.9C25,35.6,24.7,35.7,24.5,35.5L24.5,35.5z"/>
				<path class="st4" d="M26.2,30.5L25.4,29l-1.5,0.7c-0.2,0.1-0.5,0-0.6-0.2c-0.1-0.2,0-0.5,0.2-0.6l1.9-1c0.2-0.1,0.5,0,0.6,0.2
					l1,1.9c0.1,0.2,0,0.5-0.2,0.6C26.6,30.9,26.3,30.8,26.2,30.5L26.2,30.5z"/>
				<path class="st4" d="M21.9,26.7c-0.1-0.2,0-0.5,0.3-0.6l2-0.8v-1.6c0-0.3,0.2-0.5,0.5-0.5c0.3,0,0.5,0.2,0.5,0.5v1.9
					c0,0.2-0.1,0.4-0.3,0.4l-2.3,1C22.3,27,22,26.9,21.9,26.7L21.9,26.7z"/>
				<path class="st3" d="M18,36.6c-0.3,0-0.5-0.2-0.5-0.5v-1c0-0.3,0.2-0.5,0.5-0.5s0.5,0.2,0.5,0.5v1C18.4,36.4,18.2,36.6,18,36.6z
					"/>
				<path class="st4" d="M19.9,36.6c-0.3,0-0.5-0.2-0.5-0.5v-1c0-0.3,0.2-0.5,0.5-0.5c0.3,0,0.5,0.2,0.5,0.5v1
					C20.4,36.4,20.1,36.6,19.9,36.6z"/>
				<path class="st7" d="M18.9,27h2.4l1.3-1c-0.9-1.1-2.2-1.9-3.7-1.9s-2.7,0.8-3.7,1.9l1.3,1H18.9z"/>
				<path class="st8" d="M22.6,26c-0.9-1.1-2.2-1.9-3.7-1.9V27h2.4L22.6,26z"/>
				<path class="st5" d="M18.9,28.9h3.4l1.4-1c-0.3-0.7-0.7-1.3-1.1-1.9h-3.7h-3.7c-0.5,0.6-0.9,1.2-1.1,1.9l1.1,1H18.9z"/>
				<path class="st6" d="M23.7,27.9c-0.3-0.7-0.7-1.3-1.1-1.9h-3.7v2.9h3.4L23.7,27.9z"/>
				<path class="st7" d="M18.9,30.8h4.3l0.9-1c-0.1-0.6-0.2-1.3-0.5-1.9h-4.8h-4.8c-0.3,0.6-0.4,1.3-0.5,1.9l1.2,1H18.9z"/>
				<path class="st8" d="M24.2,29.8c-0.1-0.6-0.2-1.3-0.5-1.9h-4.8v2.9h4.3L24.2,29.8z"/>
				<path class="st5" d="M24.2,29.8h-5.3h-5.3c0,0.2,0,0.3,0,0.5c0,0.5,0.1,1,0.2,1.4l1.2,1h3.9h3.7l1.4-1c0.1-0.5,0.2-0.9,0.2-1.4
					C24.2,30.2,24.2,30,24.2,29.8L24.2,29.8z"/>
				<path class="st6" d="M24,31.8c0.1-0.5,0.2-0.9,0.2-1.4c0-0.2,0-0.3,0-0.5h-5.3v2.9h3.7L24,31.8z"/>
				<path class="st7" d="M13.8,31.8c0.2,0.7,0.5,1.4,1,1.9l2.1,1h2h2l2.1-1c0.5-0.6,0.8-1.2,1-1.9h-5.1H13.8z"/>
				<path class="st8" d="M23,33.7c0.5-0.6,0.8-1.2,1-1.9h-5.1v2.9h2L23,33.7z"/>
				<path class="st5" d="M14.8,33.7c1,1.2,2.4,2,4.1,2c1.6,0,3.1-0.8,4.1-2h-4.1H14.8z"/>
				<path class="st6" d="M23,33.7h-4.1v2C20.6,35.6,22,34.9,23,33.7z"/>
			</g>
		</g>
		<g>
			<g>
				<path class="st2" d="M36.3,27.3l-2.6-0.9c-0.1,0-0.2-0.1-0.3-0.2l-0.9-1.7h-1.7c-0.3,0-0.5-0.2-0.5-0.5c0-0.3,0.2-0.5,0.5-0.5h2
					c0.2,0,0.4,0.1,0.4,0.3l0.9,1.8l2.4,0.8c0.3,0.1,0.4,0.4,0.3,0.6C36.8,27.2,36.5,27.4,36.3,27.3L36.3,27.3z"/>
				<path class="st2" d="M30.5,31.1c-0.1-0.2,0-0.5,0.2-0.7l1.8-0.9l0.9-1.8c0.1-0.2,0.3-0.3,0.4-0.3h1.8c0.3,0,0.5,0.2,0.5,0.5
					c0,0.3-0.2,0.5-0.5,0.5h-1.5l-0.9,1.7c0,0.1-0.1,0.2-0.2,0.2l-2,1C30.9,31.5,30.6,31.4,30.5,31.1L30.5,31.1z"/>
				<g>
					<path class="st2" d="M38.8,27c-0.1-0.3,0.1-0.5,0.3-0.6l2.4-0.8l0.9-1.8c0.1-0.2,0.3-0.3,0.4-0.3h2c0.3,0,0.5,0.2,0.5,0.5
						c0,0.3-0.2,0.5-0.5,0.5h-1.7l-0.9,1.7c-0.1,0.1-0.2,0.2-0.3,0.2l-2.6,0.9C39.1,27.4,38.9,27.2,38.8,27z"/>
					<path class="st2" d="M44.6,31.4l-2-1c-0.1,0-0.2-0.1-0.2-0.2l-0.9-1.7H40c-0.3,0-0.5-0.2-0.5-0.5s0.2-0.5,0.5-0.5h1.8
						c0.2,0,0.4,0.1,0.4,0.3l0.9,1.8l1.8,0.9c0.2,0.1,0.3,0.4,0.2,0.7C45.1,31.4,44.8,31.5,44.6,31.4L44.6,31.4z"/>
					<path class="st2" d="M39.8,24.4c-0.2,0-0.4-0.1-0.5-0.3c-0.1-0.3,0-0.5,0.3-0.6c0.4-0.1,0.7-0.5,0.7-0.9c0-0.5-0.4-1-1-1
						c-0.3,0-0.5-0.2-0.5-0.5s0.2-0.5,0.5-0.5c1.1,0,2,0.9,2,2c0,0.8-0.5,1.6-1.3,1.9C39.9,24.4,39.9,24.4,39.8,24.4z"/>
				</g>
				<path class="st2" d="M35.9,24.4c-0.1,0-0.1,0-0.2,0c-0.8-0.3-1.3-1-1.3-1.9c0-1.1,0.9-2,2-2c0.3,0,0.5,0.2,0.5,0.5
					s-0.2,0.5-0.5,0.5c-0.5,0-1,0.4-1,1c0,0.4,0.3,0.8,0.7,0.9c0.3,0.1,0.4,0.4,0.3,0.6C36.3,24.3,36.1,24.4,35.9,24.4z"/>
				<path class="st2" d="M38.2,24.7c-0.1-0.1-0.2-0.2-0.4-0.2c-0.1,0-0.3,0-0.4,0.2c-0.2,0.2-4.1,4.8-4.1,8.2c0,4,2.5,4.5,4.5,4.5
					c1.9,0,4.5-0.5,4.5-4.5C42.3,29.5,38.4,24.8,38.2,24.7z"/>
				<path class="st2" d="M42.3,32.9c0,4-2.5,4.5-4.5,4.5V24.5c0.1,0,0.3,0,0.4,0.2C38.4,24.8,42.3,29.5,42.3,32.9z"/>
				<path class="st2" d="M38.2,24.6c-0.1-0.1-0.2-0.1-0.3-0.1c-0.1,0-0.2,0-0.3,0.1c-0.1,0.1-2.1,2-2.1,4.3c0,2.5,1.1,4.5,2.5,4.5
					c1.4,0,2.5-1.9,2.5-4.5C40.3,26.6,38.3,24.7,38.2,24.6z"/>
				<path class="st2" d="M40.3,28.9c0,2.5-1.1,4.5-2.5,4.5v-8.9c0.1,0,0.2,0,0.3,0.1C38.3,24.7,40.3,26.6,40.3,28.9z"/>
				<path class="st2" d="M38.8,22.5h-2c-0.8,0-1.5,0.7-1.5,1.5c0,0.8,0.7,1.5,1.5,1.5h2c0.8,0,1.5-0.7,1.5-1.5
					C40.3,23.2,39.7,22.5,38.8,22.5z"/>
				<path class="st2" d="M40.3,24c0,0.8-0.7,1.5-1.5,1.5h-1v-3h1C39.7,22.5,40.3,23.2,40.3,24z"/>
			</g>
			<g>
				<path class="st9" d="M36.3,26.7l-2.6-0.9c-0.1,0-0.2-0.1-0.3-0.2l-0.9-1.7h-1.7c-0.3,0-0.5-0.2-0.5-0.5c0-0.3,0.2-0.5,0.5-0.5h2
					c0.2,0,0.4,0.1,0.4,0.3l0.9,1.8l2.4,0.8c0.3,0.1,0.4,0.4,0.3,0.6C36.8,26.7,36.5,26.8,36.3,26.7L36.3,26.7z"/>
				<path class="st9" d="M30.5,30.6c-0.1-0.2,0-0.5,0.2-0.7l1.8-0.9l0.9-1.8c0.1-0.2,0.3-0.3,0.4-0.3h1.8c0.3,0,0.5,0.2,0.5,0.5
					c0,0.3-0.2,0.5-0.5,0.5h-1.5l-0.9,1.7c0,0.1-0.1,0.2-0.2,0.2l-2,1C30.9,30.9,30.6,30.8,30.5,30.6L30.5,30.6z"/>
				<g>
					<path class="st10" d="M38.8,26.4c-0.1-0.3,0.1-0.5,0.3-0.6l2.4-0.8l0.9-1.8c0.1-0.2,0.3-0.3,0.4-0.3h2c0.3,0,0.5,0.2,0.5,0.5
						c0,0.3-0.2,0.5-0.5,0.5h-1.7l-0.9,1.7c-0.1,0.1-0.2,0.2-0.3,0.2l-2.6,0.9C39.1,26.8,38.9,26.7,38.8,26.4z"/>
					<path class="st10" d="M44.6,30.8l-2-1c-0.1,0-0.2-0.1-0.2-0.2l-0.9-1.7H40c-0.3,0-0.5-0.2-0.5-0.5s0.2-0.5,0.5-0.5h1.8
						c0.2,0,0.4,0.1,0.4,0.3l0.9,1.8l1.8,0.9c0.2,0.1,0.3,0.4,0.2,0.7C45.1,30.8,44.8,30.9,44.6,30.8L44.6,30.8z"/>
					<path class="st10" d="M39.8,23.8c-0.2,0-0.4-0.1-0.5-0.3c-0.1-0.3,0-0.5,0.3-0.6c0.4-0.1,0.7-0.5,0.7-0.9c0-0.5-0.4-1-1-1
						c-0.3,0-0.5-0.2-0.5-0.5s0.2-0.5,0.5-0.5c1.1,0,2,0.9,2,2c0,0.8-0.5,1.6-1.3,1.9C39.9,23.8,39.9,23.8,39.8,23.8z"/>
				</g>
				<path class="st9" d="M35.9,23.8c-0.1,0-0.1,0-0.2,0c-0.8-0.3-1.3-1-1.3-1.9c0-1.1,0.9-2,2-2c0.3,0,0.5,0.2,0.5,0.5
					s-0.2,0.5-0.5,0.5c-0.5,0-1,0.4-1,1c0,0.4,0.3,0.8,0.7,0.9c0.3,0.1,0.4,0.4,0.3,0.6C36.3,23.7,36.1,23.8,35.9,23.8z"/>
				<path class="st11" d="M38.2,24.1c-0.1-0.1-0.2-0.2-0.4-0.2c-0.1,0-0.3,0-0.4,0.2c-0.2,0.2-4.1,4.8-4.1,8.2c0,4,2.5,4.5,4.5,4.5
					c1.9,0,4.5-0.5,4.5-4.5C42.3,28.9,38.4,24.3,38.2,24.1z"/>
				<path class="st12" d="M42.3,32.3c0,4-2.5,4.5-4.5,4.5V23.9c0.1,0,0.3,0,0.4,0.2C38.4,24.3,42.3,28.9,42.3,32.3z"/>
				<path class="st9" d="M38.2,24c-0.1-0.1-0.2-0.1-0.3-0.1c-0.1,0-0.2,0-0.3,0.1c-0.1,0.1-2.1,2-2.1,4.3c0,2.5,1.1,4.5,2.5,4.5
					c1.4,0,2.5-1.9,2.5-4.5C40.3,26,38.3,24.1,38.2,24z"/>
				<path class="st10" d="M40.3,28.4c0,2.5-1.1,4.5-2.5,4.5v-8.9c0.1,0,0.2,0,0.3,0.1C38.3,24.1,40.3,26,40.3,28.4z"/>
				<path class="st13" d="M38.8,21.9h-2c-0.8,0-1.5,0.7-1.5,1.5c0,0.8,0.7,1.5,1.5,1.5h2c0.8,0,1.5-0.7,1.5-1.5
					C40.3,22.6,39.7,21.9,38.8,21.9z"/>
				<path class="st9" d="M40.3,23.4c0,0.8-0.7,1.5-1.5,1.5h-1v-3h1C39.7,21.9,40.3,22.6,40.3,23.4z"/>
			</g>
		</g>
	</g>
	<g>
		<g>
			<path class="st2" d="M29,41.2v-2.6c0-0.3-0.2-0.5-0.5-0.5S28,38.4,28,38.6v2.6c-0.6,0.2-1,0.8-1,1.4c0,0.8,0.7,1.5,1.5,1.5
				s1.5-0.7,1.5-1.5C30,42,29.6,41.4,29,41.2z"/>
			<path class="st2" d="M27.2,45l-2-2c-0.1-0.1-0.1-0.2-0.1-0.4v-2.7l-1.7-0.9c-0.2-0.1-0.3-0.4-0.2-0.7c0.1-0.2,0.4-0.3,0.7-0.2
				l2,1c0.2,0.1,0.3,0.3,0.3,0.4v2.8l1.8,1.8c0.2,0.2,0.2,0.5,0,0.7C27.7,45.2,27.3,45.2,27.2,45L27.2,45z"/>
			<g>
				<path class="st2" d="M29.1,45c-0.2-0.2-0.2-0.5,0-0.7l1.8-1.8v-2.8c0-0.2,0.1-0.4,0.3-0.4l2-1c0.2-0.1,0.5,0,0.7,0.2
					c0.1,0.2,0,0.5-0.2,0.7L32,39.9v2.7c0,0.1-0.1,0.3-0.1,0.4l-2,2C29.7,45.2,29.3,45.2,29.1,45L29.1,45z"/>
				<path class="st2" d="M35.1,54l-2-2.1C33,51.8,33,51.7,33,51.6V50l-3.6-0.9c-0.3-0.1-0.4-0.3-0.4-0.6c0.1-0.3,0.3-0.4,0.6-0.4
					l4,1c0.2,0.1,0.4,0.3,0.4,0.5v1.8l1.8,1.9c0.2,0.2,0.2,0.5,0,0.7C35.6,54.2,35.3,54.2,35.1,54L35.1,54z"/>
				<path class="st2" d="M33.1,55l-2-2.1C31,52.8,31,52.7,31,52.6v-1.8l-1.8-1.8c-0.2-0.2-0.2-0.5,0-0.7c0.2-0.2,0.5-0.2,0.7,0l2,2
					c0.1,0.1,0.1,0.2,0.1,0.4v1.8l1.8,1.9c0.2,0.2,0.2,0.5,0,0.7C33.6,55.2,33.3,55.2,33.1,55L33.1,55z"/>
				<path class="st2" d="M29,41.2v-2.6c0-0.3-0.2-0.5-0.5-0.5v3v1v2c0.8,0,1.5-0.7,1.5-1.5C30,42,29.6,41.4,29,41.2z"/>
			</g>
			<path class="st2" d="M28.5,43.1c-0.8,0-1.5,0.7-1.5,1.5v1c0,0.8,0.7,1.5,1.5,1.5s1.5-0.7,1.5-1.5v-1C30,43.8,29.3,43.1,28.5,43.1
				z"/>
			<path class="st2" d="M30,44.6v1c0,0.8-0.7,1.5-1.5,1.5v-4C29.3,43.1,30,43.8,30,44.6z"/>
			<path class="st2" d="M35.5,47.1h-4c-1.4,0-2.5-1.1-2.5-2.5c0-0.3,0.2-0.5,0.5-0.5h6c0.8,0,1.5,0.7,1.5,1.5
				C37,46.4,36.3,47.1,35.5,47.1z"/>
			<path class="st2" d="M25.5,47.1h-4c-0.8,0-1.5-0.7-1.5-1.5c0-0.8,0.7-1.5,1.5-1.5h6c0.3,0,0.5,0.2,0.5,0.5
				C28,46,26.9,47.1,25.5,47.1z"/>
			<path class="st2" d="M21.2,54c-0.2-0.2-0.2-0.5,0-0.7l1.8-1.9v-1.8c0-0.2,0.2-0.4,0.4-0.5l4-1c0.3-0.1,0.5,0.1,0.6,0.4
				c0.1,0.3-0.1,0.5-0.4,0.6L24,50v1.6c0,0.1-0.1,0.3-0.1,0.4l-2,2.1C21.7,54.2,21.4,54.2,21.2,54L21.2,54z"/>
			<path class="st2" d="M23.2,55c-0.2-0.2-0.2-0.5,0-0.7l1.8-1.9v-1.8c0-0.1,0.1-0.3,0.1-0.4l2-2c0.2-0.2,0.5-0.2,0.7,0
				s0.2,0.5,0,0.7L26,50.8v1.8c0,0.1-0.1,0.3-0.1,0.4l-2,2.1C23.7,55.2,23.4,55.2,23.2,55z"/>
			<path class="st2" d="M29.5,50.6L29.5,50.6L29.5,50.6z M28.5,46.1c-0.8,0-1.5,0.7-1.5,1.5v3c0,0.1,0,0.1,0,0.2l1,2
				c0.1,0.2,0.3,0.3,0.4,0.3s0.4-0.1,0.4-0.3l1-2c0-0.1,0-0.1,0-0.2v-3C30,46.8,29.3,46.1,28.5,46.1z"/>
			<path class="st2" d="M30,47.6v3c0,0.1,0,0.1,0,0.2l-1,2c-0.1,0.2-0.3,0.3-0.4,0.3v-7C29.3,46.1,30,46.8,30,47.6z"/>
		</g>
		<g>
			<path class="st9" d="M29,40.7v-2.6c0-0.3-0.2-0.5-0.5-0.5S28,37.8,28,38.1v2.6c-0.6,0.2-1,0.8-1,1.4c0,0.8,0.7,1.5,1.5,1.5
				s1.5-0.7,1.5-1.5C30,41.4,29.6,40.9,29,40.7z"/>
			<path class="st9" d="M27.2,44.4l-2-2c-0.1-0.1-0.1-0.2-0.1-0.4v-2.7l-1.7-0.9c-0.2-0.1-0.3-0.4-0.2-0.7c0.1-0.2,0.4-0.3,0.7-0.2
				l2,1c0.2,0.1,0.3,0.3,0.3,0.4v2.8l1.8,1.8c0.2,0.2,0.2,0.5,0,0.7C27.7,44.6,27.3,44.6,27.2,44.4L27.2,44.4z"/>
			<g>
				<path class="st10" d="M29.1,44.4c-0.2-0.2-0.2-0.5,0-0.7l1.8-1.8v-2.8c0-0.2,0.1-0.4,0.3-0.4l2-1c0.2-0.1,0.5,0,0.7,0.2
					c0.1,0.2,0,0.5-0.2,0.7L32,39.4v2.7c0,0.1-0.1,0.3-0.1,0.4l-2,2C29.7,44.6,29.3,44.6,29.1,44.4L29.1,44.4z"/>
				<path class="st10" d="M35.1,53.5l-2-2.1C33,51.3,33,51.2,33,51v-1.6l-3.6-0.9c-0.3-0.1-0.4-0.3-0.4-0.6c0.1-0.3,0.3-0.4,0.6-0.4
					l4,1c0.2,0.1,0.4,0.3,0.4,0.5v1.8l1.8,1.9c0.2,0.2,0.2,0.5,0,0.7C35.6,53.7,35.3,53.7,35.1,53.5L35.1,53.5z"/>
				<path class="st10" d="M33.1,54.5l-2-2.1C31,52.3,31,52.2,31,52v-1.8l-1.8-1.8c-0.2-0.2-0.2-0.5,0-0.7c0.2-0.2,0.5-0.2,0.7,0l2,2
					c0.1,0.1,0.1,0.2,0.1,0.4v1.8l1.8,1.9c0.2,0.2,0.2,0.5,0,0.7C33.6,54.6,33.3,54.6,33.1,54.5L33.1,54.5z"/>
				<path class="st10" d="M29,40.7v-2.6c0-0.3-0.2-0.5-0.5-0.5v3v1v2c0.8,0,1.5-0.7,1.5-1.5C30,41.4,29.6,40.9,29,40.7z"/>
			</g>
			<path class="st13" d="M28.5,42.6c-0.8,0-1.5,0.7-1.5,1.5v1c0,0.8,0.7,1.5,1.5,1.5s1.5-0.7,1.5-1.5v-1
				C30,43.2,29.3,42.6,28.5,42.6z"/>
			<path class="st9" d="M30,44.1v1c0,0.8-0.7,1.5-1.5,1.5v-4C29.3,42.6,30,43.2,30,44.1z"/>
			<path class="st14" d="M35.5,46.6h-4c-1.4,0-2.5-1.1-2.5-2.5c0-0.3,0.2-0.5,0.5-0.5h6c0.8,0,1.5,0.7,1.5,1.5S36.3,46.6,35.5,46.6z
				"/>
			<path class="st15" d="M25.5,46.6h-4c-0.8,0-1.5-0.7-1.5-1.5s0.7-1.5,1.5-1.5h6c0.3,0,0.5,0.2,0.5,0.5
				C28,45.4,26.9,46.6,25.5,46.6z"/>
			<path class="st9" d="M21.2,53.5c-0.2-0.2-0.2-0.5,0-0.7l1.8-1.9v-1.8c0-0.2,0.2-0.4,0.4-0.5l4-1c0.3-0.1,0.5,0.1,0.6,0.4
				c0.1,0.3-0.1,0.5-0.4,0.6L24,49.4V51c0,0.1-0.1,0.3-0.1,0.4l-2,2.1C21.7,53.7,21.4,53.7,21.2,53.5L21.2,53.5z"/>
			<path class="st9" d="M23.2,54.5c-0.2-0.2-0.2-0.5,0-0.7l1.8-1.9V50c0-0.1,0.1-0.3,0.1-0.4l2-2c0.2-0.2,0.5-0.2,0.7,0
				s0.2,0.5,0,0.7L26,50.3V52c0,0.1-0.1,0.3-0.1,0.4l-2,2.1C23.7,54.6,23.4,54.6,23.2,54.5z"/>
			<path class="st11" d="M29.5,50L29.5,50L29.5,50z M28.5,45.6c-0.8,0-1.5,0.7-1.5,1.5v3c0,0.1,0,0.1,0,0.2l1,2
				c0.1,0.2,0.3,0.3,0.4,0.3s0.4-0.1,0.4-0.3l1-2c0-0.1,0-0.1,0-0.2v-3C30,46.2,29.3,45.6,28.5,45.6z"/>
			<path class="st12" d="M30,47.1v3c0,0.1,0,0.1,0,0.2l-1,2c-0.1,0.2-0.3,0.3-0.4,0.3v-7C29.3,45.6,30,46.2,30,47.1z"/>
		</g>
	</g>
</g>
</svg>
