<?xml version="1.0" encoding="utf-8"?>
<!-- Generator: Adobe Illustrator 22.1.0, SVG Export Plug-In . SVG Version: 6.00 Build 0)  -->
<svg version="1.1" id="Capa_1" xmlns="http://www.w3.org/2000/svg" xmlns:xlink="http://www.w3.org/1999/xlink" x="0px" y="0px"
	 viewBox="0 0 57 68" style="enable-background:new 0 0 57 68;" xml:space="preserve">
<style type="text/css">
	.st0{fill:#0ED1B2;}
	.st1{fill:#EF3A47;}
	.st2{fill:#08AF8F;}
	.st3{fill:#596C76;}
	.st4{fill:#465A61;}
	.st5{fill:#BF6015;}
	.st6{fill:#994C0F;}
	.st7{fill:#E08344;}
	.st8{fill:#D6702B;}
	.st9{fill:#53433F;}
	.st10{fill:#3E322E;}
	.st11{fill:#725D57;}
	.st12{fill:#FFE6B3;}
	.st13{fill:#FFF7CC;}
	.st14{fill:#FF9100;}
	.st15{fill:#FF641A;}
	.st16{fill:#5E240D;}
	.st17{fill:#7D3214;}
	.st18{fill:#963E1C;}
	.st19{fill:#B6F1FB;}
	.st20{fill:#6EE2F6;}
	.st21{fill:#FF9A42;}
	.st22{fill:#FFD185;}
	.st23{fill:#C24623;}
</style>
<g>
	<path class="st0" d="M51,52.6L33.3,62.8c-3,1.7-6.7,1.7-9.6,0L6,52.6c-3-1.7-4.8-4.9-4.8-8.4V23.8c0-3.4,1.8-6.6,4.8-8.4L23.7,5.2
		c3-1.7,6.7-1.7,9.6,0L51,15.4c3,1.7,4.8,4.9,4.8,8.4v20.4C55.8,47.7,54,50.8,51,52.6z"/>
	<path class="st1" d="M28.5,7.5c-3.3,0-6,2.7-6,6s2.7,6,6,6s6-2.7,6-6S31.8,7.5,28.5,7.5z M24.9,10.4c0.1-0.2,0.3-0.3,0.5-0.5
		c0.8-0.7,1.9-1.2,3.1-1.2c1,0,1.9,0.3,2.7,0.9l-6.5,6.5c-0.5-0.8-0.9-1.7-0.9-2.7C23.8,12.3,24.2,11.3,24.9,10.4z M32.1,16.6
		c-0.1,0.2-0.3,0.3-0.5,0.5c-0.8,0.7-1.9,1.2-3.1,1.2c-1,0-1.9-0.3-2.7-0.9l6.5-6.5c0.5,0.8,0.9,1.7,0.9,2.7
		C33.2,14.7,32.8,15.8,32.1,16.6z"/>
	<g>
		<g>
			<path class="st2" d="M19.4,23.5c-0.2,0-0.4-0.2-0.4-0.4V23c0-0.7-0.6-1.3-1.3-1.3c-0.2,0-0.4-0.2-0.4-0.4s0.2-0.4,0.4-0.4
				c1.2,0,2.1,1,2.1,2.1v0.1C19.9,23.3,19.7,23.5,19.4,23.5z"/>
			<path class="st2" d="M21.1,23.5c-0.2,0-0.4-0.2-0.4-0.4V23c0-1.2,0.9-2.1,2.1-2.1c0.2,0,0.4,0.2,0.4,0.4s-0.2,0.4-0.4,0.4
				c-0.7,0-1.3,0.6-1.3,1.3v0.1C21.5,23.3,21.4,23.5,21.1,23.5z"/>
			<path class="st2" d="M22.4,24.7c0,0.2,0,0.4-0.1,0.6h-4.1c-0.1-0.2-0.1-0.4-0.1-0.6c0-1.2,0.9-2.1,2.1-2.1
				C21.4,22.5,22.4,23.5,22.4,24.7z"/>
			<path class="st2" d="M22.4,24.7c0,0.2,0,0.4-0.1,0.6h-2v-2.7C21.4,22.5,22.4,23.5,22.4,24.7z"/>
			<g>
				<path class="st2" d="M14.8,34.1L14,32.5c-0.1-0.1-0.1-0.2,0-0.3c0-0.1,0.1-0.2,0.2-0.2l2-0.8c0.2-0.1,0.5,0,0.6,0.2
					c0.1,0.2,0,0.5-0.2,0.6l-1.6,0.7l0.6,1.3c0.1,0.2,0,0.5-0.2,0.6C15.2,34.4,14.9,34.4,14.8,34.1L14.8,34.1z"/>
				<path class="st2" d="M13.3,30.1c-0.2-0.1-0.3-0.4-0.2-0.6l0.9-1.7c0.1-0.2,0.4-0.3,0.6-0.2l1.7,0.8c0.2,0.1,0.3,0.4,0.2,0.6
					c-0.1,0.2-0.4,0.3-0.6,0.2l-1.3-0.7l-0.7,1.3C13.8,30.1,13.5,30.2,13.3,30.1L13.3,30.1z"/>
				<path class="st2" d="M17.1,26.7L15,25.9c-0.2-0.1-0.3-0.2-0.3-0.4v-1.7c0-0.2,0.2-0.4,0.4-0.4s0.4,0.2,0.4,0.4v1.4l1.8,0.7
					c0.2,0.1,0.3,0.3,0.2,0.6C17.6,26.7,17.3,26.8,17.1,26.7z"/>
			</g>
			<path class="st2" d="M25.2,34.3C25,34.2,24.9,34,25,33.8l0.6-1.3L24,31.8c-0.2-0.1-0.3-0.3-0.2-0.6s0.3-0.3,0.6-0.2l2,0.8
				c0.1,0,0.2,0.1,0.2,0.2c0,0.1,0,0.2,0,0.3l-0.8,1.7C25.6,34.4,25.4,34.4,25.2,34.3L25.2,34.3z"/>
			<path class="st2" d="M26.7,29.9L26,28.6l-1.3,0.7c-0.2,0.1-0.5,0-0.6-0.2c-0.1-0.2,0-0.5,0.2-0.6l1.7-0.8c0.2-0.1,0.5,0,0.6,0.2
				l0.9,1.7c0.1,0.2,0,0.5-0.2,0.6C27,30.2,26.8,30.1,26.7,29.9L26.7,29.9z"/>
			<path class="st2" d="M22.9,26.5c-0.1-0.2,0-0.5,0.2-0.6l1.8-0.7v-1.4c0-0.2,0.2-0.4,0.4-0.4c0.2,0,0.4,0.2,0.4,0.4v1.7
				c0,0.2-0.1,0.3-0.3,0.4l-2.1,0.8C23.2,26.8,23,26.7,22.9,26.5L22.9,26.5z"/>
			<path class="st2" d="M19.4,35.3c-0.2,0-0.4-0.2-0.4-0.4V34c0-0.2,0.2-0.4,0.4-0.4c0.2,0,0.4,0.2,0.4,0.4v0.8
				C19.9,35.1,19.7,35.3,19.4,35.3z"/>
			<path class="st2" d="M21.1,35.3c-0.2,0-0.4-0.2-0.4-0.4V34c0-0.2,0.2-0.4,0.4-0.4c0.2,0,0.4,0.2,0.4,0.4v0.8
				C21.5,35.1,21.4,35.3,21.1,35.3z"/>
			<path class="st2" d="M20.3,26.8h2.1l1.1-0.8c-0.8-1-2-1.7-3.2-1.7s-2.4,0.7-3.2,1.7l1.1,0.8H20.3z"/>
			<path class="st2" d="M23.5,25.9c-0.8-1-2-1.7-3.2-1.7v2.5h2.1L23.5,25.9z"/>
			<path class="st2" d="M20.3,28.5h3l1.3-0.8c-0.2-0.6-0.6-1.2-1-1.7h-3.2h-3.2c-0.4,0.5-0.8,1.1-1,1.7l1,0.8H20.3z"/>
			<path class="st2" d="M24.5,27.6c-0.2-0.6-0.6-1.2-1-1.7h-3.2v2.5h3L24.5,27.6z"/>
			<path class="st2" d="M20.3,30.2h3.8l0.8-0.8c0-0.6-0.2-1.1-0.4-1.7h-4.2h-4.2c-0.2,0.6-0.4,1.1-0.4,1.7l1,0.8H20.3z"/>
			<path class="st2" d="M24.9,29.3c0-0.6-0.2-1.1-0.4-1.7h-4.2v2.5h3.8L24.9,29.3z"/>
			<path class="st2" d="M24.9,29.3h-4.6h-4.6c0,0.1,0,0.3,0,0.4c0,0.4,0.1,0.9,0.2,1.3l1,0.8h3.5h3.2l1.3-0.8
				c0.1-0.4,0.2-0.8,0.2-1.3C24.9,29.6,24.9,29.5,24.9,29.3L24.9,29.3z"/>
			<path class="st2" d="M24.7,31c0.1-0.4,0.2-0.8,0.2-1.3c0-0.1,0-0.3,0-0.4h-4.6v2.5h3.2L24.7,31z"/>
			<path class="st2" d="M15.8,31c0.2,0.6,0.5,1.2,0.9,1.7l1.8,0.9h1.7H22l1.8-0.9c0.4-0.5,0.7-1.1,0.9-1.7h-4.5H15.8z"/>
			<path class="st2" d="M23.9,32.7c0.4-0.5,0.7-1.1,0.9-1.7h-4.5v2.6H22L23.9,32.7z"/>
			<path class="st2" d="M16.7,32.7c0.9,1,2.1,1.7,3.6,1.7c1.4,0,2.7-0.7,3.6-1.7h-3.6H16.7z"/>
			<path class="st2" d="M23.9,32.7h-3.6v1.7C21.7,34.4,23,33.7,23.9,32.7z"/>
		</g>
		<g>
			<path class="st3" d="M19.4,23c-0.2,0-0.4-0.2-0.4-0.4v-0.1c0-0.7-0.6-1.3-1.3-1.3c-0.2,0-0.4-0.2-0.4-0.4c0-0.2,0.2-0.4,0.4-0.4
				c1.2,0,2.1,1,2.1,2.1v0.1C19.9,22.8,19.7,23,19.4,23z"/>
			<path class="st4" d="M21.1,23c-0.2,0-0.4-0.2-0.4-0.4v-0.1c0-1.2,0.9-2.1,2.1-2.1c0.2,0,0.4,0.2,0.4,0.4c0,0.2-0.2,0.4-0.4,0.4
				c-0.7,0-1.3,0.6-1.3,1.3v0.1C21.5,22.8,21.4,23,21.1,23z"/>
			<path class="st5" d="M22.4,24.2c0,0.2,0,0.4-0.1,0.6h-4.1c-0.1-0.2-0.1-0.4-0.1-0.6c0-1.2,0.9-2.1,2.1-2.1
				C21.4,22.1,22.4,23,22.4,24.2z"/>
			<path class="st6" d="M22.4,24.2c0,0.2,0,0.4-0.1,0.6h-2v-2.7C21.4,22.1,22.4,23,22.4,24.2z"/>
			<g>
				<path class="st3" d="M14.8,33.7L14,32c-0.1-0.1-0.1-0.2,0-0.3c0-0.1,0.1-0.2,0.2-0.2l2-0.8c0.2-0.1,0.5,0,0.6,0.2
					c0.1,0.2,0,0.5-0.2,0.6L14.9,32l0.6,1.3c0.1,0.2,0,0.5-0.2,0.6C15.2,34,14.9,33.9,14.8,33.7L14.8,33.7z"/>
				<path class="st3" d="M13.3,29.6c-0.2-0.1-0.3-0.4-0.2-0.6l0.9-1.7c0.1-0.2,0.4-0.3,0.6-0.2l1.7,0.8c0.2,0.1,0.3,0.4,0.2,0.6
					c-0.1,0.2-0.4,0.3-0.6,0.2l-1.3-0.7l-0.7,1.3C13.8,29.6,13.5,29.7,13.3,29.6L13.3,29.6z"/>
				<path class="st3" d="M17.1,26.3L15,25.4c-0.2-0.1-0.3-0.2-0.3-0.4v-1.7c0-0.2,0.2-0.4,0.4-0.4s0.4,0.2,0.4,0.4v1.4l1.8,0.7
					c0.2,0.1,0.3,0.3,0.2,0.6C17.6,26.2,17.3,26.3,17.1,26.3z"/>
			</g>
			<path class="st4" d="M25.2,33.8c-0.2-0.1-0.3-0.4-0.2-0.6l0.6-1.3L24,31.3c-0.2-0.1-0.3-0.3-0.2-0.6s0.3-0.3,0.6-0.2l2,0.8
				c0.1,0,0.2,0.1,0.2,0.2c0,0.1,0,0.2,0,0.3l-0.8,1.7C25.6,33.9,25.4,34,25.2,33.8L25.2,33.8z"/>
			<path class="st4" d="M26.7,29.4L26,28.1l-1.3,0.7c-0.2,0.1-0.5,0-0.6-0.2c-0.1-0.2,0-0.5,0.2-0.6l1.7-0.8c0.2-0.1,0.5,0,0.6,0.2
				l0.9,1.7c0.1,0.2,0,0.5-0.2,0.6C27,29.7,26.8,29.6,26.7,29.4L26.7,29.4z"/>
			<path class="st4" d="M22.9,26c-0.1-0.2,0-0.5,0.2-0.6l1.8-0.7v-1.4c0-0.2,0.2-0.4,0.4-0.4c0.2,0,0.4,0.2,0.4,0.4V25
				c0,0.2-0.1,0.3-0.3,0.4l-2.1,0.8C23.2,26.3,23,26.2,22.9,26L22.9,26z"/>
			<path class="st3" d="M19.4,34.8c-0.2,0-0.4-0.2-0.4-0.4v-0.8c0-0.2,0.2-0.4,0.4-0.4c0.2,0,0.4,0.2,0.4,0.4v0.8
				C19.9,34.6,19.7,34.8,19.4,34.8z"/>
			<path class="st4" d="M21.1,34.8c-0.2,0-0.4-0.2-0.4-0.4v-0.8c0-0.2,0.2-0.4,0.4-0.4c0.2,0,0.4,0.2,0.4,0.4v0.8
				C21.5,34.6,21.4,34.8,21.1,34.8z"/>
			<path class="st7" d="M20.3,26.3h2.1l1.1-0.8c-0.8-1-2-1.7-3.2-1.7s-2.4,0.7-3.2,1.7l1.1,0.8H20.3z"/>
			<path class="st8" d="M23.5,25.4c-0.8-1-2-1.7-3.2-1.7v2.5h2.1L23.5,25.4z"/>
			<path class="st5" d="M20.3,28h3l1.3-0.8c-0.2-0.6-0.6-1.2-1-1.7h-3.2h-3.2c-0.4,0.5-0.8,1.1-1,1.7l1,0.8H20.3z"/>
			<path class="st6" d="M24.5,27.1c-0.2-0.6-0.6-1.2-1-1.7h-3.2V28h3L24.5,27.1z"/>
			<path class="st7" d="M20.3,29.7h3.8l0.8-0.8c0-0.6-0.2-1.1-0.4-1.7h-4.2h-4.2c-0.2,0.6-0.4,1.1-0.4,1.7l1,0.8H20.3z"/>
			<path class="st8" d="M24.9,28.8c0-0.6-0.2-1.1-0.4-1.7h-4.2v2.5h3.8L24.9,28.8z"/>
			<path class="st5" d="M24.9,28.8h-4.6h-4.6c0,0.1,0,0.3,0,0.4c0,0.4,0.1,0.9,0.2,1.3l1,0.8h3.5h3.2l1.3-0.8
				c0.1-0.4,0.2-0.8,0.2-1.3C24.9,29.1,24.9,29,24.9,28.8L24.9,28.8z"/>
			<path class="st6" d="M24.7,30.5c0.1-0.4,0.2-0.8,0.2-1.3c0-0.1,0-0.3,0-0.4h-4.6v2.5h3.2L24.7,30.5z"/>
			<path class="st7" d="M15.8,30.5c0.2,0.6,0.5,1.2,0.9,1.7l1.8,0.9h1.7H22l1.8-0.9c0.4-0.5,0.7-1.1,0.9-1.7h-4.5H15.8z"/>
			<path class="st8" d="M23.9,32.2c0.4-0.5,0.7-1.1,0.9-1.7h-4.5v2.6H22L23.9,32.2z"/>
			<path class="st5" d="M16.7,32.2c0.9,1,2.1,1.7,3.6,1.7c1.4,0,2.7-0.7,3.6-1.7h-3.6H16.7z"/>
			<path class="st6" d="M23.9,32.2h-3.6v1.7C21.7,33.9,23,33.2,23.9,32.2z"/>
		</g>
	</g>
	<g>
		<g>
			<path class="st2" d="M20.7,41.1v-2.3c0-0.3-0.2-0.4-0.4-0.4c-0.3,0-0.4,0.2-0.4,0.4v2.3c-0.5,0.2-0.9,0.7-0.9,1.3
				c0,0.7,0.6,1.3,1.3,1.3c0.7,0,1.3-0.6,1.3-1.3C21.6,41.8,21.2,41.3,20.7,41.1z"/>
			<path class="st2" d="M19.1,44.5l-1.8-1.8c-0.1-0.1-0.1-0.2-0.1-0.3v-2.4l-1.5-0.8c-0.2-0.1-0.3-0.4-0.2-0.6
				c0.1-0.2,0.4-0.3,0.6-0.2l1.8,0.9c0.2,0.1,0.2,0.2,0.2,0.4v2.5l1.7,1.7c0.2,0.2,0.2,0.5,0,0.6C19.5,44.7,19.2,44.7,19.1,44.5
				L19.1,44.5z"/>
			<g>
				<path class="st2" d="M20.9,44.5c-0.2-0.2-0.2-0.5,0-0.6l1.7-1.7v-2.5c0-0.2,0.1-0.3,0.2-0.4l1.8-0.9c0.2-0.1,0.5,0,0.6,0.2
					c0.1,0.2,0,0.5-0.2,0.6l-1.5,0.8v2.4c0,0.1,0,0.2-0.1,0.3l-1.8,1.8C21.3,44.7,21,44.7,20.9,44.5L20.9,44.5z"/>
				<path class="st2" d="M26.2,52.6l-1.8-1.9c-0.1-0.1-0.1-0.2-0.1-0.3V49l-3.3-0.8c-0.2-0.1-0.4-0.3-0.3-0.5
					c0.1-0.2,0.3-0.4,0.5-0.3l3.6,0.9c0.2,0.1,0.3,0.2,0.3,0.4v1.6l1.7,1.7c0.2,0.2,0.2,0.5,0,0.6C26.7,52.8,26.4,52.8,26.2,52.6
					L26.2,52.6z"/>
				<path class="st2" d="M24.5,53.5l-1.8-1.9c-0.1-0.1-0.1-0.2-0.1-0.3v-1.6l-1.7-1.7c-0.2-0.2-0.2-0.5,0-0.6s0.5-0.2,0.6,0l1.8,1.8
					c0.1,0.1,0.1,0.2,0.1,0.3v1.6l1.7,1.7c0.2,0.2,0.2,0.5,0,0.6C24.9,53.7,24.6,53.7,24.5,53.5L24.5,53.5z"/>
				<path class="st2" d="M20.7,41.1v-2.3c0-0.3-0.2-0.4-0.4-0.4V41v0.9v1.8c0.7,0,1.3-0.6,1.3-1.3C21.6,41.8,21.2,41.3,20.7,41.1z"
					/>
			</g>
			<path class="st2" d="M20.3,42.8c-0.7,0-1.3,0.6-1.3,1.3v0.9c0,0.7,0.6,1.3,1.3,1.3c0.7,0,1.3-0.6,1.3-1.3v-0.9
				C21.6,43.4,21,42.8,20.3,42.8z"/>
			<path class="st2" d="M21.6,44.2v0.9c0,0.7-0.6,1.3-1.3,1.3v-3.6C21,42.8,21.6,43.4,21.6,44.2z"/>
			<path class="st2" d="M26.6,46.4H23c-1.2,0-2.2-1-2.2-2.2c0-0.2,0.2-0.4,0.4-0.4h5.4c0.7,0,1.3,0.6,1.3,1.3S27.3,46.4,26.6,46.4z"
				/>
			<path class="st2" d="M17.6,46.4H14c-0.7,0-1.3-0.6-1.3-1.3s0.6-1.3,1.3-1.3h5.4c0.2,0,0.4,0.2,0.4,0.4
				C19.8,45.4,18.8,46.4,17.6,46.4z"/>
			<path class="st2" d="M13.7,52.6c-0.2-0.2-0.2-0.5,0-0.6l1.7-1.7v-1.6c0-0.2,0.1-0.4,0.3-0.4l3.6-0.9c0.2-0.1,0.5,0.1,0.5,0.3
				c0.1,0.2-0.1,0.5-0.3,0.5L16.2,49v1.4c0,0.1,0,0.2-0.1,0.3l-1.8,1.9C14.1,52.8,13.8,52.8,13.7,52.6L13.7,52.6z"/>
			<path class="st2" d="M15.5,53.5c-0.2-0.2-0.2-0.5,0-0.6l1.7-1.7v-1.6c0-0.1,0-0.2,0.1-0.3l1.8-1.8c0.2-0.2,0.5-0.2,0.6,0
				c0.2,0.2,0.2,0.5,0,0.6L18,49.7v1.6c0,0.1,0,0.2-0.1,0.3l-1.8,1.9C15.9,53.7,15.6,53.7,15.5,53.5z"/>
			<path class="st2" d="M21.2,49.6L21.2,49.6L21.2,49.6z M20.3,45.5c-0.7,0-1.3,0.6-1.3,1.3v2.7c0,0.1,0,0.1,0,0.2l0.9,1.8
				c0.1,0.2,0.2,0.3,0.4,0.3c0.2,0,0.3-0.1,0.4-0.3l0.9-1.8c0-0.1,0-0.1,0-0.2v-2.7C21.6,46.1,21,45.5,20.3,45.5z"/>
			<path class="st2" d="M21.6,46.9v2.7c0,0.1,0,0.1,0,0.2l-0.9,1.8c-0.1,0.2-0.2,0.3-0.4,0.3v-6.3C21,45.5,21.6,46.1,21.6,46.9z"/>
		</g>
		<g>
			<path class="st9" d="M20.7,40.6v-2.3c0-0.3-0.2-0.4-0.4-0.4c-0.3,0-0.4,0.2-0.4,0.4v2.3c-0.5,0.2-0.9,0.7-0.9,1.3
				c0,0.7,0.6,1.3,1.3,1.3c0.7,0,1.3-0.6,1.3-1.3C21.6,41.3,21.2,40.8,20.7,40.6z"/>
			<path class="st9" d="M19.1,44l-1.8-1.8c-0.1-0.1-0.1-0.2-0.1-0.3v-2.4l-1.5-0.8c-0.2-0.1-0.3-0.4-0.2-0.6
				c0.1-0.2,0.4-0.3,0.6-0.2l1.8,0.9c0.2,0.1,0.2,0.2,0.2,0.4v2.5l1.7,1.7c0.2,0.2,0.2,0.5,0,0.6C19.5,44.2,19.2,44.2,19.1,44
				L19.1,44z"/>
			<g>
				<path class="st10" d="M20.9,44c-0.2-0.2-0.2-0.5,0-0.6l1.7-1.7v-2.5c0-0.2,0.1-0.3,0.2-0.4l1.8-0.9c0.2-0.1,0.5,0,0.6,0.2
					c0.1,0.2,0,0.5-0.2,0.6l-1.5,0.8v2.4c0,0.1,0,0.2-0.1,0.3L21.5,44C21.3,44.2,21,44.2,20.9,44L20.9,44z"/>
				<path class="st10" d="M26.2,52.1l-1.8-1.9c-0.1-0.1-0.1-0.2-0.1-0.3v-1.4l-3.3-0.8c-0.2-0.1-0.4-0.3-0.3-0.5
					c0.1-0.2,0.3-0.4,0.5-0.3l3.6,0.9c0.2,0.1,0.3,0.2,0.3,0.4v1.6l1.7,1.7c0.2,0.2,0.2,0.5,0,0.6C26.7,52.3,26.4,52.3,26.2,52.1
					L26.2,52.1z"/>
				<path class="st10" d="M24.5,53l-1.8-1.9c-0.1-0.1-0.1-0.2-0.1-0.3v-1.6l-1.7-1.7c-0.2-0.2-0.2-0.5,0-0.6s0.5-0.2,0.6,0l1.8,1.8
					c0.1,0.1,0.1,0.2,0.1,0.3v1.6l1.7,1.7c0.2,0.2,0.2,0.5,0,0.6C24.9,53.2,24.6,53.2,24.5,53L24.5,53z"/>
				<path class="st10" d="M20.7,40.6v-2.3c0-0.3-0.2-0.4-0.4-0.4v2.7v0.9v1.8c0.7,0,1.3-0.6,1.3-1.3C21.6,41.3,21.2,40.8,20.7,40.6z
					"/>
			</g>
			<path class="st11" d="M20.3,42.3c-0.7,0-1.3,0.6-1.3,1.3v0.9c0,0.7,0.6,1.3,1.3,1.3c0.7,0,1.3-0.6,1.3-1.3v-0.9
				C21.6,42.9,21,42.3,20.3,42.3z"/>
			<path class="st9" d="M21.6,43.7v0.9c0,0.7-0.6,1.3-1.3,1.3v-3.6C21,42.3,21.6,42.9,21.6,43.7z"/>
			<path class="st12" d="M26.6,45.9H23c-1.2,0-2.2-1-2.2-2.2c0-0.2,0.2-0.4,0.4-0.4h5.4c0.7,0,1.3,0.6,1.3,1.3S27.3,45.9,26.6,45.9z
				"/>
			<path class="st13" d="M17.6,45.9H14c-0.7,0-1.3-0.6-1.3-1.3s0.6-1.3,1.3-1.3h5.4c0.2,0,0.4,0.2,0.4,0.4
				C19.8,44.9,18.8,45.9,17.6,45.9z"/>
			<path class="st9" d="M13.7,52.1c-0.2-0.2-0.2-0.5,0-0.6l1.7-1.7v-1.6c0-0.2,0.1-0.4,0.3-0.4l3.6-0.9c0.2-0.1,0.5,0.1,0.5,0.3
				c0.1,0.2-0.1,0.5-0.3,0.5l-3.3,0.8V50c0,0.1,0,0.2-0.1,0.3l-1.8,1.9C14.1,52.3,13.8,52.3,13.7,52.1L13.7,52.1z"/>
			<path class="st9" d="M15.5,53c-0.2-0.2-0.2-0.5,0-0.6l1.7-1.7v-1.6c0-0.1,0-0.2,0.1-0.3l1.8-1.8c0.2-0.2,0.5-0.2,0.6,0
				c0.2,0.2,0.2,0.5,0,0.6L18,49.3v1.6c0,0.1,0,0.2-0.1,0.3L16.1,53C15.9,53.2,15.6,53.2,15.5,53z"/>
			<path class="st14" d="M21.2,49.1L21.2,49.1L21.2,49.1z M20.3,45c-0.7,0-1.3,0.6-1.3,1.3v2.7c0,0.1,0,0.1,0,0.2l0.9,1.8
				c0.1,0.2,0.2,0.3,0.4,0.3c0.2,0,0.3-0.1,0.4-0.3l0.9-1.8c0-0.1,0-0.1,0-0.2v-2.7C21.6,45.6,21,45,20.3,45z"/>
			<path class="st15" d="M21.6,46.4v2.7c0,0.1,0,0.1,0,0.2l-0.9,1.8c-0.1,0.2-0.2,0.3-0.4,0.3V45C21,45,21.6,45.6,21.6,46.4z"/>
		</g>
	</g>
	<g>
		<g>
			<g>
				<path class="st2" d="M36.9,38.5c-0.1,0-0.2,0.1-0.2,0.2V42h0.4v-3.2C37.2,38.6,37.1,38.5,36.9,38.5z"/>
				<path class="st2" d="M43.8,52.1c-1.1-0.6-2-1.5-2.6-2.5v-2.2c0-0.1,0-0.1-0.1-0.2L38,44.1l-0.3,0.3l3.1,3.1v2.2c0,0,0,0.1,0,0.1
					c0.6,1.2,1.6,2.2,2.8,2.8c0,0,0.1,0,0.1,0c0.1,0,0.2,0,0.2-0.1C43.9,52.3,43.9,52.2,43.8,52.1L43.8,52.1z"/>
				<path class="st2" d="M42.4,53.2c-1.1-0.6-2-1.5-2.6-2.5V48c0,0,0-0.1,0-0.1l-1.9-2.8l-0.4,0.2l1.9,2.8v2.6c0,0,0,0.1,0,0.1
					C40,52,41,53,42.2,53.6c0,0,0.1,0,0.1,0c0.1,0,0.2,0,0.2-0.1C42.6,53.4,42.6,53.3,42.4,53.2L42.4,53.2z"/>
				<path class="st2" d="M41.9,38.4c-0.1-0.1-0.2-0.2-0.3-0.1c-0.9,0.5-1.7,1.2-2.1,2.1c0,0,0,0.1,0,0.1v1.8l-1.7,1.7l0.3,0.3
					l1.8-1.8c0,0,0.1-0.1,0.1-0.2v-1.8c0.4-0.8,1.1-1.5,1.9-1.9C41.9,38.7,41.9,38.6,41.9,38.4z"/>
				<path class="st2" d="M30.1,52.1c1.1-0.6,2-1.5,2.6-2.5v-2.2c0-0.1,0-0.1,0.1-0.2l3.1-3.1l0.3,0.3l-3.1,3.1v2.2c0,0,0,0.1,0,0.1
					c-0.6,1.2-1.6,2.2-2.8,2.8c0,0-0.1,0-0.1,0c-0.1,0-0.2,0-0.2-0.1C30,52.3,30,52.2,30.1,52.1L30.1,52.1z"/>
				<path class="st2" d="M31.5,53.2c1.1-0.6,2-1.5,2.6-2.5V48c0,0,0-0.1,0-0.1l1.9-2.8l0.4,0.2l-1.9,2.8v2.6c0,0,0,0.1,0,0.1
					c-0.6,1.2-1.6,2.2-2.8,2.8c0,0-0.1,0-0.1,0c-0.1,0-0.2,0-0.2-0.1C31.3,53.4,31.3,53.3,31.5,53.2z"/>
				<path class="st2" d="M32,38.4c0.1-0.1,0.2-0.2,0.3-0.1c0.9,0.5,1.7,1.2,2.1,2.1c0,0,0,0.1,0,0.1v1.8l1.7,1.7l-0.3,0.3l-1.8-1.8
					c0,0-0.1-0.1-0.1-0.2v-1.8c-0.4-0.8-1.1-1.5-1.9-1.9C32,38.7,32,38.6,32,38.4z"/>
			</g>
			<path class="st2" d="M37.8,42l-0.9-0.7l-0.2,2.2l0.7-0.4c0.3,0,0.6-0.3,0.6-0.6C38.1,42.3,38,42.2,37.8,42z"/>
			<path class="st2" d="M37.2,42.5c0-0.2,0-0.4,0-0.5l-0.2-0.7L36.1,42c-0.1,0.1-0.2,0.3-0.2,0.5c0,0.3,0.3,0.6,0.6,0.6l0.3,0.4
				l0.3-0.4C37.1,43.1,37.2,42.9,37.2,42.5z"/>
			<path class="st2" d="M30.2,43.8c-0.4,0-0.7,0.3-0.7,0.7c0,0.4,0.3,0.7,0.7,0.7h3c0.3,0,0.5,0,0.8-0.1l1.6-0.4l0.9-0.9H30.2z"/>
			<path class="st2" d="M43.7,43.8h-0.9v1.3h0.9c0.4,0,0.7-0.3,0.7-0.7C44.4,44.1,44.1,43.8,43.7,43.8z"/>
			<path class="st2" d="M43.5,44.5c0-0.4-0.3-0.7-0.7-0.7h-5.9l1.3,0.9l1.6,0.4c0.3,0.1,0.5,0.1,0.8,0.1h2.1
				C43.2,45.2,43.5,44.8,43.5,44.5z"/>
			<path class="st2" d="M37.6,49.4v0.7c0,0.4-0.3,0.7-0.7,0.7s-0.7-0.3-0.7-0.7v-0.7l0.7-0.4L37.6,49.4z"/>
			<path class="st2" d="M37.6,48.5v0.9h-1.3v-0.9l0.7-0.4L37.6,48.5z"/>
			<path class="st2" d="M37.6,47.6v0.9h-1.3v-0.9l0.7-0.4L37.6,47.6z"/>
			<path class="st2" d="M36.3,46.1h1.3v1.5h-1.3V46.1z"/>
			<path class="st2" d="M37.6,43.1h-0.9l0.2,3.6c0.8,0,1.4-0.6,1.4-1.3v-1.5C38.3,43.4,38,43.1,37.6,43.1z"/>
			<path class="st2" d="M37.4,45.3v-1.5c0-0.4-0.3-0.7-0.7-0.7h-0.4c-0.4,0-0.7,0.3-0.7,0.7v1.5c0,0.7,0.6,1.4,1.3,1.4
				C37.2,46.7,37.4,46.1,37.4,45.3z"/>
		</g>
		<g>
			<g>
				<path class="st16" d="M36.9,38.1c-0.1,0-0.2,0.1-0.2,0.2v3.2h0.4v-3.2C37.2,38.2,37.1,38.1,36.9,38.1z"/>
				<path class="st16" d="M43.8,51.7c-1.1-0.6-2-1.5-2.6-2.5v-2.2c0-0.1,0-0.1-0.1-0.2L38,43.6l-0.3,0.3l3.1,3.1v2.2
					c0,0,0,0.1,0,0.1c0.6,1.2,1.6,2.2,2.8,2.8c0,0,0.1,0,0.1,0c0.1,0,0.2,0,0.2-0.1C43.9,51.8,43.9,51.7,43.8,51.7L43.8,51.7z"/>
				<path class="st16" d="M42.4,52.7c-1.1-0.6-2-1.5-2.6-2.5v-2.6c0,0,0-0.1,0-0.1l-1.9-2.8l-0.4,0.2l1.9,2.8v2.6c0,0,0,0.1,0,0.1
					c0.6,1.2,1.6,2.2,2.8,2.8c0,0,0.1,0,0.1,0c0.1,0,0.2,0,0.2-0.1C42.6,52.9,42.6,52.8,42.4,52.7L42.4,52.7z"/>
				<path class="st16" d="M41.9,38c-0.1-0.1-0.2-0.2-0.3-0.1c-0.9,0.5-1.7,1.2-2.1,2.1c0,0,0,0.1,0,0.1v1.8l-1.7,1.7l0.3,0.3
					l1.8-1.8c0,0,0.1-0.1,0.1-0.2v-1.8c0.4-0.8,1.1-1.5,1.9-1.9C41.9,38.2,41.9,38.1,41.9,38z"/>
				<path class="st16" d="M30.1,51.7c1.1-0.6,2-1.5,2.6-2.5v-2.2c0-0.1,0-0.1,0.1-0.2l3.1-3.1l0.3,0.3L33.1,47v2.2c0,0,0,0.1,0,0.1
					c-0.6,1.2-1.6,2.2-2.8,2.8c0,0-0.1,0-0.1,0c-0.1,0-0.2,0-0.2-0.1C30,51.8,30,51.7,30.1,51.7L30.1,51.7z"/>
				<path class="st16" d="M31.5,52.7c1.1-0.6,2-1.5,2.6-2.5v-2.6c0,0,0-0.1,0-0.1l1.9-2.8l0.4,0.2l-1.9,2.8v2.6c0,0,0,0.1,0,0.1
					c-0.6,1.2-1.6,2.2-2.8,2.8c0,0-0.1,0-0.1,0c-0.1,0-0.2,0-0.2-0.1C31.3,52.9,31.3,52.8,31.5,52.7z"/>
				<path class="st16" d="M32,38c0.1-0.1,0.2-0.2,0.3-0.1c0.9,0.5,1.7,1.2,2.1,2.1c0,0,0,0.1,0,0.1v1.8l1.7,1.7l-0.3,0.3l-1.8-1.8
					c0,0-0.1-0.1-0.1-0.2v-1.8c-0.4-0.8-1.1-1.5-1.9-1.9C32,38.2,32,38.1,32,38z"/>
			</g>
			<path class="st17" d="M37.8,41.6l-0.9-0.7l-0.2,2.2l0.7-0.4c0.3,0,0.6-0.3,0.6-0.6C38.1,41.9,38,41.7,37.8,41.6z"/>
			<path class="st18" d="M37.2,42c0-0.2,0-0.4,0-0.5l-0.2-0.7l-0.9,0.7c-0.1,0.1-0.2,0.3-0.2,0.5c0,0.3,0.3,0.6,0.6,0.6l0.3,0.4
				l0.3-0.4C37.1,42.6,37.2,42.4,37.2,42z"/>
			<path class="st19" d="M30.2,43.3c-0.4,0-0.7,0.3-0.7,0.7c0,0.4,0.3,0.7,0.7,0.7h3c0.3,0,0.5,0,0.8-0.1l1.6-0.4l0.9-0.9H30.2z"/>
			<path class="st20" d="M43.7,43.3h-0.9v1.3h0.9c0.4,0,0.7-0.3,0.7-0.7C44.4,43.6,44.1,43.3,43.7,43.3z"/>
			<path class="st19" d="M43.5,44c0-0.4-0.3-0.7-0.7-0.7h-5.9l1.3,0.9l1.6,0.4c0.3,0.1,0.5,0.1,0.8,0.1h2.1
				C43.2,44.7,43.5,44.4,43.5,44z"/>
			<path class="st21" d="M37.6,48.9v0.7c0,0.4-0.3,0.7-0.7,0.7s-0.7-0.3-0.7-0.7v-0.7l0.7-0.4L37.6,48.9z"/>
			<path class="st22" d="M37.6,48v0.9h-1.3V48l0.7-0.4L37.6,48z"/>
			<path class="st21" d="M37.6,47.1V48h-1.3v-0.9l0.7-0.4L37.6,47.1z"/>
			<path class="st22" d="M36.3,45.6h1.3v1.5h-1.3V45.6z"/>
			<path class="st18" d="M37.6,42.6h-0.9l0.2,3.6c0.8,0,1.4-0.6,1.4-1.3v-1.5C38.3,42.9,38,42.6,37.6,42.6z"/>
			<path class="st23" d="M37.4,44.9v-1.5c0-0.4-0.3-0.7-0.7-0.7h-0.4c-0.4,0-0.7,0.3-0.7,0.7v1.5c0,0.7,0.6,1.4,1.3,1.4
				C37.2,46.2,37.4,45.6,37.4,44.9z"/>
		</g>
	</g>
	<g>
		<g>
			<path class="st2" d="M35.6,26.6l-2.3-0.8c-0.1,0-0.2-0.1-0.3-0.2l-0.8-1.5h-1.5c-0.2,0-0.4-0.2-0.4-0.4s0.2-0.4,0.4-0.4h1.7
				c0.2,0,0.3,0.1,0.4,0.2l0.8,1.6l2.1,0.7c0.2,0.1,0.4,0.3,0.3,0.6C36.1,26.5,35.8,26.6,35.6,26.6L35.6,26.6z"/>
			<path class="st2" d="M30.4,30c-0.1-0.2,0-0.5,0.2-0.6l1.6-0.8l0.8-1.6c0.1-0.1,0.2-0.2,0.4-0.2h1.6c0.2,0,0.4,0.2,0.4,0.4
				s-0.2,0.4-0.4,0.4h-1.3L33,29.1c0,0.1-0.1,0.2-0.2,0.2L31,30.2C30.8,30.3,30.6,30.2,30.4,30L30.4,30z"/>
			<g>
				<path class="st2" d="M37.8,26.3c-0.1-0.2,0-0.5,0.3-0.6l2.1-0.7l0.8-1.6c0.1-0.1,0.2-0.2,0.4-0.2h1.7c0.2,0,0.4,0.2,0.4,0.4
					s-0.2,0.4-0.4,0.4h-1.5l-0.8,1.5c-0.1,0.1-0.1,0.2-0.3,0.2l-2.3,0.8C38.1,26.6,37.8,26.5,37.8,26.3z"/>
				<path class="st2" d="M42.9,30.2l-1.7-0.9c-0.1,0-0.2-0.1-0.2-0.2l-0.8-1.5h-1.3c-0.2,0-0.4-0.2-0.4-0.4c0-0.2,0.2-0.4,0.4-0.4
					h1.6c0.2,0,0.3,0.1,0.4,0.2l0.8,1.6l1.6,0.8c0.2,0.1,0.3,0.4,0.2,0.6C43.3,30.2,43.1,30.3,42.9,30.2L42.9,30.2z"/>
				<path class="st2" d="M38.7,24c-0.2,0-0.3-0.1-0.4-0.3c-0.1-0.2,0-0.5,0.3-0.6c0.3-0.1,0.6-0.5,0.6-0.8c0-0.5-0.4-0.9-0.9-0.9
					c-0.2,0-0.4-0.2-0.4-0.4s0.2-0.4,0.4-0.4c1,0,1.7,0.8,1.7,1.7c0,0.7-0.5,1.4-1.2,1.6C38.8,24,38.7,24,38.7,24z"/>
			</g>
			<path class="st2" d="M35.2,24c0,0-0.1,0-0.1,0c-0.7-0.2-1.2-0.9-1.2-1.6c0-1,0.8-1.7,1.7-1.7c0.2,0,0.4,0.2,0.4,0.4
				s-0.2,0.4-0.4,0.4c-0.5,0-0.9,0.4-0.9,0.9c0,0.4,0.2,0.7,0.6,0.8c0.2,0.1,0.3,0.3,0.3,0.6C35.6,23.9,35.4,24,35.2,24z"/>
			<path class="st2" d="M37.3,24.3c-0.1-0.1-0.2-0.1-0.3-0.1s-0.2,0-0.3,0.1c-0.1,0.2-3.6,4.2-3.6,7.3c0,3.5,2.2,4,3.9,4
				s3.9-0.5,3.9-4C40.9,28.5,37.4,24.4,37.3,24.3z"/>
			<path class="st2" d="M40.9,31.5c0,3.5-2.2,4-3.9,4V24.1c0.1,0,0.2,0,0.3,0.1C37.4,24.4,40.9,28.5,40.9,31.5z"/>
			<path class="st2" d="M37.2,24.2c-0.1-0.1-0.2-0.1-0.3-0.1s-0.2,0-0.3,0.1c-0.1,0.1-1.9,1.7-1.9,3.8c0,2.2,0.9,3.9,2.2,3.9
				c1.2,0,2.2-1.7,2.2-3.9C39.1,25.9,37.3,24.3,37.2,24.2z"/>
			<path class="st2" d="M39.1,28c0,2.2-0.9,3.9-2.2,3.9v-7.9c0.1,0,0.2,0,0.3,0.1C37.3,24.3,39.1,25.9,39.1,28z"/>
			<path class="st2" d="M37.8,22.3h-1.7c-0.7,0-1.3,0.6-1.3,1.3c0,0.7,0.6,1.3,1.3,1.3h1.7c0.7,0,1.3-0.6,1.3-1.3
				C39.1,22.9,38.5,22.3,37.8,22.3z"/>
			<path class="st2" d="M39.1,23.7c0,0.7-0.6,1.3-1.3,1.3h-0.9v-2.6h0.9C38.5,22.3,39.1,22.9,39.1,23.7z"/>
		</g>
		<g>
			<path class="st9" d="M35.6,26.1l-2.3-0.8c-0.1,0-0.2-0.1-0.3-0.2l-0.8-1.5h-1.5c-0.2,0-0.4-0.2-0.4-0.4c0-0.2,0.2-0.4,0.4-0.4
				h1.7c0.2,0,0.3,0.1,0.4,0.2l0.8,1.6l2.1,0.7c0.2,0.1,0.4,0.3,0.3,0.6C36.1,26,35.8,26.1,35.6,26.1L35.6,26.1z"/>
			<path class="st9" d="M30.4,29.5c-0.1-0.2,0-0.5,0.2-0.6l1.6-0.8l0.8-1.6c0.1-0.1,0.2-0.2,0.4-0.2h1.6c0.2,0,0.4,0.2,0.4,0.4
				s-0.2,0.4-0.4,0.4h-1.3L33,28.6c0,0.1-0.1,0.2-0.2,0.2L31,29.7C30.8,29.8,30.6,29.7,30.4,29.5L30.4,29.5z"/>
			<g>
				<path class="st10" d="M37.8,25.8c-0.1-0.2,0-0.5,0.3-0.6l2.1-0.7l0.8-1.6c0.1-0.1,0.2-0.2,0.4-0.2h1.7c0.2,0,0.4,0.2,0.4,0.4
					c0,0.2-0.2,0.4-0.4,0.4h-1.5l-0.8,1.5c-0.1,0.1-0.1,0.2-0.3,0.2l-2.3,0.8C38.1,26.1,37.8,26,37.8,25.8z"/>
				<path class="st10" d="M42.9,29.7l-1.7-0.9c-0.1,0-0.2-0.1-0.2-0.2l-0.8-1.5h-1.3c-0.2,0-0.4-0.2-0.4-0.4s0.2-0.4,0.4-0.4h1.6
					c0.2,0,0.3,0.1,0.4,0.2l0.8,1.6l1.6,0.8c0.2,0.1,0.3,0.4,0.2,0.6C43.3,29.7,43.1,29.8,42.9,29.7L42.9,29.7z"/>
				<path class="st10" d="M38.7,23.5c-0.2,0-0.3-0.1-0.4-0.3c-0.1-0.2,0-0.5,0.3-0.6c0.3-0.1,0.6-0.5,0.6-0.8c0-0.5-0.4-0.9-0.9-0.9
					c-0.2,0-0.4-0.2-0.4-0.4c0-0.2,0.2-0.4,0.4-0.4c1,0,1.7,0.8,1.7,1.7c0,0.7-0.5,1.4-1.2,1.6C38.8,23.5,38.7,23.5,38.7,23.5z"/>
			</g>
			<path class="st9" d="M35.2,23.5c0,0-0.1,0-0.1,0c-0.7-0.2-1.2-0.9-1.2-1.6c0-1,0.8-1.7,1.7-1.7c0.2,0,0.4,0.2,0.4,0.4
				c0,0.2-0.2,0.4-0.4,0.4c-0.5,0-0.9,0.4-0.9,0.9c0,0.4,0.2,0.7,0.6,0.8c0.2,0.1,0.3,0.3,0.3,0.6C35.6,23.4,35.4,23.5,35.2,23.5z"
				/>
			<path class="st14" d="M37.3,23.7c-0.1-0.1-0.2-0.1-0.3-0.1s-0.2,0-0.3,0.1C36.5,23.9,33,28,33,31c0,3.5,2.2,4,3.9,4
				s3.9-0.5,3.9-4C40.9,28,37.4,23.9,37.3,23.7z"/>
			<path class="st15" d="M40.9,31c0,3.5-2.2,4-3.9,4V23.6c0.1,0,0.2,0,0.3,0.1C37.4,23.9,40.9,28,40.9,31z"/>
			<path class="st9" d="M37.2,23.7c-0.1-0.1-0.2-0.1-0.3-0.1s-0.2,0-0.3,0.1c-0.1,0.1-1.9,1.7-1.9,3.8c0,2.2,0.9,3.9,2.2,3.9
				c1.2,0,2.2-1.7,2.2-3.9C39.1,25.4,37.3,23.8,37.2,23.7z"/>
			<path class="st10" d="M39.1,27.5c0,2.2-0.9,3.9-2.2,3.9v-7.9c0.1,0,0.2,0,0.3,0.1C37.3,23.8,39.1,25.4,39.1,27.5z"/>
			<path class="st11" d="M37.8,21.8h-1.7c-0.7,0-1.3,0.6-1.3,1.3c0,0.7,0.6,1.3,1.3,1.3h1.7c0.7,0,1.3-0.6,1.3-1.3
				C39.1,22.4,38.5,21.8,37.8,21.8z"/>
			<path class="st9" d="M39.1,23.2c0,0.7-0.6,1.3-1.3,1.3h-0.9v-2.6h0.9C38.5,21.8,39.1,22.4,39.1,23.2z"/>
		</g>
	</g>
</g>
</svg>
