<?xml version="1.0" encoding="UTF-8"?>
<svg xmlns="http://www.w3.org/2000/svg" xmlns:xlink="http://www.w3.org/1999/xlink" width="57pt" height="68pt" viewBox="0 0 57 68" version="1.1">
<g id="surface1">
<path style=" stroke:none;fill-rule:nonzero;fill:rgb(72.941176%,29.803922%,12.54902%);fill-opacity:1;" d="M 51 52.601562 L 33.300781 62.800781 C 30.300781 64.5 26.601562 64.5 23.699219 62.800781 L 6 52.601562 C 3 50.898438 1.199219 47.699219 1.199219 44.199219 L 1.199219 23.800781 C 1.199219 20.398438 3 17.199219 6 15.398438 L 23.699219 5.199219 C 26.699219 3.5 30.398438 3.5 33.300781 5.199219 L 51 15.398438 C 54 17.101562 55.800781 20.300781 55.800781 23.800781 L 55.800781 44.199219 C 55.800781 47.699219 54 50.800781 51 52.601562 Z M 51 52.601562 "/>
<path style=" stroke:none;fill-rule:nonzero;fill:rgb(91.764706%,91.764706%,91.764706%);fill-opacity:1;" d="M 30.398438 11 C 30.398438 9.289062 29.726562 7.898438 28.898438 7.898438 C 28.070312 7.898438 27.398438 9.289062 27.398438 11 C 27.398438 12.710938 28.070312 14.101562 28.898438 14.101562 C 29.726562 14.101562 30.398438 12.710938 30.398438 11 Z M 30.398438 11 "/>
<path style=" stroke:none;fill-rule:nonzero;fill:rgb(91.764706%,91.764706%,91.764706%);fill-opacity:1;" d="M 50.597656 19.007812 C 50.011719 18.421875 48.558594 18.925781 47.347656 20.136719 C 46.136719 21.347656 45.628906 22.804688 46.214844 23.390625 C 46.800781 23.976562 48.257812 23.46875 49.46875 22.257812 C 50.679688 21.046875 51.183594 19.589844 50.597656 19.007812 Z M 50.597656 19.007812 "/>
<path style=" stroke:none;fill-rule:nonzero;fill:rgb(91.764706%,91.764706%,91.764706%);fill-opacity:1;" d="M 10.652344 20.101562 C 9.441406 18.894531 7.988281 18.386719 7.402344 18.972656 C 6.816406 19.558594 7.320312 21.015625 8.53125 22.226562 C 9.742188 23.433594 11.199219 23.941406 11.785156 23.355469 C 12.371094 22.769531 11.863281 21.3125 10.652344 20.101562 Z M 10.652344 20.101562 "/>
<path style=" stroke:none;fill-rule:nonzero;fill:rgb(91.764706%,91.764706%,91.764706%);fill-opacity:1;" d="M 11.601562 44.800781 C 11.601562 43.972656 10.210938 43.300781 8.5 43.300781 C 6.789062 43.300781 5.398438 43.972656 5.398438 44.800781 C 5.398438 45.628906 6.789062 46.300781 8.5 46.300781 C 10.210938 46.300781 11.601562 45.628906 11.601562 44.800781 Z M 11.601562 44.800781 "/>
<path style=" stroke:none;fill-rule:nonzero;fill:rgb(100%,87.45098%,36.862745%);fill-opacity:1;" d="M 13.300781 32.5 C 14.300781 32.898438 15 33.898438 15 35.101562 C 15 35.699219 14.800781 36.199219 14.5 36.601562 C 14.199219 37 13.800781 37.398438 13.300781 37.601562 C 10.398438 38.800781 8.300781 41.699219 8.300781 45 C 8.300781 49 11.199219 52.300781 15 52.898438 L 15 57.699219 L 23.601562 62.699219 C 26.601562 64.398438 30.300781 64.398438 33.199219 62.699219 L 42.199219 57.5 L 42.199219 37.300781 C 42.199219 35.101562 43.398438 33.199219 45.300781 32.101562 C 47.800781 30.699219 49.5 28 49.5 24.898438 C 49.398438 20.699219 46 17.199219 41.699219 17.101562 C 39.898438 17 38.199219 17.601562 36.898438 18.5 C 36.699219 14.300781 33.199219 10.898438 28.898438 10.898438 C 24.601562 10.898438 21.101562 14.300781 20.898438 18.5 C 19.5 17.5 17.898438 17 16.101562 17.101562 C 11.800781 17.199219 8.398438 20.800781 8.300781 25.101562 C 8.300781 28.5 10.398438 31.300781 13.300781 32.5 Z M 13.300781 32.5 "/>
<path style=" stroke:none;fill-rule:nonzero;fill:rgb(100%,55.686275%,30.980392%);fill-opacity:1;" d="M 33 19 C 33 21.265625 31.164062 23.101562 28.898438 23.101562 C 26.636719 23.101562 24.800781 21.265625 24.800781 19 C 24.800781 16.734375 26.636719 14.898438 28.898438 14.898438 C 31.164062 14.898438 33 16.734375 33 19 Z M 33 19 "/>
<path style=" stroke:none;fill-rule:nonzero;fill:rgb(100%,55.686275%,30.980392%);fill-opacity:1;" d="M 20.5 45.101562 C 20.5 47.363281 18.664062 49.199219 16.398438 49.199219 C 14.136719 49.199219 12.300781 47.363281 12.300781 45.101562 C 12.300781 42.835938 14.136719 41 16.398438 41 C 18.664062 41 20.5 42.835938 20.5 45.101562 Z M 20.5 45.101562 "/>
<path style=" stroke:none;fill-rule:nonzero;fill:rgb(100%,55.686275%,30.980392%);fill-opacity:1;" d="M 20.5 25.101562 C 20.5 27.363281 18.664062 29.199219 16.398438 29.199219 C 14.136719 29.199219 12.300781 27.363281 12.300781 25.101562 C 12.300781 22.835938 14.136719 21 16.398438 21 C 18.664062 21 20.5 22.835938 20.5 25.101562 Z M 20.5 25.101562 "/>
<path style=" stroke:none;fill-rule:nonzero;fill:rgb(100%,55.686275%,30.980392%);fill-opacity:1;" d="M 45.601562 25.101562 C 45.601562 27.363281 43.765625 29.199219 41.5 29.199219 C 39.234375 29.199219 37.398438 27.363281 37.398438 25.101562 C 37.398438 22.835938 39.234375 21 41.5 21 C 43.765625 21 45.601562 22.835938 45.601562 25.101562 Z M 45.601562 25.101562 "/>
<path style=" stroke:none;fill-rule:nonzero;fill:rgb(100%,55.686275%,30.980392%);fill-opacity:1;" d="M 28.5 34.5 C 28.5 34.5 31 29.300781 35.898438 31.398438 C 38.300781 32.5 38.800781 35.199219 37.5 38.199219 C 34.101562 46 22.898438 46 19.5 38.199219 C 18.199219 35.199219 18.699219 32.5 21.101562 31.398438 C 26 29.300781 28.5 34.5 28.5 34.5 Z M 28.5 34.5 "/>
<path style=" stroke:none;fill-rule:nonzero;fill:rgb(87.45098%,45.882353%,10.980392%);fill-opacity:1;" d="M 42 24.898438 C 42 25.894531 41.195312 26.699219 40.199219 26.699219 C 39.207031 26.699219 38.398438 25.894531 38.398438 24.898438 C 38.398438 23.90625 39.207031 23.101562 40.199219 23.101562 C 41.195312 23.101562 42 23.90625 42 24.898438 Z M 42 24.898438 "/>
<path style=" stroke:none;fill-rule:nonzero;fill:rgb(87.45098%,45.882353%,10.980392%);fill-opacity:1;" d="M 30.398438 22.800781 C 30.398438 23.792969 29.59375 24.601562 28.601562 24.601562 C 27.605469 24.601562 26.800781 23.792969 26.800781 22.800781 C 26.800781 21.804688 27.605469 21 28.601562 21 C 29.59375 21 30.398438 21.804688 30.398438 22.800781 Z M 30.398438 22.800781 "/>
<path style=" stroke:none;fill-rule:nonzero;fill:rgb(87.45098%,45.882353%,10.980392%);fill-opacity:1;" d="M 20.898438 36 C 20.898438 36.992188 20.09375 37.800781 19.101562 37.800781 C 18.105469 37.800781 17.300781 36.992188 17.300781 36 C 17.300781 35.007812 18.105469 34.199219 19.101562 34.199219 C 20.09375 34.199219 20.898438 35.007812 20.898438 36 Z M 20.898438 36 "/>
<path style=" stroke:none;fill-rule:nonzero;fill:rgb(87.45098%,45.882353%,10.980392%);fill-opacity:1;" d="M 38.398438 39.898438 C 38.398438 40.894531 37.59375 41.699219 36.601562 41.699219 C 35.605469 41.699219 34.800781 40.894531 34.800781 39.898438 C 34.800781 38.90625 35.605469 38.101562 36.601562 38.101562 C 37.59375 38.101562 38.398438 38.90625 38.398438 39.898438 Z M 38.398438 39.898438 "/>
<path style=" stroke:none;fill-rule:nonzero;fill:rgb(87.45098%,45.882353%,10.980392%);fill-opacity:1;" d="M 26.199219 44 C 26.199219 44.992188 25.394531 45.800781 24.398438 45.800781 C 23.40625 45.800781 22.601562 44.992188 22.601562 44 C 22.601562 43.007812 23.40625 42.199219 24.398438 42.199219 C 25.394531 42.199219 26.199219 43.007812 26.199219 44 Z M 26.199219 44 "/>
<path style=" stroke:none;fill-rule:nonzero;fill:rgb(87.45098%,45.882353%,10.980392%);fill-opacity:1;" d="M 31.101562 50.300781 C 31.101562 51.292969 30.292969 52.101562 29.300781 52.101562 C 28.304688 52.101562 27.5 51.292969 27.5 50.300781 C 27.5 49.304688 28.304688 48.5 29.300781 48.5 C 30.292969 48.5 31.101562 49.304688 31.101562 50.300781 Z M 31.101562 50.300781 "/>
<path style=" stroke:none;fill-rule:nonzero;fill:rgb(87.45098%,45.882353%,10.980392%);fill-opacity:1;" d="M 15.300781 26.601562 C 15.300781 27.59375 14.492188 28.398438 13.5 28.398438 C 12.507812 28.398438 11.699219 27.59375 11.699219 26.601562 C 11.699219 25.605469 12.507812 24.800781 13.5 24.800781 C 14.492188 24.800781 15.300781 25.605469 15.300781 26.601562 Z M 15.300781 26.601562 "/>
<path style=" stroke:none;fill-rule:nonzero;fill:rgb(78.431373%,34.901961%,16.078431%);fill-opacity:1;" d="M 25.398438 44 C 25.398438 44.550781 24.953125 45 24.398438 45 C 23.847656 45 23.398438 44.550781 23.398438 44 C 23.398438 43.449219 23.847656 43 24.398438 43 C 24.953125 43 25.398438 43.449219 25.398438 44 Z M 25.398438 44 "/>
<path style=" stroke:none;fill-rule:nonzero;fill:rgb(78.431373%,34.901961%,16.078431%);fill-opacity:1;" d="M 30.300781 50.300781 C 30.300781 50.851562 29.851562 51.300781 29.300781 51.300781 C 28.746094 51.300781 28.300781 50.851562 28.300781 50.300781 C 28.300781 49.746094 28.746094 49.300781 29.300781 49.300781 C 29.851562 49.300781 30.300781 49.746094 30.300781 50.300781 Z M 30.300781 50.300781 "/>
<path style=" stroke:none;fill-rule:nonzero;fill:rgb(78.431373%,34.901961%,16.078431%);fill-opacity:1;" d="M 37.601562 39.898438 C 37.601562 40.453125 37.152344 40.898438 36.601562 40.898438 C 36.046875 40.898438 35.601562 40.453125 35.601562 39.898438 C 35.601562 39.347656 36.046875 38.898438 36.601562 38.898438 C 37.152344 38.898438 37.601562 39.347656 37.601562 39.898438 Z M 37.601562 39.898438 "/>
<path style=" stroke:none;fill-rule:nonzero;fill:rgb(78.431373%,34.901961%,16.078431%);fill-opacity:1;" d="M 41.199219 24.898438 C 41.199219 25.453125 40.753906 25.898438 40.199219 25.898438 C 39.648438 25.898438 39.199219 25.453125 39.199219 24.898438 C 39.199219 24.347656 39.648438 23.898438 40.199219 23.898438 C 40.753906 23.898438 41.199219 24.347656 41.199219 24.898438 Z M 41.199219 24.898438 "/>
<path style=" stroke:none;fill-rule:nonzero;fill:rgb(87.45098%,45.882353%,10.980392%);fill-opacity:1;" d="M 33.601562 30.898438 C 33.601562 31.894531 32.792969 32.699219 31.800781 32.699219 C 30.804688 32.699219 30 31.894531 30 30.898438 C 30 29.90625 30.804688 29.101562 31.800781 29.101562 C 32.792969 29.101562 33.601562 29.90625 33.601562 30.898438 Z M 33.601562 30.898438 "/>
<path style=" stroke:none;fill-rule:nonzero;fill:rgb(78.431373%,34.901961%,16.078431%);fill-opacity:1;" d="M 32.800781 30.898438 C 32.800781 31.453125 32.351562 31.898438 31.800781 31.898438 C 31.246094 31.898438 30.800781 31.453125 30.800781 30.898438 C 30.800781 30.347656 31.246094 29.898438 31.800781 29.898438 C 32.351562 29.898438 32.800781 30.347656 32.800781 30.898438 Z M 32.800781 30.898438 "/>
<path style=" stroke:none;fill-rule:nonzero;fill:rgb(87.45098%,45.882353%,10.980392%);fill-opacity:1;" d="M 38.398438 51.699219 C 38.398438 52.695312 37.59375 53.5 36.601562 53.5 C 35.605469 53.5 34.800781 52.695312 34.800781 51.699219 C 34.800781 50.707031 35.605469 49.898438 36.601562 49.898438 C 37.59375 49.898438 38.398438 50.707031 38.398438 51.699219 Z M 38.398438 51.699219 "/>
<path style=" stroke:none;fill-rule:nonzero;fill:rgb(78.431373%,34.901961%,16.078431%);fill-opacity:1;" d="M 37.601562 51.699219 C 37.601562 52.253906 37.152344 52.699219 36.601562 52.699219 C 36.046875 52.699219 35.601562 52.253906 35.601562 51.699219 C 35.601562 51.148438 36.046875 50.699219 36.601562 50.699219 C 37.152344 50.699219 37.601562 51.148438 37.601562 51.699219 Z M 37.601562 51.699219 "/>
<path style=" stroke:none;fill-rule:nonzero;fill:rgb(87.45098%,45.882353%,10.980392%);fill-opacity:1;" d="M 24.300781 54.5 C 24.300781 55.492188 23.492188 56.300781 22.5 56.300781 C 21.507812 56.300781 20.699219 55.492188 20.699219 54.5 C 20.699219 53.507812 21.507812 52.699219 22.5 52.699219 C 23.492188 52.699219 24.300781 53.507812 24.300781 54.5 Z M 24.300781 54.5 "/>
<path style=" stroke:none;fill-rule:nonzero;fill:rgb(78.431373%,34.901961%,16.078431%);fill-opacity:1;" d="M 23.5 54.5 C 23.5 55.050781 23.050781 55.5 22.5 55.5 C 21.949219 55.5 21.5 55.050781 21.5 54.5 C 21.5 53.949219 21.949219 53.5 22.5 53.5 C 23.050781 53.5 23.5 53.949219 23.5 54.5 Z M 23.5 54.5 "/>
<path style=" stroke:none;fill-rule:nonzero;fill:rgb(78.431373%,34.901961%,16.078431%);fill-opacity:1;" d="M 29.601562 22.800781 C 29.601562 23.351562 29.152344 23.800781 28.601562 23.800781 C 28.046875 23.800781 27.601562 23.351562 27.601562 22.800781 C 27.601562 22.246094 28.046875 21.800781 28.601562 21.800781 C 29.152344 21.800781 29.601562 22.246094 29.601562 22.800781 Z M 29.601562 22.800781 "/>
<path style=" stroke:none;fill-rule:nonzero;fill:rgb(78.431373%,34.901961%,16.078431%);fill-opacity:1;" d="M 14.5 26.601562 C 14.5 27.152344 14.050781 27.601562 13.5 27.601562 C 12.949219 27.601562 12.5 27.152344 12.5 26.601562 C 12.5 26.046875 12.949219 25.601562 13.5 25.601562 C 14.050781 25.601562 14.5 26.046875 14.5 26.601562 Z M 14.5 26.601562 "/>
</g>
</svg>
