<?xml version="1.0" encoding="UTF-8"?>
<svg xmlns="http://www.w3.org/2000/svg" xmlns:xlink="http://www.w3.org/1999/xlink" width="57pt" height="68pt" viewBox="0 0 57 68" version="1.1">
<g id="surface1">
<path style=" stroke:none;fill-rule:nonzero;fill:rgb(98.039216%,82.352941%,30.196078%);fill-opacity:1;" d="M 51 52.601562 L 33.300781 62.800781 C 30.300781 64.5 26.601562 64.5 23.699219 62.800781 L 6 52.601562 C 3 50.898438 1.199219 47.699219 1.199219 44.199219 L 1.199219 23.800781 C 1.199219 20.398438 3 17.199219 6 15.398438 L 23.699219 5.199219 C 26.699219 3.5 30.398438 3.5 33.300781 5.199219 L 51 15.398438 C 54 17.101562 55.800781 20.300781 55.800781 23.800781 L 55.800781 44.199219 C 55.800781 47.699219 54 50.800781 51 52.601562 Z M 51 52.601562 "/>
<path style=" stroke:none;fill-rule:nonzero;fill:rgb(100%,57.254902%,63.529412%);fill-opacity:1;" d="M 32.101562 54.398438 L 32.101562 37.398438 C 32.101562 35.898438 33.300781 34.699219 34.800781 34.699219 L 41.199219 34.699219 L 41.199219 31.601562 L 34.699219 31.601562 C 31.601562 31.601562 29 34.101562 29 37.300781 L 29 54.398438 C 29 55.199219 29.699219 55.898438 30.5 55.898438 C 31.300781 55.898438 32.101562 55.199219 32.101562 54.398438 Z M 32.101562 54.398438 "/>
<path style=" stroke:none;fill-rule:nonzero;fill:rgb(100%,66.27451%,56.862745%);fill-opacity:1;" d="M 32.101562 13.601562 L 32.101562 28.898438 C 32.101562 30.398438 33.300781 31.601562 34.800781 31.601562 L 41.199219 31.601562 L 41.199219 34.699219 L 34.699219 34.699219 C 31.601562 34.699219 29 32.199219 29 29 L 29 13.601562 C 29 12.800781 29.699219 12.101562 30.5 12.101562 C 31.300781 12.101562 32.101562 12.800781 32.101562 13.601562 Z M 32.101562 13.601562 "/>
<path style=" stroke:none;fill-rule:nonzero;fill:rgb(100%,35.294118%,49.803922%);fill-opacity:1;" d="M 46.601562 22.5 C 54.199219 29.800781 53.101562 45.398438 44.101562 49 C 35.5 52.398438 32.398438 43.199219 36.199219 38.699219 C 39.601562 34.699219 38.699219 32.300781 35.398438 25.699219 C 32.101562 19.101562 39.398438 15.5 46.601562 22.5 Z M 46.601562 22.5 "/>
<path style=" stroke:none;fill-rule:nonzero;fill:rgb(100%,52.156863%,58.431373%);fill-opacity:1;" d="M 38.199219 39.199219 C 41.601562 35.199219 40.699219 32.800781 37.398438 26.199219 C 35.199219 21.699219 37.800781 18.601562 41.898438 19.300781 C 36.699219 17.199219 32.898438 20.5 35.5 25.699219 C 38.800781 32.300781 39.699219 34.699219 36.300781 38.699219 C 33.199219 42.300781 34.699219 49.101562 40 49.699219 C 36.199219 47.898438 35.5 42.398438 38.199219 39.199219 Z M 38.199219 39.199219 "/>
<path style=" stroke:none;fill-rule:nonzero;fill:rgb(81.568627%,30.196078%,49.803922%);fill-opacity:1;" d="M 46.601562 22.5 C 44 20 41.398438 18.800781 39.199219 18.699219 C 40.898438 19.199219 42.699219 20.300781 44.601562 22.101562 C 48.398438 25.800781 50 31.5 49.601562 36.800781 C 49.5 37.699219 48.699219 38.601562 48.5 39.398438 C 48.300781 40.199219 48.800781 40.898438 48.5 41.699219 C 47.300781 44.898438 45.199219 47.398438 42.101562 48.601562 C 40.699219 49.199219 39.398438 49.398438 38.300781 49.300781 C 39.800781 49.898438 41.699219 49.898438 44 49 C 53.101562 45.398438 54.300781 29.800781 46.601562 22.5 Z M 46.601562 22.5 "/>
<path style=" stroke:none;fill-rule:nonzero;fill:rgb(51.764706%,37.647059%,41.176471%);fill-opacity:1;" d="M 41.101562 26.800781 C 40.601562 26.800781 40.300781 27.199219 40.300781 27.699219 C 40.300781 27.699219 40.300781 28.5 40 29.300781 C 39.398438 30.898438 38 30.800781 37.699219 30.898438 C 37.898438 31.5 38.101562 32 38.199219 32.5 C 41.398438 32 42 29.101562 42 27.601562 C 42 27.101562 41.601562 26.800781 41.101562 26.800781 Z M 41.101562 26.800781 "/>
<path style=" stroke:none;fill-rule:nonzero;fill:rgb(51.764706%,37.647059%,41.176471%);fill-opacity:1;" d="M 38.398438 33.898438 C 38.398438 34.5 38.300781 35 38.101562 35.5 C 38.199219 35.5 38.199219 35.5 38.300781 35.5 C 39.300781 35.5 40.5 36.398438 40.699219 38.398438 C 40.699219 38.800781 41.101562 39.199219 41.601562 39.101562 C 42.101562 39.101562 42.398438 38.601562 42.300781 38.199219 C 42 34.898438 39.601562 33.898438 38.398438 33.898438 Z M 38.398438 33.898438 "/>
<path style=" stroke:none;fill-rule:nonzero;fill:rgb(51.764706%,37.647059%,41.176471%);fill-opacity:1;" d="M 43.898438 33.699219 L 41.699219 33.699219 C 41.199219 33.699219 40.898438 33.300781 40.898438 32.898438 C 40.898438 32.5 41.300781 32.101562 41.699219 32.101562 L 43.898438 32.101562 C 44.398438 32.101562 44.699219 32.5 44.699219 32.898438 C 44.699219 33.300781 44.398438 33.699219 43.898438 33.699219 Z M 43.898438 33.699219 "/>
<path style=" stroke:none;fill-rule:nonzero;fill:rgb(100%,66.27451%,56.862745%);fill-opacity:1;" d="M 24.898438 13.601562 L 24.898438 28.898438 C 24.898438 30.398438 23.699219 31.601562 22.199219 31.601562 L 15.800781 31.601562 L 15.800781 34.699219 L 22.300781 34.699219 C 25.398438 34.699219 28 32.199219 28 29 L 28 13.601562 C 28 12.800781 27.300781 12.101562 26.5 12.101562 C 25.601562 12.101562 24.898438 12.800781 24.898438 13.601562 Z M 24.898438 13.601562 "/>
<path style=" stroke:none;fill-rule:nonzero;fill:rgb(100%,57.254902%,63.529412%);fill-opacity:1;" d="M 24.898438 54.398438 L 24.898438 37.398438 C 24.898438 35.898438 23.699219 34.699219 22.199219 34.699219 L 15.800781 34.699219 L 15.800781 31.601562 L 22.300781 31.601562 C 25.398438 31.601562 28 34.101562 28 37.300781 L 28 54.398438 C 28 55.199219 27.300781 55.898438 26.5 55.898438 C 25.601562 55.898438 24.898438 55.199219 24.898438 54.398438 Z M 24.898438 54.398438 "/>
<path style=" stroke:none;fill-rule:nonzero;fill:rgb(100%,35.294118%,49.803922%);fill-opacity:1;" d="M 10.398438 22.5 C 2.699219 29.800781 3.898438 45.398438 12.800781 49 C 21.398438 52.398438 24.5 43.199219 20.699219 38.699219 C 17.300781 34.699219 18.199219 32.300781 21.5 25.699219 C 24.800781 19.101562 17.601562 15.5 10.398438 22.5 Z M 10.398438 22.5 "/>
<path style=" stroke:none;fill-rule:nonzero;fill:rgb(81.568627%,30.196078%,49.803922%);fill-opacity:1;" d="M 21.601562 25.699219 C 23.101562 22.601562 22.398438 20.199219 20.398438 19.199219 C 21.601562 20.5 21.800781 22.601562 20.199219 25.101562 C 16.199219 31.5 15 33.699219 18.300781 38 C 19.300781 39.300781 19.800781 41 19.601562 42.699219 C 19.5 43.398438 20 44.300781 19.699219 44.898438 C 19.398438 45.601562 18.398438 46.101562 17.898438 46.699219 C 16.5 48.199219 14.300781 49.101562 11.5 48.5 C 11.898438 48.699219 12.300781 48.898438 12.800781 49.101562 C 21.398438 52.5 24.5 43.300781 20.699219 38.800781 C 17.398438 34.601562 18.300781 32.300781 21.601562 25.699219 Z M 21.601562 25.699219 "/>
<path style=" stroke:none;fill-rule:nonzero;fill:rgb(100%,52.156863%,58.431373%);fill-opacity:1;" d="M 21.699219 20.300781 C 20 17.800781 15.199219 17.800781 10.300781 22.5 C 2.699219 29.800781 3.800781 45.300781 12.699219 48.898438 C 8.300781 45.300781 6.898438 37.898438 8.601562 31.601562 C 8.800781 30.699219 8.199219 29.601562 8.5 28.800781 C 8.800781 28.101562 10.199219 27.601562 10.601562 26.898438 C 12.898438 23.398438 17.699219 19.601562 21.699219 20.300781 Z M 21.699219 20.300781 "/>
<path style=" stroke:none;fill-rule:nonzero;fill:rgb(51.764706%,37.647059%,41.176471%);fill-opacity:1;" d="M 19.199219 30.898438 C 18.898438 30.800781 17.5 30.800781 16.898438 29.300781 C 16.601562 28.5 16.601562 27.800781 16.601562 27.699219 C 16.601562 27.199219 16.300781 26.898438 15.800781 26.800781 C 15.300781 26.800781 15 27.101562 14.898438 27.601562 C 14.898438 27.699219 14.898438 28.699219 15.300781 29.800781 C 15.699219 30.898438 16.601562 32.199219 18.699219 32.5 C 18.898438 32 19 31.398438 19.199219 30.898438 Z M 19.199219 30.898438 "/>
<path style=" stroke:none;fill-rule:nonzero;fill:rgb(51.764706%,37.647059%,41.176471%);fill-opacity:1;" d="M 18.601562 33.898438 C 17.300781 33.898438 15 34.898438 14.601562 38.300781 C 14.601562 38.800781 14.898438 39.199219 15.300781 39.199219 C 15.800781 39.199219 16.199219 38.898438 16.199219 38.5 C 16.5 35.699219 18.398438 35.601562 18.601562 35.601562 C 18.699219 35.601562 18.699219 35.601562 18.800781 35.601562 C 18.699219 35 18.601562 34.398438 18.601562 33.898438 Z M 18.601562 33.898438 "/>
<path style=" stroke:none;fill-rule:nonzero;fill:rgb(51.764706%,37.647059%,41.176471%);fill-opacity:1;" d="M 15.300781 33.699219 L 13.101562 33.699219 C 12.601562 33.699219 12.300781 33.300781 12.300781 32.898438 C 12.300781 32.5 12.699219 32.101562 13.101562 32.101562 L 15.300781 32.101562 C 15.800781 32.101562 16.101562 32.5 16.101562 32.898438 C 16.101562 33.300781 15.699219 33.699219 15.300781 33.699219 Z M 15.300781 33.699219 "/>
<path style=" stroke:none;fill-rule:nonzero;fill:rgb(100%,66.666667%,73.333333%);fill-opacity:1;" d="M 10.5 29.699219 C 10.5 30.03125 10.230469 30.300781 9.898438 30.300781 C 9.570312 30.300781 9.300781 30.03125 9.300781 29.699219 C 9.300781 29.367188 9.570312 29.101562 9.898438 29.101562 C 10.230469 29.101562 10.5 29.367188 10.5 29.699219 Z M 10.5 29.699219 "/>
<path style=" stroke:none;fill-rule:nonzero;fill:rgb(81.568627%,30.196078%,49.803922%);fill-opacity:1;" d="M 18.933594 44.332031 C 18.785156 44.167969 18.464844 44.21875 18.21875 44.441406 C 17.976562 44.664062 17.898438 44.980469 18.046875 45.140625 C 18.195312 45.304688 18.515625 45.257812 18.757812 45.03125 C 19.003906 44.808594 19.082031 44.496094 18.933594 44.332031 Z M 18.933594 44.332031 "/>
<path style=" stroke:none;fill-rule:nonzero;fill:rgb(81.568627%,30.196078%,49.803922%);fill-opacity:1;" d="M 48.929688 36.171875 C 48.71875 36.101562 48.464844 36.300781 48.359375 36.613281 C 48.253906 36.929688 48.339844 37.238281 48.550781 37.308594 C 48.757812 37.378906 49.015625 37.183594 49.117188 36.867188 C 49.222656 36.554688 49.140625 36.242188 48.929688 36.171875 Z M 48.929688 36.171875 "/>
</g>
</svg>
