<?xml version="1.0" encoding="UTF-8"?>
<svg xmlns="http://www.w3.org/2000/svg" xmlns:xlink="http://www.w3.org/1999/xlink" width="57pt" height="68pt" viewBox="0 0 57 68" version="1.1">
<g id="surface1">
<path style=" stroke:none;fill-rule:nonzero;fill:rgb(28.235294%,29.411765%,49.803922%);fill-opacity:1;" d="M 51 52.601562 L 33.300781 62.800781 C 30.300781 64.5 26.601562 64.5 23.699219 62.800781 L 6 52.601562 C 3 50.898438 1.199219 47.699219 1.199219 44.199219 L 1.199219 23.800781 C 1.199219 20.398438 3 17.199219 6 15.398438 L 23.699219 5.199219 C 26.699219 3.5 30.398438 3.5 33.300781 5.199219 L 51 15.398438 C 54 17.101562 55.800781 20.300781 55.800781 23.800781 L 55.800781 44.199219 C 55.800781 47.699219 54 50.800781 51 52.601562 Z M 51 52.601562 "/>
<path style=" stroke:none;fill-rule:nonzero;fill:rgb(100%,86.666667%,89.019608%);fill-opacity:1;" d="M 36 13.898438 C 31 13.199219 26.199219 14.800781 22.699219 17.800781 C 18.199219 17.300781 14.699219 13.800781 14 9.398438 L 14 9 C 13.800781 7.699219 12.699219 6.699219 11.300781 6.699219 C 9.800781 6.699219 8.601562 7.898438 8.601562 9.398438 C 8.601562 9.398438 8.601562 9.398438 8.601562 9.5 C 8.601562 9.601562 8.601562 9.601562 8.601562 9.699219 C 8.601562 9.800781 8.601562 10 8.699219 10.101562 C 9.5 15.898438 13.601562 20.800781 19 22.601562 C 18.101562 24.300781 17.398438 26.199219 17.101562 28.300781 C 17.101562 28.601562 17 29 17 29.300781 C 16.5 32.699219 15.300781 35.101562 13.800781 36.898438 C 11.5 39.5 10.601562 42.898438 11 46.101562 C 9.898438 46.601562 8.601562 47.199219 7.300781 48.199219 C 6.199219 49 5.199219 50 4.398438 51 C 3.898438 51.5 3.601562 52.199219 3.601562 53 C 3.601562 54.5 4.800781 55.699219 6.300781 55.699219 C 7.300781 55.699219 8.199219 55.101562 8.699219 54.300781 C 9.199219 53.699219 9.800781 53.199219 10.398438 52.699219 C 11.300781 52 12.199219 51.5 12.898438 51.199219 C 14.699219 53.800781 17.601562 55.601562 20.699219 56.101562 C 35.800781 58.398438 47.898438 49.5 50.199219 33 C 51.601562 23.601562 45.199219 15.199219 36 13.898438 Z M 36 13.898438 "/>
<path style=" stroke:none;fill-rule:nonzero;fill:rgb(100%,53.333333%,61.960784%);fill-opacity:1;" d="M 19.5 37 C 18.898438 38.101562 18.199219 39 17.398438 39.898438 C 15.5 42.101562 15.199219 45.300781 16.699219 47.800781 C 17.699219 49.5 19.5 50.699219 21.5 51 C 22.800781 51.199219 24.101562 51.300781 25.398438 51.300781 C 30.601562 51.300781 35.101562 49.601562 38.601562 46.398438 C 41.199219 44 43.199219 40.699219 44.398438 36.898438 L 43.398438 33.199219 L 23.800781 33.199219 Z M 19.5 37 "/>
<path style=" stroke:none;fill-rule:nonzero;fill:rgb(100%,45.490196%,56.078431%);fill-opacity:1;" d="M 21.800781 35 L 19.601562 37 C 18.699219 38.5 17.398438 39.699219 16.601562 41.300781 C 16.101562 42.300781 15.800781 43.300781 15.800781 44.300781 C 15.699219 47.601562 18.300781 50.5 21.5 51 C 22.800781 51.199219 24.101562 51.300781 25.398438 51.300781 C 25.5 51.300781 25.699219 51.300781 25.800781 51.300781 C 26 51.300781 26.199219 51.300781 26.5 51.300781 C 26.5 51.300781 26.800781 51.300781 26.898438 51.300781 C 26.101562 51.300781 25.398438 51.199219 24.601562 51.101562 C 22.601562 50.800781 20.898438 49.601562 19.800781 47.898438 C 18.300781 45.398438 18.601562 42.199219 20.5 40 C 21.300781 39 22 38 22.601562 37 C 22.898438 36.398438 23.199219 35.800781 23.5 35.101562 Z M 21.800781 35 "/>
<path style=" stroke:none;fill-rule:nonzero;fill:rgb(97.647059%,94.117647%,59.215686%);fill-opacity:1;" d="M 45.398438 32.101562 C 45.199219 33.800781 44.800781 35.398438 44.300781 36.898438 L 43.601562 36.398438 C 42.199219 35.398438 40.300781 35.398438 38.898438 36.398438 C 38.199219 36.898438 37.398438 37.199219 36.601562 37.199219 C 35.800781 37.199219 35 36.898438 34.300781 36.398438 C 33.601562 35.898438 32.800781 35.601562 32 35.601562 C 31.199219 35.601562 30.398438 35.898438 29.699219 36.398438 C 29 36.898438 28.199219 37.199219 27.398438 37.199219 C 26.601562 37.199219 25.800781 36.898438 25.101562 36.398438 C 24.398438 35.898438 23.601562 35.601562 22.800781 35.601562 C 22 35.601562 21.199219 35.898438 20.5 36.398438 L 19.5 37 C 20.699219 34.898438 21.5 32.5 21.800781 29.800781 C 21.800781 29.5 21.898438 29.101562 21.898438 28.800781 C 22.699219 22.898438 27.800781 18.601562 33.601562 18.601562 C 40.898438 18.601562 46.398438 25 45.398438 32.101562 Z M 45.398438 32.101562 "/>
<path style=" stroke:none;fill-rule:nonzero;fill:rgb(98.431373%,75.294118%,44.705882%);fill-opacity:1;" d="M 19.5 37 L 20.300781 36.398438 C 21 35.898438 21.800781 35.601562 22.601562 35.601562 C 22.800781 35.601562 23 35.601562 23.199219 35.601562 C 24 33.800781 24.601562 31.898438 24.800781 29.800781 C 24.800781 29.5 24.898438 29.101562 24.898438 28.800781 C 25.699219 23.398438 30 19.398438 35.101562 18.699219 C 35 18.699219 34.898438 18.699219 34.699219 18.699219 C 34.300781 18.699219 33.898438 18.601562 33.5 18.601562 C 32 18.601562 30.5 18.898438 29.101562 19.5 C 28.199219 19.898438 27.398438 20.300781 26.601562 20.898438 C 24.101562 22.699219 22.300781 25.5 21.800781 28.898438 C 21.800781 29.199219 21.699219 29.601562 21.699219 29.898438 C 21.5 32.5 20.699219 34.898438 19.5 37 Z M 19.5 37 "/>
<path style=" stroke:none;fill-rule:nonzero;fill:rgb(19.215686%,23.921569%,25.098039%);fill-opacity:1;" d="M 27.898438 27.101562 C 27.5 27.101562 27.101562 27.5 27.101562 27.898438 L 27.101562 29.199219 C 27.101562 29.601562 27.5 30 27.898438 30 C 28.300781 30 28.699219 29.601562 28.699219 29.199219 L 28.699219 27.898438 C 28.699219 27.398438 28.300781 27.101562 27.898438 27.101562 Z M 27.898438 27.101562 "/>
<path style=" stroke:none;fill-rule:nonzero;fill:rgb(19.215686%,23.921569%,25.098039%);fill-opacity:1;" d="M 39.300781 27.101562 C 38.898438 27.101562 38.5 27.5 38.5 27.898438 L 38.5 29.199219 C 38.5 29.601562 38.898438 30 39.300781 30 C 39.699219 30 40.101562 29.601562 40.101562 29.199219 L 40.101562 27.898438 C 40.101562 27.398438 39.800781 27.101562 39.300781 27.101562 Z M 39.300781 27.101562 "/>
<path style=" stroke:none;fill-rule:nonzero;fill:rgb(19.215686%,23.921569%,25.098039%);fill-opacity:1;" d="M 35.898438 28.5 C 35.601562 28.199219 35.101562 28.199219 34.800781 28.601562 C 34.5 28.898438 34.101562 29.101562 33.601562 29.101562 C 33.101562 29.101562 32.699219 28.898438 32.398438 28.601562 C 32.101562 28.300781 31.601562 28.199219 31.300781 28.5 C 31 28.800781 30.898438 29.300781 31.199219 29.601562 C 31.800781 30.300781 32.699219 30.699219 33.601562 30.699219 C 34.5 30.699219 35.398438 30.300781 36 29.601562 C 36.300781 29.300781 36.199219 28.800781 35.898438 28.5 Z M 35.898438 28.5 "/>
</g>
</svg>
