<?xml version="1.0" encoding="UTF-8"?>
<svg xmlns="http://www.w3.org/2000/svg" xmlns:xlink="http://www.w3.org/1999/xlink" width="57pt" height="68pt" viewBox="0 0 57 68" version="1.1">
<g id="surface1">
<path style=" stroke:none;fill-rule:nonzero;fill:rgb(21.568627%,63.137255%,55.686275%);fill-opacity:1;" d="M 51 52.601562 L 33.300781 62.800781 C 30.300781 64.5 26.601562 64.5 23.699219 62.800781 L 6 52.601562 C 3 50.898438 1.199219 47.699219 1.199219 44.199219 L 1.199219 23.800781 C 1.199219 20.398438 3 17.199219 6 15.398438 L 23.699219 5.199219 C 26.699219 3.5 30.398438 3.5 33.300781 5.199219 L 51 15.398438 C 54 17.101562 55.800781 20.300781 55.800781 23.800781 L 55.800781 44.199219 C 55.800781 47.699219 54 50.800781 51 52.601562 Z M 51 52.601562 "/>
<path style=" stroke:none;fill-rule:nonzero;fill:rgb(42.745098%,78.431373%,86.666667%);fill-opacity:1;" d="M 44.5 48.5 L 45.699219 51.398438 C 46.398438 53 48.601562 53 49.300781 51.398438 L 50.5 48.5 C 50.699219 48 51.101562 47.699219 51.5 47.5 L 54.398438 46.300781 C 56 45.601562 56 43.398438 54.398438 42.699219 L 51.5 41.5 C 51 41.300781 50.699219 40.898438 50.5 40.5 L 49.300781 37.601562 C 48.601562 36 46.398438 36 45.699219 37.601562 L 44.5 40.5 C 44.300781 41 43.898438 41.300781 43.5 41.5 L 40.601562 42.699219 C 39 43.398438 39 45.601562 40.601562 46.300781 L 43.5 47.5 C 43.898438 47.601562 44.300781 48 44.5 48.5 Z M 44.5 48.5 "/>
<path style=" stroke:none;fill-rule:nonzero;fill:rgb(98.431373%,94.509804%,81.176471%);fill-opacity:1;" d="M 28.699219 48.601562 C 31.101562 48.601562 31.398438 62.398438 38.601562 62.398438 C 41.898438 62.398438 45.398438 58.898438 45.398438 50.300781 C 45.398438 39.398438 52.101562 39.101562 52.101562 28.199219 C 52.101562 21.5 46.101562 16.199219 38.699219 16.199219 C 35.5 16.199219 32.5 17.199219 30.199219 18.898438 C 29.300781 19.601562 28.101562 19.601562 27.199219 18.898438 C 24.898438 17.199219 21.898438 16.199219 18.699219 16.199219 C 11.300781 16.199219 5.300781 21.601562 5.300781 28.199219 C 5.300781 39.101562 12 39.398438 12 50.300781 C 12 58.898438 15.5 62.398438 18.800781 62.398438 C 26 62.300781 26.199219 48.601562 28.699219 48.601562 Z M 28.699219 48.601562 "/>
<path style=" stroke:none;fill-rule:nonzero;fill:rgb(97.647059%,87.45098%,73.72549%);fill-opacity:1;" d="M 17.101562 16.199219 C 10.5 16.898438 5.398438 22 5.398438 28.199219 C 5.398438 39.101562 12.101562 39.398438 12.101562 50.300781 C 12.101562 58.898438 15.601562 62.398438 18.898438 62.398438 C 24.300781 62.398438 25.800781 54.699219 27.199219 50.898438 C 17.601562 47.199219 6.601562 26.300781 17.101562 16.199219 Z M 17.101562 16.199219 "/>
<path style=" stroke:none;fill-rule:nonzero;fill:rgb(92.941176%,63.137255%,67.058824%);fill-opacity:1;" d="M 21.601562 33.800781 C 21.601562 35.601562 19.800781 37.101562 17.5 37.101562 C 15.199219 37.101562 13.398438 35.601562 13.398438 33.800781 C 13.398438 32 15.199219 30.5 17.5 30.5 C 19.699219 30.5 21.601562 32 21.601562 33.800781 Z M 21.601562 33.800781 "/>
<path style=" stroke:none;fill-rule:nonzero;fill:rgb(92.941176%,63.137255%,67.058824%);fill-opacity:1;" d="M 35.699219 33.800781 C 35.699219 35.601562 37.601562 37.101562 39.800781 37.101562 C 42 37.101562 43.898438 35.601562 43.898438 33.800781 C 43.898438 32 42 30.5 39.800781 30.5 C 37.601562 30.5 35.699219 31.898438 35.699219 33.800781 Z M 35.699219 33.800781 "/>
<path style=" stroke:none;fill-rule:nonzero;fill:rgb(30.588235%,33.72549%,37.647059%);fill-opacity:1;" d="M 32.699219 32.300781 C 32.699219 29.800781 30.898438 29.601562 28.699219 29.601562 C 26.5 29.601562 24.699219 29.800781 24.699219 32.300781 C 24.699219 34.800781 26.5 36.800781 28.699219 36.800781 C 30.898438 36.800781 32.699219 34.800781 32.699219 32.300781 Z M 32.699219 32.300781 "/>
<path style=" stroke:none;fill-rule:nonzero;fill:rgb(30.588235%,33.72549%,37.647059%);fill-opacity:1;" d="M 37.5 30.699219 C 37.101562 30.699219 36.800781 30.398438 36.800781 30 L 36.800781 28.398438 C 36.800781 28 37.101562 27.699219 37.5 27.699219 C 37.898438 27.699219 38.199219 28 38.199219 28.398438 L 38.199219 30 C 38.300781 30.398438 37.898438 30.699219 37.5 30.699219 Z M 37.5 30.699219 "/>
<path style=" stroke:none;fill-rule:nonzero;fill:rgb(30.588235%,33.72549%,37.647059%);fill-opacity:1;" d="M 22.5 30.601562 C 22.101562 30.601562 21.800781 30.300781 21.800781 29.898438 C 21.800781 29.300781 21.300781 28.699219 20.601562 28.699219 C 20 28.699219 19.398438 29.199219 19.398438 29.898438 C 19.398438 30.300781 19.101562 30.601562 18.699219 30.601562 C 18.300781 30.601562 18 30.300781 18 29.898438 C 18 28.398438 19.199219 27.300781 20.601562 27.300781 C 21.300781 27.300781 22 27.601562 22.5 28.101562 C 23 28.601562 23.300781 29.300781 23.300781 30 C 23.199219 30.300781 22.898438 30.601562 22.5 30.601562 Z M 22.5 30.601562 "/>
<path style=" stroke:none;fill-rule:nonzero;fill:rgb(72.54902%,90.196078%,100%);fill-opacity:1;" d="M 9.800781 52 L 10.601562 53.800781 C 11 54.800781 12.398438 54.800781 12.800781 53.800781 L 13.601562 52 C 13.699219 51.699219 14 51.5 14.199219 51.398438 L 16 50.601562 C 17 50.199219 17 48.800781 16 48.398438 L 14.199219 47.601562 C 13.898438 47.5 13.699219 47.199219 13.601562 47 L 12.800781 45.199219 C 12.398438 44.199219 11 44.199219 10.601562 45.199219 L 9.800781 47 C 9.699219 47.300781 9.398438 47.5 9.199219 47.601562 L 7.398438 48.398438 C 6.398438 48.800781 6.398438 50.199219 7.398438 50.601562 L 9.199219 51.398438 C 9.398438 51.5 9.699219 51.699219 9.800781 52 Z M 9.800781 52 "/>
<path style=" stroke:none;fill-rule:nonzero;fill:rgb(50.588235%,86.27451%,85.098039%);fill-opacity:1;" d="M 45.300781 23.601562 L 46.199219 25.898438 C 46.699219 27.101562 48.5 27.101562 49 25.898438 L 49.898438 23.601562 C 50.101562 23.199219 50.300781 22.898438 50.699219 22.800781 L 53 21.898438 C 54.199219 21.398438 54.199219 19.601562 53 19.101562 L 50.699219 18.199219 C 50.300781 18 50 17.800781 49.898438 17.398438 L 49.101562 15 C 48.601562 13.800781 46.800781 13.800781 46.300781 15 L 45.398438 17.300781 C 45.199219 17.699219 45 18 44.601562 18.101562 L 42.300781 19 C 41.101562 19.5 41.101562 21.300781 42.300781 21.800781 L 44.601562 22.699219 C 44.898438 22.898438 45.199219 23.199219 45.300781 23.601562 Z M 45.300781 23.601562 "/>
</g>
</svg>
