<?xml version="1.0" encoding="UTF-8"?>
<svg xmlns="http://www.w3.org/2000/svg" xmlns:xlink="http://www.w3.org/1999/xlink" width="57pt" height="68pt" viewBox="0 0 57 68" version="1.1">
<defs>
<filter id="alpha" filterUnits="objectBoundingBox" x="0%" y="0%" width="100%" height="100%">
  <feColorMatrix type="matrix" in="SourceGraphic" values="0 0 0 0 1 0 0 0 0 1 0 0 0 0 1 0 0 0 1 0"/>
</filter>
<mask id="mask0">
  <g filter="url(#alpha)">
<rect x="0" y="0" width="57" height="68" style="fill:rgb(0%,0%,0%);fill-opacity:0.101961;stroke:none;"/>
  </g>
</mask>
<clipPath id="clip1">
  <rect x="0" y="0" width="57" height="68"/>
</clipPath>
<g id="surface5" clip-path="url(#clip1)">
<path style=" stroke:none;fill-rule:nonzero;fill:rgb(0%,0%,0%);fill-opacity:1;" d="M 23 38.699219 C 22.601562 37.398438 21.898438 36.199219 20.898438 35.199219 L 18.5 34.5 C 17.800781 34.300781 17.101562 34.699219 16.800781 35.398438 C 16.601562 36.101562 17 36.800781 17.699219 37.101562 L 22.398438 38.601562 C 22.699219 38.5 22.898438 38.601562 23 38.699219 Z M 23 38.699219 "/>
</g>
<mask id="mask1">
  <g filter="url(#alpha)">
<rect x="0" y="0" width="57" height="68" style="fill:rgb(0%,0%,0%);fill-opacity:0.101961;stroke:none;"/>
  </g>
</mask>
<clipPath id="clip2">
  <rect x="0" y="0" width="57" height="68"/>
</clipPath>
<g id="surface8" clip-path="url(#clip2)">
<path style=" stroke:none;fill-rule:nonzero;fill:rgb(0%,0%,0%);fill-opacity:1;" d="M 34 38.699219 C 34.398438 37.398438 35.101562 36.199219 36.101562 35.199219 L 38.5 34.5 C 39.199219 34.300781 39.898438 34.699219 40.199219 35.398438 C 40.398438 36.101562 40 36.800781 39.300781 37.101562 L 34.601562 38.601562 C 34.300781 38.5 34.101562 38.601562 34 38.699219 Z M 34 38.699219 "/>
</g>
<mask id="mask2">
  <g filter="url(#alpha)">
<rect x="0" y="0" width="57" height="68" style="fill:rgb(0%,0%,0%);fill-opacity:0.101961;stroke:none;"/>
  </g>
</mask>
<clipPath id="clip3">
  <rect x="0" y="0" width="57" height="68"/>
</clipPath>
<g id="surface11" clip-path="url(#clip3)">
<path style=" stroke:none;fill-rule:nonzero;fill:rgb(0%,0%,0%);fill-opacity:1;" d="M 35.699219 35.101562 C 35.898438 34.898438 35.898438 34.800781 35.898438 34.601562 C 35.898438 34.398438 35.898438 34.300781 35.699219 34.101562 C 35 33.398438 34.5 32.699219 34.101562 31.898438 C 34.199219 31.898438 34.300781 32 34.398438 32 L 39.699219 33.800781 C 40.398438 34 40.800781 34.800781 40.601562 35.5 C 40.398438 36.101562 39.898438 36.398438 39.300781 36.398438 C 39.199219 36.398438 39 36.398438 38.898438 36.300781 L 35.601562 35.199219 C 35.601562 35.101562 35.601562 35.101562 35.699219 35.101562 Z M 35.699219 35.101562 "/>
</g>
<mask id="mask3">
  <g filter="url(#alpha)">
<rect x="0" y="0" width="57" height="68" style="fill:rgb(0%,0%,0%);fill-opacity:0.101961;stroke:none;"/>
  </g>
</mask>
<clipPath id="clip4">
  <rect x="0" y="0" width="57" height="68"/>
</clipPath>
<g id="surface14" clip-path="url(#clip4)">
<path style=" stroke:none;fill-rule:nonzero;fill:rgb(0%,0%,0%);fill-opacity:1;" d="M 21.398438 35 C 21.199219 34.800781 21.199219 34.699219 21.199219 34.5 C 21.199219 34.300781 21.199219 34.199219 21.398438 34 C 22.101562 33.300781 22.601562 32.601562 23 31.800781 C 22.898438 31.800781 22.800781 31.898438 22.699219 31.898438 L 17.398438 33.699219 C 16.699219 33.898438 16.300781 34.699219 16.5 35.398438 C 16.699219 36 17.199219 36.300781 17.800781 36.300781 C 17.898438 36.300781 18.101562 36.300781 18.199219 36.199219 L 21.5 35.101562 C 21.5 35.101562 21.398438 35.101562 21.398438 35 Z M 21.398438 35 "/>
</g>
</defs>
<g id="surface1">
<path style=" stroke:none;fill-rule:nonzero;fill:rgb(41.176471%,36.078431%,76.862745%);fill-opacity:1;" d="M 51 52.601562 L 33.300781 62.800781 C 30.300781 64.5 26.601562 64.5 23.699219 62.800781 L 6 52.601562 C 3 50.898438 1.199219 47.699219 1.199219 44.199219 L 1.199219 23.800781 C 1.199219 20.398438 3 17.199219 6 15.398438 L 23.699219 5.199219 C 26.699219 3.5 30.398438 3.5 33.300781 5.199219 L 51 15.398438 C 54 17.101562 55.800781 20.300781 55.800781 23.800781 L 55.800781 44.199219 C 55.800781 47.699219 54 50.800781 51 52.601562 Z M 51 52.601562 "/>
<path style=" stroke:none;fill-rule:nonzero;fill:rgb(94.901961%,79.215686%,35.294118%);fill-opacity:1;" d="M 25.300781 52.601562 C 24.601562 52.601562 24 52 24 51.300781 L 24 40.398438 C 24 39.5 23.398438 38.699219 22.5 38.398438 L 17.800781 36.898438 C 17.101562 36.699219 16.699219 35.898438 16.898438 35.199219 C 17.101562 34.5 17.898438 34.101562 18.601562 34.300781 L 23.300781 35.800781 C 25.300781 36.398438 26.601562 38.199219 26.601562 40.300781 L 26.601562 51.199219 C 26.601562 52 26 52.601562 25.300781 52.601562 Z M 25.300781 52.601562 "/>
<use xlink:href="#surface5" mask="url(#mask0)"/>
<path style=" stroke:none;fill-rule:nonzero;fill:rgb(94.901961%,79.215686%,35.294118%);fill-opacity:1;" d="M 31.699219 52.601562 C 31 52.601562 30.398438 52 30.398438 51.300781 L 30.398438 40.398438 C 30.398438 38.300781 31.699219 36.5 33.699219 35.898438 L 38.398438 34.398438 C 39.101562 34.199219 39.800781 34.601562 40.101562 35.300781 C 40.300781 36 39.898438 36.699219 39.199219 37 L 34.5 38.5 C 33.601562 38.800781 33 39.601562 33 40.5 L 33 51.398438 C 33 52 32.398438 52.601562 31.699219 52.601562 Z M 31.699219 52.601562 "/>
<use xlink:href="#surface8" mask="url(#mask1)"/>
<path style=" stroke:none;fill-rule:nonzero;fill:rgb(98.823529%,16.862745%,22.745098%);fill-opacity:1;" d="M 39.601562 33.800781 L 34.300781 31.898438 C 33.199219 31.5 32.300781 30.699219 31.699219 29.699219 L 30.5 27.5 C 30.101562 26.800781 29.898438 26 29.898438 25.101562 L 29.898438 17.398438 C 29.898438 16.699219 29.398438 16.101562 28.601562 16 C 27.800781 16 27.199219 16.601562 27.199219 17.300781 L 27.199219 25 C 27.199219 25.800781 27 26.699219 26.601562 27.398438 L 25.398438 29.601562 C 24.800781 30.601562 23.898438 31.398438 22.800781 31.800781 L 17.5 33.601562 C 16.800781 33.800781 16.398438 34.601562 16.601562 35.300781 C 16.800781 35.898438 17.300781 36.199219 17.898438 36.199219 C 18 36.199219 18.199219 36.199219 18.300781 36.101562 L 23.601562 34.199219 C 25.300781 33.601562 26.800781 32.398438 27.699219 30.800781 L 28.5 29.398438 C 28.601562 29.300781 28.699219 29.300781 28.699219 29.398438 L 29.5 30.800781 C 30.398438 32.398438 31.800781 33.601562 33.601562 34.199219 L 38.898438 36.101562 C 39 36.199219 39.199219 36.199219 39.300781 36.199219 C 39.800781 36.199219 40.398438 35.898438 40.601562 35.300781 C 40.699219 34.800781 40.300781 34 39.601562 33.800781 Z M 39.601562 33.800781 "/>
<use xlink:href="#surface11" mask="url(#mask2)"/>
<use xlink:href="#surface14" mask="url(#mask3)"/>
<path style=" stroke:none;fill-rule:nonzero;fill:rgb(100%,39.215686%,43.529412%);fill-opacity:1;" d="M 6.300781 34.601562 C 6.300781 38.101562 7.199219 42.601562 10.5 45.898438 C 13.101562 48.5 17.300781 48.5 19.898438 45.898438 C 22.5 43.300781 22.5 39.101562 19.898438 36.5 C 19.199219 35.800781 19.101562 35 19.101562 34.601562 C 19.101562 34.199219 19.199219 33.398438 19.898438 32.699219 C 22.5 30.101562 22.5 25.898438 19.898438 23.300781 C 17.300781 20.699219 13.101562 20.699219 10.5 23.300781 C 7.300781 26.601562 6.300781 31.101562 6.300781 34.601562 Z M 6.300781 34.601562 "/>
<path style=" stroke:none;fill-rule:nonzero;fill:rgb(100%,27.843137%,33.333333%);fill-opacity:1;" d="M 9.398438 24.601562 C 7 27.699219 6.300781 31.5 6.300781 34.601562 C 6.300781 38.101562 7.199219 42.601562 10.5 45.898438 C 13.101562 48.5 17.300781 48.5 19.898438 45.898438 C 20.101562 45.699219 20.300781 45.5 20.5 45.300781 C 11.601562 47.800781 5.199219 34.300781 9.398438 24.601562 Z M 9.398438 24.601562 "/>
<path style=" stroke:none;fill-rule:nonzero;fill:rgb(100%,39.215686%,43.529412%);fill-opacity:1;" d="M 50.699219 34.601562 C 50.699219 38.101562 49.800781 42.601562 46.5 45.898438 C 43.898438 48.5 39.699219 48.5 37.101562 45.898438 C 34.5 43.300781 34.5 39.101562 37.101562 36.5 C 37.800781 35.800781 37.898438 35 37.898438 34.601562 C 37.898438 34.199219 37.800781 33.398438 37.101562 32.699219 C 34.5 30.101562 34.5 25.898438 37.101562 23.300781 C 39.699219 20.699219 43.898438 20.699219 46.5 23.300781 C 49.699219 26.601562 50.699219 31.101562 50.699219 34.601562 Z M 50.699219 34.601562 "/>
<path style=" stroke:none;fill-rule:nonzero;fill:rgb(100%,27.843137%,33.333333%);fill-opacity:1;" d="M 42 44.5 C 37.898438 44.199219 36.699219 39.800781 37.5 36.101562 C 37.398438 36.199219 37.300781 36.398438 37.199219 36.5 C 34.601562 39.101562 34.601562 43.300781 37.199219 45.898438 C 39.800781 48.5 44 48.5 46.601562 45.898438 C 49.398438 43.101562 50.5 39.5 50.800781 36.300781 C 47.898438 42.699219 46.199219 44.800781 42 44.5 Z M 42 44.5 "/>
<path style=" stroke:none;fill-rule:nonzero;fill:rgb(100%,27.843137%,33.333333%);fill-opacity:1;" d="M 19.101562 34.398438 C 17.5 34.800781 16.601562 36.101562 16.300781 36.800781 C 16.101562 37.101562 16.300781 37.5 16.601562 37.699219 C 16.699219 37.699219 16.800781 37.800781 16.898438 37.800781 C 17.101562 37.800781 17.398438 37.699219 17.5 37.398438 C 17.800781 36.898438 18.398438 36 19.398438 35.601562 C 19.199219 35.101562 19.101562 34.699219 19.101562 34.5 C 19.101562 34.5 19.101562 34.5 19.101562 34.398438 Z M 19.101562 34.300781 C 19.101562 34 19.199219 33.5 19.5 33.101562 C 18.300781 32.800781 17.699219 31.898438 17.398438 31.300781 C 17.199219 31 16.800781 30.898438 16.5 31 C 16.199219 31.199219 16.101562 31.601562 16.199219 31.898438 C 16.699219 32.601562 17.5 33.800781 19.101562 34.300781 Z M 19.101562 34.300781 "/>
<path style=" stroke:none;fill-rule:nonzero;fill:rgb(100%,27.843137%,33.333333%);fill-opacity:1;" d="M 40.398438 31 C 40.101562 30.800781 39.699219 31 39.5 31.300781 C 39.199219 31.898438 38.601562 32.800781 37.398438 33.101562 C 37.699219 33.601562 37.800781 34 37.800781 34.300781 C 39.398438 33.898438 40.300781 32.601562 40.601562 31.898438 C 40.898438 31.5 40.800781 31.101562 40.398438 31 Z M 40.398438 31 "/>
<path style=" stroke:none;fill-rule:nonzero;fill:rgb(100%,27.843137%,33.333333%);fill-opacity:1;" d="M 39.601562 37.398438 C 39.699219 37.601562 39.898438 37.800781 40.199219 37.800781 C 40.300781 37.800781 40.398438 37.800781 40.5 37.699219 C 40.800781 37.5 40.898438 37.101562 40.800781 36.800781 C 40.398438 36 39.601562 34.800781 38 34.398438 C 38 34.5 38 34.5 38 34.5 C 38 34.800781 38 35.199219 37.699219 35.601562 C 38.699219 36 39.300781 36.898438 39.601562 37.398438 Z M 39.601562 37.398438 "/>
<path style=" stroke:none;fill-rule:nonzero;fill:rgb(98.823529%,16.862745%,22.745098%);fill-opacity:1;" d="M 15.5 41 C 15.101562 41 14.699219 40.699219 14.699219 40.199219 C 14.699219 39.800781 15 39.5 15.398438 39.5 C 15.800781 39.5 16.199219 39.800781 16.199219 40.300781 C 16.199219 40.601562 15.898438 41 15.5 41 Z M 15.5 41 "/>
<path style=" stroke:none;fill-rule:nonzero;fill:rgb(100%,27.843137%,33.333333%);fill-opacity:1;" d="M 13.300781 42.699219 C 12.898438 42.699219 12.5 42.398438 12.5 42 C 12.5 41.601562 12.800781 41.199219 13.300781 41.199219 C 13.800781 41.199219 14.101562 41.5 14.101562 42 C 14 42.398438 13.699219 42.699219 13.300781 42.699219 Z M 13.300781 42.699219 "/>
<path style=" stroke:none;fill-rule:nonzero;fill:rgb(100%,27.843137%,33.333333%);fill-opacity:1;" d="M 14.898438 26.101562 C 14.5 26.101562 14.101562 25.800781 14.101562 25.398438 C 14.101562 25 14.398438 24.601562 14.898438 24.601562 C 15.300781 24.601562 15.699219 24.898438 15.699219 25.398438 C 15.699219 25.800781 15.300781 26.101562 14.898438 26.101562 Z M 14.898438 26.101562 "/>
<path style=" stroke:none;fill-rule:nonzero;fill:rgb(100%,27.843137%,33.333333%);fill-opacity:1;" d="M 44.101562 39.898438 C 43.699219 39.898438 43.300781 39.601562 43.300781 39.199219 C 43.300781 38.800781 43.601562 38.398438 44 38.398438 C 44.398438 38.398438 44.800781 38.699219 44.800781 39.199219 C 44.898438 39.601562 44.601562 39.898438 44.101562 39.898438 Z M 44.101562 39.898438 "/>
<path style=" stroke:none;fill-rule:nonzero;fill:rgb(100%,27.843137%,33.333333%);fill-opacity:1;" d="M 46.898438 38.398438 C 46.5 38.398438 46.101562 38.101562 46.101562 37.601562 C 46.101562 37.101562 46.398438 36.800781 46.800781 36.800781 C 47.199219 36.800781 47.601562 37.101562 47.601562 37.601562 C 47.601562 38.101562 47.300781 38.398438 46.898438 38.398438 Z M 46.898438 38.398438 "/>
<path style=" stroke:none;fill-rule:nonzero;fill:rgb(98.823529%,16.862745%,22.745098%);fill-opacity:1;" d="M 42 26.699219 C 41.601562 26.699219 41.199219 26.398438 41.199219 25.898438 C 41.199219 25.398438 41.5 25.101562 41.898438 25.101562 C 42.300781 25.101562 42.699219 25.398438 42.699219 25.898438 C 42.699219 26.398438 42.398438 26.699219 42 26.699219 Z M 42 26.699219 "/>
<path style=" stroke:none;fill-rule:nonzero;fill:rgb(77.647059%,9.803922%,14.901961%);fill-opacity:1;" d="M 29.800781 17.199219 C 29.800781 16.601562 29.199219 16.199219 28.5 16.199219 C 27.800781 16.199219 27.199219 16.699219 27.199219 17.199219 C 27.199219 17.800781 27.800781 18.199219 28.5 18.199219 C 29.199219 18.199219 29.800781 17.699219 29.800781 17.199219 Z M 29.800781 17.199219 "/>
</g>
</svg>
