<?xml version="1.0" encoding="UTF-8"?>
<svg xmlns="http://www.w3.org/2000/svg" xmlns:xlink="http://www.w3.org/1999/xlink" width="57pt" height="68pt" viewBox="0 0 57 68" version="1.1">
<g id="surface1">
<path style=" stroke:none;fill-rule:nonzero;fill:rgb(26.27451%,36.078431%,71.764706%);fill-opacity:1;" d="M 51 52.601562 L 33.300781 62.800781 C 30.300781 64.5 26.601562 64.5 23.699219 62.800781 L 6 52.601562 C 3 50.898438 1.199219 47.699219 1.199219 44.199219 L 1.199219 23.800781 C 1.199219 20.398438 3 17.199219 6 15.398438 L 23.699219 5.199219 C 26.699219 3.5 30.398438 3.5 33.300781 5.199219 L 51 15.398438 C 54 17.101562 55.800781 20.300781 55.800781 23.800781 L 55.800781 44.199219 C 55.800781 47.699219 54 50.800781 51 52.601562 Z M 51 52.601562 "/>
<path style=" stroke:none;fill-rule:nonzero;fill:rgb(7.058824%,70.980392%,100%);fill-opacity:1;" d="M 37.199219 20.699219 L 37.199219 47.199219 L 31.898438 47.199219 L 31.898438 19.398438 Z M 37.199219 20.699219 "/>
<path style=" stroke:none;fill-rule:nonzero;fill:rgb(28.235294%,85.098039%,100%);fill-opacity:1;" d="M 25.800781 19.398438 L 34.5 19.398438 L 34.5 44.601562 L 25.800781 44.601562 Z M 25.800781 19.398438 "/>
<path style=" stroke:none;fill-rule:nonzero;fill:rgb(7.058824%,70.980392%,100%);fill-opacity:1;" d="M 13.199219 25.398438 L 17.199219 25.398438 L 17.199219 42.601562 L 13.199219 42.601562 Z M 13.199219 25.398438 "/>
<path style=" stroke:none;fill-rule:nonzero;fill:rgb(48.235294%,89.019608%,100%);fill-opacity:1;" d="M 6.5 25.398438 L 6.5 42.601562 L 11.300781 47.398438 C 11.398438 47.5 11.601562 47.601562 11.800781 47.601562 L 14.5 25.300781 Z M 6.5 25.398438 "/>
<path style=" stroke:none;fill-rule:nonzero;fill:rgb(28.235294%,85.098039%,100%);fill-opacity:1;" d="M 14.5 25.398438 L 14.5 42.601562 L 11.800781 37.300781 L 11.800781 30.699219 Z M 14.5 25.398438 "/>
<path style=" stroke:none;fill-rule:nonzero;fill:rgb(28.235294%,49.411765%,82.352941%);fill-opacity:1;" d="M 50.5 25.398438 L 50.5 42.601562 L 47.800781 45.300781 L 46.5 45.300781 L 46.5 24.101562 Z M 50.5 25.398438 "/>
<path style=" stroke:none;fill-rule:nonzero;fill:rgb(7.058824%,70.980392%,100%);fill-opacity:1;" d="M 42.5 24.101562 L 45.199219 47.699219 C 45.398438 47.699219 45.5 47.601562 45.699219 47.5 L 47.898438 45.300781 L 47.898438 24.101562 Z M 42.5 24.101562 "/>
<path style=" stroke:none;fill-rule:nonzero;fill:rgb(28.235294%,85.098039%,100%);fill-opacity:1;" d="M 42.5 37.300781 L 39.800781 42.601562 L 44.601562 47.398438 C 44.699219 47.5 44.898438 47.601562 45.101562 47.601562 L 45.101562 37.300781 Z M 42.5 37.300781 "/>
<path style=" stroke:none;fill-rule:nonzero;fill:rgb(48.235294%,89.019608%,100%);fill-opacity:1;" d="M 47.800781 22.699219 L 46.5 24 L 47.800781 25.300781 L 50.5 25.300781 Z M 47.800781 22.699219 "/>
<path style=" stroke:none;fill-rule:nonzero;fill:rgb(67.843137%,93.333333%,100%);fill-opacity:1;" d="M 47.800781 22.699219 L 45.601562 20.5 C 45.5 20.398438 45.300781 20.300781 45.101562 20.300781 L 43.300781 25.300781 L 47.699219 25.300781 L 47.699219 22.699219 Z M 47.800781 22.699219 "/>
<path style=" stroke:none;fill-rule:nonzero;fill:rgb(87.843137%,97.254902%,100%);fill-opacity:1;" d="M 44.699219 20.601562 L 39.898438 25.398438 L 42.601562 30.699219 L 45.300781 30.699219 L 45.300781 20.398438 C 45 20.398438 44.800781 20.398438 44.699219 20.601562 Z M 44.699219 20.601562 "/>
<path style=" stroke:none;fill-rule:nonzero;fill:rgb(48.235294%,89.019608%,100%);fill-opacity:1;" d="M 45.199219 30.699219 L 45.199219 37.300781 L 39.898438 42.601562 L 39.898438 25.398438 Z M 45.199219 30.699219 "/>
<path style=" stroke:none;fill-rule:nonzero;fill:rgb(48.235294%,89.019608%,100%);fill-opacity:1;" d="M 37.199219 20.699219 L 34.5 18 L 33.199219 19.300781 L 34.5 20.601562 L 37.199219 20.601562 Z M 37.199219 20.699219 "/>
<path style=" stroke:none;fill-rule:nonzero;fill:rgb(28.235294%,49.411765%,82.352941%);fill-opacity:1;" d="M 31.898438 47.300781 L 34.5 44.699219 L 37.101562 47.300781 L 34.5 49.898438 Z M 31.898438 47.300781 "/>
<path style=" stroke:none;fill-rule:nonzero;fill:rgb(67.843137%,93.333333%,100%);fill-opacity:1;" d="M 29 12.5 C 28.898438 12.398438 28.699219 12.300781 28.5 12.300781 L 25.800781 20.699219 L 34.5 20.699219 L 34.5 18 Z M 29 12.5 "/>
<path style=" stroke:none;fill-rule:nonzero;fill:rgb(87.843137%,97.254902%,100%);fill-opacity:1;" d="M 28 12.5 L 19.800781 20.699219 L 24.199219 29.398438 L 28.601562 29.398438 L 28.601562 12.300781 C 28.300781 12.300781 28.199219 12.398438 28 12.5 Z M 28 12.5 "/>
<path style=" stroke:none;fill-rule:nonzero;fill:rgb(7.058824%,70.980392%,100%);fill-opacity:1;" d="M 28.5 38.5 L 25.800781 47.101562 L 28.5 55.699219 C 28.699219 55.699219 28.800781 55.601562 29 55.5 L 34.601562 49.898438 L 34.601562 44.601562 Z M 28.5 38.5 "/>
<path style=" stroke:none;fill-rule:nonzero;fill:rgb(48.235294%,89.019608%,100%);fill-opacity:1;" d="M 28.5 29.5 L 19.800781 20.800781 L 19.800781 47.300781 L 28 55.5 C 28.101562 55.601562 28.300781 55.699219 28.5 55.699219 Z M 28.5 29.5 "/>
<path style=" stroke:none;fill-rule:nonzero;fill:rgb(28.235294%,49.411765%,82.352941%);fill-opacity:1;" d="M 14.5 40 L 13.199219 42.699219 L 14.5 45.398438 L 17.199219 42.699219 Z M 14.5 40 "/>
<path style=" stroke:none;fill-rule:nonzero;fill:rgb(7.058824%,70.980392%,100%);fill-opacity:1;" d="M 11.800781 37.300781 L 11.800781 47.601562 C 12 47.601562 12.101562 47.5 12.300781 47.398438 L 14.5 45.199219 L 14.5 40 Z M 11.800781 37.300781 "/>
<path style=" stroke:none;fill-rule:nonzero;fill:rgb(48.235294%,89.019608%,100%);fill-opacity:1;" d="M 14.5 22.699219 L 13.199219 25.398438 L 14.5 28.101562 L 17.199219 25.398438 Z M 14.5 22.699219 "/>
<path style=" stroke:none;fill-rule:nonzero;fill:rgb(87.843137%,97.254902%,100%);fill-opacity:1;" d="M 11.398438 20.601562 L 6.601562 25.398438 L 11.898438 27.199219 L 13.699219 23.800781 L 11.898438 20.398438 C 11.699219 20.398438 11.5 20.398438 11.398438 20.601562 Z M 11.398438 20.601562 "/>
<path style=" stroke:none;fill-rule:nonzero;fill:rgb(67.843137%,93.333333%,100%);fill-opacity:1;" d="M 12.300781 20.601562 C 12.199219 20.5 12 20.398438 11.800781 20.398438 L 11.800781 30.699219 L 14.5 28 L 14.5 22.699219 Z M 12.300781 20.601562 "/>
</g>
</svg>
