<?xml version="1.0" encoding="UTF-8"?>
<svg xmlns="http://www.w3.org/2000/svg" xmlns:xlink="http://www.w3.org/1999/xlink" width="57pt" height="68pt" viewBox="0 0 57 68" version="1.1">
<g id="surface1">
<path style=" stroke:none;fill-rule:nonzero;fill:rgb(100%,47.843137%,32.54902%);fill-opacity:1;" d="M 51 52.601562 L 33.300781 62.800781 C 30.300781 64.5 26.601562 64.5 23.699219 62.800781 L 6 52.601562 C 3 50.898438 1.199219 47.699219 1.199219 44.199219 L 1.199219 23.800781 C 1.199219 20.398438 3 17.199219 6 15.398438 L 23.699219 5.199219 C 26.699219 3.5 30.398438 3.5 33.300781 5.199219 L 51 15.398438 C 54 17.101562 55.800781 20.300781 55.800781 23.800781 L 55.800781 44.199219 C 55.800781 47.699219 54 50.800781 51 52.601562 Z M 51 52.601562 "/>
<path style=" stroke:none;fill-rule:nonzero;fill:rgb(92.156863%,94.117647%,94.901961%);fill-opacity:1;" d="M 50.199219 34 C 50.199219 45.984375 40.484375 55.699219 28.5 55.699219 C 16.515625 55.699219 6.800781 45.984375 6.800781 34 C 6.800781 22.015625 16.515625 12.300781 28.5 12.300781 C 40.484375 12.300781 50.199219 22.015625 50.199219 34 Z M 50.199219 34 "/>
<path style=" stroke:none;fill-rule:nonzero;fill:rgb(19.607843%,74.509804%,65.098039%);fill-opacity:1;" d="M 43.601562 34 C 43.601562 42.339844 36.839844 49.101562 28.5 49.101562 C 20.160156 49.101562 13.398438 42.339844 13.398438 34 C 13.398438 25.660156 20.160156 18.898438 28.5 18.898438 C 36.839844 18.898438 43.601562 25.660156 43.601562 34 Z M 43.601562 34 "/>
<path style=" stroke:none;fill-rule:nonzero;fill:rgb(0%,0%,0%);fill-opacity:1;" d="M 36.199219 34 C 36.199219 38.253906 32.753906 41.699219 28.5 41.699219 C 24.246094 41.699219 20.800781 38.253906 20.800781 34 C 20.800781 29.746094 24.246094 26.300781 28.5 26.300781 C 32.753906 26.300781 36.199219 29.746094 36.199219 34 Z M 36.199219 34 "/>
<path style=" stroke:none;fill-rule:nonzero;fill:rgb(100%,100%,100%);fill-opacity:1;" d="M 34.5 30.199219 C 34.5 31.636719 33.335938 32.800781 31.898438 32.800781 C 30.464844 32.800781 29.300781 31.636719 29.300781 30.199219 C 29.300781 28.765625 30.464844 27.601562 31.898438 27.601562 C 33.335938 27.601562 34.5 28.765625 34.5 30.199219 Z M 34.5 30.199219 "/>
</g>
</svg>
