<?xml version="1.0" encoding="utf-8"?>
<!DOCTYPE svg PUBLIC "-//W3C//DTD SVG 1.1//EN" "http://www.w3.org/Graphics/SVG/1.1/DTD/svg11.dtd">
<svg version="1.1" id="Layer_1" xmlns="http://www.w3.org/2000/svg" xmlns:xlink="http://www.w3.org/1999/xlink" x="0px" y="0px"
	 width="48px" height="35px" viewBox="0 0 48 35" enable-background="new 0 0 48 35" xml:space="preserve">
<g>
	<g>
		<path fill="#5D647F" d="M43.257,1.096H4.743c-1.967,0-3.566,1.6-3.566,3.566v25.676c0,1.967,1.6,3.566,3.566,3.566h38.514
			c1.967,0,3.566-1.6,3.566-3.566V4.662C46.823,2.695,45.224,1.096,43.257,1.096z"/>
	</g>
	<g>
		<path fill="#FFD100" d="M16.868,15.36H8.31c-0.787,0-1.426-0.639-1.426-1.426V8.228c0-0.787,0.639-1.426,1.426-1.426h8.559
			c0.787,0,1.426,0.639,1.426,1.426v5.707C18.294,14.722,17.655,15.36,16.868,15.36z"/>
	</g>
	<g>
		<g>
			<path fill="#B8BAC0" d="M11.876,24.633H8.31c-0.787,0-1.426-0.639-1.426-1.427v-0.712c0-0.789,0.639-1.428,1.426-1.428h3.566
				c0.787,0,1.426,0.639,1.426,1.428v0.712C13.302,23.994,12.663,24.633,11.876,24.633z"/>
		</g>
		<g>
			<path fill="#B8BAC0" d="M21.147,24.633h-3.566c-0.787,0-1.426-0.639-1.426-1.427v-0.712c0-0.789,0.639-1.428,1.426-1.428h3.566
				c0.787,0,1.427,0.639,1.427,1.428v0.712C22.574,23.994,21.935,24.633,21.147,24.633z"/>
		</g>
		<g>
			<path fill="#B8BAC0" d="M30.419,24.633h-3.566c-0.787,0-1.426-0.639-1.426-1.427v-0.712c0-0.789,0.639-1.428,1.426-1.428h3.566
				c0.789,0,1.428,0.639,1.428,1.428v0.712C31.847,23.994,31.208,24.633,30.419,24.633z"/>
		</g>
		<g>
			<path fill="#B8BAC0" d="M39.69,24.633h-3.564c-0.789,0-1.428-0.639-1.428-1.427v-0.712c0-0.789,0.639-1.428,1.428-1.428h3.564
				c0.789,0,1.428,0.639,1.428,1.428v0.712C41.118,23.994,40.479,24.633,39.69,24.633z"/>
		</g>
	</g>
	<g>
		<g>
			<path fill="#8A8895" d="M21.86,28.912H7.597c-0.396,0-0.713-0.319-0.713-0.714c0-0.393,0.316-0.713,0.713-0.713H21.86
				c0.395,0,0.714,0.32,0.714,0.713C22.574,28.593,22.255,28.912,21.86,28.912z"/>
		</g>
	</g>
	<g>
		<g>
			<path fill="#8A8895" d="M31.134,28.912h-6.42c-0.395,0-0.713-0.319-0.713-0.714c0-0.393,0.318-0.713,0.713-0.713h6.42
				c0.393,0,0.713,0.32,0.713,0.713C31.847,28.593,31.526,28.912,31.134,28.912z"/>
		</g>
	</g>
	<g>
		<path fill="#FF4F19" d="M33.985,13.935c-0.783,0.875-1.922,1.426-3.189,1.426c-2.363,0-4.279-1.916-4.279-4.279
			s1.916-4.279,4.279-4.279c1.268,0,2.404,0.551,3.189,1.426"/>
	</g>
	<g>
		<polygon fill="#FF9500" points="18.294,11.795 11.162,11.795 11.162,10.369 18.294,10.369 18.294,8.941 11.162,8.941
			11.162,6.802 9.735,6.802 9.735,15.36 11.162,15.36 11.162,13.221 18.294,13.221 		"/>
	</g>
	<g>
		<circle fill="#FFD100" cx="36.839" cy="11.081" r="4.279"/>
	</g>
</g>
</svg>
