<?xml version="1.0" encoding="utf-8"?>
<!-- Generator: Adobe Illustrator 26.4.1, SVG Export Plug-In . SVG Version: 6.00 Build 0)  -->
<svg version="1.1" id="Capa_1" xmlns="http://www.w3.org/2000/svg" xmlns:xlink="http://www.w3.org/1999/xlink" x="0px" y="0px"
	 viewBox="0 0 60 66" style="enable-background:new 0 0 60 66;" xml:space="preserve">
<style type="text/css">
	.st0{fill:#373769;}
</style>
<g>
	<g>
		<path class="st0" d="M15.5,35.9c-0.8,0.8-1.7,1.1-2.9,1.1c-1.1,0-2.1-0.4-2.9-1.1c-0.8-0.8-1.2-1.7-1.2-2.8c0-1.1,0.4-2.1,1.2-2.8
			c0.8-0.8,1.7-1.1,2.9-1.1c1.1,0,2.1,0.4,2.9,1.1c0.8,0.8,1.2,1.7,1.2,2.8C16.7,34.2,16.3,35.2,15.5,35.9 M14.9,33.1
			c0-0.7-0.2-1.3-0.7-1.8c-0.4-0.5-1-0.7-1.6-0.7c-0.6,0-1.2,0.2-1.6,0.7c-0.4,0.5-0.7,1.1-0.7,1.8c0,0.7,0.2,1.3,0.7,1.8
			c0.4,0.5,1,0.7,1.6,0.7c0.6,0,1.2-0.2,1.6-0.7C14.7,34.3,14.9,33.8,14.9,33.1"/>
		<polygon class="st0" points="25.1,32.1 23,36.3 21.9,36.3 19.9,32.1 19.9,37 18.2,37 18.2,29.3 20.5,29.3 22.5,33.5 24.5,29.3 
			26.8,29.3 26.8,37 25.1,37 		"/>
		<polygon class="st0" points="34.2,29.3 34.2,30.8 30.4,30.8 30.4,32.4 33.8,32.4 33.8,33.9 30.4,33.9 30.4,35.5 34.3,35.5 
			34.3,37 28.7,37 28.7,29.3 		"/>
		<path class="st0" d="M40.9,33h1.7v2.7c-0.8,0.9-1.8,1.3-3.2,1.3c-1.1,0-2.1-0.4-2.8-1.1c-0.8-0.8-1.2-1.7-1.2-2.8
			c0-1.1,0.4-2.1,1.2-2.9c0.8-0.8,1.7-1.1,2.8-1.1s2.1,0.4,2.9,1.1l-0.9,1.3c-0.3-0.3-0.7-0.5-1-0.6c-0.3-0.1-0.6-0.2-0.9-0.2
			c-0.7,0-1.2,0.2-1.7,0.7c-0.4,0.4-0.7,1-0.7,1.8c0,0.7,0.2,1.3,0.6,1.8c0.4,0.4,0.9,0.7,1.5,0.7c0.6,0,1.1-0.1,1.5-0.3V33z"/>
		<path class="st0" d="M49.6,37l-0.7-1.7h-3.2L44.9,37h-1.8l3.3-7.7h1.7l3.3,7.7H49.6z M47.2,31.6l-1,2.2h1.9L47.2,31.6z"/>
		<path class="st0" d="M29.8,16.7c-5.9,0-11.2,3.1-14.1,8.2l2,0c2.7-4,7.2-6.4,12-6.4c4.9,0,9.3,2.4,12,6.4h2
			C40.9,19.8,35.7,16.7,29.8,16.7"/>
		<path class="st0" d="M29.8,16.7c-5.9,0-11.2,3.1-14.1,8.2l2,0c2.7-4,7.2-6.4,12-6.4c4.9,0,9.3,2.4,12,6.4h2
			C40.9,19.8,35.7,16.7,29.8,16.7z"/>
		<path class="st0" d="M34,47.6L34,47.6c-0.3,0.1-0.5,0.2-0.6,0.4c-0.1,0.2-0.1,0.4-0.1,0.7c0.1,0.4,0.5,0.6,0.8,0.6h11
			c0.3,0,0.5-0.1,0.7-0.3c0.2-0.2,0.2-0.4,0.2-0.7c-0.1-0.4-0.5-0.8-1-0.8h-7.3c0,0,2.1-1.4,3.1-2.4c1.3-1.1,2.3-2.5,3.1-4h-2
			C40.1,44.1,37.2,46.4,34,47.6"/>
		<path class="st0" d="M34,47.6L34,47.6c-0.3,0.1-0.5,0.2-0.6,0.4c-0.1,0.2-0.1,0.4-0.1,0.7c0.1,0.4,0.5,0.6,0.8,0.6h11
			c0.3,0,0.5-0.1,0.7-0.3c0.2-0.2,0.2-0.4,0.2-0.7c-0.1-0.4-0.5-0.8-1-0.8h-7.3c0,0,2.1-1.4,3.1-2.4c1.3-1.1,2.3-2.5,3.1-4h-2
			C40.1,44.1,37.2,46.4,34,47.6z"/>
		<path class="st0" d="M25.5,47.6L25.5,47.6c0.3,0.1,0.5,0.2,0.6,0.4c0.1,0.2,0.1,0.4,0.1,0.7c-0.1,0.4-0.5,0.6-0.8,0.6h-11
			c-0.3,0-0.5-0.1-0.7-0.3c-0.2-0.2-0.2-0.4-0.2-0.7c0.1-0.4,0.5-0.8,1-0.8h7.3c0,0-2.1-1.4-3.1-2.4c-1.3-1.1-2.3-2.5-3.1-4h2
			C19.4,44.1,22.2,46.4,25.5,47.6"/>
		<path class="st0" d="M25.5,47.6L25.5,47.6c0.3,0.1,0.5,0.2,0.6,0.4c0.1,0.2,0.1,0.4,0.1,0.7c-0.1,0.4-0.5,0.6-0.8,0.6h-11
			c-0.3,0-0.5-0.1-0.7-0.3c-0.2-0.2-0.2-0.4-0.2-0.7c0.1-0.4,0.5-0.8,1-0.8h7.3c0,0-2.1-1.4-3.1-2.4c-1.3-1.1-2.3-2.5-3.1-4h2
			C19.4,44.1,22.2,46.4,25.5,47.6z"/>
	</g>
	<path class="st0" d="M30,66c-1.9,0-3.8-0.5-5.5-1.5l-18.9-11C2.1,51.6,0,47.9,0,44V22c0-3.9,2.1-7.6,5.5-9.6l18.9-11
		c3.4-2,7.7-2,11.1,0l18.9,11c3.4,2,5.5,5.7,5.5,9.6V44c0,3.9-2.1,7.6-5.5,9.6l-18.9,11C33.8,65.5,31.9,66,30,66z M30,1.5
		c-1.7,0-3.3,0.4-4.8,1.3l-18.9,11c-3,1.7-4.8,4.9-4.8,8.3V44c0,3.4,1.8,6.6,4.8,8.3l18.9,11c3,1.7,6.6,1.7,9.6,0l18.9-11
		c3-1.7,4.8-4.9,4.8-8.3V22c0-3.4-1.8-6.6-4.8-8.3l-18.9-11C33.3,1.9,31.7,1.5,30,1.5z"/>
</g>
</svg>
