<?xml version="1.0" encoding="utf-8"?>
<!-- Generator: Adobe Illustrator 26.4.1, SVG Export Plug-In . SVG Version: 6.00 Build 0)  -->
<svg version="1.1" id="Capa_1" xmlns="http://www.w3.org/2000/svg" xmlns:xlink="http://www.w3.org/1999/xlink" x="0px" y="0px"
	 viewBox="0 0 55 60" style="enable-background:new 0 0 55 60;" xml:space="preserve">
<style type="text/css">
	.st0{fill:#FF5368;}
	.st1{fill:#F2F0F1;}
	.st2{fill:#C5324F;}
	.st3{fill:none;}
	.st4{fill:#FFFFFF;}
</style>
<g>
	<path class="st0" d="M50.1,48.5L32.4,58.7c-3,1.7-6.7,1.7-9.7,0L4.9,48.5c-3-1.7-4.9-4.9-4.9-8.3V19.8c0-3.4,1.8-6.6,4.9-8.3
		L22.6,1.3c3-1.7,6.7-1.7,9.7,0l17.8,10.2c3,1.7,4.9,4.9,4.9,8.3v20.4C55,43.6,53.2,46.8,50.1,48.5z"/>
	<g>
		<g>
			<path class="st1" d="M32.4,1.3c-3-1.7-6.7-1.7-9.7,0l-0.7,0.4v11.4l-3.1,3.1c-0.3,0.3-0.5,0.5-0.7,0.8c-2.1,3-1.4,7.1,1.6,9.3
				c1.1,0.8,2.5,1.2,3.9,1.2c1.4,0,2.8-0.4,3.9-1.3c1.1,0.8,2.5,1.3,3.9,1.3c3.7,0,6.7-3,6.7-6.6c0-1.4-0.4-2.7-1.2-3.9
				c-0.2-0.3-0.5-0.6-0.7-0.8l-3.1-3.1V1.7L32.4,1.3z"/>
			<path class="st1" d="M35.3,33.1c-1.1-0.8-2.5-1.2-3.9-1.2c-1.4,0-2.8,0.4-3.9,1.3c-1.1-0.8-2.5-1.3-3.9-1.3c-3.7,0-6.7,3-6.7,6.6
				c0,1.4,0.4,2.7,1.2,3.8c0.2,0.3,0.5,0.6,0.7,0.8l3.1,3.1l0,12l0.7,0.4c3,1.7,6.7,1.7,9.7,0l0.7-0.4l0-12l3.1-3.1
				c0.3-0.3,0.5-0.5,0.7-0.8C39,39.4,38.3,35.2,35.3,33.1z"/>
		</g>
		<path class="st2" d="M32.4,1.3c-0.1-0.1-0.3-0.1-0.4-0.2v12c0,0.3,0.1,0.6,0.3,0.8l3.1,3.1c0.2,0.2,0.4,0.5,0.6,0.7
			c0.7,0.9,1,2.1,1,3.2c0,3.1-2.5,5.5-5.6,5.5c-1.2,0-2.3-0.4-3.3-1.1c-0.2-0.1-0.4-0.2-0.7-0.2c-0.2,0-0.5,0.1-0.7,0.2
			c-0.9,0.7-2.1,1.1-3.3,1.1c-1.2,0-2.3-0.4-3.2-1c-2.5-1.8-3.1-5.2-1.3-7.7c0.2-0.3,0.4-0.5,0.6-0.7l3.1-3.1
			c0.2-0.2,0.3-0.5,0.3-0.8v-12c-0.1,0.1-0.3,0.1-0.4,0.2l-1.8,1.1v10.3L18,15.4c-0.3,0.3-0.6,0.6-0.8,1c-2.2,3.1-1.9,7.3,0.8,10
			c2.5,2.5,6.4,3,9.5,1.2c1.2,0.7,2.6,1.1,3.9,1.1c2.1,0,4.1-0.8,5.5-2.3c2.7-2.7,3-6.9,0.8-10c-0.3-0.3-0.5-0.7-0.8-1l-2.8-2.7V2.3
			L32.4,1.3z"/>
		<path class="st2" d="M27.5,31.8c-1.2-0.7-2.6-1.1-3.9-1.1c-2.1,0-4.1,0.8-5.5,2.3c-2.7,2.7-3,6.9-0.8,10c0.3,0.3,0.5,0.7,0.8,1
			l2.8,2.7v10.9l1.8,1.1c0.1,0.1,0.3,0.1,0.4,0.2V46.3c0-0.3-0.1-0.6-0.3-0.8l-3.1-3.1c-0.2-0.2-0.4-0.5-0.6-0.7
			c-0.7-0.9-1-2.1-1-3.2c0-3.1,2.5-5.5,5.6-5.5c1.2,0,2.3,0.4,3.3,1.1c0.4,0.3,0.9,0.3,1.3,0c0.9-0.7,2.1-1.1,3.3-1.1
			c1.2,0,2.3,0.4,3.2,1c2.5,1.8,3.1,5.2,1.3,7.7c-0.2,0.3-0.4,0.5-0.6,0.7l-3.1,3.1C32.1,45.7,32,46,32,46.3v12.7
			c0.1-0.1,0.3-0.1,0.4-0.2l1.8-1.1V46.7L37,44c0.3-0.3,0.6-0.6,0.8-1c2.2-3.1,1.9-7.3-0.8-10C34.5,30.5,30.6,30,27.5,31.8z"/>
	</g>
	<path class="st3" d="M50.1,48.5L32.4,58.7c-3,1.7-6.7,1.7-9.7,0L4.9,48.5c-3-1.7-4.9-4.9-4.9-8.3V19.8c0-3.4,1.8-6.6,4.9-8.3
		L22.6,1.3c3-1.7,6.7-1.7,9.7,0l17.8,10.2c3,1.7,4.9,4.9,4.9,8.3v20.4C55,43.6,53.2,46.8,50.1,48.5z"/>
	<path class="st4" d="M24.6,0.5v11c0,1.6-0.4,3-1.1,3.9c-0.2,0.2,0,0.6,0.3,0.6c0.1,0,0.1,0,0.2,0c1.6-0.8,2.8-2.5,2.8-4.5V0
		C25.9,0.1,25.2,0.2,24.6,0.5z"/>
	<path class="st4" d="M24.6,59.6l0-11.7c0-1.6-0.4-3-1.1-3.9c-0.2-0.2,0-0.6,0.3-0.6c0.1,0,0.1,0,0.2,0c1.6,0.8,2.8,2.5,2.8,4.5V60
		C25.9,59.9,25.3,59.8,24.6,59.6z"/>
</g>
</svg>
