<?xml version="1.0" encoding="utf-8"?>
<!-- Generator: Adobe Illustrator 26.4.1, SVG Export Plug-In . SVG Version: 6.00 Build 0)  -->
<svg version="1.1" id="Capa_1" xmlns="http://www.w3.org/2000/svg" xmlns:xlink="http://www.w3.org/1999/xlink" x="0px" y="0px"
	 viewBox="0 0 55 60" style="enable-background:new 0 0 55 60;" xml:space="preserve">
<style type="text/css">
	.st0{fill:#484B7F;}
	.st1{fill:#EA5B70;}
	.st2{fill:#FFCE71;}
	.st3{fill:#FFB357;}
</style>
<g>
	<path class="st0" d="M50.1,48.5L32.4,58.7c-3,1.7-6.7,1.7-9.7,0L4.9,48.5c-3-1.7-4.9-4.9-4.9-8.3V19.8c0-3.4,1.8-6.6,4.9-8.3
		L22.6,1.3c3-1.7,6.7-1.7,9.7,0l17.8,10.2c3,1.7,4.9,4.9,4.9,8.3v20.4C55,43.6,53.2,46.8,50.1,48.5z"/>
	<g>
		<path class="st1" d="M27.5,11.5C17.2,11.5,8.8,19.8,8.8,30s8.4,18.5,18.7,18.5S46.2,40.2,46.2,30S37.8,11.5,27.5,11.5z M12.2,30
			c0-8.4,6.9-15.2,15.3-15.2c3.4,0,6.6,1.1,9.1,3L23.1,31.2v2.7h-2.7L15.2,39C13.3,36.5,12.2,33.4,12.2,30z M27.5,45.2
			c-3.4,0-6.6-1.1-9.1-3l13.4-13.3v-2.7h2.7l5.2-5.2c1.9,2.5,3,5.6,3,9C42.8,38.4,35.9,45.2,27.5,45.2z"/>
		<g>
			<path class="st2" d="M31.8,33.9C31.8,33.9,31.8,34,31.8,33.9L31.8,33.9L31.8,33.9C31.8,33.9,31.8,33.9,31.8,33.9
				c0.1-0.1,0.3-0.1,0.4-0.2c1.1-0.5,2-1.2,2.7-1.9c1-1.1,1.5-2.2,1-3c-0.5-0.9-2.3-1-4.2-0.3c2.9-1.1,4.9-3.6,4.2-5
				c-0.7-1.1-3.1-1-5.3,0.3c-0.8,0.4-1.4,1-1.9,1.5v-0.7h-2.4v0.7v2.5l-3.1,0.7l3.1,2.7v1.5l-3.2,1l3.2,2.7V42
				c0,0.7,0.5,1.2,1.2,1.2c0.7,0,1.2-0.5,1.2-1.2v-2.3c0.8,0.2,1.9,0,3.1-0.4c2.9-1.1,4.9-3.6,4.2-5C35.3,33,33.2,33.4,31.8,33.9
				L31.8,33.9z"/>
			<g>
				<path class="st3" d="M27.3,28.4c0.1-0.2,0.2-0.4,0.2-0.7c0-1.2-1.2-2.7-3.1-3.8c-2.3-1.3-4.7-1.5-5.3-0.3
					c-0.8,1.4,1.3,3.9,4.2,5C25.1,29.4,26.8,29.3,27.3,28.4L27.3,28.4z"/>
				<path class="st3" d="M23.2,28.7c-1.9-0.7-3.6-0.7-4.2,0.3c-0.8,1.4,1.2,3.8,4.1,5c2,0.8,4.4,0.9,4.4-0.9
					C27.5,31.6,25.6,29.6,23.2,28.7L23.2,28.7z"/>
				<path class="st3" d="M23.1,33.9c-1.8-0.7-3.5-0.6-4.1,0.3c-0.8,1.4,1.3,3.9,4.2,5c2.3,0.9,4.3,0.6,4.3-0.9
					C27.5,36.4,25.1,34.7,23.1,33.9L23.1,33.9z"/>
				<path class="st3" d="M29.9,21.4c0-2.6-1.1-4.7-2.4-4.7s-2.4,2.1-2.4,4.7c0,1.7,0.5,3.2,1.2,4c0.4,0.4,0.8,0.7,1.2,0.7
					C28.8,26.1,29.9,24,29.9,21.4L29.9,21.4z"/>
			</g>
		</g>
	</g>
</g>
</svg>
