<?xml version="1.0" encoding="utf-8"?>
<!-- Generator: Adobe Illustrator 26.4.1, SVG Export Plug-In . SVG Version: 6.00 Build 0)  -->
<svg version="1.1" id="Capa_1" xmlns="http://www.w3.org/2000/svg" xmlns:xlink="http://www.w3.org/1999/xlink" x="0px" y="0px"
	 viewBox="0 0 60 66" style="enable-background:new 0 0 60 66;" xml:space="preserve">
<style type="text/css">
	.st0{fill:#373869;}
</style>
<g id="outline_00000176765105009538874570000002978392850264116387_">
	<g>
		<path class="st0" d="M16.4,52l-2.2-0.5c-0.7-0.2-1.5-0.1-2.1,0.1c-1.3,0.5-2,2-1.5,3.3c0.5,1.3,2,2,3.3,1.5c0,0,0,0,0,0
			c0.7-0.3,1.3-0.7,1.7-1.3l1.3-1.8c0.3-0.4,0.2-0.9-0.2-1.2C16.6,52.1,16.5,52,16.4,52L16.4,52z M14.2,54.1
			c-0.2,0.3-0.5,0.6-0.9,0.7c-0.4,0.2-0.9-0.1-1.1-0.5c-0.2-0.4,0.1-0.9,0.5-1.1c0.4-0.1,0.8-0.2,1.1-0.1l0.9,0.2L14.2,54.1z"/>
		<path class="st0" d="M17.3,43.2c-0.5-0.5-1.1-0.9-1.8-1.1c-1.4-0.3-2.8,0.5-3.1,1.9c-0.3,1.4,0.5,2.8,1.9,3.1
			c0.7,0.2,1.5,0.1,2.1-0.1l2.1-0.8c0.4-0.2,0.7-0.7,0.5-1.1c0-0.1-0.1-0.2-0.2-0.3L17.3,43.2z M15.7,45.4c-0.4,0.1-0.8,0.2-1.1,0.1
			c-0.5-0.1-0.7-0.6-0.6-1c0.1-0.5,0.6-0.7,1-0.6c0.4,0.1,0.7,0.3,1,0.6l0.6,0.7L15.7,45.4z"/>
		<path class="st0" d="M41.4,15.2C41.4,15.2,41.4,15.2,41.4,15.2l2.3-0.1c0.7,0,1.4-0.3,2-0.7c1.1-0.9,1.3-2.5,0.5-3.6
			c-0.9-1.1-2.5-1.3-3.6-0.5c-0.6,0.4-1,1-1.3,1.7l-0.7,2.1c-0.2,0.4,0.1,0.9,0.5,1.1C41.2,15.2,41.3,15.2,41.4,15.2L41.4,15.2z
			 M42.9,12.5c0.1-0.4,0.4-0.7,0.7-0.9c0.4-0.3,0.9-0.2,1.2,0.1c0.3,0.4,0.2,0.9-0.1,1.2c0,0,0,0,0,0c-0.3,0.2-0.7,0.4-1.1,0.4
			l-0.9,0.1L42.9,12.5z"/>
		<path class="st0" d="M54.2,18.2c-0.2-1.4-1.4-2.4-2.9-2.3c-0.7,0.1-1.4,0.4-2,0.9l-1.7,1.4c-0.4,0.3-0.4,0.8-0.1,1.2
			c0.1,0.1,0.2,0.2,0.3,0.2l2,1c0.5,0.3,1.1,0.4,1.7,0.4c0.1,0,0.3,0,0.4,0C53.3,20.9,54.3,19.6,54.2,18.2L54.2,18.2z M51.7,19.3
			c-0.4,0-0.8,0-1.1-0.2l-0.8-0.4l0.7-0.6c0.3-0.3,0.7-0.4,1.1-0.5c0.5-0.1,0.9,0.3,1,0.8C52.5,18.8,52.2,19.3,51.7,19.3z"/>
		<path class="st0" d="M29.1,48.7c-0.2-0.2-0.5-0.2-0.8-0.1l-2.1,0.9c-0.7,0.3-1.2,0.8-1.7,1.4c-0.8,1.2-0.5,2.8,0.7,3.6
			c0.4,0.3,0.9,0.4,1.4,0.4c0.2,0,0.3,0,0.5,0c0.7-0.1,1.3-0.5,1.6-1.1c0.4-0.6,0.6-1.3,0.6-2l0-2.2C29.5,49.2,29.4,48.9,29.1,48.7
			L29.1,48.7z M27.8,51.7c0,0.4-0.1,0.8-0.3,1.1c-0.3,0.4-0.8,0.5-1.2,0.2c-0.4-0.3-0.5-0.8-0.2-1.2c0.2-0.3,0.5-0.6,0.9-0.7
			l0.9-0.4L27.8,51.7z"/>
		<path class="st0" d="M45.6,28.5l0.7-1.6C47,25,47,23,46.4,21.1c0-0.1-0.1-0.2-0.2-0.3l-0.1-0.1C44.4,19,42.2,18,39.8,18
			c-1.1-0.8-2.4-1.4-3.7-1.8l-0.9-0.3c-0.3-2.4-1.4-4.6-3-6.2c-0.2-0.2-0.5-0.3-0.8-0.2L28.2,10c-3.7,0.7-7,2.7-9.3,5.7c0,0,0,0,0,0
			c-0.8,0.2-1.5,0.5-2.3,0.8c-3.2,1.3-6.2,3.3-8.7,5.8L7.3,23c-0.9,0.9-1.5,2.2-1.5,3.5c0,0.5,0.4,0.9,0.9,0.9h3.9
			c0.2,0,0.4,0.2,0.4,0.4c0,0.2-0.2,0.4-0.4,0.4h-3c-0.5,0-0.9,0.4-0.9,0.9c0,0.1,0,0.1,0,0.2c0.6,2.4,2.8,4.1,5.2,4.1h21.2
			c1.1,0,2,0.9,2,2c0,0.5-0.2,1-0.6,1.4l-2.7,2.2c-2-1-4.5-0.9-6.4,0.3l-4.7,2.8c-0.4,0.2-0.5,0.8-0.3,1.2c0.1,0.1,0.2,0.2,0.3,0.3
			l2.3,1.3c2.4,1.4,5.3,1.7,7.9,0.8c0.8,2.6,2.6,4.7,5,5.9l3,1.5c0.4,0.2,0.9,0,1.2-0.4c0.1-0.1,0.1-0.3,0.1-0.5l-0.5-5.1
			c-0.2-1.7-1-3.3-2.3-4.5l4-3.8C44.2,36.2,45.8,32.4,45.6,28.5L45.6,28.5z M45,25c-0.1-0.2-0.1-0.4-0.2-0.6c-0.6-1.6-1.4-3-2.5-4.2
			c1,0.4,1.8,0.9,2.6,1.7C45.2,22.9,45.2,24,45,25L45,25z M31.7,11.7c0.9,1.1,1.4,2.4,1.7,3.7c-1.2-0.3-2.5-0.5-3.8-0.7L31.7,11.7z
			 M28.5,11.7l1.2-0.2l-2,3.1c-0.3,0-0.6,0-0.8,0c-0.2,0-0.4,0-0.6,0l1.6-2.6C28,11.8,28.3,11.8,28.5,11.7L28.5,11.7z M25.2,12.8
			l-1.1,1.9c-0.7,0.1-1.5,0.2-2.2,0.3C22.9,14.1,24,13.4,25.2,12.8z M23,42.9l3.4-2c1.3-0.8,2.8-0.9,4.2-0.4l-5.5,3.5
			c0,0-0.1,0-0.1,0.1c-0.4-0.1-0.7-0.3-1.1-0.5L23,42.9z M32.4,44.4c-0.1-0.5-0.5-0.8-1-0.7c-0.1,0-0.1,0-0.2,0L31,43.9
			c-1.1,0.5-2.4,0.7-3.6,0.6l4.9-3.1c0.1,0.1,0.2,0.1,0.2,0.2l1.1,1.1c0.1,0.1,0.3,0.2,0.4,0.2c0.4,0.1,0.7,0.2,1,0.3v5.7
			C33.7,47.7,32.7,46.2,32.4,44.4L32.4,44.4z M38,47.3l0.3,3.5l-1.6-0.8l0,0v-5.6C37.4,45.2,37.9,46.2,38,47.3L38,47.3z M40.1,37.6
			l-4.3,4.1c-0.4-0.2-0.9-0.4-1.3-0.5l-0.9-0.9c-0.1-0.1-0.2-0.2-0.3-0.3l2.4-1.9c0,0,0,0,0.1-0.1c1.5-1.5,1.5-3.8,0-5.3
			c-0.7-0.7-1.7-1.1-2.6-1.1H24c2.7-2.1,3.1-5.9,1.1-8.5c-0.7-1-1.7-1.7-2.9-2l-1.6-0.5c-0.4-0.2-0.9,0.1-1.1,0.5
			c-0.2,0.4,0.1,0.9,0.5,1.1c0,0,0,0,0,0l1.6,0.5c2.3,0.8,3.5,3.2,2.8,5.5c-0.5,1.4-1.6,2.4-3,2.8l-2.1,0.6h-7.5
			c-1.3,0-2.4-0.6-3.1-1.7h1.7c1.2,0,2.1-1,2.1-2.1s-1-2.1-2.1-2.1H7.6c0.1-0.6,0.4-1.1,0.8-1.5l0.7-0.7c6.5-6.5,16.2-8.9,25-6.2
			l1.4,0.4c6.2,1.9,9.7,8.5,7.8,14.7C42.8,34.5,41.7,36.2,40.1,37.6L40.1,37.6z"/>
		<path class="st0" d="M15.2,20.6c-1.4,0-2.6,1.2-2.6,2.6c0,1.4,1.2,2.6,2.6,2.6s2.6-1.2,2.6-2.6C17.8,21.7,16.7,20.6,15.2,20.6z
			 M15.2,24c-0.5,0-0.9-0.4-0.9-0.9s0.4-0.9,0.9-0.9c0.5,0,0.9,0.4,0.9,0.9C16.1,23.6,15.7,24,15.2,24z"/>
		<path class="st0" d="M31.6,23.7l-2.9,1.2c-0.3,0.1-0.5,0.4-0.5,0.8v1.7c0,0.4,0.2,0.7,0.5,0.8l2.9,1.2c1.6,0.6,3.3-0.1,4-1.7
			c0.6-1.6-0.1-3.3-1.7-4C33.1,23.4,32.3,23.4,31.6,23.7L31.6,23.7z M33.7,27.5c-0.4,0.4-0.9,0.5-1.4,0.3l-2.4-1v-0.6l2.4-1
			c0.7-0.3,1.5,0.1,1.7,0.7C34.2,26.6,34.1,27.1,33.7,27.5z"/>
		<circle class="st0" cx="29" cy="19.7" r="0.9"/>
		<circle class="st0" cx="32.4" cy="18.8" r="0.9"/>
		<circle class="st0" cx="35" cy="21.4" r="0.9"/>
		<circle class="st0" cx="38.4" cy="22.3" r="0.9"/>
		<circle class="st0" cx="40.1" cy="24.8" r="0.9"/>
		<circle class="st0" cx="25.5" cy="18.8" r="0.9"/>
		<path class="st0" d="M47.5,36.1c-0.4-0.2-0.9-0.1-1.2,0.3c-0.2,0.3-0.3,0.5-0.5,0.8c-0.3,0.4-0.2,0.9,0.2,1.2s0.9,0.2,1.2-0.2
			c0,0,0,0,0,0c0.2-0.3,0.4-0.6,0.6-0.9C48,36.9,47.9,36.4,47.5,36.1C47.5,36.1,47.5,36.1,47.5,36.1L47.5,36.1z"/>
		<path class="st0" d="M49,29.8c-0.1-0.5-0.5-0.8-1-0.7c-0.5,0.1-0.8,0.5-0.7,1l0,0l0,0.1c0.2,1,0.2,2,0.1,3.1
			c-0.1,0.5,0.2,0.9,0.7,1c0,0,0,0,0,0c0.5,0.1,0.9-0.2,1-0.7c0,0,0,0,0,0C49.3,32.3,49.3,31.1,49,29.8L49,29.8z"/>
		<path class="st0" d="M6.2,20.7c0.4,0.3,0.9,0.2,1.2-0.1c0.5-0.6,1.1-1.2,1.8-1.7c0.4-0.3,0.4-0.8,0.1-1.2
			c-0.3-0.4-0.8-0.4-1.2-0.2c-0.8,0.6-1.4,1.3-2,2C5.8,19.8,5.8,20.4,6.2,20.7L6.2,20.7z"/>
		<path class="st0" d="M11.6,17.4c0.1,0,0.2,0,0.3-0.1l0.7-0.3c0.4-0.2,0.7-0.7,0.5-1.1c-0.2-0.4-0.7-0.7-1.1-0.5l-0.7,0.3
			c-0.4,0.2-0.7,0.7-0.5,1.1C10.9,17.2,11.2,17.4,11.6,17.4L11.6,17.4z"/>
	</g>
</g>
</svg>
