<?xml version="1.0" encoding="utf-8"?>
<!-- Generator: Adobe Illustrator 26.4.1, SVG Export Plug-In . SVG Version: 6.00 Build 0)  -->
<svg version="1.1" id="Capa_1" xmlns="http://www.w3.org/2000/svg" xmlns:xlink="http://www.w3.org/1999/xlink" x="0px" y="0px"
	 viewBox="0 0 60 66" style="enable-background:new 0 0 60 66;" xml:space="preserve">
<style type="text/css">
	.st0{fill:#373869;}
</style>
<path class="st0" d="M52.7,28.4c0-2.4-1.3-4.6-3.3-5.9c0.2-1.2,0.1-2.4-0.2-3.5c-0.3-1.1-0.9-2.1-1.6-3c-0.1-0.1-0.2-0.2-0.3-0.3
	c-1.3-1.4-3.1-2.2-5.1-2.4c0,0-0.1,0-0.1,0c-0.6-3.3-3.5-5.6-6.8-5.6c-2.1,0-4.1,1-5.4,2.6c-1.3-1.7-3.3-2.6-5.4-2.6
	c-3.3,0-6.1,2.3-6.8,5.6c-0.1,0-0.3,0-0.5,0.1c-0.4,0.1-0.8,0.1-0.9,0.1c-0.5,0.1-1.1,0.3-1.6,0.6c-1,0.5-1.9,1.2-2.6,2.1
	c-0.7,0.9-1.2,1.9-1.5,3c-0.3,1.1-0.3,2.2-0.1,3.3c-2,1.3-3.3,3.5-3.3,5.9c0,1.7,0.6,3.3,1.7,4.6c-1.1,1.3-1.7,2.9-1.7,4.6
	c0,2.4,1.3,4.7,3.3,5.9c0,0.1,0,0.4-0.1,0.9l0,0.1c0,0.2,0,0.4,0,0.4c0,0.6,0.1,1.1,0.2,1.7c0.3,1.1,0.8,2.2,1.4,3
	c1.4,1.8,3.5,2.9,5.7,3c0.6,3.3,3.5,5.6,6.8,5.6c2.1,0,4.1-1,5.4-2.6c1.3,1.7,3.3,2.6,5.4,2.6c3.3,0,6.1-2.3,6.8-5.6
	c0.1,0,0.2,0,0.4-0.1l0.1,0c0.6-0.1,1-0.1,1-0.2c0.5-0.1,1.1-0.3,1.6-0.6c1-0.5,1.9-1.3,2.6-2.1c1.4-1.7,1.9-4,1.5-6.2
	c2-1.3,3.3-3.5,3.3-5.9c0-1.7-0.6-3.3-1.7-4.6C52.1,31.7,52.7,30.1,52.7,28.4z M41.9,40.1c2.2,0.1,4,1.7,4.5,3.8
	c0.3,1.4-0.1,2.8-1,4c-1.1,1.3-2.8,2-4.4,1.7l-1.8-0.3l0.1,1.9c0,0.1,0,0.2,0,0.2c0,2.1-1.7,3.8-3.8,3.8c-2.1,0-3.8-1.7-3.8-3.8
	V14.6c0-2.1,1.7-3.8,3.8-3.8c1.9,0,3.5,1.4,3.8,3.2c0.1,0.6,0,1.3,0,2c0,0.1,0,0.3,0,0.4l0,0.3l1.8-0.3c0.2,0,0.5-0.1,0.7-0.1
	c2.6,0,4.8,2.1,4.8,4.8c0,1.3-0.5,2.6-1.5,3.5c-0.4,0.4-1,0.8-1.5,1c-0.1,0-1.1,0.3-1.6,0.4l-0.2,0v3l0.3,0c2.6-0.1,4.9-1.4,6.3-3.6
	c0.9,0.8,1.4,1.9,1.4,3c0,1.3-0.7,2.6-1.8,3.3L46,33l1.9,1.3c1.1,0.7,1.8,2,1.8,3.3c0,1.2-0.5,2.3-1.4,3c-1.4-2.1-3.8-3.5-6.3-3.5
	l-0.3,0v3L41.9,40.1z M19,49.6c-0.2,0-0.5,0.1-0.7,0.1c0,0,0,0,0,0c-2.5,0-4.7-2.2-4.8-4.7c0-1.3,0.5-2.5,1.4-3.4
	c0.9-0.9,2-1.4,3.2-1.5l0.2,0v-3l-0.3,0c-2.6,0.1-4.9,1.4-6.3,3.5c-0.9-0.8-1.4-1.9-1.4-3c0-1.3,0.7-2.6,1.8-3.3L14,33l-1.9-1.3
	c-1.1-0.7-1.8-2-1.8-3.3c0-1.2,0.5-2.2,1.4-3c1.4,2.2,3.8,3.5,6.3,3.6l0.3,0V26l-0.2,0c-0.8-0.1-2.7-1.1-2.9-1.2
	c-1-0.8-1.7-2.3-1.7-3.6c0-2.6,2.1-4.8,4.8-4.8c0.2,0,0.5,0,0.7,0.1l1.5,0.2l0.3,0l0-0.6c-0.1-1.2-0.2-2.5,0.5-3.6
	c0.7-1.1,1.9-1.8,3.2-1.8c2.1,0,3.8,1.7,3.8,3.8v36.8c0,2.1-1.7,3.8-3.8,3.8s-3.8-1.7-3.8-3.8c0-0.1,0-0.1,0-0.2l0.1-1.9L19,49.6z"
	/>
</svg>
