<?xml version="1.0" encoding="utf-8"?>
<!-- Generator: Adobe Illustrator 26.4.1, SVG Export Plug-In . SVG Version: 6.00 Build 0)  -->
<svg version="1.1" id="Capa_1" xmlns="http://www.w3.org/2000/svg" xmlns:xlink="http://www.w3.org/1999/xlink" x="0px" y="0px"
	 viewBox="0 0 3 372" style="enable-background:new 0 0 3 372;" xml:space="preserve">
<style type="text/css">
	.st0{fill-rule:evenodd;clip-rule:evenodd;fill:#3DB39E;}
</style>
<g>
	<g>
		<g>
			<g>
				<g>
					<circle class="st0" cx="1.5" cy="182.5" r="1.5"/>
					<circle class="st0" cx="1.5" cy="175.2" r="1.5"/>
					<circle class="st0" cx="1.5" cy="168" r="1.5"/>
					<circle class="st0" cx="1.5" cy="160.7" r="1.5"/>
					<circle class="st0" cx="1.5" cy="153.5" r="1.5"/>
					<circle class="st0" cx="1.5" cy="146.3" r="1.5"/>
					<circle class="st0" cx="1.5" cy="139" r="1.5"/>
					<circle class="st0" cx="1.5" cy="131.8" r="1.5"/>
					<circle class="st0" cx="1.5" cy="124.6" r="1.5"/>
					<circle class="st0" cx="1.5" cy="117.3" r="1.5"/>
					<circle class="st0" cx="1.5" cy="110.1" r="1.5"/>
					<g>
						<circle class="st0" cx="1.5" cy="225.9" r="1.5"/>
						<circle class="st0" cx="1.5" cy="218.7" r="1.5"/>
						<circle class="st0" cx="1.5" cy="211.4" r="1.5"/>
						<circle class="st0" cx="1.5" cy="204.2" r="1.5"/>
						<circle class="st0" cx="1.5" cy="196.9" r="1.5"/>
						<circle class="st0" cx="1.5" cy="189.7" r="1.5"/>
					</g>
				</g>
				<g>
					<g>
						<circle class="st0" cx="1.5" cy="44.9" r="1.5"/>
						<circle class="st0" cx="1.5" cy="37.7" r="1.5"/>
						<circle class="st0" cx="1.5" cy="30.4" r="1.5"/>
						<circle class="st0" cx="1.5" cy="23.2" r="1.5"/>
					</g>
					<g>
						<circle class="st0" cx="1.5" cy="102.8" r="1.5"/>
						<circle class="st0" cx="1.5" cy="95.6" r="1.5"/>
						<circle class="st0" cx="1.5" cy="88.4" r="1.5"/>
						<circle class="st0" cx="1.5" cy="81.1" r="1.5"/>
						<circle class="st0" cx="1.5" cy="73.9" r="1.5"/>
						<circle class="st0" cx="1.5" cy="66.6" r="1.5"/>
						<circle class="st0" cx="1.5" cy="59.4" r="1.5"/>
						<circle class="st0" cx="1.5" cy="52.2" r="1.5"/>
					</g>
				</g>
			</g>
			<g>
				<g>
					<g>
						<circle class="st0" cx="1.5" cy="16" r="1.5"/>
						<circle class="st0" cx="1.5" cy="8.7" r="1.5"/>
						<circle class="st0" cx="1.5" cy="1.5" r="1.5"/>
					</g>
				</g>
			</g>
		</g>
		<g>
			<g>
				<g>
					<g>
						<circle class="st0" cx="1.5" cy="269.2" r="1.5"/>
						<circle class="st0" cx="1.5" cy="261.9" r="1.5"/>
					</g>
				</g>
			</g>
			<g>
				<g>
					<g>
						<circle class="st0" cx="1.5" cy="254.7" r="1.5"/>
						<circle class="st0" cx="1.5" cy="247.5" r="1.5"/>
						<circle class="st0" cx="1.5" cy="240.2" r="1.5"/>
						<circle class="st0" cx="1.5" cy="233" r="1.5"/>
					</g>
				</g>
			</g>
		</g>
	</g>
	<g>
		<g>
			<g>
				<g>
					<g>
						<circle class="st0" cx="1.5" cy="327.1" r="1.5"/>
						<circle class="st0" cx="1.5" cy="319.8" r="1.5"/>
						<circle class="st0" cx="1.5" cy="312.6" r="1.5"/>
						<circle class="st0" cx="1.5" cy="305.3" r="1.5"/>
					</g>
					<g>
						<circle class="st0" cx="1.5" cy="370.5" r="1.5"/>
						<circle class="st0" cx="1.5" cy="363.3" r="1.5"/>
						<circle class="st0" cx="1.5" cy="356" r="1.5"/>
						<circle class="st0" cx="1.5" cy="348.8" r="1.5"/>
						<circle class="st0" cx="1.5" cy="341.6" r="1.5"/>
						<circle class="st0" cx="1.5" cy="334.3" r="1.5"/>
					</g>
				</g>
			</g>
			<g>
				<g>
					<g>
						<circle class="st0" cx="1.5" cy="298.1" r="1.5"/>
						<circle class="st0" cx="1.5" cy="290.9" r="1.5"/>
						<circle class="st0" cx="1.5" cy="283.6" r="1.5"/>
						<circle class="st0" cx="1.5" cy="276.4" r="1.5"/>
					</g>
				</g>
			</g>
		</g>
	</g>
</g>
</svg>
