<?xml version="1.0" encoding="utf-8"?>
<!-- Generator: Adobe Illustrator 26.4.1, SVG Export Plug-In . SVG Version: 6.00 Build 0)  -->
<svg version="1.1" id="Capa_1" xmlns="http://www.w3.org/2000/svg" xmlns:xlink="http://www.w3.org/1999/xlink" x="0px" y="0px"
	 viewBox="0 0 55 55" style="enable-background:new 0 0 55 55;" xml:space="preserve">
<style type="text/css">
	.st0{fill:#373869;}
</style>
<g>
	<path class="st0" d="M17,27.8c-0.8,0-1.4,0.6-1.4,1.4c0,0.8,0.6,1.4,1.4,1.4s1.4-0.6,1.4-1.4C18.3,28.4,17.7,27.8,17,27.8z"/>
	<circle class="st0" cx="21.5" cy="24.6" r="1.4"/>
	<path class="st0" d="M38.8,17.3c-3.2-1.3-6.9-1.2-10,0.4c-0.3-0.9-0.6-1.8-1.1-2.7c1.7-0.3,3.4-1.1,4.6-2.3c2.1-2.1,2.9-5.1,2.1-8
		c-0.1-0.5-0.5-0.9-1-1c-2.8-0.8-5.9,0.1-8,2.1c-1.2,1.2-2,2.8-2.3,4.5c-1.8-1.1-3.9-1.6-6.1-1.6c-0.8,0-1.5,0.7-1.5,1.5
		s0.7,1.5,1.5,1.5c3.8,0,7.2,2.3,8.6,5.8c-3-1.3-6.5-1.4-9.5-0.1c-5.9,2.5-8.9,9.1-6.7,15.2c0.7,1.8,6.4,13,7.5,15.2
		c1.3,2.4,3.7,3.9,6.5,3.9c1,0,1.9-0.2,2.8-0.6c0.4-0.2,0.8-0.4,1.2-0.7c0.4,0.3,0.8,0.5,1.2,0.7c0.9,0.4,1.8,0.6,2.8,0.6
		c2.7,0,5.2-1.5,6.5-3.9c0.7-1.4,6.9-13.3,7.5-15.2C47.7,26.4,44.8,19.8,38.8,17.3z M27.5,7.9c1.1-1.1,2.7-1.7,4.3-1.5
		c0.1,1.6-0.4,3.2-1.5,4.3s-2.7,1.7-4.3,1.5C25.9,10.6,26.4,9,27.5,7.9z M27.1,21.4c0.1,0,0.1,0,0.2,0.1c0.1,0,0.2,0,0.4,0
		c0.1,0,0.1,0,0.2-0.1c0.1,0,0.1-0.1,0.2-0.1c0.1,0,0.1-0.1,0.2-0.1c1.7-1.4,3.8-2.1,5.9-2.1c1.2,0,2.4,0.2,3.6,0.7
		c4.6,1.9,6.9,7.1,5.2,11.7c-0.5,1.5-5.5,11.2-7.4,14.8c-0.8,1.5-2.3,2.5-4.1,2.5c-0.6,0-1.2-0.1-1.7-0.3c-0.5-0.2-1-0.5-1.4-0.9
		c-0.3-0.2-0.6-0.4-0.9-0.4c-0.3,0-0.7,0.1-0.9,0.4c-0.4,0.4-0.9,0.7-1.4,0.9c-0.6,0.2-1.1,0.3-1.7,0.3c-1.7,0-3.3-0.9-4.1-2.5
		C17.5,42.8,12.5,33,12,31.6c-1.7-4.7,0.6-9.8,5.2-11.7c1.1-0.5,2.3-0.7,3.6-0.7c2.1,0,4.2,0.7,5.9,2.1c0.1,0,0.1,0.1,0.2,0.1
		C26.9,21.4,27,21.4,27.1,21.4z"/>
</g>
</svg>
