<?xml version="1.0" encoding="utf-8"?>
<!-- Generator: Adobe Illustrator 26.4.1, SVG Export Plug-In . SVG Version: 6.00 Build 0)  -->
<svg version="1.1" id="Capa_1" xmlns="http://www.w3.org/2000/svg" xmlns:xlink="http://www.w3.org/1999/xlink" x="0px" y="0px"
	 viewBox="0 0 60 66" style="enable-background:new 0 0 60 66;" xml:space="preserve">
<style type="text/css">
	.st0{fill:#373869;}
</style>
<g>
	<path class="st0" d="M50.6,16.2c-4.2-4.1-8.5-5.8-12.6-5.3c-4.7,0.6-7.9,4.1-9.2,5.8c-4-1.1-4.8-4.7-4.9-4.7
		c-0.1-0.4-0.3-0.7-0.6-0.9C23,11,22.6,10.9,22.3,11c-0.4,0.1-0.7,0.3-0.9,0.6c-0.2,0.3-0.3,0.7-0.2,1.1c0.1,0.2,1.3,5.9,8,7.1
		l1,0.2l0.5-0.8c0.1-0.2,3-4.7,7.7-5.3c3.3-0.4,6.7,1.1,10.3,4.5c7.2,6.9,7.1,15.8,4.6,21.9c-0.2,0.4-0.3,0.7-0.5,1.1
		c-0.8-0.1-1.6,0.6-1.6,1.4c0,0.3,0.1,0.6,0.3,0.9c-0.2,0.3-0.4,0.6-0.6,0.9c-0.3-0.3-0.6-0.4-1-0.4c-0.8,0-1.4,0.6-1.4,1.4
		c0,0.5,0.2,0.9,0.6,1.2c-0.3,0.3-0.5,0.5-0.8,0.8c-0.3-0.4-0.7-0.6-1.2-0.6c-0.8,0-1.4,0.6-1.4,1.4c0,0.4,0.1,0.7,0.4,0.9
		c-0.3,0.2-0.7,0.4-1,0.6c-0.2-0.1-0.5-0.2-0.7-0.2c-0.7,0-1.3,0.6-1.4,1.3c-1,0.4-1.9,0.7-2.9,0.9c0.2-0.2,0.2-0.5,0.2-0.8
		c0-0.8-0.6-1.4-1.4-1.4c-0.8,0-1.4,0.6-1.4,1.4c0,0.5,0.2,0.9,0.6,1.1c-0.9,0.1-1.8,0.2-2.7,0.1l-0.1,0c0,0-0.5,0.1-1.4,0.1
		c0.6-0.2,1-0.7,1-1.4c0-0.8-0.6-1.4-1.4-1.4c-0.8,0-1.4,0.6-1.4,1.4c0,0.6,0.4,1.1,1,1.3c-1,0-2.3-0.2-3.9-0.5
		c0.2-0.2,0.3-0.5,0.3-0.8c0-0.8-0.6-1.4-1.4-1.4c-0.8,0-1.4,0.6-1.4,1.4c0,0,0,0.1,0,0.1c-1.7-0.6-3.6-1.4-5.5-2.5l-1.1-0.6l-0.8,1
		c0,0-0.5,0.6-1.4,0.7c-1,0.1-2.2-0.6-3.5-1.9c-1.1-1.1-2.6-1.4-3.9-0.8c-1,0.4-3.2,1.9-3.2,6.9c0,0.8,0.6,1.4,1.4,1.4
		c0.8,0,1.4-0.6,1.4-1.4c0-2.7,0.8-4,1.5-4.3c0.3-0.1,0.6,0,0.8,0.2c1.3,1.3,2.6,2.1,3.9,2.5c0.3,0.2,0.7,0.2,0.9,0.2
		c0.3,0,0.6,0,0.8,0c1.1-0.1,1.9-0.5,2.5-0.9c5.8,3.2,10.8,3.7,13.4,3.7c0.9,0,1.5-0.1,1.7-0.1c8.9,0.2,17-5.2,20.6-13.8
		C59.5,32.5,57.5,22.9,50.6,16.2z"/>
	<path class="st0" d="M9,43.2L9,43.2c3.4-2,8.3,0,9.7,0.7c0.1,0,0.2,0.1,0.2,0.1l1.2,0.7l0.7-0.9c0.8-1,1.8-1.5,2.8-1.7
		c-0.1,0.2-0.2,0.4-0.2,0.6c0,0.8,0.6,1.4,1.4,1.4c0.8,0,1.4-0.6,1.4-1.4c0-0.3-0.1-0.6-0.2-0.8c0.7,0.1,1.2,0.2,1.2,0.2l1.7,0.5
		l0.2-1.7c0.3-2.2,3.5-3.5,3.6-3.5l0.9-0.3v-6.9l-0.8-0.4c-2.3-1.1-2.4-4.2-2.4-4.2l0-1.1l-1.1-0.2c-10.4-1.9-11.9-9.2-12-9.5
		c-0.1-0.4-0.3-0.7-0.6-0.9c-0.3-0.2-0.7-0.3-1.1-0.2c-0.8,0.1-1.3,0.9-1.1,1.7c0.1,0.4,1.8,8.9,13.2,11.5c0.3,1.4,1,3.7,3.1,5.1
		v3.3c-1.3,0.6-3.2,1.9-4.1,3.9c-1.8-0.3-4.8-0.2-7.3,2c-2.4-1.1-7.7-2.9-11.9-0.4c-3.5,2.1-5.2,6.4-5.2,13c0,0.8,0.6,1.4,1.4,1.4
		c0.8,0,1.4-0.6,1.4-1.4C5.2,48.2,6.5,44.7,9,43.2z"/>
	<path class="st0" d="M44.3,38.5c-0.8,0-1.4,0.6-1.4,1.4s0.6,1.4,1.4,1.4c0.8,0,1.4-0.6,1.4-1.4S45.1,38.5,44.3,38.5z"/>
	<path class="st0" d="M49.8,38.5c-0.8,0-1.4,0.6-1.4,1.4s0.6,1.4,1.4,1.4c0.8,0,1.4-0.6,1.4-1.4S50.6,38.5,49.8,38.5z"/>
	<path class="st0" d="M52.6,38.6c0.8,0,1.4-0.6,1.4-1.4s-0.6-1.4-1.4-1.4c-0.8,0-1.4,0.6-1.4,1.4S51.8,38.6,52.6,38.6z"/>
	<path class="st0" d="M30.5,44.1c0.8,0,1.4-0.6,1.4-1.4c0-0.8-0.6-1.4-1.4-1.4c-0.8,0-1.4,0.6-1.4,1.4C29,43.4,29.7,44.1,30.5,44.1z
		"/>
	<path class="st0" d="M36,41.2c-0.8,0-1.4,0.6-1.4,1.4c0,0.8,0.6,1.4,1.4,1.4c0.8,0,1.4-0.6,1.4-1.4C37.4,41.9,36.8,41.2,36,41.2z"
		/>
	<path class="st0" d="M41.5,41.2c-0.8,0-1.4,0.6-1.4,1.4c0,0.8,0.6,1.4,1.4,1.4c0.8,0,1.4-0.6,1.4-1.4
		C42.9,41.9,42.3,41.2,41.5,41.2z"/>
	<path class="st0" d="M47,41.2c-0.8,0-1.4,0.6-1.4,1.4c0,0.8,0.6,1.4,1.4,1.4s1.4-0.6,1.4-1.4C48.5,41.9,47.8,41.2,47,41.2z"/>
	<path class="st0" d="M15.2,45.4c0,0.8,0.6,1.4,1.4,1.4c0.8,0,1.4-0.6,1.4-1.4c0-0.8-0.6-1.4-1.4-1.4C15.9,44,15.2,44.6,15.2,45.4z"
		/>
	<path class="st0" d="M22.2,44c-0.8,0-1.4,0.6-1.4,1.4c0,0.8,0.6,1.4,1.4,1.4c0.8,0,1.4-0.6,1.4-1.4C23.6,44.6,22.9,44,22.2,44z"/>
	<path class="st0" d="M24.9,49.6c0.8,0,1.4-0.6,1.4-1.4c0-0.8-0.6-1.4-1.4-1.4c-0.8,0-1.4,0.6-1.4,1.4C23.5,49,24.1,49.6,24.9,49.6z
		"/>
	<path class="st0" d="M27.7,46.8c0.8,0,1.4-0.6,1.4-1.4c0-0.8-0.6-1.4-1.4-1.4c-0.8,0-1.4,0.6-1.4,1.4
		C26.3,46.2,26.9,46.8,27.7,46.8z"/>
	<path class="st0" d="M33.2,44c-0.8,0-1.4,0.6-1.4,1.4c0,0.8,0.6,1.4,1.4,1.4c0.8,0,1.4-0.6,1.4-1.4C34.6,44.6,34,44,33.2,44z"/>
	<path class="st0" d="M30.5,49.6c0.8,0,1.4-0.6,1.4-1.4c0-0.8-0.6-1.4-1.4-1.4c-0.8,0-1.4,0.6-1.4,1.4C29,49,29.7,49.6,30.5,49.6z"
		/>
	<path class="st0" d="M36,46.8c-0.8,0-1.4,0.6-1.4,1.4c0,0.8,0.6,1.4,1.4,1.4c0.8,0,1.4-0.6,1.4-1.4C37.4,47.4,36.8,46.8,36,46.8z"
		/>
	<path class="st0" d="M38.7,44c-0.8,0-1.4,0.6-1.4,1.4c0,0.8,0.6,1.4,1.4,1.4c0.8,0,1.4-0.6,1.4-1.4C40.2,44.6,39.5,44,38.7,44z"/>
	<path class="st0" d="M44.3,46.8c0.8,0,1.4-0.6,1.4-1.4c0-0.8-0.6-1.4-1.4-1.4c-0.8,0-1.4,0.6-1.4,1.4
		C42.8,46.2,43.5,46.8,44.3,46.8z"/>
	<path class="st0" d="M41.5,46.8c-0.8,0-1.4,0.6-1.4,1.4c0,0.8,0.6,1.4,1.4,1.4c0.8,0,1.4-0.6,1.4-1.4
		C42.9,47.4,42.3,46.8,41.5,46.8z"/>
</g>
</svg>
