<?xml version="1.0" encoding="utf-8"?>
<!-- Generator: Adobe Illustrator 26.4.1, SVG Export Plug-In . SVG Version: 6.00 Build 0)  -->
<svg version="1.1" id="Capa_1" xmlns="http://www.w3.org/2000/svg" xmlns:xlink="http://www.w3.org/1999/xlink" x="0px" y="0px"
	 viewBox="0 0 60 66" style="enable-background:new 0 0 60 66;" xml:space="preserve">
<style type="text/css">
	.st0{fill:#373769;}
</style>
<g>
	<path class="st0" d="M45.4,17.5c-4.1-4.1-9.6-6.4-15.4-6.4c-5.5,0-10.8,2.1-14.8,5.8c-0.4,0.3-0.3,0.8,0,1.1
		c0.3,0.3,0.7,0.4,1.1,0.1c3.8-3.5,8.6-5.4,13.7-5.4c5.1,0,10,1.9,13.8,5.4l-9.3,9.3c-1.1,0.1-2.7,0.6-3.7,1.7v-1.4
		c0.9-0.8,2.8-2.7,2.8-5.2c0-3-3-5.3-3.1-5.4c-0.3-0.2-0.7-0.2-0.9,0c-0.1,0.1-3.1,2.4-3.1,5.4c0,2.4,1.9,4.4,2.8,5.2v1.4
		c-1.6-1.7-4.2-2-6.1-1.7c-0.3,0-0.6,0.3-0.7,0.7c0,0.2-0.5,3.9,1.6,6.1c0.6,0.6,1.4,1.1,2.4,1.4l-0.7,0.7c-0.9-0.1-1.8-0.2-2.7,0
		c-0.3,0-0.6,0.3-0.7,0.7c0,0.1-0.2,1.3,0.1,2.7c0,0-0.1,0.1-0.1,0.1l-7.2,7.2C11.6,43,9.7,38.1,9.7,33c0-4.6,1.5-8.9,4.3-12.5
		c0.2-0.2,0.2-0.5,0.1-0.7c-0.1-0.3-0.4-0.5-0.7-0.5c-0.3,0-0.5,0.1-0.7,0.3C9.8,23.4,8.2,28,8.2,33c0,5.8,2.3,11.3,6.4,15.5
		c4.1,4.1,9.6,6.4,15.4,6.4c5.8,0,11.3-2.3,15.4-6.4c4.1-4.1,6.4-9.6,6.4-15.5C51.8,27.2,49.6,21.7,45.4,17.5z M30,49.1
		c0.4,0,0.8-0.4,0.8-0.8v-3.8c0.1,0,0.2,0,0.3,0c1.6,0,3.9-0.3,5.3-2.2c0.3-0.4,0.1-0.8-0.2-1.1c-0.3-0.2-0.8-0.3-1.1,0.1
		c-0.8,1-2.1,1.4-3.2,1.5l1.7-1.7c0.4-0.4,0.3-0.8,0-1.1c-0.3-0.3-0.7-0.4-1.1,0l-1.8,1.8c0,0,0-0.1,0-0.1c0.1-0.9,0.4-2.1,1.2-2.9
		c1.1-1.2,3.2-1.2,4.1-1.2c0,0.3,0,0.7,0,1c0,0.5,0.3,0.8,0.7,0.8c0.4,0,0.8-0.2,0.8-0.7c0.1-1,0-1.8,0-2c0-0.3-0.3-0.6-0.7-0.7
		c-1.9-0.3-4.6,0-6.1,1.7v-2c0.1,0,0.2,0,0.3,0c1.4,0,3.5-0.3,4.9-1.7c2.1-2.1,1.6-5.9,1.6-6.1c-0.1-0.5-0.5-0.6-0.8-0.7l8.1-8.1
		c3.5,3.8,5.4,8.7,5.4,13.8c0,5.4-2.1,10.5-5.9,14.4c-3.8,3.8-8.9,6-14.3,6c-5.1,0-10-1.9-13.8-5.4l6.7-6.7c1.3,3,4.7,3.3,6.3,3.3
		v3.8C29.2,48.7,29.6,49.1,30,49.1z M29.2,35.8v2c-0.5-0.5-1-0.9-1.7-1.2l0.9-0.9C28.6,35.8,28.9,35.8,29.2,35.8z M27.4,31.3
		c-0.1-0.1-0.3-0.2-0.6-0.2c0,0,0,0,0,0c-0.2,0-0.4,0.1-0.6,0.2c-0.3,0.3-0.3,0.8,0,1.1l1.8,1.8c0,0,0,0-0.1,0
		c-0.9-0.1-2.1-0.4-2.9-1.2c-1.1-1.1-1.2-3.2-1.2-4.1c0.9,0,2.9,0.1,4.1,1.2c0.8,0.8,1.1,2,1.2,3L27.4,31.3z M30,21.7
		c-0.4,0-0.8,0.4-0.8,0.8v2.9c-0.6-0.8-1.3-1.8-1.3-2.9c0-1.6,1.4-3.1,2-3.8c0.7,0.6,2.1,2.1,2.1,3.8c0,1.1-0.6,2.2-1.3,2.9v-2.9
		C30.8,22.1,30.4,21.7,30,21.7z M36.1,30.1c-0.1,0.9-0.4,2.1-1.2,2.9c-0.8,0.8-2,1.1-3,1.2l1.8-1.8c0.3-0.3,0.3-0.8,0-1.1
		c-0.1-0.1-0.3-0.2-0.6-0.2c0,0,0,0,0,0c-0.2,0-0.4,0.1-0.5,0.2L30.8,33c0.1-1,0.4-2.2,1.2-3c1.1-1.1,3.2-1.2,4.1-1.2
		C36.1,29.3,36.1,29.7,36.1,30.1z M27.4,40c-0.4-0.3-0.8-0.3-1.1,0c-0.3,0.3-0.4,0.7,0,1.1l1.7,1.7c-1.3-0.1-2.3-0.5-2.9-1.2
		c-1.1-1.1-1.2-3.2-1.2-4.1c0.9,0,3,0.1,4.1,1.2c0.8,0.8,1.1,2,1.2,3L27.4,40z"/>
	<g>
		<path class="st0" d="M30,66c-1.9,0-3.8-0.5-5.5-1.5l-18.9-11C2.1,51.6,0,47.9,0,44V22c0-3.9,2.1-7.6,5.5-9.6l18.9-11
			c3.4-2,7.7-2,11.1,0l18.9,11c3.4,2,5.5,5.7,5.5,9.6V44c0,3.9-2.1,7.6-5.5,9.6l-18.9,11C33.8,65.5,31.9,66,30,66z M30,1.5
			c-1.7,0-3.3,0.4-4.8,1.3l-18.9,11c-3,1.7-4.8,4.9-4.8,8.3V44c0,3.4,1.8,6.6,4.8,8.3l18.9,11c3,1.7,6.6,1.7,9.6,0l18.9-11
			c3-1.7,4.8-4.9,4.8-8.3V22c0-3.4-1.8-6.6-4.8-8.3l-18.9-11C33.3,1.9,31.7,1.5,30,1.5z"/>
	</g>
</g>
</svg>
