<?xml version="1.0" encoding="utf-8"?>
<!-- Generator: Adobe Illustrator 26.4.1, SVG Export Plug-In . SVG Version: 6.00 Build 0)  -->
<svg version="1.1" id="Capa_1" xmlns="http://www.w3.org/2000/svg" xmlns:xlink="http://www.w3.org/1999/xlink" x="0px" y="0px"
	 viewBox="0 0 55 60" style="enable-background:new 0 0 55 60;" xml:space="preserve">
<style type="text/css">
	.st0{fill:#62DBFB;}
	.st1{fill:#FEA613;}
	.st2{fill:#FB8801;}
	.st3{fill:#C4573A;}
	.st4{fill:#A74B30;}
	.st5{fill:#D6694B;}
	.st6{fill:#FE646F;}
	.st7{fill:#FD4755;}
	.st8{fill:#FB2B3A;}
	.st9{fill:#FFFFFF;}
</style>
<g>
	<path class="st0" d="M50.1,48.5L32.4,58.7c-3,1.7-6.7,1.7-9.7,0L4.9,48.5c-3-1.7-4.9-4.9-4.9-8.3V19.8c0-3.4,1.8-6.6,4.9-8.3
		L22.6,1.3c3-1.7,6.7-1.7,9.7,0l17.8,10.2c3,1.7,4.9,4.9,4.9,8.3v20.4C55,43.6,53.2,46.8,50.1,48.5z"/>
	<path class="st1" d="M4.9,48.5l6.8,3.9h31.7l6.8-3.9c0.3-0.2,0.6-0.4,0.9-0.6H4C4.3,48.1,4.5,48.3,4.9,48.5z"/>
	<path class="st2" d="M4.9,48.5l17.8,10.2c3,1.7,6.7,1.7,9.7,0l17.8-10.2c0.3-0.2,0.6-0.4,0.9-0.6H4C4.3,48.1,4.5,48.3,4.9,48.5z"/>
	<path class="st1" d="M4.9,48.5l6.8,3.9h31.7l6.8-3.9c0.3-0.2,0.6-0.4,0.9-0.6H4C4.3,48.1,4.5,48.3,4.9,48.5z"/>
	<g>
		<g>
			<path class="st3" d="M22.8,23.3c0.9,0,1.7,0.4,2.2,1.2l0.1,0.1l0.1-0.1c0.5-0.7,1.3-1.2,2.2-1.2c0.9,0,1.7,0.4,2.2,1.2l0.1,0.1
				l0.1-0.1c0.5-0.7,1.3-1.2,2.2-1.2c0.2,0,0.4,0,0.6,0.1c-0.2-1.3-1.3-2.3-2.7-2.3c-0.7,0-1.4,0.3-1.9,0.8
				c-0.4-0.9-1.4-1.5-2.4-1.5c-1.5,0-2.7,1.2-2.7,2.7C22.7,23.2,22.7,23.3,22.8,23.3C22.8,23.3,22.8,23.3,22.8,23.3L22.8,23.3z"/>
		</g>
		<path class="st4" d="M22.8,23.3c0.8,0,1.5,0.4,2,1c-0.2-0.4-0.3-0.8-0.3-1.2c0-1.2,0.7-2.1,1.8-2.5c-0.3-0.1-0.6-0.2-0.9-0.2
			c-1.5,0-2.7,1.2-2.7,2.7C22.7,23.2,22.7,23.3,22.8,23.3C22.8,23.3,22.8,23.3,22.8,23.3L22.8,23.3z"/>
		<path class="st5" d="M17.7,27.9l0.1,0.1l0.1-0.1c0.4-0.9,1.4-1.5,2.4-1.5c1,0,1.9,0.6,2.4,1.5l0.1,0.1l0.1-0.1
			c0.4-0.9,1.4-1.5,2.4-1.5c1,0,1.9,0.6,2.4,1.5l0.1,0.1l0.1-0.1c0.4-0.9,1.4-1.5,2.4-1.5c1,0,1.9,0.6,2.4,1.5l0.1,0.1l0.1-0.1
			c0.4-0.9,1.4-1.5,2.4-1.5c1,0,1.9,0.6,2.4,1.5l0.1,0.1l0.1-0.1c0.3-0.7,1-1.2,1.7-1.4c0-0.2,0-0.3,0-0.5c0-1.5-1.2-2.7-2.7-2.7
			c-0.9,0-1.8,0.5-2.2,1.2c-0.5-0.7-1.3-1.2-2.2-1.2c-0.9,0-1.8,0.5-2.2,1.2c-0.5-0.7-1.3-1.2-2.2-1.2c-0.9,0-1.8,0.5-2.2,1.2
			c-0.5-0.7-1.3-1.2-2.2-1.2c-0.9,0-1.8,0.5-2.2,1.2c-0.5-0.7-1.3-1.2-2.2-1.2c-1.5,0-2.7,1.2-2.7,2.7c0,0.2,0,0.3,0,0.4
			C16.6,26.5,17.3,27,17.7,27.9L17.7,27.9z"/>
		<path class="st3" d="M42.3,29C42.3,29,42.3,29,42.3,29c0-1.5-1.2-2.7-2.7-2.7c-1.1,0-2,0.6-2.4,1.5c-0.4-0.9-1.4-1.5-2.4-1.5
			c-1.1,0-2,0.6-2.4,1.5c-0.4-0.9-1.4-1.5-2.4-1.5s-2,0.6-2.4,1.5c-0.4-0.9-1.4-1.5-2.4-1.5s-2,0.6-2.4,1.5
			c-0.4-0.9-1.4-1.5-2.4-1.5c-1.1,0-2,0.6-2.4,1.5c-0.4-0.9-1.4-1.5-2.4-1.5c-1.5,0-2.7,1.2-2.7,2.7c0,0,0,0,0,0H42.3z"/>
		<path class="st4" d="M14.6,29C14.6,29,14.6,29,14.6,29c0-1.1,0.7-2.1,1.7-2.5c-0.3-0.1-0.6-0.2-1-0.2c-1.5,0-2.7,1.2-2.7,2.7
			c0,0,0,0,0,0H14.6z"/>
		<path class="st6" d="M17.6,41.3c1.3,0,2.5,0.6,3.4,1.6c1.6,1.9,4,3.1,6.5,3.1s4.9-1.1,6.5-3.1c0.8-1,2.1-1.6,3.4-1.6h9.9
			l-2.4-10.9c-0.2-0.9-1-1.5-1.9-1.5H12c-0.9,0-1.7,0.6-1.9,1.5L7.8,41.3H17.6z"/>
		<path class="st7" d="M12.8,41.3l2.4-10.9c0.2-0.9,1-1.5,1.9-1.5H12c-0.9,0-1.7,0.6-1.9,1.5L7.8,41.3H12.8z"/>
		<path class="st7" d="M50.8,48v-4.8c0-1-0.9-1.9-1.9-1.9H37.4c-1.3,0-2.6,0.6-3.4,1.6c-1.5,1.9-3.9,3-6.5,3s-4.9-1.2-6.5-3
			c-0.8-1-2.1-1.6-3.4-1.6H6.1c-1,0-1.9,0.8-1.9,1.9V48H50.8z"/>
		<path class="st8" d="M10.5,48v-4.8c0-1,0.9-1.9,1.9-1.9H6.1c-1,0-1.9,0.8-1.9,1.9V48H10.5z"/>
		<g>
			<g>
				<path class="st9" d="M30.6,37.7c-0.3-0.2-0.5-0.5-0.6-0.8c-0.3-1.1-1.3-1.8-2.4-1.8s-2.1,0.8-2.4,1.8c-0.1,0.3-0.3,0.6-0.6,0.8
					c-0.8,0.5-1.3,1.3-1.2,2.3c0.1,1.2,1.1,2.2,2.4,2.3c0.4,0,0.9-0.1,1.2-0.3c0.4-0.2,0.9-0.2,1.3,0c0.4,0.2,0.8,0.3,1.2,0.3
					c1.3-0.1,2.3-1.1,2.4-2.3C31.8,39.1,31.3,38.2,30.6,37.7z"/>
			</g>
			<g>
				<ellipse class="st9" cx="25.6" cy="33" rx="1.4" ry="1.7"/>
			</g>
			<g>
				<ellipse class="st9" cx="29.4" cy="33" rx="1.4" ry="1.7"/>
			</g>
			<g>
				<ellipse class="st9" cx="22.9" cy="36.1" rx="1.4" ry="1.4"/>
			</g>
			<g>
				<ellipse class="st9" cx="32.1" cy="36.1" rx="1.4" ry="1.4"/>
			</g>
		</g>
		<g>
			<ellipse class="st5" cx="20.6" cy="12.5" rx="2.7" ry="2.7"/>
		</g>
		<path class="st3" d="M19.6,12.5c0-1.2,0.8-2.2,1.9-2.5c-0.3-0.1-0.5-0.1-0.8-0.1c-1.5,0-2.7,1.2-2.7,2.7c0,1.5,1.2,2.7,2.7,2.7
			c0.3,0,0.6,0,0.8-0.1C20.3,14.7,19.6,13.7,19.6,12.5L19.6,12.5z"/>
		<g>
			<ellipse class="st3" cx="34" cy="16.7" rx="2.7" ry="2.7"/>
		</g>
		<g>
			<ellipse class="st3" cx="29.1" cy="6.4" rx="2.7" ry="2.7"/>
		</g>
		<path class="st4" d="M32.9,16.7c0-1.2,0.8-2.2,1.9-2.5C34.5,14,34.3,14,34,14c-1.5,0-2.7,1.2-2.7,2.7s1.2,2.7,2.7,2.7
			c0.3,0,0.6,0,0.8-0.1C33.7,18.9,32.9,17.8,32.9,16.7z"/>
		<path class="st4" d="M28.1,6.4c0-1.2,0.8-2.2,1.9-2.5c-0.3-0.1-0.5-0.1-0.8-0.1c-1.5,0-2.7,1.2-2.7,2.7s1.2,2.7,2.7,2.7
			c0.3,0,0.6,0,0.8-0.1C28.9,8.6,28.1,7.6,28.1,6.4z"/>
		<g>
			<g>
				<ellipse class="st5" cx="37" cy="2.7" rx="2.7" ry="2.7"/>
			</g>
			<path class="st3" d="M35.9,2.7c0-1.2,0.8-2.2,1.9-2.5C37.6,0.1,37.3,0,37,0c-1.5,0-2.7,1.2-2.7,2.7s1.2,2.7,2.7,2.7
				c0.3,0,0.6,0,0.8-0.1C36.7,4.9,35.9,3.9,35.9,2.7z"/>
		</g>
	</g>
</g>
</svg>
