<?xml version="1.0" encoding="utf-8"?>
<!-- Generator: Adobe Illustrator 26.4.1, SVG Export Plug-In . SVG Version: 6.00 Build 0)  -->
<svg version="1.1" id="Capa_1" xmlns="http://www.w3.org/2000/svg" xmlns:xlink="http://www.w3.org/1999/xlink" x="0px" y="0px"
	 viewBox="0 0 60 66" style="enable-background:new 0 0 60 66;" xml:space="preserve">
<style type="text/css">
	.st0{fill:#373869;}
</style>
<g>
	<path class="st0" d="M51.6,36.7H8.4c-0.6,0-1.1,0.5-1.1,1.1v14.1c0,0.6,0.5,1.1,1.1,1.1h43.3c0.6,0,1.1-0.5,1.1-1.1V37.8
		C52.7,37.2,52.2,36.7,51.6,36.7z M50.6,50.8H9.4v-3.5l0.2-0.1c0.4-0.2,0.8-0.4,1.2-0.8l2.1-2.1c0.5-0.5,1.4-0.5,1.9,0l0.1,0.1l2,2
		c1.4,1.3,3.5,1.3,4.9,0l2.1-2.1c0.5-0.5,1.4-0.5,1.9,0l2.1,2.1c1.4,1.4,3.6,1.4,4.9,0l2.1-2.1c0.5-0.5,1.4-0.5,1.9,0l2.1,2.1
		c0.7,0.7,1.5,1,2.5,1c0.9,0,1.8-0.4,2.5-1l2.1-2.1c0.4-0.4,1-0.5,1.5-0.3c0.2,0.1,0.3,0.2,0.5,0.4l1.4,1.8c0,0,0.1,0.1,0.1,0.1
		c0.4,0.3,0.8,0.6,1.2,0.8l0.2,0.1V50.8z M50.6,44.8l-1.3-1.6c-0.3-0.4-0.8-0.8-1.2-1c-1.3-0.6-2.9-0.3-3.9,0.7l-2.1,2.1
		c-0.3,0.3-0.6,0.4-1,0.4c-0.4,0-0.7-0.1-1-0.4l-2.1-2.1c-0.7-0.7-1.5-1-2.5-1s-1.8,0.4-2.5,1l-2.1,2.1c-0.5,0.5-1.4,0.5-1.9,0
		l-2.1-2.1c-0.7-0.7-1.5-1-2.5-1c-0.9,0-1.8,0.4-2.5,1l-2.1,2.1c-0.5,0.5-1.4,0.5-1.9,0l-2.1-2.1c0,0-0.1,0-0.1-0.1
		c-0.7-0.6-1.5-0.9-2.4-0.9c-0.9,0-1.8,0.4-2.5,1l-1.9,1.9v-6h41.2V44.8z"/>
	<path class="st0" d="M45.2,23.8l-2.5-0.4c-2-0.3-3.5-1.8-3.8-3.8l-0.4-2.5c-0.1-0.5-0.5-0.9-1-0.9c-0.5,0-1,0.4-1,0.9l-0.4,2.5
		c-0.3,2-1.8,3.5-3.8,3.8l-2.5,0.4c-0.5,0.1-0.9,0.5-0.9,1c0,0.5,0.4,1,0.9,1l2.5,0.4c2,0.3,3.5,1.8,3.8,3.8l0.4,2.5
		c0.1,0.5,0.5,0.9,1,0.9c0.5,0,1-0.4,1-0.9l0.4-2.5c0.3-2,1.8-3.5,3.8-3.8l2.5-0.4c0.5-0.1,0.9-0.5,0.9-1
		C46.1,24.3,45.7,23.9,45.2,23.8z M39.9,25.1c-0.9,0.5-1.6,1.3-2.1,2.1l-0.2,0.4l-0.2-0.4c-0.5-0.9-1.3-1.6-2.1-2.1l-0.4-0.2
		l0.4-0.2c0.9-0.5,1.6-1.3,2.1-2.1l0.2-0.4l0.2,0.4c0.5,0.9,1.3,1.6,2.1,2.1l0.4,0.2L39.9,25.1z"/>
	<path class="st0" d="M29.5,16c-0.7,0-1.2,0.6-1.2,1.2c0,0.7,0.6,1.2,1.2,1.2c0.7,0,1.2-0.6,1.2-1.2C30.7,16.5,30.1,16,29.5,16z"/>
	<path class="st0" d="M18.4,24.8c0.6,0,1.1-0.5,1.1-1.1V20h2.5c0.6,0,1.1-0.5,1.1-1.1c0-0.6-0.5-1.1-1.1-1.1h-2.5v-3.8
		c0-0.6-0.5-1.1-1.1-1.1s-1.1,0.5-1.1,1.1v3.8h-2.5c-0.6,0-1.1,0.5-1.1,1.1s0.5,1.1,1.1,1.1h2.5v3.8C17.3,24.4,17.8,24.8,18.4,24.8z
		"/>
	<path class="st0" d="M16.3,28.4c-0.7,0-1.2,0.6-1.2,1.2c0,0.7,0.6,1.2,1.2,1.2c0.7,0,1.2-0.6,1.2-1.2C17.5,28.9,17,28.4,16.3,28.4z
		"/>
	<path class="st0" d="M44.9,28.4c-0.7,0-1.2,0.6-1.2,1.2c0,0.7,0.6,1.2,1.2,1.2c0.7,0,1.2-0.6,1.2-1.2C46.1,29,45.6,28.4,44.9,28.4z
		"/>
</g>
</svg>
