<?xml version="1.0" encoding="utf-8"?>
<!-- Generator: Adobe Illustrator 26.4.1, SVG Export Plug-In . SVG Version: 6.00 Build 0)  -->
<svg version="1.1" id="Capa_1" xmlns="http://www.w3.org/2000/svg" xmlns:xlink="http://www.w3.org/1999/xlink" x="0px" y="0px"
	 viewBox="0 0 55 60" style="enable-background:new 0 0 55 60;" xml:space="preserve">
<style type="text/css">
	.st0{fill:#BA4C20;}
	.st1{fill:#EAEAEA;}
	.st2{fill:#FFDF5E;}
	.st3{fill:#FF8E4F;}
	.st4{fill:#DF751C;}
	.st5{fill:#C85929;}
</style>
<g>
	<path class="st0" d="M50.1,48.5L32.4,58.7c-3,1.7-6.7,1.7-9.7,0L4.9,48.5c-3-1.7-4.9-4.9-4.9-8.3V19.8c0-3.4,1.8-6.6,4.9-8.3
		L22.6,1.3c3-1.7,6.7-1.7,9.7,0l17.8,10.2c3,1.7,4.9,4.9,4.9,8.3v20.4C55,43.6,53.2,46.8,50.1,48.5z"/>
	<g>
		<g>
			<ellipse class="st1" cx="28" cy="7" rx="1.5" ry="3.1"/>
			<ellipse transform="matrix(0.7118 -0.7024 0.7024 0.7118 1.5983 38.3416)" class="st1" cx="47.5" cy="17.2" rx="3.2" ry="1.5"/>
			<ellipse transform="matrix(0.7024 -0.7118 0.7118 0.7024 -9.7466 11.1346)" class="st1" cx="8.4" cy="17.2" rx="1.5" ry="3.2"/>
			<ellipse class="st1" cx="7.4" cy="40.8" rx="3.2" ry="1.5"/>
		</g>
		<path class="st2" d="M12.2,28.5c1,0.4,1.7,1.4,1.7,2.6c0,0.6-0.2,1.1-0.5,1.5c-0.3,0.4-0.7,0.8-1.3,1c-2.9,1.2-5,4.1-5,7.4
			c0,4,2.9,7.2,6.7,7.9v4.8l8.7,5c3,1.7,6.7,1.7,9.7,0l9-5.2V33.3c0-2.2,1.2-4.1,3.1-5.1c2.5-1.4,4.2-4.1,4.2-7.2
			c-0.1-4.2-3.5-7.7-7.8-7.8c-1.8-0.1-3.5,0.5-4.9,1.4C35.8,10.4,32.3,7,28,7c-4.3,0-7.8,3.4-8,7.6c-1.4-1-3.1-1.5-4.9-1.4
			c-4.3,0.1-7.8,3.7-7.8,8C7.2,24.5,9.3,27.3,12.2,28.5z"/>
		<g>
			<ellipse class="st3" cx="28" cy="15" rx="4.1" ry="4.1"/>
			<ellipse class="st3" cx="15.3" cy="41" rx="4.1" ry="4.1"/>
			<ellipse class="st3" cx="15.3" cy="21.2" rx="4.1" ry="4.1"/>
			<ellipse class="st3" cx="40.6" cy="21.2" rx="4.1" ry="4.1"/>
			<path class="st3" d="M27.5,30.5c0,0,2.5-5.2,7.4-3.1c2.4,1.1,2.9,3.8,1.6,6.8c-3.4,7.8-14.7,7.8-18.1,0c-1.3-3-0.8-5.7,1.6-6.8
				C25,25.3,27.5,30.5,27.5,30.5z"/>
		</g>
	</g>
	<g>
		<ellipse class="st4" cx="39.3" cy="20.9" rx="1.8" ry="1.8"/>
		<ellipse class="st4" cx="27.6" cy="18.8" rx="1.8" ry="1.8"/>
		<ellipse class="st4" cx="18.1" cy="32" rx="1.8" ry="1.8"/>
		<ellipse class="st4" cx="35.7" cy="35.8" rx="1.8" ry="1.8"/>
		<ellipse class="st4" cx="23.4" cy="40" rx="1.8" ry="1.8"/>
		<ellipse class="st4" cx="28.3" cy="46.2" rx="1.8" ry="1.8"/>
		<ellipse class="st4" cx="12.4" cy="22.7" rx="1.8" ry="1.8"/>
		<ellipse class="st5" cx="23.4" cy="40" rx="1" ry="1"/>
		<ellipse class="st5" cx="28.3" cy="46.2" rx="1" ry="1"/>
		<ellipse class="st5" cx="35.7" cy="35.8" rx="1" ry="1"/>
		<ellipse class="st5" cx="39.3" cy="20.9" rx="1" ry="1"/>
		<ellipse class="st4" cx="30.8" cy="26.9" rx="1.8" ry="1.8"/>
		<ellipse class="st5" cx="30.8" cy="26.9" rx="1" ry="1"/>
		<ellipse class="st4" cx="35.7" cy="47.6" rx="1.8" ry="1.8"/>
		<ellipse class="st5" cx="35.7" cy="47.6" rx="1" ry="1"/>
		<ellipse class="st4" cx="21.5" cy="50.4" rx="1.8" ry="1.8"/>
		<ellipse class="st5" cx="21.5" cy="50.4" rx="1" ry="1"/>
		<ellipse class="st5" cx="27.6" cy="18.8" rx="1" ry="1"/>
		<ellipse class="st5" cx="12.4" cy="22.7" rx="1" ry="1"/>
	</g>
</g>
</svg>
