<?xml version="1.0" encoding="utf-8"?>
<!-- Generator: Adobe Illustrator 26.4.1, SVG Export Plug-In . SVG Version: 6.00 Build 0)  -->
<svg version="1.1" id="Capa_1" xmlns="http://www.w3.org/2000/svg" xmlns:xlink="http://www.w3.org/1999/xlink" x="0px" y="0px"
	 viewBox="0 0 55 60" style="enable-background:new 0 0 55 60;" xml:space="preserve">
<style type="text/css">
	.st0{fill:#26406D;}
	.st1{fill:#0ACB72;}
	.st2{fill:#00AA55;}
	.st3{fill:#42DB8F;}
	.st4{fill:#FFFFFF;}
	.st5{fill:#E6E6E6;}
</style>
<g>
	<path class="st0" d="M50.1,48.5L32.4,58.7c-3,1.7-6.7,1.7-9.7,0L4.9,48.5c-3-1.7-4.9-4.9-4.9-8.3V19.8c0-3.4,1.8-6.6,4.9-8.3
		L22.6,1.3c3-1.7,6.7-1.7,9.7,0l17.8,10.2c3,1.7,4.9,4.9,4.9,8.3v20.4C55,43.6,53.2,46.8,50.1,48.5z"/>
	<g>
		<path class="st1" d="M38,47.9l-10.5,7.2L17,47.9c-6.2-4.2-9.9-11.2-9.9-18.7V8.4l20.4-5l20.4,5v20.8C47.9,36.7,44.2,43.7,38,47.9z
			"/>
		<path class="st2" d="M27.5,55.1L38,47.9c6.2-4.2,9.9-11.2,9.9-18.7V8.4l-20.4-5V55.1z"/>
		<path class="st3" d="M35.9,44.1l-8.4,5.7l-8.4-5.7c-4.9-3.4-7.9-8.9-7.9-14.9V12.6l16.3-4l16.3,4v16.6
			C43.8,35.2,40.8,40.7,35.9,44.1z"/>
		<path class="st1" d="M27.5,49.8l8.4-5.7c4.9-3.4,7.9-8.9,7.9-14.9V12.6l-16.3-4V49.8z"/>
		<rect x="24" y="16.7" class="st4" width="3.5" height="21"/>
		<rect x="27.5" y="16.7" class="st5" width="3.2" height="21"/>
		<rect x="16.8" y="23.9" class="st4" width="10.7" height="6.7"/>
		<rect x="27.5" y="23.9" class="st5" width="10.4" height="6.7"/>
	</g>
</g>
</svg>
