<?xml version="1.0" encoding="utf-8"?>
<!-- Generator: Adobe Illustrator 26.4.1, SVG Export Plug-In . SVG Version: 6.00 Build 0)  -->
<svg version="1.1" id="Capa_1" xmlns="http://www.w3.org/2000/svg" xmlns:xlink="http://www.w3.org/1999/xlink" x="0px" y="0px"
	 viewBox="0 0 60 60" style="enable-background:new 0 0 60 60;" xml:space="preserve">
<style type="text/css">
	.st0{fill:#1A1A1A;}
</style>
<g>
	<path class="st0" d="M48,17.9L31,1.4c-0.5-0.5-1.4-0.5-2,0L12,18c-4.5,4.4-7,10.2-7,16.5c0,6.3,2.5,12.2,7,16.7l1,1
		c4.6,4.4,10.6,6.8,17,6.8c6.5,0,12.3-2.4,17-6.9l1-1c4.5-4.4,7-10.2,7-16.5C55,28.3,52.5,22.3,48,17.9z M46,49.2l-1,1
		c-4.1,4-9.3,6.1-15,6.1c-5.7,0-10.9-2.1-15-6.1l-1-1c-8.2-8.1-8.2-21.3,0-29.3L30,4.3l16,15.6C54.2,28,54.2,41.1,46,49.2z"/>
	<path class="st0" d="M43.3,43.7C43.3,43.7,43.3,43.7,43.3,43.7c-0.4,0-0.7,0.1-1,0.4l-1,1c-3,3-7,4.6-11.3,4.6
		c-4.3,0-8.3-1.6-11.3-4.6l-1-1c-0.3-0.3-0.6-0.4-1-0.4c0,0,0,0,0,0c-0.4,0-0.7,0.1-1,0.4c-0.3,0.3-0.4,0.6-0.4,1
		c0,0.4,0.1,0.7,0.4,1l1,1c3.6,3.5,8.3,5.4,13.3,5.4s9.7-1.9,13.3-5.4l1-1c0.3-0.3,0.4-0.6,0.4-1c0-0.4-0.1-0.7-0.4-1
		C44,43.8,43.7,43.7,43.3,43.7z"/>
	<path class="st0" d="M35,39.7h-10c-0.9,0-1.7-0.7-1.7-1.6V23.9c0-0.9,0.7-1.6,1.7-1.6h9.6c0.9,0,1.5,0.6,1.5,1.5
		c0,0.8-0.7,1.5-1.5,1.5h-8v4.2h4.4c0.8,0,1.5,0.7,1.5,1.5c0,0.8-0.7,1.5-1.5,1.5h-4.4v4.4H35c0.9,0,1.5,0.7,1.5,1.5
		C36.6,39.1,35.9,39.7,35,39.7z"/>
</g>
</svg>
