<?xml version="1.0" encoding="utf-8"?>
<!-- Generator: Adobe Illustrator 26.4.1, SVG Export Plug-In . SVG Version: 6.00 Build 0)  -->
<svg version="1.1" id="Capa_1" xmlns="http://www.w3.org/2000/svg" xmlns:xlink="http://www.w3.org/1999/xlink" x="0px" y="0px"
	 viewBox="0 0 55 60" style="enable-background:new 0 0 55 60;" xml:space="preserve">
<style type="text/css">
	.st0{fill:#73C3F9;}
	.st1{fill:#A05838;}
	.st2{fill:none;}
	.st3{fill:#934A2E;}
	.st4{fill:#FF596E;}
	.st5{fill:#FF4155;}
	.st6{fill:#B76C4E;}
	.st7{fill:#F9BA8F;}
	.st8{fill:#FCAD6D;}
	.st9{fill:#3C5082;}
	.st10{fill:#2D3C6B;}
	.st11{fill:#162544;}
	.st12{fill:#213159;}
	.st13{fill:#FFDD40;}
	.st14{fill:#FFC839;}
	.st15{fill:#FFB332;}
</style>
<g>
	<path class="st0" d="M50.1,48.5L32.4,58.7c-3,1.7-6.7,1.7-9.7,0L4.9,48.5c-3-1.7-4.9-4.9-4.9-8.3V19.8c0-3.4,1.8-6.6,4.9-8.3
		L22.6,1.3c3-1.7,6.7-1.7,9.7,0l17.8,10.2c3,1.7,4.9,4.9,4.9,8.3v20.4C55,43.6,53.2,46.8,50.1,48.5z"/>
	<path class="st1" d="M32.4,58.7l14.8-8.5l-6.9-18.5H14.7L7.8,50.2l14.8,8.5c1.5,0.9,3.2,1.3,4.9,1.3c0,0,0,0,0,0
		C29.2,60,30.9,59.6,32.4,58.7z"/>
	<path class="st2" d="M50.1,48.5L32.4,58.7c-3,1.7-6.7,1.7-9.7,0L4.9,48.5c-3-1.7-4.9-4.9-4.9-8.3V19.8c0-3.4,1.8-6.6,4.9-8.3
		L22.6,1.3c3-1.7,6.7-1.7,9.7,0l17.8,10.2c3,1.7,4.9,4.9,4.9,8.3v20.4C55,43.6,53.2,46.8,50.1,48.5z"/>
	<path class="st2" d="M50.1,48.5L32.4,58.7c-3,1.7-6.7,1.7-9.7,0L4.9,48.5c-3-1.7-4.9-4.9-4.9-8.3V19.8c0-3.4,1.8-6.6,4.9-8.3
		L22.6,1.3c3-1.7,6.7-1.7,9.7,0l17.8,10.2c3,1.7,4.9,4.9,4.9,8.3v20.4C55,43.6,53.2,46.8,50.1,48.5z"/>
	<path class="st3" d="M32.4,58.7l4.9-2.8c-10.1,2.3-16.6-2.6-17.7-4.3c-0.2-0.3-0.6-0.4-1-0.2l-1.7,1.1c-0.5,0.4-1.2-0.2-1-0.8
		l0.9-2.5c0.2-0.6-0.5-1.2-1-0.8c-0.6,0.4-1.3-0.2-1-0.8l5.7-15.9h-5.5L7.8,50.2l14.8,8.5c1.5,0.9,3.2,1.3,4.9,1.3c0,0,0,0,0,0
		C29.2,60,30.9,59.6,32.4,58.7z"/>
	<g>
		<path class="st4" d="M13.6,30.1L11,37c-0.3,0.9-0.1,1.9,0.7,2.5c3.7,3,9.4,4.9,15.9,4.9s12.2-1.9,15.9-4.9c0.7-0.6,1-1.6,0.7-2.5
			l-2.6-7H13.6z"/>
	</g>
	<g>
		<path class="st5" d="M13.6,30.1L11,37c-0.3,0.9-0.1,1.9,0.7,2.5c2.6,2.1,6.3,3.7,10.5,4.5c-6.1-5.4-1.8-13.9-1.8-13.9L13.6,30.1z"
			/>
	</g>
	<g>
		<ellipse class="st6" cx="27.5" cy="19.8" rx="16.8" ry="16.7"/>
	</g>
	<g>
		<path class="st1" d="M21.3,19.8c0-7.4,4.8-13.6,11.5-15.8c-1.7-0.6-3.5-0.8-5.3-0.8c-9.3,0-16.8,7.5-16.8,16.7s1.6,16.7,16.8,16.7
			c2,0,3.8-0.1,5.3-0.4C22.5,34.5,21.3,27.8,21.3,19.8z"/>
	</g>
	<g>
		<path class="st1" d="M36.8,22.2c-3.6,3.6-4.2,8.8-1.3,11.7c0.4,0.4,0.9,0.8,1.4,1.1c6.5-2.6,7.3-8.4,7.3-15.2c0-0.2,0-0.4,0-0.7
			C41.8,19,39,20.1,36.8,22.2z"/>
	</g>
	<g>
		<path class="st3" d="M18.2,22.2c3.6,3.6,4.2,8.8,1.3,11.7C19,34.4,18.6,34.7,18,35c-6.5-2.6-7.3-8.4-7.3-15.2c0-0.2,0-0.4,0-0.7
			C13.2,19,16,20.1,18.2,22.2z"/>
	</g>
	<g>
		<path class="st3" d="M27.5,17.5c-2.9,0-5.1,9.9-5.1,9.9h10.3C32.6,27.4,30.4,17.5,27.5,17.5L27.5,17.5z"/>
	</g>
	<g>
		<path class="st7" d="M32,24.2h-8.9c-3.7,0-6.8,2.9-6.8,6.6c0,3.7,3,6.8,6.7,6.8c0.9,0,1.8-0.2,2.7-0.5c1.1-0.5,2.4-0.5,3.6,0
			c0.9,0.4,1.9,0.6,2.9,0.6c3.6-0.1,6.5-3,6.5-6.6C38.8,27.3,35.7,24.2,32,24.2L32,24.2z"/>
	</g>
	<g>
		<path class="st8" d="M21.7,30.8c0-3.7,3.1-6.6,6.8-6.6h-5.4c-3.7,0-6.8,2.9-6.8,6.6c0,3.7,3,6.8,6.7,6.8c0.9,0,1.8-0.2,2.7-0.5
			c0,0,0,0,0,0C23.3,36,21.6,33.6,21.7,30.8z"/>
	</g>
	<g>
		<path class="st9" d="M32.6,24.8c0,2.8-2.3,5.1-5.1,5.1s-5.1-2.3-5.1-5.1S32.6,22,32.6,24.8z"/>
	</g>
	<g>
		<path class="st10" d="M27.2,24.8c0-0.9,1.2-1.6,2.7-1.9c-3-0.6-7.6,0-7.6,1.9c0,2.8,2.3,5.1,5.1,5.1c0.9,0,1.7-0.2,2.4-0.6
			C28.3,28.5,27.2,26.8,27.2,24.8z"/>
	</g>
	<g>
		<path class="st10" d="M33.4,3.5C37,1.9,50.6,6.1,51.2,9.9c0.6,3.8-2.7,12-4.9,12.5C44.6,22.7,29.8,5,33.4,3.5z"/>
	</g>
	<g>
		<path class="st10" d="M21.6,3.5C18,1.9,4.4,6.1,3.8,9.9s2.7,12,4.9,12.5C10.4,22.7,25.2,5,21.6,3.5L21.6,3.5z"/>
	</g>
	<g>
		<g>
			<path class="st11" d="M36.6,18.4c0-0.5-0.2-1.1-0.7-1.5c-0.7-0.6-1.9-0.6-2.6,0c-0.5,0.4-0.7,0.9-0.7,1.5c0,0.7,0.9,1,1.4,0.5
				c0.3-0.3,0.8-0.3,1.1,0C35.7,19.4,36.6,19.1,36.6,18.4z"/>
		</g>
	</g>
	<g>
		<g>
			<path class="st11" d="M18.4,18.4c0-0.5,0.2-1.1,0.7-1.5c0.7-0.6,1.9-0.6,2.6,0c0.5,0.4,0.7,0.9,0.7,1.5c0,0.7-0.9,1-1.4,0.5
				c-0.3-0.3-0.8-0.3-1.1,0C19.3,19.4,18.4,19.1,18.4,18.4L18.4,18.4z"/>
		</g>
	</g>
	<g>
		<path class="st12" d="M11.9,4.6C7.8,5.9,4.1,7.9,3.8,9.9c-0.6,3.8,2.7,12,4.9,12.5c0.3,0.1,1.1-0.5,2.1-1.5c0,0-0.1-0.1-0.1-0.1
			C8.5,18.5,6.7,6.8,11.9,4.6L11.9,4.6z"/>
	</g>
	<g>
		<path class="st12" d="M40.4,3.8c-2.9-0.7-5.6-0.9-7-0.3C29.8,5,44.6,22.7,46.3,22.3c0.5-0.1,1.1-0.7,1.7-1.5
			C42,16,40.6,6.4,40.4,3.8L40.4,3.8z"/>
	</g>
	<g>
		<ellipse class="st13" cx="27.5" cy="45.3" rx="5.6" ry="5.6"/>
	</g>
	<g>
		<path class="st14" d="M27.5,45.3c0-2.1,1.1-3.8,2.8-4.8c-0.8-0.5-1.8-0.7-2.8-0.7c-3.1,0-5.6,2.5-5.6,5.6c0,3.1,2.5,5.6,5.6,5.6
			c1,0,2-0.3,2.8-0.7C28.6,49.2,27.5,47.4,27.5,45.3z"/>
	</g>
	<g>
		<ellipse class="st14" cx="27.5" cy="45.3" rx="3.4" ry="3.3"/>
	</g>
	<g>
		<path class="st15" d="M28.5,48.5c-0.6-0.9-1-2-1-3.2c0-1.2,0.4-2.3,1-3.2c-0.3-0.1-0.7-0.2-1-0.2c-1.9,0-3.4,1.5-3.4,3.3
			s1.5,3.3,3.4,3.3C27.9,48.7,28.2,48.6,28.5,48.5z"/>
	</g>
</g>
</svg>
