<?xml version="1.0" encoding="utf-8"?>
<!-- Generator: Adobe Illustrator 26.4.1, SVG Export Plug-In . SVG Version: 6.00 Build 0)  -->
<svg version="1.1" id="Capa_1" xmlns="http://www.w3.org/2000/svg" xmlns:xlink="http://www.w3.org/1999/xlink" x="0px" y="0px"
	 viewBox="0 0 55 60" style="enable-background:new 0 0 55 60;" xml:space="preserve">
<style type="text/css">
	.st0{fill:#62DBFB;}
	.st1{fill:#32BEA6;}
	.st2{fill:#30579D;}
	.st3{fill:#26457D;}
	.st4{fill:#D09080;}
	.st5{fill:#C67D66;}
	.st6{fill:#DA4A54;}
	.st7{fill:#F9F6F6;}
	.st8{fill:#DDDAEC;}
</style>
<g>
	<path class="st0" d="M50.1,48.5L32.4,58.7c-3,1.7-6.7,1.7-9.7,0L4.9,48.5c-3-1.7-4.9-4.9-4.9-8.3V19.8c0-3.4,1.8-6.6,4.9-8.3
		L22.6,1.3c3-1.7,6.7-1.7,9.7,0l17.8,10.2c3,1.7,4.9,4.9,4.9,8.3v20.4C55,43.6,53.2,46.8,50.1,48.5z"/>
	<path class="st1" d="M22.6,58.7c3,1.7,6.7,1.7,9.7,0l9.1-5.2H13.5L22.6,58.7z"/>
	<g>
		<path class="st2" d="M16,32c-3,3-8,3-11,0c-3-3-3-7.9,0-10.9L16,32z"/>
		<path class="st3" d="M12.1,34.1C9.6,34.6,6.9,33.9,5,32c-3-3-3-7.9,0-10.9l1.8,1.8c-1.6,2.9-1.2,6.7,1.3,9.2
			C9.3,33.1,10.6,33.8,12.1,34.1z"/>
		<path class="st4" d="M19,41.1c0-3.5-2.8-6.3-6.3-6.3c-3.4,0-6.2,2.7-6.3,6h-3c-1.8,0-3.3,1.5-3.3,3.3v3.7C0,49.6,1.5,51,3.3,51
			s3.3-1.5,3.3-3.3v-0.4h6c0.1,0,0.1,0,0.2,0C16.3,47.3,19,44.5,19,41.1L19,41.1z"/>
		<path class="st5" d="M14.4,35c-2.6,0.7-4.5,3-4.6,5.8h-3c-1.8,0-3.3,1.5-3.3,3.3v3.7c0,1.2,0.6,2.2,1.6,2.8
			C4.5,50.9,3.9,51,3.3,51C1.5,51,0,49.6,0,47.8v-3.7c0-1.8,1.5-3.3,3.3-3.3h3c0.1-3.3,2.9-6,6.3-6C13.3,34.8,13.8,34.9,14.4,35z"/>
		<path class="st4" d="M33.7,52c0,0.8-0.7,1.5-1.5,1.5H29c-1.6,0-2.9-1.3-2.9-2.8V44c0-1.6,1.3-2.8,2.9-2.8c1.6,0,2.9,1.3,2.9,2.8
			v6.6h0.4c0.4,0,0.8,0.2,1,0.4C33.6,51.3,33.7,51.6,33.7,52L33.7,52z"/>
		<path class="st5" d="M31.4,53.5H29c-1.6,0-2.9-1.3-2.9-2.8V44c0-1.6,1.3-2.8,2.9-2.8c0.4,0,0.8,0.1,1.2,0.3
			c-1,0.4-1.7,1.4-1.7,2.6v6.6C28.5,52.2,29.8,53.5,31.4,53.5z"/>
		<path class="st4" d="M9.4,44.1h21.6c3,0,5.4-2.4,5.4-5.3V28.1H18.8c-5.2,0-9.3,4.1-9.3,9.3L9.4,44.1L9.4,44.1z"/>
		<path class="st5" d="M25.6,28c-5.2,0-9.3,4.1-9.3,9.3v6.8H9.4v-6.8c0-5.1,4.2-9.3,9.3-9.3H25.6z"/>
		<path class="st4" d="M37.5,49.4c-1.6,0-2.9-1.3-2.9-2.8v-2.4h-4.7c-1.6,0-2.9-1.3-2.9-2.8s1.3-2.8,2.9-2.8h7.6
			c1.6,0,2.9,1.3,2.9,2.8v5.2C40.4,48.1,39.1,49.4,37.5,49.4L37.5,49.4z"/>
		<path class="st5" d="M38.7,49.1c-0.4,0.2-0.8,0.3-1.2,0.3c-1.6,0-2.9-1.3-2.9-2.8v-2.4h2.4v2.4C37.1,47.7,37.7,48.7,38.7,49.1z"/>
		<g>
			<path class="st4" d="M41.6,8.4H31.2c-4.4,0-8,3.6-8,7.9v9.4c0,4.4,3.6,7.9,8,7.9h10.4c4.4,0,8-3.6,8-7.9v-9.4
				C49.6,12,46.1,8.4,41.6,8.4z"/>
			<path class="st5" d="M39.8,33.7h-8.6c-4.4,0-8-3.6-8-7.9v-9.4c0-4.4,3.6-7.9,8-7.9h8.6c-4.4,0-8,3.6-8,7.9v9.4
				C31.8,30.1,35.4,33.7,39.8,33.7z"/>
			<ellipse class="st6" cx="36.4" cy="31.4" rx="4.8" ry="4.8"/>
			<path class="st7" d="M36.4,22.6H32c-2.4,0-4.3,1.9-4.3,4.3v4.6c0,2.4,2,4.3,4.4,4.3s4.4-1.9,4.4-4.3c0,2.4,2,4.3,4.4,4.3
				s4.4-1.9,4.4-4.3v-4.6c0-2.4-1.9-4.3-4.3-4.3H36.4z"/>
			<path class="st8" d="M34.3,35.1c-0.7,0.4-1.4,0.6-2.3,0.6c-2.4,0-4.4-1.9-4.4-4.3v-4.6c0-2.4,1.9-4.3,4.3-4.3h4.5
				c-2.4,0-4.3,1.9-4.3,4.3v4.6C32.2,33,33.1,34.4,34.3,35.1z"/>
			<path class="st7" d="M34.5,8.4h3.9v14.1h-3.9V8.4z"/>
			<path class="st8" d="M38.4,8.4v0.1c-1.5,0.3-2.8,0.9-3.9,1.8v-2H38.4z"/>
			<path class="st2" d="M38.6,20.9h-4.3c-1.2,0-2.2,1-2.2,2.2c0,1.2,1,2.2,2.2,2.2H35v1.3c0,0.8,0.7,1.4,1.5,1.4s1.5-0.6,1.5-1.4
				v-1.3h0.7c1.2,0,2.2-1,2.2-2.2C40.8,21.9,39.8,20.9,38.6,20.9z"/>
			<path class="st3" d="M37.1,27.9C36.9,28,36.7,28,36.4,28c-0.8,0-1.5-0.6-1.5-1.4v-1.3h-0.7c-0.6,0-1.2-0.2-1.6-0.6
				c-0.4-0.4-0.6-0.9-0.6-1.6c0-1.2,1-2.2,2.2-2.2h2c-1.2,0-2.2,1-2.2,2.2c0,0.6,0.2,1.2,0.6,1.6c0.4,0.4,1,0.6,1.6,0.6v1.3
				C36.3,27.2,36.6,27.6,37.1,27.9L37.1,27.9z"/>
			<path class="st2" d="M24,6.3l-5.2,5.2c-1.2,1.2-1.2,3.2,0,4.4l2.5,2.5c1.6,1.6,4.4,1,5.2-1.2l2.7-7.7c0.4-1.1,0.1-2.4-0.7-3.3
				C27.2,5.1,25.2,5.1,24,6.3z"/>
			<path class="st3" d="M22.8,11.4c-1.2,1.2-1.2,3.2,0,4.4l2.5,2.5c0.1,0.1,0.2,0.2,0.3,0.3c-1.2,1-3.1,1.1-4.3-0.2l-2.5-2.5
				c-1.2-1.2-1.2-3.2,0-4.4L24,6.3c0.6-0.6,1.4-0.9,2.2-0.9c0.7,0,1.4,0.2,1.9,0.7c-0.1,0-0.1,0.1-0.2,0.2L22.8,11.4z"/>
			<path class="st2" d="M48.8,6.3l5.2,5.2c1.2,1.2,1.2,3.2,0,4.4l-2.5,2.5c-1.6,1.6-4.4,1-5.2-1.2l-2.7-7.7
				c-0.4-1.1-0.1-2.4,0.7-3.3C45.6,5.1,47.6,5.1,48.8,6.3z"/>
			<path class="st3" d="M51,18.9c-1.6,1-3.9,0.3-4.6-1.6l-2.7-7.7c-0.4-1.1-0.1-2.4,0.7-3.3c0.6-0.6,1.4-0.9,2.2-0.9
				c0.6,0,1.1,0.1,1.6,0.4C48,6,47.8,6.1,47.6,6.3c-0.9,0.9-1.1,2.1-0.7,3.3l2.8,7.7C49.9,18,50.4,18.5,51,18.9L51,18.9z"/>
			<g>
				<path class="st3" d="M30.1,16.9c-0.7,0-1.3,0.9-1.3,2s0.6,2,1.3,2s1.3-0.9,1.3-2S30.8,16.9,30.1,16.9z"/>
				<path class="st3" d="M42.7,16.9c-0.7,0-1.3,0.9-1.3,2s0.6,2,1.3,2c0.7,0,1.3-0.9,1.3-2S43.4,16.9,42.7,16.9z"/>
			</g>
		</g>
		<path class="st4" d="M13.9,37.2c-3,0-5.5,2.4-5.5,5.4c0,2.9,2.3,5.3,5.2,5.4v2.6c0,1.6,1.3,2.8,2.9,2.8h3.2c1.6,0,2.9-1.3,2.9-2.8
			s-1.3-2.8-2.9-2.8h-0.3v-5.2c0,0,0-0.1,0-0.1C19.3,39.6,16.9,37.2,13.9,37.2L13.9,37.2z"/>
		<path class="st5" d="M19.8,53.5C19.7,53.5,19.7,53.5,19.8,53.5l-3.2,0c-1.6,0-2.9-1.3-2.9-2.8v-2.6c-2.9-0.1-5.2-2.5-5.2-5.4
			c0-3,2.5-5.4,5.5-5.4c0.6,0,1.1,0.1,1.6,0.2c-2.2,0.7-3.8,2.7-3.8,5.2c0,2.9,2.3,5.3,5.2,5.4v2.6C16.9,52.2,18.2,53.5,19.8,53.5
			L19.8,53.5z"/>
	</g>
</g>
</svg>
