<?xml version="1.0" encoding="utf-8"?>
<!-- Generator: Adobe Illustrator 26.4.1, SVG Export Plug-In . SVG Version: 6.00 Build 0)  -->
<svg version="1.1" id="Capa_1" xmlns="http://www.w3.org/2000/svg" xmlns:xlink="http://www.w3.org/1999/xlink" x="0px" y="0px"
	 viewBox="0 0 55 60" style="enable-background:new 0 0 55 60;" xml:space="preserve">
<style type="text/css">
	.st0{fill:#435CB7;}
	.st1{fill:#FD8087;}
	.st2{fill:#FE646F;}
	.st3{fill:#DFF6FD;}
	.st4{fill:#C8EFFE;}
</style>
<g>
	<path class="st0" d="M50.1,48.5L32.4,58.7c-3,1.7-6.7,1.7-9.7,0L4.9,48.5c-3-1.7-4.9-4.9-4.9-8.3V19.8c0-3.4,1.8-6.6,4.9-8.3
		L22.6,1.3c3-1.7,6.7-1.7,9.7,0l17.8,10.2c3,1.7,4.9,4.9,4.9,8.3v20.4C55,43.6,53.2,46.8,50.1,48.5z"/>
	<g>
		<g>
			<g>
				<path class="st1" d="M26.6,7.8c0.5-0.4,1.3-0.4,1.8,0c3.5,3.1,16.3,14.9,16.3,26c0,9.4-7.7,17-17.2,17s-17.2-7.6-17.2-17
					C10.3,22.7,23.1,10.8,26.6,7.8L26.6,7.8z"/>
			</g>
			<g>
				<path class="st2" d="M39.5,20.1c0.2,1,0.3,2.1,0.3,3.1c0,9.4-7.7,17-17.2,17c-4.8,0-9.1-2-12.3-5.1c0.7,8.8,8.1,15.7,17.1,15.7
					c9.5,0,17.2-7.6,17.2-17C44.7,29.1,42.4,24.3,39.5,20.1L39.5,20.1z"/>
			</g>
		</g>
		<g>
			<path class="st3" d="M39.8,50.8H28.9c-0.8,0-1.4-0.6-1.4-1.4V38.6c0-0.8,0.6-1.4,1.4-1.4h10.9c0.8,0,1.4,0.6,1.4,1.4v10.8
				C41.3,50.2,40.6,50.8,39.8,50.8L39.8,50.8z"/>
		</g>
		<g>
			<path class="st4" d="M39.8,37.2h-0.9c0,6.3-5.1,11.3-11.4,11.4v0.9c0,0.8,0.6,1.4,1.4,1.4h10.9c0.8,0,1.4-0.6,1.4-1.4V38.6
				C41.3,37.9,40.6,37.2,39.8,37.2z"/>
		</g>
		<g>
			<path class="st3" d="M53.6,50.8H42.7c-0.8,0-1.4-0.6-1.4-1.4V38.6c0-0.8,0.6-1.4,1.4-1.4h10.9c0.8,0,1.4,0.6,1.4,1.4v10.8
				C55,50.2,54.4,50.8,53.6,50.8L53.6,50.8z"/>
		</g>
		<g>
			<path class="st4" d="M53.6,37.2h-0.9c0,6.3-5.1,11.3-11.4,11.4v0.9c0,0.8,0.6,1.4,1.4,1.4h10.9c0.8,0,1.4-0.6,1.4-1.4V38.6
				C55,37.9,54.4,37.2,53.6,37.2z"/>
		</g>
		<g>
			<path class="st3" d="M46.7,37.2H35.8c-0.8,0-1.4-0.6-1.4-1.4V25c0-0.8,0.6-1.4,1.4-1.4h10.9c0.8,0,1.4,0.6,1.4,1.4v10.8
				C48.1,36.6,47.5,37.2,46.7,37.2z"/>
		</g>
		<g>
			<path class="st4" d="M46.7,23.6h-0.9c0,6.3-5.1,11.3-11.4,11.4v0.9c0,0.8,0.6,1.4,1.4,1.4h10.9c0.8,0,1.4-0.6,1.4-1.4V25
				C48.1,24.2,47.5,23.6,46.7,23.6L46.7,23.6z"/>
		</g>
	</g>
</g>
</svg>
