<?xml version="1.0" encoding="utf-8"?>
<!-- Generator: Adobe Illustrator 26.4.1, SVG Export Plug-In . SVG Version: 6.00 Build 0)  -->
<svg version="1.1" id="Capa_1" xmlns="http://www.w3.org/2000/svg" xmlns:xlink="http://www.w3.org/1999/xlink" x="0px" y="0px"
	 viewBox="0 0 60 66" style="enable-background:new 0 0 60 66;" xml:space="preserve">
<style type="text/css">
	.st0{fill:#373769;}
</style>
<g>
	<g>
		<path class="st0" d="M30,66c-1.9,0-3.8-0.5-5.5-1.5l-18.9-11C2.1,51.6,0,47.9,0,44V22c0-3.9,2.1-7.6,5.5-9.6l18.9-11
			c3.4-2,7.7-2,11.1,0l18.9,11c3.4,2,5.5,5.7,5.5,9.6V44c0,3.9-2.1,7.6-5.5,9.6l-18.9,11C33.8,65.5,31.9,66,30,66z M30,1.5
			c-1.7,0-3.3,0.4-4.8,1.3l-18.9,11c-3,1.7-4.8,4.9-4.8,8.3V44c0,3.4,1.8,6.6,4.8,8.3l18.9,11c3,1.7,6.6,1.7,9.6,0l18.9-11
			c3-1.7,4.8-4.9,4.8-8.3V22c0-3.4-1.8-6.6-4.8-8.3l-18.9-11C33.3,1.9,31.7,1.5,30,1.5z"/>
	</g>
	<g>
		<g>
			<g>
				<path class="st0" d="M44.5,23.7c-0.4,0-0.7,0.3-0.7,0.7c0,0.4,0.3,0.7,0.7,0.7c0.4,0,0.7-0.3,0.7-0.7
					C45.2,24.1,44.9,23.7,44.5,23.7z"/>
			</g>
		</g>
		<g>
			<g>
				<path class="st0" d="M35.5,19.2c-0.4,0-0.7,0.3-0.7,0.7c0,0.4,0.3,0.7,0.7,0.7c0.4,0,0.7-0.3,0.7-0.7
					C36.3,19.6,35.9,19.2,35.5,19.2z"/>
			</g>
		</g>
		<g>
			<g>
				<path class="st0" d="M32.5,25.2c-0.4,0-0.7,0.3-0.7,0.7c0,0.4,0.3,0.7,0.7,0.7c0.4,0,0.7-0.3,0.7-0.7
					C33.3,25.6,32.9,25.2,32.5,25.2z"/>
			</g>
		</g>
		<g>
			<g>
				<path class="st0" d="M31,20.7c-0.4,0-0.7,0.3-0.7,0.7c0,0.4,0.3,0.7,0.7,0.7c0.4,0,0.7-0.3,0.7-0.7C31.8,21.1,31.4,20.7,31,20.7
					z"/>
			</g>
		</g>
		<g>
			<g>
				<path class="st0" d="M44.7,26.7c-0.4,0-0.8,0.3-0.8,0.7c-0.2,1.7-0.9,3.3-2.1,4.5c-1.2,1.2-2.6,1.9-4.2,2.1
					c-0.4,0.1-0.7,0.4-0.6,0.8c0.1,0.4,0.4,0.6,0.7,0.6c0,0,0.1,0,0.1,0c1.9-0.3,3.7-1.2,5.1-2.5c1.5-1.5,2.4-3.3,2.6-5.4
					C45.4,27.1,45.1,26.8,44.7,26.7z"/>
			</g>
		</g>
		<g>
			<g>
				<path class="st0" d="M44.9,18.1c-4.7-4.7-12.2-4.7-16.9,0c-1.8,1.9-3,4.2-3.4,6.8c-0.5,3.4-0.7,6.8-2.9,9.1c0,0-0.6,0.5-0.9,1.5
					c-0.3,0.9-0.3,1.8,0.1,2.6L18,40.8c-1.5-1.5-3.8-1.5-5.3,0c-1.5,1.5-1.5,3.8,0,5.3c0.9,0.9,2,1.2,3.2,1.1
					c-0.2,1.1,0.2,2.3,1.1,3.2c1.5,1.5,3.8,1.5,5.3,0c1.5-1.5,1.5-3.8,0-5.3c0,0,0,0,0,0l2.7-2.8c1.5,0.6,3.1,0.2,4.1-0.9
					c2.1-2.2,5.8-2.5,9-2.9c2.6-0.4,4.9-1.5,6.8-3.4C49.5,30.4,49.5,22.8,44.9,18.1z M20.6,44.5c-0.3,0.3-0.3,0.9,0.1,1.2
					c1.3,0.7,1.5,2.5,0.4,3.5c-0.9,0.9-2.3,0.9-3.2,0c-0.9-0.9-0.9-2.3,0-3.2c0.3-0.3,0.3-0.8,0-1.1c-0.3-0.3-0.8-0.3-1.1,0
					c-0.9,0.9-2.3,0.9-3.2,0c-0.9-0.9-0.9-2.3,0-3.2c1-1,2.8-0.8,3.5,0.4c0.2,0.4,0.8,0.5,1.2,0.1l3.1-3.1c0.4,0.4,0.8,0.7,1.3,0.8
					c0.2,0.5,0.5,0.9,0.8,1.3L20.6,44.5z M43.8,34c-1.6,1.6-3.7,2.6-5.9,3c-3.5,0.5-7.4,0.8-9.9,3.4c0,0,0,0,0,0
					c-1.2,1.2-3.3,0.6-3.8-1c-0.1-0.3-0.3-0.5-0.5-0.5c-1.2-0.3-2-1.7-1.5-2.9c0.2-0.5,0.6-0.9,0.6-0.9c2.6-2.5,2.9-6.5,3.3-9.9
					c0.3-2.3,1.3-4.3,3-5.9c4.1-4.1,10.7-4.1,14.8,0C47.9,23.3,47.9,29.9,43.8,34z"/>
			</g>
		</g>
	</g>
</g>
</svg>
