<?xml version="1.0" encoding="utf-8"?>
<!-- Generator: Adobe Illustrator 26.4.1, SVG Export Plug-In . SVG Version: 6.00 Build 0)  -->
<svg version="1.1" id="Capa_1" xmlns="http://www.w3.org/2000/svg" xmlns:xlink="http://www.w3.org/1999/xlink" x="0px" y="0px"
	 viewBox="0 0 60 66" style="enable-background:new 0 0 60 66;" xml:space="preserve">
<style type="text/css">
	.st0{fill:#363769;}
	.st1{fill:#373769;}
</style>
<g>
	<g>
		<path class="st0" d="M17.3,31.7c-1,0-1.8,0.3-2.4,0.8c-0.9,0.9-1,2.2-1,3.3c0,1.2,0.5,2.3,1.5,3.2c0.9,0.8,2.1,1.3,3.3,1.3
			c1.2,0,2.4-0.5,3.3-1.3c1-0.9,1.5-2,1.5-3.2c0-3-1.7-3.9-3.1-4.1c-0.3,0-0.5,0-0.7,0.1c0.1-1.4-0.6-2.4-1.1-2.8l-0.4,0.6l0,0v0
			l-0.4,0.6l0,0c0.1,0.1,0.8,0.8,0.5,2C18,32,17.7,31.7,17.3,31.7z M20.3,33.2c1.3,0.2,1.9,1,1.9,2.7c0,1.7-1.8,3.1-3.5,3.1
			c-1.6,0-3.5-1.3-3.5-3.1c0-0.9,0.1-1.8,0.6-2.3c0.3-0.3,0.7-0.4,1.3-0.4c0.1,0.1,0.2,0.2,0.3,0.3c0.3,0.3,0.7,0.7,1.2,0.7
			s0.9-0.3,1.3-0.6C20.1,33.4,20.2,33.3,20.3,33.2z"/>
		<path class="st0" d="M45.6,39.7c-0.7-1.2-1.6-2-2.9-2.3c-2.1-0.5-4.6,0.5-6,1.4c-0.6,0.4-1.8,0.5-2.7-0.2c-1-0.7-1.3-2.1-0.7-3.8
			c0.9-3,3.2-5,5.5-7c1.2-1,2.3-2,3.2-3c2.9-3.5,3.7-6.5,3.1-11.4c-0.1-0.3-0.4-0.6-0.7-0.5c-0.4,0-0.7,0.3-0.7,0.7
			c0.7,5.1-0.5,7.6-2.8,10.3c-0.8,1-1.9,1.9-3,2.9c-2.3,2-4.9,4.3-5.9,7.6c-1,3.3,0.5,4.8,1.3,5.4c1.3,1,3.1,1.1,4.3,0.2
			c1-0.7,3.1-1.7,4.9-1.2c0.9,0.2,1.5,0.7,2,1.6c1.7,3,0.1,5.1-1.7,7.1c-1.9,2.1-1.2,4.5-0.9,5.2c0.1,0.3,0.4,0.5,0.7,0.5
			c0.1,0,0.2,0,0.2,0c0.4-0.1,0.6-0.5,0.4-0.9c-0.2-0.5-0.7-2.2,0.6-3.7C45.7,46.3,47.7,43.5,45.6,39.7z"/>
		<path class="st0" d="M35.6,46.8c0,0-1,0.6-2.8,0.7c-1.7,0.2-4.4,0-8.1-1.5c-0.7-0.3-1.3-0.7-1.9-1.1c3.9-1.4,6.7-5.1,6.7-9.5
			c0-1.6-0.4-3.1-1.1-4.5c-0.2-0.3-0.5-0.4-0.8-0.3c-0.4,0.1-0.6,0.5-0.4,0.9c1.9,3.7,0.8,8.3-2.5,10.8c-3.3,2.6-7.9,2.4-11-0.2
			c0.2-0.1,0.3-0.3,0.4-0.5c0.1-0.4-0.2-0.8-0.6-0.8l-1.6-0.4c-0.1,0-0.1,0-0.2,0c-0.4,0-0.7,0.3-0.7,0.7l0,1.7
			c0,0.4,0.3,0.7,0.7,0.7h0c0.3,0,0.6-0.2,0.7-0.5c1.9,1.7,4.3,2.7,6.9,2.7c0.6,0,1.1-0.1,1.7-0.2c0.9,0.7,1.9,1.4,3.1,1.9
			c5.2,2.2,8.9,1.8,10.8,1.3c-0.3,1.3-0.3,2.6-0.2,4c0,0.4,0.3,0.6,0.7,0.6c0,0,0,0,0.1,0c0.4,0,0.7-0.4,0.6-0.8
			c-0.2-2.7,0.5-4.7,0.5-4.8c0.1-0.2,0-0.4-0.1-0.6C36.4,46.7,36,46.6,35.6,46.8z"/>
		<path class="st0" d="M11.3,39c-1.6-3.5-0.6-7.7,2.3-10.2c3.2-2.8,7.9-2.8,11.1-0.3c-0.2,0.1-0.3,0.2-0.3,0.4
			c-0.1,0.4,0.1,0.8,0.5,0.9l1.6,0.3c0,0,0.1,0,0.1,0l0,0c0,0,0.1,0,0.1,0c0.4-0.1,0.6-0.4,0.6-0.8l-0.3-1.6
			c-0.1-0.3-0.4-0.5-0.7-0.5c-0.3,0-0.5,0.2-0.6,0.4c-2-1.6-4.5-2.4-7.1-2.3c2.3-4.8,6.2-7.7,10.9-7.7h0.1c3.8,0,5.2,1.2,6.1,1.9
			c0.6,0.5,1.3,1.1,2.3,0.5c0.8-0.4,1.2-1.5,1.3-3.3c0.1-1.3,0-2.6-0.1-3.2c0,0,0-0.1,0-0.1c-0.1-0.4-0.4-0.6-0.8-0.6
			c-0.4,0.1-0.6,0.4-0.6,0.8c0.1,1,0.1,2,0.1,3c-0.1,1.5-0.4,2-0.6,2.1c-0.1,0.1-0.2,0.1-0.8-0.4c-1-0.8-2.7-2.2-7-2.2h-0.1
			c-3.3,0-6.4,1.3-8.8,3.6c-1.5,1.5-2.8,3.5-3.7,5.7c-0.6,0.1-1.3,0.3-1.9,0.6c-5.1,2.3-7.4,8.3-5.2,13.4c0.1,0.3,0.4,0.4,0.6,0.4
			c0.1,0,0.2,0,0.3-0.1C11.3,39.8,11.5,39.3,11.3,39z"/>
		<path class="st0" d="M24.8,20.8c-0.2,0.1-0.3,0.4-0.3,0.6c0,0.4,0.3,0.7,0.7,0.7c0.1,0,0.2,0,0.3-0.1c3.1-1.8,6.2-0.6,6.2-0.6
			c0.3,0.1,0.7-0.1,0.8-0.4c0.2-0.4,0-0.8-0.3-0.9C32,20,28.5,18.7,24.8,20.8z"/>
	</g>
	<path class="st1" d="M30,66c-1.9,0-3.8-0.5-5.5-1.5l-18.9-11C2.1,51.6,0,47.9,0,44V22c0-3.9,2.1-7.6,5.5-9.6l18.9-11
		c3.4-2,7.7-2,11.1,0l18.9,11c3.4,2,5.5,5.7,5.5,9.6V44c0,3.9-2.1,7.6-5.5,9.6l-18.9,11C33.8,65.5,31.9,66,30,66z M30,1.5
		c-1.7,0-3.3,0.4-4.8,1.3l-18.9,11c-3,1.7-4.8,4.9-4.8,8.3V44c0,3.4,1.8,6.6,4.8,8.3l18.9,11c3,1.7,6.6,1.7,9.6,0l18.9-11
		c3-1.7,4.8-4.9,4.8-8.3V22c0-3.4-1.8-6.6-4.8-8.3l-18.9-11C33.3,1.9,31.7,1.5,30,1.5z"/>
</g>
</svg>
