<?xml version="1.0" encoding="utf-8"?>
<!-- Generator: Adobe Illustrator 26.4.1, SVG Export Plug-In . SVG Version: 6.00 Build 0)  -->
<svg version="1.1" id="Capa_1" xmlns="http://www.w3.org/2000/svg" xmlns:xlink="http://www.w3.org/1999/xlink" x="0px" y="0px"
	 viewBox="0 0 55 60" style="enable-background:new 0 0 55 60;" xml:space="preserve">
<style type="text/css">
	.st0{fill:#695CC4;}
	.st1{fill:#F58CAA;}
	.st2{fill:#D76E8C;}
	.st3{fill:#DD7A9B;}
	.st4{fill:#42DB8F;}
	.st5{fill:#FAC3C8;}
	.st6{fill:#2BC975;}
</style>
<g>
	<path class="st0" d="M50.1,48.5L32.4,58.7c-3,1.7-6.7,1.7-9.7,0L4.8,48.5c-3-1.7-4.8-4.9-4.8-8.3V19.8c0-3.4,1.8-6.6,4.8-8.3
		L22.6,1.3c3-1.7,6.7-1.7,9.7,0l17.8,10.2c3,1.7,4.9,4.9,4.9,8.3v20.4C55,43.6,53.2,46.8,50.1,48.5z"/>
	<g>
		<g>
			<g>
				<path class="st1" d="M18.7,39.3h-5.5V38c0-0.7-0.6-1.4-1.4-1.4c-0.8,0-1.4,0.6-1.4,1.4v1.4H5V38c0-3.7,3.1-6.8,6.8-6.8
					s6.8,3,6.8,6.8V39.3z"/>
			</g>
			<g>
				<path class="st1" d="M26.2,28.5h-2.1c-4.5,0-8.2-3.7-8.2-8.2v-2.7h5.5v2.7c0,1.5,1.2,2.7,2.7,2.7h2.1V28.5z"/>
			</g>
			<g>
				<path class="st2" d="M16,17.6h2.7v2.7c0,3,2.5,5.4,5.5,5.4h2.1v2.7h-2.1c-4.5,0-8.2-3.6-8.2-8.2V17.6z"/>
			</g>
			<g>
				<path class="st1" d="M35.2,17.6c6.1,0,11,4.9,11,10.9v5.4c0,10.5-8.6,19-19.2,19c-7.6,0-13.7-6.1-13.7-13.6h5.5
					c3,0,5.5-2.4,5.5-5.4v-5.4C24.2,22.5,29.1,17.6,35.2,17.6z"/>
			</g>
			<g>
				<path class="st3" d="M40.6,23c-3,0-5.5,2.4-5.5,5.4v8.2c0,4.5-3.7,8.2-8.2,8.2h-7c-3,0-4-2.4-4-5.4V38c0-2.3-1.8-4.1-4.1-4.1
					S7.8,35.7,7.8,38v1.4h2.7V38c0-0.8,0.6-1.4,1.4-1.4s1.4,0.6,1.4,1.4v1.4c0,7.5,6.1,13.6,13.7,13.6c10.6,0,19.2-8.5,19.2-19v-5.4
					C46.1,25.5,43.7,23,40.6,23z"/>
			</g>
			<g>
				<path class="st4" d="M18.7,42.1h-2.4c1.2,4.7,5.5,8.2,10.6,8.2H27c6.1,0,11.4-3.3,14.2-8.2H18.7z"/>
			</g>
			<g>
				<path class="st5" d="M26.9,34.6c-0.4,0-0.7-0.3-0.7-0.7v-5.4c0-4.9,4-8.8,8.9-8.8c0.4,0,0.7,0.3,0.7,0.7S35.5,21,35.2,21
					c-4.2,0-7.5,3.4-7.5,7.5v5.4C27.6,34.3,27.3,34.6,26.9,34.6z"/>
			</g>
		</g>
		<g>
			<path class="st4" d="M30.5,7.1c-1.3,0-2.4,0.6-3,1.6c-0.7-1-1.8-1.6-3-1.6c-0.6,0-1.2,0.2-1.7,0.5c-0.6,0.7-0.9,1.8-0.8,2.5
				c0.1,2.4,2.8,5.3,5.2,6.7c0.2,0.1,0.5,0,0.7,0c1.2-0.3,3.2-1.6,5-2.9c0.7-1,1.2-2,1.2-3C34.1,8.9,32.6,7.1,30.5,7.1z"/>
			<path class="st6" d="M27.1,16.4c-2.4-1.4-4.8-4-4.9-6.4c0-0.7,0.2-1.6,0.5-2.5c-1.2,0.7-1.9,1.9-1.8,3.4c0.1,2.8,3.3,5.5,6.1,7.1
				c0.3,0.1,0.6,0.1,0.8,0c1.8-1,3.7-2.5,4.9-4.2c-1.8,1.3-3.8,2.3-5,2.5C27.6,16.5,27.4,16.5,27.1,16.4L27.1,16.4z"/>
		</g>
	</g>
</g>
</svg>
