<?xml version="1.0" encoding="utf-8"?>
<!-- Generator: Adobe Illustrator 26.4.1, SVG Export Plug-In . SVG Version: 6.00 Build 0)  -->
<svg version="1.1" id="Capa_1" xmlns="http://www.w3.org/2000/svg" xmlns:xlink="http://www.w3.org/1999/xlink" x="0px" y="0px"
	 viewBox="0 0 60 66" style="enable-background:new 0 0 60 66;" xml:space="preserve">
<style type="text/css">
	.st0{fill:#373769;}
	.st1{fill:#373869;}
</style>
<g>
	<g>
		<path class="st0" d="M30,66c-1.9,0-3.8-0.5-5.5-1.5l-18.9-11C2.1,51.6,0,47.9,0,44V22c0-3.9,2.1-7.6,5.5-9.6l18.9-11
			c3.4-2,7.7-2,11.1,0l18.9,11c3.4,2,5.5,5.7,5.5,9.6V44c0,3.9-2.1,7.6-5.5,9.6l-18.9,11C33.8,65.5,31.9,66,30,66z M30,1.5
			c-1.7,0-3.3,0.4-4.8,1.3l-18.9,11c-3,1.7-4.8,4.9-4.8,8.3V44c0,3.4,1.8,6.6,4.8,8.3l18.9,11c3,1.7,6.6,1.7,9.6,0l18.9-11
			c3-1.7,4.8-4.9,4.8-8.3V22c0-3.4-1.8-6.6-4.8-8.3l-18.9-11C33.3,1.9,31.7,1.5,30,1.5z"/>
	</g>
	<path class="st1" d="M30.5,14.8c-0.2,0-0.4,0-0.5,0c-4.9,0.1-10,1.7-15.2,4.8c-0.3,0.1-0.4,0.4-0.4,0.7v13.4c0,2.3,0.3,4.4,1,6.2
		c0.8,2.1,2,3.8,3.7,5.1L29.5,53c0.3,0.2,0.7,0.2,1,0l10.4-7.9c1.7-1.3,2.9-3,3.7-5.1c0.7-1.8,1-3.9,1-6.2V20.4
		c0-0.3-0.1-0.5-0.4-0.7C40.6,16.5,35.6,14.8,30.5,14.8z M44,33.8c0,4.6-1.4,7.9-4.1,10L30,51.3l-9.9-7.5c-2.7-2.1-4.1-5.4-4.1-10
		v-13l0.2-0.1c10-5.7,19-5.7,27.7,0l0.1,0.1V33.8z"/>
	<path class="st1" d="M27.7,40.7h4.6c0.5,0,0.8-0.4,0.8-0.8v-4.8h4.8c0.5,0,0.8-0.4,0.8-0.8v-4.6c0-0.5-0.4-0.8-0.8-0.8h-4.8v-4.8
		c0-0.5-0.4-0.8-0.8-0.8h-4.6c-0.5,0-0.8,0.4-0.8,0.8v4.8h-4.8c-0.5,0-0.8,0.4-0.8,0.8v4.6c0,0.5,0.4,0.8,0.8,0.8h4.8v4.8
		C26.9,40.4,27.3,40.7,27.7,40.7z M22.9,33.5v-2.9h4.8c0.5,0,0.8-0.4,0.8-0.8v-4.8h2.9v4.8c0,0.5,0.4,0.8,0.8,0.8h4.8v2.9h-4.8
		c-0.5,0-0.8,0.4-0.8,0.8v4.8h-2.9v-4.8c0-0.5-0.4-0.8-0.8-0.8H22.9z"/>
</g>
</svg>
