<?xml version="1.0" encoding="utf-8"?>
<!-- Generator: Adobe Illustrator 26.4.1, SVG Export Plug-In . SVG Version: 6.00 Build 0)  -->
<svg version="1.1" id="Capa_1" xmlns="http://www.w3.org/2000/svg" xmlns:xlink="http://www.w3.org/1999/xlink" x="0px" y="0px"
	 viewBox="0 0 60 66" style="enable-background:new 0 0 60 66;" xml:space="preserve">
<style type="text/css">
	.st0{fill:#373869;}
</style>
<g>
	<path class="st0" d="M52,36.8H8c-0.6,0-1.1,0.5-1.1,1.1v14.3c0,0.6,0.5,1.1,1.1,1.1h44c0.6,0,1.1-0.5,1.1-1.1V37.9
		C53.1,37.3,52.6,36.8,52,36.8z M50.9,51.1H9.1v-3.6l0.2-0.1c0.5-0.2,0.9-0.4,1.2-0.8l2.1-2.1c0.5-0.5,1.4-0.5,2,0l0.1,0.1l2,2
		c1.4,1.4,3.6,1.4,5,0l2.1-2.1c0.5-0.5,1.4-0.5,2,0l2.1,2.1c1.4,1.4,3.6,1.4,5,0l2.1-2.1c0.5-0.5,1.4-0.5,2,0l2.1,2.1
		c0.7,0.7,1.6,1,2.5,1c0.9,0,1.8-0.4,2.5-1l2.1-2.1c0.4-0.4,1-0.5,1.6-0.3c0.2,0.1,0.3,0.2,0.5,0.4l1.5,1.9c0,0,0.1,0.1,0.1,0.1
		c0.4,0.4,0.8,0.6,1.2,0.8l0.2,0.1V51.1z M50.9,45l-1.3-1.6c-0.4-0.4-0.8-0.8-1.3-1c-1.3-0.6-2.9-0.3-4,0.7l-2.1,2.1
		c-0.3,0.3-0.6,0.4-1,0.4c-0.4,0-0.7-0.1-1-0.4L38.3,43c-0.7-0.7-1.6-1-2.5-1c-0.9,0-1.8,0.4-2.5,1l-2.1,2.1c-0.5,0.5-1.4,0.5-2,0
		L27.1,43c-0.7-0.7-1.6-1-2.5-1c-0.9,0-1.8,0.4-2.5,1l-2.1,2.1c-0.5,0.5-1.4,0.5-1.9,0L16,43c0,0-0.1,0-0.1-0.1
		c-0.7-0.6-1.5-1-2.4-1c-0.9,0-1.8,0.4-2.5,1l-2,2v-6.1h41.9V45z"/>
	<path class="st0" d="M45.4,23.7l-2.5-0.4c-2-0.3-3.6-1.9-3.9-3.9l-0.4-2.5c-0.1-0.5-0.5-0.9-1.1-0.9c-0.5,0-1,0.4-1.1,0.9l-0.4,2.5
		c-0.3,2-1.9,3.6-3.9,3.9l-2.5,0.4c-0.5,0.1-0.9,0.5-0.9,1.1c0,0.5,0.4,1,0.9,1.1l2.5,0.4c2,0.3,3.6,1.9,3.9,3.9l0.4,2.5
		c0.1,0.5,0.5,0.9,1.1,0.9c0.5,0,1-0.4,1.1-0.9l0.4-2.5c0.3-2,1.9-3.6,3.9-3.9l2.5-0.4c0.5-0.1,0.9-0.5,0.9-1.1
		C46.4,24.2,46,23.7,45.4,23.7z M40,25c-0.9,0.5-1.6,1.3-2.2,2.2l-0.3,0.4l-0.3-0.4c-0.5-0.9-1.3-1.6-2.2-2.2l-0.4-0.3l0.4-0.3
		c0.9-0.5,1.6-1.3,2.2-2.2l0.3-0.4l0.3,0.4c0.5,0.9,1.3,1.6,2.2,2.2l0.4,0.3L40,25z"/>
	<path class="st0" d="M29.5,15.7c-0.7,0-1.3,0.6-1.3,1.3c0,0.7,0.6,1.3,1.3,1.3c0.7,0,1.3-0.6,1.3-1.3
		C30.7,16.3,30.1,15.7,29.5,15.7z"/>
	<path class="st0" d="M18.2,24.7c0.6,0,1.1-0.5,1.1-1.1v-3.8h2.5c0.6,0,1.1-0.5,1.1-1.1c0-0.6-0.5-1.1-1.1-1.1h-2.5v-3.8
		c0-0.6-0.5-1.1-1.1-1.1c-0.6,0-1.1,0.5-1.1,1.1v3.8h-2.5c-0.6,0-1.1,0.5-1.1,1.1s0.5,1.1,1.1,1.1h2.5v3.8
		C17.1,24.2,17.6,24.7,18.2,24.7z"/>
	<path class="st0" d="M16.1,28.3c-0.7,0-1.3,0.6-1.3,1.3c0,0.7,0.6,1.3,1.3,1.3c0.7,0,1.3-0.6,1.3-1.3
		C17.3,28.9,16.7,28.3,16.1,28.3z"/>
	<path class="st0" d="M45.2,28.4c-0.7,0-1.3,0.6-1.3,1.3c0,0.7,0.6,1.3,1.3,1.3c0.7,0,1.3-0.6,1.3-1.3
		C46.4,28.9,45.9,28.4,45.2,28.4z"/>
</g>
</svg>
