<?xml version="1.0" encoding="utf-8"?>
<!-- Generator: Adobe Illustrator 26.4.1, SVG Export Plug-In . SVG Version: 6.00 Build 0)  -->
<svg version="1.1" id="Capa_1" xmlns="http://www.w3.org/2000/svg" xmlns:xlink="http://www.w3.org/1999/xlink" x="0px" y="0px"
	 viewBox="0 0 60 66" style="enable-background:new 0 0 60 66;" xml:space="preserve">
<style type="text/css">
	.st0{fill:#373869;}
</style>
<g>
	<path class="st0" d="M52.5,45.8V31.9c0,0,0,0,0,0c2.7-1.1,4.4-5.7,4.4-12.2c0-0.8-0.6-1.4-1.4-1.4c-5.5,0-9.5,3.1-10.1,7.8h-9.6
		V15.4L38,7.8c0.1-0.4,0-0.9-0.2-1.2c-0.3-0.3-0.7-0.5-1.1-0.5h-4.4c-3.3,0-6.1,2-7.3,4.8l0.9-3.1c0.1-0.4,0-0.9-0.2-1.2
		c-0.3-0.3-0.7-0.5-1.1-0.5H20c-4.3,0-7.9,3.5-8,7.8c-1.9,0.1-3.3,1.7-3.3,3.6v4.4c-2,0.6-3.3,2.4-3.3,4.5v4.4c0,0,0,0,0,0
		c-1.3,0.5-2.2,1.8-2.2,3.3v6.7c0,2,1.6,3.6,3.6,3.6H12v0.9c0,3.2,2.6,5.8,5.8,5.8h13.6c-0.8,1.2-0.6,2.9,0.4,4l4,4
		c0.6,0.6,1.4,0.9,2.3,0.9c0,0,0,0,0,0c0.8,0,1.7-0.3,2.3-0.9l3-3l1.9,1.9c0.7,0.7,1.6,1.1,2.5,1.1h0c0,0,0,0,0,0
		c0.9,0,1.9-0.4,2.5-1l6.2-6.2c0.5-0.5,0.5-1.4,0-1.9L52.5,45.8z M38.4,51l3,3l-3,3c-0.2,0.2-0.5,0.2-0.7,0l-4-4
		c-0.2-0.2-0.2-0.5,0-0.7l1.3-1.3H38.4z M14.7,13.9c0.1-2.8,2.4-5,5.3-5.1h2.6l-1.4,5.1H14.7z M14.7,36.6h2.8v4.2
		c0,2,1.6,3.6,3.6,3.6h13.6v-2.7H21.1c-0.5,0-0.9-0.4-0.9-0.9v-6.7c0-0.2,0-0.3,0.1-0.5c0.2-0.2,0.4-0.4,0.7-0.4h14.7v-1.1v-1.6
		v-1.7h10.9c0,0,0,0,0,0c1.4,0,2.6,1,3,2.3c0.1,0.2,0.1,0.5,0.1,0.7v14.4c-0.1,0.2-1.1,0.9-3.1,0.9h-0.2v2.7h0.2
		c2,0,3.6-0.5,4.7-1.4l2.3,2.3L48.4,56c-0.2,0.2-0.4,0.2-0.6,0.2c-0.2,0-0.4-0.1-0.6-0.3L40,48.7c-0.3-0.3-0.6-0.4-1-0.4H17.8
		c-1.7,0-3.1-1.4-3.1-3.1V36.6z M11.1,36.6C11.1,36.6,11.1,36.6,11.1,36.6H12v5.1H6.7c-0.5,0-0.9-0.4-0.9-0.9v-6.7
		c0-0.2,0.1-0.4,0.2-0.6C7,35.4,8.9,36.6,11.1,36.6z M11.4,23v-0.9h2.2v-0.2c0-0.5,0.4-0.9,0.9-0.9c0.5,0,0.9,0.4,0.9,0.9v0.2H18
		v-0.2c0-2-1.6-3.6-3.6-3.6c-1.3,0-2.5,0.7-3.1,1.8v-2.6c0-0.5,0.4-0.9,0.9-0.9h13.3c0.8,0,1.4-0.6,1.4-1.4v-1.1
		c0-2.9,2.4-5.3,5.3-5.3h2.6l-1.7,6c0,0.1-0.1,0.2-0.1,0.4v15.3H21.4v-3.1c0-0.8-0.6-1.4-1.4-1.4h-1.2l1-1c0.4-0.4,0.5-1,0.3-1.5
		c-0.2-0.5-0.7-0.8-1.3-0.8h-4.4c-0.6,0-1,0.3-1.3,0.8c-0.2,0.5-0.1,1.1,0.3,1.5l1,1h-1.2c-0.8,0-1.4,0.6-1.4,1.4v3.3
		c0,1.2,0.5,2.3,1.2,3.1h-2c-1.4,0-2.7-1-3-2.3C8.1,31.3,8,31,8,30.8v-4.4c0-1.1,0.9-2,2-2C10.8,24.4,11.4,23.8,11.4,23z M18,31
		v-2.2h0.6v2c0,1.1-0.9,2-2,2s-2-0.9-2-2v-2h0.6V31H18z M48.1,26.3c0.5-3.3,3.3-4.8,6-5.2c-0.2,4.6-1.4,7.2-2.4,8
		C51,27.7,49.7,26.7,48.1,26.3z M24.2,13.9H24l0.3-0.9C24.2,13.3,24.2,13.6,24.2,13.9z"/>
	<path class="st0" d="M22.5,21.9c0-0.5,0.4-0.9,0.9-0.9s0.9,0.4,0.9,0.9v0.2h2.7v-0.2c0-2-1.6-3.6-3.6-3.6s-3.6,1.6-3.6,3.6v0.2h2.7
		V21.9z"/>
	<path class="st0" d="M30.2,15.2c0-1.6,0.9-3.1,2-3.1h0.2V9.4h-0.2c-2.6,0-4.7,2.5-4.7,5.8v0.2h2.7V15.2z"/>
	<path class="st0" d="M11.4,47.4v-0.2H8.7v0.2c0,4.4,4.1,8,9.1,8H18v-2.7h-0.2C14.3,52.7,11.4,50.4,11.4,47.4z"/>
	<path class="st0" d="M49.1,18.6c0-0.7,2-2,5.3-2h0.2v-2.7h-0.2c-4.6,0-8,2-8,4.7v0.2h2.7V18.6z"/>
</g>
</svg>
