<?xml version="1.0" encoding="utf-8"?>
<!-- Generator: Adobe Illustrator 26.4.1, SVG Export Plug-In . SVG Version: 6.00 Build 0)  -->
<svg version="1.1" id="Capa_1" xmlns="http://www.w3.org/2000/svg" xmlns:xlink="http://www.w3.org/1999/xlink" x="0px" y="0px"
	 viewBox="0 0 60 66" style="enable-background:new 0 0 60 66;" xml:space="preserve">
<style type="text/css">
	.st0{fill:#373769;}
	.st1{fill:#373869;}
</style>
<g>
	<g>
		<path class="st0" d="M30,66c-1.9,0-3.8-0.5-5.5-1.5l-18.9-11C2.1,51.6,0,47.9,0,44V22c0-3.9,2.1-7.6,5.5-9.6l18.9-11
			c3.4-2,7.7-2,11.1,0l18.9,11c3.4,2,5.5,5.7,5.5,9.6V44c0,3.9-2.1,7.6-5.5,9.6l-18.9,11C33.8,65.5,31.9,66,30,66z M30,1.5
			c-1.7,0-3.3,0.4-4.8,1.3l-18.9,11c-3,1.7-4.8,4.9-4.8,8.3V44c0,3.4,1.8,6.6,4.8,8.3l18.9,11c3,1.7,6.6,1.7,9.6,0l18.9-11
			c3-1.7,4.8-4.9,4.8-8.3V22c0-3.4-1.8-6.6-4.8-8.3l-18.9-11C33.3,1.9,31.7,1.5,30,1.5z"/>
	</g>
	<path class="st1" d="M20.1,53.4c0.2,0,0.4-0.1,0.5-0.2l21.1-24.3c0.1-0.2,0.2-0.4,0.2-0.6c0-0.5-0.3-0.8-0.7-0.9h-6.3l0.2-0.3
		l7.1-13.2c0.1-0.1,0.1-0.3,0.1-0.4c0-0.5-0.3-0.8-0.7-0.8H29.3c-0.2,0-0.5,0.1-0.6,0.4L17.9,32.4c-0.1,0.2-0.1,0.3-0.1,0.5
		c0,0.2,0.1,0.5,0.3,0.6c0.1,0.1,0.3,0.2,0.4,0.2c0,0,0,0,0,0h8.1h0.3l-7.4,18.4c0,0.1-0.1,0.2-0.1,0.3C19.4,53,19.7,53.4,20.1,53.4
		z M28.6,33.2c0-0.1,0.1-0.2,0.1-0.3c0-0.5-0.3-0.8-0.7-0.9h-8.2l0.2-0.3l9.7-17.4h10.6l-0.2,0.3L33,27.8c-0.1,0.1-0.1,0.3-0.1,0.4
		c0,0.3,0.1,0.5,0.2,0.7c0.1,0.1,0.3,0.2,0.4,0.2h5.8l-0.3,0.3L22.4,48.7L28.6,33.2z"/>
</g>
</svg>
