<?xml version="1.0" encoding="utf-8"?>
<!-- Generator: Adobe Illustrator 26.4.1, SVG Export Plug-In . SVG Version: 6.00 Build 0)  -->
<svg version="1.1" id="Capa_1" xmlns="http://www.w3.org/2000/svg" xmlns:xlink="http://www.w3.org/1999/xlink" x="0px" y="0px"
	 viewBox="0 0 60 66" style="enable-background:new 0 0 60 66;" xml:space="preserve">
<style type="text/css">
	.st0{fill:#373769;}
</style>
<g>
	<g>
		<path class="st0" d="M30,66c-1.9,0-3.8-0.5-5.5-1.5l-18.9-11C2.1,51.6,0,47.9,0,44V22c0-3.9,2.1-7.6,5.5-9.6l18.9-11
			c3.4-2,7.7-2,11.1,0l18.9,11c3.4,2,5.5,5.7,5.5,9.6V44c0,3.9-2.1,7.6-5.5,9.6l-18.9,11C33.8,65.5,31.9,66,30,66z M30,1.5
			c-1.7,0-3.3,0.4-4.8,1.3l-18.9,11c-3,1.7-4.8,4.9-4.8,8.3V44c0,3.4,1.8,6.6,4.8,8.3l18.9,11c3,1.7,6.6,1.7,9.6,0l18.9-11
			c3-1.7,4.8-4.9,4.8-8.3V22c0-3.4-1.8-6.6-4.8-8.3l-18.9-11C33.3,1.9,31.7,1.5,30,1.5z"/>
	</g>
	<g>
		<g>
			<g>
				<path class="st0" d="M44.3,25.7h-0.8c1.5-0.5,2.6-1.9,2.6-3.6c0-2-1.6-3.7-3.6-3.8c-0.5-1.6-1.9-2.7-3.6-2.7
					c-1.7,0-3.1,1.1-3.6,2.7c-2,0.1-3.6,1.8-3.6,3.8c0,1.6,1,3,2.4,3.5v5.7c0,1.4-1.1,2.5-2.5,2.5H18.3v0c0-3.2-2.6-5.7-5.7-5.7
					c-0.5,0-0.8,0.4-0.8,0.8v5.7c0,8.4,6.6,15.3,14.9,15.7l1.7,0c3.9-0.2,7.5-1.8,10.3-4.6c2.4-2.4,3.9-5.4,4.4-8.7h0.1
					c1.8,0,3.2-1.5,3.2-3.2v-3.3h1.1c0.5,0,0.8-0.4,0.8-0.8C48.3,27.5,46.5,25.7,44.3,25.7z M13.4,29.8c1.8,0.4,3.2,2,3.2,3.9v0
					h-3.2V29.8z M41.5,26.5v3.2v4.9c0,3.8-1.5,7.3-4.1,9.9c-2.7,2.7-6.2,4.1-9.9,4.1c-7.5,0-13.6-5.9-14-13.2H17v2.1
					c0,2.5,1.1,4.9,3.1,6.6c1.5,1.3,3.4,2,5.4,2c2.7,0,5.2-1.3,6.8-3.4c0.3-0.4,0.2-0.9-0.2-1.2c-0.4-0.3-0.9-0.2-1.2,0.2
					c-1.3,1.7-3.3,2.7-5.5,2.7c-1.3,0-2.5-0.4-3.6-1l1.8-1.9c0.3-0.3,0.3-0.9-0.1-1.2c-0.3-0.3-0.9-0.3-1.2,0.1l-1.8,2
					c-1.2-1.3-1.9-2.9-1.9-4.7v-2.1h13.6v1.8c0,0.5,0.4,0.8,0.8,0.8c0.5,0,0.8-0.4,0.8-0.8v-2.6c1-0.8,1.7-2,1.7-3.4v-5.9
					c0-0.1,0-0.2,0-0.4c0.2-1.6,1.5-2.8,3.1-2.8c1.4,0,2.6,1.2,2.6,2.6L41.5,26.5L41.5,26.5z M43.1,24.1c-0.4-2-2.1-3.5-4.2-3.5
					c-2.1,0-3.9,1.3-4.6,3.3c-0.6-0.4-1-1-1-1.8c0-1.2,0.9-2.1,2.1-2.1c0.1,0,0.2,0,0.4,0c0.2,0,0.5,0,0.7-0.2
					c0.2-0.1,0.3-0.4,0.3-0.6c0.1-1.1,1-1.9,2.1-1.9c1.1,0,2,0.9,2.1,1.9c0,0.2,0.1,0.5,0.3,0.6c0.2,0.1,0.4,0.2,0.7,0.2
					c0.1,0,0.3,0,0.4,0c1.2,0,2.1,0.9,2.1,2.1C44.4,23,43.9,23.8,43.1,24.1z M44.6,33.9c0,0.8-0.7,1.5-1.5,1.5v-4.9h1.5V33.9z
					 M45.5,28.8h-2.3v-1.5h1.1c1,0,1.8,0.6,2.1,1.5L45.5,28.8L45.5,28.8z"/>
			</g>
		</g>
		<g>
			<g>
				<path class="st0" d="M38.9,25.3c-0.5,0-0.8,0.4-0.8,0.8V27c0,0.5,0.4,0.8,0.8,0.8c0.5,0,0.8-0.4,0.8-0.8v-0.9
					C39.7,25.6,39.3,25.3,38.9,25.3z"/>
			</g>
		</g>
		<g>
			<g>
				<path class="st0" d="M33.1,39c-0.4-0.1-0.9,0.1-1.1,0.6c0,0.1,0,0.1,0,0.1c-0.1,0.4,0.1,0.9,0.5,1.1c0.1,0,0.2,0,0.3,0
					c0.4,0,0.7-0.2,0.8-0.6c0-0.1,0-0.1,0.1-0.2C33.8,39.6,33.5,39.1,33.1,39z"/>
			</g>
		</g>
	</g>
</g>
</svg>
