<?xml version="1.0" encoding="utf-8"?>
<!-- Generator: Adobe Illustrator 26.4.1, SVG Export Plug-In . SVG Version: 6.00 Build 0)  -->
<svg version="1.1" id="Capa_1" xmlns="http://www.w3.org/2000/svg" xmlns:xlink="http://www.w3.org/1999/xlink" x="0px" y="0px"
	 viewBox="0 0 55 60" style="enable-background:new 0 0 55 60;" xml:space="preserve">
<style type="text/css">
	.st0{fill:#484B7F;}
	.st1{fill:#A5C6B8;}
	.st2{fill:#CDEAE0;}
	.st3{fill:#BAD6CB;}
	.st4{fill:#EDFCF6;}
	.st5{fill:#DFEFE8;}
	.st6{fill:#5E566A;}
</style>
<g>
	<path class="st0" d="M50.1,48.5L32.4,58.7c-3,1.7-6.7,1.7-9.7,0L4.9,48.5c-3-1.7-4.9-4.9-4.9-8.3V19.8c0-3.4,1.8-6.6,4.9-8.3
		L22.6,1.3c3-1.7,6.7-1.7,9.7,0l17.8,10.2c3,1.7,4.9,4.9,4.9,8.3v20.4C55,43.6,53.2,46.8,50.1,48.5z"/>
	<g>
		<g>
			<path class="st1" d="M2.4,25c-1,1,1.5,5,1.5,5s-2.5,4-1.5,5c2,2,10.3-5,10.3-5S4.4,23,2.4,25z"/>
			<path class="st1" d="M40.6,21.7c0,0-4.9-9.5-18.4-8.9c-0.9,0-1.5,0.9-1.2,1.7l4.6,14.1L40.6,21.7z"/>
			<path class="st1" d="M40.6,38.3c0,0-4.9,9.5-18.4,8.9c-0.9,0-1.5-0.9-1.2-1.7l4.6-14.1L40.6,38.3z"/>
		</g>
		<path class="st2" d="M50.9,30.2c0.2-0.4,0.6-1.2,1.8-2c0.1-0.1,0.2-0.2,0.1-0.4c-2.1-3.5-7.7-10.3-19.1-10.3
			c-9.9,0-19.2,8.4-22.2,11.4c-0.5,0.5-0.5,1.4,0,2c2.9,2.9,12.3,11.4,22.2,11.4c11.4,0,17-6.8,19.1-10.3c0.1-0.1,0-0.3-0.1-0.4
			c-1-0.6-1.5-0.9-1.7-1.1C50.9,30.5,50.9,30.4,50.9,30.2z"/>
		<path id="SVGCleanerId_0_00000124854128887009981080000013190424566134103444_" class="st3" d="M52.7,31.7c-1-0.6-1.5-0.9-1.7-1.1
			c-0.1-0.1-0.2-0.3-0.1-0.4c0.2-0.4,0.6-1.2,1.8-2c0.1-0.1,0.2-0.2,0.1-0.4c-0.5-0.9-1.3-1.9-2.2-3c-0.2,0.6-0.7,1.5-1.6,3.1
			c-2,3.4-7.6,10.5-19.2,10.5c-7.3,0-14.3-4.6-18.6-8.2c0.1,0.3,0.2,0.5,0.4,0.7c2.9,2.9,12.3,11.4,22.2,11.4
			c11.4,0,17-6.8,19.1-10.3C52.8,32,52.8,31.8,52.7,31.7z"/>
		<path id="SVGCleanerId_1_00000031177456474904588430000010587477014616646306_" class="st4" d="M38.2,30c0,4.5,1.1,8.5,2.8,11.3
			l0,0c6.6-2,10.2-6.6,11.8-9.2c0.1-0.1,0-0.3-0.1-0.4c-1-0.6-1.5-0.9-1.7-1.1c-0.1-0.1-0.2-0.3-0.1-0.4c0.2-0.4,0.6-1.2,1.8-2
			c0.1-0.1,0.2-0.2,0.1-0.4c-1.6-2.7-5.2-7.2-11.8-9.2h0C39.2,21.5,38.2,25.5,38.2,30z"/>
		<g>
			<path id="SVGCleanerId_0_00000183240961814285259420000001783255554279380881_" class="st3" d="M52.7,31.7
				c-1-0.6-1.5-0.9-1.7-1.1c-0.1-0.1-0.2-0.3-0.1-0.4c0.2-0.4,0.6-1.2,1.8-2c0.1-0.1,0.2-0.2,0.1-0.4c-0.5-0.9-1.3-1.9-2.2-3
				c-0.2,0.6-0.7,1.5-1.6,3.1c-2,3.4-7.6,10.5-19.2,10.5c-7.3,0-14.3-4.6-18.6-8.2c0.1,0.3,0.2,0.5,0.4,0.7
				c2.9,2.9,12.3,11.4,22.2,11.4c11.4,0,17-6.8,19.1-10.3C52.8,32,52.8,31.8,52.7,31.7z"/>
		</g>
		<g>
			<path id="SVGCleanerId_1_00000085941444904343375800000009335250455348967559_" class="st4" d="M38.2,30c0,4.5,1.1,8.5,2.8,11.3
				l0,0c6.6-2,10.2-6.6,11.8-9.2c0.1-0.1,0-0.3-0.1-0.4c-1-0.6-1.5-0.9-1.7-1.1c-0.1-0.1-0.2-0.3-0.1-0.4c0.2-0.4,0.6-1.2,1.8-2
				c0.1-0.1,0.2-0.2,0.1-0.4c-1.6-2.7-5.2-7.2-11.8-9.2h0C39.2,21.5,38.2,25.5,38.2,30z"/>
		</g>
		<path class="st5" d="M52.7,31.7c-1-0.6-1.5-0.9-1.7-1.1c-0.1-0.1-0.2-0.3-0.1-0.4c0.2-0.4,0.6-1.2,1.8-2c0.1-0.1,0.2-0.2,0.1-0.4
			c-0.1-0.1-0.1-0.2-0.2-0.3c0,0,0-0.1-0.1-0.1c0-0.1-0.1-0.2-0.2-0.2c0,0,0-0.1-0.1-0.1c-0.1-0.1-0.1-0.2-0.2-0.3c0,0,0,0,0-0.1
			c-0.1-0.1-0.2-0.2-0.2-0.4c0,0,0,0,0-0.1c-0.1-0.1-0.1-0.2-0.2-0.3c0,0,0-0.1-0.1-0.1c-0.1-0.1-0.1-0.2-0.2-0.3c0,0,0-0.1-0.1-0.1
			c-0.1-0.1-0.2-0.3-0.3-0.4c0,0,0,0,0,0c-0.1-0.1-0.2-0.2-0.3-0.4c0,0,0,0,0,0c-0.2,0.6-0.7,1.5-1.6,3.1c-1.4,2.4-4.4,6.4-9.9,8.7
			c0.5,1.8,1.1,3.3,1.9,4.6l0,0h0c4.3-1.3,7.4-3.7,9.4-6c0,0,0,0,0,0c0.2-0.2,0.4-0.4,0.5-0.6c0,0,0,0,0,0c0.2-0.2,0.3-0.4,0.5-0.6
			c0,0,0,0,0,0c0.1-0.1,0.1-0.2,0.2-0.3c0,0,0,0,0,0c0.1-0.1,0.1-0.2,0.2-0.3c0,0,0,0,0,0c0.1-0.1,0.1-0.2,0.2-0.3c0,0,0,0,0,0
			c0.1-0.1,0.1-0.2,0.2-0.3c0,0,0,0,0-0.1c0.1-0.1,0.1-0.2,0.2-0.2c0,0,0,0,0,0c0.1-0.1,0.1-0.2,0.2-0.2c0,0,0,0,0-0.1
			c0-0.1,0.1-0.2,0.1-0.2C52.8,32,52.8,31.8,52.7,31.7z"/>
		<ellipse class="st6" cx="43.4" cy="24.7" rx="1.8" ry="1.7"/>
		<g>
			<path class="st4" d="M31.9,36.4c0,1.6,1.3,2.9,2.9,2.9c0.4,0,0.8-0.3,0.8-0.8s-0.3-0.8-0.8-0.8c-0.8,0-1.4-0.6-1.4-1.4
				c0-0.8,0.6-1.4,1.4-1.4c0.4,0,0.8-0.3,0.8-0.8s-0.3-0.8-0.8-0.8c-0.8,0-1.4-0.6-1.4-1.4c0-0.8,0.6-1.4,1.4-1.4
				c0.4,0,0.8-0.3,0.8-0.8c0-0.4-0.3-0.8-0.8-0.8c-0.8,0-1.4-0.6-1.4-1.4c0-0.8,0.6-1.4,1.4-1.4c0.4,0,0.8-0.3,0.8-0.8
				c0-0.4-0.3-0.8-0.8-0.8c-0.8,0-1.4-0.6-1.4-1.4c0-0.8,0.6-1.4,1.4-1.4c0.4,0,0.8-0.3,0.8-0.8c0-0.4-0.3-0.8-0.8-0.8
				c-1.6,0-2.9,1.3-2.9,2.9c0,0.8,0.4,1.6,1,2.1c-0.6,0.5-1,1.3-1,2.1c0,0.8,0.4,1.6,1,2.1c-0.6,0.5-1,1.3-1,2.1
				c0,0.8,0.4,1.6,1,2.1C32.3,34.8,31.9,35.6,31.9,36.4z"/>
			<path class="st4" d="M25.8,34.3c0,1.6,1.3,2.9,2.9,2.9c0.4,0,0.8-0.3,0.8-0.8s-0.3-0.8-0.8-0.8c-0.8,0-1.4-0.6-1.4-1.4
				c0-0.8,0.6-1.4,1.4-1.4c0.4,0,0.8-0.3,0.8-0.8c0-0.4-0.3-0.8-0.8-0.8c-0.8,0-1.4-0.6-1.4-1.4c0-0.8,0.6-1.4,1.4-1.4
				c0.4,0,0.8-0.3,0.8-0.8c0-0.4-0.3-0.8-0.8-0.8c-0.8,0-1.4-0.6-1.4-1.4c0-0.8,0.6-1.4,1.4-1.4c0.4,0,0.8-0.3,0.8-0.8
				c0-0.4-0.3-0.8-0.8-0.8c-1.6,0-2.9,1.3-2.9,2.9c0,0.8,0.4,1.6,1,2.1c-0.6,0.5-1,1.3-1,2.1s0.4,1.6,1,2.1
				C26.1,32.7,25.8,33.4,25.8,34.3z"/>
			<path class="st4" d="M19.6,32.1c0,1.6,1.3,2.9,2.9,2.9c0.4,0,0.8-0.3,0.8-0.8s-0.3-0.8-0.8-0.8c-0.8,0-1.4-0.6-1.4-1.4
				c0-0.8,0.6-1.4,1.4-1.4c0.4,0,0.8-0.3,0.8-0.8c0-0.4-0.3-0.8-0.8-0.8c-0.8,0-1.4-0.6-1.4-1.4c0-0.8,0.6-1.4,1.4-1.4
				c0.4,0,0.8-0.3,0.8-0.8c0-0.4-0.3-0.8-0.8-0.8c-1.6,0-2.9,1.3-2.9,2.9c0,0.8,0.4,1.6,1,2.1C20,30.5,19.6,31.3,19.6,32.1z"/>
		</g>
	</g>
</g>
</svg>
