<?xml version="1.0" encoding="utf-8"?>
<!-- Generator: Adobe Illustrator 26.4.1, SVG Export Plug-In . SVG Version: 6.00 Build 0)  -->
<svg version="1.1" id="Capa_1" xmlns="http://www.w3.org/2000/svg" xmlns:xlink="http://www.w3.org/1999/xlink" x="0px" y="0px"
	 viewBox="0 0 55 60" style="enable-background:new 0 0 55 60;" xml:space="preserve">
<style type="text/css">
	.st0{fill:#695CC4;}
	.st1{fill:#DAEAEF;}
	.st2{fill:#B9EA6A;}
	.st3{fill:#95D528;}
	.st4{fill:#FC8086;}
	.st5{fill:#FB636F;}
	.st6{fill:#97E4F9;}
</style>
<g>
	<path class="st0" d="M50.1,48.5L32.4,58.7c-3,1.7-6.7,1.7-9.7,0L4.9,48.5c-3-1.7-4.9-4.9-4.9-8.3V19.8c0-3.4,1.8-6.6,4.9-8.3
		L22.6,1.3c3-1.7,6.7-1.7,9.7,0l17.8,10.2c3,1.7,4.9,4.9,4.9,8.3v20.4C55,43.6,53.2,46.8,50.1,48.5z"/>
	<g>
		<g>
			<path class="st1" d="M27.5,26.8c-0.4,0-0.8-0.3-0.8-0.8v-6.5c0-0.4,0.3-0.8,0.8-0.8s0.8,0.3,0.8,0.8V26
				C28.3,26.5,27.9,26.8,27.5,26.8z"/>
			<path class="st1" d="M40.9,35.3h-4.6c-0.4,0-0.8-0.3-0.8-0.8c0-0.4,0.3-0.8,0.8-0.8h4.6c0.4,0,0.8,0.3,0.8,0.8
				C41.6,34.9,41.3,35.3,40.9,35.3z"/>
			<path class="st1" d="M18.8,35.3H7.4c-0.4,0-0.8-0.3-0.8-0.8c0-0.4,0.3-0.8,0.8-0.8h11.4c0.4,0,0.8,0.3,0.8,0.8
				C19.6,34.9,19.2,35.3,18.8,35.3L18.8,35.3z"/>
			<path class="st1" d="M27.5,50.5c-0.4,0-0.8-0.3-0.8-0.8v-6.8c0-0.4,0.3-0.8,0.8-0.8s0.8,0.3,0.8,0.8v6.8
				C28.3,50.1,27.9,50.5,27.5,50.5z"/>
		</g>
		<ellipse class="st2" cx="11.2" cy="18.3" rx="6.3" ry="6.2"/>
		<path class="st3" d="M14.1,12.8c0.5,0.9,0.8,1.9,0.8,3c0,3.4-2.8,6.2-6.3,6.2c-1.1,0-2.1-0.3-3-0.7c1.1,1.9,3.1,3.3,5.5,3.3
			c3.5,0,6.3-2.8,6.3-6.2C17.4,15.9,16.1,13.9,14.1,12.8z"/>
		<path class="st1" d="M8.7,51l13.5-13.4l2.2,2.2L10.9,53.2L8.7,51z"/>
		<ellipse class="st2" cx="7" cy="54.8" rx="5.2" ry="5.2"/>
		<path class="st3" d="M9.5,50.3c0.4,0.7,0.6,1.6,0.6,2.5c0,2.9-2.3,5.2-5.2,5.2c-0.9,0-1.7-0.2-2.5-0.6C3.3,58.9,5,60,7,60
			c2.9,0,5.2-2.3,5.2-5.2C12.3,52.9,11.1,51.1,9.5,50.3L9.5,50.3z"/>
		<path class="st1" d="M31.7,28.2l11.5-11.4l2.2,2.2L33.9,30.4c-0.6,0.6-1.6,0.6-2.2,0C31,29.8,31,28.8,31.7,28.2L31.7,28.2z"/>
		<ellipse class="st2" cx="45.9" cy="16.3" rx="7.3" ry="7.3"/>
		<path class="st3" d="M49.4,9.9c0.6,1,0.9,2.2,0.9,3.4c0,4-3.3,7.3-7.3,7.3c-1.3,0-2.4-0.3-3.5-0.9c1.2,2.3,3.7,3.8,6.4,3.8
			c4,0,7.3-3.2,7.3-7.3C53.2,13.5,51.6,11.1,49.4,9.9z"/>
		<path class="st1" d="M20.9,30.1L14,23.3c-0.6-0.6-0.6-1.6,0-2.2s1.6-0.6,2.2,0l6.9,6.8L20.9,30.1z"/>
		<ellipse class="st4" cx="27.5" cy="34.5" rx="9.4" ry="9.3"/>
		<path class="st5" d="M32.3,26.5c0.8,1.4,1.3,3,1.3,4.8c0,5.1-4.2,9.3-9.4,9.3c-1.8,0-3.4-0.5-4.8-1.3c1.6,2.7,4.6,4.5,8.1,4.5
			c5.2,0,9.4-4.2,9.4-9.3C36.9,31.1,35.1,28.2,32.3,26.5L32.3,26.5z"/>
		<path class="st1" d="M34.2,39l6.3,6.2l-2.2,2.2L32,41.1c-0.6-0.6-0.6-1.6,0-2.2C32.6,38.3,33.6,38.3,34.2,39z"/>
		<ellipse class="st2" cx="44.1" cy="51" rx="7.3" ry="7.3"/>
		<path class="st3" d="M47.6,44.6c0.6,1,0.9,2.2,0.9,3.4c0,4-3.3,7.3-7.3,7.3c-1.3,0-2.4-0.3-3.5-0.9c1.2,2.3,3.7,3.8,6.4,3.8
			c4,0,7.3-3.2,7.3-7.3C51.4,48.2,49.9,45.8,47.6,44.6z"/>
		<ellipse class="st6" cx="27.5" cy="16.9" rx="3.1" ry="3.1"/>
		<ellipse class="st6" cx="43.2" cy="34.5" rx="3.1" ry="3.1"/>
		<ellipse class="st6" cx="4.9" cy="34.5" rx="3.1" ry="3.1"/>
		<ellipse class="st6" cx="27.5" cy="52.1" rx="3.1" ry="3.1"/>
	</g>
</g>
</svg>
