<?xml version="1.0" encoding="utf-8"?>
<!-- Generator: Adobe Illustrator 26.4.1, SVG Export Plug-In . SVG Version: 6.00 Build 0)  -->
<svg version="1.1" id="Capa_1" xmlns="http://www.w3.org/2000/svg" xmlns:xlink="http://www.w3.org/1999/xlink" x="0px" y="0px"
	 viewBox="0 0 60 66" style="enable-background:new 0 0 60 66;" xml:space="preserve">
<style type="text/css">
	.st0{fill:#373769;}
</style>
<g>
	<g>
		<path class="st0" d="M30,66c-1.9,0-3.8-0.5-5.5-1.5l-18.9-11C2.1,51.6,0,47.9,0,44V22c0-3.9,2.1-7.6,5.5-9.6l18.9-11
			c3.4-2,7.7-2,11.1,0l18.9,11c3.4,2,5.5,5.7,5.5,9.6V44c0,3.9-2.1,7.6-5.5,9.6l-18.9,11C33.8,65.5,31.9,66,30,66z M30,1.5
			c-1.7,0-3.3,0.4-4.8,1.3l-18.9,11c-3,1.7-4.8,4.9-4.8,8.3V44c0,3.4,1.8,6.6,4.8,8.3l18.9,11c3,1.7,6.6,1.7,9.6,0l18.9-11
			c3-1.7,4.8-4.9,4.8-8.3V22c0-3.4-1.8-6.6-4.8-8.3l-18.9-11C33.3,1.9,31.7,1.5,30,1.5z"/>
	</g>
	<path class="st0" d="M46.3,27.1l-0.1-0.4c-0.8-2-1.3-3.5-2.8-5.4c-0.1-0.2-0.3-0.2-0.5-0.3c-0.2,0-0.4,0-0.5,0.1
		c-0.3,0.2-0.4,0.7-0.1,1c1.3,1.7,1.8,3,2.6,5l0.1,0.3c0.7,2.5,1,5,0.7,7.5c-2.8-2.1-5.2-2.2-8.7-1.7c-0.4,0.1-0.7,0.4-0.6,0.8
		c0.1,0.4,0.4,0.6,0.7,0.6c0,0,0.1,0,0.1,0c3.4-0.5,5.5-0.4,8.2,1.9c-0.6,2.8-1.8,5.3-3.6,7.4c-3.2,3.7-7.8,5.4-12.7,4.8
		c-2.4-0.3-4-0.7-6-1.8c-0.9-0.5-1.7-0.6-2.6-0.5c-1.8,0.1-3.4,1-4.3,2.4l-1.5-0.9c1.2-2,3.2-3.2,5.5-3.3l0.1,0c0.1,0,0.2,0,0.2,0
		c0.2,0,0.6,0,0.8-0.3c0.2-0.2,0.3-0.5,0.3-0.8c0-0.1,0-0.1,0-0.2c0-0.3,0.1-0.7,0.2-1.1c0.2-0.7,0.7-1.4,1.3-2.1
		c0.5-0.6,1.2-1.2,2.1-2c1.5-1.2,2.2-2.2,2.4-3.3c0-0.2,0.1-0.4,0.1-0.6c1.5,0.6,3,0.8,4.6,0.8c0.7,0,1.4,0,2.2-0.1
		c0.2,0,0.4-0.1,0.5-0.3c0.1-0.2,0.2-0.3,0.2-0.5c0-0.2-0.1-0.4-0.3-0.5c-0.2-0.1-0.4-0.2-0.5-0.2c-2.7,0.3-4.6,0.1-6.8-0.8
		c-0.1-0.6-0.3-1.3-0.7-2.2l0-0.1c-0.7-1.8-1-2.7-0.8-4.6c0.1-0.7-0.4-1-0.6-1.1c0,0,0,0-0.1,0c-2.2-1.2-3.6-3.5-3.6-6v-2.3h1.7v2.3
		c0,1.6,0.7,3.1,2,4.1l0,0c0.4,0.3,0.7,0.5,1,0.4c0.4-0.1,0.6-0.3,0.7-0.5c0-0.1,0.1-0.1,0.1-0.2c0.4-0.5,0.9-0.9,1.4-1.4
		c2.9-2.2,8-3.3,11.5-0.8c0.3,0.2,0.8,0.1,1-0.2c0.2-0.3,0.1-0.8-0.2-1c-2-1.4-4.5-1.9-7.1-1.6c-2.2,0.3-4.4,1.2-6.1,2.4
		c-0.7,0.5-1.2,1-1.7,1.6c-0.9-0.7-1.4-1.8-1.4-2.9v-2.8c0-0.1,0-0.4-0.3-0.7c-0.3-0.3-0.6-0.2-0.7-0.2h-2.8c-0.5,0-0.9,0.4-0.9,0.9
		v2.8c0,3,1.6,5.8,4.2,7.3c-0.3,2.1,0.2,3.2,0.9,5l0,0.1c0.4,0.9,0.6,1.6,0.7,2.2c0,0.1,0,0.1,0,0.2c0.2,1.4-0.3,2.3-2,3.7
		c-0.9,0.8-1.7,1.4-2.2,2.1c-0.8,0.8-1.3,1.7-1.6,2.6c-0.2,0.5-0.3,0.9-0.3,1.4c0,0,0,0,0,0c-2.1,0.1-4.1,1-5.6,2.6
		c-0.6,0.6-1.1,1.4-1.5,2.3c-0.2,0.4,0,0.7,0.1,0.7l3.1,1.8c0.1,0,0.2,0.1,0.4,0.1c0.2,0,0.4-0.1,0.5-0.3c0.7-1.5,1.9-2.4,3.5-2.5
		c0.7-0.1,1.4,0.1,1.9,0.4c2.2,1.2,4,1.6,6.5,2c2.8,0.4,5.5,0.1,8-0.9c2.3-0.9,4.4-2.4,6.1-4.4c1.9-2.3,3.3-5.1,3.9-8.1
		C47.5,33.8,47.3,30.4,46.3,27.1z"/>
</g>
</svg>
