<?xml version="1.0" encoding="utf-8"?>
<!-- Generator: Adobe Illustrator 26.4.1, SVG Export Plug-In . SVG Version: 6.00 Build 0)  -->
<svg version="1.1" id="Capa_1" xmlns="http://www.w3.org/2000/svg" xmlns:xlink="http://www.w3.org/1999/xlink" x="0px" y="0px"
	 viewBox="0 0 55 60" style="enable-background:new 0 0 55 60;" xml:space="preserve">
<style type="text/css">
	.st0{fill:#62DBFB;}
	.st1{fill:#9E533B;}
	.st2{fill:#BC6B58;}
	.st3{fill:#FF0363;}
	.st4{fill:#FE3D97;}
	.st5{fill:#FEF156;}
	.st6{fill:#D18171;}
	.st7{fill:#E2978A;}
	.st8{fill:#FD77A6;}
</style>
<g>
	<path class="st0" d="M50.1,48.5L32.4,58.7c-3,1.7-6.7,1.7-9.7,0L4.9,48.5c-3-1.7-4.9-4.9-4.9-8.3V19.8c0-3.4,1.8-6.6,4.9-8.3
		L22.6,1.3c3-1.7,6.7-1.7,9.7,0l17.8,10.2c3,1.7,4.9,4.9,4.9,8.3v20.4C55,43.6,53.2,46.8,50.1,48.5z"/>
	<path class="st1" d="M0.1,41.3l6.9,8.5l15.7,9c1,0.6,2,0.9,3.1,1.1c0.7,0.1,1.4,0.1,2.2,0.2c1.5-0.1,3.1-0.5,4.4-1.3l0.6-0.4
		c-1-0.9-2.3-1.6-4.2-1.9c-10-1.8-6.4-10-6.4-10l-1.2-17.3c-0.6,0.6-1.4,1.2-2.3,1.6C13.7,33,5.1,32.3,0,31.5v8.7
		C0,40.5,0,40.9,0.1,41.3z"/>
	<path class="st2" d="M40.9,39.8C34.2,42.9,33,37,33,37l-11.5-8.2c-0.2,0.2-0.3,0.4-0.5,0.5l1.2,17.1c-0.2,0.4-1.4,3.6,0.1,6.3
		c1.1,2,3.2,3.3,6.5,3.8c1.7,0.3,3,0.9,4.1,1.8l15.1-8.6c0.5-1.1,0.8-2.2,1.1-3.3c0.2-0.9,0.3-1.8,0.4-2.7
		C44.4,43.3,46.6,37.1,40.9,39.8z"/>
	<path class="st3" d="M37.7,2.8c-0.4,0.2-1-0.1-1-0.7c0-0.3,0.1-0.7,0.2-1.2c0.2-0.5-0.3-1-0.8-0.9c-2,0.5-5.5,1.9-4.3,5.8
		c0.4,1.5,1.3,2.1,2.3,2.3c0.9-0.9,2.3-1.8,4.5-1.9C36.2,5.4,37.3,3.4,37.7,2.8z"/>
	<path class="st4" d="M44.3,4.8c-1.5-1.2-2.7-1.4-2.9-2.1c-0.2-0.8-1-1.2-1.8-1.1c-0.6,0.1-1.3,0.4-1.7,1c-0.1,0.2-0.3,0.3-0.5,0.3
		c-0.4,0.7-1.3,2.6,1,3.4c0,0,0,0,0,0c0.2,0,0.5,0,0.7,0c2.7,0,4.1,0.9,5,1.9C44.8,7.5,46.1,6.2,44.3,4.8L44.3,4.8z"/>
	<path class="st5" d="M44.7,14.2l0.4,0.2l3.5,0.7c0.7,0.1,1.3-0.6,1.1-1.3c-1.1-2.8-3.7-3.1-3.7-3.1h-0.2
		C45.6,10.7,43.6,12,44.7,14.2L44.7,14.2z"/>
	<path class="st6" d="M47.3,30.8C47.3,30.8,47.4,30.8,47.3,30.8c0.8-0.1,1.2-0.8,0.9-1.4c-0.4-0.8-1-2-2.1-3.4
		c-1.6,1.7-4.3,2-6.3,0.7c-1.9-1.2-2.9-3.2-3-5.7c-0.1-3.3,1.8-5.2,4.7-5.7c0.3-0.2,0.7-0.3,1.2-0.3c0.2,0,0.4,0,0.6,0
		c-0.2-0.1-0.4-0.1-0.5-0.1c-0.9-0.2-1.5-0.5-1.8-1.1c-0.5-0.9,0-2,0-2l0,0l0,0c0.1-0.7-0.3-2.3-2.4-2.8c-0.6-0.1-1-0.4-1.1-0.8
		c-0.3-0.8,0.5-2,0.5-2L38.1,6c-2.5,0.3-3.9,1.4-4.6,2.5c-0.8,1.1-1.7,2-2.9,2.7c-7,4.5-5.3,13.3-9.3,17.8L33,37.2
		c0,0,1.3,6,7.9,2.8c5.7-2.7,3.5,3.5,8.5,3.9c0.5-5.5-1.4-9.5-2.8-11.6C46.1,31.7,46.5,30.8,47.3,30.8L47.3,30.8z"/>
	<path class="st7" d="M37.9,6c0,0-1.8,2.4,0.7,3c2.5,0.6,2.2,2.6,2.2,2.6s-1.2,2.8,1.9,3.3c1.4-0.1,2.3-0.6,2.3-0.6
		c-1.3-2.3,0.8-3.7,0.8-3.7c-1-1-1.3-4.7-6.7-4.7C38.7,5.9,38.3,6,37.9,6L37.9,6z"/>
	<path class="st3" d="M40.3,21.2c0.9-0.9,2-1.1,2.9-1.1c-2.5-2.1-0.4-5.2-0.4-5.2s-6.2,0-6.1,6c0.1,3.1,1.5,4.8,3.1,5.8
		c0.3,0.2,0.7,0.4,1,0.5C38.6,25.6,38.6,22.9,40.3,21.2L40.3,21.2z"/>
	<path class="st1" d="M40.7,12.1c-0.5,0-0.9-0.4-0.9-0.9c0-0.4-0.3-0.7-0.7-0.7c-0.4,0-0.7,0.2-0.8,0.6c-0.1,0.5-0.7,0.8-1.2,0.7
		c-0.5-0.1-0.8-0.6-0.7-1.1c0.3-1.3,1.5-2.1,2.9-1.9c1.3,0.1,2.3,1.2,2.4,2.5C41.6,11.7,41.2,12.1,40.7,12.1
		C40.7,12.1,40.7,12.1,40.7,12.1L40.7,12.1z"/>
	<path class="st7" d="M36.9,37.6c0-2.7-1.1-5-2.6-7c-3.3-4.2-9.3-5.1-13.8-2.2c-0.6,0.3-1.2,0.7-1.9,1c-0.7,2.3-1,6.4,4.3,9
		c7.7,3.7-4.6,8.5,0.3,15.3C30.1,52.5,36.9,46,36.9,37.6z"/>
	<path class="st4" d="M47.1,25.1c0.8-1.4,0.8-2.9-1.8-3.7c-1-0.4-1.8-0.8-2.3-1.3c-0.9-0.1-2,0.1-3,1.1c-1.7,1.7-1.6,4.4,0.6,6.2
		C43,28.2,45.8,27.4,47.1,25.1L47.1,25.1z"/>
	<ellipse class="st8" cx="45.7" cy="23.6" rx="2" ry="2"/>
	<path class="st6" d="M22.9,38.2c-2.3-1.1-3.8-2.6-4.3-4.5c-0.5-1.7-0.2-3.3,0.1-4.5c-0.8,0.3-1.8,0.6-2.9,0.8c0,0-0.1,0-0.1,0
		c-2,1.4-2.5,2.7-2.4,3.7c0,0.7-0.4,1.3-1,1.4c-2.3,0.7-3.4,1.9-3.1,3.3C9.2,39.1,9,39.7,8.4,40c-1.2,0.7-3.1,2.3-2,5.1
		c0.2,0.5,0.1,1-0.2,1.4c-0.3,0.3-1.2,1.3-1.6,1.8c0.1,0,0.1,0.1,0.2,0.1l6.3,3.6c3,0.8,6.2,1.8,9.7,1.8c0.8,0,1.7-0.1,2.5-0.2
		c0,0,0,0,0-0.1c-2.4-3.3-0.7-6,0.8-8.5c0.9-1.6,1.8-3.1,1.4-4.5C25.2,39.8,24.4,39,22.9,38.2z"/>
	<path class="st2" d="M7.8,34.5c-0.1,0.7-0.6,1.3-1.3,1.4C5,36.1,3,36.7,3,38.4c0,0.7-0.4,1.3-1,1.5c-0.8,0-1.4,0.1-2,0.3
		c0,3.4,1.8,6.6,4.9,8.3L5.8,49c0.2-1,0.5-2.2,0.6-2.4c0.4-0.4,0.5-1.1,0.3-1.6c-1.1-2.6,0.6-4.2,1.9-4.9c0.6-0.3,0.9-1,0.8-1.7
		c-0.3-1.7,1.6-2.7,3-3.1c0.7-0.2,1.2-0.9,1.1-1.6c0-0.9,0.4-2.3,2.7-3.7c-0.1,0-0.2,0-0.3,0.1C9.3,31,7.9,33.1,7.8,34.5z"/>
</g>
</svg>
