<?xml version="1.0" encoding="utf-8"?>
<!-- Generator: Adobe Illustrator 26.4.1, SVG Export Plug-In . SVG Version: 6.00 Build 0)  -->
<svg version="1.1" id="Capa_1" xmlns="http://www.w3.org/2000/svg" xmlns:xlink="http://www.w3.org/1999/xlink" x="0px" y="0px"
	 viewBox="0 0 55 60" style="enable-background:new 0 0 55 60;" xml:space="preserve">
<style type="text/css">
	.st0{fill:#FAD24D;}
	.st1{fill:#FF5B62;}
	.st2{fill:#ED4C54;}
	.st3{fill:#FF878E;}
</style>
<g>
	<path class="st0" d="M50.1,48.5L32.4,58.7c-3,1.7-6.7,1.7-9.7,0L4.8,48.5c-3-1.7-4.8-4.9-4.8-8.3V19.8c0-3.4,1.8-6.6,4.8-8.3
		L22.6,1.3c3-1.7,6.7-1.7,9.7,0l17.8,10.2c3,1.7,4.9,4.9,4.9,8.3v20.4C55,43.6,53.2,46.8,50.1,48.5z"/>
	<g>
		<path class="st1" d="M21.8,7.7c-0.3,2.4-0.7,8.8,2.8,13.5c1.3,1.8,2.7,1.9,3.2,2.6c6.8,11.1-5.2,14.9-5.9,12.5
			c-1.3-4.3-10.6-7.2-17.6,0.1c-7,7.2-2.2,14.6-2.2,14.6l5.8-3.7c0,0-3.3-5.5,1.8-8.2c5.1-2.7,6.4-0.8,5.9,1.5
			c-0.5,2.2-0.6,9.5,7.3,10.6c26.9,3.8,34.3-37.5,16.5-37.6c-4.9,0-8.6,4.3-8.9,4.3c-2-0.2-3.6-7.8-2.5-10
			C28.4,6.9,23.1,5.8,21.8,7.7L21.8,7.7z"/>
		<path class="st2" d="M6,50.9c-1.6,1-3.4,1-4,0c-0.6-1,0.3-2.5,1.9-3.5c1.6-1,3.4-1,4,0C8.5,48.4,7.6,49.9,6,50.9z"/>
		<path class="st3" d="M8.4,33.4c-1.4,0.7-2.8,1.7-4.1,3.1c-7,7.2-2.2,14.6-2.2,14.6l0.3-0.2l-0.3-1.8c0,0-1.2-2-0.9-5.5
			C1.4,40.4,5.2,35.4,8.4,33.4z"/>
		<path class="st2" d="M2.5,51.4c-0.2-0.1-0.4-0.3-0.5-0.5c-0.3-0.5-0.2-1.1,0.2-1.8L2.5,51.4z"/>
		<path class="st3" d="M26.6,38.5c-2.3,1.1-4.8,1.1-6.1-0.2l0,0c0,0-2.5-1.4-3.3-1.3c-0.1,0-0.2,0.1-0.3,0.1
			c0.1,0.1,0.1,0.1,0.2,0.2c0.8,1.1,0.9,2.6,0.6,3.9c-0.3,1.3-0.1,3.2,0.4,4.4c0.9,2.2,2.7,3.2,5,3.5c9.7,1.4,17.3-3.7,21.3-12.3
			C36.6,40,32.2,35.5,26.6,38.5L26.6,38.5z"/>
		<path class="st2" d="M16.3,46.3c0.6,1.6,1.7,3.2,3.7,4.2c0.8,0.4,1.7,0.6,2.8,0.8c23.5,3.3,32.1-27.8,22-35.7
			c2.3,2.6,5,13.2,0.6,21.7c-4.6,8.9-10.6,12.7-17.1,13.3C21.9,51.2,17.6,49.7,16.3,46.3L16.3,46.3z"/>
		<g>
			<path class="st3" d="M21.9,7.6c-0.8,11,3.5,13.6,1.8,10.9c-1.6-2.7-1.6-8.9-1.2-11.4C22.3,7.2,22.1,7.4,21.9,7.6z"/>
			<path class="st3" d="M39.9,14c7.4-0.1,7.4,9.6,7,14.2C46.9,14,40.7,14.5,39.9,14z"/>
		</g>
		<g>
			<path class="st2" d="M27.4,7.2c-0.7,3.3,0,9.8,2.5,12c0,0,0.2-0.9,1.2-1.9c-0.4,0.3-0.7,0.6-0.7,0.6c-2-0.2-3.6-7.8-2.5-10
				C28,7.7,27.8,7.5,27.4,7.2z"/>
			<path class="st2" d="M15.7,39.9L15.7,39.9c1.6-5.1-11-1.8-8.7,4.9l0,0c-0.3-1.8-0.1-4.1,2.7-5.6C14.2,36.9,15.8,38.1,15.7,39.9z"
				/>
		</g>
	</g>
</g>
</svg>
