<?xml version="1.0" encoding="utf-8"?>
<!-- Generator: Adobe Illustrator 26.4.1, SVG Export Plug-In . SVG Version: 6.00 Build 0)  -->
<svg version="1.1" id="Capa_1" xmlns="http://www.w3.org/2000/svg" xmlns:xlink="http://www.w3.org/1999/xlink" x="0px" y="0px"
	 viewBox="0 0 60 60" style="enable-background:new 0 0 60 60;" xml:space="preserve">
<style type="text/css">
	.st0{fill:#1A1A1A;}
</style>
<g>
	<path class="st0" d="M54.2,44V28.8c0-0.1,0-0.1,0-0.2c2.9-1.1,4.8-6,4.8-13.1c0-0.7-0.5-1.2-1.2-1.2c-5.9,0-10.2,3.4-10.8,8.5H36
		V10.8l2.4-8.3c0.1-0.4,0-0.8-0.2-1.1C38,1.2,37.6,1,37.2,1h-4.8C27.7,1,24,4.8,24,9.5h-0.8l2-6.9c0.1-0.4,0-0.8-0.2-1.1
		C24.7,1.2,24.3,1,24,1h-4.8c-4.7,0-8.5,3.8-8.5,8.5c-2,0-3.6,1.6-3.6,3.6v5c-2.1,0.6-3.6,2.5-3.6,4.7v4.8c0,0.1,0,0.1,0,0.2
		C2,28.3,1,29.6,1,31.2v7.2c0,2,1.6,3.6,3.6,3.6h6v1.2c0,3.3,2.7,6,6,6H32c-1.1,1.3-1.1,3.2,0.1,4.4l4.3,4.3
		c0.6,0.6,1.4,0.9,2.3,0.9c0.9,0,1.7-0.3,2.3-0.9l3.4-3.4l2.3,2.3c0.7,0.7,1.6,1.1,2.6,1.1h0c1,0,1.9-0.4,2.6-1.1l6.7-6.7
		c0.5-0.5,0.5-1.2,0-1.7L54.2,44z M56.6,16.8c-0.2,5.6-1.7,8.7-3,9.4c-0.8-1.7-2.3-2.9-4.2-3.3C49.9,19.1,53.1,17.1,56.6,16.8z
		 M19.1,3.4h3.2l-1.7,6h-7.5C13.1,6.1,15.8,3.4,19.1,3.4z M5.8,22.8c0-1.3,1.1-2.4,2.4-2.4c0.7,0,1.2-0.5,1.2-1.2v-1.2v-4.8
		c0-0.7,0.5-1.2,1.2-1.2h14.5c0.7,0,1.2-0.5,1.2-1.2V9.5c0-3.3,2.7-6,6-6h3.2l-2,6.9c0,0.1,0,0.2,0,0.3v16.9H20.3V24
		c0-0.7-0.5-1.2-1.2-1.2h-1.9l1.6-1.6c0.3-0.3,0.4-0.9,0.3-1.3c-0.2-0.5-0.6-0.7-1.1-0.7h-4.8c-0.5,0-0.9,0.3-1.1,0.7
		c-0.2,0.5-0.1,1,0.3,1.3l1.6,1.6h-1.9c-0.7,0-1.2,0.5-1.2,1.2v3.6c0,1.5,0.7,2.7,1.7,3.6H9.5c-1.7,0-3.1-1.1-3.5-2.8
		c-0.1-0.3-0.1-0.6-0.1-0.9V22.8z M16.7,27.6v-2.4h1.2v2.4c0,1.3-1.1,2.4-2.4,2.4s-2.4-1.1-2.4-2.4v-2.4h1.2v2.4H16.7z M4.6,39.7
		c-0.7,0-1.2-0.5-1.2-1.2v-7.2c0-0.4,0.2-0.8,0.6-1c1,2.1,3.1,3.4,5.4,3.4h1.2v6H4.6z M39.3,56.3c-0.3,0.3-0.8,0.3-1.2,0L33.9,52
		c-0.3-0.3-0.3-0.8,0-1.2l1.5-1.5h3.9l3.5,3.6L39.3,56.3z M50.2,55.2c-0.2,0.2-0.5,0.4-0.8,0.4c-0.3,0-0.6-0.1-0.8-0.4l-7.8-7.9
		c-0.2-0.2-0.5-0.4-0.9-0.4H16.7c-2,0-3.6-1.6-3.6-3.6v-9.7h3.6v4.8c0,2,1.6,3.6,3.6,3.6h14.5v-2.4H20.3c-0.7,0-1.2-0.5-1.2-1.2
		v-7.2c0-0.2,0.1-0.5,0.2-0.7c0.2-0.3,0.6-0.5,1-0.5H36v-1.2v-1.2v-2.4h12.1c1.7,0,3.1,1.1,3.5,2.8c0.1,0.3,0.1,0.6,0.1,0.9v15.7
		c0,0.3-1.3,1.2-3.6,1.2v2.4c2.2,0,4.1-0.6,5.1-1.6l2.8,2.8L50.2,55.2z"/>
	<path class="st0" d="M22.8,16.7c0.7,0,1.2,0.5,1.2,1.2h2.4c0-2-1.6-3.6-3.6-3.6s-3.6,1.6-3.6,3.6h2.4
		C21.5,17.2,22.1,16.7,22.8,16.7z"/>
	<path class="st0" d="M13.1,16.7c0.7,0,1.2,0.5,1.2,1.2h2.4c0-2-1.6-3.6-3.6-3.6c-2,0-3.6,1.6-3.6,3.6h2.4
		C11.9,17.2,12.4,16.7,13.1,16.7z"/>
	<path class="st0" d="M32.4,7V4.6c-2.7,0-4.8,2.7-4.8,6H30C30,8.7,31.1,7,32.4,7z"/>
	<path class="st0" d="M9.5,45.7H7c0,4.7,4.3,8.5,9.7,8.5v-2.4C12.7,51.7,9.5,49,9.5,45.7z"/>
	<path class="st0" d="M56.6,11.9V9.5c-4.8,0-8.5,2.1-8.5,4.8h2.4C50.5,13.3,52.9,11.9,56.6,11.9z"/>
</g>
</svg>
