<?xml version="1.0" encoding="utf-8"?>
<!-- Generator: Adobe Illustrator 26.4.1, SVG Export Plug-In . SVG Version: 6.00 Build 0)  -->
<svg version="1.1" id="Capa_1" xmlns="http://www.w3.org/2000/svg" xmlns:xlink="http://www.w3.org/1999/xlink" x="0px" y="0px"
	 viewBox="0 0 60 60" style="enable-background:new 0 0 60 60;" xml:space="preserve">
<style type="text/css">
	.st0{fill:#1A1A1A;}
</style>
<path class="st0" d="M56.5,56.6c1.6-1.6,2.5-3.7,2.5-5.9c0-2.2-0.9-4.3-2.5-5.9c-2.7-2.7-6.9-3.2-10.1-1.3l-0.6,0.3l-4.1-4.1
	l0.4-0.6c1.5-2,2.5-4.4,2.9-6.9l0.1-0.7h5.4c0.8,0,1.5-0.7,1.5-1.5s-0.7-1.5-1.5-1.5h-5.4l-0.1-0.7c-0.4-2.5-1.4-4.9-2.9-6.9
	l-0.4-0.6l3.4-3.4l0.5,0.3c2.3,1.1,5.1,0.6,6.9-1.2c2.4-2.4,2.4-6.2,0-8.6c-1.1-1.1-2.7-1.8-4.3-1.8c-1.6,0-3.1,0.6-4.3,1.8
	c-1.8,1.8-2.3,4.6-1.2,6.9l0.3,0.5l-3.4,3.4l-0.6-0.4c-2-1.5-4.4-2.5-6.9-2.9l-0.7-0.1v-3.1c0-0.8-0.7-1.5-1.5-1.5
	c-0.8,0-1.5,0.7-1.5,1.5v3.1l-0.7,0.1c-2.5,0.4-4.9,1.4-6.9,2.9l-0.6,0.4l-4.1-4.1l0.3-0.6c1.9-3.3,1.4-7.4-1.3-10.1
	C13.7,1.9,11.6,1,9.4,1C7.1,1,5,1.9,3.5,3.4C1.9,5,1,7.1,1,9.4c0,2.2,0.9,4.3,2.5,5.9c2.7,2.7,6.9,3.2,10.1,1.3l0.6-0.3l4.1,4.1
	l-0.4,0.6c-1.5,2-2.5,4.4-2.9,6.9l-0.1,0.7H9.4c-0.8,0-1.5,0.7-1.5,1.5s0.7,1.5,1.5,1.5h5.4l0.1,0.7c0.4,2.5,1.4,4.9,2.9,6.9
	l0.4,0.6l-3.4,3.4l-0.5-0.3c-0.8-0.4-1.7-0.6-2.6-0.6c-3.4,0-6.1,2.7-6.1,6.1c0,3.4,2.7,6.1,6.1,6.1s6.1-2.7,6.1-6.1
	c0-0.9-0.2-1.8-0.6-2.6l-0.3-0.5l3.4-3.4l0.6,0.4c2,1.5,4.4,2.5,6.9,2.9l0.7,0.1v3.2c0,0.8,0.7,1.5,1.5,1.5c0.8,0,1.5-0.7,1.5-1.5
	v-3.1l0.7-0.1c2.5-0.4,4.9-1.4,6.9-2.9l0.6-0.4l4.1,4.1l-0.3,0.6c-1.9,3.3-1.4,7.4,1.3,10.1C48,59.8,53.3,59.8,56.5,56.6z
	 M46.8,46.8c2-2,5.6-2,7.6,0c1,1,1.6,2.4,1.6,3.8c0,1.4-0.6,2.8-1.6,3.8S52.1,56,50.6,56c-1.4,0-2.8-0.6-3.8-1.6s-1.6-2.4-1.6-3.8
	C45.2,49.2,45.8,47.8,46.8,46.8z M46.2,9.5c0.6-0.6,1.4-0.9,2.2-0.9c0,0,0,0,0,0c0.8,0,1.6,0.3,2.2,0.9c0.6,0.6,0.9,1.4,0.9,2.2
	s-0.3,1.6-0.9,2.2c-0.6,0.6-1.4,0.9-2.2,0.9c-0.8,0-1.6-0.3-2.2-0.9c-0.6-0.6-0.9-1.4-0.9-2.2C45.2,10.8,45.6,10.1,46.2,9.5z
	 M13.2,13.2c-1,1-2.4,1.6-3.8,1.6s-2.8-0.6-3.8-1.6c-2.1-2.1-2.1-5.5,0-7.6c2-2,5.6-2,7.6,0C15.3,7.7,15.3,11.1,13.2,13.2z
	 M11.7,51.4c-1.7,0-3.1-1.4-3.1-3.1c0-1.7,1.4-3.1,3.1-3.1s3.1,1.4,3.1,3.1C14.8,50,13.4,51.4,11.7,51.4z M30,42.3
	c-6.8,0-12.3-5.5-12.3-12.3S23.2,17.7,30,17.7c6.8,0,12.3,5.5,12.3,12.3S36.8,42.3,30,42.3z"/>
</svg>
