<?xml version="1.0" encoding="utf-8"?>
<!-- Generator: Adobe Illustrator 26.4.1, SVG Export Plug-In . SVG Version: 6.00 Build 0)  -->
<svg version="1.1" id="Capa_1" xmlns="http://www.w3.org/2000/svg" xmlns:xlink="http://www.w3.org/1999/xlink" x="0px" y="0px"
	 viewBox="0 0 55 60" style="enable-background:new 0 0 55 60;" xml:space="preserve">
<style type="text/css">
	.st0{fill:#42DB8F;}
	.st1{fill:#2E3192;}
	.st2{fill:#0071BC;}
	.st3{fill:#FFFFFF;}
	.st4{fill:#00FFFF;}
	.st5{fill:#29ABE2;}
</style>
<g>
	<path class="st0" d="M50.1,48.5L32.4,58.7c-3,1.7-6.7,1.7-9.7,0L4.9,48.5c-3-1.7-4.9-4.9-4.9-8.3V19.8c0-3.4,1.8-6.6,4.9-8.3
		L22.6,1.3c3-1.7,6.7-1.7,9.7,0l17.8,10.2c3,1.7,4.9,4.9,4.9,8.3v20.4C55,43.6,53.2,46.8,50.1,48.5z"/>
	<path class="st1" d="M43.8,15.3c-5.4,0-10.6-1.8-14.9-5l-1.5-1.1L26,10.2c-4.3,3.3-9.5,5-14.9,5H9.6v12.6c0,9.4,5,18.2,13.1,23
		l4.8,2.9l4.8-2.9c8.1-4.9,13.1-13.6,13.1-23V15.3H43.8z"/>
	<path class="st2" d="M42,18.3c-4.9,0-9.6-1.6-13.4-4.6L27.5,13l-1.1,0.8c-3.8,3-8.6,4.6-13.4,4.6h-0.3V28c0,8,4,15.4,10.6,19.9
		l4.2,2.8l4.2-2.8C38.3,43.4,42.3,36,42.3,28v-9.6H42z"/>
	<path class="st3" d="M36,29.1h-6.2V23h-4.7v6.2h-6.2v4.6h6.2v6.2h4.7v-6.2H36V29.1z"/>
	<path class="st4" d="M53.4,48.6v-1.5h-1.6c-0.1-0.5-0.3-0.9-0.6-1.4l1.2-1.2l-1.1-1.1l-1.2,1.2c-0.4-0.3-0.9-0.5-1.4-0.6v-1.6h-1.6
		V44c-0.5,0.1-1,0.3-1.4,0.6l-1.2-1.2l-1.1,1.1l1.2,1.2c-0.3,0.4-0.5,0.9-0.6,1.4h-1.6v1.5h1.6c0.1,0.5,0.3,0.9,0.6,1.4l-1.2,1.2
		l1.1,1.1l1.2-1.2c0.4,0.3,0.9,0.5,1.4,0.6v1.6h1.6v-1.6c0.5-0.1,1-0.3,1.4-0.6l1.2,1.2l1.1-1.1l-1.2-1.2c0.3-0.4,0.5-0.9,0.6-1.4
		H53.4z"/>
	<path class="st4" d="M38.7,50.1h1.6v1.5h-1.6V50.1z"/>
	<path class="st4" d="M34.8,52.4h1.6V54h-1.6V52.4z"/>
	<path class="st5" d="M48,46.3h1.6v1.5H48V46.3z"/>
	<path class="st4" d="M53,36.9v-1.5h-0.9c0-0.1-0.1-0.2-0.1-0.2l0.8-0.8l-1.1-1.1L50.9,34c-0.1,0-0.2-0.1-0.2-0.1V33h-1.6v0.9
		c-0.1,0-0.2,0.1-0.2,0.1l-0.8-0.8L47,34.3l0.8,0.8c0,0.1-0.1,0.1-0.1,0.2h-0.9v1.5h0.9c0,0.1,0.1,0.2,0.1,0.2L47,37.8l1.1,1.1
		l0.8-0.8c0.1,0,0.2,0.1,0.2,0.1v0.9h1.6v-0.9c0.1,0,0.2-0.1,0.2-0.1l0.8,0.8l1.1-1.1L52,37.1c0-0.1,0.1-0.1,0.1-0.2L53,36.9z"/>
	<g>
		<path class="st4" d="M42.6,29.1c-0.9,0-1.6-0.7-1.6-1.5v-1.7c-1.4-0.2-2.6-0.7-3.8-1.5L36,25.7c-0.6,0.6-1.7,0.6-2.3,0
			C33,25,33,24,33.6,23.4c0,0,0,0,0,0l1.3-1.3c-0.8-1.1-1.3-2.4-1.5-3.7l-1.7,0c-0.9,0-1.6-0.7-1.6-1.5c0,0,0,0,0,0
			c0-0.9,0.7-1.5,1.6-1.5l1.7,0c0.2-1.3,0.8-2.6,1.5-3.7l-1.3-1.3c-0.6-0.6-0.6-1.7,0-2.3c0.6-0.6,1.7-0.6,2.3,0l1.2,1.2
			c0.1,0.1,0.2,0.1,0.3,0c1.1-0.7,2.3-1.2,3.6-1.4L41,6c0-0.9,0.7-1.5,1.6-1.5c0.9,0,1.6,0.7,1.6,1.5l0,1.7c1.4,0.2,2.6,0.7,3.8,1.5
			l1.3-1.3c0.6-0.6,1.7-0.6,2.3,0c0.6,0.6,0.6,1.7,0,2.3l-1.3,1.3c0.8,1.1,1.3,2.4,1.5,3.7l1.7,0c0.9,0,1.6,0.7,1.6,1.5
			c0,0.9-0.7,1.5-1.6,1.5c0,0,0,0,0,0l-1.7,0c-0.2,1.3-0.8,2.6-1.5,3.7l1.3,1.3c0.6,0.6,0.6,1.7,0,2.3c-0.6,0.6-1.7,0.6-2.3,0
			l-1.3-1.3c-1.1,0.8-2.4,1.3-3.8,1.5v1.7C44.1,28.5,43.4,29.1,42.6,29.1L42.6,29.1z"/>
		<g>
			<ellipse class="st5" cx="47.2" cy="16.8" rx="1.6" ry="1.5"/>
			<ellipse class="st5" cx="42.6" cy="12.2" rx="1.6" ry="1.5"/>
			<ellipse class="st5" cx="37.9" cy="16.8" rx="1.6" ry="1.5"/>
			<ellipse class="st5" cx="42.6" cy="21.4" rx="1.6" ry="1.5"/>
		</g>
	</g>
</g>
</svg>
