<?xml version="1.0" encoding="utf-8"?>
<!-- Generator: Adobe Illustrator 26.4.1, SVG Export Plug-In . SVG Version: 6.00 Build 0)  -->
<svg version="1.1" id="Capa_1" xmlns="http://www.w3.org/2000/svg" xmlns:xlink="http://www.w3.org/1999/xlink" x="0px" y="0px"
	 viewBox="0 0 55 60" style="enable-background:new 0 0 55 60;" xml:space="preserve">
<style type="text/css">
	.st0{fill:#37A18E;}
	.st1{fill:#FFAB5B;}
	.st2{fill:#FF905F;}
	.st3{fill:#FFD28E;}
	.st4{fill:#FFBF85;}
</style>
<g>
	<path class="st0" d="M50.1,48.5L32.4,58.7c-3,1.7-6.7,1.7-9.7,0L4.9,48.5c-3-1.7-4.9-4.9-4.9-8.3V19.8c0-3.4,1.8-6.6,4.9-8.3
		L22.6,1.3c3-1.7,6.7-1.7,9.7,0l17.8,10.2c3,1.7,4.9,4.9,4.9,8.3v20.4C55,43.6,53.2,46.8,50.1,48.5z"/>
	<g>
		<path class="st1" d="M49.3,15.9c-0.1-0.5-0.2-1-0.3-1.5c-0.4-1.7-1.1-3.3-2.3-4.7c-1-1.2-2.2-2.2-3.7-3.1c-0.1,0-0.1-0.1-0.2-0.1
			c-0.6-0.3-1.2-0.6-1.9-0.9c-0.1,0-0.2-0.1-0.3-0.1c-3.4-1.3-7.7-1.9-13.2-1.9c-0.5,0-1,0-1.5,0c-4.7,0.1-8.5,0.7-11.5,1.8
			c0,0,0,0,0,0c-0.1,0-0.2,0.1-0.3,0.1h0c-0.7,0.3-1.3,0.6-1.9,0.9c-0.1,0-0.1,0.1-0.2,0.1c-1.5,0.8-2.7,1.9-3.7,3.1
			c-1.1,1.4-1.8,3-2.3,4.7c-0.1,0.5-0.2,1-0.3,1.5c-0.4,2.9,0,6.1,0.6,9.4c0.1,0.6,0.2,1.1,0.3,1.7c0.3,1.5,0.7,3.1,1.1,4.6
			c0.4,1.8,0.9,3.6,1.2,5.4c0.1,0.6,0.2,1.2,0.3,1.8c0.3,1.6,0.4,3.1,0.4,4.6c0,0.7-0.1,1.7-0.2,2.6c0,0.2-0.1,0.5-0.1,0.7
			c-0.1,0.5-0.1,1-0.2,1.6c-0.2,2.2,0,4.5,1.4,6.1c1.1,1.2,2.7,1.9,4.9,2c0.4,0,0.7,0,1.1,0c3.2,0,5.4-0.7,6.5-2.2
			c1.1-1.5,1.1-3.4,0.7-5.5c-0.1-0.5-0.2-1-0.3-1.5c-0.2-0.7-0.3-1.3-0.5-2c-0.4-1.4-0.8-2.8-0.9-4.1c-0.1-0.5-0.1-1.1-0.1-1.6
			c0-0.7,0.2-1.4,0.6-1.9c0.7-1,2.3-1.5,4.7-1.5c0,0,0,0,0,0c0.1,0,0.2,0,0.3,0c2.5,0,4.2,0.5,5,1.5c0.4,0.5,0.6,1.2,0.6,1.9
			c0,0.5,0,1-0.1,1.6c-0.2,1.3-0.6,2.7-0.9,4.1c-0.2,0.7-0.4,1.3-0.5,2c-0.1,0.5-0.2,1-0.3,1.5c-0.4,2.1-0.4,4.1,0.7,5.5
			c1,1.3,2.6,2,5,2.2c0.5,0,1,0.1,1.5,0.1c2.8,0,4.8-0.7,6-2.1c1.4-1.6,1.6-3.9,1.4-6.1c0-0.5-0.1-1.1-0.2-1.6v0
			c0-0.2-0.1-0.5-0.1-0.7c-0.1-1-0.2-1.9-0.2-2.6c0-1.4,0.2-3,0.4-4.6c0.1-0.6,0.2-1.2,0.3-1.8c0.3-1.7,0.8-3.5,1.2-5.4
			c0.4-1.5,0.7-3.1,1.1-4.6v0c0.1-0.6,0.2-1.1,0.3-1.7c0,0,0,0,0,0C49.3,22,49.7,18.8,49.3,15.9L49.3,15.9z M31.6,28
			c0,0.5-0.1,1.1-0.2,1.6c-0.6,1.8-2.1,3.1-3.9,3.1c-1.8,0-3.3-1.3-3.9-3.2c-0.1-0.5-0.2-1-0.2-1.5V28c0-2.5,1.9-4.6,4.1-4.6
			C29.8,23.3,31.6,25.4,31.6,28L31.6,28z"/>
		<path class="st2" d="M23.8,48.7c0.4,2.1,0.4,4.1-0.7,5.5c-1.2,1.5-3.3,2.2-6.5,2.2c-0.4,0-0.8,0-1.1,0c14.6-1-6-20,11.8-20.2
			c-2.4,0-3.9,0.6-4.7,1.5c-0.4,0.5-0.6,1.2-0.6,1.9c0,0.5,0,1,0.1,1.6c0.2,1.3,0.6,2.7,0.9,4.1c0.2,0.7,0.4,1.3,0.5,2
			C23.6,47.7,23.7,48.2,23.8,48.7L23.8,48.7z"/>
		<path class="st2" d="M48.7,25.3C48.7,25.3,48.7,25.3,48.7,25.3c-0.1,0.6-0.2,1.2-0.3,1.7v0c-0.3,1.5-0.7,3.1-1.1,4.6
			c-0.4,1.8-0.9,3.6-1.2,5.4c-0.1,0.6-0.2,1.2-0.3,1.8c-0.3,1.6-0.4,3.1-0.4,4.6c0,0.7,0.1,1.7,0.2,2.6c0,0.2,0.1,0.5,0.1,0.7v0
			c0.1,0.5,0.1,1,0.2,1.6c0.2,2.2,0,4.5-1.4,6.1c-1.2,1.4-3.2,2.1-6,2.1c-0.5,0-1,0-1.5-0.1c8.1-0.7,5-8.6,5-12.7
			C42,28.9,58.5,4.3,26,3.6c0.5,0,1,0,1.5,0c5.4,0,9.8,0.6,13.2,1.9c0.1,0,0.2,0.1,0.3,0.1c0.7,0.3,1.3,0.6,1.9,0.9
			c0.1,0,0.1,0.1,0.2,0.1c1.5,0.8,2.7,1.9,3.7,3.1c1.1,1.4,1.9,3,2.3,4.7c0.1,0.5,0.2,1,0.3,1.5C49.7,18.8,49.3,22,48.7,25.3
			L48.7,25.3z"/>
		<g>
			<path class="st3" d="M46.1,36.9c-0.1,0.6-0.2,1.2-0.3,1.8c-0.8,0.3-2,0.7-3.5,1.1c-2.5,0.7-5.8,1.3-9.3,1.3
				c0.1-0.5,0.1-1.1,0.1-1.6c3.6-0.1,7-0.8,9.5-1.5C44.4,37.6,45.7,37.1,46.1,36.9L46.1,36.9z"/>
			<path class="st3" d="M45.9,48.2c-0.6,0.2-1.7,0.5-3.4,0.7c-1.4,0.2-3.1,0.4-5.1,0.4c-1.9,0-4-0.2-6.2-0.6c0.1-0.5,0.2-1,0.3-1.5
				c4.2,0.9,8.2,0.6,10.8,0.2c1.9-0.3,3.2-0.7,3.4-0.7C45.8,47.2,45.8,47.7,45.9,48.2L45.9,48.2z"/>
			<path class="st3" d="M22,41.1c-0.8,0-1.7-0.1-2.5-0.1c-4.6-0.4-8.5-1.6-10.3-2.3c-0.1-0.6-0.2-1.2-0.3-1.8
				c0.8,0.3,5.4,2.1,11,2.6c0.7,0.1,1.4,0.1,2.1,0.1C21.9,40.1,21.9,40.6,22,41.1z"/>
			<path class="st3" d="M23.8,48.7c-1,0.2-2,0.4-3,0.5c-1.1,0.1-2.2,0.2-3.3,0.2c-4.2,0-7.4-0.8-8.4-1.1c0-0.5,0.1-1.1,0.2-1.6
				c0.4,0.1,5.2,1.5,11.2,1c1-0.1,1.9-0.2,3-0.4C23.6,47.7,23.7,48.2,23.8,48.7z"/>
			<path class="st3" d="M48.7,25.3C48.7,25.3,48.7,25.3,48.7,25.3c-0.1,0.6-0.2,1.2-0.3,1.7v0c-1.2,0.3-2.3,0.6-3.5,0.9
				c-4.2,1-8.7,1.5-13.5,1.7c0.2-0.5,0.2-1,0.2-1.6c4.7-0.2,9.4-0.8,13.6-1.8C46.4,25.9,47.6,25.6,48.7,25.3L48.7,25.3z"/>
			<path class="st3" d="M23.6,29.5C15.1,29,8.5,27.5,6.6,27c-0.1-0.6-0.2-1.1-0.3-1.7c0.1,0,7.4,2.1,17.1,2.7V28
				C23.4,28.5,23.5,29,23.6,29.5z"/>
			<path class="st3" d="M49.3,15.9c-1.1,0.3-2.1,0.6-3.2,0.9c-6.2,1.5-12.3,2-17.6,2c-3.4,0-6.5-0.2-9.1-0.5
				c-7.2-0.7-12.3-2-13.7-2.4c0.1-0.5,0.2-1,0.3-1.5c1.1,0.3,6.4,1.7,13.6,2.4c6.8,0.7,16.5,0.9,26.4-1.6c1-0.3,2-0.5,3-0.8
				C49.1,14.9,49.2,15.4,49.3,15.9L49.3,15.9z"/>
			<path class="st3" d="M42.8,6.4c-0.7,0.2-1.4,0.4-2.1,0.6C36.4,8.1,32,8.5,28.2,8.5c-2.3,0-4.5-0.1-6.3-0.3
				c-5.6-0.6-9.4-1.6-9.7-1.7c0.6-0.3,1.3-0.6,1.9-0.9h0c0.1,0,0.2-0.1,0.3-0.1h0c1.7,0.4,4.4,0.9,7.6,1.2
				c4.3,0.4,10.4,0.6,16.6-0.7c0.6-0.1,1.3-0.3,1.9-0.5c0.1,0,0.2,0.1,0.3,0.1C41.6,5.8,42.3,6.1,42.8,6.4z"/>
		</g>
		<g>
			<g>
				<path class="st4" d="M41,5.6c-0.1,0-0.2-0.1-0.3-0.1c-0.6,0.2-1.3,0.3-1.9,0.5c0.8,0.3,1.4,0.7,2.1,1.1c0.7-0.2,1.4-0.4,2.1-0.6
					C42.3,6.1,41.6,5.8,41,5.6L41,5.6z"/>
				<path class="st4" d="M42.4,47.4c0.1,0.5,0.1,1,0.2,1.6c1.6-0.2,2.8-0.6,3.4-0.7c0-0.5-0.1-1.1-0.2-1.6
					C45.5,46.7,44.3,47.1,42.4,47.4z"/>
				<path class="st4" d="M42.3,39.8c1.5-0.4,2.7-0.8,3.5-1.1c0.1-0.6,0.2-1.2,0.3-1.8c-0.4,0.2-1.7,0.7-3.6,1.2
					C42.5,38.7,42.4,39.3,42.3,39.8z"/>
				<path class="st4" d="M44.8,27.9c1.2-0.3,2.4-0.6,3.5-0.9v0c0.1-0.6,0.2-1.1,0.3-1.7c0,0,0,0,0,0c-1.1,0.3-2.3,0.7-3.5,1
					C45.1,26.8,45,27.3,44.8,27.9L44.8,27.9z"/>
				<path class="st4" d="M49.3,15.9c-0.1-0.5-0.2-1-0.3-1.5c-1,0.3-2,0.6-3,0.8c0.1,0.5,0.1,1,0.2,1.6
					C47.2,16.5,48.2,16.2,49.3,15.9z"/>
			</g>
			<path class="st4" d="M22,41.1c-0.8,0-1.7-0.1-2.5-0.1c0-0.5,0.1-1.1,0.3-1.5c0.7,0.1,1.4,0.1,2.1,0.1
				C21.9,40.1,21.9,40.6,22,41.1z"/>
			<path class="st4" d="M23.8,48.7c-1,0.2-2,0.4-3,0.5c-0.1-0.5-0.2-1-0.3-1.5c1-0.1,1.9-0.2,3-0.4C23.6,47.7,23.7,48.2,23.8,48.7z"
				/>
		</g>
	</g>
</g>
</svg>
