<?xml version="1.0" encoding="utf-8"?>
<!-- Generator: Adobe Illustrator 26.4.1, SVG Export Plug-In . SVG Version: 6.00 Build 0)  -->
<svg version="1.1" id="Capa_1" xmlns="http://www.w3.org/2000/svg" xmlns:xlink="http://www.w3.org/1999/xlink" x="0px" y="0px"
	 viewBox="0 0 60 66" style="enable-background:new 0 0 60 66;" xml:space="preserve">
<style type="text/css">
	.st0{fill:#373869;}
</style>
<g>
	<g>
		<g>
			<path class="st0" d="M46.6,24.5C46.6,24.5,46.6,24.5,46.6,24.5c-3.3-6.4-9.7-10.4-16.8-10.4c0,0,0,0,0,0
				c-7.1,0-13.5,3.9-16.8,10.3c0,0,0,0,0,0c-0.2,0.5,0.3,0.5,0.3,0.5h3.5c0.2,0,0.3-0.1,0.4-0.2c2.8-4.3,7.5-6.8,12.6-6.8
				c0,0,0,0,0,0c5.1,0,9.8,2.6,12.6,6.8c0.1,0.2,0.3,0.3,0.5,0.3h3.5C46.4,25,46.8,25,46.6,24.5z"/>
		</g>
		<g>
			<path class="st0" d="M11.3,51.1c0.4,0.4,0.9,0.7,1.4,0.7h12.1c0,0,0,0,0,0c0.5,0,1-0.2,1.3-0.6c0.4-0.4,0.6-0.8,0.6-1.3
				c0-0.8-0.5-1.6-1.3-1.8l0,0c-3.5-1.2-6.5-3.7-8.4-6.9c-0.1-0.2-0.2-0.2-0.4-0.2H13c-0.1,0-0.2,0.1-0.2,0.1c0,0,0,0.2,0,0.2
				c1,2.2,2.3,4.1,4,5.7l0.9,0.9h-4.8c0,0,0,0,0,0c-1,0-1.8,0.7-2,1.5C10.8,50.2,11,50.7,11.3,51.1z"/>
		</g>
		<g>
			<path class="st0" d="M34.1,48.2c-0.5,0.2-0.9,0.5-1.1,0.9s-0.3,0.9-0.1,1.4c0.2,0.8,1,1.4,1.8,1.4h12.1c0,0,0,0,0,0
				c0.5,0,1.1-0.2,1.4-0.7c0.4-0.4,0.5-1,0.4-1.5c-0.1-0.9-1-1.6-2-1.6h-4.8l0.9-0.9c1.7-1.7,3-3.6,4-5.8c0,0,0,0,0,0
				c0.1-0.3-0.2-0.3-0.2-0.3H43c-0.3,0-0.4,0.1-0.5,0.4C40.5,44.5,37.5,47,34.1,48.2z"/>
		</g>
		<g>
			<g>
				<g>
					<path class="st0" d="M14,36.2c-0.9,0.8-1.9,1.3-3.2,1.3c-1.3,0-2.3-0.4-3.2-1.3c-0.9-0.8-1.3-1.9-1.3-3.1
						c0-1.2,0.4-2.3,1.3-3.1s1.9-1.3,3.2-1.3c1.3,0,2.3,0.4,3.2,1.3c0.9,0.8,1.3,1.9,1.3,3.1C15.3,34.3,14.9,35.4,14,36.2z
						 M13.4,33.1c0-0.8-0.2-1.4-0.7-1.9c-0.5-0.5-1.1-0.8-1.8-0.8c-0.7,0-1.3,0.3-1.8,0.8c-0.5,0.5-0.7,1.2-0.7,1.9
						c0,0.8,0.2,1.4,0.7,1.9c0.5,0.5,1.1,0.8,1.8,0.8c0.7,0,1.3-0.3,1.8-0.8C13.1,34.5,13.4,33.8,13.4,33.1z"/>
					<path class="st0" d="M24.5,32l-2.3,4.7h-1.1L18.8,32v5.4h-1.9v-8.5h2.6l2.2,4.7l2.2-4.7h2.6v8.5h-1.9V32z"/>
					<path class="st0" d="M34.7,28.9v1.7h-4.2v1.8h3.8v1.6h-3.8v1.8h4.4v1.7h-6.3v-8.5H34.7z"/>
					<path class="st0" d="M42,33.1h1.9v3c-0.8,0.9-2,1.4-3.5,1.4c-1.2,0-2.3-0.4-3.1-1.2c-0.8-0.8-1.3-1.9-1.3-3.1
						c0-1.3,0.4-2.3,1.3-3.2c0.9-0.8,1.9-1.3,3.1-1.3c1.2,0,2.3,0.4,3.2,1.2l-1,1.4c-0.4-0.3-0.7-0.6-1.1-0.7
						c-0.3-0.1-0.7-0.2-1-0.2c-0.7,0-1.3,0.2-1.8,0.7c-0.5,0.5-0.7,1.1-0.7,1.9c0,0.8,0.2,1.4,0.7,1.9c0.5,0.5,1,0.7,1.7,0.7
						s1.2-0.1,1.6-0.4V33.1z"/>
					<path class="st0" d="M51.6,37.4l-0.8-1.8h-3.6l-0.8,1.8h-2l3.7-8.5h1.8l3.7,8.5H51.6z M49,31.4L48,33.9h2.1L49,31.4z"/>
				</g>
			</g>
		</g>
	</g>
</g>
</svg>
