<?xml version="1.0" encoding="utf-8"?>
<!-- Generator: Adobe Illustrator 26.4.1, SVG Export Plug-In . SVG Version: 6.00 Build 0)  -->
<svg version="1.1" id="Capa_1" xmlns="http://www.w3.org/2000/svg" xmlns:xlink="http://www.w3.org/1999/xlink" x="0px" y="0px"
	 viewBox="0 0 60 66" style="enable-background:new 0 0 60 66;" xml:space="preserve">
<style type="text/css">
	.st0{fill:#373769;}
</style>
<g>
	<g>
		<path class="st0" d="M30,66c-1.9,0-3.8-0.5-5.5-1.5l-18.9-11C2.1,51.6,0,47.9,0,44V22c0-3.9,2.1-7.6,5.5-9.6l18.9-11
			c3.4-2,7.7-2,11.1,0l18.9,11c3.4,2,5.5,5.7,5.5,9.6V44c0,3.9-2.1,7.6-5.5,9.6l-18.9,11C33.8,65.5,31.9,66,30,66z M30,1.5
			c-1.7,0-3.3,0.4-4.8,1.3l-18.9,11c-3,1.7-4.8,4.9-4.8,8.3V44c0,3.4,1.8,6.6,4.8,8.3l18.9,11c3,1.7,6.6,1.7,9.6,0l18.9-11
			c3-1.7,4.8-4.9,4.8-8.3V22c0-3.4-1.8-6.6-4.8-8.3l-18.9-11C33.3,1.9,31.7,1.5,30,1.5z"/>
	</g>
	<g>
		<path class="st0" d="M45.5,19.1c-3.1-3-6.3-4.4-9.3-4c-3.7,0.5-6.1,3.4-6.9,4.5c-3.5-0.8-4.2-3.8-4.2-3.9
			c-0.1-0.4-0.5-0.6-0.8-0.5c-0.4,0.1-0.6,0.5-0.5,0.8c0,0.2,1,4.3,5.8,5.1l0.5,0.1l0.2-0.4c0,0,2.3-3.8,6.2-4.3
			c2.6-0.3,5.4,0.9,8.2,3.6c5.7,5.4,5.6,12.4,3.6,17.1c-0.2,0.4-0.3,0.8-0.5,1.1c-0.1-0.1-0.2-0.1-0.3-0.1c-0.4,0-0.7,0.3-0.7,0.7
			c0,0.3,0.1,0.5,0.3,0.6c-0.3,0.5-0.7,1-1.1,1.5c0-0.4-0.3-0.7-0.7-0.7c-0.4,0-0.7,0.3-0.7,0.7c0,0.4,0.3,0.7,0.7,0.7
			c0,0,0.1,0,0.1,0c-0.5,0.5-1,1-1.5,1.5c0,0,0,0,0,0c0-0.4-0.3-0.7-0.7-0.7c-0.4,0-0.7,0.3-0.7,0.7c0,0.3,0.3,0.6,0.6,0.7
			c-0.5,0.3-1,0.7-1.5,1c-0.1-0.1-0.3-0.2-0.5-0.2c-0.4,0-0.7,0.3-0.7,0.7c0,0,0,0.1,0,0.1c-1.9,0.9-4,1.3-6.2,1.2h-0.1l-0.1,0
			c-0.1,0-5.2,0.7-11.1-2.9l-0.5-0.3L21.8,44c0,0-0.5,0.6-1.3,0.7c-0.9,0.1-1.9-0.5-2.9-1.5c-0.7-0.7-1.7-0.9-2.6-0.5
			c-0.7,0.3-2.2,1.3-2.2,4.9c0,0.4,0.3,0.7,0.7,0.7c0.4,0,0.7-0.3,0.7-0.7c0-2.3,0.7-3.4,1.3-3.6c0.4-0.1,0.7-0.1,1,0.2
			c1,1,1.9,1.6,2.9,1.8c0.1,0.1,0.2,0.1,0.4,0.1c0.1,0,0.1,0,0.1,0c0.2,0,0.4,0,0.6,0c0.9-0.1,1.5-0.4,1.9-0.8
			c4.4,2.5,8.3,2.9,10.2,2.9c0.7,0,1.1,0,1.3-0.1c6.6,0.1,12.7-3.9,15.4-10.3C52.1,31.2,50.6,24,45.5,19.1z"/>
		<path class="st0" d="M13.8,39.1c2.8-1.6,6.7,0,7.8,0.5c0,0,0.1,0.1,0.2,0.1c0.1,0,0.2,0.1,0.2,0.1l0.5,0.3l0.4-0.4
			c2.1-2.4,5.2-1.4,5.3-1.4l0.8,0.3l0.1-0.9c0.2-1.9,3-3,3-3l0.5-0.2v-4.8l-0.4-0.2c-2-1-2.1-3.5-2.1-3.6l0-0.6l-0.6-0.1
			c-8.2-1.5-9.4-7.3-9.4-7.5c-0.1-0.4-0.4-0.6-0.8-0.6c-0.4,0.1-0.6,0.4-0.6,0.8c0.1,0.3,1.3,6.7,10.1,8.6c0.1,1,0.7,2.9,2.4,4v3
			c-0.9,0.4-2.7,1.4-3.3,3.2c-1.2-0.2-3.8-0.4-5.7,1.6c-1.4-0.7-5.7-2.4-9-0.4c-2.5,1.5-3.8,4.7-3.8,9.6c0,0.4,0.3,0.7,0.7,0.7
			c0.4,0,0.7-0.3,0.7-0.7C10.7,43.1,11.7,40.3,13.8,39.1z"/>
		<path class="st0" d="M40.9,36.2c0.4,0,0.7,0.3,0.7,0.7c0,0.4-0.3,0.7-0.7,0.7c-0.4,0-0.7-0.3-0.7-0.7
			C40.2,36.5,40.5,36.2,40.9,36.2z"/>
		<path class="st0" d="M45.1,36.2c0.4,0,0.7,0.3,0.7,0.7c0,0.4-0.3,0.7-0.7,0.7c-0.4,0-0.7-0.3-0.7-0.7
			C44.4,36.5,44.7,36.2,45.1,36.2z"/>
		<path class="st0" d="M47.2,34.1c0.4,0,0.7,0.3,0.7,0.7c0,0.4-0.3,0.7-0.7,0.7c-0.4,0-0.7-0.3-0.7-0.7
			C46.5,34.4,46.8,34.1,47.2,34.1z"/>
		<path class="st0" d="M26.1,38.3c0.4,0,0.7,0.3,0.7,0.7c0,0.4-0.3,0.7-0.7,0.7c-0.4,0-0.7-0.3-0.7-0.7
			C25.4,38.6,25.7,38.3,26.1,38.3z"/>
		<path class="st0" d="M30.3,38.3c0.4,0,0.7,0.3,0.7,0.7c0,0.4-0.3,0.7-0.7,0.7c-0.4,0-0.7-0.3-0.7-0.7C29.6,38.6,30,38.3,30.3,38.3
			z"/>
		<path class="st0" d="M34.6,38.3c0.4,0,0.7,0.3,0.7,0.7c0,0.4-0.3,0.7-0.7,0.7c-0.4,0-0.7-0.3-0.7-0.7
			C33.9,38.6,34.2,38.3,34.6,38.3z"/>
		<path class="st0" d="M38.8,38.3c0.4,0,0.7,0.3,0.7,0.7c0,0.4-0.3,0.7-0.7,0.7c-0.4,0-0.7-0.3-0.7-0.7
			C38.1,38.6,38.4,38.3,38.8,38.3z"/>
		<path class="st0" d="M43,38.3c0.4,0,0.7,0.3,0.7,0.7c0,0.4-0.3,0.7-0.7,0.7c-0.4,0-0.7-0.3-0.7-0.7C42.3,38.6,42.6,38.3,43,38.3z"
			/>
		<path class="st0" d="M19.8,40.4c0.4,0,0.7,0.3,0.7,0.7c0,0.4-0.3,0.7-0.7,0.7c-0.4,0-0.7-0.3-0.7-0.7
			C19.1,40.7,19.4,40.4,19.8,40.4z"/>
		<path class="st0" d="M24,40.4c0.4,0,0.7,0.3,0.7,0.7c0,0.4-0.3,0.7-0.7,0.7c-0.4,0-0.7-0.3-0.7-0.7C23.3,40.7,23.6,40.4,24,40.4z"
			/>
		<path class="st0" d="M26.1,42.5c0.4,0,0.7,0.3,0.7,0.7c0,0.4-0.3,0.7-0.7,0.7c-0.4,0-0.7-0.3-0.7-0.7
			C25.4,42.8,25.7,42.5,26.1,42.5z"/>
		<path class="st0" d="M28.2,40.4c0.4,0,0.7,0.3,0.7,0.7c0,0.4-0.3,0.7-0.7,0.7c-0.4,0-0.7-0.3-0.7-0.7
			C27.5,40.7,27.9,40.4,28.2,40.4z"/>
		<path class="st0" d="M32.5,40.4c0.4,0,0.7,0.3,0.7,0.7c0,0.4-0.3,0.7-0.7,0.7c-0.4,0-0.7-0.3-0.7-0.7
			C31.8,40.7,32.1,40.4,32.5,40.4z"/>
		<path class="st0" d="M28.2,44.6c0.4,0,0.7,0.3,0.7,0.7c0,0.4-0.3,0.7-0.7,0.7c-0.4,0-0.7-0.3-0.7-0.7C27.5,45,27.9,44.6,28.2,44.6
			z"/>
		<path class="st0" d="M32.5,44.6c0.4,0,0.7,0.3,0.7,0.7c0,0.4-0.3,0.7-0.7,0.7c-0.4,0-0.7-0.3-0.7-0.7C31.8,45,32.1,44.6,32.5,44.6
			z"/>
		<path class="st0" d="M30.3,42.5c0.4,0,0.7,0.3,0.7,0.7c0,0.4-0.3,0.7-0.7,0.7c-0.4,0-0.7-0.3-0.7-0.7C29.6,42.8,30,42.5,30.3,42.5
			z"/>
		<path class="st0" d="M34.6,42.5c0.4,0,0.7,0.3,0.7,0.7c0,0.4-0.3,0.7-0.7,0.7c-0.4,0-0.7-0.3-0.7-0.7
			C33.9,42.8,34.2,42.5,34.6,42.5z"/>
		<path class="st0" d="M36.7,40.4c0.4,0,0.7,0.3,0.7,0.7c0,0.4-0.3,0.7-0.7,0.7c-0.4,0-0.7-0.3-0.7-0.7C36,40.7,36.3,40.4,36.7,40.4
			z"/>
		<path class="st0" d="M40.9,40.4c0.4,0,0.7,0.3,0.7,0.7c0,0.4-0.3,0.7-0.7,0.7c-0.4,0-0.7-0.3-0.7-0.7
			C40.2,40.7,40.5,40.4,40.9,40.4z"/>
		<path class="st0" d="M36.7,44.6c0.4,0,0.7,0.3,0.7,0.7c0,0.4-0.3,0.7-0.7,0.7c-0.4,0-0.7-0.3-0.7-0.7C36,45,36.3,44.6,36.7,44.6z"
			/>
		<path class="st0" d="M38.8,42.5c0.4,0,0.7,0.3,0.7,0.7c0,0.4-0.3,0.7-0.7,0.7c-0.4,0-0.7-0.3-0.7-0.7
			C38.1,42.8,38.4,42.5,38.8,42.5z"/>
	</g>
</g>
</svg>
