<?xml version="1.0" encoding="utf-8"?>
<!-- Generator: Adobe Illustrator 26.4.1, SVG Export Plug-In . SVG Version: 6.00 Build 0)  -->
<svg version="1.1" id="Capa_1" xmlns="http://www.w3.org/2000/svg" xmlns:xlink="http://www.w3.org/1999/xlink" x="0px" y="0px"
	 viewBox="0 0 3 425" style="enable-background:new 0 0 3 425;" xml:space="preserve">
<style type="text/css">
	.st0{fill-rule:evenodd;clip-rule:evenodd;fill:#373769;}
</style>
<g>
	<circle class="st0" cx="1.5" cy="190.7" r="1.5"/>
	<circle class="st0" cx="1.5" cy="183.4" r="1.5"/>
	<circle class="st0" cx="1.5" cy="176.1" r="1.5"/>
	<circle class="st0" cx="1.5" cy="168.8" r="1.5"/>
	<circle class="st0" cx="1.5" cy="161.6" r="1.5"/>
	<circle class="st0" cx="1.5" cy="154.3" r="1.5"/>
	<circle class="st0" cx="1.5" cy="147" r="1.5"/>
	<circle class="st0" cx="1.5" cy="139.7" r="1.5"/>
	<circle class="st0" cx="1.5" cy="132.5" r="1.5"/>
	<circle class="st0" cx="1.5" cy="125.2" r="1.5"/>
	<circle class="st0" cx="1.5" cy="117.9" r="1.5"/>
	<circle class="st0" cx="1.5" cy="234.3" r="1.5"/>
	<circle class="st0" cx="1.5" cy="227.1" r="1.5"/>
	<circle class="st0" cx="1.5" cy="219.8" r="1.5"/>
	<circle class="st0" cx="1.5" cy="212.5" r="1.5"/>
	<circle class="st0" cx="1.5" cy="205.2" r="1.5"/>
	<circle class="st0" cx="1.5" cy="197.9" r="1.5"/>
	<circle class="st0" cx="1.5" cy="52.4" r="1.5"/>
	<circle class="st0" cx="1.5" cy="45.2" r="1.5"/>
	<circle class="st0" cx="1.5" cy="37.9" r="1.5"/>
	<circle class="st0" cx="1.5" cy="30.6" r="1.5"/>
	<circle class="st0" cx="1.5" cy="110.6" r="1.5"/>
	<circle class="st0" cx="1.5" cy="103.4" r="1.5"/>
	<circle class="st0" cx="1.5" cy="96.1" r="1.5"/>
	<circle class="st0" cx="1.5" cy="88.8" r="1.5"/>
	<circle class="st0" cx="1.5" cy="81.5" r="1.5"/>
	<circle class="st0" cx="1.5" cy="74.3" r="1.5"/>
	<circle class="st0" cx="1.5" cy="67" r="1.5"/>
	<circle class="st0" cx="1.5" cy="59.7" r="1.5"/>
	<circle class="st0" cx="1.5" cy="23.3" r="1.5"/>
	<circle class="st0" cx="1.5" cy="16.1" r="1.5"/>
	<circle class="st0" cx="1.5" cy="8.8" r="1.5"/>
	<circle class="st0" cx="1.5" cy="1.5" r="1.5"/>
	<circle class="st0" cx="1.5" cy="292.5" r="1.5"/>
	<circle class="st0" cx="1.5" cy="285.3" r="1.5"/>
	<circle class="st0" cx="1.5" cy="278" r="1.5"/>
	<circle class="st0" cx="1.5" cy="270.7" r="1.5"/>
	<circle class="st0" cx="1.5" cy="343.5" r="1.5"/>
	<circle class="st0" cx="1.5" cy="336.2" r="1.5"/>
	<circle class="st0" cx="1.5" cy="328.9" r="1.5"/>
	<circle class="st0" cx="1.5" cy="321.6" r="1.5"/>
	<circle class="st0" cx="1.5" cy="314.4" r="1.5"/>
	<circle class="st0" cx="1.5" cy="307.1" r="1.5"/>
	<circle class="st0" cx="1.5" cy="299.8" r="1.5"/>
	<circle class="st0" cx="1.5" cy="263.4" r="1.5"/>
	<circle class="st0" cx="1.5" cy="256.2" r="1.5"/>
	<circle class="st0" cx="1.5" cy="248.9" r="1.5"/>
	<circle class="st0" cx="1.5" cy="241.6" r="1.5"/>
	<circle class="st0" cx="1.5" cy="394.4" r="1.5"/>
	<circle class="st0" cx="1.5" cy="387.1" r="1.5"/>
	<circle class="st0" cx="1.5" cy="379.8" r="1.5"/>
	<circle class="st0" cx="1.5" cy="372.6" r="1.5"/>
	<circle class="st0" cx="1.5" cy="365.3" r="1.5"/>
	<circle class="st0" cx="1.5" cy="358" r="1.5"/>
	<circle class="st0" cx="1.5" cy="350.7" r="1.5"/>
	<circle class="st0" cx="1.5" cy="423.5" r="1.5"/>
	<circle class="st0" cx="1.5" cy="416.2" r="1.5"/>
	<circle class="st0" cx="1.5" cy="408.9" r="1.5"/>
	<circle class="st0" cx="1.5" cy="401.7" r="1.5"/>
</g>
</svg>
