<?xml version="1.0" encoding="utf-8"?>
<!-- Generator: Adobe Illustrator 26.4.1, SVG Export Plug-In . SVG Version: 6.00 Build 0)  -->
<svg version="1.1" id="Capa_1" xmlns="http://www.w3.org/2000/svg" xmlns:xlink="http://www.w3.org/1999/xlink" x="0px" y="0px"
	 viewBox="0 0 60 66" style="enable-background:new 0 0 60 66;" xml:space="preserve">
<style type="text/css">
	.st0{fill:#373769;}
</style>
<g>
	<g>
		<path class="st0" d="M30,66c-1.9,0-3.8-0.5-5.5-1.5l-18.9-11C2.1,51.6,0,47.9,0,44V22c0-3.9,2.1-7.6,5.5-9.6l18.9-11
			c3.4-2,7.7-2,11.1,0l18.9,11c3.4,2,5.5,5.7,5.5,9.6V44c0,3.9-2.1,7.6-5.5,9.6l-18.9,11C33.8,65.5,31.9,66,30,66z M30,1.5
			c-1.7,0-3.3,0.4-4.8,1.3l-18.9,11c-3,1.7-4.8,4.9-4.8,8.3V44c0,3.4,1.8,6.6,4.8,8.3l18.9,11c3,1.7,6.6,1.7,9.6,0l18.9-11
			c3-1.7,4.8-4.9,4.8-8.3V22c0-3.4-1.8-6.6-4.8-8.3l-18.9-11C33.3,1.9,31.7,1.5,30,1.5z"/>
	</g>
	<g>
		<g>
			<g>
				<path class="st0" d="M36.5,38.1v0.7c0,3.6-2.9,6.5-6.5,6.5c-3.6,0-6.5-2.9-6.5-6.5v-0.7H8.2v1.5H22c0.4,4.1,3.8,7.3,8,7.3
					c4.1,0,7.6-3.2,8-7.3h13.8v-1.5H36.5z"/>
			</g>
		</g>
		<g>
			<g>
				<path class="st0" d="M35.1,16.4c0.1-0.3-0.1-0.6-0.4-0.8c-0.4-0.2-0.8,0-1,0.3c-0.3,0.6-7.2,14.2-8.5,20.6
					c-0.2,0.7-0.3,1.5-0.3,2.2v0.1c0,2.8,2.3,5.1,5.1,5.1c2.8,0,5.1-2.3,5.1-5.1c-0.2-1.7-0.4-3.5-0.8-5.2
					C33,27.5,35,16.5,35.1,16.4z M30,42.5c-2,0-3.6-1.6-3.6-3.6v-0.1c0-0.7,0.1-1.3,0.2-1.9c0.8-4,4.1-11.4,6.3-16
					c-0.5,3.9-0.9,9.3-0.1,13.1c0.4,1.6,0.7,3.3,0.8,4.9C33.6,40.8,32,42.5,30,42.5z"/>
			</g>
		</g>
		<g>
			<g>
				<path class="st0" d="M19.1,41c-1.2,0-2.2,1-2.2,2.2s1,2.2,2.2,2.2s2.2-1,2.2-2.2S20.3,41,19.1,41z M19.1,43.9
					c-0.4,0-0.7-0.3-0.7-0.7c0-0.4,0.3-0.7,0.7-0.7c0.4,0,0.7,0.3,0.7,0.7C19.8,43.6,19.5,43.9,19.1,43.9z"/>
			</g>
		</g>
		<g>
			<g>
				<path class="st0" d="M12.6,42.5c-1.6,0-2.9,1.3-2.9,2.9s1.3,2.9,2.9,2.9s2.9-1.3,2.9-2.9S14.2,42.5,12.6,42.5z M12.6,46.8
					c-0.8,0-1.5-0.7-1.5-1.5s0.6-1.5,1.5-1.5c0.8,0,1.5,0.7,1.5,1.5S13.4,46.8,12.6,46.8z"/>
			</g>
		</g>
		<g>
			<g>
				<path class="st0" d="M47.4,42.5c-1.6,0-2.9,1.3-2.9,2.9s1.3,2.9,2.9,2.9c1.6,0,2.9-1.3,2.9-2.9S49,42.5,47.4,42.5z M47.4,46.8
					c-0.8,0-1.5-0.7-1.5-1.5s0.6-1.5,1.5-1.5c0.8,0,1.5,0.7,1.5,1.5S48.2,46.8,47.4,46.8z"/>
			</g>
		</g>
		<g>
			<g>
				<path class="st0" d="M40.9,41c-1.2,0-2.2,1-2.2,2.2s1,2.2,2.2,2.2c1.2,0,2.2-1,2.2-2.2S42.1,41,40.9,41z M40.9,43.9
					c-0.4,0-0.7-0.3-0.7-0.7c0-0.4,0.3-0.7,0.7-0.7s0.7,0.3,0.7,0.7C41.6,43.6,41.3,43.9,40.9,43.9z"/>
			</g>
		</g>
		<g>
			<g>
				<path class="st0" d="M23.5,46.1c-1.2,0-2.2,1-2.2,2.2s1,2.2,2.2,2.2s2.2-1,2.2-2.2S24.7,46.1,23.5,46.1z M23.5,49
					c-0.4,0-0.7-0.3-0.7-0.7s0.3-0.7,0.7-0.7s0.7,0.3,0.7,0.7S23.9,49,23.5,49z"/>
			</g>
		</g>
		<g>
			<g>
				<path class="st0" d="M36.5,46.1c-1.2,0-2.2,1-2.2,2.2s1,2.2,2.2,2.2c1.2,0,2.2-1,2.2-2.2S37.7,46.1,36.5,46.1z M36.5,49
					c-0.4,0-0.7-0.3-0.7-0.7s0.3-0.7,0.7-0.7c0.4,0,0.7,0.3,0.7,0.7S36.9,49,36.5,49z"/>
			</g>
		</g>
	</g>
</g>
</svg>
