<?xml version="1.0" encoding="utf-8"?>
<!-- Generator: Adobe Illustrator 26.4.1, SVG Export Plug-In . SVG Version: 6.00 Build 0)  -->
<svg version="1.1" id="Capa_1" xmlns="http://www.w3.org/2000/svg" xmlns:xlink="http://www.w3.org/1999/xlink" x="0px" y="0px"
	 viewBox="0 0 60 66" style="enable-background:new 0 0 60 66;" xml:space="preserve">
<style type="text/css">
	.st0{fill:#373769;}
</style>
<g>
	<g>
		<path class="st0" d="M30,66c-1.9,0-3.8-0.5-5.5-1.5l-18.9-11C2.1,51.6,0,47.9,0,44V22c0-3.9,2.1-7.6,5.5-9.6l18.9-11
			c3.4-2,7.7-2,11.1,0l18.9,11c3.4,2,5.5,5.7,5.5,9.6V44c0,3.9-2.1,7.6-5.5,9.6l-18.9,11C33.8,65.5,31.9,66,30,66z M30,1.5
			c-1.7,0-3.3,0.4-4.8,1.3l-18.9,11c-3,1.7-4.8,4.9-4.8,8.3V44c0,3.4,1.8,6.6,4.8,8.3l18.9,11c3,1.7,6.6,1.7,9.6,0l18.9-11
			c3-1.7,4.8-4.9,4.8-8.3V22c0-3.4-1.8-6.6-4.8-8.3l-18.9-11C33.3,1.9,31.7,1.5,30,1.5z"/>
	</g>
	<g>
		<path class="st0" d="M29.9,30.9c-1.1,0-2.1,0.9-2.1,2.1s0.9,2.1,2.1,2.1c1.1,0,2.1-0.9,2.1-2.1S31,30.9,29.9,30.9z M29.9,33.7
			c-0.4,0-0.7-0.3-0.7-0.7c0-0.4,0.3-0.7,0.7-0.7c0.4,0,0.7,0.3,0.7,0.7S30.3,33.7,29.9,33.7z"/>
		<path class="st0" d="M29.9,28.2c-2.7,0-4.8,2.2-4.8,4.8c0,2.7,2.2,4.8,4.8,4.8s4.8-2.2,4.8-4.8C34.7,30.3,32.6,28.2,29.9,28.2z
			 M29.9,36.5c-1.9,0-3.5-1.6-3.5-3.5s1.5-3.5,3.5-3.5c1.9,0,3.5,1.6,3.5,3.5S31.8,36.5,29.9,36.5z"/>
		<path class="st0" d="M37.7,28.1l-2.9-2.9l-1.3,1.3c-0.2,0.2-0.6,0.3-1,0.1c-0.3-0.1-0.6-0.4-0.6-0.8V24h-4.1v1.8
			c0,0.3-0.2,0.6-0.6,0.8c-0.3,0.1-0.7,0.1-0.9-0.1L25,25.2l-2.9,2.9l1.3,1.3c0.2,0.2,0.3,0.6,0.1,1c-0.1,0.3-0.4,0.6-0.8,0.6h-1.8
			v4.2h1.8c0.3,0,0.6,0.2,0.8,0.6c0.1,0.3,0.1,0.7-0.1,0.9l-1.3,1.3l2.9,2.9l1.3-1.3c0.2-0.2,0.6-0.3,1-0.1c0.3,0.1,0.6,0.4,0.6,0.8
			V42H32v-1.8c0-0.3,0.2-0.6,0.6-0.8c0.3-0.1,0.7-0.1,0.9,0.1l1.3,1.3l2.9-2.9l-1.3-1.3c-0.2-0.2-0.3-0.6-0.2-0.9l0-0.1
			c0.1-0.3,0.4-0.5,0.8-0.5h1.8v-4.2h-1.8c-0.3,0-0.6-0.2-0.8-0.6c-0.1-0.3-0.1-0.7,0.1-0.9L37.7,28.1z M37.1,32.3h0.4v1.4h-0.4
			c-0.9,0-1.7,0.5-2,1.4l0,0.1c-0.3,0.9-0.2,1.8,0.5,2.4l0.3,0.3l-1,1l-0.3-0.3c-0.6-0.6-1.6-0.8-2.5-0.4c-0.9,0.4-1.4,1.2-1.4,2
			v0.4h-1.4v-0.4c0-0.9-0.6-1.7-1.4-2.1c-0.9-0.4-1.8-0.2-2.5,0.4L25,38.9l-1-1l0.3-0.3c0.6-0.6,0.8-1.6,0.4-2.5
			c-0.4-0.9-1.2-1.4-2-1.4h-0.4v-1.4h0.4c0.9,0,1.7-0.6,2.1-1.4c0.4-0.9,0.2-1.8-0.4-2.5L24,28.1l1-1l0.3,0.3
			c0.6,0.6,1.6,0.8,2.5,0.4c0.9-0.4,1.4-1.2,1.4-2v-0.4h1.4v0.4c0,0.9,0.6,1.7,1.4,2.1c0.9,0.4,1.8,0.2,2.5-0.4l0.3-0.3l1,1
			l-0.3,0.3C34.8,29,34.6,30,35,30.9C35.4,31.8,36.2,32.3,37.1,32.3L37.1,32.3z"/>
		<path class="st0" d="M21.7,39.4c-1.4-1.8-2.2-4-2.2-6.4s0.8-4.5,2.2-6.4l0.4-0.5l-6.8-6.9l-0.5,0.6c-2.2,2.5-3.7,5.5-4.4,8.7
			c-1.1,0.6-1.9,1.7-1.9,3.1c0,0.7,0.2,1.3,0.5,1.8c-0.3,0.5-0.5,1-0.5,1.6c0,1.2,0.8,2.3,1.9,2.6c0.7,3.1,2.2,6,4.3,8.4l0.5,0.6
			l6.8-6.9L21.7,39.4z M9.9,35.1c0-0.4,0.2-0.8,0.5-1.1l0.6-0.5L10.4,33c-0.4-0.4-0.6-0.9-0.6-1.4c0-1.1,0.9-2.1,2.1-2.1
			s2.1,0.9,2.1,2l0,0.6l0.5,0.2c0.6,0.2,0.9,0.7,0.9,1.3c0,0.9-1,1.7-1.9,1.3l-0.7-0.3l-0.2,0.8c-0.2,0.6-0.7,1-1.3,1
			C10.5,36.5,9.9,35.8,9.9,35.1z M16.8,38.1c-0.1,0.6-0.5,1-1.1,1.1l-2.3-2.3c0.1-0.1,0.2-0.3,0.3-0.4c0.1,0,0.2,0,0.4,0
			c0.3,0,0.6-0.1,0.9-0.2L16.8,38.1z M15.3,44.7c-1.6-2-2.8-4.4-3.5-6.9c0.1,0,0.2-0.1,0.3-0.1l2.9,2.9h0.3c1.5,0,2.8-1.2,2.8-2.8
			v-0.3l-2.1-2.1c0.4-0.5,0.7-1.1,0.7-1.8c0-1-0.5-1.9-1.4-2.4c-0.2-1.8-1.6-3.1-3.4-3.1c0,0,0,0-0.1,0c0.7-2.5,1.8-4.8,3.4-6.8
			l4.9,4.9c-1.4,2-2.1,4.3-2.1,6.7s0.7,4.7,2.1,6.7L15.3,44.7z"/>
		<path class="st0" d="M23.5,24.8c1.8-1.4,4-2.2,6.4-2.2c0.8,0,1.6,0.1,2.3,0.3c0.3,0.7,1,1.1,1.8,1.1c0.3,0,0.5-0.1,0.7-0.1
			c0.5,0.3,1,0.6,1.5,0.9l0.5,0.4l6.8-6.9L43,17.8c-3-2.6-6.6-4.2-10.5-4.7c-0.8-1-1.9-1.6-3.2-1.6c-1.4,0-2.7,0.7-3.4,1.8
			c-3.3,0.7-6.4,2.2-9,4.5l-0.6,0.5l6.8,6.9L23.5,24.8z M33.4,21.9v-1l-1.1-1.1l1.1-1.1l1.1,1.1h1c0.4,0,0.7,0.3,0.7,0.7
			s-0.3,0.7-0.7,0.7h-0.7v0.7c0,0.4-0.3,0.7-0.7,0.7C33.7,22.6,33.4,22.3,33.4,21.9z M41.5,18.4l-4.9,4.9c-0.2-0.2-0.5-0.3-0.7-0.5
			c0.1-0.1,0.1-0.2,0.1-0.3c0.9-0.3,1.5-1.1,1.5-2c0-1.1-0.9-2.1-2.1-2.1H35l-1-1l-0.7-2.7c0,0,0-0.1,0-0.1
			C36.3,15.2,39.1,16.5,41.5,18.4z M29.2,12.9c1.3,0,2.4,0.9,2.7,2.1l0.6,2.5l-1.5,1.5l-2.5-0.6c-1.2-0.3-2.1-1.4-2.1-2.7
			C26.4,14.2,27.7,12.9,29.2,12.9L29.2,12.9z M25.1,14.9c-0.1,0.3-0.1,0.5-0.1,0.8c0,1.9,1.3,3.6,3.2,4.1l2.7,0.7l0.9,0.9
			c-0.6-0.1-1.3-0.2-2-0.2c-2.4,0-4.7,0.7-6.7,2.1l-4.9-4.9C20.3,16.8,22.6,15.6,25.1,14.9L25.1,14.9z"/>
		<path class="st0" d="M36.3,41.2c-1.8,1.4-4,2.2-6.4,2.2s-4.5-0.8-6.4-2.2l-0.5-0.4l-6.8,6.9l0.6,0.5c2.8,2.4,6.2,4,9.8,4.6
			c0.8,1,2,1.7,3.3,1.7c1.4,0,2.6-0.7,3.3-1.7c3.6-0.6,7-2.2,9.8-4.6l0.6-0.5l-6.8-6.9L36.3,41.2z M18.3,47.6l4.9-4.9
			c1.6,1.1,3.4,1.8,5.4,2c-1.1,1.4-2.8,4-2.8,5.6c0,0.3,0,0.6,0.1,0.9C23.1,50.6,20.5,49.4,18.3,47.6L18.3,47.6z M29.9,53.1
			c-1.5,0-2.8-1.2-2.8-2.8c0-1.2,1.5-3.5,2.8-5.1c1.2,1.6,2.8,4,2.8,5.1C32.7,51.8,31.4,53.1,29.9,53.1z M33.9,51.2
			c0.1-0.3,0.1-0.6,0.1-0.9c0-1.6-1.7-4.2-2.8-5.6c1.9-0.2,3.8-0.9,5.4-2l4.9,4.9C39.3,49.4,36.7,50.6,33.9,51.2L33.9,51.2z"/>
		<path class="st0" d="M51,29.5l0.5-2.1h-2c-0.1,0-0.2,0-0.3,0c-0.8-2.8-2.2-5.4-4.1-7.6l-0.5-0.6l-6.8,6.9l0.4,0.5
			c1.4,1.8,2.2,4,2.2,6.4s-0.8,4.5-2.2,6.4l-0.4,0.5l6.8,6.9l0.5-0.6c1.9-2.3,3.4-4.9,4.2-7.8c0.4-0.2,0.8-0.6,0.9-1.1l0.8-2.8
			c0.2-0.8,0.4-1.7,0.4-2.6c0-0.6-0.2-1.1-0.6-1.5C50.8,30,50.9,29.8,51,29.5L51,29.5z M49.7,28.8l-0.1,0.3c-0.2,0.6-0.7,1-1.3,1
			h-0.3l0.1-0.3c0.2-0.6,0.7-1,1.3-1H49.7z M44.5,44.7l-4.9-4.9c1.4-2,2.1-4.3,2.1-6.7s-0.7-4.7-2.1-6.7l4.9-4.9
			c1.6,2,2.7,4.2,3.4,6.7c-0.5,0.4-0.9,0.9-1.1,1.6l-0.1,0.4l-0.1-0.1c-0.4-0.2-0.9-0.3-1.3-0.3c-1.2,0-2.2,1-2.2,2.2
			c0,0.9,0.1,1.7,0.4,2.6l0.8,2.8c0.2,0.8,0.9,1.3,1.8,1.3c0.4,0,0.9-0.1,1.2-0.4c0.2,0.1,0.4,0.2,0.6,0.3
			C47.1,40.7,45.9,42.8,44.5,44.7L44.5,44.7z M49.6,34l-0.8,2.8c-0.1,0.3-0.6,0.4-0.8,0.2l-0.8-0.8L46.4,37
			c-0.2,0.2-0.7,0.2-0.8-0.2L44.7,34c-0.2-0.7-0.3-1.5-0.3-2.2c0-0.5,0.4-0.9,0.9-0.9c0.2,0,0.5,0.1,0.7,0.2l1.1,0.5h1.3
			c0.5,0,1-0.1,1.4-0.4c0.1,0.2,0.2,0.3,0.2,0.6C49.9,32.5,49.8,33.3,49.6,34L49.6,34z"/>
	</g>
</g>
</svg>
