<?xml version="1.0" encoding="utf-8"?>
<!-- Generator: Adobe Illustrator 26.4.1, SVG Export Plug-In . SVG Version: 6.00 Build 0)  -->
<svg version="1.1" id="Capa_1" xmlns="http://www.w3.org/2000/svg" xmlns:xlink="http://www.w3.org/1999/xlink" x="0px" y="0px"
	 viewBox="0 0 55 55" style="enable-background:new 0 0 55 55;" xml:space="preserve">
<style type="text/css">
	.st0{fill:#373869;}
</style>
<g>
	<path class="st0" d="M47.8,16.9L47.8,16.9c1.7-1,2.8-2.8,2.8-4.9c0-3-2.3-5.4-5.2-5.6c-0.8-2.2-2.9-3.8-5.3-3.8
		c-2.4,0-4.5,1.6-5.3,3.8c-2.9,0.2-5.2,2.6-5.2,5.6c0,2.3,1.3,4.3,3.4,5.2v7.9c0,1.8-1.5,3.3-3.3,3.3H11.1c-0.1-4.5-3.8-8.1-8.3-8.1
		c-0.8,0-1.4,0.6-1.4,1.4v8.1c0,12,9.4,21.9,21.3,22.5l2.4,0c5.6-0.3,10.8-2.6,14.7-6.6c3.4-3.4,5.5-7.6,6.3-12.2
		c2.6,0,4.8-2.2,4.8-4.8v-4.5h1.4c0.8,0,1.4-0.6,1.4-1.4C53.7,19.6,51,16.9,47.8,16.9z M48,28.7c0,1-0.7,1.8-1.6,1.9v-6.4H48V28.7z
		 M50.5,21.4h-4.1v-1.6h1.4C48.9,19.8,49.9,20.4,50.5,21.4z M13.3,43.5c2.2,1.8,5,2.8,7.8,2.8c3.9,0,7.5-1.8,9.8-4.9
		c0.5-0.6,0.3-1.5-0.3-2c-0.3-0.2-0.7-0.3-1.1-0.3c-0.4,0.1-0.7,0.3-0.9,0.6c-1.8,2.4-4.6,3.8-7.6,3.8c-1.7,0-3.3-0.5-4.8-1.3
		l2.3-2.6c0.3-0.3,0.4-0.6,0.4-1c0-0.4-0.2-0.7-0.5-1c-0.3-0.3-0.7-0.4-1-0.4c-0.4,0-0.7,0.2-1,0.5l-2.4,2.7c-1.6-1.7-2.4-4-2.4-6.3
		v-2.8h18.8v2.4c0,0.8,0.6,1.4,1.4,1.4c0.8,0,1.4-0.6,1.4-1.4V30c1.5-1.2,2.4-3,2.4-4.9v-8.3c0-0.2,0-0.3,0-0.5
		c0.2-2.1,2.1-3.8,4.2-3.8c1.9,0,3.4,1.5,3.4,3.4v13.8c0,5.3-2,10.2-5.8,13.9c-3.7,3.7-8.7,5.8-13.9,5.8c-10.3,0-18.9-8-19.6-18.3
		h4.6V34C8.9,37.7,10.5,41.1,13.3,43.5z M33.5,14.2c-0.7-0.5-1-1.3-1-2.2c0-1.7,1.5-3,3.2-2.7c0.4,0.1,0.8,0,1.1-0.3
		c0.3-0.2,0.5-0.6,0.5-1c0.1-1.4,1.3-2.5,2.7-2.5s2.6,1.1,2.7,2.5c0,0.4,0.2,0.8,0.6,1c0.3,0.2,0.7,0.3,1.1,0.3
		c1.7-0.3,3.2,1,3.2,2.7c0,1-0.6,2-1.5,2.5c-0.7-2.8-3.2-4.8-6.1-4.8C37.2,9.7,34.6,11.5,33.5,14.2z M8.2,28.4h-4v-5.1
		C6.5,23.9,8.1,26,8.2,28.4z"/>
	<path class="st0" d="M40.1,20.4c0.8,0,1.4-0.6,1.4-1.4v-1.2c0-0.8-0.6-1.4-1.4-1.4c-0.8,0-1.4,0.6-1.4,1.4V19
		C38.7,19.8,39.3,20.4,40.1,20.4z"/>
	<path class="st0" d="M32.8,37.8c0-0.1,0.1-0.2,0.1-0.3c0.2-0.8-0.2-1.5-1-1.8c-0.4-0.1-0.8-0.1-1.1,0.1c-0.3,0.2-0.6,0.5-0.7,0.8
		l-0.1,0.2C30,37.3,30,37.7,30.2,38c0.2,0.3,0.5,0.6,0.8,0.7c0.1,0,0.3,0.1,0.4,0.1C32.1,38.8,32.6,38.4,32.8,37.8z"/>
</g>
</svg>
