<?xml version="1.0" encoding="utf-8"?>
<!-- Generator: Adobe Illustrator 26.4.1, SVG Export Plug-In . SVG Version: 6.00 Build 0)  -->
<svg version="1.1" id="Capa_1" xmlns="http://www.w3.org/2000/svg" xmlns:xlink="http://www.w3.org/1999/xlink" x="0px" y="0px"
	 viewBox="0 0 3 100" style="enable-background:new 0 0 3 100;" xml:space="preserve">
<style type="text/css">
	.st0{fill-rule:evenodd;clip-rule:evenodd;fill:#3DB39E;}
</style>
<g>
	<ellipse class="st0" cx="1.5" cy="50" rx="1.5" ry="1.5"/>
	<ellipse class="st0" cx="1.5" cy="43.1" rx="1.5" ry="1.5"/>
	<ellipse class="st0" cx="1.5" cy="36.1" rx="1.5" ry="1.5"/>
	<ellipse class="st0" cx="1.5" cy="29.2" rx="1.5" ry="1.5"/>
	<ellipse class="st0" cx="1.5" cy="98.5" rx="1.5" ry="1.5"/>
	<ellipse class="st0" cx="1.5" cy="91.6" rx="1.5" ry="1.5"/>
	<ellipse class="st0" cx="1.5" cy="84.6" rx="1.5" ry="1.5"/>
	<ellipse class="st0" cx="1.5" cy="77.7" rx="1.5" ry="1.5"/>
	<ellipse class="st0" cx="1.5" cy="70.8" rx="1.5" ry="1.5"/>
	<ellipse class="st0" cx="1.5" cy="63.9" rx="1.5" ry="1.5"/>
	<ellipse class="st0" cx="1.5" cy="56.9" rx="1.5" ry="1.5"/>
	<ellipse class="st0" cx="1.5" cy="22.3" rx="1.5" ry="1.5"/>
	<ellipse class="st0" cx="1.5" cy="15.4" rx="1.5" ry="1.5"/>
	<ellipse class="st0" cx="1.5" cy="8.4" rx="1.5" ry="1.5"/>
	<ellipse class="st0" cx="1.5" cy="1.5" rx="1.5" ry="1.5"/>
</g>
</svg>
