<?xml version="1.0" encoding="utf-8"?>
<!-- Generator: Adobe Illustrator 26.4.1, SVG Export Plug-In . SVG Version: 6.00 Build 0)  -->
<svg version="1.1" id="Capa_1" xmlns="http://www.w3.org/2000/svg" xmlns:xlink="http://www.w3.org/1999/xlink" x="0px" y="0px"
	 viewBox="0 0 55 55" style="enable-background:new 0 0 55 55;" xml:space="preserve">
<style type="text/css">
	.st0{fill:#373869;}
</style>
<g>
	<path class="st0" d="M51.9,9.7c-0.3-0.3-0.7-0.4-1.1-0.4c0,0-0.1,0-0.1,0c-0.4,0-0.8,0.2-1.1,0.6l-3.3,3.8
		c-3.3,3.8-4.5,8.2-5.4,11.8c-1,3.9-1.7,6-3.7,6.6c-0.4,0.1-0.8,0.4-1,0.8s-0.3,0.8-0.2,1.3c0.2,0.7,0.8,1.2,1.6,1.2
		c0,0,0.1,0,0.1,0c0.1,0,0.2,0,0.3,0c4-1,5-4.9,6.1-8.9C45,22.8,46,19,48.8,15.7l3.3-3.8c0.3-0.3,0.4-0.8,0.4-1.2
		C52.5,10.3,52.3,9.9,51.9,9.7z"/>
	<path class="st0" d="M20.2,20.4C20.2,20.4,20.2,20.4,20.2,20.4c0.5,0,0.9-0.2,1.2-0.6c0.3-0.3,0.4-0.8,0.4-1.2
		c-0.2-2.6,2.6-3.7,6.3-5h0c0.8-0.3,1.4-0.5,2-0.7c4.6-1.9,5.5-2.6,8.5-6l3.3-3.8c0.3-0.3,0.4-0.8,0.4-1.2c0-0.4-0.2-0.8-0.6-1.1
		c-0.3-0.3-0.7-0.4-1.2-0.4c-0.4,0-0.8,0.2-1.1,0.6L36,4.8c-2.6,3-2.9,3.4-7.2,5.1c-0.5,0.2-1.2,0.4-1.8,0.6c-3.6,1.2-8.9,3-8.6,8.4
		C18.6,19.8,19.3,20.4,20.2,20.4z"/>
	<path class="st0" d="M37.2,27.8c-0.5-1.2-1.9-2.7-4.1-3.4l0,0c-0.9-4.1-4.7-7-7.7-7.3c-0.9-0.1-1.7,0.6-1.8,1.5
		c-0.1,0.9,0.6,1.7,1.5,1.8c1.9,0.2,4.8,2.6,4.9,5.5c0,0.8,0.7,1.5,1.5,1.6c2,0.2,2.7,1.5,2.7,1.7c0.3,0.6,0.9,1,1.5,1
		c0,0,0.1,0,0.1,0c0.2,0,0.4-0.1,0.5-0.1C37.2,29.7,37.6,28.7,37.2,27.8z"/>
	<path class="st0" d="M31.5,29.7c-0.2-0.1-0.5-0.2-0.8-0.2c-0.6,0-1.2,0.3-1.5,0.9c-0.4,0.8-0.1,1.8,0.7,2.2c1.7,0.9,2,2.4,2,3.5
		c-0.1,2-1.4,3.9-3,4.6c-1.5,0.6-2.7,0.9-3.7,1.1c-2.3,0.5-4.3,1-7,4.2l-5.1,5.9c-0.3,0.3-0.4,0.8-0.4,1.2c0,0.4,0.2,0.8,0.6,1.1
		c0.3,0.3,0.7,0.4,1.1,0.4c0,0,0.1,0,0.1,0c0.4,0,0.8-0.2,1.1-0.6l5.1-5.9c2-2.4,3.2-2.6,5.2-3.1c1.1-0.3,2.5-0.6,4.3-1.3
		c2.8-1.1,4.9-4.2,5-7.5C35.4,33.4,34,31,31.5,29.7z"/>
	<path class="st0" d="M20.2,24.7c1.5-0.1,3.5,0.4,4.4,1.7c1.1,1.5,1,3.5-0.2,5.2c-0.3,0.4-0.4,0.8-0.3,1.2c0.1,0.4,0.3,0.8,0.7,1.1
		c0.4,0.3,0.8,0.4,1.2,0.3l0,0c0.4-0.1,0.8-0.3,1.1-0.7c2-2.8,2.1-6.3,0.2-9c-1.6-2.3-4.5-3.1-6.7-3.1c-0.2,0-0.4,0-0.6,0
		c-5.8,0.4-7.3,5-8.7,9c-0.8,2.4-1.7,4.9-3.3,6.8l-5,5.8c-0.6,0.7-0.5,1.7,0.2,2.3c0.3,0.3,0.7,0.4,1.1,0.4c0,0,0.1,0,0.1,0
		c0.4,0,0.8-0.2,1.1-0.6l5-5.8c2.1-2.4,3.1-5.3,3.9-7.9C15.8,27.3,16.8,24.9,20.2,24.7z"/>
	<path class="st0" d="M24.1,35.1c-0.4-0.3-0.8-0.4-1.2-0.3c-0.4,0.1-0.8,0.3-1.1,0.7c-0.4,0.5-1,0.9-1.6,1.2
		c-0.4,0.2-0.7,0.5-0.9,0.9c-0.2,0.4-0.2,0.8,0,1.3c0.2,0.6,0.9,1.1,1.6,1.1c0,0,0.1,0,0.1,0c0.2,0,0.3,0,0.5-0.1
		c1.3-0.5,2.4-1.3,3.2-2.3c0.3-0.4,0.4-0.8,0.3-1.2C24.7,35.8,24.4,35.4,24.1,35.1z"/>
</g>
</svg>
