<?xml version="1.0" encoding="utf-8"?>
<!-- Generator: Adobe Illustrator 26.4.1, SVG Export Plug-In . SVG Version: 6.00 Build 0)  -->
<svg version="1.1" id="Capa_1" xmlns="http://www.w3.org/2000/svg" xmlns:xlink="http://www.w3.org/1999/xlink" x="0px" y="0px"
	 viewBox="0 0 60 66" style="enable-background:new 0 0 60 66;" xml:space="preserve">
<style type="text/css">
	.st0{fill:#373869;}
</style>
<g>
	<path class="st0" d="M35.7,18.9c-0.7,0-1.4,0.6-1.4,1.4c0,0.7,0.6,1.4,1.4,1.4c0.7,0,1.4-0.6,1.4-1.4
		C37.1,19.5,36.5,18.9,35.7,18.9z"/>
	<path class="st0" d="M34.7,26.7c-0.3-0.2-0.6-0.2-0.9-0.1c-0.3,0.1-0.5,0.3-0.7,0.5c-0.2,0.3-0.4,0.4-0.8,0.4
		c-0.3,0-0.6-0.2-0.8-0.4c-0.1-0.2-0.2-0.3-0.4-0.4c-0.3-0.2-0.6-0.2-0.9-0.1c-0.3,0.1-0.5,0.3-0.7,0.5c-0.2,0.3-0.4,0.4-0.8,0.4
		s-0.6-0.2-0.8-0.4c-0.2-0.3-0.4-0.5-0.7-0.5c-0.3-0.1-0.6,0-0.9,0.1c-0.3,0.2-0.5,0.4-0.5,0.7c-0.1,0.3,0,0.6,0.1,0.9
		c0.4,0.6,0.9,1.1,1.6,1.4v2.7c0,1.6,1.3,2.9,2.9,2.9c1.6,0,2.9-1.3,2.9-2.9v-2.7c0.7-0.3,1.2-0.7,1.6-1.4c0.2-0.3,0.2-0.6,0.1-0.9
		C35.1,27.1,34.9,26.9,34.7,26.7z M31.2,29.7v2.7c0,0.3-0.3,0.6-0.6,0.6c-0.3,0-0.6-0.3-0.6-0.6v-2.7c0.2-0.1,0.4-0.2,0.6-0.3
		C30.8,29.5,31,29.6,31.2,29.7z"/>
	<path class="st0" d="M47.7,52.8L47.7,52.8c0.1-0.6,0.2-1.3,0.2-1.9c0-1.8-0.6-3.5-1.7-4.9c-0.9-1.1-2.1-1.9-3.4-2.4v-6
		c0-1.5-0.3-3-0.8-4.4l0,0c1.1-2,1.7-4.2,1.7-6.5l0-2.7l0-0.1l-0.1-13.2c0-1.1-0.4-2.1-1.2-2.9c-0.8-0.8-1.8-1.2-2.8-1.2
		c-1.1,0-2.1,0.4-2.9,1.2l-3.3,3.3c-0.9-0.2-1.9-0.3-2.9-0.3c-1,0-1.9,0.1-2.9,0.3l-3.3-3.3c-0.8-0.8-1.8-1.2-2.8-1.2
		c-1.1,0-2.1,0.4-2.9,1.2c-0.8,0.8-1.2,1.8-1.2,2.9l0.1,15.9c0,2.3,0.6,4.5,1.7,6.4c-0.2,0.4-0.3,0.9-0.4,1.3
		c-0.1,0.4-0.2,0.9-0.3,1.3l-4.3-4.3c-0.5-0.5-1.3-0.5-1.8,0c-4.2,4.2-4.2,11.1,0,15.3l1.4,1.4c-0.3,0.9-0.5,1.8-0.5,2.8
		c0,0.6,0.1,1.3,0.2,1.9h0c-1.6,0-3,1.3-3,3v1.5c0,1.1,0.9,2,2,2h36.2c1.1,0,2-0.9,2-2v-1.5C50.7,54.2,49.4,52.8,47.7,52.8z
		 M35.8,44c-0.7,0-1.3,0.6-1.3,1.3v11.5h-7.8V45.3c0-0.7-0.6-1.3-1.3-1.3c-0.7,0-1.3,0.6-1.3,1.3v11.5h-3.2c0-1.6,0-19.2,0-19.2
		c0-0.6,0.1-1.3,0.2-1.9c0.1,0.1,0.2,0.2,0.3,0.3c2.5,2.4,5.7,3.8,9.3,3.8c3.5,0,6.8-1.4,9.2-3.9l0.2-0.2c0.1,0.6,0.2,1.3,0.2,1.9
		v19.2H37V45.3C37,44.6,36.4,44,35.8,44z M39.8,14.6c-1.1-1.1-2.3-1.9-3.7-2.6l2.4-2.4v0c0.3-0.3,0.7-0.4,1.1-0.4
		c0.4,0,0.8,0.2,1.1,0.4c0.3,0.3,0.4,0.7,0.4,1.1l0,5.4C40.7,15.6,40.3,15.1,39.8,14.6z M30.7,37.2c-5.8,0-10.6-4.7-10.6-10.5v-2.8
		c0-3,1.3-5.8,3.5-7.8l1.6,0c1.8,0,3.4,0.8,4.6,2.1c0.2,0.2,0.5,0.4,0.8,0.4c0.3,0,0.6-0.1,0.8-0.3c0,0,0.1-0.1,0.1-0.1
		c0.6-0.7,1.2-1.2,2-1.6c0.8-0.4,1.6-0.6,2.5-0.6l1.7,0c0.1,0.1,0.2,0.2,0.3,0.3c2,2,3.1,4.6,3.1,7.4l0,3.1
		C41,32.6,36.3,37.2,30.7,37.2z M30.6,15.9c-1-0.9-2.3-1.5-3.6-1.8c1.2-0.4,2.4-0.7,3.7-0.7c1.3,0,2.5,0.2,3.7,0.7
		C32.9,14.3,31.6,14.9,30.6,15.9z M20,10.8c0-0.4,0.2-0.8,0.4-1.1c0.3-0.3,0.7-0.4,1.1-0.5c0.4,0,0.8,0.2,1.1,0.4l2.4,2.4
		c-2,0.9-3.7,2.4-5,4.1L20,10.8z M44.8,53.5c-0.2,0.4-0.2,0.9,0,1.2c0.2,0.4,0.6,0.6,1.1,0.6h1.9c0.3,0,0.5,0.2,0.5,0.5v1h-5.4V46.4
		c1.6,1,2.6,2.7,2.6,4.6C45.4,51.8,45.2,52.7,44.8,53.5z M18.4,43.6c-1.3,0.5-2.4,1.3-3.3,2.3L14.2,45c-2.9-2.9-3.2-7.5-0.8-10.8
		l5,5V43.6z M16.4,54.8c0.2-0.4,0.2-0.9,0-1.2c-0.4-0.8-0.6-1.7-0.6-2.5c0-0.8,0.2-1.6,0.5-2.3c0-0.1,0.1-0.2,0.2-0.3
		c0.5-0.8,1.1-1.5,1.9-2c0,0.8,0,9,0,10.4H13v-1c0-0.3,0.2-0.5,0.5-0.5h1.9C15.8,55.4,16.2,55.1,16.4,54.8z"/>
	<path class="st0" d="M26.3,21.4c0.2-0.1,0.3-0.3,0.4-0.5c0,0,0-0.1,0.1-0.1c0-0.1,0.1-0.3,0.1-0.4c0-0.2,0-0.4-0.1-0.5
		c0-0.1-0.1-0.2-0.1-0.2l0,0c-0.1-0.1-0.2-0.2-0.3-0.3c-0.1-0.1-0.1-0.1-0.2-0.1c-0.1,0-0.2-0.1-0.2-0.1c-0.3-0.1-0.5-0.1-0.8,0
		c-0.1,0-0.2,0.1-0.2,0.1c-0.3,0.1-0.5,0.4-0.6,0.7c-0.1,0.2-0.1,0.3-0.1,0.5c0,0.4,0.2,0.8,0.5,1c0.1,0.1,0.1,0.1,0.2,0.1
		c0.2,0.1,0.3,0.1,0.5,0.2c0,0,0.1,0,0.1,0c0.1,0,0.3,0,0.4-0.1c0.1,0,0.2-0.1,0.2-0.1C26.2,21.5,26.3,21.4,26.3,21.4z"/>
	<path class="st0" d="M30.1,24.8h1.1c0.7,0,1.3-0.6,1.3-1.3s-0.6-1.3-1.3-1.3h-1.1c-0.7,0-1.3,0.6-1.3,1.3S29.4,24.8,30.1,24.8z"/>
</g>
</svg>
