<?xml version="1.0" encoding="utf-8"?>
<!-- Generator: Adobe Illustrator 26.4.1, SVG Export Plug-In . SVG Version: 6.00 Build 0)  -->
<svg version="1.1" id="Capa_1" xmlns="http://www.w3.org/2000/svg" xmlns:xlink="http://www.w3.org/1999/xlink" x="0px" y="0px"
	 viewBox="0 0 60 66" style="enable-background:new 0 0 60 66;" xml:space="preserve">
<style type="text/css">
	.st0{fill:#373769;}
</style>
<g>
	<g>
		<path class="st0" d="M30,66c-1.9,0-3.8-0.5-5.5-1.5l-18.9-11C2.1,51.6,0,47.9,0,44V22c0-3.9,2.1-7.6,5.5-9.6l18.9-11
			c3.4-2,7.7-2,11.1,0l18.9,11c3.4,2,5.5,5.7,5.5,9.6V44c0,3.9-2.1,7.6-5.5,9.6l-18.9,11C33.8,65.5,31.9,66,30,66z M30,1.5
			c-1.7,0-3.3,0.4-4.8,1.3l-18.9,11c-3,1.7-4.8,4.9-4.8,8.3V44c0,3.4,1.8,6.6,4.8,8.3l18.9,11c3,1.7,6.6,1.7,9.6,0l18.9-11
			c3-1.7,4.8-4.9,4.8-8.3V22c0-3.4-1.8-6.6-4.8-8.3l-18.9-11C33.3,1.9,31.7,1.5,30,1.5z"/>
	</g>
	<path class="st0" d="M40.9,41.3c1.5-1.9,2.4-4.1,2.7-6.5l0.1-1h4.9v-1.6h-4.9l-0.1-1c-0.3-2.4-1.2-4.7-2.7-6.5l-0.7-0.8l3.4-3.4
		l-1.1-1.1l-3.4,3.4L38.2,22c-1.9-1.5-4.1-2.4-6.4-2.7l-1-0.1v-4.9h-1.6v4.9l-1,0.1c-2.4,0.3-4.6,1.2-6.5,2.7l-0.8,0.7l-3.4-3.5
		l-1.1,1.1l3.5,3.5l-0.7,0.8c-1.5,1.9-2.4,4.1-2.7,6.5l-0.1,1h-4.9v1.6h4.9l0.1,1.1c0.3,2.3,1.2,4.5,2.6,6.4l0.7,0.9l-3.4,3.4
		l1.1,1.1l3.4-3.4l0.9,0.7c1.9,1.5,4.1,2.4,6.4,2.7l1,0.1v4.9h1.6v-4.9l1.1-0.1c2.3-0.3,4.5-1.2,6.3-2.6l0.9-0.7l3.4,3.4l1.1-1.1
		l-3.4-3.4L40.9,41.3z M32.4,44.9c-0.8,0.2-1.6,0.2-2.4,0.2c-3.5,0-6.8-1.5-9.1-4.1c-2.9-3.3-3.8-7.8-2.4-12c1.1-3.5,4-6.4,7.5-7.5
		c4.3-1.4,8.7-0.5,12,2.4c3.2,2.9,4.7,7.2,3.9,11.5C41,40.1,37.1,44,32.4,44.9z"/>
	<path class="st0" d="M26.3,29.8c0-0.3-0.1-0.6-0.3-0.8c-0.2-0.2-0.5-0.3-0.8-0.3c-0.3,0-0.6,0.1-0.8,0.3c-0.2,0.2-0.3,0.5-0.3,0.8
		s0.1,0.6,0.3,0.8c0.4,0.4,1.2,0.4,1.6,0C26.2,30.4,26.3,30.1,26.3,29.8z"/>
	<path class="st0" d="M34.2,28.8c0,0-0.1,0.1-0.1,0.1L34,29c-0.1,0.1-0.1,0.2-0.2,0.3c-0.1,0.2-0.1,0.3-0.1,0.5c0,0.1,0,0.3,0.1,0.4
		c0.1,0.2,0.1,0.3,0.2,0.4c0.1,0.1,0.1,0.1,0.1,0.1c0.1,0.1,0.1,0.1,0.2,0.1c0.1,0.1,0.2,0.1,0.2,0.1c0.1,0,0.2,0,0.2,0
		c0.3,0,0.6-0.1,0.8-0.3c0.2-0.2,0.3-0.5,0.3-0.8c0-0.1,0-0.3-0.1-0.4v0c-0.1-0.2-0.1-0.3-0.3-0.4c-0.2-0.2-0.5-0.3-0.8-0.3
		c-0.1,0-0.1,0-0.2,0c-0.1,0-0.1,0-0.2,0.1C34.3,28.7,34.3,28.8,34.2,28.8z"/>
	<path class="st0" d="M32.7,38.3c0.1-0.2,0.1-0.3,0.1-0.4c0-0.3-0.1-0.6-0.3-0.8c-0.1-0.1-0.3-0.2-0.4-0.2c-0.1-0.1-0.3-0.1-0.4-0.1
		c-0.3,0-0.6,0.1-0.8,0.3c-0.1,0.1-0.2,0.2-0.2,0.4c-0.1,0.2-0.1,0.3-0.1,0.5c0,0.3,0.1,0.6,0.3,0.8c0.4,0.4,1.2,0.4,1.6,0
		C32.5,38.6,32.6,38.4,32.7,38.3z"/>
</g>
</svg>
