<?xml version="1.0" encoding="utf-8"?>
<!-- Generator: Adobe Illustrator 26.4.1, SVG Export Plug-In . SVG Version: 6.00 Build 0)  -->
<svg version="1.1" id="Capa_1" xmlns="http://www.w3.org/2000/svg" xmlns:xlink="http://www.w3.org/1999/xlink" x="0px" y="0px"
	 viewBox="0 0 60 66" style="enable-background:new 0 0 60 66;" xml:space="preserve">
<style type="text/css">
	.st0{fill:#373769;}
	.st1{fill:#373869;}
</style>
<g>
	<g>
		<path class="st0" d="M30,66c-1.9,0-3.8-0.5-5.5-1.5l-18.9-11C2.1,51.6,0,47.9,0,44V22c0-3.9,2.1-7.6,5.5-9.6l18.9-11
			c3.4-2,7.7-2,11.1,0l18.9,11c3.4,2,5.5,5.7,5.5,9.6V44c0,3.9-2.1,7.6-5.5,9.6l-18.9,11C33.8,65.5,31.9,66,30,66z M30,1.5
			c-1.7,0-3.3,0.4-4.8,1.3l-18.9,11c-3,1.7-4.8,4.9-4.8,8.3V44c0,3.4,1.8,6.6,4.8,8.3l18.9,11c3,1.7,6.6,1.7,9.6,0l18.9-11
			c3-1.7,4.8-4.9,4.8-8.3V22c0-3.4-1.8-6.6-4.8-8.3l-18.9-11C33.3,1.9,31.7,1.5,30,1.5z"/>
	</g>
	<g>
		<path class="st1" d="M16.9,23c0.8,0,1.4-0.6,1.4-1.4c0-0.8-0.6-1.4-1.4-1.4c-0.8,0-1.4,0.6-1.4,1.4C15.6,22.4,16.2,23,16.9,23z"/>
		<path class="st1" d="M30,14.3c-3.1,0-6.1,0.8-8.8,2.2c-0.6,0.3-0.9,1.1-0.5,1.8c0.3,0.6,1.1,0.9,1.8,0.5c2.3-1.2,4.9-1.9,7.5-1.9
			c3.9,0,7.4,1.4,10.2,3.7l-3.6,3.5c-0.1-0.1-0.1-0.1-0.2-0.1c-0.3-0.2-0.6-0.2-0.9,0c-0.1,0.1-2.4,1.5-2.4,3.5c0,0,0,0,0,0.1
			l-1.1,1c-0.2,0-0.4,0.1-0.4,0.1c-0.3,0.1-0.6,0.3-0.6,0.6c0,0.1,0,0.2-0.1,0.4L29,31.9c0-0.3-0.1-0.6-0.1-0.6
			c0-0.2-0.2-0.4-0.4-0.5c0.8-1.4,0.4-3.4,0.4-3.6c-0.1-0.3-0.3-0.6-0.6-0.6c-0.1,0-0.8-0.2-1.6-0.1c0.1-0.3,0.2-0.7,0.2-1
			c0-1.9-2.1-3.4-2.4-3.5c-0.3-0.2-0.6-0.2-0.9,0c-0.2,0.2-2.4,1.6-2.4,3.5c0,0.3,0.1,0.7,0.2,1c-0.9,0-1.6,0.1-1.6,0.1
			c-0.3,0.1-0.6,0.3-0.6,0.6c-0.1,0.2-0.4,2.2,0.4,3.6c-0.2,0.1-0.3,0.3-0.4,0.5c0,0-0.5,2.2,0.4,3.6c-0.2,0.1-0.4,0.3-0.4,0.6
			c0,0-0.5,2.1,0.4,3.6c-0.2,0.1-0.3,0.3-0.4,0.5c0,0.1-0.2,1.1-0.1,2.2l-1.4,1.4c-2.3-2.8-3.7-6.3-3.7-10.2c0-1.9,0.3-3.8,1-5.6
			c0.3-0.7-0.1-1.4-0.8-1.7c-0.7-0.2-1.4,0.1-1.7,0.8c-0.8,2.1-1.2,4.3-1.2,6.5c0,10.3,8.4,18.7,18.7,18.7
			c10.3,0,18.7-8.4,18.7-18.7C48.7,22.7,40.3,14.3,30,14.3z M32.7,34.4c0.8-0.1,1.6,0,2,0.4c0.4,0.4,0.4,1,0.5,1.5v0.2
			c0,0.1,0,0.2,0,0.4c-0.7,0.1-1.6,0-2-0.4C32.7,36,32.6,35.2,32.7,34.4z M32.7,30.3c0.8-0.1,1.6,0,2,0.4c0.4,0.4,0.4,1,0.5,1.5v0.1
			c0,0.1,0,0.2,0,0.4c-0.7,0.1-1.6,0-2-0.4C32.7,31.9,32.6,31,32.7,30.3z M32.7,38.6c0.8-0.1,1.6,0,2,0.4c0.4,0.4,0.4,1,0.5,1.5v0.2
			c0,0.1,0,0.2,0,0.4c-0.7,0.1-1.6,0-2-0.4C32.7,40.2,32.6,39.4,32.7,38.6z M34.9,27.5c0-0.6,0.6-1.3,1.1-1.7
			c0.6,0.5,1.1,1.2,1.1,1.7c0,0.6-0.6,1.3-1.1,1.7C35.5,28.8,34.9,28.1,34.9,27.5z M36.9,32.8c0-0.1,0-0.2,0-0.3v-0.3
			c0-0.5,0.1-1.1,0.5-1.4c0.4-0.4,1.3-0.5,2-0.4c0.1,0.7,0,1.6-0.4,2C38.4,32.8,37.4,32.8,36.9,32.8z M36.9,36.9c0-0.1,0-0.2,0-0.3
			v-0.3c0-0.5,0.1-1.1,0.5-1.4c0.4-0.4,1.3-0.5,2-0.4c0.1,0.7,0,1.6-0.4,2C38.5,36.9,37.6,36.9,36.9,36.9z M36.9,40.5
			c0-0.5,0.1-1.1,0.5-1.4c0.4-0.4,1.3-0.5,2-0.4c0,0.5,0.1,1.5-0.4,2c-0.4,0.4-1.3,0.5-2,0.4c0-0.1,0-0.2,0-0.3V40.5z M22.9,25.3
			c0-0.6,0.5-1.3,1.1-1.7c0.6,0.5,1.1,1.2,1.1,1.7c0,0.7-0.7,1.4-1.1,1.7C23.4,26.6,22.9,25.9,22.9,25.3z M20.8,42.1
			c-0.2-0.4-0.2-1-0.2-1.5c0.7-0.1,1.6,0,2,0.4c0.4,0.4,0.4,1,0.5,1.5v0.2c0,0.1,0,0.2,0,0.4c-0.7,0.1-1.6,0-2-0.4
			c-0.1-0.1-0.2-0.2-0.2-0.4L20.8,42.1z M20.6,36.4c0.8-0.1,1.6,0,2,0.4c0.4,0.4,0.4,1,0.5,1.5v0.2c0,0.1,0,0.2,0,0.4
			c-0.7,0.1-1.6,0-2-0.4C20.7,38,20.6,37.1,20.6,36.4z M22.7,32.6c0.4,0.4,0.4,1,0.5,1.5v0.2c0,0.1,0,0.2,0,0.4
			c-0.7,0.1-1.6,0-2-0.4c-0.4-0.4-0.5-1.3-0.4-2C21.4,32.1,22.3,32.2,22.7,32.6z M23.1,30.2c0,0.1,0,0.2,0,0.4c-0.5,0-1.5,0.1-2-0.4
			c-0.4-0.4-0.5-1.3-0.4-2c0.7-0.1,1.6,0,2,0.4c0.4,0.4,0.4,1,0.5,1.5V30.2z M24.8,38.9c0-0.1,0-0.2,0-0.3v-0.3
			c0-0.5,0.1-1.1,0.5-1.4c0.4-0.4,1.3-0.5,2-0.4c0.1,0.7,0,1.6-0.4,2C26.4,38.8,25.6,38.9,24.8,38.9z M24.8,34.7c0-0.1,0-0.2,0-0.4
			v-0.1c0-0.5,0.1-1.2,0.5-1.5c0.4-0.4,1.3-0.5,2-0.4c0.1,0.7,0,1.6-0.4,2C26.4,34.6,25.6,34.7,24.8,34.7z M26.9,30.1
			c-0.4,0.4-1.3,0.5-2,0.4c0-0.1,0-0.2,0-0.4V30c0-0.5,0.1-1.2,0.5-1.5c0.5-0.5,1.5-0.5,2-0.4C27.4,28.8,27.3,29.7,26.9,30.1z
			 M27.3,40.6c0.1,0.7,0,1.6-0.4,2c-0.4,0.4-1.3,0.5-2,0.4c0-0.1,0-0.2,0-0.3v-0.3c0-0.5,0.1-1.1,0.5-1.4
			C25.7,40.6,26.5,40.5,27.3,40.6z M23.1,44.7v2.8c-1.3-0.6-2.6-1.5-3.7-2.4l0.9-0.9C21.3,44.7,22.4,44.8,23.1,44.7z M24.8,48.2
			C24.8,48.2,24.8,48.2,24.8,48.2l0-3.5c0.9,0.1,2.3,0,3.2-0.9c1.4-1.4,0.8-4,0.8-4.2c-0.1-0.2-0.2-0.4-0.4-0.5
			c0.7-1.3,0.5-3,0.4-3.5l2.3-2.3c0,0.1-0.1,0.1-0.1,0.2c0,0-0.5,2.2,0.4,3.6c-0.2,0.1-0.4,0.3-0.4,0.6c0,0.1-0.6,2.7,0.8,4.2
			c0.9,0.9,2.4,1,3.2,0.9v5.4c-1.6,0.6-3.4,0.9-5.2,0.9C28.2,49.1,26.4,48.8,24.8,48.2z M36.9,47.5v-4.7c0.9,0.1,2.3,0,3.2-0.9
			c1.4-1.4,0.8-4,0.8-4.2c-0.1-0.2-0.2-0.4-0.4-0.6c0.9-1.5,0.4-3.5,0.4-3.6c0-0.2-0.2-0.4-0.4-0.5c0.8-1.4,0.4-3.4,0.4-3.6
			c-0.1-0.3-0.3-0.6-0.6-0.6c0,0-0.8-0.2-1.6-0.1c0.1-0.3,0.2-0.7,0.2-1c0-0.5-0.1-1-0.4-1.4l3.6-3.7c2.5,2.8,4,6.5,4,10.5
			C46.1,39.4,42.3,44.9,36.9,47.5z"/>
	</g>
</g>
</svg>
