<?xml version="1.0" encoding="utf-8"?>
<!-- Generator: Adobe Illustrator 26.4.1, SVG Export Plug-In . SVG Version: 6.00 Build 0)  -->
<svg version="1.1" id="Capa_1" xmlns="http://www.w3.org/2000/svg" xmlns:xlink="http://www.w3.org/1999/xlink" x="0px" y="0px"
	 viewBox="0 0 60 66" style="enable-background:new 0 0 60 66;" xml:space="preserve">
<style type="text/css">
	.st0{fill:#363769;}
	.st1{fill:#373769;}
</style>
<g>
	<g>
		<path class="st0" d="M25.5,40.3l-0.4,0.1c-0.4,0.1-0.6,0.5-0.6,0.9c0.1,0.3,0.4,0.6,0.7,0.6c0.1,0,0.1,0,0.2,0l0.6-0.1
			c0.2,0.5,0.6,1,0.9,1.4l-0.3,0.2c-0.3,0.2-0.4,0.7-0.1,1c0.1,0.2,0.4,0.3,0.6,0.3c0.2,0,0.3,0,0.4-0.1l0.5-0.4
			c0.4,0.3,0.8,0.6,1.2,0.8L29,45.6c-0.1,0.4,0.2,0.8,0.6,0.9c0,0,0.1,0,0.1,0c0.4,0,0.7-0.3,0.7-0.6l0.1-0.3
			c0.3,0.1,0.5,0.1,0.7,0.1c0.9,0,1.5-0.4,1.8-0.9c0.4-0.8,0.3-1.8-0.4-2.3c0,0-0.1-0.1-0.1-0.1l0.1-0.1c0.3-0.3,0.3-0.7,0-1
			c-0.3-0.3-0.7-0.3-1,0l-0.5,0.5c-0.5-0.2-0.9-0.5-1.2-1.1l0.5-0.4c0.3-0.2,0.4-0.7,0.1-1c-0.2-0.3-0.7-0.4-1-0.1L29.4,39
			c-0.2-0.4-0.6-0.8-1.1-0.9c-0.8-0.3-1.7-0.1-2.3,0.5C25.8,38.9,25.4,39.5,25.5,40.3z M27.1,39.6c0.2-0.2,0.5-0.2,0.8-0.1
			c0.2,0.1,0.3,0.1,0.3,0.3c0.3,2.3,1.8,3,2.8,3.4c0.3,0.1,0.6,0.2,0.7,0.4c0.1,0.1,0.1,0.3,0,0.4c-0.1,0.2-0.6,0.3-1.1,0.1
			c-1.7-0.6-2.9-1.8-3.5-3.4C27,40.4,26.9,39.9,27.1,39.6z"/>
		<path class="st0" d="M29.6,33.2c-0.3-0.3-0.8-0.3-1,0c-0.3,0.3-0.3,0.8,0,1l10.2,10.2c-2.5,1.9-5.6,2.9-8.7,2.9
			c-7.9,0-14.4-6.5-14.4-14.4c0-3.2,1-6.2,2.9-8.7l5.8,5.8c0.3,0.3,0.8,0.3,1,0c0.3-0.3,0.3-0.8,0-1L19,22.6
			c-0.1-0.1-0.3-0.2-0.5-0.2c-0.2,0-0.4,0.1-0.5,0.3c-2.4,2.9-3.8,6.5-3.8,10.3c0,8.8,7.1,15.9,15.9,15.9c3.8,0,7.4-1.3,10.3-3.8
			c0.2-0.1,0.2-0.3,0.3-0.5c0-0.2-0.1-0.4-0.2-0.6L29.6,33.2z"/>
		<path class="st0" d="M43.3,19.6c-3.6-3.6-8.3-5.5-13.3-5.5H30c-5,0-9.8,2-13.3,5.5c-3.6,3.6-5.5,8.3-5.5,13.4
			c0,5.1,2,9.8,5.5,13.4c3.6,3.6,8.3,5.5,13.3,5.5c5,0,9.8-2,13.3-5.5c3.6-3.6,5.5-8.3,5.5-13.4V33C48.9,27.9,46.9,23.2,43.3,19.6z
			 M47.4,33c0,9.6-7.8,17.4-17.4,17.4c-9.6,0-17.4-7.8-17.4-17.4c0-9.6,7.8-17.4,17.4-17.4H30C39.6,15.6,47.4,23.4,47.4,33L47.4,33z
			"/>
		<path class="st0" d="M30,17.1c-3.5,0-6.9,1.1-9.6,3.3c-0.2,0.1-0.3,0.3-0.3,0.5c0,0.2,0.1,0.4,0.2,0.6L35.7,37c0,0,0,0,0,0
			l1.8,1.8l3.9,4c0.1,0.1,0.3,0.2,0.5,0.2c0,0,0,0,0,0c0.2,0,0.4-0.1,0.5-0.3c2.1-2.8,3.3-6.1,3.3-9.7C45.9,24.2,38.7,17.1,30,17.1z
			 M37.3,36.5c1.2-1.3,1.2-2.8,1.1-3.8c0,0,0,0,0,0c0,0,0,0,0,0c0,0,0,0,0,0c0-0.3,0-0.7,0-0.9c0.1-0.2,0.3-0.4,0.5-0.3
			c0.4,0,0.7,0.5,0.7,1.2v0c0.1,0.8,0,1.6-0.2,2.4c0,0,0,0.1,0,0.1c-0.2,0.9-0.6,1.7-1.2,2.4L37.3,36.5z M41.9,41.1l-2.4-2.4
			c0.6-0.7,1-1.4,1.3-2.3l0.3,0.1c0.1,0.1,0.2,0.1,0.3,0.1c0.3,0,0.5-0.2,0.7-0.4c0.2-0.4,0-0.8-0.3-1l-0.6-0.3
			c0.1-0.5,0.1-1,0.1-1.5h0.4c0.4,0,0.7-0.3,0.7-0.7c0-0.4-0.3-0.7-0.7-0.7h-0.6c-0.3-1.3-1.2-1.9-2-1.9c-1-0.1-1.8,0.6-2.1,1.5
			c0,0.2-0.1,0.3-0.1,0.5h-0.5c-0.4,0-0.7,0.3-0.7,0.7c0,0.4,0.3,0.7,0.7,0.7H37c0,0.7-0.1,1.4-0.7,2L21.9,21.1
			c2.4-1.6,5.2-2.5,8.1-2.5c7.9,0,14.4,6.5,14.4,14.4C44.4,35.9,43.5,38.7,41.9,41.1z"/>
		<path class="st0" d="M19.9,40c0.2,0,0.3,0.1,0.5,0.1c0.4,0,0.8-0.1,1.2-0.3c0.5-0.3,0.9-0.8,1-1.4c0.1-0.6,0-1.2-0.3-1.7
			c-0.3-0.5-0.8-0.9-1.4-1c-0.6-0.1-1.2,0-1.7,0.3c-0.5,0.3-0.9,0.8-1,1.4c-0.1,0.6,0,1.2,0.3,1.7C18.8,39.5,19.3,39.9,19.9,40z
			 M19.7,37.6c0-0.2,0.2-0.4,0.4-0.5c0.1-0.1,0.3-0.1,0.4-0.1c0.1,0,0.1,0,0.2,0c0.2,0,0.4,0.2,0.5,0.4c0.1,0.2,0.1,0.4,0.1,0.6
			c-0.1,0.4-0.5,0.7-0.9,0.6C19.8,38.5,19.6,38,19.7,37.6z"/>
		<path class="st0" d="M21.8,30.5c-0.3-0.5-0.8-0.9-1.4-1c-0.6-0.1-1.2,0-1.7,0.3c-0.5,0.3-0.9,0.8-1,1.4c-0.1,0.6,0,1.2,0.3,1.7
			c0.3,0.5,0.8,0.9,1.4,1c0.2,0,0.3,0.1,0.5,0.1c1,0,2-0.7,2.2-1.8C22.2,31.7,22.1,31.1,21.8,30.5z M20.6,31.9
			c-0.1,0.4-0.5,0.7-0.9,0.6c-0.2,0-0.4-0.2-0.5-0.4c-0.1-0.2-0.1-0.4-0.1-0.6c0-0.2,0.2-0.4,0.4-0.5c0.1-0.1,0.3-0.1,0.4-0.1
			c0.1,0,0.1,0,0.2,0c0.2,0,0.4,0.2,0.5,0.4S20.7,31.7,20.6,31.9z"/>
		<path class="st0" d="M29.9,21.7c-0.6-0.1-1.2,0-1.7,0.3c-0.5,0.3-0.9,0.8-1,1.4c-0.1,0.6,0,1.2,0.3,1.7c0.3,0.5,0.8,0.9,1.4,1
			c0.2,0,0.3,0.1,0.5,0.1c0.4,0,0.8-0.1,1.2-0.3c0.5-0.3,0.9-0.8,1-1.4C31.9,23.2,31.1,21.9,29.9,21.7z M30.1,24
			c0,0.2-0.2,0.4-0.4,0.5c-0.2,0.1-0.4,0.1-0.6,0.1c-0.2,0-0.4-0.2-0.5-0.4c-0.1-0.2-0.1-0.4-0.1-0.6c0-0.2,0.2-0.4,0.4-0.5
			c0.1-0.1,0.3-0.1,0.4-0.1c0.1,0,0.1,0,0.2,0C30,23.2,30.2,23.6,30.1,24z"/>
		<path class="st0" d="M35.5,24.1c-0.6-0.1-1.1,0-1.6,0.3c-0.5,0.3-0.8,0.8-1,1.3c-0.1,0.6,0,1.1,0.3,1.6c0.3,0.5,0.8,0.8,1.3,1
			c0.2,0,0.3,0.1,0.5,0.1c0.4,0,0.8-0.1,1.1-0.3c0.5-0.3,0.8-0.8,1-1.3C37.3,25.5,36.6,24.4,35.5,24.1z M35.6,26.4L35.6,26.4
			c0,0.2-0.1,0.3-0.3,0.4c-0.2,0.1-0.3,0.1-0.5,0.1c-0.2,0-0.3-0.1-0.4-0.3c-0.1-0.2-0.1-0.3-0.1-0.5c0-0.2,0.1-0.3,0.3-0.4
			c0.1-0.1,0.2-0.1,0.4-0.1c0.1,0,0.1,0,0.2,0c0.2,0,0.3,0.2,0.4,0.3C35.6,26,35.7,26.2,35.6,26.4z"/>
		<path class="st0" d="M27,32.4c0.2,0,0.3-0.1,0.5-0.2c0.3-0.3,0.4-0.7,0.1-1l0,0c-0.3-0.3-0.7-0.4-1-0.1c-0.3,0.3-0.4,0.7-0.1,1
			l0,0C26.5,32.3,26.8,32.4,27,32.4z"/>
	</g>
	<path class="st1" d="M30,66c-1.9,0-3.8-0.5-5.5-1.5l-18.9-11C2.1,51.6,0,47.9,0,44V22c0-3.9,2.1-7.6,5.5-9.6l18.9-11
		c3.4-2,7.7-2,11.1,0l18.9,11c3.4,2,5.5,5.7,5.5,9.6V44c0,3.9-2.1,7.6-5.5,9.6l-18.9,11C33.8,65.5,31.9,66,30,66z M30,1.5
		c-1.7,0-3.3,0.4-4.8,1.3l-18.9,11c-3,1.7-4.8,4.9-4.8,8.3V44c0,3.4,1.8,6.6,4.8,8.3l18.9,11c3,1.7,6.6,1.7,9.6,0l18.9-11
		c3-1.7,4.8-4.9,4.8-8.3V22c0-3.4-1.8-6.6-4.8-8.3l-18.9-11C33.3,1.9,31.7,1.5,30,1.5z"/>
</g>
</svg>
