<?xml version="1.0" encoding="utf-8"?>
<!-- Generator: Adobe Illustrator 26.4.1, SVG Export Plug-In . SVG Version: 6.00 Build 0)  -->
<svg version="1.1" id="Capa_1" xmlns="http://www.w3.org/2000/svg" xmlns:xlink="http://www.w3.org/1999/xlink" x="0px" y="0px"
	 viewBox="0 0 55 60" style="enable-background:new 0 0 55 60;" xml:space="preserve">
<style type="text/css">
	.st0{fill:#3654A8;}
	.st1{fill:#FF6D7A;}
	.st2{fill:#ED3E57;}
	.st3{fill:#FF9FAB;}
	.st4{fill:#FFFFFF;}
	.st5{fill:#42DB8F;}
	.st6{fill:url(#SVGID_1_);}
</style>
<g>
	<path class="st0" d="M50.1,48.5L32.4,58.7c-3,1.7-6.7,1.7-9.7,0L4.9,48.5c-3-1.7-4.9-4.9-4.9-8.3V19.8c0-3.4,1.8-6.6,4.9-8.3
		L22.6,1.3c3-1.7,6.7-1.7,9.7,0l17.8,10.2c3,1.7,4.9,4.9,4.9,8.3v20.4C55,43.6,53.2,46.8,50.1,48.5z"/>
	<g>
		<path class="st1" d="M48.5,9.1c-0.6-1.5-2.1-2.4-4.3-1.1c-1.7,1.3-3.7,2.4-5.8,3.1c0,0,0,0,0,0c-1.4-0.8-3-1.1-4.5-0.8
			c-8.9,1.3-18.1-0.4-23.6,3.9C2.3,20.3,5,38.7,12.1,44.4c7,5.6,7.6-2.9,12.8-6.4c2.5-1.7,7.9-3.4,13.1-6.1c2.1-1.1,3.7-2.8,4.8-4.7
			c0,0,0,0,0,0C47.5,24,51.7,17.4,48.5,9.1L48.5,9.1z"/>
		<path class="st2" d="M48.5,9.1c3.2,8.3-1,14.9-5.6,18c-0.1,0,1.3-1.9,1.4-5.1c0-0.4,0-0.7,0-1.1c-0.5-3.8-2.4-6.7-4.1-8.6
			c-0.5-0.5-1.1-1-1.7-1.4c2.1-0.7,4.1-1.7,5.8-3.1C46.3,6.7,47.9,7.6,48.5,9.1L48.5,9.1z"/>
		<path class="st3" d="M38.1,10.9c0.9,0.5,0.7,1.9-0.5,2c-8.9,1.3-18.1-0.4-23.6,3.9C10,20,8.7,26.4,9.4,32.7c0.2,2-2.8,2.5-3.3,0.5
			C4.5,26,5.5,17.8,10.3,14.1c5.5-4.2,14.7-2.5,23.6-3.9C35.4,10,36.8,10.2,38.1,10.9z"/>
		<path class="st4" d="M18,17.6c-0.7,0-1-0.9-0.5-1.3c0.1,0,0.1-0.1,0.2-0.1c0.3-0.2,0.8-0.2,1.1,0.2c0.3,0.3,0.2,0.8-0.2,1
			C18.4,17.5,18.3,17.6,18,17.6z"/>
		<path class="st4" d="M10.9,28.4c-0.5,0-0.8-0.4-0.7-0.9c0.8-3.4,2.5-6.5,4.9-9c0.3-0.3,0.8-0.3,1.1,0c0.3,0.3,0.3,0.7,0,1
			c-2.2,2.3-3.8,5.2-4.5,8.3C11.5,28.2,11.2,28.4,10.9,28.4z"/>
		<path class="st2" d="M31.4,44.3l-2.8,0.8c-0.4,0.1-0.9-0.2-1-0.6c-0.7-5.1-3.7-9.5-8.3-12.4c-0.3-0.2-0.4-0.6-0.3-0.9l1.3-3
			c0.2-0.4,0.7-0.6,1.1-0.4c1,0.5,1.9,1.1,2.9,1.7c0.4,0.3,0.9,0.1,1.1-0.3c0.7-1.4,1.5-2.6,2.5-3.7c0.2-0.3,0.7-0.3,1-0.1l2.3,1.4
			c0.4,0.2,0.5,0.7,0.2,1c-0.5,0.7-1.1,1.7-1.5,3c-0.8,2.5-0.3,4.7,0.3,7.4c0.3,1.3,0.8,3.1,1.6,5.1C32.1,43.7,31.9,44.2,31.4,44.3z
			"/>
		<path class="st1" d="M45.9,9.7c-0.2,0.1-0.4,0.2-0.6,0.3c-1.1,0.9-2.4,1.6-3.7,2.2c-0.7,0.3-1.5,0.2-2.1-0.3
			c-0.3-0.3-0.7-0.6-1.2-0.9c2.1-0.7,4.1-1.7,5.8-3.1c0.3-0.2,0.6-0.3,0.8-0.4C46.4,7,47.3,9.1,45.9,9.7z"/>
	</g>
	<g>
		<g>
			<path class="st5" d="M50.7,36.8c-3.8,0-7.7-3.5-7.7-3.5c-0.3-0.2-0.7-0.2-0.9,0c0,0-3.9,3.5-7.7,3.5c-0.4,0-0.7,0.3-0.7,0.7v8.1
				c0,6.5,4.9,9.1,8.6,10.5c0.1,0,0.2,0,0.2,0c0.1,0,0.2,0,0.2,0c5.2-2,8.6-5,8.6-10.5v-8.1C51.3,37.2,51,36.8,50.7,36.8z"/>
		</g>
	</g>
	<g>
		<g>
			
				<linearGradient id="SVGID_1_" gradientUnits="userSpaceOnUse" x1="42.5066" y1="11.9092" x2="42.5066" y2="20.7296" gradientTransform="matrix(1 0 0 -1 0 61)">
				<stop  offset="0" style="stop-color:#C3FFE8"/>
				<stop  offset="0.9973" style="stop-color:#F0FFF4"/>
			</linearGradient>
			<path class="st6" d="M48,42.6l-6.2,6.1c-0.3,0.3-0.6,0.4-1,0.4s-0.7-0.1-1-0.4L37,45.9c-0.5-0.5-0.5-1.4,0-1.9
				c0.5-0.5,1.4-0.5,1.9,0l1.9,1.8l5.2-5.2c0.5-0.5,1.4-0.5,1.9,0C48.5,41.2,48.5,42,48,42.6z"/>
		</g>
	</g>
</g>
</svg>
