<?xml version="1.0" encoding="utf-8"?>
<!-- Generator: Adobe Illustrator 26.4.1, SVG Export Plug-In . SVG Version: 6.00 Build 0)  -->
<svg version="1.1" id="Capa_1" xmlns="http://www.w3.org/2000/svg" xmlns:xlink="http://www.w3.org/1999/xlink" x="0px" y="0px"
	 viewBox="0 0 60 66" style="enable-background:new 0 0 60 66;" xml:space="preserve">
<style type="text/css">
	.st0{fill:#373869;}
</style>
<g>
	<g>
		<path class="st0" d="M13.7,22.9c-0.4,0.1-0.9,0.2-1.3,0.4c-0.5,0.2-0.9,0.5-1.3,0.8l0,0c0,0-0.1,0.1,0,0.1c0,0,0,0.1,0.1,0.1
			c0.4,0.3,0.8,0.6,1.3,0.8c0.4,0.2,0.8,0.3,1.3,0.4c0.9,0.1,1.7,0,2.5-0.3c0.8-0.1,1.7-0.2,2.5-0.4c0.3-0.1,0.7-0.1,1-0.2
			c-2.1,3.3-0.4,7.7,5,13.2c5.6,5.6,12.6,9.5,20.3,11.3c0.3,0.1,0.6,0,0.8-0.2c0.2-0.2,0.3-0.5,0.2-0.8c-1.8-7.7-5.7-14.7-11.3-20.3
			c-5.5-5.5-9.9-7.2-13.2-5c0.1-0.3,0.1-0.7,0.2-1c0.2-0.8,0.3-1.7,0.4-2.5c0.2-0.8,0.3-1.7,0.3-2.5c-0.1-0.4-0.2-0.9-0.4-1.3
			c-0.2-0.5-0.5-0.9-0.8-1.3l0,0c0,0-0.1-0.1-0.1,0c0,0-0.1,0-0.1,0.1c-0.3,0.4-0.6,0.8-0.8,1.3c-0.2,0.4-0.3,0.8-0.4,1.3
			c-0.1,0.9,0,1.7,0.3,2.5c0.1,0.8,0.2,1.7,0.4,2.5l0,0c-0.3-0.8-0.6-1.6-0.9-2.4c-0.2-0.8-0.5-1.6-1-2.3c-0.3-0.3-0.6-0.6-1-0.9
			c-0.4-0.3-0.9-0.5-1.3-0.7l0,0c0,0-0.1,0-0.1,0c0,0-0.1,0.1-0.1,0.1C16,16,16,16.5,16,17c0,0.4,0.1,0.9,0.3,1.3
			c0.4,0.8,0.9,1.5,1.5,2.1c0.5,0.7,1.1,1.4,1.6,2c0.1,0.1,0.1,0.2,0.2,0.2c-0.1-0.1-0.2-0.1-0.2-0.2c-0.7-0.6-1.3-1.1-2-1.6
			c-0.6-0.6-1.3-1.1-2.1-1.5c-0.4-0.1-0.9-0.2-1.3-0.3c-0.5-0.1-1,0-1.5,0.1l0,0c0,0-0.1,0-0.1,0.1s0,0.1,0,0.1
			c0.2,0.5,0.4,0.9,0.7,1.3c0.3,0.4,0.6,0.7,0.9,1c0.7,0.5,1.5,0.8,2.3,1c0.8,0.3,1.6,0.6,2.4,0.9c-0.8-0.2-1.7-0.3-2.5-0.4
			C15.4,22.9,14.5,22.8,13.7,22.9z M30.6,26.3c-0.1,0.1-0.1,0.3-0.2,0.5c-0.1,0.8-0.6,1.5-1.2,2.1l-1,1.1c-0.3,0.2-0.4,0.6-0.3,0.9
			s0.3,0.6,0.7,0.7c0.3,0.1,0.7,0,0.9-0.3l1.1-1.1c0.7-0.7,1.3-1.6,1.6-2.5c0.5,0.4,1,0.9,1.5,1.4c0.3,0.3,0.6,0.6,0.9,0.9
			c-0.2,0.2-0.3,0.4-0.3,0.6c-0.1,0.8-0.6,1.5-1.2,2.1L32,33.7c-0.2,0.2-0.3,0.6-0.2,0.9c0.1,0.3,0.3,0.6,0.6,0.6
			c0.3,0.1,0.6,0,0.9-0.2l1.1-1.1c0.7-0.7,1.3-1.5,1.6-2.4c0.8,0.9,1.5,1.9,2.2,2.8c0,0,0,0,0,0c-0.1,0.8-0.6,1.5-1.2,2.1l-1.1,1.1
			c-0.2,0.2-0.3,0.6-0.2,0.9c0.1,0.3,0.3,0.6,0.6,0.6c0.3,0.1,0.6,0,0.9-0.2l1.1-1.1c0.5-0.4,0.8-1,1.2-1.5c2.1,3.4,3.7,7,4.8,10.8
			c-6.8-1.9-13-5.5-18-10.4c-7.9-7.9-5.1-10.8-4.2-11.7c0.7-0.8,1.7-1.3,2.8-1.3C26.1,23.6,28,24.3,30.6,26.3z"/>
		<path class="st0" d="M27.6,36.5c0.4,0,0.7-0.2,0.8-0.6s0.1-0.7-0.2-1c-3.8-3.8-4.1-6.1-4.2-6.3v0c0-0.5-0.4-0.9-0.9-0.9
			c-0.5,0-0.9,0.4-0.9,0.9c0,0.3,0.1,3,4.7,7.6C27.1,36.4,27.3,36.5,27.6,36.5z"/>
		<path class="st0" d="M32.4,51.2c0.3-0.4,0.3-0.9,0-1.3L13.1,30.6c-0.4-0.3-0.9-0.3-1.3,0c-5.7,5.7-5.7,14.9,0,20.6
			C17.5,56.9,26.7,56.9,32.4,51.2z M12.9,32.9l17.2,17.2c-2.9,0.8-10,2-14.6-2.6C10.9,42.8,12.1,35.8,12.9,32.9z M10.5,35.6
			c-0.5,3.8-0.3,9.2,3.8,13.2c2.8,2.7,6.5,4.1,10.3,3.9c0.9,0,1.9-0.1,2.8-0.2c-4.8,2.2-10.5,1.2-14.3-2.6
			C9.3,46.2,8.3,40.5,10.5,35.6z"/>
		<path class="st0" d="M19.9,44.7c0.4,0.3,0.9,0.3,1.3,0c0.3-0.3,0.4-0.9,0-1.3l-1.6-1.6c-0.2-0.2-0.6-0.3-0.9-0.2
			c-0.3,0.1-0.6,0.3-0.6,0.6c-0.1,0.3,0,0.6,0.2,0.9L19.9,44.7z"/>
		<path class="st0" d="M27.6,14.8c-0.3,0.4-0.3,0.9,0,1.3l19.3,19.3c0.4,0.3,0.9,0.3,1.3,0c5.7-5.7,5.7-14.9,0-20.6
			S33.3,9.1,27.6,14.8z M47.1,33.1L29.9,15.9c2.9-0.8,10-2,14.6,2.6C49.1,23.2,47.9,30.2,47.1,33.1z M49.5,30.4
			c0.5-3.8,0.3-9.2-3.8-13.2s-9.4-4.3-13.2-3.8c4.8-2.2,10.5-1.2,14.3,2.6C50.7,19.9,51.7,25.6,49.5,30.4z"/>
		<path class="st0" d="M40.1,21.3c-0.2-0.2-0.6-0.3-0.9-0.2c-0.3,0.1-0.6,0.3-0.6,0.6c-0.1,0.3,0,0.6,0.2,0.9l1.6,1.6
			c0.4,0.3,0.9,0.3,1.3,0c0.3-0.3,0.4-0.9,0-1.3L40.1,21.3z"/>
	</g>
</g>
</svg>
