<?xml version="1.0" encoding="utf-8"?>
<!-- Generator: Adobe Illustrator 26.4.1, SVG Export Plug-In . SVG Version: 6.00 Build 0)  -->
<svg version="1.1" id="Capa_1" xmlns="http://www.w3.org/2000/svg" xmlns:xlink="http://www.w3.org/1999/xlink" x="0px" y="0px"
	 viewBox="0 0 60 66" style="enable-background:new 0 0 60 66;" xml:space="preserve">
<style type="text/css">
	.st0{fill:#373769;}
	.st1{fill:#373869;}
</style>
<g>
	<g>
		<path class="st0" d="M30,66c-1.9,0-3.8-0.5-5.5-1.5l-18.9-11C2.1,51.6,0,47.9,0,44V22c0-3.9,2.1-7.6,5.5-9.6l18.9-11
			c3.4-2,7.7-2,11.1,0l18.9,11c3.4,2,5.5,5.7,5.5,9.6V44c0,3.9-2.1,7.6-5.5,9.6l-18.9,11C33.8,65.5,31.9,66,30,66z M30,1.5
			c-1.7,0-3.3,0.4-4.8,1.3l-18.9,11c-3,1.7-4.8,4.9-4.8,8.3V44c0,3.4,1.8,6.6,4.8,8.3l18.9,11c3,1.7,6.6,1.7,9.6,0l18.9-11
			c3-1.7,4.8-4.9,4.8-8.3V22c0-3.4-1.8-6.6-4.8-8.3l-18.9-11C33.3,1.9,31.7,1.5,30,1.5z"/>
	</g>
	<g id="outline_1_">
		<g>
			<path class="st1" d="M18,49.7l-1.9-0.4c-0.6-0.1-1.3-0.1-1.9,0.1c-1.2,0.4-1.8,1.7-1.3,2.9s1.7,1.8,2.9,1.3c0,0,0,0,0,0
				c0.6-0.2,1.1-0.6,1.5-1.1l1.1-1.6c0.2-0.3,0.2-0.8-0.2-1.1C18.2,49.8,18.1,49.8,18,49.7L18,49.7z M16.1,51.6
				c-0.2,0.3-0.5,0.5-0.8,0.6c-0.4,0.1-0.8-0.1-1-0.4c-0.1-0.4,0.1-0.8,0.4-1c0.3-0.1,0.7-0.1,1-0.1l0.8,0.2L16.1,51.6z"/>
			<path class="st1" d="M18.8,42c-0.4-0.5-1-0.8-1.6-1c-1.2-0.3-2.4,0.5-2.7,1.7c-0.3,1.2,0.5,2.4,1.7,2.7c0.6,0.1,1.3,0.1,1.9-0.1
				l1.8-0.7c0.4-0.1,0.6-0.6,0.4-1c0-0.1-0.1-0.2-0.2-0.3L18.8,42z M17.5,43.9c-0.3,0.1-0.7,0.1-1,0.1c-0.4-0.1-0.7-0.5-0.6-0.9
				c0.1-0.4,0.5-0.7,0.9-0.6c0.3,0.1,0.6,0.3,0.9,0.5l0.6,0.6L17.5,43.9z"/>
			<path class="st1" d="M40,17.3C40,17.3,40,17.3,40,17.3l2-0.1c0.6,0,1.3-0.3,1.8-0.7c1-0.8,1.2-2.2,0.4-3.2
				c-0.8-1-2.2-1.2-3.2-0.4c-0.5,0.4-0.9,0.9-1.1,1.5l-0.6,1.9c-0.1,0.4,0.1,0.8,0.5,1C39.8,17.3,39.9,17.3,40,17.3L40,17.3z
				 M41.4,15c0.1-0.3,0.3-0.6,0.6-0.8c0.3-0.3,0.8-0.2,1.1,0.1c0.3,0.3,0.2,0.8-0.1,1.1c0,0,0,0,0,0c-0.3,0.2-0.6,0.3-0.9,0.4
				l-0.8,0.1L41.4,15z"/>
			<path class="st1" d="M51.3,19.9c-0.1-1.2-1.3-2.1-2.5-2c-0.6,0.1-1.2,0.3-1.7,0.8L45.5,20c-0.3,0.3-0.4,0.7-0.1,1.1
				c0.1,0.1,0.1,0.1,0.2,0.2l1.8,0.9c0.5,0.2,1,0.4,1.5,0.4c0.1,0,0.3,0,0.4,0C50.5,22.3,51.4,21.2,51.3,19.9L51.3,19.9z M49.1,20.9
				c-0.3,0-0.7,0-1-0.2l-0.7-0.4l0.6-0.5c0.3-0.2,0.6-0.4,0.9-0.4c0.4,0,0.8,0.3,0.8,0.7C49.8,20.5,49.5,20.9,49.1,20.9z"/>
			<path class="st1" d="M29.2,46.9c-0.2-0.1-0.5-0.2-0.7-0.1l-1.8,0.8c-0.6,0.2-1.1,0.7-1.5,1.2c-0.7,1-0.4,2.5,0.6,3.2
				c0.4,0.2,0.8,0.4,1.3,0.4c0.1,0,0.3,0,0.4,0c0.6-0.1,1.1-0.5,1.4-1c0.4-0.5,0.5-1.2,0.5-1.8l0-2C29.6,47.3,29.4,47,29.2,46.9
				L29.2,46.9z M28,49.5c0,0.3-0.1,0.7-0.3,1c-0.2,0.3-0.7,0.4-1,0.2s-0.4-0.7-0.2-1c0.2-0.3,0.5-0.5,0.8-0.6l0.8-0.3L28,49.5z"/>
			<path class="st1" d="M43.7,29l0.6-1.5c0.6-1.6,0.7-3.4,0.1-5c0-0.1-0.1-0.2-0.2-0.3l-0.1-0.1c-1.5-1.5-3.4-2.3-5.5-2.4
				c-1-0.7-2.1-1.2-3.3-1.6l-0.8-0.2c-0.3-2.1-1.2-4-2.7-5.5c-0.2-0.2-0.4-0.3-0.7-0.2l-2.8,0.6c-3.2,0.7-6.1,2.4-8.2,5c0,0,0,0,0,0
				c-0.7,0.2-1.3,0.4-2,0.7c-2.9,1.2-5.4,2.9-7.6,5.1L10,24.2c-0.8,0.8-1.3,1.9-1.3,3.1c0,0.4,0.3,0.8,0.8,0.8h3.4
				c0.2,0,0.4,0.2,0.4,0.4c0,0.2-0.2,0.4-0.4,0.4h-2.6c-0.4,0-0.8,0.3-0.8,0.8c0,0.1,0,0.1,0,0.2c0.5,2.1,2.4,3.6,4.6,3.6h18.7
				c1,0,1.8,0.8,1.8,1.8c0,0.5-0.2,0.9-0.5,1.2l-2.4,1.9c-1.8-0.9-3.9-0.8-5.7,0.2l-4.1,2.5c-0.4,0.2-0.5,0.7-0.3,1
				c0.1,0.1,0.2,0.2,0.3,0.3l2,1.1c2.1,1.2,4.6,1.5,6.9,0.7c0.7,2.3,2.3,4.1,4.4,5.2l2.6,1.3c0.4,0.2,0.8,0,1-0.3
				c0.1-0.1,0.1-0.3,0.1-0.4l-0.4-4.5c-0.1-1.5-0.9-3-2-4l3.5-3.3C42.5,35.8,43.9,32.5,43.7,29L43.7,29z M43.2,26
				c-0.1-0.2-0.1-0.4-0.2-0.5c-0.5-1.4-1.2-2.6-2.2-3.7c0.8,0.3,1.6,0.8,2.3,1.5C43.3,24.1,43.4,25.1,43.2,26L43.2,26z M31.5,14.2
				c0.8,1,1.3,2.1,1.5,3.3c-1.1-0.3-2.2-0.5-3.3-0.6L31.5,14.2z M28.7,14.3l1-0.2l-1.8,2.7c-0.2,0-0.5,0-0.7,0c-0.2,0-0.4,0-0.5,0
				l1.4-2.3C28.3,14.3,28.5,14.3,28.7,14.3L28.7,14.3z M25.8,15.2l-1,1.6c-0.6,0.1-1.3,0.2-1.9,0.3C23.8,16.4,24.8,15.7,25.8,15.2z
				 M23.8,41.7l3-1.8c1.1-0.7,2.5-0.8,3.7-0.4l-4.8,3.1c0,0-0.1,0-0.1,0.1c-0.3-0.1-0.6-0.3-0.9-0.4L23.8,41.7z M32.1,43.1
				c-0.1-0.4-0.5-0.7-0.9-0.6c0,0-0.1,0-0.1,0l-0.2,0.1c-1,0.4-2.1,0.6-3.2,0.5l4.3-2.7c0.1,0.1,0.1,0.1,0.2,0.2l0.9,0.9
				c0.1,0.1,0.2,0.2,0.4,0.2c0.3,0.1,0.6,0.2,0.9,0.3V47C33.2,46,32.4,44.6,32.1,43.1L32.1,43.1z M37,45.6l0.3,3.1L35.9,48l0,0v-5
				C36.5,43.8,36.9,44.7,37,45.6L37,45.6z M38.9,37.1l-3.8,3.6c-0.4-0.2-0.8-0.3-1.2-0.4l-0.8-0.8c-0.1-0.1-0.2-0.2-0.3-0.2l2.1-1.7
				c0,0,0,0,0.1-0.1c1.3-1.3,1.3-3.4,0-4.7c-0.6-0.6-1.5-1-2.3-1h-8c2.3-1.8,2.8-5.2,1-7.5c-0.7-0.8-1.5-1.5-2.5-1.8l-1.4-0.5
				c-0.4-0.1-0.8,0.1-1,0.5c-0.1,0.4,0.1,0.8,0.5,1c0,0,0,0,0,0l1.4,0.5c2,0.7,3.1,2.9,2.4,4.9c-0.4,1.2-1.4,2.1-2.6,2.5l-1.8,0.5
				h-6.6c-1.1,0-2.1-0.6-2.7-1.5h1.5c1,0,1.9-0.8,1.9-1.9c0-1-0.8-1.9-1.9-1.9h-2.5c0.1-0.5,0.4-0.9,0.7-1.3l0.6-0.6
				c5.8-5.8,14.2-7.9,22-5.5l1.3,0.4c5.5,1.7,8.5,7.5,6.8,12.9C41.2,34.3,40.3,35.8,38.9,37.1L38.9,37.1z"/>
			<path class="st1" d="M17,22c-1.3,0-2.3,1-2.3,2.3s1,2.3,2.3,2.3c1.3,0,2.3-1,2.3-2.3C19.3,23,18.3,22,17,22z M17,25.1
				c-0.4,0-0.8-0.3-0.8-0.8s0.3-0.8,0.8-0.8c0.4,0,0.8,0.3,0.8,0.8C17.8,24.7,17.4,25.1,17,25.1z"/>
			<path class="st1" d="M31.4,24.8l-2.6,1c-0.3,0.1-0.5,0.4-0.5,0.7v1.5c0,0.3,0.2,0.6,0.5,0.7l2.6,1c1.4,0.6,2.9-0.1,3.5-1.5
				c0.6-1.4-0.1-2.9-1.5-3.5C32.8,24.6,32.1,24.6,31.4,24.8L31.4,24.8z M33.2,28.2c-0.3,0.3-0.8,0.4-1.3,0.3l-2.1-0.8v-0.5l2.1-0.8
				c0.6-0.2,1.3,0.1,1.5,0.7C33.7,27.3,33.6,27.8,33.2,28.2z"/>
			<circle class="st1" cx="29.1" cy="21.3" r="0.8"/>
			<circle class="st1" cx="32.1" cy="20.5" r="0.8"/>
			<circle class="st1" cx="34.4" cy="22.8" r="0.8"/>
			<circle class="st1" cx="37.4" cy="23.5" r="0.8"/>
			<circle class="st1" cx="38.9" cy="25.8" r="0.8"/>
			<circle class="st1" cx="26.1" cy="20.5" r="0.8"/>
			<path class="st1" d="M45.4,35.8c-0.4-0.2-0.8-0.1-1,0.3c-0.1,0.2-0.3,0.5-0.5,0.7c-0.3,0.3-0.2,0.8,0.2,1.1
				c0.3,0.3,0.8,0.2,1.1-0.2c0,0,0,0,0,0c0.2-0.3,0.4-0.5,0.6-0.8C45.9,36.4,45.7,36,45.4,35.8C45.4,35.8,45.4,35.8,45.4,35.8
				L45.4,35.8z"/>
			<path class="st1" d="M46.7,30.2c-0.1-0.4-0.5-0.7-0.9-0.6c-0.4,0.1-0.7,0.5-0.6,0.9l0,0l0,0.1c0.2,0.9,0.2,1.8,0.1,2.7
				c-0.1,0.4,0.2,0.8,0.6,0.9l0,0c0.4,0.1,0.8-0.2,0.9-0.6c0,0,0,0,0,0C47,32.4,47,31.3,46.7,30.2L46.7,30.2z"/>
			<path class="st1" d="M9.1,22.1c0.3,0.3,0.8,0.2,1.1-0.1c0.5-0.6,1-1.1,1.6-1.5c0.3-0.3,0.4-0.7,0.1-1.1c-0.3-0.3-0.7-0.4-1-0.1
				c-0.7,0.5-1.3,1.1-1.8,1.8C8.7,21.4,8.7,21.9,9.1,22.1L9.1,22.1z"/>
			<path class="st1" d="M13.8,19.2c0.1,0,0.2,0,0.3-0.1l0.6-0.2c0.4-0.1,0.6-0.6,0.4-1s-0.6-0.6-1-0.4l-0.6,0.2
				c-0.4,0.1-0.6,0.6-0.4,1C13.2,19,13.5,19.2,13.8,19.2L13.8,19.2z"/>
		</g>
	</g>
</g>
</svg>
