<?xml version="1.0" encoding="utf-8"?>
<!-- Generator: Adobe Illustrator 26.4.1, SVG Export Plug-In . SVG Version: 6.00 Build 0)  -->
<svg version="1.1" id="Capa_1" xmlns="http://www.w3.org/2000/svg" xmlns:xlink="http://www.w3.org/1999/xlink" x="0px" y="0px"
	 viewBox="0 0 60 66" style="enable-background:new 0 0 60 66;" xml:space="preserve">
<style type="text/css">
	.st0{fill:#373769;}
	.st1{fill:#363769;}
</style>
<g>
	<g>
		<path class="st0" d="M30,66c-1.9,0-3.8-0.5-5.5-1.5l-18.9-11C2.1,51.6,0,47.9,0,44V22c0-3.9,2.1-7.6,5.5-9.6l18.9-11
			c3.4-2,7.7-2,11.1,0l18.9,11c3.4,2,5.5,5.7,5.5,9.6V44c0,3.9-2.1,7.6-5.5,9.6l-18.9,11C33.8,65.5,31.9,66,30,66z M30,1.5
			c-1.7,0-3.3,0.4-4.8,1.3l-18.9,11c-3,1.7-4.8,4.9-4.8,8.3V44c0,3.4,1.8,6.6,4.8,8.3l18.9,11c3,1.7,6.6,1.7,9.6,0l18.9-11
			c3-1.7,4.8-4.9,4.8-8.3V22c0-3.4-1.8-6.6-4.8-8.3l-18.9-11C33.3,1.9,31.7,1.5,30,1.5z"/>
	</g>
	<g>
		<g>
			<path class="st1" d="M34.2,27.2c-1.1,0-2,0.6-2.6,1.5c-0.2,0.4-0.1,0.8,0.3,1c0.4,0.2,0.8,0.1,1-0.3c0.3-0.5,0.7-0.8,1.2-0.8
				c0.5,0,1,0.3,1.2,0.8c0.1,0.2,0.4,0.4,0.7,0.4c0.1,0,0.3,0,0.4-0.1c0.4-0.2,0.5-0.7,0.3-1h0C36.2,27.8,35.2,27.2,34.2,27.2z"/>
			<path class="st1" d="M28.4,28.7c-0.5-0.9-1.5-1.5-2.6-1.5s-2,0.6-2.6,1.5c-0.2,0.4-0.1,0.8,0.3,1c0.4,0.2,0.8,0.1,1-0.3
				c0.3-0.5,0.7-0.8,1.2-0.8s1,0.3,1.2,0.8c0.1,0.2,0.4,0.4,0.7,0.4c0.1,0,0.3,0,0.4-0.1c0.2-0.1,0.3-0.3,0.4-0.5
				C28.5,29.1,28.5,28.9,28.4,28.7L28.4,28.7z"/>
			<path class="st1" d="M44.8,21.5c-0.3-0.4-0.6-0.7-0.9-1.1c-1.2-1.5-2.3-2.8-3.5-3.5c-1.4-0.9-2.9-1-4.5-0.2
				c-0.1,0-0.3,0.1-0.9,0.6c-1.4-0.8-3-1.1-4.9-1.1c-1.9,0-3.5,0.4-4.9,1.1c-0.7-0.5-0.9-0.6-0.9-0.6c-1.6-0.7-3.1-0.7-4.5,0.2
				c-1.2,0.8-2.3,2-3.5,3.5c-0.3,0.3-0.6,0.7-0.9,1.1c-1.4,1.6-1.9,3.5-1.5,5.4c0.4,2.1,1.8,4.1,3.7,5.2c-0.1,0.7-0.4,2.5-0.3,4.6
				c-0.6,1.2-0.9,2.7-0.7,4.1c0.2,1.4,0.9,2.8,1.9,3.8c1.2,1.2,2.9,1.9,4.8,2c0.9,0,1.9-0.1,2.9-0.3c0.2,2,1.9,3.6,3.9,3.6
				c2,0,3.8-1.6,3.9-3.6c1,0.2,2,0.3,2.9,0.3c1.9-0.1,3.6-0.8,4.8-2c1-1,1.7-2.3,1.9-3.8c0.2-1.4,0-2.8-0.7-4.1l0,0
				c0-1.5-0.1-3.1-0.3-4.5c1.9-1.1,3.3-3.1,3.7-5.2C46.7,25,46.2,23.1,44.8,21.5z M30.2,43.3L30.2,43.3L30.2,43.3L30.2,43.3z
				 M30.3,43.3L30.3,43.3L30.3,43.3L30.3,43.3z M30.3,43.3L30.3,43.3L30.3,43.3L30.3,43.3z M30.4,43.2L30.4,43.2L30.4,43.2
				L30.4,43.2L30.4,43.2L30.4,43.2c-0.1,0-0.1-0.1-0.2-0.1c0,0,0,0,0,0c0,0,0,0,0,0l0,0c-0.1,0-0.1,0-0.2,0c0,0,0,0-0.1,0l-0.1,0
				c0,0,0,0-0.1,0c0,0,0,0-0.1,0c-4.3,2.3-8,2.4-10.2,0.3c-1.6-1.6-2-4.2-0.9-6.1c1.1-2.1,3.6-3,6.8-2.5c0.1,0.4,0.3,0.7,0.6,1
				l2.5,2.6c0.4,0.4,1,0.7,1.5,0.7c0.6,0,1.1-0.2,1.6-0.7l2.6-2.7c0.2-0.2,0.4-0.5,0.5-0.9c3.2-0.5,5.7,0.4,6.8,2.5
				c1,2,0.6,4.5-0.9,6.1c-2.2,2.1-5.8,2.1-10.1-0.2L30.4,43.2z M30.2,43.3L30.2,43.3L30.2,43.3L30.2,43.3z M30.1,43.2L30.1,43.2
				L30.1,43.2L30.1,43.2z M23.7,18.2c-2.8,2.2-4.6,6.1-6,12.4c-1.3-1-2.3-2.4-2.6-3.9c-0.3-1.5,0.1-2.9,1.2-4.1
				c0.3-0.4,0.6-0.7,0.9-1.1c2.5-3,3.9-4.4,6.2-3.4C23.5,18,23.5,18.1,23.7,18.2z M33.1,34.6l-2.6,2.7c-0.3,0.3-0.7,0.3-1,0L27,34.7
				c0,0,0,0,0,0c-0.1-0.1-0.2-0.3-0.2-0.5c0-0.4,0.3-0.7,0.7-0.7l5.3,0c0.2,0,0.3,0.1,0.5,0.2C33.4,33.9,33.4,34.4,33.1,34.6z
				 M41,31.9c0.2,0.8,0.3,1.9,0.3,2.9c-0.5-0.4-1.1-0.8-1.8-1c-1-0.4-2-0.6-3.2-0.6c-0.6,0-1.1,0-1.7,0.1c-0.1-0.3-0.3-0.5-0.5-0.7
				c-0.4-0.4-0.9-0.6-1.5-0.6l-5.3,0c-0.9,0-1.7,0.5-2,1.3c-1.9-0.3-3.5-0.1-4.9,0.5c-0.7,0.3-1.2,0.6-1.8,1c0.1-1,0.2-2,0.3-2.9
				l0-0.1c1-5.4,2.5-9.1,4.4-11.4c1.7-1.9,3.8-2.8,6.6-2.8c2.8,0,4.9,0.9,6.6,2.8C38.5,22.7,40,26.4,41,31.9L41,31.9z M36.3,18.2
				c0.2-0.1,0.2-0.1,0.2-0.1c2.4-1.1,3.7,0.3,6.2,3.3l0,0c0.3,0.3,0.6,0.7,0.9,1.1c1.1,1.2,1.4,2.7,1.2,4.1
				c-0.3,1.5-1.3,2.9-2.6,3.9C41,24.3,39.1,20.3,36.3,18.2z M27.5,45.8c0.6-0.2,1.1-0.4,1.7-0.7v1c0,0.4,0.3,0.8,0.8,0.8
				c0.4,0,0.8-0.3,0.8-0.8v-1c0.6,0.3,1.2,0.5,1.7,0.7v0.1c0,1.4-1.1,2.5-2.5,2.5S27.5,47.2,27.5,45.8L27.5,45.8z M30.4,43.4
				L30.4,43.4L30.4,43.4L30.4,43.4z"/>
			<path class="st1" d="M22.6,37c-0.4,0-0.8,0.3-0.8,0.8c0,0.4,0.3,0.8,0.8,0.8c0.4,0,0.8-0.3,0.8-0.8C23.4,37.4,23.1,37,22.6,37z"
				/>
			<path class="st1" d="M21.3,40.6c-0.4,0-0.8,0.3-0.8,0.8c0,0.4,0.3,0.8,0.8,0.8s0.8-0.3,0.8-0.8C22,41,21.7,40.6,21.3,40.6z"/>
			<path class="st1" d="M25.2,39.7c-0.4,0-0.8,0.3-0.8,0.8c0,0.4,0.3,0.8,0.8,0.8c0.4,0,0.8-0.3,0.8-0.8
				C25.9,40,25.6,39.7,25.2,39.7z"/>
			<path class="st1" d="M37.4,38.5c0.4,0,0.8-0.3,0.8-0.8c0-0.4-0.3-0.8-0.8-0.8c-0.4,0-0.8,0.3-0.8,0.8
				C36.6,38.2,36.9,38.5,37.4,38.5z"/>
			<path class="st1" d="M38.7,42.1c0.4,0,0.8-0.3,0.8-0.8c0-0.4-0.3-0.8-0.8-0.8S38,41,38,41.4C38,41.8,38.3,42.1,38.7,42.1z"/>
			<path class="st1" d="M34.8,41.2c0.4,0,0.8-0.3,0.8-0.8c0-0.4-0.3-0.8-0.8-0.8c-0.4,0-0.8,0.3-0.8,0.8
				C34.1,40.9,34.4,41.2,34.8,41.2z"/>
			<path class="st1" d="M23.6,24.3c0.2-0.4,0-0.8-0.3-1c-0.2-0.1-0.4-0.1-0.6,0c-0.2,0.1-0.3,0.2-0.4,0.4l0,0c-0.2,0.4,0,0.8,0.3,1
				c0.1,0.1,0.2,0.1,0.3,0.1C23.3,24.8,23.5,24.6,23.6,24.3z"/>
			<path class="st1" d="M23.9,23.2c0.2,0,0.5-0.1,0.6-0.3c0.7-1,2.1-2.3,3.1-2.5c0.2,0,0.4-0.2,0.5-0.3c0.1-0.2,0.1-0.4,0.1-0.6
				c-0.1-0.4-0.5-0.6-0.9-0.6c-1.6,0.4-3.2,2.1-4,3.1c-0.2,0.3-0.1,0.8,0.2,1C23.6,23.1,23.7,23.2,23.9,23.2z"/>
		</g>
	</g>
</g>
</svg>
