<?xml version="1.0" encoding="utf-8"?>
<!-- Generator: Adobe Illustrator 26.4.1, SVG Export Plug-In . SVG Version: 6.00 Build 0)  -->
<svg version="1.1" id="Capa_1" xmlns="http://www.w3.org/2000/svg" xmlns:xlink="http://www.w3.org/1999/xlink" x="0px" y="0px"
	 viewBox="0 0 60 66" style="enable-background:new 0 0 60 66;" xml:space="preserve">
<style type="text/css">
	.st0{fill:#373769;}
	.st1{fill:#39386A;}
</style>
<g>
	<path class="st0" d="M30,66c-1.9,0-3.8-0.5-5.5-1.5l-18.9-11C2.1,51.6,0,47.9,0,44V22c0-3.9,2.1-7.6,5.5-9.6l18.9-11
		c3.4-2,7.7-2,11.1,0l18.9,11c3.4,2,5.5,5.7,5.5,9.6V44c0,3.9-2.1,7.6-5.5,9.6l-18.9,11C33.8,65.5,31.9,66,30,66z M30,1.5
		c-1.7,0-3.3,0.4-4.8,1.3l-18.9,11c-3,1.7-4.8,4.9-4.8,8.3V44c0,3.4,1.8,6.6,4.8,8.3l18.9,11c3,1.7,6.6,1.7,9.6,0l18.9-11
		c3-1.7,4.8-4.9,4.8-8.3V22c0-3.4-1.8-6.6-4.8-8.3l-18.9-11C33.3,1.9,31.7,1.5,30,1.5z"/>
	<path class="st1" d="M17.5,31.8c0-1.1-0.4-2-1.1-2.7c-0.7-0.7-1.6-1.1-2.7-1.1c-1.1,0-2,0.4-2.7,1.1c-0.7,0.7-1.1,1.6-1.1,2.7
		c0,1.1,0.4,2,1.1,2.7c0.7,0.7,1.6,1.1,2.7,1.1c1.1,0,2-0.4,2.7-1.1C17.1,33.8,17.5,32.9,17.5,31.8z M15.2,33.5
		c-0.4,0.5-0.9,0.7-1.5,0.7s-1.1-0.2-1.5-0.7c-0.4-0.5-0.6-1-0.6-1.7c0-0.6,0.2-1.2,0.6-1.7c0.4-0.5,0.9-0.7,1.5-0.7
		s1.1,0.2,1.5,0.7c0.4,0.5,0.6,1,0.6,1.7C15.8,32.5,15.6,33,15.2,33.5z"/>
	<polygon class="st1" points="22.9,32.2 21,28.3 18.8,28.3 18.8,35.5 20.5,35.5 20.5,30.9 22.4,34.9 23.4,34.9 25.3,30.9 25.3,35.5 
		27,35.5 27,28.3 24.8,28.3 	"/>
	<polygon class="st1" points="34.1,34.1 30.4,34.1 30.4,32.6 33.6,32.6 33.6,31.2 30.4,31.2 30.4,29.7 34,29.7 34,28.3 28.7,28.3 
		28.7,35.5 34.1,35.5 	"/>
	<path class="st1" d="M39,29.6c0.3,0,0.6,0.1,0.9,0.2c0.3,0.1,0.6,0.3,0.9,0.6l0.8-1.2c-0.8-0.7-1.7-1-2.7-1c-1,0-1.9,0.4-2.7,1.1
		c-0.7,0.7-1.1,1.6-1.1,2.7c0,1.1,0.4,2,1.1,2.7c0.7,0.7,1.6,1.1,2.7,1.1c1.3,0,2.3-0.4,3-1.2v-2.6h-1.6v2c-0.4,0.2-0.8,0.3-1.4,0.3
		c-0.6,0-1-0.2-1.4-0.6c-0.4-0.4-0.6-1-0.6-1.6c0-0.7,0.2-1.2,0.6-1.7C37.8,29.8,38.4,29.6,39,29.6z"/>
	<path class="st1" d="M47,28.3h-1.6l-3.1,7.3H44l0.7-1.6h3l0.7,1.6h1.7L47,28.3z M45.3,32.5l0.9-2.1l0.9,2.1H45.3z"/>
	<path class="st1" d="M18.5,24.5c0.1,0,0.2-0.1,0.3-0.1c2.5-3.7,6.6-5.9,11.1-5.9c4.4,0,8.6,2.2,11.1,5.9c0.1,0.1,0.2,0.1,0.3,0.1
		h1.9c0.1,0,0.2-0.1,0.3-0.2s0.1-0.2,0-0.3c-2.8-4.9-7.9-7.8-13.5-7.8c-5.6,0-10.8,3-13.6,7.8c-0.1,0.1-0.1,0.2,0,0.3
		c0.1,0.1,0.2,0.2,0.3,0.2L18.5,24.5z"/>
	<path class="st1" d="M44.1,45.1h-5.8c0.7-0.5,1.6-1.1,2.1-1.7c1.2-1.1,2.2-2.4,3-3.9c0.1-0.1,0-0.2,0-0.3c-0.1-0.1-0.2-0.2-0.3-0.2
		h-1.9c-0.1,0-0.2,0.1-0.3,0.1c-1.7,2.8-4.4,4.9-7.4,5.9l0.1,0.3l-0.1-0.3c-0.3,0.1-0.5,0.3-0.7,0.6c-0.1,0.3-0.2,0.6-0.1,0.9
		c0.1,0.5,0.6,0.8,1.1,0.8h10.3c0.3,0,0.6-0.1,0.9-0.4c0.2-0.3,0.3-0.6,0.3-0.9C45.3,45.6,44.8,45.1,44.1,45.1z"/>
	<path class="st1" d="M25.9,45.2L25.9,45.2c-3-1.1-5.7-3.2-7.4-5.9c-0.1-0.1-0.2-0.1-0.3-0.1h-1.9c-0.1,0-0.2,0.1-0.3,0.2
		c-0.1,0.1-0.1,0.2,0,0.3c0.8,1.5,1.8,2.8,3,3.9c0.6,0.5,1.5,1.2,2.1,1.7h-5.8c-0.7,0-1.2,0.5-1.2,1c0,0.4,0,0.7,0.3,0.9
		c0.2,0.3,0.5,0.4,0.9,0.4h10.3c0.5,0,0.9-0.4,1.1-0.8c0.1-0.3,0.1-0.6-0.1-0.9C26.4,45.4,26.2,45.3,25.9,45.2z"/>
</g>
</svg>
