<?xml version="1.0" encoding="utf-8"?>
<!-- Generator: Adobe Illustrator 26.4.1, SVG Export Plug-In . SVG Version: 6.00 Build 0)  -->
<svg version="1.1" id="Capa_1" xmlns="http://www.w3.org/2000/svg" xmlns:xlink="http://www.w3.org/1999/xlink" x="0px" y="0px"
	 viewBox="0 0 50 50" style="enable-background:new 0 0 50 50;" xml:space="preserve">
<style type="text/css">
	.st0{fill:#3CB29C;}
	.st1{fill:#FFFFFF;}
</style>
<g>
	<circle class="st0" cx="25" cy="25" r="25"/>
	<g>
		<path class="st1" d="M22.7,13.3c0.6-0.5,1.3-0.8,2.3-0.8c0.9,0,1.7,0.3,2.3,0.8c0.6,0.5,0.9,1.2,0.9,2c0,0.8-0.3,1.4-0.9,2
			c-0.6,0.5-1.3,0.8-2.3,0.8c-0.9,0-1.7-0.3-2.3-0.8c-0.6-0.5-0.9-1.2-0.9-2C21.8,14.5,22.1,13.9,22.7,13.3z M27.6,20.2v17.3h-5.3
			V20.2H27.6z"/>
	</g>
</g>
</svg>
