<?xml version="1.0" encoding="utf-8"?>
<!-- Generator: Adobe Illustrator 26.4.1, SVG Export Plug-In . SVG Version: 6.00 Build 0)  -->
<svg version="1.1" id="Capa_1" xmlns="http://www.w3.org/2000/svg" xmlns:xlink="http://www.w3.org/1999/xlink" x="0px" y="0px"
	 viewBox="0 0 60 66" style="enable-background:new 0 0 60 66;" xml:space="preserve">
<style type="text/css">
	.st0{fill:#373869;}
</style>
<g>
	<path class="st0" d="M44.5,46.5c-0.6,0-1,0.5-1,1s0.5,1,1,1s1-0.5,1-1S45,46.5,44.5,46.5z"/>
	<path class="st0" d="M45,41.4c0,0.6,0.5,1,1,1c0.6,0,1-0.5,1-1c0-0.6-0.5-1-1-1C45.4,40.4,45,40.8,45,41.4z"/>
	<path class="st0" d="M37.4,49c0,0.6,0.5,1,1,1s1-0.5,1-1c0-0.6-0.5-1-1-1S37.4,48.4,37.4,49z"/>
	<path class="st0" d="M46.8,26.4c3.9,0,7.1-3.2,7.1-7.1v-3.8c0-0.1-0.1-0.2-0.2-0.2h-3.8c-3.9,0-7.1,3.2-7.1,7.1V25l-0.6,0.6
		C37.9,17.8,31.5,9.1,30,9.1c-1.7,0-9.1,11.2-9.1,11.3l-0.2,0.3l-0.3-0.3v-2.6c0-3.9-3.2-7.1-7.1-7.1H9.4c-0.1,0-0.2,0.1-0.2,0.2
		v3.8c0,3.9,3.2,7.1,7.1,7.1h2.6l0.7,0.7c-2.8,4.6-6.1,11-6.5,16.2c-0.9-0.4-1.9-0.6-2.9-0.6H6.4c-0.1,0-0.2,0.1-0.2,0.2v3.8
		c0,3.9,3.2,7.1,7.1,7.1h2.6C19,54,24.3,56.9,30,56.9c2.1,0,4.2-0.4,6.2-1.2c1.7,0.8,3.4,1.2,5.3,1.2c6.8,0,12.3-5.5,12.3-12.3
		c0-3.3-1.3-6.4-3.6-8.7l-2.6-2.6c-0.1-0.1-0.3-0.1-0.4,0l-1.2,1.2c-0.6-2.1-1.6-4.5-3-7.1l1-1H46.8z M44.7,22.9v-0.6
		c0-1.1,0.4-2.2,1-3.1v2.6L44.7,22.9z M51.1,21.8c-0.9,1.6-2.6,2.5-4.4,2.5h-0.6l2.5-2.5H51.1z M49.2,18.8c-0.1-0.1-0.3-0.1-0.4,0
		l-1.1,1.1v-2.2c0.7-0.3,1.3-0.4,2-0.4h2v2c0,0.2,0,0.3,0,0.5h-1.6L49.2,18.8z M15.3,45.2v0.6l-1-1v-2.6
		C14.9,43,15.3,44.1,15.3,45.2z M15,40l0-0.1c0-5.1,3.6-12,6.7-16.9C25,17.6,28.6,13,30,11.5c2.3,2.5,12,15.1,14.4,24.7L30.3,50.3
		c-0.1,0.1-0.1,0.3,0,0.4l2.6,2.6c0.4,0.4,0.8,0.7,1.2,1c-1.3,0.4-2.6,0.5-4,0.5c-5.2,0-9.9-2.6-12.7-7v-2.6
		C17.3,43.2,16.5,41.3,15,40z M36.4,49.7l-1.3-1.3l3.8-3.8l2.6,7.2C39.6,51.8,37.8,51,36.4,49.7z M43.6,51.5l-2.7-7.7l7.7,2.7
		C47.8,48.9,45.9,50.8,43.6,51.5z M33.7,49.8l1.3,1.3c1.8,1.8,4.1,2.7,6.6,2.7c5.1,0,9.3-4.2,9.3-9.3c0-2.5-1-4.8-2.7-6.6l-1.3-1.3
		l0.7-0.7l1.3,1.3c1.9,1.9,3,4.5,3,7.3c0,5.7-4.6,10.3-10.3,10.3c-2.8,0-5.3-1.1-7.3-3L33,50.5L33.7,49.8z M41.5,41.9l3.8-3.8
		l1.3,1.3c1.4,1.4,2.1,3.2,2.1,5.1L41.5,41.9z M11,41.6c-0.1,0-0.1,0-0.2,0.1l-1,1H8.2c0-0.2,0-0.4,0-0.5v-2h2c0.7,0,1.4,0.1,2,0.4
		v2.2l-1.1-1.1C11.1,41.6,11,41.6,11,41.6z M11.3,44.7l2.5,2.5h-0.6c-1.8,0-3.5-1-4.4-2.5H11.3z M18.3,17.8v0.6l-1-1v-2.6
		C18,15.6,18.3,16.7,18.3,17.8z M14.2,17.1l2.7,2.7h-0.6c-2.8,0-5.1-2.3-5.1-5.1v-2h2c0.7,0,1.4,0.1,2,0.4v2.5c0,0,0,0,0,0l-1.1,1.1
		c0,0-0.1,0.1-0.1,0.2S14.1,17,14.2,17.1z"/>
	<path class="st0" d="M23.6,25.2c0,0,0.1,0,0.1,0c0.1,0,0.2,0,0.2-0.1c1.2-2,2.5-4,4-6c0.1-0.1,0.1-0.3-0.1-0.3l-1.2-0.9
		c-0.1-0.1-0.3-0.1-0.3,0.1c-1.5,2-2.8,4.1-4.1,6.2c0,0.1,0,0.1,0,0.2c0,0.1,0.1,0.1,0.1,0.2L23.6,25.2z"/>
	<path class="st0" d="M21,29.8c0,0,0.1,0,0.1,0c0,0,0.1,0,0.1,0c0.1,0,0.1-0.1,0.1-0.1c0.5-1,1-2,1.6-3c0-0.1,0-0.1,0-0.2
		c0-0.1-0.1-0.1-0.1-0.2l-1.3-0.8c-0.1,0-0.1,0-0.2,0c-0.1,0-0.1,0.1-0.2,0.1c-0.6,1.1-1.2,2.1-1.7,3.1c-0.1,0.1,0,0.3,0.1,0.3
		L21,29.8z"/>
</g>
</svg>
