<?xml version="1.0" encoding="utf-8"?>
<!-- Generator: Adobe Illustrator 26.4.1, SVG Export Plug-In . SVG Version: 6.00 Build 0)  -->
<svg version="1.1" id="Capa_1" xmlns="http://www.w3.org/2000/svg" xmlns:xlink="http://www.w3.org/1999/xlink" x="0px" y="0px"
	 viewBox="0 0 60 66" style="enable-background:new 0 0 60 66;" xml:space="preserve">
<style type="text/css">
	.st0{fill:#373769;}
</style>
<g>
	<path class="st0" d="M30,65.8c-1.9,0-3.8-0.5-5.5-1.5L5.6,53.4c-3.4-2-5.5-5.6-5.5-9.5V22.1c0-3.9,2.1-7.6,5.5-9.5L24.5,1.7
		c3.4-2,7.6-2,11,0l18.9,10.9c3.4,2,5.5,5.6,5.5,9.5v21.8c0,3.9-2.1,7.6-5.5,9.5L35.5,64.3C33.8,65.3,31.9,65.8,30,65.8z M30,1.7
		c-1.6,0-3.3,0.4-4.8,1.3L6.4,13.8c-2.9,1.7-4.8,4.9-4.8,8.3v21.8c0,3.4,1.8,6.6,4.8,8.3L25.2,63c2.9,1.7,6.6,1.7,9.5,0l18.9-10.9
		c2.9-1.7,4.8-4.9,4.8-8.3V22.1c0-3.4-1.8-6.6-4.8-8.3L34.8,3C33.3,2.1,31.6,1.7,30,1.7z"/>
</g>
<path class="st0" d="M44.3,17.8c-0.1-0.2-0.3-0.3-0.6-0.3H16.2c-0.2,0-0.4,0.1-0.6,0.3c-0.1,0.2-0.2,0.4-0.2,0.6l3.8,30.1
	c0.2,1.7,1.7,3,3.4,3h14.5c1.7,0,3.2-1.3,3.4-3l3.8-30.1C44.5,18.2,44.5,18,44.3,17.8z M39.7,44.2c0,0,0,0.1,0,0.1
	c-0.1,1-1,1.7-2.1,1.7H22.4c-1.1,0-1.9-0.7-2.1-1.7c0,0,0-0.1,0-0.1l-1.6-12.7c1.9,0.7,3.7,1.1,5.5,1.1c2,0,4.1-0.4,6.1-1.3
	c3.7-1.6,7.2-1.6,11.1-0.1L39.7,44.2z M37.3,50H22.7c-1,0-1.8-0.7-1.9-1.7l-0.2-1.3c0.5,0.3,1.1,0.4,1.7,0.4h15.2
	c0.6,0,1.2-0.2,1.7-0.4l-0.2,1.3C39.1,49.3,38.3,50,37.3,50z M41.6,29.6c-4.1-1.6-7.9-1.5-11.9,0.2c-3.7,1.6-7.3,1.6-11.2,0
	c0,0,0,0,0,0l-1.4-10.8h25.8L41.6,29.6z"/>
</svg>
