<?xml version="1.0" encoding="utf-8"?>
<!-- Generator: Adobe Illustrator 26.4.1, SVG Export Plug-In . SVG Version: 6.00 Build 0)  -->
<svg version="1.1" id="Capa_1" xmlns="http://www.w3.org/2000/svg" xmlns:xlink="http://www.w3.org/1999/xlink" x="0px" y="0px"
	 viewBox="0 0 55 60" style="enable-background:new 0 0 55 60;" xml:space="preserve">
<style type="text/css">
	.st0{fill:#42DB8F;}
	.st1{fill:#F94848;}
	.st2{fill:#E23D3D;}
	.st3{fill:#C7F492;}
	.st4{fill:#A3E261;}
	.st5{fill:#FC8181;}
	.st6{fill:#B25719;}
</style>
<g>
	<path class="st0" d="M50.1,48.5L32.4,58.7c-3,1.7-6.7,1.7-9.7,0L4.9,48.5c-3-1.7-4.9-4.9-4.9-8.3V19.8c0-3.4,1.8-6.6,4.9-8.3
		L22.6,1.3c3-1.7,6.7-1.7,9.7,0l17.8,10.2c3,1.7,4.9,4.9,4.9,8.3v20.4C55,43.6,53.2,46.8,50.1,48.5z"/>
	<path class="st1" d="M46.6,30.2c0,5.3-3.5,12.6-7.7,16.6c-1.9,1.8-3.9,2.9-5.8,2.9c-1.2,0-2.4-0.2-3.4-0.5c-1.4-0.4-2.9-0.4-4.3,0
		c-1,0.3-2.2,0.5-3.4,0.5c-2,0-4.1-1.2-6-3.2c-4.1-4-7.4-11.2-7.4-16.3c0-7.6,4.6-12.3,8.9-13.4c2.1-0.5,4.5-0.2,6.4,0.3
		c2,0.5,4.1,0.6,6.1,0.3c0.4-0.1,0.8-0.2,1.2-0.3c1.9-0.5,4.4-0.8,6.4-0.3C42,17.9,46.6,22.5,46.6,30.2z"/>
	<path class="st2" d="M39,46.8c-5.2,0.9-9.1,0.7-12.1-0.1c-4.9-1.2-8.5-5.3-9.1-10.2c-1.5-12.4,6.6-16,6.6-16
		c2.4,1.1,5.1,0.5,5.1,0.5c-1.7-1.7,0.6-3.7,0.6-3.7c-2,0.3-4.1,0.3-6.1-0.3c-1.9-0.5-4.4-0.8-6.4-0.3c-4.3,1.1-8.9,5.7-8.9,13.4
		c0,7.6,7.2,19.5,13.4,19.5c1.2,0,2.4-0.2,3.4-0.5c1.4-0.4,2.9-0.4,4.3,0c1,0.3,2.2,0.5,3.4,0.5C35.1,49.7,37.1,48.6,39,46.8
		C39,46.8,39,46.8,39,46.8z"/>
	<path class="st3" d="M48.5,6.2c0,0-1.1,7.4-6.7,9.6c-5.4,2.1-10.2-3.5-12.2-3.1c-0.1,0-0.2,0-0.2,0.1c0,0,0,0,0,0l0,0
		c0.1-0.2,2.2-6.6,7.8-7C42.8,5.3,45.9,7.9,48.5,6.2z"/>
	<path class="st4" d="M48.5,6.2c0,0-3.4,4.1-8.2,4.1c-4.2,0-9.4,1.9-10.6,2.3c-0.1,0.1-0.2,0.1-0.2,0.1c0,0,0,0,0,0l0,0
		c0.1-0.2,2.2-6.6,7.8-7C42.8,5.3,45.9,7.9,48.5,6.2z"/>
	<ellipse transform="matrix(0.9949 -0.1009 0.1009 0.9949 -2.5144 4.2214)" class="st5" cx="40.5" cy="27" rx="2.5" ry="3.8"/>
	<path class="st2" d="M31.6,20c0,0.9-1.4,1.6-3.2,1.8c-0.3,0-0.5,0-0.8,0c-0.3,0-0.6,0-0.8,0c-1.8-0.2-3.2-0.9-3.2-1.8H31.6z"/>
	<path class="st6" d="M30.6,12.7l-2.9,4.4c0.2,0.9,0.4,1.9,0.5,2.9c0.1,0.6,0.1,1.2,0.1,1.8c-0.3,0-0.5,0-0.8,0c-0.3,0-0.6,0-0.8,0
		c0-0.6-0.1-1.2-0.1-1.8c-0.5-4.1-2.1-7.2-2.1-7.2c-0.2-0.4-0.1-0.9,0.3-1.1c0.4-0.2,0.9-0.1,1.1,0.3c0,0.1,0.6,1.2,1.2,3l2.2-3.3
		c0.2-0.4,0.7-0.5,1.1-0.2C30.8,11.8,30.9,12.3,30.6,12.7z"/>
</g>
</svg>
