<?xml version="1.0" encoding="utf-8"?>
<!-- Generator: Adobe Illustrator 26.4.1, SVG Export Plug-In . SVG Version: 6.00 Build 0)  -->
<svg version="1.1" id="Capa_1" xmlns="http://www.w3.org/2000/svg" xmlns:xlink="http://www.w3.org/1999/xlink" x="0px" y="0px"
	 viewBox="0 0 60 66" style="enable-background:new 0 0 60 66;" xml:space="preserve">
<style type="text/css">
	.st0{fill:#373869;}
</style>
<g>
	<path class="st0" d="M35.7,24.9c-1.5,0-2.9,0.8-3.7,2.2c-0.3,0.6-0.1,1.4,0.5,1.7c0.3,0.2,0.6,0.2,1,0.1c0.3-0.1,0.6-0.3,0.8-0.6
		c0.3-0.6,0.9-0.9,1.5-0.9c0.6,0,1.2,0.3,1.5,0.9c0.2,0.4,0.7,0.7,1.1,0.7c0.2,0,0.4-0.1,0.6-0.2c0.6-0.3,0.8-1.1,0.5-1.7
		C38.6,25.7,37.2,24.9,35.7,24.9z"/>
	<path class="st0" d="M28,27.1c-0.8-1.4-2.2-2.2-3.7-2.2c-1.5,0-2.9,0.8-3.7,2.2c-0.3,0.6-0.1,1.4,0.5,1.7c0.6,0.3,1.4,0.1,1.7-0.5
		c0.3-0.6,0.9-0.9,1.5-0.9s1.2,0.3,1.5,0.9c0.2,0.4,0.6,0.7,1.1,0.7c0.2,0,0.4-0.1,0.6-0.2c0.3-0.2,0.5-0.4,0.6-0.8
		C28.2,27.7,28.2,27.4,28,27.1L28,27.1z"/>
	<path class="st0" d="M50.3,17.2c-0.4-0.5-0.8-0.9-1.2-1.4l-0.1-0.1c-1.7-2-3.2-3.8-4.8-4.8c-2-1.3-4.1-1.4-6.4-0.3
		c-0.1,0.1-0.4,0.2-1.2,0.8c-1.9-1-4.1-1.5-6.7-1.5c-2.6,0-4.8,0.5-6.7,1.5c-0.8-0.6-1.1-0.7-1.2-0.8c-2.3-1.1-4.4-0.9-6.4,0.3
		c-1.7,1.1-3.1,2.8-4.8,4.8l-0.1,0.2c-0.4,0.4-0.7,0.9-1.1,1.3C7.7,19.4,7,22,7.6,24.8c0.6,2.8,2.5,5.6,5.1,7.2
		c-0.2,1-0.5,3.4-0.4,6c-0.9,1.7-1.2,3.7-0.9,5.6c0.3,2,1.2,3.9,2.6,5.3c1.7,1.7,4,2.7,6.7,2.8c1.2,0,2.4-0.1,3.7-0.3
		c0.4,2.7,2.8,4.9,5.6,4.9c2.8,0,5.2-2.1,5.6-4.8c1.3,0.3,2.5,0.4,3.7,0.3c2.7-0.1,5-1.1,6.7-2.8c1.4-1.4,2.3-3.3,2.6-5.3
		c0.3-1.9,0-3.9-0.9-5.6c0.1-2-0.1-4.1-0.4-6c2.6-1.6,4.5-4.3,5.1-7.2C53,22,52.3,19.4,50.3,17.2z M30.4,46.5L30.4,46.5
		C30.4,46.6,30.3,46.6,30.4,46.5l-0.3,0c-0.1,0-0.2,0-0.3,0l-0.2,0c0,0-0.1,0-0.1,0c0,0-0.1,0-0.1,0.1c-5.8,3.1-10.7,3.2-13.6,0.4
		c-2.1-2.1-2.6-5.4-1.2-8c1.5-2.7,4.7-4,8.9-3.4c0.2,0.5,0.5,0.9,0.8,1.3l3.5,3.5c0.6,0.6,1.4,1,2.3,1c0.9,0,1.7-0.3,2.3-1l3.6-3.6
		c0.3-0.3,0.6-0.7,0.7-1.1c4.2-0.6,7.4,0.6,8.9,3.4c1.4,2.6,0.8,5.9-1.2,8c-2.9,2.8-7.7,2.7-13.4-0.3l-0.1-0.1l0,0L30.4,46.5z
		 M28.7,49.8v0.9c0,0.7,0.6,1.3,1.3,1.3s1.3-0.6,1.3-1.3v-0.9c0.6,0.3,1.2,0.5,1.8,0.7c0,1.7-1.4,3-3.1,3c-1.7,0-3.1-1.4-3.1-3
		C27.5,50.4,28.1,50.1,28.7,49.8z M21,12.9c-3.6,3-6.1,8.2-7.8,16.3c-1.6-1.3-2.7-3.1-3.1-4.9c-0.4-1.9,0.1-3.8,1.5-5.4
		c0.4-0.5,0.9-1,1.3-1.5c2.7-3.2,4.3-5,6.3-5C19.7,12.4,20.3,12.6,21,12.9z M34,35l-3.6,3.6c-0.1,0.1-0.3,0.2-0.5,0.2c0,0,0,0,0,0
		c-0.2,0-0.3-0.1-0.5-0.2l-3.5-3.6L26,35.1c-0.1-0.1-0.2-0.3-0.2-0.5c0-0.4,0.3-0.7,0.7-0.7l7.2,0c0.2,0,0.3,0.1,0.5,0.2
		C34.3,34.4,34.3,34.8,34,35z M44.7,31.6c0.2,0.9,0.3,2.1,0.4,3.3c-0.6-0.4-1.3-0.8-2-1.1c-1.3-0.5-2.8-0.8-4.5-0.8
		c-0.7,0-1.4,0.1-2.2,0.2c-0.2-0.3-0.4-0.6-0.6-0.9c-0.6-0.6-1.4-0.9-2.2-0.9l-7.1,0c-1.2,0-2.3,0.7-2.9,1.8
		c-2.5-0.3-4.8-0.1-6.7,0.7c-0.7,0.3-1.4,0.7-2,1.1c0.1-1.2,0.2-2.3,0.4-3.3l0-0.1c1.4-7.3,3.3-12.3,6-15.3c2.2-2.6,5-3.7,8.8-3.7
		c3.7,0,6.5,1.2,8.8,3.7c2.6,3,4.6,8,6,15.3L44.7,31.6z M39,12.9c3-1.4,4.7,0.4,8.1,4.5l0.2,0.2c0.3,0.4,0.7,0.8,1.1,1.3
		c1.4,1.6,1.9,3.5,1.5,5.4c-0.4,1.8-1.5,3.6-3.1,4.9C45.1,21,42.6,15.8,39,12.9z"/>
	<path class="st0" d="M20,38.2c-0.7,0-1.3,0.6-1.3,1.3s0.6,1.3,1.3,1.3s1.3-0.6,1.3-1.3S20.7,38.2,20,38.2z"/>
	<path class="st0" d="M18.1,43.1c-0.7,0-1.3,0.6-1.3,1.3s0.6,1.3,1.3,1.3s1.3-0.6,1.3-1.3S18.8,43.1,18.1,43.1z"/>
	<path class="st0" d="M23.4,41.9c-0.7,0-1.3,0.6-1.3,1.3s0.6,1.3,1.3,1.3s1.3-0.6,1.3-1.3S24.1,41.9,23.4,41.9z"/>
	<path class="st0" d="M40,40.8c0.7,0,1.3-0.6,1.3-1.3s-0.6-1.3-1.3-1.3s-1.3,0.6-1.3,1.3S39.3,40.8,40,40.8z"/>
	<path class="st0" d="M40.6,44.4c0,0.7,0.6,1.3,1.3,1.3s1.3-0.6,1.3-1.3s-0.6-1.3-1.3-1.3S40.6,43.7,40.6,44.4z"/>
	<path class="st0" d="M36.6,44.4c0.7,0,1.3-0.6,1.3-1.3s-0.6-1.3-1.3-1.3s-1.3,0.6-1.3,1.3S35.9,44.4,36.6,44.4z"/>
	<path class="st0" d="M21.6,21.3c0.3-0.6,0.1-1.3-0.5-1.6c0.2,0.1,0.4,0.2,0.6,0.2c0.4,0,0.8-0.2,1-0.6c1-1.4,2.7-3,4-3.3
		c0.3-0.1,0.6-0.3,0.8-0.6c0.2-0.3,0.2-0.6,0.2-1c-0.2-0.7-0.9-1.1-1.5-0.9c-2.2,0.5-4.5,2.9-5.5,4.4c-0.2,0.3-0.3,0.6-0.2,1
		c0.1,0.3,0.2,0.6,0.5,0.8c-0.3-0.1-0.6-0.2-0.9-0.1c-0.3,0.1-0.6,0.3-0.8,0.7c-0.3,0.6,0,1.4,0.6,1.7c0.2,0.1,0.4,0.1,0.6,0.1
		C20.9,22.1,21.3,21.8,21.6,21.3z"/>
</g>
</svg>
