<?xml version="1.0" encoding="utf-8"?>
<!-- Generator: Adobe Illustrator 26.4.1, SVG Export Plug-In . SVG Version: 6.00 Build 0)  -->
<svg version="1.1" id="Capa_1" xmlns="http://www.w3.org/2000/svg" xmlns:xlink="http://www.w3.org/1999/xlink" x="0px" y="0px"
	 viewBox="0 0 55 60" style="enable-background:new 0 0 55 60;" xml:space="preserve">
<style type="text/css">
	.st0{fill:#FF5368;}
	.st1{fill:#F8F6FA;}
	.st2{fill:#F3ECFB;}
	.st3{fill:#FFD846;}
	.st4{fill:#FF819C;}
	.st5{fill:#C1EA84;}
	.st6{fill:#FFCA3D;}
	.st7{fill:#A2E499;}
	.st8{fill:#FB5B89;}
	.st9{fill:#877587;}
	.st10{fill:#C38678;}
	.st11{fill:#FDBC3D;}
	.st12{fill:#FEDECF;}
	.st13{fill:#FDD0BF;}
</style>
<g>
	<path class="st0" d="M50.1,48.5L32.4,58.7c-3,1.7-6.7,1.7-9.7,0L4.8,48.5c-3-1.7-4.8-4.9-4.8-8.3V19.8c0-3.4,1.8-6.6,4.8-8.3
		L22.6,1.3c3-1.7,6.7-1.7,9.7,0l17.8,10.2c3,1.7,4.9,4.9,4.9,8.3v20.4C55,43.6,53.2,46.8,50.1,48.5z"/>
	<g>
		<path class="st1" d="M27.5,52.6C15.2,50,8.2,43,8.2,31.9c0-3.3-0.1-5.8,1.3-8.5c3.3-6.5,10.1-11,18-11c11.1,0,20.1,9,20.1,20.1
			S38.6,52.6,27.5,52.6L27.5,52.6z"/>
		<path class="st2" d="M33.8,50.1c-1.4,0.3-2.9,0.5-4.4,0.5c-11.1,0-20.1-9-20.1-20.1c0-4.8,1.7-9.3,4.6-12.8
			c-4,3.7-6.5,8.9-6.5,14.8c0,11.1,9,20.1,20.1,20.1c2.2,0,4.4-0.4,6.4-1C33.8,51.1,33.8,50.6,33.8,50.1L33.8,50.1z"/>
		<path class="st3" d="M27.4,16.8l2,9.1l-2,6.6l-6.9,1.7l-8-1.8c0-3.9,1.1-7.1,3-10.1C18.4,19,22.7,16.9,27.4,16.8L27.4,16.8z"/>
		<path class="st4" d="M43.2,32.5L43.2,32.5l-9.1,2.3l-6.6-2.3V16.8h0.1C36.1,16.8,43.2,23.9,43.2,32.5z"/>
		<path class="st5" d="M43.2,32.6c0,8.6-7.1,15.6-15.7,15.6c-9.4-2.6-14.6-7-14.6-15.6H43.2z"/>
		<path class="st6" d="M14.5,29.5c0,1,0.1,2.1,0.3,3l-1.1,1.4l-1.9-1.4v-0.1c0-4.7,2.1-8.9,5.4-11.8C15.5,23.2,14.5,26.3,14.5,29.5z
			"/>
		<path class="st7" d="M33.4,44.8c-1,0.2-2.1,0.3-3.2,0.3c-7.6,0-14-5.4-15.4-12.6h-3c0,8.6,7.1,15.6,15.7,15.6
			c2.2,0,4.3-0.4,6.1-1.3C33.4,46.3,33.3,45.5,33.4,44.8z"/>
		<g>
			<g>
				<path class="st7" d="M27.4,41.6c-0.5,0-0.8-0.4-0.8-0.8v-5.1c0-0.5,0.4-0.8,0.8-0.8c0.5,0,0.8,0.4,0.8,0.8v5.1
					C28.3,41.2,27.9,41.6,27.4,41.6L27.4,41.6z"/>
			</g>
			<g>
				<path class="st8" d="M33.6,27.3c-0.2,0-0.4-0.1-0.6-0.2c-0.3-0.3-0.3-0.8,0-1.2l5.2-5.2c0.3-0.3,0.9-0.3,1.2,0
					c0.3,0.3,0.3,0.8,0,1.2L34.2,27C34,27.2,33.8,27.3,33.6,27.3L33.6,27.3z"/>
			</g>
			<g>
				<path class="st6" d="M21.5,27.2c-0.2,0-0.4-0.1-0.6-0.2l-4.4-4.4c-0.3-0.3-0.3-0.8,0-1.2c0.3-0.3,0.9-0.3,1.2,0l4.4,4.4
					c0.3,0.3,0.3,0.8,0,1.2C21.9,27.1,21.7,27.2,21.5,27.2L21.5,27.2z"/>
			</g>
		</g>
	</g>
	<ellipse class="st9" cx="27.5" cy="49.5" rx="10.5" ry="10.5"/>
	<g>
		<path class="st5" d="M27,44.5L27,44.5c-1.3-1.3-3.3-1.4-4.6-0.2c-1.3,1.2-1.3,3.3-0.1,4.6l0.1,0.1c0.9,0.9,1.5,2,1.8,3.2
			c0.2,1,0.7,1.9,1.5,2.6c2,1.8,5,1.7,6.9-0.2c2-1.9,2-5.1,0-7c-0.7-0.7-1.5-1.1-2.4-1.3C29,46,27.9,45.4,27,44.5L27,44.5z"/>
		<g>
			<path class="st7" d="M29.1,56.9c-1.4,0-2.8-0.5-3.9-1.5c-0.9-0.8-1.5-1.9-1.8-3.1c-0.2-1-0.8-2-1.5-2.7l-0.1-0.1
				c-0.8-0.8-1.2-1.8-1.2-2.9c0-1.1,0.5-2.1,1.3-2.9c1.6-1.5,4.1-1.4,5.7,0.1l0.1,0.1c0.8,0.8,1.7,1.3,2.8,1.6c1,0.2,2,0.8,2.8,1.5
				c1.1,1.1,1.7,2.6,1.7,4.1s-0.6,3-1.7,4.1C32,56.3,30.6,56.9,29.1,56.9L29.1,56.9z M24.6,44.3c-0.6,0-1.2,0.2-1.6,0.6
				c-0.5,0.4-0.7,1-0.7,1.7c0,0.6,0.2,1.3,0.7,1.7l0.1,0.1c1,1,1.7,2.2,2,3.6c0.2,0.9,0.6,1.6,1.3,2.2c1.6,1.4,4.2,1.4,5.7-0.1
				c0.8-0.8,1.2-1.8,1.2-2.9c0-1.1-0.4-2.2-1.2-2.9c-0.5-0.5-1.2-0.9-2-1.1c-1.4-0.3-2.7-1-3.6-2L26.3,45
				C25.9,44.5,25.2,44.3,24.6,44.3L24.6,44.3z"/>
		</g>
		<ellipse class="st10" cx="29.1" cy="51.1" rx="1.8" ry="1.8"/>
	</g>
	<ellipse class="st9" cx="44.5" cy="15.5" rx="10.5" ry="10.5"/>
	<path class="st4" d="M40,10c-1.2,1.2-1.7,3.1-0.4,4.7c2,2.4,0.3,3.9,2.4,6.3c1.8,2,5.2,2,7.2,0s2-5.2,0-7.2L45.4,10
		C43.9,8.5,41.5,8.5,40,10L40,10z"/>
	<ellipse class="st9" cx="10.5" cy="15.5" rx="10.5" ry="10.5"/>
	<g>
		<path class="st11" d="M9,12.7c0-1.7-1.4-3-3-3H4.9c-0.1,0-0.2,0.1-0.2,0.2V11c0,1.7,1.4,3,3,3L10,15L9,12.7z"/>
		<path class="st11" d="M10.4,13.4c0,0,6.5,4.1,5,7c-4.3,0.7-6.7-5-6.7-5L10.4,13.4z"/>
		<path class="st3" d="M10.3,15.3l-0.9,0.9c-1.2,1.2-3.1,1.2-4.3,0l-0.8-0.8c-0.1-0.1-0.1-0.2,0-0.3L5,14.3c1.2-1.2,3.1-1.2,4.3,0
			L10.3,15.3z"/>
		<path class="st6" d="M11.2,14.3l-0.9,0.9l-0.9-0.9c-1.2-1.2-1.2-3.1,0-4.3l0.8-0.8c0.1-0.1,0.2-0.1,0.3,0l0.8,0.8
			C12.4,11.2,12.4,13.1,11.2,14.3z"/>
		<path class="st6" d="M12.9,17.8l-0.9,0.9c-1.2,1.2-3.1,1.2-4.3,0L6.9,18c-0.1-0.1-0.1-0.2,0-0.3l0.8-0.8c1.2-1.2,3.1-1.2,4.3,0
			L12.9,17.8z"/>
		<path class="st3" d="M13.8,16.9l-0.9,0.9l-0.9-0.9c-1.2-1.2-1.2-3.1,0-4.3l0.8-0.8c0.1-0.1,0.2-0.1,0.3,0l0.8,0.8
			C15,13.8,15,15.7,13.8,16.9L13.8,16.9z"/>
		<path class="st3" d="M15.4,20.4l-0.9,0.9c-1.2,1.2-3.1,1.2-4.3,0l-0.8-0.8c-0.1-0.1-0.1-0.2,0-0.3l0.8-0.8c1.2-1.2,3.1-1.2,4.3,0
			L15.4,20.4z"/>
		<path class="st6" d="M16.4,19.5l-0.9,0.9l-0.9-0.9c-1.2-1.2-1.2-3.1,0-4.3l0.8-0.8c0.1-0.1,0.2-0.1,0.3,0l0.8,0.8
			C17.6,16.4,17.6,18.3,16.4,19.5L16.4,19.5z"/>
	</g>
	<path class="st12" d="M49.8,13.2L46,9.4C45.1,8.5,43.9,8,42.7,8s-2.4,0.5-3.3,1.4c-0.8,0.8-1.3,1.7-1.4,2.7
		c-0.2,1.1,0.2,2.2,0.9,3.1c0.8,1,0.9,1.8,1,2.7c0.1,1.1,0.2,2.2,1.5,3.7c1,1.1,2.4,1.7,4,1.8c0.1,0,0.1,0,0.2,0
		c1.6,0,3.2-0.6,4.3-1.7C52.1,19.3,52.1,15.5,49.8,13.2L49.8,13.2z M48.7,20.3l-1.5-1.9c-0.3-0.4-0.8-0.4-1.2-0.1
		c-0.4,0.3-0.4,0.8-0.1,1.2l1.4,1.8c-0.6,0.3-1.3,0.4-2,0.4c-1.1,0-2.1-0.5-2.8-1.2c-0.7-0.8-0.9-1.4-1-2.1c0.6,0.2,1.1,0.2,1.6,0.2
		c0.3,0,0.7,0,1-0.1c0.4-0.1,0.7-0.6,0.6-1c-0.1-0.4-0.6-0.7-1-0.6c-0.6,0.2-1.4,0-2.4-0.3c-0.2-0.7-0.5-1.5-1.2-2.3
		c-1.1-1.3-0.5-2.8,0.4-3.6c0,0,0,0,0,0c0.6-0.6,1.3-0.9,2.1-0.9c0.8,0,1.6,0.3,2.1,0.9l1.4,1.4c0.2,1.5,0,2.7-0.5,3.4
		c-0.3,0.4-0.2,0.9,0.1,1.2c0.2,0.1,0.3,0.2,0.5,0.2c0.2,0,0.5-0.1,0.7-0.3c0.6-0.7,0.9-1.6,1-2.7l0.7,0.7
		C50.3,16,50.3,18.6,48.7,20.3L48.7,20.3z"/>
	<g>
		<path class="st13" d="M44.8,17.4c0.1,0.4-0.2,0.9-0.6,1c-0.3,0.1-0.6,0.1-1,0.1c-0.2,0-0.5,0-0.7-0.1c-0.2-0.5-0.2-1.1-0.1-1.7
			c0.5,0.1,1,0.1,1.4,0C44.2,16.7,44.7,17,44.8,17.4z"/>
		<path class="st13" d="M47.7,14.8c-0.2,0.6-0.4,1.1-0.8,1.5c-0.2,0.2-0.4,0.3-0.6,0.3c-0.2,0-0.4-0.1-0.5-0.2
			c-0.4-0.3-0.4-0.8-0.1-1.2c0.3-0.3,0.4-0.7,0.5-1.2C46.7,14.2,47.3,14.5,47.7,14.8L47.7,14.8z"/>
		<path class="st13" d="M48.1,19.5c-0.1,0.1-0.1,0.1-0.2,0.2c-0.3,0.3-0.7,0.6-1.2,0.8l-0.8-1c-0.3-0.4-0.2-0.9,0.1-1.2
			c0.4-0.3,0.9-0.2,1.2,0.1L48.1,19.5z"/>
	</g>
	<ellipse class="st12" cx="45.6" cy="17.4" rx="2" ry="2"/>
</g>
</svg>
