<?xml version="1.0" encoding="utf-8"?>
<!-- Generator: Adobe Illustrator 26.4.1, SVG Export Plug-In . SVG Version: 6.00 Build 0)  -->
<svg version="1.1" id="Capa_1" xmlns="http://www.w3.org/2000/svg" xmlns:xlink="http://www.w3.org/1999/xlink" x="0px" y="0px"
	 viewBox="0 0 60 66" style="enable-background:new 0 0 60 66;" xml:space="preserve">
<style type="text/css">
	.st0{fill:#363769;}
	.st1{fill:#373769;}
</style>
<g>
	<g>
		<g>
			<path class="st0" d="M34.3,27c-1.1,0-2.1,0.6-2.6,1.6c-0.2,0.4-0.1,0.8,0.3,1.1c0.4,0.2,0.8,0.1,1.1-0.3c0.3-0.5,0.8-0.8,1.3-0.8
				s1,0.3,1.3,0.8c0.1,0.2,0.4,0.4,0.7,0.4c0.1,0,0.3,0,0.4-0.1c0.4-0.2,0.5-0.7,0.3-1.1h0C36.4,27.6,35.4,27,34.3,27z"/>
			<path class="st0" d="M28.3,28.6c-0.5-1-1.6-1.6-2.6-1.6c-1.1,0-2.1,0.6-2.6,1.6c-0.2,0.4-0.1,0.8,0.3,1.1
				c0.4,0.2,0.8,0.1,1.1-0.3c0.3-0.5,0.8-0.8,1.3-0.8c0.5,0,1,0.3,1.3,0.8c0.1,0.2,0.4,0.4,0.7,0.4c0.1,0,0.3,0,0.4-0.1
				c0.2-0.1,0.3-0.3,0.4-0.5C28.5,29,28.4,28.8,28.3,28.6L28.3,28.6z"/>
			<path class="st0" d="M45.3,21.1c-0.3-0.4-0.6-0.8-0.9-1.1c-1.3-1.5-2.4-2.8-3.6-3.6c-1.5-0.9-3-1-4.7-0.2c-0.1,0-0.3,0.1-1,0.6
				C33.6,16,32,15.6,30,15.6c-2,0-3.6,0.4-5.1,1.2c-0.7-0.5-0.9-0.6-1-0.6c-1.7-0.8-3.2-0.7-4.7,0.2c-1.2,0.8-2.3,2.1-3.6,3.6
				c-0.3,0.4-0.6,0.7-0.9,1.1c-1.4,1.6-1.9,3.6-1.5,5.6c0.4,2.1,1.9,4.2,3.9,5.4c-0.1,0.8-0.4,2.6-0.3,4.7c-0.7,1.3-0.9,2.7-0.7,4.2
				c0.2,1.5,0.9,2.9,2,3.9c1.3,1.3,3,2,5,2c0.9,0,1.9-0.1,3-0.3c0.2,2.1,1.9,3.7,4.1,3.7c2.1,0,3.9-1.6,4.1-3.7c1,0.2,2,0.3,3,0.3
				c2-0.1,3.7-0.8,5-2c1-1,1.7-2.4,2-3.9c0.2-1.5,0-2.9-0.7-4.2l0,0c0-1.5-0.1-3.2-0.3-4.7c2-1.2,3.4-3.2,3.9-5.4
				C47.2,24.7,46.7,22.8,45.3,21.1z M30.2,43.6L30.2,43.6L30.2,43.6L30.2,43.6z M30.3,43.6L30.3,43.6L30.3,43.6L30.3,43.6z
				 M30.4,43.7L30.4,43.7L30.4,43.7L30.4,43.7z M30.4,43.5L30.4,43.5L30.4,43.5L30.4,43.5L30.4,43.5L30.4,43.5
				c-0.1,0-0.1-0.1-0.2-0.1c0,0,0,0-0.1,0c0,0,0,0,0,0l0,0c-0.1,0-0.1,0-0.2,0c0,0,0,0-0.1,0l-0.1,0c0,0,0,0-0.1,0c0,0,0,0-0.1,0
				c-4.4,2.4-8.3,2.5-10.5,0.3c-1.6-1.6-2-4.3-1-6.3c1.2-2.2,3.7-3.1,7-2.6c0.1,0.4,0.3,0.7,0.6,1l2.6,2.7c0.4,0.4,1,0.7,1.6,0.7
				c0.6,0,1.2-0.2,1.6-0.7l2.7-2.8c0.2-0.3,0.4-0.6,0.5-0.9c3.3-0.5,5.9,0.4,7,2.6c1.1,2,0.7,4.7-1,6.3c-2.2,2.2-6,2.1-10.4-0.2
				L30.4,43.5z M30.3,43.6L30.3,43.6L30.3,43.6L30.3,43.6z M30.1,43.6L30.1,43.6L30.1,43.6L30.1,43.6z M23.5,17.7
				c-2.8,2.2-4.8,6.3-6.1,12.8c-1.3-1-2.3-2.5-2.6-4c-0.3-1.5,0.1-3,1.2-4.3c0.3-0.4,0.6-0.8,1-1.1c2.6-3.1,4-4.6,6.4-3.5
				C23.3,17.6,23.3,17.6,23.5,17.7z M33.2,34.7l-2.7,2.8c-0.3,0.3-0.7,0.3-1,0l-2.6-2.7c0,0,0,0,0,0c-0.2-0.1-0.2-0.3-0.2-0.5
				c0-0.4,0.3-0.7,0.7-0.7l5.4,0c0.2,0,0.4,0.1,0.5,0.2C33.5,34,33.5,34.4,33.2,34.7z M41.4,31.9c0.2,0.8,0.3,1.9,0.3,3
				c-0.5-0.4-1.1-0.8-1.8-1.1c-1-0.4-2.1-0.6-3.3-0.6c-0.6,0-1.2,0-1.8,0.1c-0.1-0.3-0.3-0.5-0.5-0.7c-0.4-0.4-1-0.6-1.6-0.6l-5.4,0
				c-0.9,0-1.7,0.5-2.1,1.4c-1.9-0.3-3.6-0.1-5.1,0.5c-0.7,0.3-1.3,0.6-1.8,1.1c0.1-1,0.2-2.1,0.3-3l0-0.1c1.1-5.6,2.6-9.4,4.6-11.7
				c1.7-2,3.9-2.9,6.8-2.9c2.9,0,5.1,0.9,6.8,2.9C38.8,22.4,40.3,26.2,41.4,31.9L41.4,31.9z M36.5,17.7c0.2-0.1,0.2-0.1,0.2-0.1
				c2.5-1.1,3.8,0.3,6.4,3.5l0,0c0.3,0.4,0.6,0.7,0.9,1.1c1.1,1.3,1.5,2.7,1.2,4.3c-0.3,1.5-1.3,3-2.6,4
				C41.3,24,39.3,19.9,36.5,17.7z M27.5,46.2c0.6-0.2,1.2-0.4,1.8-0.7v1c0,0.4,0.3,0.8,0.8,0.8c0.4,0,0.8-0.3,0.8-0.8v-1
				c0.6,0.3,1.2,0.5,1.8,0.7v0.1c0,1.4-1.1,2.5-2.5,2.5C28.6,48.8,27.5,47.7,27.5,46.2L27.5,46.2z M30.4,43.7L30.4,43.7L30.4,43.7
				L30.4,43.7z"/>
			<path class="st0" d="M22.4,37.1c-0.4,0-0.8,0.3-0.8,0.8s0.3,0.8,0.8,0.8c0.4,0,0.8-0.3,0.8-0.8S22.8,37.1,22.4,37.1z"/>
			<path class="st0" d="M21,40.9c-0.4,0-0.8,0.3-0.8,0.8c0,0.4,0.3,0.8,0.8,0.8c0.4,0,0.8-0.3,0.8-0.8C21.8,41.2,21.4,40.9,21,40.9z
				"/>
			<path class="st0" d="M25,39.9c-0.4,0-0.8,0.3-0.8,0.8s0.3,0.8,0.8,0.8s0.8-0.3,0.8-0.8S25.4,39.9,25,39.9z"/>
			<path class="st0" d="M37.6,38.7c0.4,0,0.8-0.3,0.8-0.8s-0.3-0.8-0.8-0.8c-0.4,0-0.8,0.3-0.8,0.8S37.2,38.7,37.6,38.7z"/>
			<path class="st0" d="M39,42.4c0.4,0,0.8-0.3,0.8-0.8c0-0.4-0.3-0.8-0.8-0.8c-0.4,0-0.8,0.3-0.8,0.8C38.2,42.1,38.6,42.4,39,42.4z
				"/>
			<path class="st0" d="M35,41.5c0.4,0,0.8-0.3,0.8-0.8s-0.3-0.8-0.8-0.8c-0.4,0-0.8,0.3-0.8,0.8S34.6,41.5,35,41.5z"/>
			<path class="st0" d="M23.4,24.1c0.2-0.4,0-0.8-0.3-1c-0.2-0.1-0.4-0.1-0.6,0c-0.2,0.1-0.4,0.2-0.5,0.4l0,0c-0.2,0.4,0,0.8,0.3,1
				c0.1,0.1,0.2,0.1,0.3,0.1C23,24.5,23.3,24.3,23.4,24.1z"/>
			<path class="st0" d="M23.7,22.8c0.3,0,0.5-0.1,0.6-0.3c0.7-1.1,2.1-2.4,3.2-2.6c0.2,0,0.4-0.2,0.5-0.4c0.1-0.2,0.1-0.4,0.1-0.6
				c-0.1-0.4-0.5-0.7-0.9-0.6c-1.6,0.4-3.3,2.2-4.1,3.2c-0.2,0.4-0.2,0.8,0.2,1.1C23.4,22.8,23.5,22.8,23.7,22.8z"/>
		</g>
	</g>
	<path class="st1" d="M30,66c-1.9,0-3.8-0.5-5.5-1.5l-18.9-11C2.1,51.6,0,47.9,0,44V22c0-3.9,2.1-7.6,5.5-9.6l18.9-11
		c3.4-2,7.7-2,11.1,0l18.9,11c3.4,2,5.5,5.7,5.5,9.6V44c0,3.9-2.1,7.6-5.5,9.6l-18.9,11C33.8,65.5,31.9,66,30,66z M30,1.5
		c-1.7,0-3.3,0.4-4.8,1.3l-18.9,11c-3,1.7-4.8,4.9-4.8,8.3V44c0,3.4,1.8,6.6,4.8,8.3l18.9,11c3,1.7,6.6,1.7,9.6,0l18.9-11
		c3-1.7,4.8-4.9,4.8-8.3V22c0-3.4-1.8-6.6-4.8-8.3l-18.9-11C33.3,1.9,31.7,1.5,30,1.5z"/>
</g>
</svg>
