<?xml version="1.0" encoding="utf-8"?>
<!-- Generator: Adobe Illustrator 26.4.1, SVG Export Plug-In . SVG Version: 6.00 Build 0)  -->
<svg version="1.1" id="Capa_1" xmlns="http://www.w3.org/2000/svg" xmlns:xlink="http://www.w3.org/1999/xlink" x="0px" y="0px"
	 viewBox="0 0 55 60" style="enable-background:new 0 0 55 60;" xml:space="preserve">
<style type="text/css">
	.st0{fill:#FECF32;}
	.st1{clip-path:url(#SVGID_00000171705963450682721590000014061570482208020384_);fill:#29ABE2;}
	.st2{fill:url(#SVGID_00000133492999456273229880000006015643868497868707_);}
	.st3{fill:#FF646F;}
	.st4{fill:url(#SVGID_00000157298141969889927280000005447775258477474178_);}
</style>
<g>
	<path class="st0" d="M50.1,48.5L32.4,58.7c-3,1.7-6.7,1.7-9.7,0L4.9,48.5c-3-1.7-4.9-4.9-4.9-8.3V19.8c0-3.4,1.8-6.6,4.9-8.3
		L22.6,1.3c3-1.7,6.7-1.7,9.7,0l17.8,10.2c3,1.7,4.9,4.9,4.9,8.3v20.4C55,43.6,53.2,46.8,50.1,48.5z"/>
	<g>
		<defs>
			<path id="SVGID_1_" d="M50.1,48.5L32.4,58.7c-3,1.7-6.7,1.7-9.7,0L4.9,48.5c-3-1.7-4.9-4.9-4.9-8.3V19.8c0-3.4,1.8-6.6,4.9-8.3
				L22.6,1.3c3-1.7,6.7-1.7,9.7,0l17.8,10.2c3,1.7,4.9,4.9,4.9,8.3v20.4C55,43.6,53.2,46.8,50.1,48.5z"/>
		</defs>
		<use xlink:href="#SVGID_1_"  style="overflow:visible;fill:#62DBFB;"/>
		<clipPath id="SVGID_00000036957379686243048730000018043678409643064964_">
			<use xlink:href="#SVGID_1_"  style="overflow:visible;"/>
		</clipPath>
		<path style="clip-path:url(#SVGID_00000036957379686243048730000018043678409643064964_);fill:#29ABE2;" d="M48.4,45.4
			c-0.7,0-1.3,0.6-1.3,1.3v1.7h-9.4v-0.1c2.6-1.6,4.8-3.9,6.4-6.5c1.8-2.9,2.7-6.3,2.7-9.8c0-5.1-2-9.9-5.7-13.6
			c-3.7-3.6-8.5-5.6-13.7-5.6c-5.2,0-10,2-13.7,5.6C10.2,22,8.2,26.9,8.2,32c0,3.4,0.9,6.8,2.7,9.8c1.6,2.6,3.8,4.9,6.4,6.5v0.1H7.9
			v-1.7c0-0.7-0.6-1.3-1.3-1.3c-0.7,0-1.3,0.6-1.3,1.3v8.9c0,0.7,0.6,1.3,1.3,1.3h17.9c0.3,0,0.7-0.1,0.9-0.4
			c0.2-0.2,0.4-0.6,0.4-0.9l0-12c0-0.6-0.4-1.1-1-1.2c-4.7-1.2-8-5.4-8-10.3c0-5.9,4.8-10.6,10.7-10.6c1.1,0,2.2,0.2,3.2,0.5
			c0.7,0.2,1.3,0.5,1.9,0.8c0.3,0.2,0.6,0.3,0.9,0.5c2,1.3,3.5,3.3,4.3,5.7c0.3,1,0.5,2.1,0.5,3.2c0,4.8-3.3,9.1-8,10.3
			c-0.6,0.1-1.1,0.6-1.1,1.3l0,12c0,0.3,0.1,0.7,0.4,0.9c0.2,0.2,0.6,0.4,0.9,0.4h17.9c0.7,0,1.3-0.6,1.3-1.3v-8.9
			C49.7,46,49.1,45.4,48.4,45.4z"/>
	</g>
	<g>
		
			<linearGradient id="SVGID_00000006699890003707720510000017916174012509902734_" gradientUnits="userSpaceOnUse" x1="27.5" y1="11.7338" x2="27.5" y2="65.8467">
			<stop  offset="0" style="stop-color:#FF931E"/>
			<stop  offset="1" style="stop-color:#FF1D25"/>
		</linearGradient>
		<path style="fill:url(#SVGID_00000006699890003707720510000017916174012509902734_);" d="M35.1,46v-2.1c0-0.5,0.2-0.9,0.7-1.1
			c5.2-3,8.4-8.5,8.4-14.4c0-9.2-7.5-16.6-16.7-16.6s-16.7,7.4-16.7,16.6c0,5.9,3.2,11.5,8.4,14.4c0.4,0.2,0.7,0.7,0.7,1.1V46
			c0,0.7-0.6,1.3-1.3,1.3H7.9v3.3h15.3l0-9.8c-5.4-1.8-9-6.8-9-12.5c0-7.3,6-13.2,13.3-13.2S40.8,21,40.8,28.3
			c0,5.7-3.7,10.7-9,12.5l0,9.8h15.3v-3.3H36.4C35.7,47.3,35.1,46.7,35.1,46L35.1,46z"/>
		<path class="st3" d="M48.4,41.7c-0.7,0-1.3,0.6-1.3,1.3v1.7h-9.4v-0.1c2.6-1.6,4.8-3.9,6.4-6.5c1.8-2.9,2.7-6.3,2.7-9.8
			c0-5.1-2-9.9-5.7-13.6c-3.7-3.6-8.5-5.6-13.7-5.6s-10,2-13.7,5.6c-3.7,3.6-5.7,8.4-5.7,13.6c0,3.4,0.9,6.8,2.7,9.8
			c1.6,2.6,3.8,4.9,6.4,6.5v0.1H7.9V43c0-0.7-0.6-1.3-1.3-1.3S5.3,42.3,5.3,43v8.9c0,0.7,0.6,1.3,1.3,1.3h17.9
			c0.3,0,0.7-0.1,0.9-0.4c0.2-0.2,0.4-0.6,0.4-0.9l0-12c0-0.6-0.4-1.1-1-1.2c-4.7-1.2-8-5.4-8-10.3c0-5.9,4.8-10.6,10.7-10.6
			s10.7,4.8,10.7,10.6c0,4.8-3.3,9.1-8,10.3c-0.6,0.1-1.1,0.6-1.1,1.3l0,12c0,0.3,0.1,0.7,0.4,0.9c0.2,0.2,0.6,0.4,0.9,0.4h17.9
			c0.7,0,1.3-0.6,1.3-1.3V43C49.7,42.3,49.1,41.7,48.4,41.7z"/>
	</g>
	
		<linearGradient id="SVGID_00000168105234874561257160000001430931242335914643_" gradientUnits="userSpaceOnUse" x1="38.6028" y1="-4.7053" x2="38.6028" y2="135.5165">
		<stop  offset="0" style="stop-color:#ED1E79"/>
		<stop  offset="1" style="stop-color:#93278F"/>
	</linearGradient>
	<path style="fill:url(#SVGID_00000168105234874561257160000001430931242335914643_);" d="M38.2,28.3c0,4.8-3.3,9.1-8,10.3
		c-0.6,0.1-1.1,0.6-1.1,1.3l0,12c0,0.3,0.1,0.7,0.4,0.9c0.2,0.2,0.6,0.4,0.9,0.4h17.9c0.7,0,1.3-0.6,1.3-1.3V43
		c0-0.7-0.6-1.3-1.3-1.3c-0.7,0-1.3,0.6-1.3,1.3v1.7h-9.4v-0.1c2.6-1.6,4.8-3.9,6.4-6.5c1.8-2.9,2.7-6.3,2.7-9.8
		c0-5.1-2-9.9-5.7-13.6c-3.7-3.6-8.5-5.6-13.7-5.6v8.5C33.4,17.7,38.2,22.5,38.2,28.3L38.2,28.3z"/>
</g>
</svg>
