<?xml version="1.0" encoding="utf-8"?>
<!-- Generator: Adobe Illustrator 26.4.1, SVG Export Plug-In . SVG Version: 6.00 Build 0)  -->
<svg version="1.1" id="Capa_1" xmlns="http://www.w3.org/2000/svg" xmlns:xlink="http://www.w3.org/1999/xlink" x="0px" y="0px"
	 viewBox="0 0 60 66" style="enable-background:new 0 0 60 66;" xml:space="preserve">
<style type="text/css">
	.st0{fill:#373769;}
</style>
<g>
	<g>
		<path class="st0" d="M41.4,45.1c0.4,0,0.7-0.3,0.7-0.7c0-0.4-0.3-0.7-0.7-0.7s-0.7,0.3-0.7,0.7C40.6,44.8,41,45.1,41.4,45.1z"/>
		<path class="st0" d="M42.6,38.9c-0.4,0-0.7,0.3-0.7,0.7s0.3,0.7,0.7,0.7c0.4,0,0.7-0.3,0.7-0.7S43,38.9,42.6,38.9z"/>
		<path class="st0" d="M35.9,45.6c0,0.4,0.3,0.7,0.7,0.7s0.7-0.3,0.7-0.7c0-0.4-0.3-0.7-0.7-0.7S35.9,45.2,35.9,45.6z"/>
		<path class="st0" d="M25.2,26.8c0.9-1.6,2-3.2,3.1-4.7l0.1-0.1l-1.2-0.8l-0.1,0.1c-1.1,1.6-2.2,3.2-3.2,4.8l-0.1,0.1l1.2,0.7
			L25.2,26.8z"/>
		<path class="st0" d="M23.2,30.3c0.4-0.8,0.8-1.6,1.3-2.4l0.1-0.1l-1.2-0.7l-0.1,0.1c-0.5,0.8-0.9,1.6-1.3,2.4l-0.1,0.1l1.3,0.7
			L23.2,30.3z"/>
		<path class="st0" d="M43.2,27.7c3,0,5.5-2.5,5.5-5.5v-3.1h-3.1c-3,0-5.5,2.5-5.5,5.5v2.1l-0.5,0.5c-3-5.5-8.2-12.9-9.5-12.9
			c-1.3,0-7.1,8.8-7.1,8.9c-0.1,0.1-0.1,0.2-0.2,0.3l0,0l-0.4-0.4V21c0-3-2.5-5.5-5.5-5.5h-3.1v3.1c0,3,2.5,5.5,5.5,5.5h2.1l0.6,0.6
			c-2.2,3.6-4.8,8.8-5.2,12.9c-0.7-0.3-1.5-0.5-2.3-0.5h-3.1v3.1c0,3,2.5,5.5,5.5,5.5h2.1c2.5,3.8,6.6,6,11.1,6c1.7,0,3.3-0.3,4.9-1
			c1.3,0.6,2.7,1,4.1,1c5.3,0,9.6-4.3,9.6-9.6c0-2.6-1-5-2.8-6.8l-2-2l-0.1-0.1l-1.2,1.2c-0.5-1.7-1.3-3.6-2.4-5.7l0.9-0.9H43.2z
			 M42.4,22v2.3l-0.9,0.9v-0.7C41.5,23.7,41.8,22.7,42.4,22z M46.7,22l-1-1l-1.8,1.8v-2c0.5-0.2,1.1-0.4,1.7-0.4h1.7v1.7
			c0,0.1,0,0.3,0,0.5h-1.1L46.7,22z M44.6,24.1h2.1c-0.7,1.3-2.1,2.1-3.6,2.1h-0.6L44.6,24.1z M18.5,42.6v0.7l-0.9-0.9V40
			C18.2,40.7,18.5,41.6,18.5,42.6z M38.9,40l3.1-3.1l1.1,1.1c1.1,1.1,1.7,2.5,1.7,4.1c0,0,0,0.1,0,0.1L38.9,40z M39.1,47.9
			c-1.5,0-3-0.6-4.1-1.7l-1.1-1.1l3.1-3.1L39.1,47.9C39.1,47.9,39.1,47.9,39.1,47.9z M40.6,47.6l-2.2-6.3l6.2,2.2
			C44.1,45.6,42.5,47.1,40.6,47.6z M32.9,46.1l1.1,1.1c1.4,1.4,3.2,2.1,5.1,2.1c4,0,7.2-3.2,7.2-7.2c0-1.9-0.8-3.7-2.1-5.1l-1.1-1.1
			l0.7-0.7l1.1,1.1c1.5,1.5,2.4,3.6,2.4,5.8c0,4.5-3.7,8.2-8.2,8.2c-2.2,0-4.2-0.8-5.8-2.4l-1.1-1.1L32.9,46.1z M18.2,38.5l0-0.1
			c0-7.4,9.6-20,11.8-22.4c1.7,1.8,9.5,11.9,11.4,19.5L30.3,46.7l-0.1,0.1l2.1,2.1c0.3,0.3,0.7,0.6,1,0.9c-1.1,0.3-2.2,0.5-3.3,0.5
			c-4.1,0-7.9-2.1-10-5.6v-2.1C20,41,19.3,39.6,18.2,38.5z M15.4,42.1l2.1,2.1h-0.6c-1.5,0-2.9-0.8-3.6-2.1H15.4z M13.9,40.7h-1.1
			c0-0.2,0-0.3,0-0.5v-1.7h1.7c0.6,0,1.1,0.1,1.7,0.4v2L14.3,39l-1,1L13.9,40.7z M15.2,16.9h1.7c0.6,0,1.1,0.1,1.7,0.4v2l-0.6-0.7
			l-1,1l3,3h-0.6c-2.2,0-4.1-1.8-4.1-4.1V16.9z M20.9,21v0.7L20,20.7v-2.3C20.6,19.1,20.9,20.1,20.9,21z"/>
	</g>
	<path class="st0" d="M30,66c-1.9,0-3.8-0.5-5.5-1.5l-18.9-11C2.1,51.6,0,47.9,0,44V22c0-3.9,2.1-7.6,5.5-9.6l18.9-11
		c3.4-2,7.7-2,11.1,0l18.9,11c3.4,2,5.5,5.7,5.5,9.6V44c0,3.9-2.1,7.6-5.5,9.6l-18.9,11C33.8,65.5,31.9,66,30,66z M30,1.5
		c-1.7,0-3.3,0.4-4.8,1.3l-18.9,11c-3,1.7-4.8,4.9-4.8,8.3V44c0,3.4,1.8,6.6,4.8,8.3l18.9,11c3,1.7,6.6,1.7,9.6,0l18.9-11
		c3-1.7,4.8-4.9,4.8-8.3V22c0-3.4-1.8-6.6-4.8-8.3l-18.9-11C33.3,1.9,31.7,1.5,30,1.5z"/>
</g>
</svg>
