<?xml version="1.0" encoding="utf-8"?>
<!-- Generator: Adobe Illustrator 26.4.1, SVG Export Plug-In . SVG Version: 6.00 Build 0)  -->
<svg version="1.1" id="Capa_1" xmlns="http://www.w3.org/2000/svg" xmlns:xlink="http://www.w3.org/1999/xlink" x="0px" y="0px"
	 viewBox="0 0 60 66" style="enable-background:new 0 0 60 66;" xml:space="preserve">
<style type="text/css">
	.st0{fill:#373869;}
</style>
<g>
	<path class="st0" d="M50.7,13.5C44.1,9,37.1,6.8,30,6.9c-6.6,0.1-13.5,2.3-20.6,6.5c-0.5,0.3-0.8,0.8-0.8,1.3v18
		c0,3.2,0.5,6,1.4,8.5c1.1,2.9,2.8,5.2,5.1,7l13.9,10.5c0.3,0.2,0.6,0.3,0.9,0.3c0.3,0,0.7-0.1,0.9-0.3l13.9-10.5
		c2.3-1.8,4-4.1,5.1-7c0.9-2.5,1.4-5.3,1.4-8.5v-18C51.4,14.3,51.2,13.8,50.7,13.5z M48.3,15.6v17.1c0,6-1.8,10.3-5.3,13l-13,9.8
		l-13-9.8c-3.5-2.7-5.3-7-5.3-13V15.7C24.9,8.2,36.9,8.2,48.3,15.6z"/>
	<path class="st0" d="M25.4,19.8v5.9h-5.9c-0.9,0-1.6,0.7-1.6,1.6v6.1c0,0.9,0.7,1.6,1.6,1.6h5.9v5.9c0,0.9,0.7,1.6,1.6,1.6H33
		c0.9,0,1.6-0.7,1.6-1.6V35h5.9c0.9,0,1.6-0.7,1.6-1.6v-6.1c0-0.9-0.7-1.6-1.6-1.6h-5.9v-5.9c0-0.9-0.7-1.6-1.6-1.6H27
		C26.1,18.2,25.4,18.9,25.4,19.8z M33,28.9H39v3H33c-0.9,0-1.6,0.7-1.6,1.6v5.9h-3v-5.9c0-0.9-0.7-1.6-1.6-1.6H21v-3H27
		c0.9,0,1.6-0.7,1.6-1.6v-5.9h3v5.9C31.5,28.2,32.2,28.9,33,28.9z"/>
</g>
</svg>
