<?xml version="1.0" encoding="utf-8"?>
<!-- Generator: Adobe Illustrator 26.4.1, SVG Export Plug-In . SVG Version: 6.00 Build 0)  -->
<svg version="1.1" id="Capa_1" xmlns="http://www.w3.org/2000/svg" xmlns:xlink="http://www.w3.org/1999/xlink" x="0px" y="0px"
	 viewBox="0 0 60 66" style="enable-background:new 0 0 60 66;" xml:space="preserve">
<style type="text/css">
	.st0{fill:#373869;}
</style>
<g>
	<path class="st0" d="M49.6,14.6c-7-0.5-8.8-3.5-9.3-5.3C40,7.9,38.8,7,37.4,7H22.6c-1.4,0-2.6,0.9-3,2.3c-0.5,1.7-2.3,4.7-9.3,5.3
		c-2.1,0.2-3.8,2-3.7,4.1c0.1,4.3,0.7,12.7,3.7,20.8c1.7,4.6,4,8.5,6.9,11.7c3.4,3.8,7.6,6.4,12.4,7.8c0.1,0,0.3,0.1,0.4,0.1
		c0.1,0,0.3,0,0.4-0.1c4.8-1.4,9-4,12.4-7.8c2.8-3.1,5.1-7,6.9-11.7c3.1-8.1,3.6-16.5,3.7-20.8C53.4,16.5,51.8,14.7,49.6,14.6z
		 M50.5,18.6c-0.1,4.1-0.6,12.1-3.5,19.8C43.5,47.7,37.8,53.6,30,56c-7.8-2.4-13.5-8.3-16.9-17.5c-2.9-7.7-3.5-15.7-3.5-19.8
		c0-0.6,0.5-1.1,1.1-1.2c6.4-0.5,10.7-3.2,11.8-7.4c0-0.1,0.1-0.1,0.2-0.1h14.8c0.1,0,0.2,0,0.2,0.1c1.1,4.2,5.5,6.9,11.8,7.4
		C50,17.5,50.5,18,50.5,18.6z"/>
	<path class="st0" d="M45.3,18.3c-5.2-0.4-6.6-2.6-6.9-3.9c-0.3-1.2-1.4-2-2.6-2H24.3c-1.2,0-2.3,0.8-2.6,2
		c-0.3,1.3-1.7,3.5-6.9,3.9c-1.8,0.1-3.2,1.7-3.2,3.5c0.1,3.4,0.5,9.9,2.9,16.3c1.4,3.6,3.2,6.7,5.4,9.2c2.7,3,6,5,9.8,6.1
		c0.1,0,0.3,0.1,0.4,0.1c0.1,0,0.3,0,0.4-0.1c4.4-1.3,8.1-3.8,11-7.6c2.3-3,4.1-6.7,5.3-11c0.2-0.8-0.2-1.6-1-1.8
		c-0.8-0.2-1.6,0.2-1.8,1c-1.1,4-2.7,7.4-4.8,10c-2.4,3.1-5.5,5.3-9.1,6.4c-5.9-1.9-10.2-6.4-12.9-13.4c-2.2-6-2.7-12.2-2.7-15.3
		c0-0.3,0.2-0.6,0.5-0.6c5-0.4,8.5-2.5,9.5-5.9h11.2c0.3,1,0.9,2.3,2.4,3.5c1.7,1.4,4.1,2.2,7.1,2.4c0.3,0,0.5,0.3,0.5,0.6
		c0,1.1-0.1,2.8-0.3,4.8c0,0.4,0.1,0.8,0.3,1.1c0.2,0.3,0.6,0.5,1,0.5c0.8,0.1,1.5-0.5,1.6-1.3c0.2-1.7,0.3-3.4,0.3-5
		C48.5,20,47.1,18.5,45.3,18.3z"/>
	<path class="st0" d="M18.3,31.2C18.3,37.7,23.5,43,30,43c6.5,0,11.7-5.3,11.7-11.7c0-6.5-5.3-11.7-11.7-11.7
		C23.5,19.5,18.3,24.8,18.3,31.2z M21.2,31.2c0-4.9,4-8.8,8.8-8.8s8.8,4,8.8,8.8s-4,8.8-8.8,8.8S21.2,36.1,21.2,31.2z"/>
	<path class="st0" d="M46.1,29.3c-0.7,0-1.5,0.5-1.5,1.4c0,0.6,0.3,1.1,0.9,1.3c0.2,0.1,0.4,0.1,0.6,0.1c0.4,0,0.7-0.1,1-0.4
		c0.3-0.3,0.4-0.6,0.4-1c0-0.4-0.2-0.8-0.5-1.1C46.9,29.4,46.5,29.3,46.1,29.3z"/>
	<path class="st0" d="M26.2,33h1.7v1.7c0,0.5,0.4,1,1,1h2.1c0.5,0,1-0.4,1-1V33h1.7c0.5,0,1-0.4,1-1v-2.1c0-0.5-0.4-1-1-1h-1.7v-1.7
		c0-0.5-0.4-1-1-1h-2.1c-0.5,0-1,0.4-1,1v1.7h-1.7c-0.5,0-1,0.4-1,1V32C25.3,32.6,25.7,33,26.2,33z"/>
</g>
</svg>
