<?xml version="1.0" encoding="utf-8"?>
<!-- Generator: Adobe Illustrator 26.4.1, SVG Export Plug-In . SVG Version: 6.00 Build 0)  -->
<svg version="1.1" id="Capa_1" xmlns="http://www.w3.org/2000/svg" xmlns:xlink="http://www.w3.org/1999/xlink" x="0px" y="0px"
	 viewBox="0 0 55 60" style="enable-background:new 0 0 55 60;" xml:space="preserve">
<style type="text/css">
	.st0{fill:#695CC4;}
	.st1{fill:#FAC600;}
	.st2{fill:#E8B800;}
	.st3{fill:#FFFFFF;}
	.st4{fill:#8BC727;}
	.st5{fill:#81B823;}
	.st6{fill:#FE9901;}
	.st7{fill:#FB8801;}
	.st8{fill:#FEE97D;}
	.st9{fill:#FEDF30;}
	.st10{fill:#FE9738;}
	.st11{fill:#FE860A;}
</style>
<g>
	<path class="st0" d="M50.1,48.5L32.4,58.7c-3,1.7-6.7,1.7-9.7,0L4.9,48.5c-3-1.7-4.9-4.9-4.9-8.3V19.8c0-3.4,1.8-6.6,4.9-8.3
		L22.6,1.3c3-1.7,6.7-1.7,9.7,0l17.8,10.2c3,1.7,4.9,4.9,4.9,8.3v20.4C55,43.6,53.2,46.8,50.1,48.5z"/>
	<g>
		<g>
			<g>
				<path class="st1" d="M36.1,37.8c0-3.1,1.9-5.9,4.7-7L28.4,9.4c-0.3-0.5-1.1-0.5-1.4,0L14,31.8c-6.1,10.5,1.5,23.5,13.7,23.5h0
					c7,0,12.5-4.3,14.7-10C38.8,44.6,36.1,41.5,36.1,37.8L36.1,37.8z"/>
				<g>
					<path class="st2" d="M20.9,31.8l10.2-17.6l-2.8-4.7c-0.3-0.5-1.1-0.5-1.4,0L14,31.8c-6.1,10.5,1.5,23.5,13.7,23.5h0
						c1.2,0,2.4-0.1,3.5-0.4C21.1,52.7,15.4,41.2,20.9,31.8L20.9,31.8z"/>
				</g>
			</g>
			<path class="st3" d="M32.7,43.7h-9.3v-6.5h9.2c0.4,0,0.8-0.3,0.8-0.8c0-0.4-0.3-0.8-0.8-0.8h-9.2v-6.5h9.3c0.4,0,0.8-0.3,0.8-0.8
				s-0.3-0.8-0.8-0.8H22.6c-0.4,0-0.8,0.3-0.8,0.8v15.9c0,0.4,0.3,0.8,0.8,0.8h10.1c0.4,0,0.8-0.3,0.8-0.8
				C33.5,44,33.1,43.7,32.7,43.7z"/>
		</g>
		<g>
			<g>
				<ellipse class="st4" cx="43.8" cy="37.8" rx="7.8" ry="7.7"/>
			</g>
			<g>
				<path class="st5" d="M41.6,37.8c0-3.3,2.1-6.1,5-7.2c-0.9-0.3-1.8-0.5-2.8-0.5c-4.3,0-7.8,3.5-7.8,7.7s3.5,7.7,7.8,7.7
					c1,0,1.9-0.2,2.8-0.5C43.7,43.9,41.6,41.1,41.6,37.8z"/>
			</g>
			<g>
				<path class="st3" d="M43.4,40.7c-0.2,0-0.4-0.1-0.5-0.2l-3-3c-0.3-0.3-0.3-0.8,0-1.1c0.3-0.3,0.8-0.3,1.1,0l2.5,2.4l3.7-3.7
					c0.3-0.3,0.8-0.3,1.1,0c0.3,0.3,0.3,0.8,0,1.1l-4.2,4.2C43.8,40.7,43.6,40.7,43.4,40.7L43.4,40.7z"/>
			</g>
		</g>
	</g>
	<g>
		<g>
			<path class="st6" d="M45.2,12.1c-1,4-2.2,5.3-6.3,6.2c-0.5,0.1-0.5,0.8,0,1c4.1,1,5.3,2.2,6.3,6.2c0.1,0.5,0.8,0.5,1,0
				c1-4,2.2-5.3,6.3-6.2c0.5-0.1,0.5-0.8,0-1c-4.1-1-5.3-2.2-6.3-6.2C46,11.6,45.3,11.6,45.2,12.1z"/>
		</g>
		<g>
			<g>
				<path class="st7" d="M42.7,16.8c-0.9,0.7-2.1,1.1-3.8,1.6c-0.5,0.1-0.5,0.8,0,1c4.1,1,5.3,2.2,6.3,6.2c0.1,0.5,0.8,0.5,1,0
					c0.4-1.7,0.9-2.9,1.6-3.8C46.9,18.9,45.7,17.7,42.7,16.8z"/>
			</g>
		</g>
	</g>
	<g>
		<path class="st4" d="M39.2,7h-1.5V5.5c0-0.4-0.3-0.8-0.8-0.8c-0.4,0-0.8,0.3-0.8,0.8V7h-1.5c-0.4,0-0.8,0.3-0.8,0.8
			s0.3,0.8,0.8,0.8h1.5V10c0,0.4,0.3,0.8,0.8,0.8c0.4,0,0.8-0.3,0.8-0.8V8.5h1.5c0.4,0,0.8-0.3,0.8-0.8C39.9,7.3,39.6,7,39.2,7z"/>
		<path class="st4" d="M9.6,30.8h-2v-1.9c0-0.4-0.3-0.8-0.8-0.8c-0.4,0-0.8,0.3-0.8,0.8v1.9h-2c-0.4,0-0.8,0.3-0.8,0.8
			c0,0.4,0.3,0.8,0.8,0.8h2v1.9c0,0.4,0.3,0.8,0.8,0.8c0.4,0,0.8-0.3,0.8-0.8v-1.9h2c0.4,0,0.8-0.3,0.8-0.8
			C10.3,31.1,10,30.8,9.6,30.8z"/>
	</g>
	<g>
		<path class="st6" d="M11.3,5.4c0.4-0.7,1.4-0.9,2.1-0.4c4.3,3.4,5.6,9.5,2.8,14.4s-8.9,6.8-14,4.7c-0.8-0.3-1.1-1.3-0.7-2L2.2,21
			l5.9-6.4l2.5-8L11.3,5.4z"/>
		<path class="st7" d="M16.2,19.4c-1.7,3-4.6,4.8-7.8,5.4c2.4-0.9,4.6-2.5,6-4.9c2.9-4.9,1.6-11-2.8-14.4c-0.1-0.1-0.1-0.1-0.2-0.1
			c0.4-0.7,1.4-0.9,2.1-0.3C17.8,8.4,19,14.5,16.2,19.4z"/>
		<path class="st8" d="M13.4,17.7c0,0-2.7,3.3-4.4,3.9l-0.9,0.3L7.6,22c-1.8,0.3-3.7-0.1-5.4-1l3.9-6.6l1.1-0.1l-0.4-1l3.2-5.4
			c1.9,1.1,4.3,3.9,4.3,3.9L13.4,17.7z"/>
		<path class="st9" d="M13.7,18c-1.3,2.3-3.6,3.7-6.1,4.1c1.7-0.7,3.2-1.9,4.2-3.6c2.1-3.6,1.2-8.1-1.9-10.6l0.7-1.2
			C14.6,8.9,16,14,13.7,18L13.7,18z"/>
		<path class="st10" d="M12.8,12.6L7.6,14l4.9,2.8l0.5,0.8l-0.8,0.1l-5.1-2.9l1.8,6.6l-0.2,0.4l-0.6,0.1l-2-7.5l0.7-1.2l5.8-1.5
			l0.8,0.3L12.8,12.6z"/>
		<g>
			<path class="st11" d="M8.1,21.9c0.3-0.1,0.6-0.3,0.9-0.5L9,21.7c-0.3,0.1-0.6,0.2-0.9,0.2L8.1,21.9z"/>
			<path class="st11" d="M12.6,16.8l1.3,0.8c-0.1,0.1-0.1,0.3-0.2,0.4c-0.1,0.1-0.2,0.3-0.3,0.4l-1.2-0.7
				C12.4,17.4,12.5,17.1,12.6,16.8z"/>
			<path class="st11" d="M14.6,12.1l-1.8,0.5c-0.1-0.3-0.1-0.6-0.2-0.9l1.8-0.5C14.5,11.5,14.6,11.8,14.6,12.1z"/>
		</g>
	</g>
</g>
</svg>
