<?xml version="1.0" encoding="utf-8"?>
<!-- Generator: Adobe Illustrator 26.4.1, SVG Export Plug-In . SVG Version: 6.00 Build 0)  -->
<svg version="1.1" id="Capa_1" xmlns="http://www.w3.org/2000/svg" xmlns:xlink="http://www.w3.org/1999/xlink" x="0px" y="0px"
	 viewBox="0 0 55 55" style="enable-background:new 0 0 55 55;" xml:space="preserve">
<style type="text/css">
	.st0{fill:#373869;}
</style>
<g>
	<path class="st0" d="M47.1,9.1c-7-0.5-8.8-3.5-9.3-5.3c-0.4-1.3-1.6-2.3-3-2.3H20.1c-1.4,0-2.6,0.9-3,2.3c-0.5,1.7-2.3,4.7-9.3,5.3
		c-2.1,0.2-3.8,2-3.7,4.1C4.2,17.5,4.8,25.9,7.9,34c1.7,4.6,4,8.5,6.9,11.7c3.4,3.8,7.6,6.4,12.4,7.8c0.1,0,0.3,0.1,0.4,0.1
		c0.1,0,0.3,0,0.4-0.1c4.8-1.4,9-4,12.4-7.8c2.8-3.1,5.1-7,6.9-11.7c3.1-8.1,3.6-16.5,3.7-20.8C50.9,11,49.3,9.2,47.1,9.1z M48,13.1
		c-0.1,4.1-0.6,12.1-3.5,19.8c-3.5,9.2-9.2,15.1-16.9,17.5C19.7,48.1,14,42.2,10.6,33C7.7,25.2,7.1,17.2,7,13.1
		c0-0.6,0.5-1.1,1.1-1.2c6.4-0.5,10.7-3.2,11.8-7.4c0-0.1,0.1-0.1,0.2-0.1h14.8c0.1,0,0.2,0,0.2,0.1c1.1,4.2,5.5,6.9,11.8,7.4
		C47.5,12,48,12.5,48,13.1z"/>
	<path class="st0" d="M42.8,12.8c-5.2-0.4-6.6-2.6-6.9-3.9c-0.3-1.2-1.4-2-2.6-2H21.8c-1.2,0-2.3,0.8-2.6,2
		c-0.3,1.3-1.7,3.5-6.9,3.9C10.4,13,9,14.5,9,16.4c0.1,3.4,0.5,9.9,2.9,16.3c1.4,3.6,3.2,6.7,5.4,9.2c2.7,3,6,5,9.8,6.1
		c0.1,0,0.3,0.1,0.4,0.1c0.1,0,0.3,0,0.4-0.1c4.4-1.3,8.1-3.8,11-7.6c2.3-3,4.1-6.7,5.3-11c0.2-0.8-0.2-1.6-1-1.8
		c-0.8-0.2-1.6,0.2-1.8,1c-1.1,4-2.7,7.4-4.8,10c-2.4,3.1-5.5,5.3-9.1,6.4c-5.9-1.9-10.2-6.4-12.9-13.4c-2.2-6-2.7-12.2-2.7-15.3
		c0-0.3,0.2-0.6,0.5-0.6c5-0.4,8.5-2.5,9.5-5.9h11.2c0.3,1,0.9,2.3,2.4,3.5c1.7,1.4,4.1,2.2,7.1,2.4c0.3,0,0.5,0.3,0.5,0.6
		c0,1.1-0.1,2.8-0.3,4.8c0,0.4,0.1,0.8,0.3,1.1c0.2,0.3,0.6,0.5,1,0.5c0.8,0.1,1.5-0.5,1.6-1.3c0.2-1.7,0.3-3.4,0.3-5
		C46,14.5,44.6,13,42.8,12.8z"/>
	<path class="st0" d="M15.8,25.7c0,6.5,5.3,11.7,11.7,11.7c6.5,0,11.7-5.3,11.7-11.7C39.2,19.3,34,14,27.5,14
		C21,14,15.8,19.3,15.8,25.7z M18.7,25.7c0-4.9,4-8.8,8.8-8.8s8.8,4,8.8,8.8s-4,8.8-8.8,8.8S18.7,30.6,18.7,25.7z"/>
	<path class="st0" d="M42.2,25.2c0,0.6,0.3,1.1,0.9,1.3c0.2,0.1,0.4,0.1,0.6,0.1c0.4,0,0.7-0.1,1-0.4c0.3-0.3,0.4-0.6,0.4-1
		c0-0.4-0.2-0.8-0.5-1.1C43.9,23.5,42.2,23.8,42.2,25.2z"/>
	<path class="st0" d="M23.7,27.5h1.7v1.7c0,0.5,0.4,1,1,1h2.1c0.5,0,1-0.4,1-1v-1.7h1.7c0.5,0,1-0.4,1-1v-2.1c0-0.5-0.4-1-1-1h-1.7
		v-1.7c0-0.5-0.4-1-1-1h-2.1c-0.5,0-1,0.4-1,1v1.7h-1.7c-0.5,0-1,0.4-1,1v2.1C22.8,27.1,23.2,27.5,23.7,27.5z"/>
</g>
</svg>
