<?xml version="1.0" encoding="utf-8"?>
<!-- Generator: Adobe Illustrator 26.4.1, SVG Export Plug-In . SVG Version: 6.00 Build 0)  -->
<svg version="1.1" id="Capa_1" xmlns="http://www.w3.org/2000/svg" xmlns:xlink="http://www.w3.org/1999/xlink" x="0px" y="0px"
	 viewBox="0 0 60 60" style="enable-background:new 0 0 60 60;" xml:space="preserve">
<style type="text/css">
	.st0{fill:#1A1A1A;}
</style>
<g>
	<path class="st0" d="M52.2,9.6c-8.2-0.6-10.4-4.3-11-6.4C40.9,1.9,39.7,1,38.4,1H21.6c-1.3,0-2.5,0.9-2.9,2.2
		c-0.6,2.1-2.8,5.7-11,6.4C5.6,9.7,4,11.6,4,13.7C4.1,18.6,4.7,28,8.2,37.2c1.9,5.2,4.5,9.6,7.7,13.1c3.8,4.2,8.4,7.1,13.8,8.7
		c0.2,0.1,0.4,0.1,0.6,0c5.4-1.6,10-4.5,13.8-8.7c3.2-3.5,5.7-7.9,7.7-13.1c3.4-9.2,4.1-18.6,4.2-23.5C56,11.6,54.4,9.7,52.2,9.6z
		 M49.7,36.4c-4,10.7-10.6,17.5-19.7,20.3c-9.1-2.8-15.7-9.6-19.7-20.3c-3.3-8.9-4-18-4-22.7c0-1,0.7-1.8,1.7-1.9
		c5.6-0.4,11.5-2.6,13-8c0.1-0.3,0.4-0.5,0.7-0.5h16.8c0.3,0,0.6,0.2,0.7,0.5c1.5,5.4,7.3,7.6,13,8c1,0.1,1.7,0.9,1.7,1.9
		C53.7,18.4,53,27.5,49.7,36.4z"/>
	<path class="st0" d="M47.3,13.8c-6.2-0.5-7.9-3.2-8.3-4.8c-0.3-1.1-1.3-1.9-2.5-1.9h-13c-1.2,0-2.2,0.8-2.5,1.9
		c-0.4,1.6-2.1,4.3-8.3,4.8c-1.8,0.1-3.2,1.7-3.2,3.5c0.1,3.8,0.6,11.2,3.3,18.3c1.5,4.1,3.6,7.5,6,10.2c3,3.3,6.6,5.6,10.9,6.8
		c0.2,0.1,0.4,0.1,0.6,0c4.9-1.4,9-4.3,12.2-8.4C45.1,41,47,36.9,48.4,32c0.2-0.6-0.2-1.2-0.8-1.4c-0.6-0.2-1.2,0.2-1.4,0.8
		c-1.3,4.6-3.1,8.5-5.5,11.6c-2.8,3.7-6.4,6.2-10.7,7.5c-6.9-2.1-12-7.4-15.1-15.6c-2.6-6.9-3.1-14-3.1-17.6c0-0.6,0.5-1.1,1.1-1.2
		c4.5-0.4,9.1-2.1,10.3-6.4c0-0.1,0.2-0.2,0.3-0.2h13c0.1,0,0.3,0.1,0.3,0.2c0.3,1,1,2.5,2.6,3.8c1.8,1.5,4.4,2.3,7.7,2.6
		c0.6,0,1.1,0.6,1.1,1.2c0,1.2-0.1,3.2-0.4,5.5c-0.1,0.6,0.4,1.2,1,1.3c0.6,0.1,1.2-0.4,1.2-1c0.2-1.9,0.3-3.8,0.4-5.7
		C50.5,15.5,49.1,14,47.3,13.8z"/>
	<path class="st0" d="M30,15.2c-7.1,0-12.8,5.8-12.8,12.8c0,7.1,5.7,12.8,12.8,12.8c7.1,0,12.8-5.8,12.8-12.8
		C42.8,20.9,37.1,15.2,30,15.2z M30,38.6c-5.8,0-10.5-4.7-10.5-10.5S24.2,17.5,30,17.5c5.8,0,10.5,4.7,10.5,10.5S35.8,38.6,30,38.6z
		"/>
	<path class="st0" d="M34.3,25.9h-2.4v-2.4c0-0.3-0.3-0.6-0.6-0.6h-2.4c-0.3,0-0.6,0.3-0.6,0.6v2.4h-2.4c-0.3,0-0.6,0.3-0.6,0.6v2.4
		c0,0.3,0.3,0.6,0.6,0.6h2.4v2.4c0,0.3,0.3,0.6,0.6,0.6h2.4c0.3,0,0.6-0.3,0.6-0.6v-2.4h2.4c0.3,0,0.6-0.3,0.6-0.6v-2.4
		C34.9,26.1,34.6,25.9,34.3,25.9z"/>
</g>
</svg>
