<?xml version="1.0" encoding="utf-8"?>
<!-- Generator: Adobe Illustrator 26.4.1, SVG Export Plug-In . SVG Version: 6.00 Build 0)  -->
<svg version="1.1" id="Capa_1" xmlns="http://www.w3.org/2000/svg" xmlns:xlink="http://www.w3.org/1999/xlink" x="0px" y="0px"
	 viewBox="0 0 55 60" style="enable-background:new 0 0 55 60;" xml:space="preserve">
<style type="text/css">
	.st0{fill:#FCD354;}
	.st1{fill:#F5F8F9;}
	.st2{fill:#B5DBFD;}
	.st3{fill:#E8EDF2;}
	.st4{fill:#8DCAFC;}
	.st5{fill:#64B9FC;}
</style>
<g>
	<path class="st0" d="M50.1,48.5L32.4,58.7c-3,1.7-6.7,1.7-9.7,0L4.9,48.5c-3-1.7-4.9-4.9-4.9-8.3V19.8c0-3.4,1.8-6.6,4.9-8.3
		L22.6,1.3c3-1.7,6.7-1.7,9.7,0l17.8,10.2c3,1.7,4.9,4.9,4.9,8.3v20.4C55,43.6,53.2,46.8,50.1,48.5z"/>
	<g>
		<path class="st1" d="M39.7,55.7l-0.2,2.6c-0.2,0.9-1,1.6-1.9,1.6L35.2,60H16.9c-0.9,0-1.7-0.7-1.9-1.6l-0.8-4.4c0.5,1,2,1,3.2,1
			l20.8-0.3C39.3,54.8,39.7,55.7,39.7,55.7z"/>
		<path class="st2" d="M44.6,27.8c-1.1,0.9-2.2,13.3-3.4,20l-1.1,5.9c-0.5,1-0.8,2.1-1.9,2.1H16.8c-1.2,0-2.2-0.7-2.6-1.7L13,48
			c-1.3-7-2.2-14.1-2.7-21.2c4-3.2,11.8-2.9,16.9-0.1c0.2,0.1,0.3,0.2,0.5,0.2c2.7,1.4,5.2,2,8.2,2C38.8,29,41.6,28.8,44.6,27.8
			C44.6,27.8,44.6,27.8,44.6,27.8z"/>
		<path class="st3" d="M40.8,54.1L40,58.4c-0.2,0.9-1,1.6-1.9,1.6h-3v-4.2l0.4,0l2.7-0.3C39.5,55.5,39.6,55,40.8,54.1L40.8,54.1z"/>
		<path class="st4" d="M44.6,27.8C44.6,27.8,44.6,27.8,44.6,27.8c-2.7,1.4-5.7,2.1-8.7,2.1c-2.9,0-5.9-0.7-8.6-2.1
			c-0.2-0.1-0.3-0.2-0.5-0.2c-0.4-0.2-0.8-0.4-1.2-0.6C30.6,22.7,40.6,22,44.6,27.8z"/>
		<path class="st1" d="M44.4,14c0,4.7-0.1,9.4,0.2,13.8c-5.4-3.5-13.1-3.8-18.9-0.8c-4.9-2.2-10.5-2.3-15.4-0.2
			c-0.3-4.4-0.5-8.8-0.5-13.2c0-0.3,0.1-0.5,0.3-0.7c0.2-0.2,0.4-0.3,0.7-0.3H42l1.4,0.4C44,13,44.4,13.5,44.4,14z"/>
		<path class="st4" d="M44.6,27.8C44.1,34.6,43.2,41.3,42,48l-1.1,6c-0.5,1-1.5,1.7-2.6,1.7h-3.1c1.2,0,2.2-0.7,2.6-1.7l1.1-6
			c1.2-6.3,2-12.6,2.5-18.9C42.5,28,43.4,27.8,44.6,27.8C44.6,27.8,44.6,27.8,44.6,27.8L44.6,27.8z"/>
		<path class="st5" d="M44.6,27.8C44.6,27.8,44.6,27.8,44.6,27.8c-1,0.5-2.1,1-3.2,1.3c0-0.4,0.1-0.9,0.1-1.3c0-0.4,0.1-1,0.1-1.5
			C43.1,25.8,44.5,25.7,44.6,27.8z"/>
		<path class="st3" d="M45.1,13.7c0,4.7-0.2,9.4-0.5,14.1c-0.9-0.6-1.9-1.1-3-1.5c0.2-3.5,0.3-9,0.4-13.7h2.1
			C44.7,12.6,45.1,13.1,45.1,13.7z"/>
		<g>
			<ellipse class="st4" cx="25.3" cy="49.8" rx="2.5" ry="2.5"/>
			<ellipse class="st4" cx="34" cy="42" rx="1.9" ry="1.9"/>
			<ellipse class="st4" cx="25.1" cy="37.2" rx="1.4" ry="1.4"/>
			<ellipse class="st4" cx="18.4" cy="31.4" rx="1.4" ry="1.4"/>
		</g>
	</g>
</g>
</svg>
