<?xml version="1.0" encoding="utf-8"?>
<!-- Generator: Adobe Illustrator 26.4.1, SVG Export Plug-In . SVG Version: 6.00 Build 0)  -->
<svg version="1.1" id="Capa_1" xmlns="http://www.w3.org/2000/svg" xmlns:xlink="http://www.w3.org/1999/xlink" x="0px" y="0px"
	 viewBox="0 0 55 60" style="enable-background:new 0 0 55 60;" xml:space="preserve">
<style type="text/css">
	.st0{fill:#FF5368;}
	.st1{fill:#FFDE46;}
	.st2{fill:#FFCD00;}
	.st3{fill:#A54D2F;}
</style>
<g>
	<path class="st0" d="M50.1,48.5L32.4,58.7c-3,1.7-6.7,1.7-9.7,0L4.9,48.5c-3-1.7-4.9-4.9-4.9-8.3V19.8c0-3.4,1.8-6.6,4.9-8.3
		L22.6,1.3c3-1.7,6.7-1.7,9.7,0l17.8,10.2c3,1.7,4.9,4.9,4.9,8.3v20.4C55,43.6,53.2,46.8,50.1,48.5z"/>
	<g>
		<path class="st1" d="M27.5,53.7L27.5,53.7c-0.1,0-0.2,0-0.4,0C12.4,53.5,4,36.9,12.4,24.9L24.2,8c0.7-1.1,2-1.7,3.3-1.7l0,0
			c1.3,0,2.5,0.6,3.3,1.7l11.9,17c8.4,12,0,28.5-14.8,28.8C27.7,53.7,27.6,53.7,27.5,53.7z"/>
		<path class="st2" d="M30.8,53.4c-0.9,0.2-1.9,0.3-2.9,0.3c-0.1,0-0.2,0-0.4,0l0,0c-0.1,0-0.3,0-0.4,0C12.4,53.4,4,36.9,12.4,24.9
			L24.2,8c0.7-1.1,2-1.7,3.3-1.7c0,0,0,0,0,0c1.9,0,2.9,2.1,1.9,3.6l-10.5,15C11.1,36.1,17.9,51.2,30.8,53.4z"/>
		<path class="st2" d="M39,43.4c0,1.7-1.4,3.1-3.1,3.1c-1.7,0-3.1-1.4-3.1-3.1s1.4-3.1,3.1-3.1C37.6,40.3,39,41.7,39,43.4z M40,34.1
			c-1.2,0-2.1,0.9-2.1,2.1c0,1.1,0.9,2.1,2.1,2.1c1.2,0,2.1-0.9,2.1-2.1C42.1,35,41.2,34.1,40,34.1z"/>
	</g>
	<path class="st3" d="M32.4,39.2h-7.7v-3.3h3.8c1.1,0,2-0.9,2-1.9c0-1.1-0.9-2-2-2h-3.8v-3.1H32c1.1,0,2-0.9,2-2
		c0-1.1-0.9-1.9-2-1.9h-9.4c-1.2,0-2.1,0.9-2.1,2.1v14c0,1.1,0.9,2.1,2.1,2.1h9.8c1.1,0,2-0.9,2-1.9C34.4,40.1,33.5,39.2,32.4,39.2z
		"/>
</g>
</svg>
