<?xml version="1.0" encoding="utf-8"?>
<!-- Generator: Adobe Illustrator 26.4.1, SVG Export Plug-In . SVG Version: 6.00 Build 0)  -->
<svg version="1.1" id="Capa_1" xmlns="http://www.w3.org/2000/svg" xmlns:xlink="http://www.w3.org/1999/xlink" x="0px" y="0px"
	 viewBox="0 0 60 66" style="enable-background:new 0 0 60 66;" xml:space="preserve">
<style type="text/css">
	.st0{fill:#373869;}
</style>
<g>
	<path class="st0" d="M51.7,21c0-1.7,0-5.3-1.9-7.2c-0.7-0.7-1.7-1.1-2.8-1.1c0,0,0,0,0,0h-0.1c-1.3,0-2.5,0.5-3.5,1.4
		c-1.6-1.9-4-2.9-7.1-2.9c-1.7,0-3.3,0.3-4.8,1.1c-1,0.5-2.2,0.5-3.2,0c-1.5-0.8-3.1-1.1-4.8-1.1c-3.1,0-5.5,1-7.1,2.9
		c-0.9-0.9-2.1-1.4-3.5-1.4H13c-1.1,0-2.1,0.4-2.8,1.1c-1.9,1.8-1.9,5.4-1.9,7.2c0,1.9,0.4,6.2,2.1,8.6c-1.7,1.9-2.4,4.5-2,6.9
		c0.4,2.2,1.7,4.1,3.5,5.4c0.4,0.2,0.6,0.6,0.8,0.9l1,2.2c0.3,0.7,1,1.2,1.7,1.4c0.1,0.2,0.2,0.5,0.3,0.7c0,0.1,0,0.1,0,0.2
		c-1.7,1.1-2.3,3.4-1.4,5.2c0.7,1.4,2,2.2,3.6,2.2c1.1,0,2.1-0.4,2.9-1.2c1,0.3,2.2,0.3,3.1-0.2c1.6-0.8,2.4-2.6,2.1-4.3
		c-0.3-1.8-1.7-3.1-3.5-3.3c-0.1,0-0.1-0.1-0.1-0.1c0-0.3,0-0.5,0-0.8c0.5-0.4,0.8-0.9,0.9-1.5c1.9,1.4,4.2,2.3,6.5,2.3
		c2.4-0.1,4.7-0.9,6.5-2.3c0.1,0.6,0.4,1.1,0.9,1.5c0,0.3,0,0.5,0,0.8c0,0.1-0.1,0.1-0.1,0.1c-1.8,0.2-3.2,1.5-3.5,3.3
		c-0.3,1.8,0.5,3.5,2.1,4.3c1,0.5,2.1,0.6,3.1,0.2c0.8,0.8,1.8,1.2,2.9,1.2c1.5,0,2.9-0.9,3.6-2.2c0.9-1.8,0.3-4.1-1.3-5.2
		c-0.1,0-0.1-0.1,0-0.2c0.1-0.2,0.2-0.5,0.3-0.7c0.8-0.2,1.4-0.7,1.7-1.4l1-2.1c0.2-0.4,0.5-0.7,0.8-0.9c1.8-1.2,3.1-3.2,3.5-5.4
		c0.4-2.5-0.3-5.1-2-7C51.6,26.6,51.7,21.1,51.7,21z M41.7,50.6L41.7,50.6c0.1-0.3,0-0.6-0.1-0.9c-0.2-0.3-0.4-0.5-0.8-0.5
		c-0.3-0.1-0.6,0-0.9,0.2c-0.3,0.2-0.5,0.4-0.5,0.8c-0.1,0.5-0.4,0.9-0.9,1.1c-0.5,0.2-1,0.2-1.4,0c-0.5-0.3-0.8-0.8-0.9-1.4
		c0-0.8,0.6-1.5,1.4-1.6c1.2-0.2,2.1-1.1,2.2-2.3c0-0.1,0-0.1,0-0.2l2.1,0.5c0,0,0,0.1-0.1,0.1c-0.4,1.1,0,2.4,1,3.1
		c0.7,0.5,0.9,1.3,0.5,2.1c-0.3,0.5-0.8,0.9-1.4,0.9c-0.3,0-0.6-0.1-0.8-0.2C41.4,51.6,41.6,51.1,41.7,50.6z M38.9,42.7l0-1.9
		c0.8-0.9,1.6-1.9,2.2-3c0.2-0.4,0.3-0.8,0.1-1.2c-0.2-0.4-0.6-0.6-1.1-0.7c-0.5,0-0.9,0.2-1.1,0.6c-0.7,1.1-1.4,2.1-2.3,3
		c-2.2,2.3-4.5,3.5-6.9,3.5c-2.4,0-4.7-1.2-6.9-3.5c-0.8-0.9-1.6-1.9-2.3-3c-0.3-0.5-1.1-0.7-1.7-0.4c-0.3,0.2-0.5,0.4-0.5,0.8
		s0,0.6,0.2,0.9c0.7,1.1,1.4,2.1,2.2,3l0,1.8c0,0.1-0.1,0.2-0.1,0.2L16.3,44c-0.1,0-0.2,0-0.2-0.1l-1-2.2c-0.4-0.8-1-1.4-1.7-1.9
		c-1.3-0.9-2.2-2.2-2.5-3.8c-0.4-2.1,0.4-4.2,2-5.5c0.6-0.5,1.4-0.9,2.2-1.1c0.3,0.9,0.6,1.8,0.9,2.6c0.1,0.4,0.5,0.7,0.9,0.8
		c0.4,0.1,0.9-0.1,1.2-0.4c0.3-0.3,0.3-0.8,0.2-1.2c-1-2.6-1.6-5.3-1.8-8c0-6.3,2.4-9.4,7.3-9.4c1.2,0,2.5,0.2,3.6,0.8
		c1.7,1,3.8,1,5.5,0c1.1-0.6,2.3-0.8,3.6-0.8c4.9,0,7.3,3.1,7.3,9.3c-0.1,2.8-0.7,5.5-1.8,8.1c-0.2,0.4-0.1,0.9,0.2,1.2
		c0.3,0.3,0.7,0.5,1.2,0.4c0.4-0.1,0.8-0.4,0.9-0.8c0.3-0.8,0.6-1.7,0.9-2.6c0.8,0.2,1.5,0.6,2.2,1.2c1.6,1.3,2.4,3.5,2,5.5
		c-0.3,1.5-1.2,2.9-2.5,3.8C46,40.3,45.4,41,45,41.8l-1,2.1c0,0.1-0.1,0.1-0.2,0.1l-4.7-1.1C39,42.9,38.9,42.8,38.9,42.7z
		 M19.2,49.1c-0.3,0.1-0.6,0.3-0.8,0.5c-0.2,0.3-0.2,0.6-0.2,0.9c0.1,0.5,0.3,1,0.6,1.4c-0.3,0.2-0.6,0.2-0.9,0.2
		c-0.6,0-1.1-0.3-1.4-0.9c-0.4-0.7-0.1-1.6,0.5-2.1c1-0.7,1.4-2,0.9-3.1c0,0,0-0.1-0.1-0.1l2.1-0.5c0,0,0,0.1,0,0.1
		c0.1,1.2,1,2.2,2.2,2.3c0.8,0.1,1.4,0.8,1.4,1.6c0,0.6-0.3,1.1-0.9,1.4c-0.5,0.3-1.2,0.2-1.7-0.1c-0.3-0.2-0.5-0.6-0.6-0.9
		c-0.1-0.3-0.3-0.6-0.5-0.8C19.8,49.1,19.5,49.1,19.2,49.1L19.2,49.1z M13.9,23.1c0,1.3,0.2,2.6,0.5,3.9c-0.8,0.2-1.5,0.5-2.1,0.9
		c-1.1-1.9-1.5-5.5-1.5-7c0-1.4,0-4.3,1.1-5.4c0.3-0.3,0.7-0.4,1.1-0.4c0,0,0.1,0,0.1,0c0.8,0,1.7,0.5,2.2,1.1
		C14.3,18.4,13.9,20.8,13.9,23.1z M45.6,27.1c0.3-1.3,0.4-2.6,0.5-3.9c0.1-2.3-0.3-4.7-1.2-6.8c0.5-0.7,1.3-1.1,2.2-1.1
		c0.4,0,0.8,0.1,1.1,0.4c1.1,1.1,1.1,4,1.1,5.4c0,1.4-0.4,5.1-1.5,7C47.1,27.6,46.3,27.3,45.6,27.1z"/>
	<path class="st0" d="M40.8,25.4c0.6,0,1.2-0.5,1.2-1.1c0-0.2,0.4-4.5-2-7.1c-1.2-1.3-3-2-4.8-2c-0.7,0-1.2,0.5-1.2,1.2
		c0,0.7,0.5,1.2,1.2,1.2c0,0,0,0,0,0c1.1-0.1,2.2,0.4,3,1.2c1.7,1.8,1.4,5.2,1.4,5.3c-0.1,0.7,0.4,1.3,1.1,1.3
		C40.8,25.4,40.8,25.4,40.8,25.4z"/>
	<path class="st0" d="M46.4,35.1c0,0.7,0.5,1.2,1.2,1.2c0.7,0,1.2-0.5,1.2-1.2c0-0.7-0.5-1.2-1.2-1.2C47,33.9,46.4,34.4,46.4,35.1z"
		/>
	<circle class="st0" cx="46.2" cy="37.9" r="1.2"/>
	<path class="st0" d="M46.2,33.5c0.7,0,1.2-0.5,1.2-1.2c0-0.7-0.5-1.2-1.2-1.2S45,31.6,45,32.3C45,33,45.6,33.5,46.2,33.5z"/>
	<path class="st0" d="M13.6,35.1c0-0.7-0.5-1.2-1.2-1.2c-0.7,0-1.2,0.5-1.2,1.2c0,0.7,0.5,1.2,1.2,1.2C13,36.3,13.6,35.8,13.6,35.1z
		"/>
	<circle class="st0" cx="13.8" cy="37.9" r="1.2"/>
	<path class="st0" d="M13.8,31.1c-0.7,0-1.2,0.5-1.2,1.2c0,0.7,0.5,1.2,1.2,1.2S15,33,15,32.3C15,31.6,14.4,31.1,13.8,31.1z"/>
</g>
</svg>
