<?xml version="1.0" encoding="utf-8"?>
<!-- Generator: Adobe Illustrator 26.4.1, SVG Export Plug-In . SVG Version: 6.00 Build 0)  -->
<svg version="1.1" id="Capa_1" xmlns="http://www.w3.org/2000/svg" xmlns:xlink="http://www.w3.org/1999/xlink" x="0px" y="0px"
	 viewBox="0 0 60 60" style="enable-background:new 0 0 60 60;" xml:space="preserve">
<style type="text/css">
	.st0{fill:#1A1A1A;}
</style>
<g>
	<path class="st0" d="M53.8,5.1C51.5,2.5,48.2,1,44.7,1H15.3c-3.5,0-6.8,1.5-9.1,4.1c-2.3,2.6-3.5,6.1-3.1,9.5l3.5,33.3
		C7.2,54.2,12.4,59,18.8,59h22.5c6.3,0,11.6-4.8,12.3-11.1l3.5-33.3C57.3,11.2,56.2,7.7,53.8,5.1z M41.2,55.9h-9.7V33.2
		c0-0.8-0.7-1.5-1.5-1.5s-1.5,0.7-1.5,1.5v22.8h-9.7c-4.8,0-8.7-3.6-9.2-8.3L6.1,14.3c-0.3-2.6,0.6-5.2,2.3-7.2
		c1.8-1.9,4.3-3.1,6.9-3.1h29.4c2.6,0,5.1,1.1,6.9,3.1c1.8,1.9,2.6,4.6,2.3,7.2l-3.5,33.3C49.9,52.3,46,55.9,41.2,55.9z"/>
	<path class="st0" d="M44.6,13.9C40.7,9.9,35.5,7.8,30,7.8c-5.5,0-10.7,2.2-14.6,6.1c-0.6,0.6-0.6,1.6,0,2.2l7,7
		c0.3,0.3,0.7,0.4,1.1,0.4s0.8-0.2,1.1-0.4c1.5-1.5,3.4-2.3,5.5-2.3s4,0.8,5.5,2.3c0.3,0.3,0.7,0.4,1.1,0.4c0,0,0,0,0,0
		c0.4,0,0.8-0.2,1.1-0.4l7-7C45.2,15.4,45.2,14.5,44.6,13.9z M36.4,19.7c-1.4-1-3-1.7-4.7-1.9l-0.1,0v-2.1c0-0.8-0.7-1.5-1.5-1.5
		s-1.5,0.7-1.5,1.5v2.1l-0.1,0c-1.7,0.3-3.3,0.9-4.7,1.9l-0.1,0.1L18.7,15l0.1-0.1c3.2-2.6,7-4,11.2-4s8,1.4,11.2,4l0.1,0.1
		l-4.8,4.8L36.4,19.7z"/>
	<path class="st0" d="M44.8,47.6c-0.7-0.1-1.3,0.3-1.6,0.9c-0.2,0.6-0.1,1.2,0.3,1.7c0.3,0.3,0.7,0.5,1.1,0.5c0.2,0,0.5,0,0.7-0.2
		l0,0c0.6-0.3,1-1,0.8-1.7C46,48.2,45.4,47.7,44.8,47.6z"/>
	<path class="st0" d="M38,47.6c-0.7-0.1-1.3,0.3-1.6,0.9c-0.2,0.6-0.1,1.2,0.3,1.7c0.3,0.3,0.7,0.5,1.1,0.5c0.2,0,0.5,0,0.7-0.2
		c0.6-0.3,1-1,0.8-1.7C39.2,48.2,38.6,47.7,38,47.6z"/>
	<path class="st0" d="M44.6,43.8c0.2,0,0.5,0,0.7-0.2l0,0c0.6-0.3,1-1,0.8-1.7c-0.1-0.7-0.7-1.2-1.4-1.2c-0.7-0.1-1.3,0.3-1.6,0.9
		c-0.2,0.6-0.1,1.2,0.3,1.7C43.8,43.7,44.2,43.8,44.6,43.8z"/>
	<path class="st0" d="M38,40.8c-0.7-0.1-1.3,0.3-1.6,0.9c-0.3,0.5-0.2,1.2,0.2,1.6c0.3,0.4,0.7,0.6,1.2,0.6c0.2,0,0.4,0,0.5-0.1
		c0.7-0.3,1.1-1,1-1.8C39.2,41.3,38.6,40.8,38,40.8z"/>
	<path class="st0" d="M43.3,34.7c-0.3,0.6-0.2,1.3,0.2,1.8c0.3,0.3,0.7,0.5,1.1,0.5c0.2,0,0.4,0,0.6-0.1l0,0c0.7-0.3,1.1-1,0.9-1.7
		c-0.1-0.6-0.7-1.1-1.3-1.2C44.2,33.8,43.6,34.1,43.3,34.7z"/>
	<path class="st0" d="M39.3,35.1c-0.1-0.6-0.7-1.1-1.3-1.2c-0.6-0.1-1.3,0.2-1.6,0.8c-0.3,0.6-0.2,1.3,0.2,1.8
		c0.3,0.3,0.7,0.5,1.1,0.5c0.2,0,0.4,0,0.6-0.1l0,0C39.1,36.6,39.4,35.9,39.3,35.1z"/>
	<path class="st0" d="M22.4,47.6c-0.7-0.1-1.3,0.3-1.6,0.9c-0.3,0.6-0.1,1.3,0.3,1.8c0.3,0.3,0.7,0.4,1.1,0.4c0.2,0,0.5-0.1,0.7-0.2
		l0,0c0.6-0.3,0.9-1,0.8-1.7C23.6,48.2,23,47.7,22.4,47.6z"/>
	<path class="st0" d="M15.5,47.6c-0.7-0.1-1.3,0.3-1.6,0.9c-0.3,0.5-0.2,1.2,0.2,1.6c0.3,0.4,0.7,0.6,1.2,0.6c0.2,0,0.4,0,0.5-0.1
		c0.7-0.3,1.1-1,1-1.7C16.7,48.2,16.2,47.7,15.5,47.6z"/>
	<path class="st0" d="M22.2,43.8c0.2,0,0.4,0,0.5-0.1c0.7-0.3,1.1-1,1-1.8c-0.1-0.6-0.7-1.1-1.3-1.2c-0.6-0.1-1.3,0.3-1.6,0.9
		c-0.3,0.5-0.2,1.2,0.2,1.6C21.3,43.6,21.7,43.8,22.2,43.8z"/>
	<path class="st0" d="M14.5,41c-0.5,0.4-0.8,1.1-0.6,1.7c0.2,0.6,0.8,1.1,1.5,1.1c0.7-0.1,1.2-0.4,1.4-1c0.2-0.6,0.1-1.3-0.5-1.8
		C15.8,40.7,15.1,40.6,14.5,41z"/>
	<path class="st0" d="M22.4,33.9c-0.6-0.1-1.3,0.2-1.6,0.8c-0.3,0.6-0.2,1.3,0.2,1.8c0.3,0.3,0.7,0.5,1.1,0.5c0.2,0,0.4,0,0.6-0.1
		l0,0c0.7-0.3,1.1-1,0.9-1.7C23.6,34.5,23.1,34,22.4,33.9z"/>
	<path class="st0" d="M15.4,37c0.2,0,0.4,0,0.6-0.1c0.7-0.3,1.1-1,0.9-1.7c-0.1-0.6-0.6-1.1-1.3-1.2c-0.6-0.1-1.3,0.2-1.6,0.8
		c-0.3,0.6-0.2,1.3,0.2,1.8C14.5,36.8,14.9,37,15.4,37z"/>
</g>
</svg>
