<?xml version="1.0" encoding="utf-8"?>
<!-- Generator: Adobe Illustrator 26.4.1, SVG Export Plug-In . SVG Version: 6.00 Build 0)  -->
<svg version="1.1" id="Capa_1" xmlns="http://www.w3.org/2000/svg" xmlns:xlink="http://www.w3.org/1999/xlink" x="0px" y="0px"
	 viewBox="0 0 60 66" style="enable-background:new 0 0 60 66;" xml:space="preserve">
<style type="text/css">
	.st0{fill:#373769;}
</style>
<g>
	<path class="st0" d="M46.1,29.4c0.8,0,1.4-0.2,1.8-0.6l3.2-3.2c0.2-0.2,0.3-0.4,0.2-0.7l0,0c-0.1-0.3-0.3-0.5-0.6-0.6
		c-0.3-0.1-0.5,0-0.7,0.2c-0.2,0.2-0.5,0.2-0.7,0.2c-1.5,0-4.3-1.2-7-4c-3.2-3.3-6.3-4.4-8.1-4.4c-0.8,0-1.4,0.2-1.8,0.6l-3.2,3.2
		c-1.2,1.2-0.9,5.3,3.8,10c1.2,1.2,2,2.2,2.5,3.1l0.3,0.6l-0.6-0.4c-1-0.7-2.1-1.5-3.1-2.5c-2.7-2.7-5.9-4.4-8.1-4.4
		c-0.8,0-1.4,0.2-1.8,0.6l-3.2,3.2c-1.2,1.2-0.9,5.3,3.8,10c1.1,1.1,2,2,2.4,3.1l0.2,0.6L25,43.5c-1-0.6-2-1.5-3-2.4
		c-2.6-2.7-5.9-4.4-8.1-4.4c-0.8,0-1.4,0.2-1.8,0.6L9,40.4c-0.2,0.2-0.3,0.5-0.2,0.7c0.1,0.3,0.3,0.5,0.6,0.6c0.1,0,0.4,0.1,0.7-0.2
		c0.1-0.1,0.4-0.2,0.7-0.2c1.5,0,4.3,1.2,7,4c2.7,2.7,5.9,4.4,8.1,4.4c0.8,0,1.4-0.2,1.8-0.6l3.2-3.2c1.2-1.2,0.9-5.3-3.8-10
		c-1.4-1.4-2.2-2.4-2.5-3.1l-0.2-0.6l0.5,0.3c1,0.7,2,1.5,3,2.5c2.7,2.7,5.9,4.4,8.1,4.4c0.8,0,1.4-0.2,1.8-0.6l3.1-3.2l0,0l0.1-0.1
		c1.1-1.3,0.7-5.3-3.9-9.9c-1.5-1.5-2.2-2.3-2.4-3.1l-0.2-0.5l0.5,0.3c1,0.6,2,1.5,3,2.5C41.2,28.2,44.3,29.4,46.1,29.4z M26.6,48.1
		c-0.1,0.1-0.4,0.2-0.7,0.2c-1.5,0-4.1-1.1-7-4c-2.3-2.3-4.8-3.9-6.9-4.3l-0.3-0.1l1.6-1.6c0.1-0.1,0.4-0.2,0.7-0.2c1.4,0,4.1,1,7,4
		c1.6,1.7,3.3,2.9,5,3.6c0.4,0.2,0.7,0.3,1,0.4c0.3,0.1,0.6,0.2,0.9,0.2l0.3,0.1L26.6,48.1z M26,37c3.8,3.8,4,6.6,4,7.1
		c0,0.2,0,0.6-0.2,0.7c-0.1,0.1-0.3,0.2-0.7,0.2c-0.7,0-1.6-0.3-2-0.4l-0.1,0l0-0.1c-0.1-2.1-1.4-3.6-3.1-5.3
		c-4-4.1-4.3-7.4-3.8-7.9c0.6-0.5,2.3,0.1,2.7,0.3l0.1,0l0,0.1C22.8,33.1,23.3,34.3,26,37z M36.7,37.9c-0.1,0.1-0.4,0.2-0.7,0.2
		c-1.4,0-4.1-1-7-4c-1.3-1.3-4-3.7-6.9-4.3l-0.3-0.1l1.6-1.6c0.1-0.1,0.4-0.2,0.7-0.2c1.4,0,4.1,1,7,4c1.3,1.3,4,3.7,6.9,4.3
		l0.3,0.1L36.7,37.9z M36.1,26.8c2.9,3,4,5.6,4,7.1c0,0.3,0,0.6-0.2,0.7c-0.1,0.1-0.3,0.2-0.6,0.2c-0.5,0-1.2-0.2-1.6-0.3l-0.1,0
		l0-0.1c-0.3-1.5-1-2.9-3.4-5.5c-3.7-3.8-4.2-6.8-3.9-7.7l0-0.1h0.1v-0.1l0.1-0.1c0.5-0.2,1.7,0.1,2.6,0.4l0.1,0l0,0.1
		C33,23.3,33.6,24.4,36.1,26.8z M34.2,20.3l-0.2-0.1c-0.3-0.2-1-0.5-1.9-0.7l-0.3-0.1l1.6-1.6c0.1-0.1,0.4-0.2,0.7-0.2
		c1.4,0,4.1,1,7,4c2.3,2.3,4.8,3.9,6.9,4.3l0.3,0.1l-1.6,1.6c-0.1,0.1-0.4,0.2-0.7,0.2c-1.4,0-4.1-1-7-4
		C37.5,22.3,35.8,21.1,34.2,20.3z"/>
	<g>
		<path class="st0" d="M30,66c-1.9,0-3.8-0.5-5.5-1.5l-18.9-11C2.1,51.6,0,47.9,0,44V22c0-3.9,2.1-7.6,5.5-9.6l18.9-11
			c3.4-2,7.7-2,11.1,0l18.9,11c3.4,2,5.5,5.7,5.5,9.6V44c0,3.9-2.1,7.6-5.5,9.6l-18.9,11C33.8,65.5,31.9,66,30,66z M30,1.5
			c-1.7,0-3.3,0.4-4.8,1.3l-18.9,11c-3,1.7-4.8,4.9-4.8,8.3V44c0,3.4,1.8,6.6,4.8,8.3l18.9,11c3,1.7,6.6,1.7,9.6,0l18.9-11
			c3-1.7,4.8-4.9,4.8-8.3V22c0-3.4-1.8-6.6-4.8-8.3l-18.9-11C33.3,1.9,31.7,1.5,30,1.5z"/>
	</g>
</g>
</svg>
