<?xml version="1.0" encoding="utf-8"?>
<!-- Generator: Adobe Illustrator 26.4.1, SVG Export Plug-In . SVG Version: 6.00 Build 0)  -->
<svg version="1.1" id="Capa_1" xmlns="http://www.w3.org/2000/svg" xmlns:xlink="http://www.w3.org/1999/xlink" x="0px" y="0px"
	 viewBox="0 0 60 66" style="enable-background:new 0 0 60 66;" xml:space="preserve">
<style type="text/css">
	.st0{fill:#373769;}
	.st1{fill:#373869;}
</style>
<g>
	<g>
		<path class="st0" d="M30,66c-1.9,0-3.8-0.5-5.5-1.5l-18.9-11C2.1,51.6,0,47.9,0,44V22c0-3.9,2.1-7.6,5.5-9.6l18.9-11
			c3.4-2,7.7-2,11.1,0l18.9,11c3.4,2,5.5,5.7,5.5,9.6V44c0,3.9-2.1,7.6-5.5,9.6l-18.9,11C33.8,65.5,31.9,66,30,66z M30,1.5
			c-1.7,0-3.3,0.4-4.8,1.3l-18.9,11c-3,1.7-4.8,4.9-4.8,8.3V44c0,3.4,1.8,6.6,4.8,8.3l18.9,11c3,1.7,6.6,1.7,9.6,0l18.9-11
			c3-1.7,4.8-4.9,4.8-8.3V22c0-3.4-1.8-6.6-4.8-8.3l-18.9-11C33.3,1.9,31.7,1.5,30,1.5z"/>
	</g>
	<g>
		<g>
			<path class="st1" d="M17.2,25c-0.3,0.1-0.7,0.2-1,0.3c-0.4,0.2-0.7,0.4-1,0.6l0,0c0,0,0,0.1,0,0.1c0,0,0,0.1,0,0.1
				c0.3,0.3,0.6,0.5,1,0.6c0.3,0.1,0.7,0.3,1,0.3c0.7,0.1,1.3,0,2-0.2c0.7-0.1,1.3-0.2,2-0.3c0.3-0.1,0.5-0.1,0.8-0.2
				c-1.7,2.6-0.3,6.1,4,10.4c4.4,4.4,9.9,7.5,16,8.9c0.2,0,0.5,0,0.6-0.2c0.2-0.2,0.2-0.4,0.2-0.6c-1.4-6.1-4.5-11.6-8.9-16
				c-4.3-4.3-7.8-5.6-10.4-4c0.1-0.3,0.1-0.5,0.2-0.8c0.1-0.7,0.2-1.3,0.3-2c0.2-0.6,0.3-1.3,0.2-2c-0.1-0.3-0.2-0.7-0.3-1
				c-0.2-0.4-0.4-0.7-0.6-1l0,0c0,0-0.1,0-0.1,0c0,0-0.1,0-0.1,0c-0.3,0.3-0.5,0.6-0.6,1c-0.1,0.3-0.3,0.7-0.3,1
				c-0.1,0.7,0,1.3,0.2,2c0.1,0.7,0.2,1.3,0.3,2l0,0c-0.2-0.6-0.5-1.3-0.7-1.9c-0.2-0.7-0.4-1.3-0.8-1.8c-0.2-0.3-0.5-0.5-0.8-0.7
				c-0.3-0.2-0.7-0.4-1.1-0.6l0,0c0,0-0.1,0-0.1,0c0,0-0.1,0.1-0.1,0.1C19,19.6,19,20,19,20.4c0,0.4,0.1,0.7,0.2,1
				c0.3,0.6,0.7,1.2,1.2,1.6c0.4,0.5,0.8,1.1,1.3,1.6c0.1,0.1,0.1,0.1,0.2,0.2c-0.1-0.1-0.1-0.1-0.2-0.2c-0.5-0.4-1-0.9-1.6-1.3
				c-0.5-0.5-1-0.9-1.6-1.2c-0.3-0.1-0.7-0.2-1-0.2c-0.4,0-0.8,0-1.2,0.1l0,0c0,0-0.1,0-0.1,0.1c0,0,0,0.1,0,0.1
				c0.1,0.4,0.3,0.7,0.6,1.1c0.2,0.3,0.4,0.5,0.7,0.8c0.6,0.4,1.2,0.7,1.8,0.8c0.6,0.3,1.3,0.5,1.9,0.7c-0.7-0.1-1.3-0.2-2-0.3
				C18.5,25.1,17.8,25,17.2,25z M30.5,27.8c-0.1,0.1-0.1,0.2-0.1,0.4c-0.1,0.6-0.4,1.2-1,1.6l-0.8,0.8c-0.2,0.2-0.3,0.4-0.2,0.7
				c0.1,0.3,0.3,0.5,0.5,0.5c0.3,0.1,0.5,0,0.7-0.2l0.8-0.8c0.6-0.5,1-1.2,1.3-2c0.4,0.3,0.8,0.7,1.2,1.1c0.2,0.2,0.5,0.5,0.7,0.7
				c-0.1,0.1-0.2,0.3-0.2,0.5c-0.1,0.6-0.4,1.2-1,1.6l-0.8,0.8c-0.2,0.2-0.3,0.4-0.2,0.7c0.1,0.2,0.3,0.4,0.5,0.5
				c0.2,0.1,0.5,0,0.7-0.2l0.8-0.8c0.6-0.5,1-1.2,1.2-1.9c0.6,0.7,1.2,1.5,1.7,2.2c0,0,0,0,0,0c-0.1,0.6-0.4,1.2-1,1.6l-0.8,0.8
				c-0.2,0.2-0.3,0.4-0.2,0.7c0.1,0.2,0.3,0.4,0.5,0.5c0.2,0.1,0.5,0,0.7-0.2l0.8-0.8c0.4-0.4,0.7-0.8,0.9-1.2
				c1.6,2.7,2.9,5.5,3.8,8.5c-5.3-1.5-10.2-4.3-14.2-8.2c-6.2-6.3-4-8.5-3.3-9.2c0.6-0.6,1.4-1,2.2-1C26.9,25.6,28.4,26.1,30.5,27.8
				z"/>
			<path class="st1" d="M28.1,35.8c0.3,0,0.5-0.2,0.6-0.4c0.1-0.3,0-0.6-0.2-0.8c-3-3-3.3-4.8-3.3-5v0c0-0.4-0.3-0.7-0.7-0.7
				c-0.4,0-0.7,0.3-0.7,0.7c0,0.2,0.1,2.4,3.7,6C27.7,35.7,27.9,35.8,28.1,35.8z"/>
			<path class="st1" d="M31.9,47.3c0.3-0.3,0.3-0.7,0-1L16.7,31.1c-0.3-0.3-0.7-0.3-1,0c-4.5,4.5-4.5,11.8,0,16.3
				C20.2,51.8,27.4,51.8,31.9,47.3z M16.5,32.9l13.6,13.6c-2.3,0.6-7.8,1.6-11.5-2.1C15,40.8,15.9,35.2,16.5,32.9z M14.7,35.1
				c-0.4,3-0.2,7.2,3,10.4c2.2,2.1,5.1,3.2,8.1,3.1c0.7,0,1.5-0.1,2.2-0.1c-3.8,1.7-8.3,0.9-11.3-2.1C13.7,43.4,12.9,38.9,14.7,35.1
				z"/>
			<path class="st1" d="M22,42.2c0.3,0.3,0.7,0.3,1,0c0.3-0.3,0.3-0.7,0-1L21.8,40c-0.2-0.2-0.4-0.3-0.7-0.2
				c-0.2,0.1-0.4,0.3-0.5,0.5c-0.1,0.2,0,0.5,0.2,0.7L22,42.2z"/>
			<path class="st1" d="M28.1,18.7c-0.3,0.3-0.3,0.7,0,1l15.2,15.3c0.3,0.3,0.7,0.3,1,0c4.5-4.5,4.5-11.8,0-16.3
				S32.6,14.2,28.1,18.7z M43.5,33.1L29.9,19.5c2.3-0.6,7.8-1.6,11.5,2.1C45.1,25.2,44.1,30.8,43.5,33.1z M45.3,30.9
				c0.4-3,0.2-7.2-3-10.4s-7.4-3.4-10.3-3c3.8-1.7,8.3-0.9,11.3,2.1C46.3,22.6,47.1,27.1,45.3,30.9z"/>
			<path class="st1" d="M38,23.8c-0.2-0.2-0.4-0.3-0.7-0.2c-0.2,0.1-0.4,0.3-0.5,0.5c-0.1,0.2,0,0.5,0.2,0.7l1.3,1.3
				c0.3,0.3,0.7,0.3,1,0c0.3-0.3,0.3-0.7,0-1L38,23.8z"/>
		</g>
	</g>
</g>
</svg>
