<?xml version="1.0" encoding="utf-8"?>
<!-- Generator: Adobe Illustrator 26.4.1, SVG Export Plug-In . SVG Version: 6.00 Build 0)  -->
<svg version="1.1" id="Capa_1" xmlns="http://www.w3.org/2000/svg" xmlns:xlink="http://www.w3.org/1999/xlink" x="0px" y="0px"
	 viewBox="0 0 60 66" style="enable-background:new 0 0 60 66;" xml:space="preserve">
<style type="text/css">
	.st0{fill:#373869;}
</style>
<g>
	<path class="st0" d="M50.3,22.4L50.3,22.4c1.7-1,2.8-2.8,2.8-4.9c0-3-2.3-5.4-5.2-5.6c-0.8-2.2-2.9-3.8-5.3-3.8
		c-2.4,0-4.5,1.6-5.3,3.8c-2.9,0.2-5.2,2.6-5.2,5.6c0,2.3,1.3,4.3,3.4,5.2v7.9c0,1.8-1.5,3.3-3.3,3.3H13.6c-0.1-4.5-3.8-8.1-8.3-8.1
		c-0.8,0-1.4,0.6-1.4,1.4v8.1c0,12,9.4,21.9,21.3,22.5l2.4,0c5.6-0.3,10.8-2.6,14.7-6.6c3.4-3.4,5.5-7.6,6.3-12.2
		c2.6,0,4.8-2.2,4.8-4.8v-4.5h1.4c0.8,0,1.4-0.6,1.4-1.4C56.2,25.1,53.5,22.4,50.3,22.4z M50.5,34.2c0,1-0.7,1.8-1.6,1.9v-6.4h1.6
		V34.2z M53,26.9h-4.1v-1.6h1.4C51.4,25.3,52.4,25.9,53,26.9z M15.8,49c2.2,1.8,5,2.8,7.8,2.8c3.9,0,7.5-1.8,9.8-4.9
		c0.5-0.6,0.3-1.5-0.3-2c-0.3-0.2-0.7-0.3-1.1-0.3c-0.4,0.1-0.7,0.3-0.9,0.6c-1.8,2.4-4.6,3.8-7.6,3.8c-1.7,0-3.3-0.5-4.8-1.3
		l2.3-2.6c0.3-0.3,0.4-0.6,0.4-1c0-0.4-0.2-0.7-0.5-1c-0.3-0.3-0.7-0.4-1-0.4c-0.4,0-0.7,0.2-1,0.5l-2.4,2.7c-1.6-1.7-2.4-4-2.4-6.3
		v-2.8H33v2.4c0,0.8,0.6,1.4,1.4,1.4c0.8,0,1.4-0.6,1.4-1.4v-3.6c1.5-1.2,2.4-3,2.4-4.9v-8.3c0-0.2,0-0.3,0-0.5
		c0.2-2.1,2.1-3.8,4.2-3.8c1.9,0,3.4,1.5,3.4,3.4v13.8c0,5.3-2,10.2-5.8,13.9C36.6,53,31.6,55,26.4,55C16,55,7.5,47,6.7,36.8h4.6
		v2.8C11.4,43.2,13,46.6,15.8,49z M36,19.7c-0.7-0.5-1-1.3-1-2.2c0-1.7,1.5-3,3.2-2.7c0.4,0.1,0.8,0,1.1-0.3c0.3-0.2,0.5-0.6,0.5-1
		c0.1-1.4,1.3-2.5,2.7-2.5s2.6,1.1,2.7,2.5c0,0.4,0.2,0.8,0.6,1c0.3,0.2,0.7,0.3,1.1,0.3c1.7-0.3,3.2,1,3.2,2.7c0,1-0.6,2-1.5,2.5
		c-0.7-2.8-3.2-4.8-6.1-4.8C39.7,15.2,37.1,17,36,19.7z M10.7,33.9h-4v-5.1C9,29.4,10.6,31.5,10.7,33.9z"/>
	<path class="st0" d="M42.6,25.9c0.8,0,1.4-0.6,1.4-1.4v-1.2c0-0.8-0.6-1.4-1.4-1.4c-0.8,0-1.4,0.6-1.4,1.4v1.2
		C41.2,25.3,41.8,25.9,42.6,25.9z"/>
	<path class="st0" d="M35.3,43.3c0-0.1,0.1-0.2,0.1-0.3c0.2-0.8-0.2-1.5-1-1.8c-0.4-0.1-0.8-0.1-1.1,0.1c-0.3,0.2-0.6,0.5-0.7,0.8
		l-0.1,0.2c-0.1,0.4-0.1,0.7,0.1,1.1c0.2,0.3,0.5,0.6,0.8,0.7c0.1,0,0.3,0.1,0.4,0.1C34.6,44.3,35.1,43.9,35.3,43.3z"/>
</g>
</svg>
