<?xml version="1.0" encoding="utf-8"?>
<!-- Generator: Adobe Illustrator 26.4.1, SVG Export Plug-In . SVG Version: 6.00 Build 0)  -->
<svg version="1.1" id="Capa_1" xmlns="http://www.w3.org/2000/svg" xmlns:xlink="http://www.w3.org/1999/xlink" x="0px" y="0px"
	 viewBox="0 0 55 60" style="enable-background:new 0 0 55 60;" xml:space="preserve">
<style type="text/css">
	.st0{fill:#0ED1B2;}
	.st1{fill-rule:evenodd;clip-rule:evenodd;fill:#00A99D;}
	.st2{fill-rule:evenodd;clip-rule:evenodd;fill:#FAD24D;}
	.st3{fill-rule:evenodd;clip-rule:evenodd;fill:#FFDE8D;}
	.st4{fill-rule:evenodd;clip-rule:evenodd;fill:#008E80;}
</style>
<g>
	<path class="st0" d="M50.1,48.5L32.4,58.7c-3,1.7-6.7,1.7-9.7,0L4.9,48.5c-3-1.7-4.9-4.9-4.9-8.3V19.8c0-3.4,1.8-6.6,4.9-8.3
		L22.6,1.3c3-1.7,6.7-1.7,9.7,0l17.8,10.2c3,1.7,4.9,4.9,4.9,8.3v20.4C55,43.6,53.2,46.8,50.1,48.5z"/>
	<g>
		<g id="g4992" transform="translate(251.5771,367.3213)">
			<path id="path4994" class="st1" d="M-231.6-344.2l-5.2,5.1c-2.8,2.8,11.5,17.1,8.6,20l5.2-5.1
				C-220-327.1-234.4-341.4-231.6-344.2"/>
		</g>
		<g id="g4996" transform="translate(429.6699,367.3213)">
			<path id="path4998" class="st1" d="M-398.1-355.6l-5.2,5.1c-2.8,2.8,11.5,17.1,8.6,20l5.2-5.1
				C-386.6-338.5-400.9-352.8-398.1-355.6"/>
		</g>
		<g id="g5000" transform="translate(171.4072,367.3213)">
			<path id="path5002" class="st2" d="M-156.6-339l5.2-5.1c2.8-2.8,17.3,11.4,20.2,8.6l-5.2,5.1C-139.3-327.6-153.8-341.8-156.6-339
				"/>
		</g>
		<g id="g5004" transform="translate(225.9229,367.3213)">
			<path id="path5006" class="st3" d="M-207.6-342.5l1.7-1.6c2.8-2.8,17.3,11.4,20.2,8.6l-1.7,1.6
				C-190.3-331.1-204.8-345.3-207.6-342.5"/>
		</g>
		<g id="g5008" transform="translate(349.5273,367.3213)">
			<path id="path5010" class="st2" d="M-323.2-350.5l5.2-5.1c2.6-2.6,15.5,9.7,19.5,8.9c0.2,0,0.2,0.1,0.1,0.2l-4.7,4.6
				C-305.9-339-320.4-353.3-323.2-350.5"/>
		</g>
		<g id="g5012" transform="translate(404.0146,367.3213)">
			<path id="path5014" class="st3" d="M-374.1-354l1.7-1.6c2.6-2.6,15.5,9.7,19.5,8.9c0.2,0,0.2,0.1,0.1,0.2l-1.7,1.6
				c0.1-0.1,0-0.2-0.1-0.2C-358.6-344.2-371.5-356.6-374.1-354"/>
		</g>
		<g id="g5016" transform="translate(1.542,367.3213)">
			<path id="path5018" class="st2" d="M2.3-328.2l4.7-4.6c2.8-2.8,17.3,11.4,20.2,8.6l-5.2,5.1c-2.7,2.7-15.6-9.6-19.5-8.9
				C2.2-327.9,2.2-328,2.3-328.2"/>
		</g>
		<g id="g5020" transform="translate(47.8018,367.3213)">
			<path id="path5022" class="st3" d="M-41-331.1l1.7-1.6c2.8-2.8,17.3,11.4,20.2,8.6l-1.7,1.6C-23.7-319.7-38.2-333.9-41-331.1"/>
		</g>
		<g id="g5024" transform="translate(336.6943,359.8721)">
			<path id="path5026" class="st4" d="M-310.7-341.7c0.7-0.7,7.7,4.1,12,6.8c-1-1.5-2.1-3.2-3.1-4.8c-3.8-2.5-7.3-4.6-8.6-3.4
				C-310.7-342.7-310.8-342.3-310.7-341.7"/>
		</g>
		<g id="g5028" transform="translate(158.5742,359.8721)">
			<path id="path5030" class="st4" d="M-144.1-330.3c0.7-0.7,7.7,4.1,12,6.8c-1-1.5-2.1-3.2-3.1-4.8c-3.8-2.5-7.3-4.6-8.6-3.4
				C-144.1-331.3-144.2-330.9-144.1-330.3"/>
		</g>
	</g>
</g>
</svg>
