<?xml version="1.0" encoding="utf-8"?>
<!-- Generator: Adobe Illustrator 26.4.1, SVG Export Plug-In . SVG Version: 6.00 Build 0)  -->
<svg version="1.1" id="Capa_1" xmlns="http://www.w3.org/2000/svg" xmlns:xlink="http://www.w3.org/1999/xlink" x="0px" y="0px"
	 viewBox="0 0 60 66" style="enable-background:new 0 0 60 66;" xml:space="preserve">
<style type="text/css">
	.st0{fill:#373869;}
	.st1{fill:#373769;}
</style>
<g>
	<g>
		<g>
			<g>
				<path class="st0" d="M43.5,26.1C43.5,26.1,43.5,26.1,43.5,26.1c-2.7-5.2-7.9-8.5-13.7-8.5c0,0,0,0,0,0c-5.8,0-11,3.2-13.7,8.4
					c0,0,0,0,0,0c-0.2,0.4,0.2,0.4,0.2,0.4h2.8c0.1,0,0.3-0.1,0.4-0.2c2.3-3.5,6.1-5.6,10.3-5.6c0,0,0,0,0,0c4.1,0,7.9,2.1,10.2,5.5
					c0.1,0.2,0.3,0.2,0.4,0.2h2.8C43.3,26.5,43.7,26.5,43.5,26.1z"/>
			</g>
			<g>
				<path class="st0" d="M14.8,47.8c0.3,0.3,0.7,0.6,1.2,0.6h9.9c0,0,0,0,0,0c0.4,0,0.8-0.2,1.1-0.5c0.3-0.3,0.4-0.7,0.4-1.1
					c0-0.7-0.4-1.3-1.1-1.5l0,0c-2.8-1-5.3-3-6.8-5.6c-0.1-0.1-0.2-0.2-0.3-0.2h-2.9c-0.1,0-0.1,0.1-0.2,0.1c0,0,0,0.1,0,0.2
					c0.8,1.8,1.9,3.3,3.2,4.7l0.8,0.8h-3.9c0,0,0,0,0,0c-0.8,0-1.5,0.5-1.6,1.3C14.4,47,14.5,47.4,14.8,47.8z"/>
			</g>
			<g>
				<path class="st0" d="M33.3,45.4c-0.4,0.1-0.7,0.4-0.9,0.7c-0.2,0.4-0.2,0.8-0.1,1.2c0.2,0.6,0.8,1.1,1.5,1.1h9.9c0,0,0,0,0,0
					c0.4,0,0.9-0.2,1.2-0.5c0.3-0.3,0.4-0.8,0.3-1.2c-0.1-0.7-0.8-1.3-1.6-1.3h-3.9l0.8-0.7c1.4-1.4,2.5-2.9,3.3-4.7c0,0,0,0,0,0
					c0.1-0.3-0.2-0.3-0.2-0.3h-2.9c-0.2,0-0.3,0.1-0.4,0.3C38.6,42.4,36.1,44.4,33.3,45.4z"/>
			</g>
			<g>
				<g>
					<g>
						<path class="st0" d="M17,35.6c-0.7,0.7-1.6,1-2.6,1c-1,0-1.9-0.3-2.6-1c-0.7-0.7-1-1.5-1-2.6c0-1,0.3-1.9,1-2.6
							c0.7-0.7,1.6-1,2.6-1c1,0,1.9,0.3,2.6,1c0.7,0.7,1,1.5,1,2.6C18.1,34.1,17.7,34.9,17,35.6z M16.5,33.1c0-0.6-0.2-1.1-0.6-1.6
							c-0.4-0.4-0.9-0.7-1.5-0.7S13.4,31,13,31.5c-0.4,0.4-0.6,1-0.6,1.6c0,0.6,0.2,1.1,0.6,1.6c0.4,0.4,0.9,0.7,1.5,0.7
							s1.1-0.2,1.5-0.7C16.3,34.2,16.5,33.7,16.5,33.1z"/>
						<path class="st0" d="M25.6,32.2L23.7,36h-0.9l-1.9-3.8v4.4h-1.5v-6.9h2.1l1.8,3.8l1.8-3.8h2.1v6.9h-1.5V32.2z"/>
						<path class="st0" d="M33.8,29.6V31h-3.4v1.4h3.1v1.3h-3.1v1.4h3.6v1.4h-5.1v-6.9H33.8z"/>
						<path class="st0" d="M39.8,33h1.6v2.5c-0.7,0.8-1.6,1.2-2.9,1.2c-1,0-1.9-0.3-2.6-1c-0.7-0.7-1-1.5-1-2.6c0-1,0.4-1.9,1.1-2.6
							c0.7-0.7,1.6-1,2.5-1c1,0,1.9,0.3,2.6,1l-0.8,1.2c-0.3-0.3-0.6-0.5-0.9-0.6c-0.3-0.1-0.5-0.2-0.8-0.2c-0.6,0-1.1,0.2-1.5,0.6
							c-0.4,0.4-0.6,0.9-0.6,1.6c0,0.7,0.2,1.2,0.6,1.6c0.4,0.4,0.8,0.6,1.4,0.6c0.5,0,1-0.1,1.3-0.3V33z"/>
						<path class="st0" d="M47.6,36.6l-0.6-1.5H44l-0.6,1.5h-1.6l3-6.9h1.5l3,6.9H47.6z M45.5,31.7l-0.9,2h1.7L45.5,31.7z"/>
					</g>
				</g>
			</g>
		</g>
	</g>
	<path class="st1" d="M30,66c-1.9,0-3.8-0.5-5.5-1.5l-18.9-11C2.1,51.6,0,47.9,0,44V22c0-3.9,2.1-7.6,5.5-9.6l18.9-11
		c3.4-2,7.7-2,11.1,0l18.9,11c3.4,2,5.5,5.7,5.5,9.6V44c0,3.9-2.1,7.6-5.5,9.6l-18.9,11C33.8,65.5,31.9,66,30,66z M30,1.5
		c-1.7,0-3.3,0.4-4.8,1.3l-18.9,11c-3,1.7-4.8,4.9-4.8,8.3V44c0,3.4,1.8,6.6,4.8,8.3l18.9,11c3,1.7,6.6,1.7,9.6,0l18.9-11
		c3-1.7,4.8-4.9,4.8-8.3V22c0-3.4-1.8-6.6-4.8-8.3l-18.9-11C33.3,1.9,31.7,1.5,30,1.5z"/>
</g>
</svg>
