<?xml version="1.0" encoding="utf-8"?>
<!-- Generator: Adobe Illustrator 26.4.1, SVG Export Plug-In . SVG Version: 6.00 Build 0)  -->
<svg version="1.1" id="Capa_1" xmlns="http://www.w3.org/2000/svg" xmlns:xlink="http://www.w3.org/1999/xlink" x="0px" y="0px"
	 viewBox="0 0 55 60" style="enable-background:new 0 0 55 60;" xml:space="preserve">
<style type="text/css">
	.st0{fill:#FECF32;}
	.st1{fill:#FFD5BA;}
	.st2{fill:#FFAA66;}
	.st3{fill:#FF8A00;}
	.st4{fill:#FF7300;}
	.st5{fill:#FF9C33;}
	.st6{fill:#FFE7DB;}
	.st7{fill:#FF4D4D;}
	.st8{fill:#FF2C2C;}
	.st9{fill:#FFFFFF;}
	.st10{fill:#4D4DFF;}
	.st11{fill:#FCEE21;}
</style>
<g>
	<path class="st0" d="M50.1,48.5L32.4,58.7c-3,1.7-6.7,1.7-9.7,0L4.9,48.5c-3-1.7-4.9-4.9-4.9-8.3V19.8c0-3.4,1.8-6.6,4.9-8.3
		L22.6,1.3c3-1.7,6.7-1.7,9.7,0l17.8,10.2c3,1.7,4.9,4.9,4.9,8.3v20.4C55,43.6,53.2,46.8,50.1,48.5z"/>
	<g>
		<g>
			<g>
				<g>
					<path class="st1" d="M5.3,18.2c-1.7,3.1-5.2,11.4,4.4,16.4l6.2-9.6l-8.8-7.2C6.6,17.4,5.7,17.5,5.3,18.2z"/>
					<g>
						<path class="st2" d="M10.9,26.9c-0.1,0-0.2,0-0.3-0.1c-3.1-1.6-4-4.6-4.1-4.7c-0.1-0.4,0.1-0.7,0.5-0.8
							c0.4-0.1,0.7,0.1,0.8,0.5c0,0,0.8,2.6,3.4,3.9c0.3,0.2,0.5,0.6,0.3,0.9C11.4,26.8,11.1,26.9,10.9,26.9z"/>
					</g>
				</g>
				<g>
					<g>
						<g>
							<g>
								<path class="st3" d="M35.7,60H31c-1.6,0-2.9-1.3-2.9-2.9V46.3c0-0.8,0.7-1.5,1.5-1.5c0.9,0,1.5,0.7,1.5,1.5v10.6h4.6
									c0.9,0,1.5,0.7,1.5,1.5S36.6,60,35.7,60L35.7,60z"/>
							</g>
						</g>
						<g>
							<g>
								<path class="st4" d="M31.1,46.3v6.3C30.1,52.8,29,53,28,53.1v-6.7c0-0.8,0.7-1.5,1.5-1.5C30.5,44.8,31.1,45.5,31.1,46.3z"/>
							</g>
						</g>
					</g>
					<g>
						<path class="st5" d="M32,58.5c0,0.8-0.7,1.5-1.5,1.5h-9.5c-0.9,0-1.5-0.7-1.5-1.5c0-0.8,0.7-1.5,1.5-1.5h1.8V46.3
							c0-0.8,0.7-1.5,1.5-1.5c0.9,0,1.5,0.7,1.5,1.5v10.6h4.6C31.3,56.9,32,57.6,32,58.5L32,58.5z"/>
						<path class="st3" d="M25.8,46.3v6.9c-1.1,0-2.1,0-3.1,0v-6.9c0-0.8,0.7-1.5,1.5-1.5C25.1,44.8,25.8,45.5,25.8,46.3L25.8,46.3z
							"/>
					</g>
				</g>
				<g>
					<g>
						<path class="st6" d="M33,49c-18,4-25.8-5.2-27.9-8.4c-0.4-0.6-0.3-1.3,0.1-1.9l0.5-0.5l13.7,2.9L33,49L33,49z"/>
						<path class="st1" d="M23.4,31.3H11.9l-6.2,7c2.7,3,6.9,6,12.2,3.6l-2.2,2.8c-0.5,0.7-0.4,1.7,0.3,2.2c1.1,0.8,3,1.9,5.2,3
							c4.3,0.5,9.7,0.1,16.1-2L23.4,31.3z"/>
					</g>
					<g>
						<path class="st7" d="M37.7,11.6c0,0-4.6-3.5-3.6-5.9c0.6-1.4,1.8-2,5.1-1.1c0,0,0-2.2,2.3-2.5c2.7-0.3,3.4,4.6,3.4,4.6
							s0.3-2.4,2.5-2.5c2,0,4.2,3.7,2,6.6c0,0,0.9-0.6,1.8-0.1c1.7,1,1.6,4.6-3.4,6.8L37.7,11.6z"/>
					</g>
					<g>
						<path class="st7" d="M47.3,19.1c0,0,4.2,3.8,1,6.1c0,0,2.1,3.3-1.1,4c-3.2,0.7-5.3-2.7-7.1-7.5L47.3,19.1z"/>
						<path class="st8" d="M47.3,19.1l-7.2,2.6c1.6,4.3,3.4,7.4,6,7.6c-0.7-2.4-1.4-4.1-1.4-4.1c0.6-0.5,1.1-1.1,1.5-1.7
							c0,0,0,0,0,0l3,0.7C50.4,21.9,47.3,19.1,47.3,19.1L47.3,19.1z"/>
					</g>
					<path class="st9" d="M47.3,32.3c-0.3-4.8-2.6-10.3-2.6-10.3c1.9-1.6,3.1-4.1,2.8-6.8c-0.4-4.3-4.3-7.3-8.6-6.9
						c-4.3,0.4-7.4,4.3-7,8.5c0,0,0,1.4-0.4,3.3c-5.5-0.7-13.2-1.3-20.1,3c-3.4,2.1-6.7,5-8.1,6.4C2.8,30,2.7,30.8,3,31.4
						c1.7,2.9,7.1,10.8,14.8,7.3l-2.2,2.8c-0.5,0.7-0.4,1.7,0.3,2.2c4.1,2.8,16.9,10.4,27.5,0.7C45.8,42.2,47.8,37.6,47.3,32.3
						L47.3,32.3z"/>
					<path class="st6" d="M36.8,11.8c0-1-0.2-2-0.6-2.8c-2.9,1.4-4.7,4.4-4.3,7.8c0,0,0,0.7-0.1,1.9C34.7,17.7,36.8,15,36.8,11.8z"
						/>
				</g>
			</g>
			<ellipse class="st10" cx="42.8" cy="15.1" rx="1.4" ry="1.3"/>
			<g>
				<g>
					<path class="st11" d="M46.2,20.2l3.3,0.8c0.4,0.1,0.9-0.2,0.9-0.7c0.1-1.3-0.2-3.7-3.1-5.9C47.3,14.5,45.4,16.5,46.2,20.2z"/>
				</g>
			</g>
		</g>
		<g>
			<g>
				<path class="st6" d="M21.2,33.1c-1.9,0-3.7-0.2-5.3-0.5c-0.4-0.1-0.6-0.4-0.5-0.8c0.1-0.4,0.4-0.6,0.8-0.5
					c6.4,1.1,11.5,0.2,14.9-2.6c2.6-2.1,3.3-4.6,3.3-4.7c0.1-0.4,0.5-0.6,0.8-0.5c0.4,0.1,0.6,0.5,0.5,0.8c0,0.1-0.8,2.9-3.7,5.3
					C28.9,32.3,24.9,33.1,21.2,33.1L21.2,33.1z"/>
			</g>
			<g>
				<path class="st6" d="M27,41.4c-0.3,0-0.5-0.2-0.6-0.4c-0.1-0.3,0-0.7,0.4-0.9c4.7-1.7,7.9-4.6,9.5-8.7c1.2-3.1,1.1-5.7,1.1-5.7
					c0-0.4,0.3-0.7,0.6-0.7c0.4,0,0.7,0.3,0.7,0.6c0,0.1,0.2,2.9-1.2,6.2c-1.2,3.1-4,7.2-10.4,9.5C27.1,41.3,27.1,41.4,27,41.4
					L27,41.4z"/>
			</g>
		</g>
	</g>
</g>
</svg>
