<?xml version="1.0" encoding="utf-8"?>
<!-- Generator: Adobe Illustrator 26.4.1, SVG Export Plug-In . SVG Version: 6.00 Build 0)  -->
<svg version="1.1" id="Capa_1" xmlns="http://www.w3.org/2000/svg" xmlns:xlink="http://www.w3.org/1999/xlink" x="0px" y="0px"
	 viewBox="0 0 55 60" style="enable-background:new 0 0 55 60;" xml:space="preserve">
<style type="text/css">
	.st0{fill:#FF7A53;}
	.st1{fill:#D4D4FF;}
	.st2{fill:#EFEDFF;}
	.st3{fill:#60DAFD;}
	.st4{fill:#00C8FB;}
	.st5{fill:#F5625E;}
	.st6{fill:#EB5353;}
	.st7{fill:#10ACFB;}
	.st8{fill:#FF7A71;}
	.st9{fill:#FFE962;}
	.st10{fill:#FFC73C;}
	.st11{fill:#FFAC47;}
</style>
<g>
	<path class="st0" d="M50.1,48.5L32.4,58.7c-3,1.7-6.7,1.7-9.7,0L4.8,48.5c-3-1.7-4.8-4.9-4.8-8.3V19.8c0-3.4,1.8-6.6,4.8-8.3
		L22.6,1.3c3-1.7,6.7-1.7,9.7,0l17.8,10.2c3,1.7,4.9,4.9,4.9,8.3v20.4C55,43.6,53.2,46.8,50.1,48.5z"/>
	<path class="st1" d="M16.8,37.7c2.2-0.3,3.2,0.7,2.9,2.9L15,45.3c-2.3-0.1-3.3-1.1-2.9-2.9L16.8,37.7z"/>
	<path class="st2" d="M38.1,37.7l6,6c0.5,2.1-0.2,3.5-2.9,2.9l-6-6C34.5,38.3,35.7,37.5,38.1,37.7z"/>
	<path class="st2" d="M46.9,13.5l-8.8,8.8c-2.5,0.1-3.3-1.1-2.9-2.9l8.8-8.8C46,10.4,47.2,11.3,46.9,13.5z"/>
	<path class="st1" d="M19.7,19.3c0.2,2.2-0.8,3.2-2.9,2.9l-4.7-4.7c-0.2-2,0.8-3,2.9-2.9L19.7,19.3z"/>
	<path class="st3" d="M15.8,11.4c0-3-1.9-5.5-4.5-6.5c-8,0.5-8.8,12.5,0,13C14,16.9,15.8,14.3,15.8,11.4z"/>
	<path class="st4" d="M6.9,11.4c0-3,1.9-5.5,4.5-6.5c-0.8-0.3-1.6-0.5-2.5-0.5c-3.9,0-7,3.1-7,7s3.1,7,7,7c0.9,0,1.7-0.2,2.5-0.5
		C8.7,16.9,6.9,14.4,6.9,11.4z"/>
	<path class="st5" d="M15.8,48.6c0-3-1.9-5.5-4.5-6.5c-8,0.5-8.8,12.5,0,13C14,54.1,15.8,51.5,15.8,48.6z"/>
	<path class="st6" d="M6.9,48.6c0-3,1.9-5.5,4.5-6.5c-0.8-0.3-1.6-0.5-2.5-0.5c-3.9,0-7,3.1-7,7s3.1,7,7,7c0.9,0,1.7-0.2,2.5-0.5
		C8.7,54.1,6.9,51.6,6.9,48.6z"/>
	<path class="st3" d="M53.1,49.4c0-2.6-1.7-4.9-4-5.8c-7.4,0.8-7.7,10.8,0,11.6C51.5,54.3,53.1,52,53.1,49.4L53.1,49.4z"/>
	<path class="st4" d="M45.1,49.4c0-2.6,1.6-4.9,4-5.8c-0.7-0.3-1.4-0.4-2.2-0.4c-3.4,0-6.2,2.8-6.2,6.2c0,3.4,2.8,6.2,6.2,6.2
		c0.8,0,1.5-0.1,2.2-0.4C46.8,54.3,45.1,52,45.1,49.4L45.1,49.4z"/>
	<ellipse class="st7" cx="8.9" cy="11.4" rx="3.1" ry="3.1"/>
	<path class="st8" d="M53,9.1c0-2-1.3-3.7-3.1-4.4C46.9,5,46,7.1,46,9.1c0,2,1.4,4.2,3.9,4.4C51.7,12.8,53,11.1,53,9.1z"/>
	<path class="st5" d="M46.8,9.1c0-2,1.3-3.7,3.1-4.4c-0.5-0.2-1-0.3-1.5-0.3c-2.6,0-4.6,2.1-4.6,4.6c0,3.2,3.2,5.5,6.2,4.4
		C48.6,13,46.8,11.1,46.8,9.1z"/>
	<g>
		<path class="st9" d="M42.8,30c0-6.2-3.7-11.6-9.1-14c-10.5,1.2-12.2,7.8-12.2,14c0,6.2,3.5,13.5,12.2,14
			C39.1,41.6,42.8,36.2,42.8,30z"/>
		<path class="st10" d="M24.6,30c0-6.2,3.7-11.6,9.1-14c-6.5-2.9-14.3-0.9-18.6,5c-3.9,5.4-3.9,12.6,0,18c4.2,5.8,12,7.9,18.6,5
			C28.3,41.6,24.6,36.2,24.6,30L24.6,30z"/>
		<path class="st10" d="M38.3,30c0-5.5-4.1-10-9.4-10.7c-10,3.2-10.4,19.6,0,21.4C34.2,40,38.3,35.5,38.3,30z"/>
		<path class="st11" d="M29,19.3c-6.5-0.9-12.3,4.2-12.3,10.7c0,6.5,5.7,11.6,12.3,10.7C23.1,34.7,23.1,25.2,29,19.3z"/>
		<path class="st2" d="M31.7,34.7L26.2,30l5.5-4.7c0.4-0.3,0.4-0.9,0.1-1.3c-0.3-0.4-0.9-0.4-1.3-0.1L25.7,28v-3.4
			c0-0.5-0.4-0.9-0.9-0.9c-0.5,0-0.9,0.4-0.9,0.9v10.8c0,0.5,0.4,0.9,0.9,0.9c0.5,0,0.9-0.4,0.9-0.9V32l4.8,4.1
			c0.4,0.3,0.9,0.3,1.3-0.1C32.1,35.6,32.1,35,31.7,34.7L31.7,34.7z"/>
	</g>
</g>
</svg>
