<?xml version="1.0" encoding="utf-8"?>
<!-- Generator: Adobe Illustrator 26.4.1, SVG Export Plug-In . SVG Version: 6.00 Build 0)  -->
<svg version="1.1" id="Capa_1" xmlns="http://www.w3.org/2000/svg" xmlns:xlink="http://www.w3.org/1999/xlink" x="0px" y="0px"
	 viewBox="0 0 55 60" style="enable-background:new 0 0 55 60;" xml:space="preserve">
<style type="text/css">
	.st0{fill:#FCD354;}
	.st1{fill:#FDD7AD;}
	.st2{fill:#FB7B76;}
	.st3{fill:#805333;}
	.st4{fill:#A56A43;}
	.st5{fill:#DF4D60;}
	.st6{fill:#F5EFCA;}
</style>
<g>
	<path class="st0" d="M50.1,48.5L32.4,58.7c-3,1.7-6.7,1.7-9.7,0L4.9,48.5c-3-1.7-4.9-4.9-4.9-8.3V19.8c0-3.4,1.8-6.6,4.9-8.3
		L22.6,1.3c3-1.7,6.7-1.7,9.7,0l17.8,10.2c3,1.7,4.9,4.9,4.9,8.3v20.4C55,43.6,53.2,46.8,50.1,48.5z"/>
	<g id="_x30_19---Skin-Layers_00000168811220051321881550000005443639818968734892_">
		<path id="Shape_00000010302253349799996280000003670589525633173940_" class="st1" d="M54.1,34.3H55v-7.2H0v7.2h0.9H54.1z"/>
		<path class="st2" d="M0,34.1v6.1c0,3.4,1.8,6.6,4.9,8.3l2,1.1c2.2,0.3,4.4,0.5,6.6,0.4c11.2,0,16.7-3.7,29.3-3.8
			c3,0,6.3,0.2,9.6,0.5C54,45,55,42.7,55,40.2v-6.1H0z"/>
		<path id="Shape_00000163044967841205766660000005898294483235198378_" class="st3" d="M33.2,5.9c0,0-1.3,4.6-1.4,30.6
			c0,1.8-1.8,3.3-4.1,3.3c-2.2,0-4-1.4-4.1-3.1v-1.3C24.1,9.5,33.2,5.9,33.2,5.9z"/>
		<path id="Shape_00000113333612490148515100000008937970937800281500_" class="st4" d="M18,11.2c0,0-0.8,2.2-0.8,17.8
			c-0.1,1.2-1.2,2.1-2.4,2c-0.6,0.1-1.2-0.1-1.7-0.5c-0.5-0.4-0.7-1-0.8-1.6C12.9,13.4,18,11.2,18,11.2L18,11.2z"/>
		<path id="Shape_00000010292631662285699540000002138860766972811953_" class="st4" d="M45.5,11.2c0,0-0.8,2.2-0.8,17.8
			c-0.1,1.2-1.2,2.1-2.4,2c-0.6,0.1-1.2-0.1-1.7-0.5c-0.5-0.4-0.7-1-0.8-1.6C40.4,13.4,45.5,11.2,45.5,11.2z"/>
		<g>
			<ellipse id="Oval_00000003806865366560408560000000251674200589622955_" class="st5" cx="4.7" cy="37.9" rx="0.9" ry="0.9"/>
			<ellipse id="Oval_00000000908377279411189600000000452925446008404619_" class="st5" cx="8.5" cy="37.9" rx="0.9" ry="0.9"/>
			<ellipse id="Oval_00000045577301696634789870000014727755542928612751_" class="st5" cx="12.3" cy="37.9" rx="0.9" ry="0.9"/>
			<ellipse id="Oval_00000027595601285252913690000008577703440617975709_" class="st5" cx="16.1" cy="37.9" rx="0.9" ry="0.9"/>
			<ellipse id="Oval_00000026134599859690202970000016036800457139841441_" class="st5" cx="19.9" cy="37.9" rx="0.9" ry="0.9"/>
			<ellipse id="Oval_00000083784168285650490800000014884331301526664071_" class="st5" cx="18" cy="40.7" rx="0.9" ry="0.9"/>
			<ellipse id="Oval_00000178893700430684107160000002379985985785258637_" class="st5" cx="14.2" cy="40.7" rx="0.9" ry="0.9"/>
			<ellipse id="Oval_00000001641846967374116540000002707300322921662130_" class="st5" cx="10.4" cy="40.7" rx="0.9" ry="0.9"/>
			<ellipse id="Oval_00000016067766872842601140000014175145934557092256_" class="st5" cx="6.6" cy="40.7" rx="0.9" ry="0.9"/>
			<ellipse id="Oval_00000153676515344738553720000012127785555855781011_" class="st5" cx="4.7" cy="43.5" rx="0.9" ry="0.9"/>
			<ellipse id="Oval_00000144299918338936127610000000165942096716015234_" class="st5" cx="8.5" cy="43.5" rx="0.9" ry="0.9"/>
			<ellipse id="Oval_00000122702357421427375780000013892106336648469171_" class="st5" cx="12.3" cy="43.5" rx="0.9" ry="0.9"/>
			<ellipse id="Oval_00000093870205229528695370000003159959422598772882_" class="st5" cx="16.1" cy="43.5" rx="0.9" ry="0.9"/>
			<ellipse id="Oval_00000156569215437495137090000010415122366767685787_" class="st5" cx="6.6" cy="46.3" rx="0.9" ry="0.9"/>
			<ellipse id="Oval_00000169552965486036119420000007018073553783182006_" class="st5" cx="10.4" cy="46.3" rx="0.9" ry="0.9"/>
			<ellipse id="Oval_00000181084292836294145530000017558225494716351111_" class="st5" cx="14.2" cy="46.3" rx="0.9" ry="0.9"/>
			<ellipse id="Oval_00000157301331365514650500000000345555301791344061_" class="st5" cx="18" cy="46.3" rx="0.9" ry="0.9"/>
			<ellipse id="Oval_00000145039322875503382350000007286857755540990133_" class="st5" cx="21.8" cy="46.3" rx="0.9" ry="0.9"/>
			<ellipse id="Oval_00000127734272336308447130000015653903163745584062_" class="st5" cx="19.9" cy="43.5" rx="0.9" ry="0.9"/>
			<ellipse id="Oval_00000116230979880494630060000008300466598946355596_" class="st5" cx="21.8" cy="40.7" rx="0.9" ry="0.9"/>
			<ellipse id="Oval_00000106844656892692313390000014701278832673938859_" class="st5" cx="23.7" cy="43.5" rx="0.9" ry="0.9"/>
			<ellipse id="Oval_00000103250044018217424170000002725820126075793310_" class="st5" cx="27.5" cy="43.5" rx="0.9" ry="0.9"/>
			<ellipse id="Oval_00000034062856794139255100000009018646905794421909_" class="st5" cx="31.3" cy="43.5" rx="0.9" ry="0.9"/>
			<ellipse id="Oval_00000012467916040971387600000005157853659556535211_" class="st5" cx="50.3" cy="37.9" rx="0.9" ry="0.9"/>
			<ellipse id="Oval_00000039842410928983653330000008014790050832006330_" class="st5" cx="46.5" cy="37.9" rx="0.9" ry="0.9"/>
			<ellipse id="Oval_00000000186545252901102480000015927561645992660898_" class="st5" cx="42.7" cy="37.9" rx="0.9" ry="0.9"/>
			<ellipse id="Oval_00000028319236647462842340000003656949453238812849_" class="st5" cx="38.9" cy="37.9" rx="0.9" ry="0.9"/>
			<ellipse id="Oval_00000059995524061706486430000002096301181683582114_" class="st5" cx="35.1" cy="37.9" rx="0.9" ry="0.9"/>
			<ellipse id="Oval_00000069368542413709611450000018175975706767761314_" class="st5" cx="37" cy="40.7" rx="0.9" ry="0.9"/>
			<ellipse id="Oval_00000174583996732902149250000011956210737608039855_" class="st5" cx="40.8" cy="40.7" rx="0.9" ry="0.9"/>
			<ellipse id="Oval_00000091008594007650049580000007530210523549718698_" class="st5" cx="44.6" cy="40.7" rx="0.9" ry="0.9"/>
			<ellipse id="Oval_00000111904084825737901270000015182629988128478643_" class="st5" cx="48.4" cy="40.7" rx="0.9" ry="0.9"/>
			<ellipse id="Oval_00000009555300936292560930000007144719182831994262_" class="st5" cx="35.1" cy="43.5" rx="0.9" ry="0.9"/>
			<ellipse id="Oval_00000012467381083530251410000009113485538285223348_" class="st5" cx="38.9" cy="43.5" rx="0.9" ry="0.9"/>
			<ellipse id="Oval_00000160899508625989804300000002401819881595497096_" class="st5" cx="42.7" cy="43.5" rx="0.9" ry="0.9"/>
			<ellipse id="Oval_00000023959845484011066340000000550526394555967875_" class="st5" cx="46.5" cy="43.5" rx="0.9" ry="0.9"/>
			<ellipse id="Oval_00000047774798069297744110000003481360642919850893_" class="st5" cx="50.3" cy="43.5" rx="0.9" ry="0.9"/>
			<ellipse id="Oval_00000168818628930629815250000014540603055882260903_" class="st5" cx="33.2" cy="40.7" rx="0.9" ry="0.9"/>
		</g>
		<path id="Shape_00000173859494125828655370000014162517784976116890_" class="st6" d="M39.8,50.5h-1.9c-0.5,0-0.9-0.4-0.9-0.9
			c0-0.5,0.4-0.9,0.9-0.9h1.9c0.5,0,0.9,0.4,0.9,0.9C40.8,50.1,40.4,50.5,39.8,50.5z"/>
		<path id="Shape_00000047018497432720202000000017209954379610112398_" class="st6" d="M34.1,50.5h-1.9c-0.5,0-0.9-0.4-0.9-0.9
			c0-0.5,0.4-0.9,0.9-0.9h1.9c0.5,0,0.9,0.4,0.9,0.9C35.1,50.1,34.7,50.5,34.1,50.5z"/>
		<path id="Shape_00000167370480202414551310000003418385765793446533_" class="st6" d="M37,53.3h-1.9c-0.5,0-0.9-0.4-0.9-0.9
			s0.4-0.9,0.9-0.9H37c0.5,0,0.9,0.4,0.9,0.9S37.5,53.3,37,53.3z"/>
		<path id="Shape_00000018209041778077313250000006616563667990107823_" class="st6" d="M31.3,53.3h-1.9c-0.5,0-0.9-0.4-0.9-0.9
			s0.4-0.9,0.9-0.9h1.9c0.5,0,0.9,0.4,0.9,0.9S31.8,53.3,31.3,53.3z"/>
		<path id="Shape_00000001664336682798400790000001253676302015727238_" class="st6" d="M25.6,53.3h-1.9c-0.5,0-0.9-0.4-0.9-0.9
			s0.4-0.9,0.9-0.9h1.9c0.5,0,0.9,0.4,0.9,0.9S26.1,53.3,25.6,53.3z"/>
		<path id="Shape_00000166644650801424891190000002233195124874154158_" class="st6" d="M19.9,53.3H18c-0.5,0-0.9-0.4-0.9-0.9
			s0.4-0.9,0.9-0.9h1.9c0.5,0,0.9,0.4,0.9,0.9S20.4,53.3,19.9,53.3z"/>
	</g>
</g>
</svg>
