<?xml version="1.0" encoding="utf-8"?>
<!-- Generator: Adobe Illustrator 26.4.1, SVG Export Plug-In . SVG Version: 6.00 Build 0)  -->
<svg version="1.1" id="Capa_1" xmlns="http://www.w3.org/2000/svg" xmlns:xlink="http://www.w3.org/1999/xlink" x="0px" y="0px"
	 viewBox="0 0 60 66" style="enable-background:new 0 0 60 66;" xml:space="preserve">
<style type="text/css">
	.st0{fill:#373869;}
</style>
<g>
	<path class="st0" d="M50.4,16.4c-4.2-4-8.4-5.8-12.4-5.2c-4.8,0.6-7.9,4.2-9.1,5.9c-4.4-1.1-5.2-4.8-5.2-4.9
		c-0.1-0.3-0.2-0.6-0.5-0.7c-0.3-0.2-0.6-0.2-0.9-0.1c-0.6,0.1-1,0.7-0.9,1.4c0,0.2,1.3,5.8,7.8,6.9l0.8,0.1l0.4-0.7
		c0.1-0.2,3.1-4.8,7.9-5.5c3.3-0.4,6.9,1.1,10.5,4.6c7.3,7,7.2,16.1,4.6,22.2c-0.2,0.4-0.4,0.9-0.6,1.3c-0.7-0.3-1.5,0.3-1.5,1.1
		c0,0.3,0.1,0.6,0.4,0.8c-0.3,0.5-0.6,0.9-1,1.4c-0.2-0.4-0.6-0.6-1-0.6c-0.6,0-1.1,0.5-1.1,1.1c0,0.5,0.3,0.9,0.8,1.1
		c-0.4,0.5-0.9,0.9-1.3,1.3C48,47.4,47.5,47,47,47c-0.6,0-1.1,0.5-1.1,1.1c0,0.4,0.2,0.8,0.5,1c-0.5,0.4-1,0.7-1.4,0.9
		c-0.2-0.2-0.5-0.3-0.7-0.3c-0.6,0-1.1,0.5-1.1,1.1c0,0,0,0,0,0c-2.5,1.1-5.2,1.6-7.9,1.5l-0.2,0c0,0-2.8,0.4-6.8-0.6
		c0.3-0.2,0.6-0.5,0.6-1c0-0.6-0.5-1.1-1.2-1.1c-0.6,0-1.1,0.5-1.1,1.1c0,0.2,0.1,0.4,0.1,0.5c-1.9-0.6-3.9-1.4-6.1-2.7l-0.9-0.5
		L19.1,49c0,0-0.6,0.7-1.6,0.8c-1,0.1-2.3-0.6-3.7-2c-1-1-2.4-1.3-3.6-0.8c-0.9,0.4-3,1.8-3,6.7c0,0.6,0.5,1.1,1.1,1.1
		c0.6,0,1.1-0.5,1.1-1.1c0-2.8,0.9-4.2,1.6-4.5c0.4-0.2,0.8-0.1,1.1,0.3c1.3,1.3,2.6,2.1,3.8,2.4c0.3,0.2,0.5,0.2,0.8,0.2
		c0.3,0,0.6,0,0.8,0c1.1-0.1,1.9-0.5,2.5-0.9c5.8,3.2,10.9,3.7,13.4,3.7c0.8,0,1.4-0.1,1.7-0.1c0.2,0,0.3,0,0.5,0
		c8.6,0,16.4-5.3,19.9-13.6C59.2,32.5,57.3,23,50.4,16.4z"/>
	<path class="st0" d="M8.8,42.9c3.5-2.1,8.5,0,10,0.7c0.1,0,0.2,0.1,0.2,0.1l1,0.6l0.6-0.7c1.2-1.4,2.7-1.9,4-2
		c-0.5,0.1-0.8,0.6-0.8,1.1c0,0.6,0.5,1.1,1.1,1.1s1.1-0.5,1.1-1.1c0-0.6-0.4-1-1-1.1c1.3,0,2.2,0.3,2.3,0.3l1.3,0.4l0.2-1.4
		c0.3-2.4,3.6-3.7,3.8-3.7l0.8-0.3v-6.6L32.8,30c-2.4-1.2-2.6-4.4-2.6-4.5l0-0.9l-0.9-0.2c-10.6-2-12.1-9.4-12.2-9.7
		c-0.1-0.3-0.2-0.6-0.5-0.7c-0.3-0.2-0.6-0.2-0.9-0.2c-0.6,0.1-1,0.7-0.9,1.3c0.1,0.4,1.8,8.8,13.2,11.3c0.2,1.4,0.9,3.7,3.1,5.2
		v3.7c-1.3,0.6-3.4,1.9-4.2,4.1c-1.8-0.3-4.9-0.3-7.4,2c-2.3-1-7.6-3-11.9-0.5c-3.4,2-5.1,6.3-5.1,12.8c0,0.6,0.5,1.1,1.1,1.1
		c0.6,0,1.1-0.5,1.1-1.1C4.9,48.1,6.2,44.5,8.8,42.9z"/>
	<path class="st0" d="M44.3,41c0.6,0,1.1-0.5,1.1-1.1c0-0.6-0.5-1.1-1.1-1.1s-1.1,0.5-1.1,1.1C43.1,40.5,43.6,41,44.3,41z"/>
	<path class="st0" d="M49.8,41c0.6,0,1.2-0.5,1.2-1.1c0-0.6-0.5-1.1-1.2-1.1c-0.6,0-1.1,0.5-1.1,1.1C48.6,40.5,49.2,41,49.8,41z"/>
	<path class="st0" d="M52.6,38.3c0.6,0,1.1-0.5,1.1-1.1c0-0.6-0.5-1.1-1.1-1.1c-0.6,0-1.1,0.5-1.1,1.1
		C51.4,37.8,51.9,38.3,52.6,38.3z"/>
	<path class="st0" d="M30.5,41.5c-0.6,0-1.1,0.5-1.1,1.1s0.5,1.1,1.1,1.1c0.6,0,1.1-0.5,1.1-1.1S31.1,41.5,30.5,41.5z"/>
	<path class="st0" d="M36,43.8c0.6,0,1.1-0.5,1.1-1.1s-0.5-1.1-1.1-1.1s-1.1,0.5-1.1,1.1S35.3,43.8,36,43.8z"/>
	<path class="st0" d="M41.5,43.8c0.6,0,1.1-0.5,1.1-1.1s-0.5-1.1-1.1-1.1s-1.1,0.5-1.1,1.1S40.9,43.8,41.5,43.8z"/>
	<path class="st0" d="M47,43.8c0.6,0,1.1-0.5,1.1-1.1s-0.5-1.1-1.1-1.1s-1.1,0.5-1.1,1.1S46.4,43.8,47,43.8z"/>
	<path class="st0" d="M15.5,45.4c0,0.6,0.5,1.1,1.1,1.1c0.6,0,1.1-0.5,1.1-1.1c0-0.6-0.5-1.1-1.1-1.1C16,44.3,15.5,44.8,15.5,45.4z"
		/>
	<path class="st0" d="M21,45.4c0,0.6,0.5,1.1,1.1,1.1s1.1-0.5,1.1-1.1c0-0.6-0.5-1.1-1.1-1.1S21,44.8,21,45.4z"/>
	<path class="st0" d="M24.9,47c-0.6,0-1.1,0.5-1.1,1.1c0,0.6,0.5,1.1,1.1,1.1s1.1-0.5,1.1-1.1C26.1,47.5,25.6,47,24.9,47z"/>
	<path class="st0" d="M27.7,44.3c-0.6,0-1.1,0.5-1.1,1.1c0,0.6,0.5,1.1,1.1,1.1c0.6,0,1.2-0.5,1.2-1.1
		C28.8,44.8,28.3,44.3,27.7,44.3z"/>
	<path class="st0" d="M33.2,44.3c-0.6,0-1.2,0.5-1.2,1.1c0,0.6,0.5,1.1,1.2,1.1c0.6,0,1.1-0.5,1.1-1.1
		C34.4,44.8,33.9,44.3,33.2,44.3z"/>
	<path class="st0" d="M33.2,49.8c-0.6,0-1.2,0.5-1.2,1.1c0,0.6,0.5,1.1,1.2,1.1c0.6,0,1.1-0.5,1.1-1.1
		C34.4,50.3,33.9,49.8,33.2,49.8z"/>
	<path class="st0" d="M30.5,47c-0.6,0-1.1,0.5-1.1,1.1c0,0.6,0.5,1.1,1.1,1.1c0.6,0,1.1-0.5,1.1-1.1C31.6,47.5,31.1,47,30.5,47z"/>
	<path class="st0" d="M36,49.3c0.6,0,1.1-0.5,1.1-1.1c0-0.6-0.5-1.1-1.1-1.1s-1.1,0.5-1.1,1.1C34.8,48.8,35.3,49.3,36,49.3z"/>
	<path class="st0" d="M38.7,46.6c0.6,0,1.1-0.5,1.1-1.1c0-0.6-0.5-1.1-1.1-1.1c-0.6,0-1.1,0.5-1.1,1.1
		C37.6,46.1,38.1,46.6,38.7,46.6z"/>
	<path class="st0" d="M44.3,46.6c0.6,0,1.1-0.5,1.1-1.1c0-0.6-0.5-1.1-1.1-1.1s-1.1,0.5-1.1,1.1C43.1,46.1,43.6,46.6,44.3,46.6z"/>
	<path class="st0" d="M38.7,52.1c0.6,0,1.1-0.5,1.1-1.1c0-0.6-0.5-1.1-1.1-1.1c-0.6,0-1.1,0.5-1.1,1.1
		C37.6,51.6,38.1,52.1,38.7,52.1z"/>
	<path class="st0" d="M41.5,49.3c0.6,0,1.1-0.5,1.1-1.1c0-0.6-0.5-1.1-1.1-1.1s-1.1,0.5-1.1,1.1C40.4,48.8,40.9,49.3,41.5,49.3z"/>
</g>
</svg>
