<?xml version="1.0" encoding="utf-8"?>
<!-- Generator: Adobe Illustrator 26.4.1, SVG Export Plug-In . SVG Version: 6.00 Build 0)  -->
<svg version="1.1" id="Capa_1" xmlns="http://www.w3.org/2000/svg" xmlns:xlink="http://www.w3.org/1999/xlink" x="0px" y="0px"
	 viewBox="0 0 60 66" style="enable-background:new 0 0 60 66;" xml:space="preserve">
<style type="text/css">
	.st0{fill:#373769;}
	.st1{fill:#39386A;}
</style>
<g>
	<g>
		<path class="st0" d="M30,66c-1.9,0-3.8-0.5-5.5-1.5l-18.9-11C2.1,51.6,0,47.9,0,44V22c0-3.9,2.1-7.6,5.5-9.6l18.9-11
			c3.4-2,7.7-2,11.1,0l18.9,11c3.4,2,5.5,5.7,5.5,9.6V44c0,3.9-2.1,7.6-5.5,9.6l-18.9,11C33.8,65.5,31.9,66,30,66z M30,1.5
			c-1.7,0-3.3,0.4-4.8,1.3l-18.9,11c-3,1.7-4.8,4.9-4.8,8.3V44c0,3.4,1.8,6.6,4.8,8.3l18.9,11c3,1.7,6.6,1.7,9.6,0l18.9-11
			c3-1.7,4.8-4.9,4.8-8.3V22c0-3.4-1.8-6.6-4.8-8.3l-18.9-11C33.3,1.9,31.7,1.5,30,1.5z"/>
	</g>
	<path class="st1" d="M40.1,43.3c0.3,0,0.6,0.3,0.6,0.6c0,0.3-0.3,0.6-0.6,0.6c-0.3,0-0.6-0.3-0.6-0.6
		C39.5,43.6,39.8,43.3,40.1,43.3"/>
	<path class="st1" d="M41.3,38.7c0.3,0,0.6,0.3,0.6,0.6c0,0.3-0.3,0.6-0.6,0.6c-0.3,0-0.6-0.3-0.6-0.6C40.7,39,40.9,38.7,41.3,38.7"
		/>
	<path class="st1" d="M35.5,44.5c0.3,0,0.6,0.3,0.6,0.6c0,0.3-0.3,0.6-0.6,0.6c-0.3,0-0.6-0.3-0.6-0.6C35,44.7,35.2,44.5,35.5,44.5"
		/>
	<path class="st1" d="M23.5,26.4l1,0.6c0.9-1.5,1.9-3,3-4.5l-0.9-0.7C25.5,23.3,24.5,24.9,23.5,26.4"/>
	<path class="st1" d="M21.6,29.9l1,0.5c0.4-0.7,0.8-1.5,1.2-2.3l-1-0.6C22.4,28.4,22,29.1,21.6,29.9"/>
	<path class="st1" d="M41.8,28c2.9,0,5.3-2.4,5.3-5.3v-3h-3c-2.9,0-5.3,2.4-5.3,5.3v2l-0.4,0.4c-3.2-5.8-8-12.3-9.1-12.3
		c-1.3,0-6.8,8.4-6.8,8.5c0,0.1-0.1,0.1-0.1,0.2L22,23.5v-2c0-2.9-2.4-5.3-5.3-5.3h-3v3c0,2.9,2.4,5.3,5.3,5.3h2l0.5,0.5
		c-2.1,3.5-4.6,8.3-4.9,12.2c-0.7-0.3-1.4-0.5-2.2-0.5h-3v3c0,2.9,2.4,5.3,5.3,5.3h1.9c2.4,3.6,6.3,5.7,10.6,5.7
		c1.6,0,3.2-0.3,4.7-0.9c1.3,0.6,2.6,0.9,4,0.9c5.1,0,9.2-4.2,9.2-9.3c0-2.5-1-4.8-2.7-6.5l-2-2l-1.1,1.1c-0.5-1.6-1.2-3.4-2.2-5.4
		l0.8-0.8H41.8z M41.1,22.7v2l-0.8,0.8V25C40.3,24.1,40.6,23.3,41.1,22.7z M45.3,22.5l-1.1-1.1l-1.7,1.7v-1.7c0.5-0.2,1-0.3,1.5-0.3
		h1.5v1.5c0,0.1,0,0.2,0,0.4h-0.8L45.3,22.5z M43.3,24.6h1.9c-0.7,1.2-2,1.9-3.3,1.9h-0.5L43.3,24.6z M34.1,45.5l-1-1l2.9-2.9l2,5.5
		C36.5,47.1,35.1,46.6,34.1,45.5z M39.4,46.9l-2.1-5.8l5.8,2.1C42.6,45,41.2,46.4,39.4,46.9z M32,45.6l1,1c1.3,1.3,3.1,2,4.9,2
		c3.8,0,6.9-3.1,6.9-7c0-1.9-0.7-3.6-2-4.9l-1-1l0.6-0.6l1,1c1.5,1.5,2.3,3.4,2.3,5.5c0,4.3-3.5,7.8-7.7,7.8c-2.1,0-4-0.8-5.5-2.3
		l-1-1L32,45.6z M37.9,39.7l2.9-2.9l1,1c1,1,1.6,2.4,1.6,3.9L37.9,39.7z M18,38.3v-0.1c0-7,9-18.9,11.3-21.3
		c1.7,1.8,9,11.3,10.9,18.6L29.3,46.2l2,2c0.3,0.3,0.6,0.5,0.9,0.8c-1,0.3-2,0.4-3,0.4c-3.9,0-7.5-2-9.5-5.3v-2
		C19.7,40.7,19.1,39.3,18,38.3z M18.2,42.2v0.5l-0.8-0.8v-2C17.9,40.5,18.2,41.3,18.2,42.2z M15.2,41.8l1.9,1.9h-0.5
		c-1.4,0-2.6-0.8-3.3-1.9H15.2z M13.7,40.3h-0.9c0-0.2,0-0.3,0-0.4v-1.5h1.5c0.5,0,1,0.1,1.5,0.3v1.7l-1.7-1.7l-1.1,1.1L13.7,40.3z
		 M15.1,17.7h1.5c0.5,0,1,0.1,1.5,0.3v1.7l-0.6-0.6l-1.1,1.1l2.8,2.9H19c-2.1,0-3.8-1.7-3.8-3.8V17.7z M20.5,21.5V22l-0.8-0.8v-2
		C20.2,19.9,20.5,20.7,20.5,21.5z"/>
</g>
</svg>
