<?xml version="1.0" encoding="utf-8"?>
<!-- Generator: Adobe Illustrator 26.4.1, SVG Export Plug-In . SVG Version: 6.00 Build 0)  -->
<svg version="1.1" id="Capa_1" xmlns="http://www.w3.org/2000/svg" xmlns:xlink="http://www.w3.org/1999/xlink" x="0px" y="0px"
	 viewBox="0 0 60 66" style="enable-background:new 0 0 60 66;" xml:space="preserve">
<style type="text/css">
	.st0{fill:#373869;}
	.st1{fill:#373769;}
</style>
<g>
	<g>
		<path class="st0" d="M14.5,16.5c-1.6,0.9-2.8,2.5-3.3,4.3c-0.5,1.8-0.2,3.7,0.7,5.4l6.4,11c0.3,0.6,1,0.9,1.9,0.9
			c0.1,0,0.2,0,0.3,0c2.9,0,7.6-2.5,9.5-5.2l0.1-0.1l0.1,0.1c2,2.7,6.9,5.3,9.7,5.1c0.9-0.1,1.5-0.4,1.9-0.9l6.4-11
			c0.9-1.6,1.2-3.5,0.7-5.4s-1.7-3.3-3.3-4.3c-3.4-1.9-7.7-0.8-9.6,2.6L30,29.2l-5.8-10.1c-0.9-1.6-2.5-2.8-4.3-3.3
			C18.1,15.3,16.2,15.5,14.5,16.5z M31.7,29l5.3-9.2c0.8-1.3,2-2.2,3.4-2.6c1.5-0.4,3-0.2,4.3,0.6c2.7,1.6,3.6,5,2.1,7.8l-5.4,9.4
			l-0.1-0.1c-1.6-2.6-6.5-5.4-9.5-5.5l-0.2,0L31.7,29z M30.7,31.2c0-0.1,0-0.3,0-0.4l0-0.1l0,0c0.1-0.1,0.3-0.2,0.9-0.2
			c0.2,0,0.5,0,0.8,0.1c1.2,0.2,2.6,0.8,4,1.6c1.7,1,2.8,2,3.3,2.6c0.6,0.7,0.9,1.4,0.8,1.7c-0.1,0.2-0.4,0.3-0.9,0.3
			c-0.3,0-0.6,0-0.9-0.1c-0.8-0.1-2.2-0.5-3.9-1.5c-1.4-0.8-2.6-1.8-3.4-2.7C31.1,32,30.8,31.6,30.7,31.2L30.7,31.2L30.7,31.2z
			 M29.2,30.7L29.2,30.7L29.2,30.7c0,0.2,0,0.4,0.1,0.5l0,0l0,0c-0.1,0.3-0.3,0.7-0.7,1.1c-0.8,0.9-2,1.9-3.4,2.7
			c-2.1,1.2-3.8,1.6-4.9,1.6c-0.5,0-0.8-0.1-0.9-0.3c-0.3-0.5,1-2.5,4.1-4.3c1.4-0.8,2.8-1.4,4-1.6c0.3-0.1,0.6-0.1,0.8-0.1
			C28.9,30.5,29.2,30.7,29.2,30.7z M19.5,17.1c1.5,0.4,2.7,1.3,3.4,2.6l5.4,9.4l-0.2,0c-3.1,0.1-7.9,2.9-9.5,5.5l-0.1,0.1l-5.4-9.4
			c-0.8-1.3-1-2.8-0.6-4.3c0.4-1.5,1.3-2.7,2.6-3.4C16.5,16.9,18,16.7,19.5,17.1z"/>
		<path class="st0" d="M17.1,19.5c-0.1-0.2-0.4-0.3-0.6-0.3c-0.1,0-0.2,0-0.3,0.1c-0.8,0.5-1.4,1.5-1.6,2.8c-0.1,0.8-0.1,2,0.2,2.5
			c0.1,0.2,0.2,0.3,0.4,0.3c0.2,0,0.4,0,0.5-0.1h0c0.3-0.2,0.4-0.6,0.3-0.9c-0.2-0.5-0.2-2.8,0.9-3.4C17.1,20.3,17.2,19.8,17.1,19.5
			z"/>
		<path class="st0" d="M44.4,24.8c0.2,0.1,0.3,0.1,0.5,0.1c0.2,0,0.3-0.2,0.4-0.3c0.5-0.9,0.4-4.2-1.4-5.3c-0.1-0.1-0.2-0.1-0.3-0.1
			c-0.2,0-0.5,0.1-0.6,0.3c-0.1,0.2-0.1,0.3-0.1,0.5c0,0.2,0.2,0.3,0.3,0.4c1.1,0.6,1.1,2.9,0.9,3.4C43.9,24.2,44,24.6,44.4,24.8z"
			/>
		<path class="st0" d="M38.7,41c-1.3,0-2.3,1-2.3,2.3c0,1.3,1,2.3,2.3,2.3c1.3,0,2.3-1,2.3-2.3C41,42,40,41,38.7,41z M38.7,44.2
			c-0.5,0-0.9-0.4-0.9-0.9c0-0.5,0.4-0.9,0.9-0.9c0.5,0,0.9,0.4,0.9,0.9C39.6,43.8,39.2,44.2,38.7,44.2z"/>
		<path class="st0" d="M27.6,45.8c-1.3,0-2.3,1-2.3,2.3c0,1.3,1,2.3,2.3,2.3c1.3,0,2.3-1,2.3-2.3C29.9,46.8,28.8,45.8,27.6,45.8z
			 M27.6,49c-0.5,0-0.9-0.4-0.9-0.9c0-0.5,0.4-0.9,0.9-0.9s0.9,0.4,0.9,0.9C28.5,48.6,28.1,49,27.6,49z"/>
		<path class="st0" d="M29.2,37.8c-1.3,0-2.3,1-2.3,2.3c0,1.3,1,2.3,2.3,2.3c1.3,0,2.3-1,2.3-2.3C31.4,38.9,30.4,37.8,29.2,37.8z
			 M29.2,41c-0.5,0-0.9-0.4-0.9-0.9c0-0.5,0.4-0.9,0.9-0.9s0.9,0.4,0.9,0.9C30.1,40.6,29.7,41,29.2,41z"/>
		<path class="st0" d="M29.2,16.3c-1.3,0-2.3,1-2.3,2.3s1,2.3,2.3,2.3c1.3,0,2.3-1,2.3-2.3S30.4,16.3,29.2,16.3z M29.2,19.5
			c-0.5,0-0.9-0.4-0.9-0.9c0-0.5,0.4-0.9,0.9-0.9s0.9,0.4,0.9,0.9C30.1,19.1,29.7,19.5,29.2,19.5z"/>
		<path class="st0" d="M15.7,40.2c-1.3,0-2.3,1-2.3,2.3c0,1.3,1,2.3,2.3,2.3c1.3,0,2.3-1,2.3-2.3C17.9,41.2,16.9,40.2,15.7,40.2z
			 M15.7,43.4c-0.5,0-0.9-0.4-0.9-0.9c0-0.5,0.4-0.9,0.9-0.9s0.9,0.4,0.9,0.9C16.6,43,16.2,43.4,15.7,43.4z"/>
		<path class="st0" d="M44.3,40.1h1.6v1.6h-1.6L44.3,40.1z"/>
		<path class="st0" d="M44.3,43.3h1.6v1.6h-1.6L44.3,43.3z"/>
		<path class="st0" d="M45.8,41.7h1.6v1.6h-1.6V41.7z"/>
		<path class="st0" d="M42.7,41.7h1.6v1.6h-1.6V41.7z"/>
		<path class="st0" d="M33.1,45.7h1.6v1.6h-1.6V45.7z"/>
		<path class="st0" d="M33.1,48.9h1.6v1.6h-1.6V48.9z"/>
		<path class="st0" d="M34.7,47.3h1.6v1.6h-1.6V47.3z"/>
		<path class="st0" d="M31.6,47.3h1.6v1.6h-1.6L31.6,47.3z"/>
		<path class="st0" d="M19.6,44.9h1.6v1.6h-1.6V44.9z"/>
		<path class="st0" d="M19.6,48.1h1.6v1.6h-1.6V48.1z"/>
		<path class="st0" d="M21.2,46.5h1.6v1.6h-1.6V46.5z"/>
		<path class="st0" d="M18,46.5h1.6v1.6H18V46.5z"/>
	</g>
	<path class="st1" d="M30,66c-1.9,0-3.8-0.5-5.5-1.5l-18.9-11C2.1,51.6,0,47.9,0,44V22c0-3.9,2.1-7.6,5.5-9.6l18.9-11
		c3.4-2,7.7-2,11.1,0l18.9,11c3.4,2,5.5,5.7,5.5,9.6V44c0,3.9-2.1,7.6-5.5,9.6l-18.9,11C33.8,65.5,31.9,66,30,66z M30,1.5
		c-1.7,0-3.3,0.4-4.8,1.3l-18.9,11c-3,1.7-4.8,4.9-4.8,8.3V44c0,3.4,1.8,6.6,4.8,8.3l18.9,11c3,1.7,6.6,1.7,9.6,0l18.9-11
		c3-1.7,4.8-4.9,4.8-8.3V22c0-3.4-1.8-6.6-4.8-8.3l-18.9-11C33.3,1.9,31.7,1.5,30,1.5z"/>
</g>
</svg>
