<?xml version="1.0" encoding="utf-8"?>
<!-- Generator: Adobe Illustrator 26.4.1, SVG Export Plug-In . SVG Version: 6.00 Build 0)  -->
<svg version="1.1" id="Capa_1" xmlns="http://www.w3.org/2000/svg" xmlns:xlink="http://www.w3.org/1999/xlink" x="0px" y="0px"
	 viewBox="0 0 60 66" style="enable-background:new 0 0 60 66;" xml:space="preserve">
<style type="text/css">
	.st0{fill:#373769;}
</style>
<g>
	<g>
		<path class="st0" d="M30,66c-1.9,0-3.8-0.5-5.5-1.5l-18.9-11C2.1,51.6,0,47.9,0,44V22c0-3.9,2.1-7.6,5.5-9.6l18.9-11
			c3.4-2,7.7-2,11.1,0l18.9,11c3.4,2,5.5,5.7,5.5,9.6V44c0,3.9-2.1,7.6-5.5,9.6l-18.9,11C33.8,65.5,31.9,66,30,66z M30,1.5
			c-1.7,0-3.3,0.4-4.8,1.3l-18.9,11c-3,1.7-4.8,4.9-4.8,8.3V44c0,3.4,1.8,6.6,4.8,8.3l18.9,11c3,1.7,6.6,1.7,9.6,0l18.9-11
			c3-1.7,4.8-4.9,4.8-8.3V22c0-3.4-1.8-6.6-4.8-8.3l-18.9-11C33.3,1.9,31.7,1.5,30,1.5z"/>
	</g>
	<g>
		<path class="st0" d="M49.3,35c-1-1-2.3-1.5-3.7-1.5c-0.1,0-0.1,0-0.2,0c-4.3,0.2-8.3,1.9-11.3,4.9c-1.8,1.8-3.3,4.1-4.1,6.6
			L30,45.2L29.9,45c-0.8-2.5-2.2-4.7-4.1-6.6c-0.3-0.3-0.7-0.7-1.2-1.1c-0.2-0.1-0.3-0.2-0.6-0.2c-0.2,0-0.4,0.1-0.5,0.3
			c-0.1,0.2-0.2,0.4-0.2,0.6c0,0.2,0.1,0.4,0.3,0.5c0.4,0.3,0.7,0.7,1.1,1c3.3,3.3,4.9,7.9,4.4,12.6l0,0.2l-4-4v-3.8
			c0-0.4-0.4-0.8-0.8-0.8s-0.8,0.4-0.8,0.8v2.2l-2.4-2.4V41c0-0.4-0.4-0.8-0.8-0.8s-0.8,0.4-0.8,0.8v1.8l-2.2-2.2
			c-0.3-0.3-0.8-0.3-1.1,0c-0.1,0.2-0.2,0.3-0.2,0.6c0,0.2,0.1,0.4,0.2,0.6l2.1,2.2h-1.7c-0.4,0-0.8,0.4-0.8,0.8s0.4,0.8,0.8,0.8H20
			l2.4,2.4h-2.1c-0.4,0-0.8,0.4-0.8,0.8s0.4,0.8,0.8,0.8H24l4,4l-0.1,0c-4.6,0.6-9.2-1-12.6-4.4c-2.7-2.7-4.3-6.4-4.5-10.2
			c0-1,0.3-2,1.1-2.7c0.7-0.7,1.6-1.1,2.5-1.1l0.1,0c0.8,0,1.7,0.1,2.5,0.3c0.2,0,0.4,0,0.6-0.1c0.2-0.1,0.3-0.3,0.3-0.5
			c0.1-0.4-0.2-0.8-0.6-0.9c-0.9-0.2-1.9-0.3-2.8-0.3c-0.1,0-0.1,0-0.2,0c-1.4,0-2.7,0.6-3.7,1.5c-1,1-1.6,2.4-1.5,3.9
			c0.2,4.3,1.9,8.3,4.9,11.3c3.2,3.2,7.4,4.9,11.9,4.9c1.1,0,2.2-0.1,3.3-0.3l0,0l0.1,0.1c0.3,0.3,0.8,0.3,1.1,0l0.1-0.1l0,0
			c1.1,0.2,2.2,0.3,3.3,0.3c4.5,0,8.7-1.8,11.9-4.9c3-3,4.8-7,4.9-11.3C50.8,37.4,50.3,36,49.3,35z M34,53.5c-0.6,0-1.2,0-1.8-0.1
			l-0.1,0l4-4h3.7c0.4,0,0.8-0.4,0.8-0.8s-0.4-0.8-0.8-0.8h-2.1l2.3-2.4h3.3c0.4,0,0.8-0.4,0.8-0.8s-0.4-0.8-0.8-0.8h-1.7l2.2-2.2
			c0.3-0.3,0.3-0.8,0-1.1c-0.3-0.3-0.8-0.3-1.1,0l-2.2,2.2V41c0-0.4-0.4-0.8-0.8-0.8s-0.8,0.4-0.8,0.8v3.4l-2.4,2.4v-2.2
			c0-0.4-0.4-0.8-0.8-0.8s-0.8,0.4-0.8,0.8v3.8l-4,4l0-0.2c-0.5-4.7,1-9.3,4.4-12.6c2.7-2.7,6.4-4.3,10.2-4.5l0.1,0
			c1,0,1.9,0.4,2.5,1.1c0.7,0.7,1.1,1.7,1.1,2.7c-0.1,3.9-1.7,7.5-4.5,10.2C41.9,51.9,38,53.5,34,53.5z"/>
		<path class="st0" d="M20.7,27h4.8v4.8c0,1.2,1,2.2,2.2,2.2h4.9c1.2,0,2.2-1,2.2-2.2V27h4.8c1.2,0,2.2-1,2.2-2.2V20
			c0-1.2-1-2.2-2.2-2.2h-4.8v-4.8c0-1.2-1-2.2-2.2-2.2h-4.9c-1.2,0-2.2,1-2.2,2.2v4.8h-4.8c-1.2,0-2.2,1-2.2,2.2v4.9
			C18.5,26.1,19.5,27,20.7,27z M27,18.6v-5.6c0-0.3,0.3-0.6,0.6-0.6h4.9c0.3,0,0.6,0.3,0.6,0.6v5.6c0,0.4,0.4,0.8,0.8,0.8h5.5
			c0.3,0,0.6,0.3,0.6,0.6v4.9c0,0.3-0.3,0.6-0.6,0.6h-5.5c-0.4,0-0.8,0.4-0.8,0.8v5.6c0,0.3-0.3,0.6-0.6,0.6h-4.9
			c-0.3,0-0.6-0.3-0.6-0.6v-5.6c0-0.4-0.4-0.8-0.8-0.8h-5.5c-0.3,0-0.6-0.3-0.6-0.6V20c0-0.3,0.3-0.6,0.6-0.6h5.5
			C26.6,19.4,27,19,27,18.6z"/>
		<circle class="st0" cx="20.9" cy="35.9" r="0.8"/>
	</g>
</g>
</svg>
