<?xml version="1.0" encoding="utf-8"?>
<!-- Generator: Adobe Illustrator 26.4.1, SVG Export Plug-In . SVG Version: 6.00 Build 0)  -->
<svg version="1.1" id="Capa_1" xmlns="http://www.w3.org/2000/svg" xmlns:xlink="http://www.w3.org/1999/xlink" x="0px" y="0px"
	 viewBox="0 0 60 66" style="enable-background:new 0 0 60 66;" xml:space="preserve">
<style type="text/css">
	.st0{fill:#373869;}
	.st1{fill:#373769;}
</style>
<g>
	<g>
		<g>
			<path class="st0" d="M29.9,31.2c-1,0-1.8,0.8-1.8,1.8c0,1,0.8,1.8,1.8,1.8c1,0,1.8-0.8,1.8-1.8C31.7,32,30.9,31.2,29.9,31.2z
				 M29.9,33.6c-0.3,0-0.6-0.3-0.6-0.6c0-0.3,0.3-0.6,0.6-0.6c0.3,0,0.6,0.3,0.6,0.6S30.3,33.6,29.9,33.6z"/>
			<path class="st0" d="M29.9,28.7c-2.4,0-4.3,1.9-4.3,4.3c0,2.4,1.9,4.3,4.3,4.3s4.3-1.9,4.3-4.3C34.2,30.6,32.3,28.7,29.9,28.7z
				 M29.9,36.1c-1.7,0-3.1-1.4-3.1-3.1s1.4-3.1,3.1-3.1S33,31.3,33,33S31.6,36.1,29.9,36.1z"/>
			<path class="st0" d="M36.8,28.7L34.2,26l-1.1,1.1c-0.2,0.2-0.5,0.3-0.9,0.1c-0.3-0.1-0.5-0.4-0.5-0.7V25h-3.7v1.6
				c0,0.3-0.2,0.6-0.5,0.7c-0.3,0.1-0.6,0.1-0.8-0.1L25.6,26L23,28.7l1.1,1.1c0.2,0.2,0.3,0.5,0.1,0.9c-0.1,0.3-0.4,0.5-0.7,0.5H22
				v3.7h1.6c0.3,0,0.6,0.2,0.7,0.5c0.1,0.3,0.1,0.6-0.1,0.8L23,37.3l2.6,2.6l1.1-1.1c0.2-0.2,0.5-0.3,0.9-0.1
				c0.3,0.1,0.5,0.4,0.5,0.7V41h3.7v-1.6c0-0.3,0.2-0.6,0.5-0.7c0.3-0.1,0.6-0.1,0.8,0.1l1.1,1.1l2.6-2.6l-1.1-1.1
				c-0.2-0.2-0.3-0.5-0.1-0.8l0-0.1c0.1-0.3,0.4-0.5,0.7-0.5h1.6v-3.7h-1.6c-0.3,0-0.6-0.2-0.7-0.5c-0.1-0.3-0.1-0.6,0.1-0.8
				L36.8,28.7z M36.3,32.4h0.4v1.2h-0.4c-0.8,0-1.5,0.5-1.8,1.2l0,0.1c-0.3,0.8-0.1,1.6,0.4,2.1l0.3,0.3l-0.9,0.9L34,37.9
				c-0.6-0.6-1.4-0.7-2.2-0.4c-0.8,0.3-1.2,1-1.2,1.8v0.4h-1.2v-0.4c0-0.8-0.5-1.5-1.3-1.8c-0.8-0.3-1.6-0.2-2.2,0.4l-0.3,0.3
				l-0.9-0.9l0.3-0.3c0.6-0.6,0.7-1.4,0.4-2.2c-0.3-0.8-1-1.2-1.8-1.2h-0.4v-1.2h0.4c0.8,0,1.5-0.5,1.8-1.3c0.3-0.8,0.2-1.6-0.4-2.2
				l-0.3-0.3l0.9-0.9l0.3,0.3c0.6,0.6,1.4,0.7,2.2,0.4c0.8-0.3,1.2-1,1.2-1.8v-0.4h1.2v0.4c0,0.8,0.5,1.5,1.3,1.8
				c0.8,0.3,1.6,0.2,2.2-0.4l0.3-0.3l0.9,0.9l-0.3,0.3c-0.6,0.6-0.7,1.4-0.4,2.2C34.8,31.9,35.5,32.4,36.3,32.4L36.3,32.4z"/>
			<path class="st0" d="M22.7,38.7c-1.3-1.6-1.9-3.6-1.9-5.7s0.7-4,1.9-5.7l0.3-0.4l-6.1-6.1l-0.4,0.5c-1.9,2.2-3.2,4.9-3.9,7.7
				c-1,0.5-1.7,1.5-1.7,2.7c0,0.6,0.2,1.1,0.5,1.6c-0.3,0.4-0.5,0.9-0.5,1.4c0,1.1,0.7,2,1.7,2.3c0.7,2.8,2,5.3,3.8,7.5l0.4,0.5
				l6.1-6.1L22.7,38.7z M12.2,34.8c0-0.4,0.2-0.7,0.4-0.9l0.5-0.4L12.7,33c-0.3-0.3-0.5-0.8-0.5-1.2c0-1,0.8-1.8,1.8-1.8
				s1.8,0.8,1.8,1.8l0,0.6l0.4,0.2c0.5,0.2,0.8,0.6,0.8,1.2c0,0.8-0.9,1.5-1.7,1.1l-0.6-0.3l-0.2,0.7c-0.1,0.5-0.6,0.9-1.2,0.9
				C12.7,36.1,12.2,35.5,12.2,34.8z M18.3,37.5c-0.1,0.5-0.5,0.9-1,1l-2.1-2.1c0.1-0.1,0.2-0.2,0.3-0.4c0.1,0,0.2,0,0.3,0
				c0.3,0,0.6-0.1,0.8-0.2L18.3,37.5z M17,43.4c-1.4-1.8-2.5-3.9-3.1-6.1c0.1,0,0.2,0,0.3-0.1l2.6,2.6h0.3c1.3,0,2.4-1.1,2.4-2.5V37
				l-1.8-1.8c0.4-0.4,0.6-1,0.6-1.6c0-0.9-0.5-1.7-1.2-2.1c-0.1-1.6-1.5-2.8-3-2.8c0,0,0,0,0,0c0.6-2.2,1.6-4.3,3.1-6.1l4.4,4.4
				c-1.2,1.8-1.9,3.8-1.9,6s0.6,4.2,1.9,6L17,43.4z"/>
			<path class="st0" d="M24.3,25.7c1.6-1.3,3.6-1.9,5.6-1.9c0.7,0,1.4,0.1,2.1,0.2c0.3,0.6,0.9,1,1.6,1c0.2,0,0.5,0,0.7-0.1
				c0.5,0.2,0.9,0.5,1.3,0.8l0.4,0.3L42,20l-0.5-0.4c-2.7-2.3-5.9-3.7-9.3-4.2c-0.7-0.9-1.7-1.4-2.9-1.4c-1.3,0-2.4,0.6-3,1.6
				c-2.9,0.6-5.7,2-8,4L17.8,20l6.1,6.1L24.3,25.7z M33,23.2v-0.9l-1-1l1-1l1,1h0.9c0.3,0,0.6,0.3,0.6,0.6s-0.3,0.6-0.6,0.6h-0.6
				v0.6c0,0.3-0.3,0.6-0.6,0.6C33.2,23.8,33,23.5,33,23.2z M40.2,20l-4.4,4.4c-0.2-0.1-0.4-0.3-0.6-0.4c0.1-0.1,0.1-0.2,0.1-0.3
				c0.8-0.2,1.3-0.9,1.3-1.8c0-1-0.8-1.8-1.8-1.8h-0.4l-0.9-0.9l-0.6-2.4c0,0,0-0.1,0-0.1C35.6,17.2,38.1,18.3,40.2,20z M29.3,15.2
				c1.1,0,2.1,0.8,2.4,1.9l0.6,2.2L31,20.6l-2.2-0.6c-1.1-0.3-1.9-1.3-1.9-2.4C26.9,16.3,28,15.2,29.3,15.2L29.3,15.2z M25.7,17
				c0,0.2-0.1,0.5-0.1,0.7c0,1.7,1.2,3.2,2.8,3.6l2.4,0.6l0.8,0.8c-0.6-0.1-1.1-0.1-1.7-0.1c-2.2,0-4.2,0.6-5.9,1.9L19.6,20
				C21.4,18.6,23.5,17.5,25.7,17L25.7,17z"/>
			<path class="st0" d="M35.5,40.3c-1.6,1.3-3.6,1.9-5.6,1.9s-4-0.7-5.6-1.9l-0.4-0.3L17.8,46l0.5,0.4c2.5,2.2,5.5,3.6,8.7,4.1
				c0.7,0.9,1.7,1.5,2.9,1.5s2.3-0.6,2.9-1.5c3.2-0.5,6.2-1.9,8.7-4.1L42,46L36,39.9L35.5,40.3z M19.6,46l4.4-4.4
				c1.4,1,3,1.6,4.7,1.8c-1,1.3-2.5,3.5-2.5,5c0,0.3,0,0.6,0.1,0.8C23.9,48.7,21.6,47.5,19.6,46L19.6,46z M29.9,50.8
				c-1.3,0-2.4-1.1-2.4-2.5c0-1,1.4-3.1,2.4-4.5c1.1,1.4,2.4,3.5,2.4,4.5C32.4,49.7,31.3,50.8,29.9,50.8z M33.5,49.2
				c0.1-0.3,0.1-0.5,0.1-0.8c0-1.5-1.5-3.7-2.5-5c1.7-0.2,3.3-0.8,4.7-1.8l4.4,4.4C38.2,47.5,35.9,48.7,33.5,49.2L33.5,49.2z"/>
			<path class="st0" d="M48.6,29.9l0.5-1.8h-1.8c-0.1,0-0.2,0-0.3,0c-0.7-2.5-2-4.8-3.6-6.8l-0.4-0.5l-6.1,6.1l0.3,0.4
				c1.3,1.6,1.9,3.6,1.9,5.7s-0.7,4-1.9,5.7l-0.3,0.4l6.1,6.1l0.4-0.5c1.7-2,3-4.4,3.7-6.9c0.4-0.2,0.7-0.6,0.8-1l0.7-2.5
				c0.2-0.7,0.3-1.5,0.3-2.3c0-0.5-0.2-1-0.5-1.4C48.4,30.4,48.5,30.1,48.6,29.9L48.6,29.9z M47.5,29.3l-0.1,0.3
				c-0.1,0.5-0.6,0.9-1.2,0.9H46l0.1-0.3c0.1-0.5,0.6-0.9,1.2-0.9H47.5z M42.8,43.4L38.5,39c1.2-1.8,1.9-3.8,1.9-6s-0.6-4.2-1.9-6
				l4.4-4.4c1.4,1.7,2.4,3.8,3,5.9c-0.5,0.3-0.8,0.8-0.9,1.4l-0.1,0.3l-0.1-0.1c-0.4-0.2-0.8-0.3-1.2-0.3c-1.1,0-2,0.9-2,2
				c0,0.8,0.1,1.5,0.3,2.3l0.7,2.5c0.2,0.7,0.8,1.2,1.6,1.2c0.4,0,0.8-0.1,1.1-0.4c0.2,0.1,0.3,0.2,0.5,0.3
				C45.1,39.8,44.1,41.7,42.8,43.4L42.8,43.4z M47.4,33.9l-0.7,2.5c-0.1,0.3-0.5,0.4-0.7,0.1l-0.7-0.7l-0.7,0.7
				c-0.2,0.2-0.7,0.2-0.7-0.1L43,33.9c-0.2-0.6-0.3-1.3-0.3-2c0-0.4,0.3-0.8,0.8-0.8c0.2,0,0.4,0.1,0.6,0.1l0.9,0.5h1.2
				c0.5,0,0.9-0.1,1.3-0.3c0.1,0.1,0.2,0.3,0.2,0.5C47.7,32.6,47.6,33.2,47.4,33.9L47.4,33.9z"/>
		</g>
	</g>
	<path class="st1" d="M30,66c-1.9,0-3.8-0.5-5.5-1.5l-18.9-11C2.1,51.6,0,47.9,0,44V22c0-3.9,2.1-7.6,5.5-9.6l18.9-11
		c3.4-2,7.7-2,11.1,0l18.9,11c3.4,2,5.5,5.7,5.5,9.6V44c0,3.9-2.1,7.6-5.5,9.6l-18.9,11C33.8,65.5,31.9,66,30,66z M30,1.5
		c-1.7,0-3.3,0.4-4.8,1.3l-18.9,11c-3,1.7-4.8,4.9-4.8,8.3V44c0,3.4,1.8,6.6,4.8,8.3l18.9,11c3,1.7,6.6,1.7,9.6,0l18.9-11
		c3-1.7,4.8-4.9,4.8-8.3V22c0-3.4-1.8-6.6-4.8-8.3l-18.9-11C33.3,1.9,31.7,1.5,30,1.5z"/>
</g>
</svg>
