<?xml version="1.0" encoding="utf-8"?>
<!-- Generator: Adobe Illustrator 26.4.1, SVG Export Plug-In . SVG Version: 6.00 Build 0)  -->
<svg version="1.1" id="Capa_1" xmlns="http://www.w3.org/2000/svg" xmlns:xlink="http://www.w3.org/1999/xlink" x="0px" y="0px"
	 viewBox="0 0 55 60" style="enable-background:new 0 0 55 60;" xml:space="preserve">
<style type="text/css">
	.st0{fill:#3654A8;}
	.st1{fill:#FF8E9E;}
	.st2{fill:#FFB5C0;}
	.st3{fill:#FFDBE0;}
	.st4{fill:#313D40;}
</style>
<g>
	<path class="st0" d="M50.1,48.6L32.4,58.7c-3,1.7-6.7,1.7-9.7,0L4.9,48.6c-3-1.7-4.9-4.9-4.9-8.3V20c0-3.4,1.8-6.6,4.9-8.3
		L22.6,1.5c3-1.7,6.7-1.7,9.7,0l17.8,10.1c3,1.7,4.9,4.9,4.9,8.3v20.3C55,43.7,53.2,46.9,50.1,48.6z"/>
	<g>
		<g>
			<g>
				<path class="st1" d="M29.3,14.9c-0.6-3.3-0.2-6.8,1.2-10.1c0.7-1.6,0-3.5-1.7-4.2c-1.6-0.7-3.6,0-4.3,1.6c-1.3,3-2,6.1-2,9.4
					c0,4.1,0.7,7.7,3.5,10.7c0.2,0.2,0.5,0.5,0.7,0.7l4.6-4.5C30.3,17.5,29.6,16.3,29.3,14.9z"/>
			</g>
			<path class="st1" d="M19.8,33.3c-5.4-5.3-14.7-2.5-16,5c-0.2,1.3-0.3,2.6-0.3,3.9c0,2.9,0.7,5.6,1.8,8.1c0.5,1.2,1.7,1.9,3,1.9
				c2.4,0,3.9-2.4,3-4.5c-0.8-1.7-1.2-3.6-1.2-5.5c0-0.9,0.1-1.7,0.2-2.6c0.4-2.4,3.4-3.3,5.1-1.6l0,0L19.8,33.3L19.8,33.3z"/>
			<g>
				<path class="st1" d="M51.5,26.9c0-0.1,0-0.2,0-0.3C51.5,26.7,51.5,26.8,51.5,26.9z"/>
				<path class="st1" d="M51.5,26.6c0-0.1,0-0.2,0-0.3C51.5,26.4,51.5,26.5,51.5,26.6z"/>
				<path class="st2" d="M51.5,26.2c-0.1-5.4-3.6-10.1-8.5-12c-1.5-0.6-3.2-0.9-5-0.9c-7.6,0-13.5,6.1-13.5,13.1
					c0,2.4-1.5,4.2-3.6,4.9c-4.5,1.5-7.8,5.8-7.8,10.8c0.1,6.2,5.4,11.2,11.7,11.1c4.4,0,8.5-1.1,12.1-3
					c8.5-4.4,14.4-13.1,14.5-23.3c0-0.1,0-0.2,0-0.3S51.5,26.4,51.5,26.2L51.5,26.2z"/>
				<path class="st1" d="M30.6,44.1c-1.4-4.1,0.1-8.4,3.4-10.8c1.5-1.1,2.3-3,1.6-4.9c-1.9-5.7,1.2-12.2,7.4-14.2
					c-1.5-0.6-3.2-0.9-5-0.9c-7.6,0-13.5,6.1-13.5,13.1c0,2.4-1.5,4.2-3.6,4.9c-4.5,1.5-7.8,5.8-7.8,10.8
					c0.1,6.2,5.4,11.2,11.7,11.1c4.4,0,8.5-1.1,12.1-3C34.1,49.3,31.7,47.2,30.6,44.1L30.6,44.1z"/>
			</g>
		</g>
		<g>
			<g>
				<g>
					<ellipse class="st2" cx="28.4" cy="27.7" rx="3.2" ry="2.5"/>
				</g>
				<g>
					<ellipse class="st3" cx="45.6" cy="27.7" rx="3.2" ry="2.5"/>
				</g>
			</g>
		</g>
		<g>
			<path class="st4" d="M30.2,23.3c-0.4,0-0.8,0.4-0.8,0.8v1.3c0,0.4,0.4,0.8,0.8,0.8c0.4,0,0.8-0.4,0.8-0.8v-1.3
				C31,23.6,30.7,23.3,30.2,23.3z"/>
			<path class="st4" d="M43.7,23.3c-0.4,0-0.8,0.4-0.8,0.8v1.3c0,0.4,0.4,0.8,0.8,0.8s0.8-0.4,0.8-0.8v-1.3
				C44.6,23.6,44.2,23.3,43.7,23.3z"/>
			<path class="st4" d="M39.3,24.7c-0.3-0.3-0.9-0.3-1.1,0.1c-0.3,0.3-0.7,0.5-1.2,0.5c-0.4,0-0.9-0.2-1.2-0.5
				c-0.3-0.3-0.8-0.4-1.1-0.1c-0.3,0.3-0.4,0.8-0.1,1.1c0.6,0.7,1.5,1.1,2.4,1.1s1.8-0.4,2.4-1.1C39.7,25.5,39.6,25,39.3,24.7
				L39.3,24.7z"/>
		</g>
	</g>
</g>
</svg>
