<?xml version="1.0" encoding="utf-8"?>
<!-- Generator: Adobe Illustrator 26.4.1, SVG Export Plug-In . SVG Version: 6.00 Build 0)  -->
<svg version="1.1" id="Capa_1" xmlns="http://www.w3.org/2000/svg" xmlns:xlink="http://www.w3.org/1999/xlink" x="0px" y="0px"
	 viewBox="0 0 60 66" style="enable-background:new 0 0 60 66;" xml:space="preserve">
<style type="text/css">
	.st0{fill:#373769;}
	.st1{fill:#373869;}
</style>
<g>
	<path class="st0" d="M30,66c-1.9,0-3.8-0.5-5.5-1.5l-18.9-11C2.1,51.6,0,47.9,0,44V22c0-3.9,2.1-7.6,5.5-9.6l18.9-11
		c3.4-2,7.7-2,11.1,0l18.9,11c3.4,2,5.5,5.7,5.5,9.6V44c0,3.9-2.1,7.6-5.5,9.6l-18.9,11C33.8,65.5,31.9,66,30,66z M30,1.5
		c-1.7,0-3.3,0.4-4.8,1.3l-18.9,11c-3,1.7-4.8,4.9-4.8,8.3V44c0,3.4,1.8,6.6,4.8,8.3l18.9,11c3,1.7,6.6,1.7,9.6,0l18.9-11
		c3-1.7,4.8-4.9,4.8-8.3V22c0-3.4-1.8-6.6-4.8-8.3l-18.9-11C33.3,1.9,31.7,1.5,30,1.5z"/>
	<path class="st1" d="M34.9,26.2c-1.2,0-2.4,0.7-3,1.8c-0.2,0.4-0.1,1,0.3,1.2c0.4,0.2,1,0.1,1.2-0.3c0.3-0.5,0.9-0.9,1.5-0.9
		s1.2,0.3,1.5,0.9c0.2,0.3,0.4,0.4,0.8,0.4c0.1,0,0.3,0,0.4-0.1c0.4-0.2,0.6-0.8,0.3-1.2h0C37.2,26.9,36.1,26.2,34.9,26.2z"/>
	<path class="st1" d="M28.1,28c-0.6-1.1-1.8-1.8-3-1.8c-1.2,0-2.4,0.7-3,1.8c-0.2,0.4-0.1,1,0.3,1.2c0.4,0.2,1,0.1,1.2-0.3
		c0.3-0.5,0.9-0.9,1.5-0.9c0.6,0,1.2,0.3,1.5,0.9c0.2,0.3,0.4,0.4,0.8,0.4c0.1,0,0.3,0,0.4-0.1c0.2-0.1,0.4-0.3,0.4-0.5
		C28.3,28.4,28.2,28.2,28.1,28L28.1,28z"/>
	<path class="st1" d="M47.3,19.6c-0.4-0.4-0.7-0.9-1.1-1.3c-1.4-1.7-2.7-3.2-4.1-4.1c-1.7-1-3.4-1.1-5.3-0.3
		c-0.1,0.1-0.3,0.2-1.1,0.7c-1.7-0.9-3.5-1.3-5.8-1.3c-2.2,0-4.1,0.4-5.8,1.3c-0.8-0.5-1-0.7-1.1-0.7c-1.9-0.9-3.6-0.8-5.3,0.3
		c-1.4,0.9-2.6,2.4-4.1,4.1c-0.3,0.4-0.7,0.8-1.1,1.3c-1.6,1.9-2.2,4-1.7,6.3c0.5,2.4,2.1,4.7,4.4,6.1c-0.1,0.9-0.4,2.9-0.3,5.3
		c-0.7,1.4-1,3.1-0.8,4.7c0.3,1.7,1,3.2,2.2,4.4c1.4,1.4,3.4,2.2,5.6,2.3c1.1,0,2.2-0.1,3.3-0.3c0.2,2.4,2.2,4.2,4.6,4.2
		c2.4,0,4.4-1.8,4.6-4.2c1.2,0.3,2.3,0.4,3.3,0.3c2.2-0.1,4.2-0.9,5.6-2.3c1.2-1.2,2-2.7,2.2-4.4c0.2-1.6,0-3.3-0.8-4.7l0-0.1
		c0.1-1.7-0.1-3.6-0.3-5.3c2.2-1.3,3.9-3.7,4.4-6.1C49.5,23.6,48.9,21.4,47.3,19.6z M30.3,45L30.3,45L30.3,45L30.3,45z M30.3,45
		L30.3,45L30.3,45L30.3,45z M30.4,45L30.4,45L30.4,45L30.4,45z M30.4,44.9L30.4,45l0,0h0L30.4,44.9l-0.1,0c0,0,0,0-0.1,0
		c0,0,0,0-0.1,0c0,0,0,0-0.1,0l0,0c-0.1,0-0.1,0-0.2,0c0,0,0,0-0.1,0l-0.1,0c0,0,0,0-0.1,0c0,0-0.1,0-0.1,0c-5,2.7-9.4,2.8-11.9,0.3
		c-1.9-1.8-2.3-4.8-1.1-7.1c1.3-2.5,4.2-3.5,7.9-3c0.1,0.4,0.4,0.8,0.7,1.1l3,3c0.5,0.5,1.1,0.8,1.8,0.8c0.7,0,1.3-0.3,1.8-0.8
		l3.1-3.1c0.3-0.3,0.5-0.6,0.6-1c3.7-0.6,6.6,0.5,7.9,3c1.2,2.3,0.7,5.3-1.1,7.1c-2.5,2.5-6.8,2.4-11.8-0.2L30.4,44.9z M30.3,45
		L30.3,45L30.3,45L30.3,45z M30.1,44.9L30.1,44.9L30.1,44.9L30.1,44.9z M22.6,15.7c-3.2,2.5-5.4,7.1-6.9,14.4
		c-1.5-1.1-2.7-2.9-3-4.6c-0.3-1.7,0.1-3.4,1.3-4.8c0.4-0.4,0.7-0.9,1.1-1.3c3-3.5,4.5-5.2,7.3-3.9C22.4,15.5,22.5,15.6,22.6,15.7z
		 M33.6,34.9L30.6,38c-0.3,0.3-0.8,0.3-1.1,0l-3-3c0,0,0,0,0,0c-0.2-0.1-0.3-0.4-0.3-0.6c0-0.4,0.4-0.8,0.8-0.8l6.1,0
		c0.2,0,0.4,0.1,0.5,0.2C33.9,34.1,33.9,34.6,33.6,34.9z M42.8,31.8c0.2,1,0.3,2.2,0.4,3.4c-0.6-0.5-1.3-0.9-2.1-1.2
		c-1.1-0.5-2.4-0.7-3.7-0.7c-0.6,0-1.3,0-2,0.1c-0.1-0.3-0.3-0.6-0.6-0.8c-0.5-0.5-1.1-0.7-1.8-0.7l-6.1,0c-1,0-1.9,0.6-2.3,1.5
		c-2.2-0.3-4.1-0.1-5.8,0.5c-0.8,0.3-1.5,0.7-2.1,1.2c0.1-1.2,0.2-2.4,0.4-3.4l0-0.1c1.2-6.3,2.9-10.6,5.2-13.3
		c1.9-2.2,4.4-3.3,7.7-3.3c3.3,0,5.7,1,7.7,3.3C39.9,21,41.6,25.4,42.8,31.8L42.8,31.8z M37.4,15.7c0.2-0.1,0.2-0.1,0.2-0.1
		c2.8-1.3,4.3,0.4,7.3,3.9l0,0c0.3,0.4,0.7,0.8,1,1.2c1.2,1.4,1.7,3.1,1.3,4.8c-0.3,1.7-1.5,3.4-3,4.6
		C42.8,22.8,40.6,18.2,37.4,15.7z M27.1,47.9c0.6-0.2,1.3-0.5,2-0.8v1.1c0,0.5,0.4,0.9,0.9,0.9c0.5,0,0.9-0.4,0.9-0.9v-1.1
		c0.7,0.3,1.3,0.6,2,0.8V48c0,1.6-1.3,2.9-2.9,2.9C28.4,50.9,27.1,49.6,27.1,47.9L27.1,47.9z M30.4,45.1L30.4,45.1L30.4,45.1
		L30.4,45.1z"/>
	<path class="st1" d="M21.4,37.7c-0.5,0-0.9,0.4-0.9,0.9s0.4,0.9,0.9,0.9c0.5,0,0.9-0.4,0.9-0.9S21.9,37.7,21.4,37.7z"/>
	<path class="st1" d="M19.8,41.9c-0.5,0-0.9,0.4-0.9,0.9c0,0.5,0.4,0.9,0.9,0.9c0.5,0,0.9-0.4,0.9-0.9
		C20.7,42.3,20.3,41.9,19.8,41.9z"/>
	<path class="st1" d="M24.3,40.8c-0.5,0-0.9,0.4-0.9,0.9s0.4,0.9,0.9,0.9c0.5,0,0.9-0.4,0.9-0.9S24.8,40.8,24.3,40.8z"/>
	<path class="st1" d="M38.6,39.4c0.5,0,0.9-0.4,0.9-0.9s-0.4-0.9-0.9-0.9c-0.5,0-0.9,0.4-0.9,0.9S38.1,39.4,38.6,39.4z"/>
	<path class="st1" d="M40.2,43.6c0.5,0,0.9-0.4,0.9-0.9c0-0.5-0.4-0.9-0.9-0.9s-0.9,0.4-0.9,0.9C39.3,43.2,39.7,43.6,40.2,43.6z"/>
	<path class="st1" d="M35.7,42.6c0.5,0,0.9-0.4,0.9-0.9s-0.4-0.9-0.9-0.9c-0.5,0-0.9,0.4-0.9,0.9S35.2,42.6,35.7,42.6z"/>
	<path class="st1" d="M22.6,22.9c0.2-0.4,0-1-0.4-1.2c-0.2-0.1-0.4-0.1-0.7-0.1c-0.2,0.1-0.4,0.2-0.5,0.4l0,0c-0.2,0.4,0,1,0.4,1.2
		c0.1,0.1,0.3,0.1,0.4,0.1C22.1,23.4,22.4,23.2,22.6,22.9z"/>
	<path class="st1" d="M22.9,21.5c0.3,0,0.6-0.1,0.7-0.4c0.8-1.2,2.4-2.7,3.6-2.9c0.2-0.1,0.4-0.2,0.5-0.4c0.1-0.2,0.2-0.4,0.1-0.7
		c-0.1-0.5-0.6-0.8-1.1-0.6c-1.9,0.5-3.8,2.4-4.6,3.7c-0.3,0.4-0.2,0.9,0.2,1.2C22.5,21.5,22.7,21.5,22.9,21.5z"/>
</g>
</svg>
