<?xml version="1.0" encoding="utf-8"?>
<!-- Generator: Adobe Illustrator 26.4.1, SVG Export Plug-In . SVG Version: 6.00 Build 0)  -->
<svg version="1.1" id="Capa_1" xmlns="http://www.w3.org/2000/svg" xmlns:xlink="http://www.w3.org/1999/xlink" x="0px" y="0px"
	 viewBox="0 0 60 66" style="enable-background:new 0 0 60 66;" xml:space="preserve">
<style type="text/css">
	.st0{fill:#373869;}
</style>
<g>
	<path class="st0" d="M53.3,28c-2.4-2.1-5.5-3.9-8.9-5.1c-1.5-0.5-3.1-0.9-4.7-1.2c-1.1-1.4-4.3-4.5-9.6-5.7c-1-0.2-2,0-2.8,0.6
		c-0.8,0.6-1.2,1.6-1.2,2.6v4.2c-4.9,2.2-8.9,5.7-10.9,7.8c-0.3-1.5-1.1-3.5-2.6-5c-3.1-3.1-8-3-8.2-2.9c-0.7,0-1.3,0.6-1.3,1.3
		c0,0.2-0.1,5.2,2.9,8.2c0.6,0.6,1.3,1.1,2.1,1.5c-0.8,0.4-1.5,0.9-2.1,1.6c-3.1,3.1-3,8-2.9,8.2c0,0.7,0.6,1.3,1.3,1.3
		c0,0,0.1,0,0.2,0c0.9,0,5.2-0.1,8.1-3c1.5-1.5,2.3-3.5,2.6-5.1c1.6,1.6,4.1,3.8,7.1,5.8v3.8c0,1,0.5,2,1.3,2.6
		c0.6,0.4,1.2,0.6,1.9,0.6c0.3,0,0.6,0,0.9-0.1c2.7-0.8,4.7-2.2,5.8-3.1c0.9,0.1,1.8,0.2,2.7,0.2c3.1,0,6.2-0.5,9.2-1.5l0,0
		C51.2,43.2,57,38.1,57,34.2C57,32.3,55.7,30.1,53.3,28z M28.6,46.1c-1,0.6-2,1-3,1.3c-0.2,0-0.3,0-0.5-0.1
		c-0.1-0.1-0.2-0.2-0.2-0.4v-2.3C26.2,45.2,27.4,45.7,28.6,46.1z M28.8,22.2v-3.1c0-0.2,0.1-0.3,0.2-0.4c0.1,0,0.2-0.1,0.3-0.1
		c0,0,0.1,0,0.1,0c2.5,0.6,4.5,1.7,5.8,2.7C33.1,21.2,31,21.5,28.8,22.2z M37.6,34.5c0,3.2,1.4,6.7,3.6,9.2
		c-2.1,0.5-4.1,0.8-6.2,0.8c-0.9,0-1.9-0.1-2.8-0.3c-2.5-0.4-5.1-1.5-7.7-3c-4-2.4-7.1-5.6-8.4-7c1.8-2,6.3-6.5,12-8.8
		c2.4-1,4.7-1.4,6.9-1.4c1.3,0,2.5,0.1,3.8,0.3c0.8,0.1,1.7,0.3,2.5,0.5C39,27.3,37.6,31,37.6,34.5z M54.3,34.2
		c0,2-3.9,6.2-10.3,8.6c-2.3-2.1-3.7-5.4-3.7-8.3c0-3.2,1.6-6.8,3.9-8.8C50.4,28.1,54.3,32.2,54.3,34.2z M10.6,28
		c1.4,1.4,1.9,3.5,2.1,4.8c-1.3-0.1-3.4-0.6-4.8-2C6.4,29.4,6,27.3,5.8,26C7.1,26.1,9.2,26.6,10.6,28z M12.7,35.7
		c-0.2,1.3-0.6,3.4-2.1,4.8c-1.4,1.4-3.5,1.9-4.8,2.1c0.2-1.3,0.7-3.4,2.1-4.8C9.3,36.3,11.4,35.8,12.7,35.7z"/>
	<path class="st0" d="M48.1,32.6c-0.7,0-1.4,0.6-1.4,1.4v0.5c0,0.7,0.6,1.4,1.4,1.4c0.7,0,1.4-0.6,1.4-1.4v-0.5
		C49.5,33.2,48.9,32.6,48.1,32.6z"/>
	<path class="st0" d="M35.6,26.1C35.6,26.1,35.6,26.1,35.6,26.1c-0.4,0-0.7,0.2-1,0.4c-0.1,0.1-0.2,0.2-0.3,0.4
		c-0.5,0.6-0.4,1.4,0.2,1.9c0.2,0.2,0.6,0.3,0.9,0.3c0.4,0,0.8-0.2,1-0.5c0.1-0.1,0.1-0.2,0.2-0.2c0.5-0.5,0.5-1.4-0.1-1.9
		C36.3,26.2,36,26.1,35.6,26.1z"/>
	<path class="st0" d="M34.5,34.4c0-1.3,0.2-2.6,0.7-3.7c0.1-0.3,0.1-0.7,0-1c-0.1-0.3-0.4-0.6-0.8-0.7c-0.3-0.1-0.7-0.1-1,0
		c-0.3,0.1-0.6,0.4-0.7,0.8c-0.5,1.4-0.8,3-0.8,4.7c0,3,0.9,5.8,2.6,7.7c0.3,0.3,0.6,0.5,1,0.5c0.3,0,0.6-0.1,0.9-0.3
		c0.6-0.5,0.6-1.4,0.1-1.9C35.2,38.9,34.5,36.7,34.5,34.4z"/>
</g>
</svg>
