<?xml version="1.0" encoding="utf-8"?>
<!-- Generator: Adobe Illustrator 26.4.1, SVG Export Plug-In . SVG Version: 6.00 Build 0)  -->
<svg version="1.1" id="Capa_1" xmlns="http://www.w3.org/2000/svg" xmlns:xlink="http://www.w3.org/1999/xlink" x="0px" y="0px"
	 viewBox="0 0 55 60" style="enable-background:new 0 0 55 60;" xml:space="preserve">
<style type="text/css">
	.st0{fill:#AB2538;}
	.st1{fill:#F4AA39;}
	.st2{fill:#F19B0B;}
	.st3{fill:#FDCB6B;}
	.st4{fill:#FFF5F5;}
</style>
<g>
	<path class="st0" d="M50.1,48.4L32.4,58.5c-3,1.7-6.7,1.7-9.7,0L4.9,48.4c-3-1.7-4.9-4.9-4.9-8.3V19.8c0-3.4,1.8-6.6,4.9-8.3
		l17.8-10c3-1.7,6.7-1.7,9.7,0l17.8,10c3,1.7,4.9,4.9,4.9,8.3v20.3C55,43.5,53.2,46.7,50.1,48.4z"/>
	<path class="st1" d="M32.4,1.3c-3-1.7-6.7-1.7-9.7,0L8.5,9.4c-0.2,1.1-0.3,2.1-0.3,3.2l0,3.9l0,0c0,0.3,0,0.6,0,0.9l0,3.9l7.6-5.6
		c2.5-1.8,5.3-3,8.4-3.4l4.6-0.7c4.5-0.6,8.4-2.8,11.1-6L32.4,1.3z"/>
	<path class="st2" d="M36.8,26c4.7,3.6,7.9,12,7.9,17.9l-3.9,7.3c0.2-4.3-2.5-8.1-6.6-9.4c-9.7-3.1-26.1-9.4-26.1-15.7l0-10.4
		l19.7,0.8C20.1,17.7,29.4,20.6,36.8,26L36.8,26z"/>
	<path class="st3" d="M33.4,1.9c-1.5,0.6-3,1.1-4.6,1.3l-4.6,0.7c-3,0.4-5.9,1.6-8.4,3.4c-4.4,3.3-7.2,8.3-7.5,13.7l0,5.1
		c1.2-1.2,2.5-2.2,3.9-3c-0.2,0.7-0.4,1.4-0.5,2.2c-0.1,0.5,0.5,0.8,0.8,0.4c2.9-3.1,6.3-5.2,9.9-6.9C32,16,41.4,15.6,42.9,7.3
		L33.4,1.9z"/>
	<path class="st1" d="M40.8,51.2c0-4.3-2.8-8.2-7-9.6c-2.2-0.7-4.7-1.6-7.3-2.6c-1.6-0.6-2.9-1.6-3.7-2.8c-0.7-0.9,0.4-2,1.3-1.4
		c0.4,0.2,0.8,0.5,1.2,0.7c2.7,1.3,5.7,2.4,8.1,3.1c0.5,0.2,1.6,0.8,1.7,0.8c1.5,0.5,2.5,1.7,2.8,3.1c0.7-2.3-0.5-4.8-2.8-5.6
		c-0.1,0-0.1,0-0.2-0.1c-4.2-1.4-10.7-3.8-13.3-6.5c-0.2-0.2-0.3-0.6-0.3-0.9c0,0,0,0,0,0c0.2-0.7,1-1,1.6-0.6
		c0.8,0.6,1.7,1.2,2.8,1.7c2.7,1.3,5.7,2.4,8.1,3.1c0.5,0.2,1.6,0.8,1.7,0.8c1.5,0.5,2.5,1.7,2.8,3.1c0.7-2.3-0.5-4.8-2.8-5.6
		c-0.1,0-0.1,0-0.2-0.1c-3.4-1.1-8.4-2.9-11.5-5c-0.5-0.3-0.6-1.1-0.1-1.5c0,0,0.1-0.1,0.1-0.1c0.3-0.3,0.7-0.3,1.1-0.2
		c1.6,0.7,6.3,2.7,8.3,3.3c0.5,0.2,1.6,0.8,1.7,0.8c1.5,0.5,2.5,1.7,2.8,3.1c1.2-5.1-6.6-6.9-8.5-7.7c-1-0.4-0.7-1.9,0.4-1.9
		c1.2,0,2.8,0.3,4.8,1.6c0.8,0.5,1.6,1.1,2.4,1.7c4.7,3.6,7.9,12,7.9,17.9L40.8,51.2z"/>
	<path class="st3" d="M44.7,44.8c0,8.4-6.9,15.2-15.4,15.2c-7,0-11.4-1.2-13.9-3.6c-2.4-1.3-4.1-3.6-5.5-6.9
		c-1.5-3.5-0.4-9.1,3.3-9.9c0.1,0.8,0.5,1.5,0.9,2.1c1.3-1.7,3.1-2.9,5.1-2.5c-1.2,5,5.9,9.8,12.6,8.6c5.9-1.1,11.6-7.4,6.8-20.1
		C46.4,34.7,44.7,43.2,44.7,44.8z"/>
	<g>
		<path class="st1" d="M13.2,20c8.9-6.4,20.7-6.1,27.3-9.9c1.1-0.7,1-2.3-0.2-2.8l0,0c-5.3,3-13.9,3.4-21.6,6.8
			c-2.6,1.1-4.7,3-6.1,5.3C12.2,19.8,12.8,20.3,13.2,20z"/>
		<path class="st1" d="M20.5,7.5c-2.6,1.1-4.7,3-6.1,5.3c-0.3,0.4,0.3,0.9,0.7,0.6c7.5-5.4,17.2-6,23.9-8.4l-3.4-1.9
			C31,4.4,25.6,5.3,20.5,7.5z"/>
		<path class="st1" d="M42.6,35.7c-0.1-0.3-0.5-0.2-0.5,0.1c1.6,8.8-4.1,13.4-9.9,14.3c-5,0.8-10.2-0.9-13-3.5
			c-0.3-0.3-0.7,0-0.6,0.3c1,3.9,7.3,7.1,13.7,6.5c-2.9,1.2-6,1.3-8.3,0.6c-0.4-0.1-0.6,0.3-0.4,0.6c2.3,2.5,8.5,2.6,13-0.4
			c1.6-1.1,3.7-2.2,4.5-4C41.1,50.3,45.8,44.1,42.6,35.7L42.6,35.7z"/>
		<path class="st1" d="M16.2,50.2c-1.4-3.3-0.5-8.6,2.8-9.8c0-0.4,0-0.8,0.1-1.2c-2-0.3-3.8,0.8-5.1,2.5c-0.5-0.6-0.8-1.3-0.9-2.1
			c-3.7,0.9-5.1,6.1-3.6,9.9c2.2,5.9,7.9,8.4,9.3,9c2.3,0.9,5.4,1.4,9.4,1.5c-2.9-0.6-5.1-1.6-6.6-3C19.3,55.7,17.6,53.4,16.2,50.2z
			"/>
	</g>
	<path class="st4" d="M13.4,34.6l-0.6-1.8c0-0.1-0.1-0.2-0.2-0.2l-1.8-0.6c-0.3-0.1-0.3-0.6,0-0.7l1.8-0.6c0.1,0,0.2-0.1,0.2-0.2
		l0.6-1.8c0.1-0.3,0.6-0.3,0.7,0l0.6,1.8c0,0.1,0.1,0.2,0.2,0.2l1.8,0.6c0.3,0.1,0.3,0.6,0,0.7l-1.8,0.6c-0.1,0-0.2,0.1-0.2,0.2
		L14,34.6C13.9,34.9,13.5,34.9,13.4,34.6z M41,15.7l0.8-2.5c0-0.1,0.2-0.3,0.3-0.3l2.5-0.8c0.4-0.1,0.4-0.8,0-0.9l-2.5-0.8
		c-0.1,0-0.3-0.2-0.3-0.3L41,7.6c-0.1-0.4-0.8-0.4-0.9,0L39.2,10c0,0.1-0.2,0.3-0.3,0.3l-2.5,0.8c-0.4,0.1-0.4,0.8,0,0.9l2.5,0.8
		c0.1,0,0.3,0.2,0.3,0.3l0.8,2.5C40.2,16.1,40.8,16.1,41,15.7z M43.9,50.2l0.6-1.8c0-0.1,0.1-0.2,0.2-0.2l1.8-0.6
		c0.3-0.1,0.3-0.6,0-0.7l-1.8-0.6c-0.1,0-0.2-0.1-0.2-0.2l-0.6-1.8c-0.1-0.3-0.6-0.3-0.7,0L42.6,46c0,0.1-0.1,0.2-0.2,0.2l-1.8,0.6
		c-0.3,0.1-0.3,0.6,0,0.7l1.8,0.6c0.1,0,0.2,0.1,0.2,0.2l0.6,1.8C43.4,50.5,43.8,50.5,43.9,50.2z"/>
</g>
</svg>
