<?xml version="1.0" encoding="utf-8"?>
<!-- Generator: Adobe Illustrator 26.4.1, SVG Export Plug-In . SVG Version: 6.00 Build 0)  -->
<svg version="1.1" id="Capa_1" xmlns="http://www.w3.org/2000/svg" xmlns:xlink="http://www.w3.org/1999/xlink" x="0px" y="0px"
	 viewBox="0 0 55 60" style="enable-background:new 0 0 55 60;" xml:space="preserve">
<style type="text/css">
	.st0{fill:#484B7F;}
	.st1{fill:#ACE852;}
	.st2{fill:#00D926;}
	.st3{fill:#00AA5E;}
</style>
<g>
	<path class="st0" d="M50.1,48.5L32.4,58.7c-3,1.7-6.7,1.7-9.7,0L4.9,48.5c-3-1.7-4.9-4.9-4.9-8.3V19.8c0-3.4,1.8-6.6,4.9-8.3
		L22.6,1.3c3-1.7,6.7-1.7,9.7,0l17.8,10.2c3,1.7,4.9,4.9,4.9,8.3v20.4C55,43.6,53.2,46.8,50.1,48.5z"/>
	<g id="g1309_00000008142810856101881010000003991264761270069670_">
		<g id="g1315_00000116217757786266025310000003200365786947053474_" transform="translate(175,150)">
			<path id="path1317_00000049938797050773417890000015226590360759831172_" class="st1" d="M-154.6-110.8h-8.8
				c-3.6,0-6.6,2.9-6.6,6.5l12.4,1.4l9.5-1.4C-148-107.9-151-110.8-154.6-110.8"/>
		</g>
		<g id="g1319_00000167367280394836490740000015785466476647013535_" transform="translate(0,75)">
			<path id="path1321_00000068646734503360602710000016760494573957610934_" class="st2" d="M5.1-29.3c0,3.6,2.9,6.5,6.6,6.5h8.8
				c3.6,0,6.6-2.9,6.6-6.5H5.1z"/>
		</g>
		<g id="g1323_00000179610841558039010090000004124556334514579364_" transform="translate(198.7432,333.0327)">
			<path id="path1325_00000124854518104693673960000007550925368119361158_" class="st1" d="M-176.3-309.7l-6.2-6.1l0,0
				c-2.6-2.5-6.7-2.5-9.3,0h0l7.4,9.2l8,6.2c1.2-1.2,1.9-2.9,1.9-4.6C-174.3-306.9-175-308.5-176.3-309.7"/>
		</g>
		<g id="g1327_00000010308244353399945110000004735704857739350696_" transform="translate(21.9668,297.6777)">
			<path id="path1329_00000124151019198972321060000009954427583020603796_" class="st2" d="M-15-271.3l6.2,6.1
				c1.2,1.2,2.9,1.9,4.6,1.9s3.4-0.7,4.6-1.9L-15-280.5C-17.5-278-17.5-273.8-15-271.3"/>
		</g>
		<g id="g1331_00000159430001016251302310000003528916957141542538_" transform="translate(166.9238,280)">
			<path id="path1333_00000043456329855354416620000014923475587624767151_" class="st2" d="M-147.2-252.1l-8-8l-0.9,0.9l4.5,4.8
				l3.5,3.2L-147.2-252.1z"/>
		</g>
		<g id="g1335_00000165218989231772258440000006141073528165950349_" transform="translate(64.3931,361.3169)">
			<path id="path1337_00000176009246766258770050000016048298149629287301_" class="st3" d="M-53.7-340.5l-0.9,0.9l8,8l0.9-0.9
				L-53.7-340.5z"/>
		</g>
		<g id="g1339_00000119096932054832966290000013917381139522802359_" transform="translate(414.9038,419.3575)">
			<path id="path1341_00000015335264971581836390000010765224740019512500_" class="st1" d="M-373.5-403.5l-6.2-6.1l0,0
				c-2.6-2.5-6.7-2.5-9.3,0h0l7.4,9.2l8,6.2c1.2-1.2,1.9-2.9,1.9-4.6C-371.6-400.7-372.3-402.3-373.5-403.5"/>
		</g>
		<g id="g1343_00000119118440088678342660000013940998135759965113_" transform="translate(238.1275,384.0026)">
			<path id="path1345_00000157996852139906224190000009579168573176089006_" class="st2" d="M-212.2-365.1l6.2,6.1
				c1.2,1.2,2.9,1.9,4.6,1.9s3.4-0.7,4.6-1.9l-15.5-15.3C-214.8-371.8-214.8-367.7-212.2-365.1"/>
		</g>
		<g id="g1347_00000080204515890978087470000001982893759524081796_" transform="translate(383.0845,366.3248)">
			<path id="path1349_00000172413870606951628590000014206963732967151491_" class="st2" d="M-344.5-345.9l-8-8l-0.9,0.9l4.5,4.8
				l3.5,3.2L-344.5-345.9z"/>
		</g>
		<g id="g1351_00000084519785646633322480000013663938694319269793_" transform="translate(280.5537,447.6417)">
			<path id="path1353_00000127753635507695955930000017614029188477008304_" class="st3" d="M-250.9-434.3l-0.9,0.9l8,8l0.9-0.9
				L-250.9-434.3z"/>
		</g>
		<g id="g1355_00000135671716637339295680000001323847092070001544_" transform="translate(190,90)">
			<path id="path1357_00000092435865703245626680000016328113191231006112_" class="st2" d="M-168.3-45.6h-11.4v1.3l7.2,0.5l4.2-0.5
				V-45.6z"/>
		</g>
		<path id="path1359_00000120516613748764356910000006116480026125299896_" class="st3" d="M10.3,47h11.4v-1.3H10.3V47z"/>
		<g id="g1361_00000169544255899808805760000003682087141745024702_" transform="translate(384.0021,247.7872)">
			<path id="path1363_00000029007345542505525620000005414404072851943088_" class="st1" d="M-345.3-217.1l-6.2,6.1
				c-2.6,2.5-2.6,6.7,0,9.2l9.8-7.7l5.7-7.6C-338.6-219.6-342.7-219.6-345.3-217.1"/>
		</g>
		<g id="g1365_00000173841766493226824360000017484613461518513290_" transform="translate(313.2914,71.0105)">
			<path id="path1367_00000079449897201538123430000015109040797133960586_" class="st2" d="M-280.8-24.9c2.6,2.5,6.7,2.5,9.3,0
				l6.2-6.1c2.6-2.5,2.6-6.7,0-9.2L-280.8-24.9z"/>
		</g>
		<g id="g1369_00000109010734989029807580000013848981148229844382_" transform="translate(437.0351,215.9674)">
			<path id="path1371_00000141419750505642704870000007088314718760547977_" class="st2" d="M-393.7-182.5l-8,8l0.9,0.9l5.4-4.7
				l2.6-3.3L-393.7-182.5z"/>
		</g>
		<g id="g1373_00000123429368054811176090000000226539397925180846_" transform="translate(355.7178,113.4369)">
			<path id="path1375_00000060745825264592448100000018209694384391877274_" class="st3" d="M-319.5-71.1l0.9,0.9l8-8l-0.9-0.9
				L-319.5-71.1z"/>
		</g>
	</g>
</g>
</svg>
