<?xml version="1.0" encoding="utf-8"?>
<!-- Generator: Adobe Illustrator 26.4.1, SVG Export Plug-In . SVG Version: 6.00 Build 0)  -->
<svg version="1.1" id="Capa_1" xmlns="http://www.w3.org/2000/svg" xmlns:xlink="http://www.w3.org/1999/xlink" x="0px" y="0px"
	 viewBox="0 0 60 60" style="enable-background:new 0 0 60 60;" xml:space="preserve">
<style type="text/css">
	.st0{fill:#1A1A1A;}
</style>
<path class="st0" d="M26.2,20.4c-0.1,0.8-0.1,1.6-0.1,2.5c0,1.4,0.2,2.7,0.5,4.1l-2.4,2.7c-0.5,0.5-0.4,1.3,0.2,1.8
	c0.2,0.2,0.6,0.3,0.9,0.3c0.4,0,0.8-0.2,1-0.4l2.4-2.7c0.6,0,1.2,0,1.7,0C43,28.2,52.9,18.4,52.6,6.7c0-1.6-0.3-3.2-0.7-4.7
	c-0.1-0.5-0.6-0.9-1.2-0.9C49.9,1,49.1,1,48.3,1c-6.1,0.2-11.7,2.5-15.9,6.6c-0.1,0.1-0.2,0.2-0.3,0.3c-2.9-3.5-7.2-5.6-12-5.7
	c-0.6,0-1.1,0-1.7,0c-0.6,0-1,0.4-1.2,0.9c-0.3,1.1-0.4,2.1-0.5,3.2C16.5,12.5,20.3,18,26.2,20.4z M33,10.8C33,10.7,33,10.7,33,10.8
	c0.4-0.5,0.9-1,1.3-1.4c3.7-3.6,8.7-5.7,14-5.9c0.4,0,0.8,0,1.2,0c0.2,1.1,0.4,2.2,0.4,3.3C50.2,16.9,41.8,25.4,31,26l9.8-10.9
	c0.5-0.5,0.4-1.3-0.2-1.8c-0.2-0.2-0.6-0.3-0.9-0.3c-0.4,0-0.8,0.2-1,0.4l-9.8,10.9c-0.1-0.5-0.1-1.1-0.1-1.6c0-1,0-2,0.2-3
	c0,0,0-0.1,0-0.1C29.4,16.5,30.8,13.4,33,10.8z M19.4,6.5c0-0.6,0.1-1.2,0.2-1.8c0.1,0,0.3,0,0.4,0c4.2,0.1,8,2,10.4,5.2
	c-1.8,2.4-3.1,5-3.7,7.9C22.1,15.7,19.2,11.4,19.4,6.5z M54,35.7c-0.3,5-2.7,10.8-6.5,15.4c-4,4.9-8.9,7.8-13.5,7.9
	c-1.2,0-2.1-0.3-3-0.6c-0.3-0.1-0.6-0.2-1-0.3c-0.3,0.1-0.7,0.2-1,0.3c-0.9,0.3-1.7,0.6-2.9,0.6c0,0-0.1,0-0.1,0
	c-4.6-0.1-9.5-3-13.5-7.9C8.8,46.5,6.3,40.7,6,35.7c-0.3-4.8,1.2-8.8,4.2-11.3c2.9-2.4,6.9-3.2,11.5-2.4c0.7,0.1,1.2,0.8,1.1,1.5
	c-0.1,0.7-0.8,1.1-1.6,1c-3.8-0.7-7,0-9.3,1.8c-2.4,2-3.6,5.3-3.3,9.3c0.3,4.5,2.5,9.8,5.9,14c3.5,4.3,7.7,6.9,11.4,6.9
	c0.7,0,1.3-0.2,2.1-0.4c0.4-0.1,1-0.3,1.5-0.5c0.2-0.1,0.4-0.1,0.7,0c0.6,0.1,1.1,0.3,1.5,0.5c0.8,0.3,1.4,0.4,2.1,0.4
	c3.7-0.1,7.9-2.6,11.4-6.9c3.4-4.2,5.6-9.5,5.9-14c0.2-3.5-1-6.8-3.4-9c-0.5-0.5-0.5-1.3,0-1.8c0.5-0.5,1.4-0.5,1.9,0
	C52.7,27.6,54.2,31.5,54,35.7z M25.8,51.2c0.7,0.2,1.2,0.8,1,1.5c-0.1,0.6-0.7,1-1.3,1c-0.1,0-0.2,0-0.3,0c-3-0.7-5.8-2.7-7.3-5.3
	c-0.3-0.6-0.1-1.4,0.5-1.7c0.6-0.3,1.5-0.1,1.8,0.5C21.4,49.1,23.5,50.7,25.8,51.2z"/>
</svg>
