<?xml version="1.0" encoding="utf-8"?>
<!-- Generator: Adobe Illustrator 26.4.1, SVG Export Plug-In . SVG Version: 6.00 Build 0)  -->
<svg version="1.1" id="Capa_1" xmlns="http://www.w3.org/2000/svg" xmlns:xlink="http://www.w3.org/1999/xlink" x="0px" y="0px"
	 viewBox="0 0 60 66" style="enable-background:new 0 0 60 66;" xml:space="preserve">
<style type="text/css">
	.st0{fill:#373869;}
</style>
<g>
	<path class="st0" d="M13.1,20.1c1,0,1.8-0.8,1.8-1.8c0-1-0.8-1.8-1.8-1.8c-1,0-1.8,0.8-1.8,1.8C11.3,19.3,12.1,20.1,13.1,20.1z"/>
	<path class="st0" d="M30,8.9c-4,0-7.9,1-11.3,2.8c-0.8,0.4-1.1,1.5-0.7,2.3c0.4,0.8,1.5,1.1,2.3,0.7c3-1.6,6.4-2.4,9.8-2.4
		c5,0,9.6,1.8,13.2,4.8l-4.6,4.6c-0.1-0.1-0.2-0.1-0.2-0.1c-0.4-0.2-0.8-0.2-1.2,0c-0.1,0.1-3,2-3,4.5c0,0,0,0.1,0,0.1l-1.4,1.3
		c-0.3,0-0.5,0.1-0.5,0.1c-0.4,0.1-0.7,0.4-0.8,0.8c0,0.1-0.1,0.3-0.1,0.6l-2.7,2.6c0-0.4-0.1-0.7-0.1-0.8c-0.1-0.3-0.2-0.5-0.5-0.7
		c1.1-1.8,0.6-4.3,0.5-4.6c-0.1-0.4-0.4-0.7-0.8-0.8c-0.1,0-1-0.2-2.1-0.2c0.2-0.4,0.3-0.9,0.3-1.3c0-2.5-2.7-4.3-3-4.5
		c-0.4-0.2-0.8-0.2-1.2,0c-0.3,0.2-3,2-3,4.5c0,0.4,0.1,0.9,0.3,1.3c-1.1-0.1-2.1,0.2-2.1,0.2c-0.4,0.1-0.7,0.4-0.8,0.8
		c-0.1,0.3-0.6,2.8,0.5,4.6c-0.2,0.2-0.4,0.4-0.5,0.7c0,0-0.6,2.8,0.5,4.7c-0.3,0.1-0.5,0.4-0.5,0.7c0,0-0.6,2.7,0.5,4.7
		c-0.3,0.2-0.4,0.4-0.5,0.7c0,0.1-0.3,1.4-0.1,2.9L14,46.2C11,42.6,9.3,38,9.3,33c0-2.5,0.4-4.9,1.3-7.2c0.3-0.9-0.1-1.8-1-2.2
		c-0.9-0.3-1.8,0.1-2.2,1c-1,2.7-1.5,5.5-1.5,8.4c0,13.3,10.8,24.1,24.1,24.1c13.3,0,24.1-10.8,24.1-24.1C54.1,19.7,43.3,8.9,30,8.9
		z M33.5,34.8c1-0.1,2.1,0,2.6,0.6c0.5,0.5,0.6,1.3,0.6,2v0.2c0,0.2,0,0.3,0,0.5c-1,0.1-2.1,0-2.6-0.6
		C33.5,36.9,33.4,35.8,33.5,34.8z M33.5,29.5c1-0.1,2.1,0,2.6,0.6c0.5,0.5,0.6,1.3,0.6,2v0.2c0,0.2,0,0.3,0,0.5
		c-1,0.1-2.1,0-2.6-0.6C33.5,31.6,33.4,30.5,33.5,29.5z M33.5,40.2c1-0.1,2.1,0,2.6,0.6c0.5,0.5,0.6,1.3,0.6,2V43c0,0.2,0,0.3,0,0.5
		c-1,0.1-2.1,0-2.6-0.6C33.5,42.3,33.4,41.2,33.5,40.2z M36.3,26c0-0.8,0.7-1.6,1.4-2.2c0.7,0.6,1.4,1.5,1.4,2.2
		c0,0.8-0.7,1.6-1.4,2.3C37.1,27.6,36.3,26.7,36.3,26z M38.9,32.7c0-0.1,0-0.2,0-0.3v-0.4c0-0.6,0.1-1.4,0.6-1.9
		c0.5-0.5,1.6-0.6,2.6-0.6c0.1,1,0,2.1-0.6,2.6C40.9,32.7,39.6,32.7,38.9,32.7z M38.9,38c0-0.1,0-0.2,0-0.3v-0.4
		c0-0.6,0.1-1.4,0.6-1.9c0.5-0.5,1.6-0.7,2.6-0.6c0.1,1,0,2.1-0.6,2.6C41,38,39.9,38.1,38.9,38z M38.9,42.7c0-0.6,0.1-1.4,0.6-1.9
		c0.5-0.5,1.7-0.7,2.6-0.6c0.1,0.7,0.1,2-0.6,2.6c-0.5,0.5-1.6,0.6-2.6,0.6c0-0.1,0-0.2,0-0.3V42.7z M20.8,23.1
		c0-0.8,0.7-1.6,1.4-2.2c0.7,0.6,1.4,1.5,1.4,2.2c0,0.9-0.9,1.8-1.4,2.2C21.5,24.7,20.8,23.9,20.8,23.1z M18.1,44.7
		c-0.2-0.6-0.3-1.3-0.2-2c0.9-0.1,2.1,0,2.6,0.6c0.5,0.5,0.6,1.3,0.6,2v0.2c0,0.2,0,0.3,0,0.5c-0.9,0.1-2.1,0-2.6-0.6
		c-0.1-0.1-0.2-0.3-0.3-0.5L18.1,44.7z M17.9,37.4c1-0.1,2.1,0,2.6,0.6c0.5,0.5,0.6,1.3,0.6,2v0.2c0,0.2,0,0.3,0,0.5
		c-0.9,0.1-2.1,0-2.6-0.6C17.9,39.5,17.8,38.3,17.9,37.4z M20.5,32.5c0.5,0.5,0.6,1.3,0.6,2v0.2c0,0.2,0,0.3,0,0.5
		c-1,0.1-2.1,0-2.6-0.6c-0.5-0.5-0.6-1.7-0.6-2.6C18.9,31.9,20,32,20.5,32.5z M21.1,29.4c0,0.2,0,0.3,0,0.5c-0.7,0.1-2,0.1-2.6-0.6
		c-0.5-0.5-0.6-1.7-0.6-2.6c1-0.1,2.1,0,2.6,0.6c0.5,0.5,0.6,1.3,0.6,2V29.4z M23.3,40.6c0-0.1,0-0.2,0-0.3v-0.4
		c0-0.6,0.1-1.4,0.6-1.9c0.5-0.5,1.7-0.7,2.6-0.6c0.1,1,0,2.1-0.6,2.6C25.4,40.5,24.3,40.6,23.3,40.6z M23.3,35.1c0-0.1,0-0.3,0-0.5
		v-0.2c0-0.6,0.1-1.5,0.6-2c0.5-0.5,1.7-0.6,2.6-0.6c0.1,1,0,2.1-0.6,2.6C25.4,35.1,24.3,35.2,23.3,35.1z M25.9,29.3
		c-0.5,0.5-1.6,0.6-2.6,0.6c0-0.1,0-0.3,0-0.5v-0.2c0-0.6,0.1-1.5,0.6-2c0.6-0.6,1.9-0.6,2.6-0.6C26.6,27.6,26.5,28.7,25.9,29.3z
		 M26.5,42.7c0.1,1,0,2.1-0.6,2.6c-0.5,0.5-1.7,0.7-2.6,0.6c0-0.1,0-0.2,0-0.3v-0.4c0-0.6,0.1-1.4,0.6-1.9
		C24.4,42.8,25.5,42.7,26.5,42.7z M21.1,48.1v3.6c-1.7-0.8-3.3-1.9-4.8-3.1l1.2-1.2C18.7,48.1,20.2,48.2,21.1,48.1z M23.3,52.6
		c0,0,0-0.1,0-0.1v-4.4c1.1,0.1,3,0,4.2-1.2c1.8-1.8,1.1-5.2,1.1-5.4c-0.1-0.3-0.3-0.6-0.5-0.7c1-1.6,0.7-3.8,0.5-4.5l3-2.9
		c0,0.1-0.1,0.1-0.1,0.2c0,0-0.6,2.8,0.5,4.7c-0.3,0.2-0.5,0.4-0.5,0.7c0,0.1-0.8,3.5,1.1,5.4c1.2,1.2,3,1.3,4.2,1.2v7
		c-2.1,0.7-4.3,1.1-6.7,1.1C27.6,53.7,25.4,53.3,23.3,52.6z M38.9,51.7v-6.1c1.1,0.1,3,0,4.2-1.2c1.8-1.8,1.1-5.2,1.1-5.4
		c-0.1-0.3-0.3-0.6-0.5-0.7c1.1-1.9,0.6-4.6,0.5-4.7c-0.1-0.3-0.2-0.5-0.5-0.7c1.1-1.8,0.6-4.3,0.5-4.6c-0.1-0.4-0.4-0.7-0.8-0.8
		c0,0-1-0.2-2.1-0.2c0.2-0.4,0.3-0.9,0.3-1.3c0-0.7-0.2-1.3-0.5-1.8l4.7-4.8c3.2,3.6,5.1,8.4,5.1,13.6
		C50.7,41.3,45.9,48.4,38.9,51.7z"/>
</g>
</svg>
