<?xml version="1.0" encoding="utf-8"?>
<!-- Generator: Adobe Illustrator 26.4.1, SVG Export Plug-In . SVG Version: 6.00 Build 0)  -->
<svg version="1.1" id="Capa_1" xmlns="http://www.w3.org/2000/svg" xmlns:xlink="http://www.w3.org/1999/xlink" x="0px" y="0px"
	 viewBox="0 0 60 66" style="enable-background:new 0 0 60 66;" xml:space="preserve">
<style type="text/css">
	.st0{fill:#363769;}
	.st1{fill:#373769;}
</style>
<g>
	<g>
		<path class="st0" d="M24,41.1h-7.4c-2.9,0-5.3,2.4-5.3,5.3s2.4,5.3,5.3,5.3H24c2.9,0,5.3-2.4,5.3-5.3S26.9,41.1,24,41.1z M24,50
			h-7.4c-2,0-3.6-1.6-3.6-3.6c0-2,1.6-3.6,3.6-3.6H24c2,0,3.6,1.6,3.6,3.6C27.6,48.4,26,50,24,50z"/>
		<rect x="15.7" y="45.6" class="st0" width="9.1" height="1.7"/>
		<path class="st0" d="M43.4,32.2c-1.4,0-2.7,0.5-3.8,1.6L34.4,39c-1,1-1.6,2.3-1.6,3.8c0,1.4,0.6,2.8,1.6,3.8c1,1,2.3,1.6,3.8,1.6
			c1.4,0,2.7-0.6,3.8-1.6l5.2-5.3c2.1-2.1,2.1-5.4,0-7.5C46.1,32.7,44.8,32.2,43.4,32.2z M46,40.1l-5.2,5.3
			c-0.7,0.7-1.6,1.1-2.5,1.1c-1,0-1.9-0.4-2.5-1.1c-0.7-0.7-1.1-1.6-1.1-2.5c0-1,0.4-1.9,1.1-2.5l5.2-5.3c0.7-0.7,1.6-1.1,2.5-1.1
			c1,0,1.9,0.4,2.5,1.1C47.4,36.4,47.4,38.7,46,40.1z"/>
		<polygon class="st0" points="37,42.8 38.2,44 44.6,37.5 43.4,36.3 		"/>
		<path class="st0" d="M25.6,27.4l-5.2-5.3c-2.1-2.1-5.4-2.1-7.5,0c-2.1,2.1-2.1,5.4,0,7.5l5.2,5.3c1,1,2.3,1.6,3.8,1.6
			c1.4,0,2.7-0.6,3.8-1.6c1-1,1.6-2.3,1.6-3.8S26.6,28.5,25.6,27.4z M24.4,33.8c-0.7,0.7-1.6,1.1-2.5,1.1c-1,0-1.9-0.4-2.5-1.1
			L14,28.5c-0.7-0.7-1.1-1.6-1.1-2.5c0-1,0.4-1.9,1.1-2.5c0.7-0.7,1.6-1.1,2.5-1.1s1.9,0.4,2.5,1.1l5.2,5.3c0.7,0.7,1.1,1.6,1.1,2.5
			C25.4,32.2,25,33.1,24.4,33.8z"/>
		<polygon class="st0" points="15.4,25.9 21.8,32.4 23,31.2 16.6,24.7 		"/>
		<path class="st0" d="M28.9,23.3l5.2,5.3c1,1,2.3,1.6,3.8,1.6c1.4,0,2.8-0.6,3.8-1.6c2.1-2.1,2.1-5.4,0-7.5l-5.2-5.3
			c-1-1-2.3-1.6-3.8-1.6c-1.4,0-2.7,0.6-3.8,1.6c-1,1-1.6,2.3-1.6,3.8S27.9,22.3,28.9,23.3z M30.1,17c0.7-0.7,1.6-1.1,2.5-1.1
			c1,0,1.9,0.4,2.5,1.1l5.2,5.3c1.4,1.4,1.4,3.7,0,5.1c-0.7,0.7-1.6,1.1-2.5,1.1c-0.9,0-1.8-0.4-2.5-1.1l-5.2-5.3
			C28.7,20.7,28.7,18.4,30.1,17z"/>
		<polygon class="st0" points="31.4,19.6 37.9,26 39.1,24.8 32.6,18.3 		"/>
	</g>
	<path class="st1" d="M30,66c-1.9,0-3.8-0.5-5.5-1.5l-18.9-11C2.1,51.6,0,47.9,0,44V22c0-3.9,2.1-7.6,5.5-9.6l18.9-11
		c3.4-2,7.7-2,11.1,0l18.9,11c3.4,2,5.5,5.7,5.5,9.6V44c0,3.9-2.1,7.6-5.5,9.6l-18.9,11C33.8,65.5,31.9,66,30,66z M30,1.5
		c-1.7,0-3.3,0.4-4.8,1.3l-18.9,11c-3,1.7-4.8,4.9-4.8,8.3V44c0,3.4,1.8,6.6,4.8,8.3l18.9,11c3,1.7,6.6,1.7,9.6,0l18.9-11
		c3-1.7,4.8-4.9,4.8-8.3V22c0-3.4-1.8-6.6-4.8-8.3l-18.9-11C33.3,1.9,31.7,1.5,30,1.5z"/>
</g>
</svg>
