<?xml version="1.0" encoding="utf-8"?>
<!-- Generator: Adobe Illustrator 26.4.1, SVG Export Plug-In . SVG Version: 6.00 Build 0)  -->
<svg version="1.1" id="Capa_1" xmlns="http://www.w3.org/2000/svg" xmlns:xlink="http://www.w3.org/1999/xlink" x="0px" y="0px"
	 viewBox="0 0 55 60" style="enable-background:new 0 0 55 60;" xml:space="preserve">
<style type="text/css">
	.st0{fill:#FCD354;}
	.st1{fill:#FDD7AD;}
	.st2{fill:#FB7B76;}
	.st3{fill:#805333;}
	.st4{fill:#A56A43;}
	.st5{fill:#DF4D60;}
	.st6{fill:#F5EFCA;}
</style>
<g>
	<path class="st0" d="M50.1,48.5L32.4,58.7c-3,1.7-6.7,1.7-9.7,0L4.9,48.5c-3-1.7-4.9-4.9-4.9-8.3V19.8c0-3.4,1.8-6.6,4.9-8.3
		L22.6,1.3c3-1.7,6.7-1.7,9.7,0l17.8,10.2c3,1.7,4.9,4.9,4.9,8.3v20.4C55,43.6,53.2,46.8,50.1,48.5z"/>
	<g id="_x30_19---Skin-Layers_00000142886846424864274780000011123921367214713277_">
		<path id="Shape_00000181084091078599310480000010624151263224246684_" class="st1" d="M54.1,34.3H55v-7.2H0v7.2h0.9H54.1z"/>
		<path class="st2" d="M0,34.1v6.1c0,3.4,1.8,6.6,4.9,8.3l2,1.1c2.2,0.3,4.4,0.5,6.6,0.4c11.2,0,16.7-3.7,29.3-3.8
			c3,0,6.3,0.2,9.6,0.5C54,45,55,42.7,55,40.2v-6.1H0z"/>
		<path id="Shape_00000158013930667511619640000011724913530672322472_" class="st3" d="M33.2,5.9c0,0-1.3,4.6-1.4,30.6
			c0,1.8-1.8,3.3-4.1,3.3c-2.2,0-4-1.4-4.1-3.1v-1.3C24.1,9.5,33.2,5.9,33.2,5.9z"/>
		<path id="Shape_00000176045693607755895410000016905696998846491316_" class="st4" d="M18,11.2c0,0-0.8,2.2-0.8,17.8
			c-0.1,1.2-1.2,2.1-2.4,2c-0.6,0.1-1.2-0.1-1.7-0.5c-0.5-0.4-0.7-1-0.8-1.6C12.9,13.4,18,11.2,18,11.2L18,11.2z"/>
		<path id="Shape_00000062898941034737588650000016769434030986930821_" class="st4" d="M45.5,11.2c0,0-0.8,2.2-0.8,17.8
			c-0.1,1.2-1.2,2.1-2.4,2c-0.6,0.1-1.2-0.1-1.7-0.5c-0.5-0.4-0.7-1-0.8-1.6C40.4,13.4,45.5,11.2,45.5,11.2z"/>
		<g>
			<ellipse id="Oval_00000039126183780784601780000016601332903956898495_" class="st5" cx="4.7" cy="37.9" rx="0.9" ry="0.9"/>
			<ellipse id="Oval_00000135670976275641330580000017254963368472247220_" class="st5" cx="8.5" cy="37.9" rx="0.9" ry="0.9"/>
			<ellipse id="Oval_00000114045050134501511760000012530706132273365693_" class="st5" cx="12.3" cy="37.9" rx="0.9" ry="0.9"/>
			<ellipse id="Oval_00000098939766740017765860000001306460781302932098_" class="st5" cx="16.1" cy="37.9" rx="0.9" ry="0.9"/>
			<ellipse id="Oval_00000027596461349944959310000012205921550423007647_" class="st5" cx="19.9" cy="37.9" rx="0.9" ry="0.9"/>
			<ellipse id="Oval_00000015346452509970120530000006277697221671163316_" class="st5" cx="18" cy="40.7" rx="0.9" ry="0.9"/>
			<ellipse id="Oval_00000177452618838945458390000008568450981763258240_" class="st5" cx="14.2" cy="40.7" rx="0.9" ry="0.9"/>
			<ellipse id="Oval_00000115480154931947052640000008072473189605108124_" class="st5" cx="10.4" cy="40.7" rx="0.9" ry="0.9"/>
			<ellipse id="Oval_00000068658035588477137150000002556658787699926658_" class="st5" cx="6.6" cy="40.7" rx="0.9" ry="0.9"/>
			<ellipse id="Oval_00000156552032565917985850000010761969116969996462_" class="st5" cx="4.7" cy="43.5" rx="0.9" ry="0.9"/>
			<ellipse id="Oval_00000153700355917582350160000009366907732168984767_" class="st5" cx="8.5" cy="43.5" rx="0.9" ry="0.9"/>
			<ellipse id="Oval_00000183935272176664238220000006931745300305581722_" class="st5" cx="12.3" cy="43.5" rx="0.9" ry="0.9"/>
			<ellipse id="Oval_00000180361795328396124180000002920395266256224669_" class="st5" cx="16.1" cy="43.5" rx="0.9" ry="0.9"/>
			<ellipse id="Oval_00000183224804561344576430000014164656411498703763_" class="st5" cx="6.6" cy="46.3" rx="0.9" ry="0.9"/>
			<ellipse id="Oval_00000103256414980780580770000004213781095700793223_" class="st5" cx="10.4" cy="46.3" rx="0.9" ry="0.9"/>
			<ellipse id="Oval_00000115513404294201917470000012707628361288868282_" class="st5" cx="14.2" cy="46.3" rx="0.9" ry="0.9"/>
			<ellipse id="Oval_00000036244193006928779060000006305675418105741244_" class="st5" cx="18" cy="46.3" rx="0.9" ry="0.9"/>
			<ellipse id="Oval_00000140012631463683954950000015002899970481628289_" class="st5" cx="21.8" cy="46.3" rx="0.9" ry="0.9"/>
			<ellipse id="Oval_00000110451599071992699060000000729858616417218689_" class="st5" cx="19.9" cy="43.5" rx="0.9" ry="0.9"/>
			<ellipse id="Oval_00000075855514453760204370000003541233101335949237_" class="st5" cx="21.8" cy="40.7" rx="0.9" ry="0.9"/>
			<ellipse id="Oval_00000081608310780583763330000016739309730287255425_" class="st5" cx="23.7" cy="43.5" rx="0.9" ry="0.9"/>
			<ellipse id="Oval_00000005979959345252525810000010486649320452581792_" class="st5" cx="27.5" cy="43.5" rx="0.9" ry="0.9"/>
			<ellipse id="Oval_00000127745619438828774600000000293834136763448463_" class="st5" cx="31.3" cy="43.5" rx="0.9" ry="0.9"/>
			<ellipse id="Oval_00000160888164767971195240000018386217648909481107_" class="st5" cx="50.3" cy="37.9" rx="0.9" ry="0.9"/>
			<ellipse id="Oval_00000165218571231314683000000009099818327825696956_" class="st5" cx="46.5" cy="37.9" rx="0.9" ry="0.9"/>
			<ellipse id="Oval_00000071543877341693197140000005469484756513206189_" class="st5" cx="42.7" cy="37.9" rx="0.9" ry="0.9"/>
			<ellipse id="Oval_00000069377402849043007160000007876423940753171865_" class="st5" cx="38.9" cy="37.9" rx="0.9" ry="0.9"/>
			<ellipse id="Oval_00000010284559764073553180000018259070348537282438_" class="st5" cx="35.1" cy="37.9" rx="0.9" ry="0.9"/>
			<ellipse id="Oval_00000024720423557485765140000004558164889467044286_" class="st5" cx="37" cy="40.7" rx="0.9" ry="0.9"/>
			<ellipse id="Oval_00000164492887841637937610000000435999752910258856_" class="st5" cx="40.8" cy="40.7" rx="0.9" ry="0.9"/>
			<ellipse id="Oval_00000028297811614873700400000001530156482046211772_" class="st5" cx="44.6" cy="40.7" rx="0.9" ry="0.9"/>
			<ellipse id="Oval_00000026152832868068147910000017412335948473026743_" class="st5" cx="48.4" cy="40.7" rx="0.9" ry="0.9"/>
			<ellipse id="Oval_00000088820306243051769310000011853985251911756186_" class="st5" cx="35.1" cy="43.5" rx="0.9" ry="0.9"/>
			<ellipse id="Oval_00000044143542269185011500000002558731188118600619_" class="st5" cx="38.9" cy="43.5" rx="0.9" ry="0.9"/>
			<ellipse id="Oval_00000155107328676496270330000003046990562772469400_" class="st5" cx="42.7" cy="43.5" rx="0.9" ry="0.9"/>
			<ellipse id="Oval_00000118378638531038503810000011166463898003688355_" class="st5" cx="46.5" cy="43.5" rx="0.9" ry="0.9"/>
			<ellipse id="Oval_00000065032630598788276040000005103977265713391762_" class="st5" cx="50.3" cy="43.5" rx="0.9" ry="0.9"/>
			<ellipse id="Oval_00000054987701107705382900000012378220532837473466_" class="st5" cx="33.2" cy="40.7" rx="0.9" ry="0.9"/>
		</g>
		<path id="Shape_00000004514407342813612600000011025458650992416395_" class="st6" d="M39.8,50.5h-1.9c-0.5,0-0.9-0.4-0.9-0.9
			c0-0.5,0.4-0.9,0.9-0.9h1.9c0.5,0,0.9,0.4,0.9,0.9C40.8,50.1,40.4,50.5,39.8,50.5z"/>
		<path id="Shape_00000173842723544520246440000005928519050419166104_" class="st6" d="M34.1,50.5h-1.9c-0.5,0-0.9-0.4-0.9-0.9
			c0-0.5,0.4-0.9,0.9-0.9h1.9c0.5,0,0.9,0.4,0.9,0.9C35.1,50.1,34.7,50.5,34.1,50.5z"/>
		<path id="Shape_00000144318467735130781150000005061483445938722483_" class="st6" d="M37,53.3h-1.9c-0.5,0-0.9-0.4-0.9-0.9
			s0.4-0.9,0.9-0.9H37c0.5,0,0.9,0.4,0.9,0.9S37.5,53.3,37,53.3z"/>
		<path id="Shape_00000147912207477667844560000008155740260715210925_" class="st6" d="M31.3,53.3h-1.9c-0.5,0-0.9-0.4-0.9-0.9
			s0.4-0.9,0.9-0.9h1.9c0.5,0,0.9,0.4,0.9,0.9S31.8,53.3,31.3,53.3z"/>
		<path id="Shape_00000121976738721167253770000007642105889723548293_" class="st6" d="M25.6,53.3h-1.9c-0.5,0-0.9-0.4-0.9-0.9
			s0.4-0.9,0.9-0.9h1.9c0.5,0,0.9,0.4,0.9,0.9S26.1,53.3,25.6,53.3z"/>
		<path id="Shape_00000083802856985066902870000004577188008724402865_" class="st6" d="M19.9,53.3H18c-0.5,0-0.9-0.4-0.9-0.9
			s0.4-0.9,0.9-0.9h1.9c0.5,0,0.9,0.4,0.9,0.9S20.4,53.3,19.9,53.3z"/>
	</g>
</g>
</svg>
