<?xml version="1.0" encoding="utf-8"?>
<!-- Generator: Adobe Illustrator 26.4.1, SVG Export Plug-In . SVG Version: 6.00 Build 0)  -->
<svg version="1.1" id="Capa_1" xmlns="http://www.w3.org/2000/svg" xmlns:xlink="http://www.w3.org/1999/xlink" x="0px" y="0px"
	 viewBox="0 0 55 60" style="enable-background:new 0 0 55 60;" xml:space="preserve">
<style type="text/css">
	.st0{fill:#484B7F;}
	.st1{fill:#FFD15B;}
	.st2{fill:#FFC344;}
	.st3{fill:#FE646F;}
	.st4{fill:#FD4755;}
</style>
<g>
	<path class="st0" d="M50.1,48.5L32.4,58.7c-3,1.7-6.7,1.7-9.7,0L4.9,48.5c-3-1.7-4.9-4.9-4.9-8.3V19.8c0-3.4,1.8-6.6,4.9-8.3
		L22.6,1.3c3-1.7,6.7-1.7,9.7,0l17.8,10.2c3,1.7,4.9,4.9,4.9,8.3v20.4C55,43.6,53.2,46.8,50.1,48.5z"/>
	<g>
		<path class="st1" d="M20.5,33.9h3.4v14.7h-3.4V33.9z"/>
		<path class="st2" d="M20.5,33.9h1.3v14.7h-1.3V33.9z"/>
		<path class="st2" d="M20.4,17.8h4.7v19h-4.7V17.8z"/>
		<g>
			<path class="st1" d="M22.7,28.8v-5.1c0-2.6-2.1-4.7-4.7-4.7h-1v5.1c0,2.6,2.1,4.7,4.7,4.7H22.7z"/>
			<path class="st2" d="M22.7,28.7v0.1h-1c-2.6,0-4.7-2.1-4.7-4.7V19h1c0.4,0,0.7,0,1.1,0.1v5C19.1,26.4,20.6,28.2,22.7,28.7z"/>
		</g>
		<g>
			<path class="st1" d="M21.7,28.8v-5.1c0-2.6,2.1-4.7,4.7-4.7h1v5.1c0,2.6-2.1,4.7-4.7,4.7H21.7z"/>
		</g>
		<g>
			<path class="st2" d="M27.5,19L27.5,19c-2.2,0.5-3.8,2.4-3.8,4.7v5.1c-0.3,0.1-0.6,0.1-0.9,0.1h-1v-5.1c0-1.2,0.5-2.4,1.3-3.2
				c0.2-0.2,0.3-1,0.6-1.2c0.5-0.4,1.2,0,1.9-0.1c0.3-0.1,0.7-0.1,1-0.1H27.5z"/>
		</g>
		<g>
			<g>
				<path class="st1" d="M22.7,39v-6.1c0-3.1-2.5-5.6-5.6-5.6h-1.2v6.1c0,3.1,2.5,5.6,5.6,5.6H22.7z"/>
				<path class="st2" d="M22.7,38.8V39h-1.2c-3.1,0-5.6-2.5-5.6-5.6v-6.1h1.2c0.4,0,0.9,0,1.3,0.1v6C18.4,36.1,20.2,38.3,22.7,38.8
					L22.7,38.8z"/>
			</g>
			<g>
				<path class="st1" d="M21.7,39v-6.1c0-3.1,2.5-5.6,5.6-5.6h1.2v6.1c0,3.1-2.5,5.6-5.6,5.6H21.7z"/>
			</g>
		</g>
		<g>
			<path class="st2" d="M28.6,27.3L28.6,27.3c-2.8,0.3-5,2.7-5,5.6v6.1c-0.2,0-0.4,0-0.6,0h-1.2v-6.1c0-3.1,2.5-5.6,5.6-5.6H28.6z"
				/>
		</g>
		<path class="st1" d="M31.9,33.9h3.4v14.7h-3.4V33.9z"/>
		<path class="st2" d="M31.9,33.9h1.3v14.7h-1.3V33.9z"/>
		<path class="st2" d="M31.8,17.8h4.7v19h-4.7V17.8z"/>
		<g>
			<path class="st1" d="M34.1,20.5v-4.1c0-2-1.7-3.7-3.7-3.7h-0.8v4.1c0,2,1.7,3.7,3.7,3.7H34.1z"/>
			<path class="st2" d="M34.1,20.4L34.1,20.4l-0.8,0.1c-2.1,0-3.7-1.7-3.7-3.7v-4.1h0.8c0.3,0,0.6,0,0.8,0.1v4
				C31.2,18.6,32.4,20,34.1,20.4L34.1,20.4z"/>
		</g>
		<g>
			<path class="st1" d="M34.1,28.8v-5.1c0-2.6-2.1-4.7-4.7-4.7h-1v5.1c0,2.6,2.1,4.7,4.7,4.7H34.1z"/>
			<path class="st2" d="M34.1,28.7v0.1h-1c-2.6,0-4.7-2.1-4.7-4.7V19h1c0.4,0,0.7,0,1.1,0.1v5C30.4,26.4,32,28.2,34.1,28.7z"/>
		</g>
		<g>
			<path class="st1" d="M33.1,20.5v-4.1c0-2,1.7-3.7,3.7-3.7h0.8v4.1c0,2-1.7,3.7-3.7,3.7H33.1z"/>
		</g>
		<g>
			<path class="st2" d="M37.6,12.7L37.6,12.7c-1.9,0.1-3.5,1.7-3.5,3.7v4c-0.1,0-0.2,0-0.3,0h-0.8v-4.1c0-2,1.7-3.7,3.7-3.7H37.6z"
				/>
		</g>
		<g>
			<path class="st1" d="M33.1,28.8v-5.1c0-2.6,2.1-4.7,4.7-4.7h1v5.1c0,2.6-2.1,4.7-4.7,4.7H33.1z"/>
		</g>
		<g>
			<path class="st2" d="M38.8,19L38.8,19c-2.2,0.5-3.8,2.4-3.8,4.7v5.1c-0.3,0.1-0.6,0.1-0.9,0.1h-1v-5.1c0-2.6,2.1-4.7,4.7-4.7
				H38.8z"/>
		</g>
		<g>
			<g>
				<path class="st1" d="M34.1,39v-6.1c0-3.1-2.5-5.6-5.6-5.6h-1.2v6.1c0,3.1,2.5,5.6,5.6,5.6H34.1z"/>
				<path class="st2" d="M34.1,38.8V39h-1.2c-3.1,0-5.6-2.5-5.6-5.6v-6.1h1.2c0.4,0,0.9,0,1.3,0.1v6C29.7,36.1,31.6,38.3,34.1,38.8
					L34.1,38.8z"/>
			</g>
			<g>
				<path class="st1" d="M33.1,39v-6.1c0-3.1,2.5-5.6,5.6-5.6h1.2v6.1c0,3.1-2.5,5.6-5.6,5.6H33.1z"/>
			</g>
		</g>
		<g>
			<path class="st2" d="M39.9,27.3L39.9,27.3c-2.8,0.3-5,2.7-5,5.6v6.1c-0.2,0-0.4,0-0.6,0h-1.2v-6.1c0-3.1,2.5-5.6,5.6-5.6H39.9z"
				/>
		</g>
		<path class="st3" d="M48.8,30c0-11.6-9.5-21.1-21.3-21.1C15.8,8.9,6.2,18.4,6.2,30s9.5,21.1,21.3,21.1
			C39.2,51.1,48.8,41.6,48.8,30z M27.5,47.4c-3.9,0-7.5-1.3-10.4-3.4l24.5-24.3C43.8,22.6,45,26.1,45,30
			C45,39.6,37.2,47.4,27.5,47.4z M27.5,12.6c4.1,0,7.9,1.4,10.9,3.8L13.8,40.8c-2.4-3-3.8-6.7-3.8-10.8C10,20.4,17.8,12.6,27.5,12.6
			L27.5,12.6z"/>
		<path class="st4" d="M32.3,28.7c0,0,0.1,0.1,0.1,0.1l0.1-0.1C32.4,28.8,32.3,28.8,32.3,28.7z M37.8,19c-1.8,0-3.4,1.1-4.2,2.6
			c0-0.1-0.1-0.2-0.2-0.3l-16,15.9c1,1.1,2.5,1.8,4.1,1.8h0.7l10.2-10.1l0.1-0.1l6.4-6.3V19H37.8z"/>
		<g>
			<path class="st4" d="M7.9,30C7.9,18.6,17,9.4,28.3,8.9c-0.3,0-0.6,0-0.8,0C15.8,8.9,6.2,18.4,6.2,30s9.5,21.1,21.3,21.1
				c0.3,0,0.6,0,0.8,0C17,50.6,7.9,41.4,7.9,30z"/>
		</g>
		<g>
			<path class="st1" d="M22.7,20.5v-4.1c0-2-1.7-3.7-3.7-3.7h-0.8v4.1c0,0.9,0.3,1.7,0.9,2.4c0.3,0.3,0.6,0.6,1,0.8
				c0.6,0.3,1.2,0.5,1.9,0.5H22.7z"/>
			<path class="st2" d="M22.7,20.4L22.7,20.4l-0.8,0.1c-0.2,0-0.3,0-0.5,0c-0.6-0.7-1.5-1.2-2.4-1.4c-0.5-0.6-0.8-1.4-0.8-2.3v-4.1
				H19c0.3,0,0.6,0,0.8,0.1v4C19.8,18.6,21.1,20,22.7,20.4L22.7,20.4z"/>
		</g>
		<g>
			<path class="st1" d="M26.3,12.7v4.1c0,0.9-0.3,1.7-0.8,2.3c-0.9,0.2-1.8,0.7-2.4,1.4c-0.2,0-0.3,0-0.5,0h-0.8v-4.1
				c0-2,1.7-3.7,3.7-3.7L26.3,12.7z"/>
		</g>
		<g>
			<path class="st2" d="M26.3,12.7L26.3,12.7c-1.9,0.1-3.5,1.7-3.5,3.7v4c-0.1,0-0.2,0-0.3,0h-0.8v-4.1c0-2,1.7-3.7,3.7-3.7H26.3z"
				/>
		</g>
	</g>
</g>
</svg>
