<?xml version="1.0" encoding="utf-8"?>
<!-- Generator: Adobe Illustrator 26.4.1, SVG Export Plug-In . SVG Version: 6.00 Build 0)  -->
<svg version="1.1" id="Capa_1" xmlns="http://www.w3.org/2000/svg" xmlns:xlink="http://www.w3.org/1999/xlink" x="0px" y="0px"
	 viewBox="0 0 55 60" style="enable-background:new 0 0 55 60;" xml:space="preserve">
<style type="text/css">
	.st0{fill:#FF5368;}
	.st1{fill:#CFDFE8;}
	.st2{fill:#8B97A3;}
	.st3{fill:#FFFFFF;}
	.st4{fill:#AABECE;}
	.st5{fill:#87CEE9;}
</style>
<g>
	<path class="st0" d="M50.1,48.5L32.4,58.7c-3,1.7-6.7,1.7-9.7,0L4.9,48.5c-3-1.7-4.9-4.9-4.9-8.3V19.8c0-3.4,1.8-6.6,4.9-8.3
		L22.6,1.3c3-1.7,6.7-1.7,9.7,0l17.8,10.2c3,1.7,4.9,4.9,4.9,8.3v20.4C55,43.6,53.2,46.8,50.1,48.5z"/>
	<g>
		<g>
			<path class="st1" d="M38,20.9H26.6v0c-3.6,0.1-9.1,4.2-12.4,7c-0.7-1.9-2.4-3.1-4.2-3.1H6.5c0,2.6,1,4.7,3.5,4.7
				c-2.5,0-3.5,2.1-3.5,4.7H10c1.5,0,2.8-0.7,3.7-2c3.2,2.7,9.2,7.3,12.9,7.4v0H38c4.6,0,10.6-9.4,10.6-9.4S42.5,20.9,38,20.9z"/>
			<path class="st2" d="M38,20.9h-1c-2.2,2.6-3.3,5.9-3.3,9.4c-0.1,3.4,1.1,6.8,3.3,9.4h1c4.6,0,10.6-9.4,10.6-9.4
				S42.5,20.9,38,20.9z"/>
			<path class="st2" d="M31.3,39.2c-4.1-7.3-0.9-13-0.7-13.2c0.2-0.4,0.1-0.8-0.2-1.1c-0.3-0.2-0.8-0.1-1,0.3
				c-0.6,1.1-1,2.3-1.3,3.6c-0.1,0-0.2,0-0.3,0h-3c-1.2,0-2.2,1-2.2,2.3s1,2.3,2.2,2.3h3c0,0,0.1,0,0.1,0c0.3,2.4,1,4.6,2.2,6.7
				c0.2,0.4,0.7,0.5,1,0.3C31.4,40.1,31.5,39.6,31.3,39.2z"/>
			<path class="st3" d="M41.8,29.5c-0.4,0-0.7-0.3-0.7-0.8v-1.6c0-0.4,0.3-0.8,0.7-0.8c0.4,0,0.7,0.3,0.7,0.8v1.6
				C42.6,29.1,42.3,29.5,41.8,29.5z"/>
			<g>
				<path class="st4" d="M30.7,45.9h-5.9c0-3.4,2.7-6.2,5.9-6.2h5.9C36.6,43.1,34,45.9,30.7,45.9z"/>
				<path class="st4" d="M25.2,39.4c-2.1-0.5-4.7-2-7-3.7c-1.9,1.1-3.1,3.2-3.1,5.5h5.9C22.6,41.2,24.1,40.6,25.2,39.4z"/>
				<path class="st4" d="M24.8,14.6h5.9c3.3,0,5.9,2.8,5.9,6.2h-5.9C27.4,20.9,24.8,18.1,24.8,14.6z"/>
			</g>
			<path class="st1" d="M33.7,21.7c-0.3,0-0.6-0.2-0.7-0.6c0-0.1-0.7-2.5-3-2.5c-0.4,0-0.7-0.3-0.7-0.8S29.6,17,30,17
				c2.1,0,3.9,1.6,4.4,3.7c0.1,0.4-0.1,0.8-0.5,0.9C33.8,21.7,33.7,21.7,33.7,21.7z"/>
			<path class="st1" d="M29.2,43.5c-0.4,0-0.7-0.3-0.7-0.8s0.3-0.8,0.7-0.8c2.9,0,3-2.2,3-2.3c0-0.4,0.3-0.8,0.7-0.8
				c0.4,0,0.7,0.3,0.7,0.8C33.7,41,32.7,43.5,29.2,43.5z"/>
		</g>
		<path class="st5" d="M48.5,19.7c0,1.1-0.9,2-2,2c-1.1,0-2-0.9-2-2s0.9-2,2-2C47.6,17.8,48.5,18.6,48.5,19.7z"/>
		<path class="st5" d="M45.4,13.1c0,1.3-1.1,2.3-2.4,2.3c-1.3,0-2.4-1-2.4-2.3s1.1-2.3,2.4-2.3C44.3,10.7,45.4,11.8,45.4,13.1z"/>
	</g>
</g>
</svg>
