<?xml version="1.0" encoding="utf-8"?>
<!-- Generator: Adobe Illustrator 26.4.1, SVG Export Plug-In . SVG Version: 6.00 Build 0)  -->
<svg version="1.1" id="Capa_1" xmlns="http://www.w3.org/2000/svg" xmlns:xlink="http://www.w3.org/1999/xlink" x="0px" y="0px"
	 viewBox="0 0 55 60" style="enable-background:new 0 0 55 60;" xml:space="preserve">
<style type="text/css">
	.st0{fill:#494B7F;}
	.st1{fill:#4296D0;}
	.st2{fill:#3D8BC6;}
	.st3{fill:#F9B532;}
	.st4{fill:#E3E4E3;}
	.st5{fill:#DD4C3C;}
	.st6{fill:#CECECD;}
	.st7{fill:#3F7EB8;}
</style>
<g>
	<path class="st0" d="M50.1,48.5L32.4,58.7c-3,1.7-6.7,1.7-9.7,0L4.9,48.5c-3-1.7-4.9-4.9-4.9-8.3V19.8c0-3.4,1.8-6.6,4.9-8.3
		L22.6,1.3c3-1.7,6.7-1.7,9.7,0l17.8,10.2c3,1.7,4.9,4.9,4.9,8.3v20.4C55,43.6,53.2,46.8,50.1,48.5z"/>
	<g>
		<path class="st1" d="M4.9,48.5l17.8,10.2c3,1.7,6.7,1.7,9.7,0l17.8-10.2c0.5-0.3,1-0.7,1.5-1.1V13.1c0-2.7-2.2-4.9-5-4.9H17.5v0
			H8.4c-2.8,0-5,2.2-5,4.9v34.3C3.8,47.8,4.3,48.2,4.9,48.5z"/>
		<path class="st2" d="M22.6,58.7c3,1.7,6.7,1.7,9.7,0l17.8-10.2c0.5-0.3,1-0.7,1.5-1.1V13.1c0-2.7-2.2-4.9-5-4.9h-2
			c-4.3,11.9-12.3,35-26.1,48.2L22.6,58.7z"/>
		<path class="st3" d="M37.5,8.2c-5.5-5.5-14.5-5.5-20,0s-5.5,14.4,0,19.8s14.5,5.5,20,0c2.7-2.6,4.1-6.2,4.1-9.9
			C41.6,14.4,40.1,10.8,37.5,8.2z"/>
		<ellipse class="st4" cx="27.5" cy="18.1" rx="10.8" ry="10.7"/>
		<path class="st5" d="M28.3,15.8v-3.4h-1.7v3.4c-1.3,0.5-2,1.9-1.5,3.2c0.5,1.3,1.9,2,3.2,1.5c1.3-0.5,2-1.9,1.5-3.2
			C29.6,16.6,29,16,28.3,15.8z"/>
		<g>
			<rect x="26.7" y="25.5" class="st6" width="1.7" height="3.3"/>
			<rect x="26.7" y="7.4" class="st6" width="1.7" height="3.3"/>
			<rect x="35" y="17.3" class="st6" width="3.3" height="1.6"/>
			<rect x="16.7" y="17.3" class="st6" width="3.3" height="1.6"/>
			<polygon class="st6" points="35.7,25.1 34.6,26.3 32.2,23.9 33.4,22.8 			"/>
			<polygon class="st6" points="22.8,12.3 21.6,13.4 19.3,11.1 20.4,9.9 			"/>
			<polygon class="st6" points="35.7,11.1 33.4,13.4 32.2,12.3 34.6,9.9 			"/>
			<polygon class="st6" points="22.8,23.9 20.4,26.3 19.3,25.1 21.6,22.8 			"/>
		</g>
		<g>
			<path class="st7" d="M21.3,37.1c-0.7,0-1.2-0.6-1.2-1.2c0-0.7,0.6-1.2,1.2-1.2c0.7,0,1.2,0.6,1.2,1.2
				C22.5,36.5,21.9,37.1,21.3,37.1z"/>
			<path class="st7" d="M21.3,42.8c-0.7,0-1.2-0.6-1.2-1.2c0-0.7,0.6-1.2,1.2-1.2c0.7,0,1.2,0.6,1.2,1.2
				C22.5,42.3,21.9,42.8,21.3,42.8z"/>
			<path class="st7" d="M21.3,48.6c-0.7,0-1.2-0.6-1.2-1.2s0.6-1.2,1.2-1.2c0.7,0,1.2,0.6,1.2,1.2l0,0
				C22.5,48.1,21.9,48.6,21.3,48.6z"/>
			<path class="st7" d="M17.1,33.8c-0.7,0-1.2-0.6-1.2-1.2c0-0.7,0.6-1.2,1.2-1.2c0.7,0,1.2,0.6,1.2,1.2
				C18.3,33.2,17.8,33.8,17.1,33.8z"/>
			<path class="st7" d="M17.1,39.5c-0.7,0-1.2-0.6-1.2-1.2c0-0.7,0.6-1.2,1.2-1.2c0.7,0,1.2,0.6,1.2,1.2
				C18.3,39,17.8,39.5,17.1,39.5z"/>
			<path class="st7" d="M17.1,45.3c-0.7,0-1.2-0.6-1.2-1.2c0-0.7,0.6-1.2,1.2-1.2c0.7,0,1.2,0.6,1.2,1.2
				C18.3,44.8,17.8,45.3,17.1,45.3z"/>
			<path class="st7" d="M12.9,37.1c-0.7,0-1.2-0.6-1.2-1.2c0-0.7,0.6-1.2,1.2-1.2c0.7,0,1.2,0.6,1.2,1.2
				C14.2,36.5,13.6,37.1,12.9,37.1z"/>
			<path class="st7" d="M12.9,42.8c-0.7,0-1.2-0.6-1.2-1.2c0-0.7,0.6-1.2,1.2-1.2c0.7,0,1.2,0.6,1.2,1.2
				C14.2,42.3,13.6,42.8,12.9,42.8z"/>
			<path class="st7" d="M12.9,48.6c-0.7,0-1.2-0.6-1.2-1.2s0.6-1.2,1.2-1.2c0.7,0,1.2,0.6,1.2,1.2l0,0
				C14.2,48.1,13.6,48.6,12.9,48.6z"/>
			<path class="st7" d="M8.8,33.8c-0.7,0-1.2-0.6-1.2-1.2c0-0.7,0.6-1.2,1.2-1.2c0.7,0,1.2,0.6,1.2,1.2C10,33.2,9.5,33.8,8.8,33.8z"
				/>
			<path class="st7" d="M8.8,28c-0.7,0-1.2-0.6-1.2-1.2s0.6-1.2,1.2-1.2c0.7,0,1.2,0.6,1.2,1.2l0,0C10,27.4,9.5,28,8.8,28z"/>
			<path class="st7" d="M8.8,39.5c-0.7,0-1.2-0.6-1.2-1.2c0-0.7,0.6-1.2,1.2-1.2c0.7,0,1.2,0.6,1.2,1.2C10,39,9.5,39.5,8.8,39.5z"/>
			<path class="st7" d="M8.8,45.3c-0.7,0-1.2-0.6-1.2-1.2c0-0.7,0.6-1.2,1.2-1.2c0.7,0,1.2,0.6,1.2,1.2C10,44.8,9.5,45.3,8.8,45.3z"
				/>
			<path class="st7" d="M12.9,31.3c-0.7,0-1.2-0.6-1.2-1.2s0.6-1.2,1.2-1.2c0.7,0,1.2,0.6,1.2,1.2C14.2,30.7,13.6,31.3,12.9,31.3z"
				/>
			<path class="st7" d="M32.5,35.8c0-0.7,0.6-1.2,1.2-1.2s1.2,0.6,1.2,1.2c0,0.7-0.6,1.2-1.2,1.2S32.5,36.5,32.5,35.8z"/>
			<path class="st7" d="M32.5,41.6c0-0.7,0.6-1.2,1.2-1.2s1.2,0.6,1.2,1.2c0,0.7-0.6,1.2-1.2,1.2S32.5,42.3,32.5,41.6z"/>
			<path class="st7" d="M32.5,47.4c0-0.7,0.6-1.2,1.2-1.2s1.2,0.6,1.2,1.2s-0.6,1.2-1.2,1.2l0,0C33.1,48.6,32.5,48.1,32.5,47.4z"/>
			<path class="st7" d="M36.7,32.5c0-0.7,0.6-1.2,1.2-1.2c0.7,0,1.2,0.6,1.2,1.2c0,0.7-0.6,1.2-1.2,1.2
				C37.2,33.8,36.7,33.2,36.7,32.5z"/>
			<path class="st7" d="M36.7,38.3c0-0.7,0.6-1.2,1.2-1.2c0.7,0,1.2,0.6,1.2,1.2c0,0.7-0.6,1.2-1.2,1.2C37.2,39.5,36.7,39,36.7,38.3
				z"/>
			<path class="st7" d="M36.7,44.1c0-0.7,0.6-1.2,1.2-1.2c0.7,0,1.2,0.6,1.2,1.2c0,0.7-0.6,1.2-1.2,1.2
				C37.2,45.3,36.7,44.8,36.7,44.1z"/>
			<path class="st7" d="M40.8,35.8c0-0.7,0.6-1.2,1.2-1.2s1.2,0.6,1.2,1.2c0,0.7-0.6,1.2-1.2,1.2S40.8,36.5,40.8,35.8z"/>
			<path class="st7" d="M40.8,41.6c0-0.7,0.6-1.2,1.2-1.2s1.2,0.6,1.2,1.2c0,0.7-0.6,1.2-1.2,1.2S40.8,42.3,40.8,41.6z"/>
			<path class="st7" d="M40.8,47.4c0-0.7,0.6-1.2,1.2-1.2s1.2,0.6,1.2,1.2s-0.6,1.2-1.2,1.2l0,0C41.4,48.6,40.8,48.1,40.8,47.4z"/>
			<path class="st7" d="M45,32.5c0-0.7,0.6-1.2,1.2-1.2c0.7,0,1.2,0.6,1.2,1.2c0,0.7-0.6,1.2-1.2,1.2C45.5,33.8,45,33.2,45,32.5z"/>
			<path class="st7" d="M45,26.8c0-0.7,0.6-1.2,1.2-1.2c0.7,0,1.2,0.6,1.2,1.2S46.9,28,46.2,28l0,0C45.5,28,45,27.4,45,26.8z"/>
			<path class="st7" d="M45,38.3c0-0.7,0.6-1.2,1.2-1.2c0.7,0,1.2,0.6,1.2,1.2c0,0.7-0.6,1.2-1.2,1.2C45.5,39.5,45,39,45,38.3z"/>
			<path class="st7" d="M45,44.1c0-0.7,0.6-1.2,1.2-1.2c0.7,0,1.2,0.6,1.2,1.2c0,0.7-0.6,1.2-1.2,1.2C45.5,45.3,45,44.8,45,44.1z"/>
			<path class="st7" d="M40.8,30.1c0-0.7,0.6-1.2,1.2-1.2s1.2,0.6,1.2,1.2s-0.6,1.2-1.2,1.2S40.8,30.7,40.8,30.1z"/>
			<path class="st7" d="M27.5,47.8c-0.5,0-0.8-0.4-0.8-0.8v-9.9c0-0.5,0.4-0.8,0.8-0.8c0.5,0,0.8,0.4,0.8,0.8V47
				C28.3,47.4,28,47.8,27.5,47.8z"/>
		</g>
	</g>
</g>
</svg>
