<?xml version="1.0" encoding="utf-8"?>
<!-- Generator: Adobe Illustrator 26.4.1, SVG Export Plug-In . SVG Version: 6.00 Build 0)  -->
<svg version="1.1" id="Capa_1" xmlns="http://www.w3.org/2000/svg" xmlns:xlink="http://www.w3.org/1999/xlink" x="0px" y="0px"
	 viewBox="0 0 55 60" style="enable-background:new 0 0 55 60;" xml:space="preserve">
<style type="text/css">
	.st0{fill:#FF7A53;}
	.st1{fill:#EBF0F2;}
	.st2{fill:#32BEA6;}
	.st3{fill:#FFFFFF;}
</style>
<g>
	<path class="st0" d="M50.1,48.5L32.4,58.7c-3,1.7-6.7,1.7-9.7,0L4.9,48.5c-3-1.7-4.9-4.9-4.9-8.3V19.8c0-3.4,1.8-6.6,4.9-8.3
		L22.6,1.3c3-1.7,6.7-1.7,9.7,0l17.8,10.2c3,1.7,4.9,4.9,4.9,8.3v20.4C55,43.6,53.2,46.8,50.1,48.5z"/>
	<g>
		<ellipse class="st1" cx="27.5" cy="30" rx="21.9" ry="21.7"/>
		<ellipse class="st2" cx="27.5" cy="30" rx="15.2" ry="15"/>
		<ellipse cx="27.5" cy="30" rx="7.8" ry="7.7"/>
		<ellipse class="st3" cx="30.9" cy="26.2" rx="2.6" ry="2.6"/>
	</g>
</g>
</svg>
