<?xml version="1.0" encoding="utf-8"?>
<!-- Generator: Adobe Illustrator 26.4.1, SVG Export Plug-In . SVG Version: 6.00 Build 0)  -->
<svg version="1.1" id="Capa_1" xmlns="http://www.w3.org/2000/svg" xmlns:xlink="http://www.w3.org/1999/xlink" x="0px" y="0px"
	 viewBox="0 0 55 60" style="enable-background:new 0 0 55 60;" xml:space="preserve">
<style type="text/css">
	.st0{fill:#FF5368;}
	.st1{fill:#FFC263;}
	.st2{fill:#FFAA5A;}
	.st3{fill:#FFE077;}
	.st4{fill:#FFD05B;}
	.st5{fill:#FCF1F2;}
	.st6{fill:#F4E5E0;}
	.st7{fill:#736572;}
	.st8{fill:#615260;}
	.st9{fill:#FF8D95;}
	.st10{fill:#FF738A;}
	.st11{fill:#FFC7CE;}
	.st12{fill:#FFB3C0;}
</style>
<g>
	<path class="st0" d="M50.1,48.5L32.4,58.7c-3,1.7-6.7,1.7-9.7,0L4.9,48.5c-3-1.7-4.9-4.9-4.9-8.3V19.8c0-3.4,1.8-6.6,4.9-8.3
		L22.6,1.3c3-1.7,6.7-1.7,9.7,0l17.8,10.2c3,1.7,4.9,4.9,4.9,8.3v20.4C55,43.6,53.2,46.8,50.1,48.5z"/>
	<g>
		<path class="st1" d="M32.3,13.3l-13.3,1v3l13.3,1l1.2-2.2L32.3,13.3z"/>
		<path class="st2" d="M35.3,14.3v3l-1.5,1l-1.5-1v-3l1.5-1L35.3,14.3z"/>
		<path class="st3" d="M35.6,55H16c-1.9,0-3.5-1.6-3.5-3.5V23.8v-3c0-1.9,1.6-3.5,3.5-3.5h19.6c1.9,0,3.5,1.6,3.5,3.5v30.8
			C39,53.5,37.5,55,35.6,55z"/>
		<path class="st4" d="M41.8,20.8v3l-1.6,13.1l1.6,11.7v3c0,1.9-1.6,3.5-3.5,3.5h-3c1.9,0,3.5-1.6,3.5-3.5v-3l1.4-9.5l-1.4-15.3v-3
			c0-1.9-1.6-3.5-3.5-3.5h3C40.3,17.3,41.8,18.9,41.8,20.8L41.8,20.8z"/>
		<path class="st5" d="M41.8,48.6H12.5V23.8H39L41.8,48.6z"/>
		<path class="st6" d="M38.8,23.8h3v24.8h-3V23.8z"/>
		<path class="st6" d="M28.4,40.4h-2.5c-1.6,0-3-1.3-3-3v-2.5c0-1.6,1.3-3,3-3h2.5c1.6,0,3,1.3,3,3v2.5
			C31.4,39.1,30.1,40.4,28.4,40.4z"/>
		<path class="st7" d="M33.7,9.8h-16c-0.5,0-1,0.4-1,1v2.5c0,0.5,0.4,1,1,1h16c0.5,0,1-0.4,1-1v-2.5C34.7,10.3,34.3,9.8,33.7,9.8z"
			/>
		<path class="st8" d="M37.6,10.8v2.5c0,0.5-0.4,1-1,1h-3c0.5,0,1-0.4,1-1v-2.5c0-0.5-0.4-1-1-1h3C37.2,9.8,37.6,10.3,37.6,10.8z"/>
	</g>
	<g>
		<path class="st9" d="M39.4,54.5c-0.6,0-1.1,0.5-1.7,0.3c-2.8-0.7-5-3.3-5-6.4c0-3.1,2.1-5.7,5-6.4c0.5-0.1,1.1,0.3,1.7,0.3
			c3.6,0,5.5,2.4,5.5,6.1C44.9,52.1,43.1,54.5,39.4,54.5z"/>
		<path class="st10" d="M46,48.4c0,1.8-0.7,3.5-1.9,4.7c-1.2,1.2-2.8,1.9-4.7,1.9c-0.6,0-1.1-0.1-1.7-0.2c1.2-0.3,2.2-0.9,3-1.7
			c1.2-1.2,1.9-2.8,1.9-4.7S42,45,40.8,43.8c-0.8-0.8-1.9-1.4-3-1.7c0.5-0.1,1.1-0.2,1.7-0.2c1.8,0,3.5,0.7,4.7,1.9
			C45.3,45,46,46.6,46,48.4z"/>
	</g>
	<g>
		<path class="st11" d="M46.7,54.8c-2.8-0.7-5-3.3-5-6.4c0-3.1,2.1-5.7,5-6.4c0.5-0.1,1.1,0.1,1.7,0.1c2.7,0.2,4.4,2.6,4.4,6.3
			C52.7,54,47.3,55,46.7,54.8L46.7,54.8z"/>
		<path class="st12" d="M55,48.4c0,1.8-0.7,3.5-1.9,4.7c-1.2,1.2-2.8,1.9-4.7,1.9c-0.6,0-1.1-0.1-1.7-0.2c1.2-0.3,2.2-0.9,3-1.7
			c1.2-1.2,1.9-2.8,1.9-4.7S51,45,49.8,43.8c-0.8-0.8-1.9-1.4-3-1.7c0.5-0.1,1.1-0.2,1.7-0.2c1.8,0,3.5,0.7,4.7,1.9
			C54.3,45,55,46.6,55,48.4z"/>
	</g>
</g>
</svg>
