<?xml version="1.0" encoding="utf-8"?>
<!-- Generator: Adobe Illustrator 26.4.1, SVG Export Plug-In . SVG Version: 6.00 Build 0)  -->
<svg version="1.1" id="Capa_1" xmlns="http://www.w3.org/2000/svg" xmlns:xlink="http://www.w3.org/1999/xlink" x="0px" y="0px"
	 viewBox="0 0 60 66" style="enable-background:new 0 0 60 66;" xml:space="preserve">
<style type="text/css">
	.st0{fill:#373869;}
</style>
<g>
	<path class="st0" d="M45.5,22.3L31,8c-0.3-0.3-0.6-0.4-1-0.4c-0.4,0-0.7,0.1-1,0.4L14.5,22.4c-3.9,3.9-6,9-6.1,14.5
		c0,5.5,2.1,10.8,6.1,14.7l0.9,0.9c4,3.9,9.2,6,14.6,6c5.6,0,10.6-2.1,14.6-6.1l0.9-0.9c3.9-3.9,6-9,6.1-14.5
		C51.6,31.4,49.4,26.2,45.5,22.3z M42.6,50.4c-3.4,3.4-7.8,5.3-12.6,5.3c-4.8,0-9.2-1.8-12.6-5.3l-0.9-0.9c-6.9-7-6.9-18.3,0-25.1
		L30,11l13.5,13.4c6.9,6.9,6.9,18.2,0,25.1L42.6,50.4z"/>
	<path class="st0" d="M41.4,44.7L41.4,44.7c-0.4,0-0.7,0.2-1,0.4L39.5,46c-2.5,2.5-5.9,3.9-9.5,3.9c-3.6,0-6.9-1.4-9.5-3.9l-0.9-0.9
		c-0.5-0.6-1.5-0.5-2,0c-0.3,0.3-0.4,0.6-0.4,1s0.2,0.7,0.4,1l0.9,0.9c3.1,3.1,7.2,4.8,11.5,4.8s8.4-1.7,11.5-4.8l0.9-0.9
		c0.3-0.3,0.4-0.6,0.4-1s-0.2-0.7-0.4-1C42.1,44.8,41.7,44.7,41.4,44.7z"/>
	<path class="st0" d="M25.8,41.7h8.5c0.9,0,1.5-0.7,1.5-1.5c0-0.8-0.7-1.5-1.5-1.5h-6.9v-3.4h3.5c0.9,0,1.5-0.7,1.5-1.5
		c0-0.8-0.7-1.5-1.5-1.5h-3.5v-3.2H34c0.9,0,1.5-0.7,1.5-1.5c0-0.8-0.7-1.5-1.5-1.5h-8.2c-0.9,0-1.6,0.7-1.6,1.6V40
		C24.2,40.9,24.9,41.7,25.8,41.7z"/>
</g>
</svg>
