<?xml version="1.0" encoding="utf-8"?>
<!-- Generator: Adobe Illustrator 26.4.1, SVG Export Plug-In . SVG Version: 6.00 Build 0)  -->
<svg version="1.1" id="Capa_1" xmlns="http://www.w3.org/2000/svg" xmlns:xlink="http://www.w3.org/1999/xlink" x="0px" y="0px"
	 viewBox="0 0 55 60" style="enable-background:new 0 0 55 60;" xml:space="preserve">
<style type="text/css">
	.st0{fill:#484B7F;}
	.st1{fill:#5FDC68;}
	.st2{fill:#56BF5D;}
	.st3{fill:#FFE356;}
	.st4{fill:#75BD80;}
</style>
<g>
	<path class="st0" d="M50.1,48.5L32.4,58.7c-3,1.7-6.7,1.7-9.7,0L4.9,48.5c-3-1.7-4.9-4.9-4.9-8.3V19.8c0-3.4,1.8-6.6,4.9-8.3
		L22.6,1.3c3-1.7,6.7-1.7,9.7,0l17.8,10.2c3,1.7,4.9,4.9,4.9,8.3v20.4C55,43.6,53.2,46.8,50.1,48.5z"/>
	<g>
		<path class="st1" d="M37.4,19c1-12.5-16.9-17.9-22.2-0.1c0,0,3.1-3.1,5.9-2.6C24.8,17,27.4,25.2,37.4,19L37.4,19z"/>
		<path class="st2" d="M16.6,15.2c-0.6,1.1-1.1,2.4-1.5,3.8c0,0,3.1-3.1,5.9-2.6c1.1,0.2,2,0.9,3.1,1.8l0,0
			C23.4,17,20,13.5,16.6,15.2z"/>
		<path class="st3" d="M38.9,19.7l-0.6,0.6c-3.9-5-13.1-12.1-18.6-7C25.4,7.5,35.1,14.5,38.9,19.7z"/>
		<path class="st1" d="M12.6,27.1c-11.4,5.4-7.2,23.5,11,19.1c0,0-4.2-1.1-5.2-3.7C17.1,38.9,23,32.6,12.6,27.1z"/>
		<path class="st4" d="M19.6,46.9c1.3-0.1,2.6-0.3,4-0.6c0,0-4.2-1.1-5.2-3.7c-0.4-1-0.2-2.2,0-3.5l0,0
			C17.8,40.1,16.5,44.8,19.6,46.9z"/>
		<path class="st3" d="M12.5,25.5l0.8,0.3c-2.5,5.9-4,17.3,3.2,19.4C8.5,43.2,9.8,31.4,12.5,25.5L12.5,25.5z"/>
		<path class="st1" d="M32.3,44.8c10.4,7.1,24.1-5.6,11.2-19c0,0,1.2,4.2-0.6,6.3C40.3,35,31.9,33.2,32.3,44.8L32.3,44.8L32.3,44.8z
			"/>
		<path class="st2" d="M46,28.9c-0.7-1-1.6-2.1-2.6-3.2c0,0,1.2,4.2-0.6,6.3c-0.7,0.8-1.8,1.3-3.1,1.7l0,0
			C41,33.8,45.8,32.6,46,28.9L46,28.9L46,28.9z"/>
		<path class="st3" d="M30.9,45.7l-0.2-0.9c6.4-0.8,17.1-5.2,15.4-12.4C48.4,40.3,37.4,45.1,30.9,45.7L30.9,45.7L30.9,45.7z"/>
	</g>
</g>
</svg>
