<?xml version="1.0" encoding="utf-8"?>
<!-- Generator: Adobe Illustrator 26.4.1, SVG Export Plug-In . SVG Version: 6.00 Build 0)  -->
<svg version="1.1" id="Capa_1" xmlns="http://www.w3.org/2000/svg" xmlns:xlink="http://www.w3.org/1999/xlink" x="0px" y="0px"
	 viewBox="0 0 60 66" style="enable-background:new 0 0 60 66;" xml:space="preserve">
<style type="text/css">
	.st0{fill:#373769;}
	.st1{fill:#373869;}
</style>
<g>
	<g>
		<path class="st0" d="M30,66c-1.9,0-3.8-0.5-5.5-1.5l-18.9-11C2.1,51.6,0,47.9,0,44V22c0-3.9,2.1-7.6,5.5-9.6l18.9-11
			c3.4-2,7.7-2,11.1,0l18.9,11c3.4,2,5.5,5.7,5.5,9.6V44c0,3.9-2.1,7.6-5.5,9.6l-18.9,11C33.8,65.5,31.9,66,30,66z M30,1.5
			c-1.7,0-3.3,0.4-4.8,1.3l-18.9,11c-3,1.7-4.8,4.9-4.8,8.3V44c0,3.4,1.8,6.6,4.8,8.3l18.9,11c3,1.7,6.6,1.7,9.6,0l18.9-11
			c3-1.7,4.8-4.9,4.8-8.3V22c0-3.4-1.8-6.6-4.8-8.3l-18.9-11C33.3,1.9,31.7,1.5,30,1.5z"/>
	</g>
	<g>
		<g>
			<path class="st1" d="M32.4,41c-0.4,0-0.8,0.3-0.8,0.8c0,0.4,0.3,0.8,0.8,0.8c0.4,0,0.8-0.3,0.8-0.8C33.2,41.4,32.8,41,32.4,41z"
				/>
			<path class="st1" d="M18.7,21.1c-3.9,1.3-6.8,3.4-8.4,5.9c-0.1,0.1-0.1,0.3-0.1,0.4v0v3.9c0,0.5,0.5,0.9,1,0.7c2-0.7,4.5-1,7.2-1
				c3.8,0,7.2,0.7,9.2,1.9c-2.4,1.4-6.2,1.9-9.1,1.9c-0.2,0-3.8,0.1-7.3-1c-0.5-0.2-1,0.2-1,0.7V39c0,0.8,0.4,1.5,1,1.9
				c9.6,6.7,24.6,7.3,32.9,2.9c3.1-1.6,5.6-4.2,5.6-7.8V31c0-5.4-6-8.8-11.2-10.3c0,0,0,0,0,0c-2.9-0.8-6.1-1.3-9.3-1.3
				C25.5,19.4,21.7,20,18.7,21.1z M43.1,24.2c1.1,1.9,1.8,3.9,1.9,6h-1.6c0,0,0,0,0,0c-0.2-2.5-1.1-5-2.6-7.1
				C41.6,23.4,42.4,23.8,43.1,24.2z M17.9,36.4c0.4,1.1,1,2.2,1.7,3.2c-2.7-0.9-4.9-2.1-6.5-3.7C14.6,36.2,16.2,36.4,17.9,36.4z
				 M22.3,40.3c-1.1-1.1-2.1-2.5-2.7-3.9c0.5,0,1-0.1,1.7-0.1c0.8,1.6,1.9,3.2,3.1,4.4C23.7,40.6,23,40.4,22.3,40.3z M22.3,21.7
				c0.7-0.2,1.4-0.3,2.1-0.4c-1.2,1.3-2.3,2.8-3.1,4.4c-0.5,0-0.9-0.1-1.4-0.1c-0.1,0-0.2,0-0.3,0C20.2,24.1,21.2,22.8,22.3,21.7z
				 M29.2,20.9c3,0,6,0.4,8.7,1.2c2.2,2.1,3.7,5.2,3.9,8.1h-1.6c-0.4-4.3-4.1-7.7-8.6-7.7c-2.9,0-5.5,1.4-7.1,3.8
				c-0.5-0.1-1.1-0.2-1.6-0.3c1.1-2,2.6-3.7,4.2-4.9C27.8,20.9,28.5,20.9,29.2,20.9z M37,30.2c-0.4-2.6-2.7-4.6-5.4-4.6
				c-1.5,0-3,0.6-4,1.7c-0.5-0.2-1-0.4-1.5-0.6c1.3-1.7,3.4-2.7,5.5-2.7c3.6,0,6.6,2.8,7.1,6.2H37z M29,28.1c0.7-0.6,1.7-1,2.6-1
				c1.9,0,3.5,1.4,3.9,3.1h-1.7c-0.3-0.9-1.2-1.5-2.2-1.5c-0.6,0-1.1,0.2-1.5,0.5C29.9,28.8,29.5,28.5,29,28.1z M31.6,30.2
				c0.4,0,0.8,0.3,0.8,0.8s-0.3,0.8-0.8,0.8c-0.4,0-0.8-0.4-0.8-0.8S31.2,30.2,31.6,30.2z M30.1,32.8c0.4,0.3,0.9,0.5,1.5,0.5
				c1,0,1.9-0.6,2.2-1.5h1.7c-0.4,1.7-2,3.1-3.9,3.1c-1,0-1.9-0.4-2.6-1C29.5,33.5,29.8,33.2,30.1,32.8z M27.6,34.7
				c1,1.1,2.5,1.7,4,1.7c2.7,0,5-2,5.4-4.6h1.6c-0.4,3.4-3.5,6.2-7.1,6.2c-2.2,0-4.2-1-5.5-2.7C26.6,35.1,27.1,34.9,27.6,34.7z
				 M40.8,38.9c1.5-2.1,2.5-4.7,2.6-7.2H45c-0.1,2.1-0.8,4.1-1.9,6C42.2,38.3,41.3,38.7,40.8,38.9z M46.6,31.8h1.6
				c-0.2,1.7-1.2,3-2.5,4.1C46.2,34.5,46.5,33.2,46.6,31.8z M19.7,22.4c-0.7,1-1.3,2.1-1.7,3.2c-1.7,0-3.3,0.2-4.8,0.5
				C14.8,24.4,17.1,23.2,19.7,22.4z M11.8,30.2V28c4.9-1.4,12-1,15.6,0.9c1.2,0.6,1.8,1.4,1.8,2c0,0.3-0.1,0.6-0.4,0.9
				c-2.2-1.5-6.1-2.4-10.5-2.4C16,29.4,13.8,29.7,11.8,30.2z M48.2,36.1c0,3.2-2.6,5.2-4.8,6.4c-7.5,3.9-21.9,3.7-31.3-2.8
				c-0.2-0.1-0.3-0.4-0.3-0.6v-2.3c1.7,1.7,4,3.1,6.9,4.1c3.4,1.2,7.1,1.7,10.6,1.7c0.4,0,0.8-0.3,0.8-0.8c0-0.4-0.3-0.8-0.8-0.8
				c-0.7,0-1.5,0-2.2-0.1c-1.6-1.2-3.1-3-4.2-4.9c0.5-0.1,1.1-0.2,1.6-0.3c1.6,2.3,4.2,3.8,7.1,3.8c4.5,0,8.2-3.4,8.6-7.7h1.6
				c-0.2,2.9-1.7,6-4,8.2c-0.8,0.2-1.6,0.4-2.5,0.6c-0.4,0.1-0.7,0.5-0.6,0.9c0.1,0.4,0.5,0.7,0.9,0.6c4-0.7,8.3-2.4,11.2-5.1
				c0.5-0.5,0.9-1,1.3-1.5V36.1z M48.2,30.2h-1.6c-0.1-1.4-0.4-2.8-0.9-4.1C47.1,27.4,47.9,28.8,48.2,30.2z"/>
		</g>
	</g>
</g>
</svg>
