<?xml version="1.0" encoding="utf-8"?>
<!-- Generator: Adobe Illustrator 26.4.1, SVG Export Plug-In . SVG Version: 6.00 Build 0)  -->
<svg version="1.1" id="Capa_1" xmlns="http://www.w3.org/2000/svg" xmlns:xlink="http://www.w3.org/1999/xlink" x="0px" y="0px"
	 viewBox="0 0 55 60" style="enable-background:new 0 0 55 60;" xml:space="preserve">
<style type="text/css">
	.st0{fill:#484B7F;}
	.st1{fill:#FFC552;}
	.st2{fill:#D1CDB2;}
	.st3{fill:#58AB23;}
	.st4{fill:#66BF00;}
	.st5{fill:#B6E462;}
</style>
<g>
	<path class="st0" d="M50.1,48.5L32.4,58.7c-3,1.7-6.7,1.7-9.7,0L4.9,48.5c-3-1.7-4.9-4.9-4.9-8.3V19.8c0-3.4,1.8-6.6,4.9-8.3
		L22.6,1.3c3-1.7,6.7-1.7,9.7,0l17.8,10.2c3,1.7,4.9,4.9,4.9,8.3v20.4C55,43.6,53.2,46.8,50.1,48.5z"/>
	<g>
		<path class="st1" d="M32.6,16L19.9,28.8c-0.5,0.5-0.1,1.3,0.5,1.3h4.8l-4.1,11.8c-0.3,0.7,0.7,1.3,1.2,0.8l12.7-12.8
			c0.5-0.5,0.1-1.3-0.5-1.3h-4.8l4.1-11.8C34.1,16,33.2,15.4,32.6,16z"/>
		<g>
			<path class="st2" d="M20.9,38c-0.2,0-0.3-0.1-0.5-0.2c-2.5-2.1-3.9-5.2-3.9-8.6c0-2.8,1.1-5.6,3-7.6c1.9-2.1,4.5-3.3,7.3-3.5
				c0.4,0,0.8,0.3,0.8,0.7c0,0.4-0.3,0.8-0.7,0.8c-5,0.4-8.9,4.6-8.9,9.7c0,2.9,1.2,5.6,3.4,7.4c0.2,0.2,0.3,0.5,0.2,0.8
				C21.5,37.8,21.2,38,20.9,38z"/>
			<path class="st2" d="M21.3,17.4c-0.3,0-0.5-0.2-0.7-0.4c-0.2-0.4,0-0.8,0.3-1c2.1-1,4.3-1.6,6.6-1.6c0.8,0,1.6,0.1,2.3,0.2
				c0.4,0.1,0.7,0.4,0.6,0.9c-0.1,0.4-0.4,0.7-0.8,0.6c-0.7-0.1-1.4-0.2-2.1-0.2c-2.1,0-4.1,0.5-5.9,1.4
				C21.5,17.4,21.4,17.4,21.3,17.4z"/>
			<path class="st2" d="M19.4,41.6c-0.1,0-0.3,0-0.4-0.1c-3.9-2.8-6.2-7.3-6.2-12.1c0-4.5,2-8.7,5.4-11.5c0.3-0.3,0.8-0.2,1,0.1
				c0.3,0.3,0.2,0.8-0.1,1c-3.1,2.6-4.9,6.3-4.9,10.4c0,4.3,2.1,8.4,5.6,10.9c0.3,0.2,0.4,0.5,0.3,0.8C20,41.4,19.7,41.6,19.4,41.6z
				"/>
			<path class="st2" d="M27.5,40.4c-0.4,0-0.7-0.3-0.7-0.7c0-0.4,0.3-0.7,0.7-0.7c2,0,3.9-0.6,5.5-1.7c0.3-0.2,0.8-0.2,1,0.2
				c0.2,0.3,0.2,0.8-0.2,1C32,39.8,29.8,40.4,27.5,40.4z"/>
			<path class="st2" d="M35.4,36.7c-0.6,0-1-0.7-0.6-1.2c1.4-1.7,2.2-3.9,2.2-6.2c0-2.9-1.2-5.6-3.4-7.4c-0.3-0.3-0.4-0.7-0.1-1
				c0.3-0.3,0.7-0.4,1-0.1c2.5,2.1,3.9,5.2,3.9,8.6c0,2.6-0.9,5.2-2.6,7.2C35.8,36.6,35.6,36.7,35.4,36.7z"/>
			<path class="st2" d="M27.5,44.2c-0.8,0-1.6-0.1-2.3-0.2c-0.4-0.1-0.7-0.4-0.6-0.9c0.1-0.4,0.4-0.7,0.8-0.6
				c0.7,0.1,1.4,0.2,2.1,0.2c7.3,0,13.3-6,13.3-13.4c0-2.5-0.7-4.9-2-7c-0.2-0.3-0.1-0.8,0.2-1c0.3-0.2,0.8-0.1,1,0.2
				c1.4,2.3,2.2,5.1,2.2,7.8C42.3,37.5,35.6,44.2,27.5,44.2z"/>
		</g>
		<path class="st3" d="M43.9,14.3l1.5-1.6c0.5-0.5,0.1-1.3-0.5-1.3h-7.1c-0.4,0-0.7,0.3-0.7,0.7v7.1c0,0.7,0.8,1,1.3,0.5l1.3-1.4
			c2.5,2.9,4,6.6,4,10.7c0.1,9-7.2,16.5-16.2,16.5c-9,0-16.2-7.3-16.2-16.4c0-4.3,1.7-8.3,4.4-11.2c0.3-0.3,0.6-0.6,0.9-0.9L13,12.5
			c-0.6,0.5-1.2,1.1-1.7,1.7c-3.7,4.1-6,9.6-5.8,15.6c0.2,12.1,10.1,21.9,22.1,21.9c12.2,0,22.1-10,22.1-22.3
			C49.6,23.5,47.4,18.2,43.9,14.3z"/>
		<path class="st4" d="M15.7,18.1c1.5-1.7,3.4-3,5.5-3.9c1.6-0.7,3.3-1.1,5-1.2c0.7-0.1,1.3-0.7,1.3-1.4V8.4c0-0.8-0.7-1.4-1.4-1.4
			c-2.5,0.2-4.9,0.7-7.1,1.7c-2.9,1.3-5.6,3.1-7.7,5.5C7.8,18,5.6,23,5.5,28.5l5.9,0.5C11.4,24.8,13,21,15.7,18.1z"/>
		<path class="st5" d="M21.2,14.2c1.6-0.7,3.3-1.1,5-1.2c0.7-0.1,1.3-0.7,1.3-1.4V8.4c0-0.8-0.7-1.4-1.4-1.4
			c-2.5,0.2-4.9,0.7-7.1,1.7c-2.2,0.9-4.2,2.2-6,3.8l3.6,4.7C18,15.9,19.5,14.9,21.2,14.2z"/>
		<path class="st3" d="M43.9,14.3l1.5-1.6c0.5-0.5,0.1-1.3-0.5-1.3h-7.1c-0.4,0-0.7,0.3-0.7,0.7v7.1c0,0.7,0.8,1,1.3,0.5l1.3-1.4
			c2.5,2.9,4,6.6,4,10.7c0.1,9-7.2,16.5-16.2,16.5c-9,0-16.2-7.3-16.2-16.4c0-0.1,0-0.2,0-0.2l-5.9-0.5c0,0.4,0,0.8,0,1.2
			c0.2,12.1,10.1,21.9,22.1,21.9c12.2,0,22.1-10,22.1-22.3C49.6,23.5,47.4,18.2,43.9,14.3z"/>
	</g>
</g>
</svg>
