<?xml version="1.0" encoding="utf-8"?>
<!-- Generator: Adobe Illustrator 26.4.1, SVG Export Plug-In . SVG Version: 6.00 Build 0)  -->
<svg version="1.1" id="Capa_1" xmlns="http://www.w3.org/2000/svg" xmlns:xlink="http://www.w3.org/1999/xlink" x="0px" y="0px"
	 viewBox="0 0 60 66" style="enable-background:new 0 0 60 66;" xml:space="preserve">
<style type="text/css">
	.st0{fill:#373769;}
</style>
<g>
	<g>
		<path class="st0" d="M30,66c-1.9,0-3.8-0.5-5.5-1.5l-18.9-11C2.1,51.6,0,47.9,0,44V22c0-3.9,2.1-7.6,5.5-9.6l18.9-11
			c3.4-2,7.7-2,11.1,0l18.9,11c3.4,2,5.5,5.7,5.5,9.6V44c0,3.9-2.1,7.6-5.5,9.6l-18.9,11C33.8,65.5,31.9,66,30,66z M30,1.5
			c-1.7,0-3.3,0.4-4.8,1.3l-18.9,11c-3,1.7-4.8,4.9-4.8,8.3V44c0,3.4,1.8,6.6,4.8,8.3l18.9,11c3,1.7,6.6,1.7,9.6,0l18.9-11
			c3-1.7,4.8-4.9,4.8-8.3V22c0-3.4-1.8-6.6-4.8-8.3l-18.9-11C33.3,1.9,31.7,1.5,30,1.5z"/>
	</g>
	<path class="st0" d="M43.6,36.4c-1.7,0-3,1.4-3,3c0,1.7,1.4,3,3,3c1.7,0,3-1.4,3-3C46.6,37.7,45.2,36.4,43.6,36.4z M43.6,40.9
		c-0.8,0-1.5-0.7-1.5-1.5s0.7-1.5,1.5-1.5c0.8,0,1.5,0.7,1.5,1.5S44.4,40.9,43.6,40.9z"/>
	<path class="st0" d="M41.3,44h-4.2c-1.6,0-2.8,1.3-2.8,2.8c0,1.6,1.3,2.8,2.8,2.8h4.2c1.6,0,2.8-1.3,2.8-2.8
		C44.1,45.3,42.9,44,41.3,44z M38.4,48.1h-1.3c-0.7,0-1.3-0.6-1.3-1.3c0-0.7,0.6-1.3,1.3-1.3h1.3V48.1z M41.3,48.1H40v-2.6h1.3
		c0.7,0,1.3,0.6,1.3,1.3C42.6,47.5,42,48.1,41.3,48.1z"/>
	<path class="st0" d="M29,26.8V16.3H15.8v10.5h1.8v2.4l-0.1,0.1l-4.1,3.2v17.2h18V32.5l-4.2-3.3v-2.4H29z M21.3,17.9h2.4v7.4h-2.4
		V17.9z M17.4,25.3v-7.4h2.4v7.4H17.4z M29.9,48.1H15V35.1h15V48.1z M30.3,33.5H14.6l4.5-3.6v-3.1h6.6V30L30.3,33.5z M25.2,25.3
		v-7.4h2.3v7.4H25.2z"/>
	<path class="st0" d="M21.5,45.4l2,0c2.1-0.2,3.7-2,3.7-4.2V38h-1.3c-1.3,0-2.4,0.6-3.2,1.5l-0.2,0.2l-0.2-0.2c-0.8-1-2-1.5-3.2-1.5
		h-1.3v3.2C17.7,43.4,19.3,45.2,21.5,45.4z M23.2,42.2c0-1.3,0.9-2.4,2.1-2.6l0.3-0.1v1.7c0,1.3-0.9,2.4-2.1,2.6l-0.3,0.1V42.2z
		 M19.3,39.5l0.3,0.1c1.2,0.2,2.1,1.3,2.1,2.6v1.7l-0.3-0.1c-1.2-0.2-2.1-1.3-2.1-2.6V39.5z"/>
</g>
</svg>
