<?xml version="1.0" encoding="utf-8"?>
<!-- Generator: Adobe Illustrator 26.4.1, SVG Export Plug-In . SVG Version: 6.00 Build 0)  -->
<svg version="1.1" id="Capa_1" xmlns="http://www.w3.org/2000/svg" xmlns:xlink="http://www.w3.org/1999/xlink" x="0px" y="0px"
	 viewBox="0 0 55 55" style="enable-background:new 0 0 55 55;" xml:space="preserve">
<style type="text/css">
	.st0{fill:#373869;}
</style>
<g>
	<path class="st0" d="M50.8,22.5c-2.4-2.1-5.5-3.9-8.9-5.1c-1.5-0.5-3.1-0.9-4.7-1.2c-1.1-1.4-4.3-4.5-9.6-5.7c-1-0.2-2,0-2.8,0.6
		c-0.8,0.6-1.2,1.6-1.2,2.6v4.2c-4.9,2.2-8.9,5.7-10.9,7.8c-0.3-1.5-1.1-3.5-2.6-5c-3.1-3.1-8-3-8.2-2.9c-0.7,0-1.3,0.6-1.3,1.3
		c0,0.2-0.1,5.1,2.9,8.2c0.6,0.6,1.3,1.1,2.1,1.5c-0.8,0.4-1.5,1-2.1,1.6c-3.1,3.1-3,8-2.9,8.2c0,0.7,0.6,1.3,1.3,1.3
		c0,0,0.1,0,0.2,0c0.9,0,5.2-0.1,8.1-3c1.5-1.5,2.3-3.5,2.6-5.1c1.6,1.6,4.1,3.8,7.1,5.8v3.8c0,1,0.5,2,1.3,2.6
		c0.6,0.4,1.2,0.6,1.9,0.6c0.3,0,0.6,0,0.9-0.1c2.7-0.8,4.7-2.2,5.8-3.1c0.9,0.1,1.8,0.2,2.7,0.2c3.1,0,6.2-0.5,9.2-1.5l0,0
		c7.1-2.4,12.9-7.5,12.9-11.4C54.5,26.8,53.2,24.6,50.8,22.5z M26.1,40.6c-1,0.6-2,1-3,1.3c-0.2,0.1-0.3,0-0.5-0.1
		c-0.1-0.1-0.2-0.2-0.2-0.4v-2.3C23.7,39.7,24.9,40.2,26.1,40.6z M26.3,16.7v-3.1c0-0.2,0.1-0.3,0.2-0.4c0.1,0,0.2-0.1,0.3-0.1
		c0,0,0.1,0,0.1,0c2.5,0.6,4.5,1.7,5.8,2.7C30.6,15.7,28.5,16,26.3,16.7z M35.1,29c0,3.2,1.4,6.7,3.6,9.2c-2.1,0.5-4.1,0.8-6.2,0.8
		c-0.9,0-1.9-0.1-2.8-0.3c-2.5-0.4-5.1-1.5-7.7-3c-4-2.4-7.1-5.6-8.4-7c1.8-2,6.3-6.5,12-8.8c2.4-1,4.7-1.4,6.9-1.4
		c1.3,0,2.5,0.1,3.8,0.3c0.8,0.1,1.7,0.3,2.5,0.5C36.5,21.8,35.1,25.5,35.1,29z M51.8,28.7c0,2-3.9,6.2-10.3,8.6
		c-2.3-2.1-3.7-5.4-3.7-8.3c0-3.2,1.6-6.8,3.9-8.8C47.9,22.6,51.8,26.7,51.8,28.7z M8.1,22.5c1.4,1.4,1.9,3.5,2.1,4.8
		c-1.3-0.1-3.4-0.6-4.8-2c-1.4-1.4-1.9-3.5-2.1-4.8C4.6,20.6,6.7,21.1,8.1,22.5z M3.3,37c0.2-1.3,0.7-3.4,2.1-4.8
		c1.4-1.4,3.5-1.9,4.8-2.1C10,31.4,9.5,33.6,8.1,35C6.7,36.4,4.6,36.9,3.3,37z"/>
	<path class="st0" d="M45.6,27.1c-0.7,0-1.4,0.6-1.4,1.4V29c0,0.7,0.6,1.4,1.4,1.4c0.7,0,1.4-0.6,1.4-1.4v-0.5
		C47,27.7,46.4,27.1,45.6,27.1z"/>
	<path class="st0" d="M33.1,20.6C33.1,20.6,33.1,20.6,33.1,20.6c-0.4,0-0.7,0.2-1,0.4c-0.1,0.1-0.2,0.2-0.3,0.4
		c-0.5,0.6-0.4,1.4,0.2,1.9c0.2,0.2,0.6,0.3,0.9,0.3c0.4,0,0.8-0.2,1-0.5c0.1-0.1,0.1-0.2,0.2-0.2c0.2-0.3,0.4-0.6,0.4-1
		c0-0.4-0.2-0.7-0.4-1C33.8,20.7,33.5,20.6,33.1,20.6z"/>
	<path class="st0" d="M32,28.9c0-1.3,0.2-2.6,0.7-3.7c0.3-0.7-0.1-1.5-0.8-1.8c-0.3-0.1-0.7-0.1-1,0c-0.3,0.1-0.6,0.4-0.7,0.8
		c-0.5,1.4-0.8,3-0.8,4.7c0,3,0.9,5.8,2.6,7.7c0.3,0.3,0.6,0.5,1,0.5c0.3,0,0.6-0.1,0.9-0.3c0.6-0.5,0.6-1.4,0.1-1.9
		C32.7,33.4,32,31.2,32,28.9z"/>
</g>
</svg>
