<?xml version="1.0" encoding="utf-8"?>
<!-- Generator: Adobe Illustrator 26.4.1, SVG Export Plug-In . SVG Version: 6.00 Build 0)  -->
<svg version="1.1" id="Capa_1" xmlns="http://www.w3.org/2000/svg" xmlns:xlink="http://www.w3.org/1999/xlink" x="0px" y="0px"
	 viewBox="0 0 60 66" style="enable-background:new 0 0 60 66;" xml:space="preserve">
<style type="text/css">
	.st0{fill:#363769;}
	.st1{fill:#373769;}
</style>
<g>
	<g>
		<g>
			<path class="st0" d="M34.1,23c-0.4,0-0.8,0.4-0.8,0.8c0,0.4,0.4,0.8,0.8,0.8c0.4,0,0.8-0.4,0.8-0.8C34.9,23.4,34.6,23,34.1,23z"
				/>
			<path class="st0" d="M30.4,34.4c1,0,1.9-0.9,1.9-1.9v-2.1l0.1,0c0.5-0.2,0.8-0.5,1.1-0.9c0.1-0.1,0.1-0.3,0.1-0.5
				c0-0.2-0.2-0.3-0.3-0.4v0c-0.1-0.1-0.3-0.1-0.5-0.1c-0.2,0-0.3,0.2-0.4,0.3c-0.1,0.3-0.4,0.4-0.7,0.4c-0.3,0-0.6-0.2-0.7-0.4
				c-0.1-0.1-0.1-0.2-0.2-0.2c-0.1-0.1-0.3-0.1-0.5-0.1c-0.2,0-0.3,0.2-0.4,0.3c-0.1,0.3-0.4,0.4-0.7,0.4c-0.3,0-0.6-0.2-0.7-0.4
				c-0.1-0.1-0.2-0.3-0.4-0.3c-0.1,0-0.1,0-0.2,0c-0.1,0-0.2,0-0.3,0.1c-0.1,0.1-0.3,0.2-0.3,0.4c0,0.2,0,0.3,0.1,0.5
				c0.2,0.4,0.6,0.7,1.1,0.9l0.1,0v2.1C28.5,33.6,29.4,34.4,30.4,34.4z M29.8,30.5L29.8,30.5c0.3-0.1,0.4-0.2,0.5-0.3l0.1-0.1
				l0.1,0.1c0.1,0.1,0.3,0.2,0.4,0.2l0.1,0v2.1c0,0.3-0.3,0.6-0.6,0.6c-0.3,0-0.6-0.3-0.6-0.6V30.5z"/>
			<path class="st0" d="M17.4,51.8h26.1c0.7,0,1.3-0.6,1.3-1.3v-1.1c0-1.1-0.9-2-2-2h-0.3l0-0.2c0.1-0.4,0.2-0.9,0.2-1.4
				c0-1.3-0.4-2.5-1.2-3.5c-0.6-0.8-1.5-1.4-2.4-1.7l-0.1,0v-4.4c0-1.1-0.2-2.1-0.6-3.1l0-0.1l0,0c0.8-1.4,1.2-3,1.2-4.7l0-2l0,0
				l0-9.5c0-0.7-0.3-1.4-0.8-1.9c-0.5-0.5-1.2-0.8-1.9-0.8c-0.7,0-1.4,0.3-1.9,0.8l-2.4,2.4l-0.1,0c-0.7-0.1-1.3-0.2-2-0.2h0
				c-0.7,0-1.4,0.1-2.1,0.2l-0.1,0L25.8,15c-0.5-0.5-1.2-0.8-1.9-0.8c-0.7,0-1.4,0.3-1.9,0.8c-0.5,0.5-0.8,1.2-0.8,1.9l0,11.5
				c0,1.6,0.4,3.2,1.2,4.6l0,0.1l0,0.1c-0.1,0.3-0.2,0.6-0.3,1c-0.1,0.3-0.2,0.7-0.2,1l0,0.3l-3.4-3.4c-0.3-0.3-0.8-0.3-1,0
				c-3,3-3,7.8,0,10.8l1.1,1.1l0,0.1c-0.2,0.6-0.4,1.3-0.4,2c0,0.5,0.1,0.9,0.2,1.4l0,0.2h-0.3c-1.1,0-2,0.9-2,2v1.1
				C16.1,51.3,16.7,51.8,17.4,51.8z M39,42.3l0.2,0.1c1.2,0.7,2,2.1,2,3.5c0,0.7-0.2,1.3-0.5,1.9c-0.1,0.2-0.1,0.5,0,0.7
				c0.1,0.2,0.4,0.4,0.6,0.4h1.4c0.3,0,0.5,0.2,0.5,0.5v0.9H39V42.3z M37.6,50.4h-2.7v-8.5c0-0.4-0.3-0.7-0.7-0.7
				c-0.4,0-0.7,0.3-0.7,0.7v8.5h-6v-8.5c0-0.4-0.3-0.7-0.7-0.7c-0.4,0-0.7,0.3-0.7,0.7v8.5h-2.7v-0.2c0-1,0-13.9,0-13.9
				c0-0.5,0.1-1,0.2-1.5l0.1-0.3l0.2,0.2c0.1,0.1,0.1,0.2,0.2,0.2c1.7,1.7,4.1,2.7,6.5,2.7h0c2.5,0,4.8-1,6.5-2.7
				c0.1-0.1,0.1-0.1,0.2-0.2l0.2-0.2l0.1,0.3c0.1,0.5,0.1,1,0.1,1.5V50.4z M38.2,28.6c-0.1,4.2-3.5,7.6-7.7,7.6
				c-4.3,0-7.8-3.5-7.8-7.8v-2.1c0-2.2,0.9-4.3,2.6-5.8l0,0l1.3,0c1.3,0,2.6,0.6,3.4,1.6c0.2,0.3,0.6,0.3,0.9,0.1
				c0,0,0.1-0.1,0.1-0.1c0.4-0.5,0.9-0.9,1.5-1.2c0.6-0.3,1.2-0.4,1.9-0.4l1.3,0l0,0c0.1,0.1,0.2,0.2,0.3,0.2
				c1.5,1.5,2.3,3.4,2.3,5.5L38.2,28.6z M36,16L36,16c0.2-0.2,0.6-0.4,0.9-0.4c0,0,0,0,0,0c0.3,0,0.7,0.1,0.9,0.4
				c0.2,0.2,0.4,0.6,0.4,0.9l0,4.5L37.9,21c-0.3-0.4-0.6-0.8-1-1.1c-0.8-0.8-1.7-1.4-2.6-1.8l-0.2-0.1L36,16z M27.7,19.1
				c0.9-0.3,1.8-0.5,2.8-0.5h0c1,0,1.9,0.2,2.8,0.5l0.5,0.2l-0.5,0.1c-1,0.2-1.9,0.7-2.7,1.3l-0.1,0.1l-0.1-0.1
				c-0.8-0.7-1.7-1.1-2.6-1.3l-0.5-0.1L27.7,19.1z M22.6,17L22.6,17c0-0.3,0.1-0.7,0.4-0.9c0.2-0.2,0.6-0.4,0.9-0.4
				c0.3,0,0.7,0.1,0.9,0.4l1.9,1.9l-0.2,0.1c-1.4,0.7-2.7,1.7-3.6,3l-0.3,0.4L22.6,17L22.6,17L22.6,17z M18.5,41.8
				c-2.1-2.1-2.4-5.6-0.6-8l0.1-0.1l3.8,3.8v3.3l-0.1,0c-0.9,0.3-1.7,0.9-2.3,1.7l-0.1,0.1L18.5,41.8z M17.6,49.5
				c0-0.3,0.2-0.5,0.5-0.5h1.4c0.3,0,0.5-0.1,0.6-0.4c0.1-0.2,0.1-0.5,0-0.7c-0.3-0.6-0.5-1.3-0.5-1.9c0-0.6,0.1-1.2,0.4-1.8
				c0-0.1,0.1-0.1,0.1-0.2v0l0,0c0.4-0.6,0.9-1.1,1.5-1.5l0.2-0.1v0.3c0,0,0,6.6,0,7.6l0,0.2h-4.3V49.5z"/>
			<path class="st0" d="M27.4,23.4c0-0.1-0.1-0.1-0.2-0.2c0,0-0.1-0.1-0.1-0.1c0,0-0.1,0-0.1-0.1c-0.1,0-0.2,0-0.2,0
				c-0.1,0-0.2,0-0.2,0c-0.1,0-0.1,0-0.1,0.1c-0.2,0.1-0.3,0.2-0.4,0.4c0,0.1-0.1,0.2-0.1,0.3c0,0.2,0.1,0.5,0.3,0.6
				c0,0,0.1,0.1,0.1,0.1c0.1,0.1,0.2,0.1,0.3,0.1c0.1,0,0.2,0,0.3,0c0,0,0.1,0,0.1-0.1c0,0,0.1-0.1,0.1-0.1c0.1-0.1,0.2-0.2,0.2-0.3
				c0,0,0-0.1,0-0.1c0-0.1,0-0.1,0-0.2c0-0.1,0-0.2-0.1-0.3C27.5,23.5,27.4,23.4,27.4,23.4z"/>
			<path class="st0" d="M30.8,25.4H30c-0.4,0-0.7,0.3-0.7,0.7c0,0.4,0.3,0.7,0.7,0.7h0.8c0.4,0,0.7-0.3,0.7-0.7
				C31.6,25.7,31.2,25.4,30.8,25.4z"/>
		</g>
	</g>
	<path class="st1" d="M30,66c-1.9,0-3.8-0.5-5.5-1.5l-18.9-11C2.1,51.6,0,47.9,0,44V22c0-3.9,2.1-7.6,5.5-9.6l18.9-11
		c3.4-2,7.7-2,11.1,0l18.9,11c3.4,2,5.5,5.7,5.5,9.6V44c0,3.9-2.1,7.6-5.5,9.6l-18.9,11C33.8,65.5,31.9,66,30,66z M30,1.5
		c-1.7,0-3.3,0.4-4.8,1.3l-18.9,11c-3,1.7-4.8,4.9-4.8,8.3V44c0,3.4,1.8,6.6,4.8,8.3l18.9,11c3,1.7,6.6,1.7,9.6,0l18.9-11
		c3-1.7,4.8-4.9,4.8-8.3V22c0-3.4-1.8-6.6-4.8-8.3l-18.9-11C33.3,1.9,31.7,1.5,30,1.5z"/>
</g>
</svg>
