<?xml version="1.0" encoding="utf-8"?>
<!-- Generator: Adobe Illustrator 26.4.1, SVG Export Plug-In . SVG Version: 6.00 Build 0)  -->
<svg version="1.1" id="Capa_1" xmlns="http://www.w3.org/2000/svg" xmlns:xlink="http://www.w3.org/1999/xlink" x="0px" y="0px"
	 viewBox="0 0 60 66" style="enable-background:new 0 0 60 66;" xml:space="preserve">
<style type="text/css">
	.st0{fill:#363769;}
	.st1{fill:#373769;}
</style>
<g>
	<path class="st0" d="M50.7,24.3c-0.2,0-0.4,0-0.7,0.2c-0.1,0.1-0.4,0.2-0.8,0.2c-1.5,0-4.3-1.2-7.1-4c-3.2-3.3-6.3-4.4-8.1-4.4
		c-0.8,0-1.4,0.2-1.8,0.6l-3.2,3.2c-1.1,1.1-1,5.1,3.8,9.9c1.5,1.5,2.4,2.7,2.8,3.7l0,0.1l-0.1-0.1c-1.2-0.7-2.4-1.6-3.6-2.8
		c-2.7-2.7-5.9-4.4-8.1-4.4c-0.8,0-1.4,0.2-1.8,0.6l-3.2,3.2c-1.1,1.1-1,5.1,3.8,9.9c1.3,1.3,2.2,2.3,2.6,3.6l0,0.1l-0.1-0.1
		c-1.1-0.7-2.3-1.6-3.4-2.7c-2.6-2.7-5.9-4.4-8.1-4.4c-0.8,0-1.3,0.2-1.7,0.6l-3.2,3.2c-0.3,0.3-0.2,0.5-0.2,0.7
		c0.1,0.3,0.3,0.5,0.5,0.5c0.1,0,0.4,0.1,0.7-0.2c0.1-0.1,0.4-0.2,0.8-0.2c1.5,0,4.3,1.2,7.1,4c2.7,2.7,5.9,4.4,8.1,4.4
		c0.8,0,1.4-0.2,1.8-0.6l3.2-3.2c1.1-1.1,1-5.1-3.8-9.9c-1.7-1.7-2.5-2.8-2.6-3.6l0-0.1l0.1,0c1.2,0.7,2.3,1.6,3.4,2.8
		c2.7,2.7,5.9,4.4,8.1,4.4c0.8,0,1.4-0.2,1.8-0.6l3.2-3.2l0,0l0.1-0.1c1.1-1.3,0.6-5.3-3.9-9.9c-1.8-1.8-2.4-2.6-2.5-3.6l0-0.1
		l0.1,0c1.1,0.7,2.2,1.6,3.4,2.7c3.2,3.3,6.3,4.4,8.1,4.4c0.8,0,1.4-0.2,1.8-0.6l3.2-3.2c0.2-0.2,0.3-0.4,0.2-0.7v0
		C51.2,24.6,51,24.4,50.7,24.3z M36.1,26.8c4.1,4.1,4.3,7.4,3.8,7.9l-0.1,0c-0.1,0.1-0.4,0.2-0.7,0.2c-0.8,0-1.7-0.3-1.7-0.3l0,0
		l0,0c-0.3-1.5-0.9-3-3.5-5.6c-3.9-3.9-4.3-7.2-3.8-7.9l0.1-0.1c0.5-0.4,1.8,0,2.9,0.4l0,0l0,0C33.1,23.3,33.6,24.3,36.1,26.8z
		 M31.7,19.5l1.6-1.6c0.1-0.1,0.4-0.2,0.7-0.2c1.4,0,4.1,1.1,7.1,4c2.4,2.4,5,4,7.2,4.4l0.1,0l-1.6,1.6c-0.1,0.1-0.4,0.2-0.8,0.2
		c-1.4,0-4.1-1.1-7.1-4c-1.6-1.6-3.2-2.8-4.8-3.6c0,0-0.1,0-0.1-0.1l0,0C33.7,20.1,32.8,19.7,31.7,19.5L31.7,19.5z M38.4,36.3
		l-1.6,1.6c-0.1,0.1-0.4,0.2-0.8,0.2c-1.5,0-4.1-1.1-7.1-4c-1.4-1.4-4.2-3.9-7.2-4.4l-0.1,0l1.6-1.6c0.1-0.1,0.4-0.2,0.7-0.2
		c1.4,0,4.1,1.1,7.1,4C32.5,33.3,35.3,35.8,38.4,36.3L38.4,36.3z M21,42.1c1.6,1.7,3.3,2.9,5,3.6c0.4,0.2,0.7,0.3,1,0.4
		c0.4,0.1,0.8,0.2,1.2,0.3l0.1,0l-1.6,1.6c-0.1,0.1-0.4,0.2-0.8,0.2c-1.5,0-4.1-1.1-7.1-4c-2.4-2.4-5-4-7.2-4.4l-0.1,0l1.6-1.6
		c0.1-0.1,0.4-0.2,0.8-0.2C15.3,38.1,18,39.1,21,42.1z M26,37c4.1,4.1,4.3,7.4,3.8,7.9c-0.1,0.1-0.4,0.2-0.7,0.2
		c-0.8,0-1.8-0.4-2.1-0.5l0,0l0,0c-0.1-2.2-1.4-3.7-3.1-5.4c-4.1-4.1-4.3-7.4-3.8-7.9l0,0c0.5-0.4,1.8-0.1,2.8,0.3l0,0l0,0
		C22.8,33,23.2,34.2,26,37z"/>
	<path class="st1" d="M30,66c-1.9,0-3.8-0.5-5.5-1.5l-18.9-11C2.1,51.6,0,47.9,0,44V22c0-3.9,2.1-7.6,5.5-9.6l18.9-11
		c3.4-2,7.7-2,11.1,0l18.9,11c3.4,2,5.5,5.7,5.5,9.6V44c0,3.9-2.1,7.6-5.5,9.6l-18.9,11C33.8,65.5,31.9,66,30,66z M30,1.5
		c-1.7,0-3.3,0.4-4.8,1.3l-18.9,11c-3,1.7-4.8,4.9-4.8,8.3V44c0,3.4,1.8,6.6,4.8,8.3l18.9,11c3,1.7,6.6,1.7,9.6,0l18.9-11
		c3-1.7,4.8-4.9,4.8-8.3V22c0-3.4-1.8-6.6-4.8-8.3l-18.9-11C33.3,1.9,31.7,1.5,30,1.5z"/>
</g>
</svg>
