<?xml version="1.0" encoding="utf-8"?>
<!-- Generator: Adobe Illustrator 26.4.1, SVG Export Plug-In . SVG Version: 6.00 Build 0)  -->
<svg version="1.1" id="Capa_1" xmlns="http://www.w3.org/2000/svg" xmlns:xlink="http://www.w3.org/1999/xlink" x="0px" y="0px"
	 viewBox="0 0 55 55" style="enable-background:new 0 0 55 55;" xml:space="preserve">
<style type="text/css">
	.st0{fill:#373869;}
</style>
<g>
	<path class="st0" d="M47.6,10.9c-4.1-4-8.2-5.8-12.2-5.2c-4.7,0.6-7.8,4.2-9,5.9c-4.3-1.1-5.1-4.8-5.2-4.9
		c-0.1-0.3-0.2-0.6-0.5-0.7c-0.3-0.2-0.6-0.2-0.8-0.1c-0.3,0.1-0.5,0.2-0.7,0.5C19,6.5,19,6.8,19.1,7.1c0,0.2,1.3,5.8,7.7,6.9
		l0.8,0.1l0.4-0.7C28,13.2,31,8.6,35.7,8c3.3-0.4,6.8,1.1,10.4,4.6c7.2,7,7.1,16.1,4.6,22.2c-0.2,0.4-0.4,0.9-0.6,1.3
		c-0.7-0.3-1.5,0.3-1.5,1.1c0,0.3,0.1,0.6,0.4,0.8c-0.3,0.5-0.6,0.9-1,1.4c-0.2-0.4-0.6-0.6-1-0.6c-0.6,0-1.1,0.5-1.1,1.1
		c0,0.5,0.3,0.9,0.8,1.1c-0.4,0.5-0.9,0.9-1.3,1.3c-0.2-0.4-0.6-0.8-1.1-0.8c-0.6,0-1.1,0.5-1.1,1.1c0,0.4,0.2,0.8,0.5,1
		c-0.5,0.4-1,0.7-1.4,0.9c-0.2-0.2-0.4-0.3-0.7-0.3c-0.6,0-1.1,0.5-1.1,1.1c0,0,0,0,0,0c-2.5,1.1-5.1,1.6-7.8,1.5l-0.2,0
		c0,0-2.7,0.4-6.7-0.6c0.3-0.2,0.6-0.5,0.6-1c0-0.6-0.5-1.1-1.1-1.1c-0.6,0-1.1,0.5-1.1,1.1c0,0.2,0.1,0.4,0.1,0.5
		c-1.8-0.6-3.9-1.4-6-2.7l-0.9-0.5l-0.6,0.8c0,0-0.6,0.7-1.6,0.8c-1,0.1-2.3-0.6-3.6-2c-1-1-2.3-1.3-3.5-0.8c-0.9,0.4-3,1.8-3,6.7
		c0,0.6,0.5,1.1,1.1,1.1c0.6,0,1.1-0.5,1.1-1.1c0-2.8,0.9-4.2,1.6-4.5c0.4-0.2,0.8-0.1,1.1,0.3c1.3,1.3,2.5,2.1,3.8,2.4
		c0.3,0.1,0.6,0.1,0.8,0.2c0.3,0,0.6,0,0.8,0c1.1-0.1,1.9-0.5,2.4-0.9c5.7,3.2,10.7,3.7,13.2,3.7c0.9,0,1.5-0.1,1.7-0.1
		c0.2,0,0.3,0,0.5,0c8.5,0,16.1-5.3,19.6-13.6C56.3,27,54.4,17.5,47.6,10.9z"/>
	<path class="st0" d="M6.7,37.4c3.4-2.1,8.4,0,9.8,0.7c0.1,0,0.2,0.1,0.2,0.1l1,0.6l0.6-0.7c1.2-1.4,2.6-1.9,3.9-2
		c-0.5,0.1-0.8,0.6-0.8,1.1c0,0.6,0.5,1.1,1.1,1.1s1.1-0.5,1.1-1.1c0-0.6-0.4-1-1-1.1c1.2,0,2.2,0.3,2.3,0.3l1.3,0.4l0.2-1.4
		c0.3-2.4,3.6-3.7,3.7-3.7l0.7-0.3v-6.6l-0.6-0.3c-2.4-1.2-2.5-4.4-2.5-4.5l0-0.9l-0.9-0.2c-10.5-2-12-9.4-12-9.7
		c-0.1-0.3-0.2-0.6-0.5-0.7c-0.2-0.2-0.5-0.2-0.8-0.2c-0.6,0.1-1,0.7-0.9,1.3c0.1,0.4,1.7,8.8,13,11.3c0.2,1.4,0.9,3.7,3.1,5.2v3.7
		c-1.3,0.6-3.3,1.9-4.1,4.1c-1.7-0.3-4.8-0.3-7.3,2c-2.2-1-7.5-3-11.7-0.5c-3.3,2-5,6.3-5,12.8c0,0.6,0.5,1.1,1.1,1.1
		s1.1-0.5,1.1-1.1C2.8,42.6,4.1,39,6.7,37.4z"/>
	<path class="st0" d="M41.6,35.5c0.6,0,1.1-0.5,1.1-1.1c0-0.6-0.5-1.1-1.1-1.1s-1.1,0.5-1.1,1.1C40.4,35,40.9,35.5,41.6,35.5z"/>
	<path class="st0" d="M47,35.5c0.6,0,1.1-0.5,1.1-1.1c0-0.6-0.5-1.1-1.1-1.1c-0.6,0-1.1,0.5-1.1,1.1C45.9,35,46.4,35.5,47,35.5z"/>
	<path class="st0" d="M49.7,32.8c0.6,0,1.1-0.5,1.1-1.1c0-0.6-0.5-1.1-1.1-1.1c-0.6,0-1.1,0.5-1.1,1.1
		C48.6,32.3,49.1,32.8,49.7,32.8z"/>
	<path class="st0" d="M27.9,36c-0.6,0-1.1,0.5-1.1,1.1c0,0.6,0.5,1.1,1.1,1.1c0.6,0,1.1-0.5,1.1-1.1C29.1,36.5,28.6,36,27.9,36z"/>
	<path class="st0" d="M33.4,38.3c0.6,0,1.1-0.5,1.1-1.1c0-0.6-0.5-1.1-1.1-1.1c-0.6,0-1.1,0.5-1.1,1.1
		C32.3,37.8,32.8,38.3,33.4,38.3z"/>
	<path class="st0" d="M38.8,38.3c0.6,0,1.1-0.5,1.1-1.1c0-0.6-0.5-1.1-1.1-1.1s-1.1,0.5-1.1,1.1C37.7,37.8,38.2,38.3,38.8,38.3z"/>
	<path class="st0" d="M44.3,38.3c0.6,0,1.1-0.5,1.1-1.1c0-0.6-0.5-1.1-1.1-1.1s-1.1,0.5-1.1,1.1C43.2,37.8,43.7,38.3,44.3,38.3z"/>
	<path class="st0" d="M13.2,39.9c0,0.6,0.5,1.1,1.1,1.1c0.6,0,1.1-0.5,1.1-1.1c0-0.6-0.5-1.1-1.1-1.1C13.7,38.8,13.2,39.3,13.2,39.9
		z"/>
	<path class="st0" d="M18.7,39.9c0,0.6,0.5,1.1,1.1,1.1c0.6,0,1.1-0.5,1.1-1.1c0-0.6-0.5-1.1-1.1-1.1C19.2,38.8,18.7,39.3,18.7,39.9
		z"/>
	<path class="st0" d="M22.5,41.5c-0.6,0-1.1,0.5-1.1,1.1c0,0.6,0.5,1.1,1.1,1.1s1.1-0.5,1.1-1.1C23.6,42,23.1,41.5,22.5,41.5z"/>
	<path class="st0" d="M25.2,38.8c-0.6,0-1.1,0.5-1.1,1.1c0,0.6,0.5,1.1,1.1,1.1c0.6,0,1.1-0.5,1.1-1.1
		C26.4,39.3,25.9,38.8,25.2,38.8z"/>
	<path class="st0" d="M30.7,38.8c-0.6,0-1.1,0.5-1.1,1.1c0,0.6,0.5,1.1,1.1,1.1c0.6,0,1.1-0.5,1.1-1.1
		C31.8,39.3,31.3,38.8,30.7,38.8z"/>
	<path class="st0" d="M30.7,44.3c-0.6,0-1.1,0.5-1.1,1.1c0,0.6,0.5,1.1,1.1,1.1c0.6,0,1.1-0.5,1.1-1.1
		C31.8,44.8,31.3,44.3,30.7,44.3z"/>
	<path class="st0" d="M27.9,41.5c-0.6,0-1.1,0.5-1.1,1.1c0,0.6,0.5,1.1,1.1,1.1c0.6,0,1.1-0.5,1.1-1.1C29.1,42,28.6,41.5,27.9,41.5z
		"/>
	<path class="st0" d="M33.4,43.8c0.6,0,1.1-0.5,1.1-1.1c0-0.6-0.5-1.1-1.1-1.1c-0.6,0-1.1,0.5-1.1,1.1
		C32.3,43.3,32.8,43.8,33.4,43.8z"/>
	<path class="st0" d="M36.1,41.1c0.6,0,1.1-0.5,1.1-1.1c0-0.6-0.5-1.1-1.1-1.1c-0.6,0-1.1,0.5-1.1,1.1C35,40.6,35.5,41.1,36.1,41.1z
		"/>
	<path class="st0" d="M41.6,41.1c0.6,0,1.1-0.5,1.1-1.1c0-0.6-0.5-1.1-1.1-1.1s-1.1,0.5-1.1,1.1C40.4,40.6,40.9,41.1,41.6,41.1z"/>
	<path class="st0" d="M36.1,46.6c0.6,0,1.1-0.5,1.1-1.1c0-0.6-0.5-1.1-1.1-1.1c-0.6,0-1.1,0.5-1.1,1.1C35,46.1,35.5,46.6,36.1,46.6z
		"/>
	<path class="st0" d="M38.8,43.8c0.6,0,1.1-0.5,1.1-1.1c0-0.6-0.5-1.1-1.1-1.1s-1.1,0.5-1.1,1.1C37.7,43.3,38.2,43.8,38.8,43.8z"/>
</g>
</svg>
