<?xml version="1.0" encoding="utf-8"?>
<!-- Generator: Adobe Illustrator 26.4.1, SVG Export Plug-In . SVG Version: 6.00 Build 0)  -->
<svg version="1.1" id="Capa_1" xmlns="http://www.w3.org/2000/svg" xmlns:xlink="http://www.w3.org/1999/xlink" x="0px" y="0px"
	 viewBox="0 0 60 66" style="enable-background:new 0 0 60 66;" xml:space="preserve">
<style type="text/css">
	.st0{fill:#373869;}
	.st1{fill:#373769;}
</style>
<g>
	<g>
		<g>
			<path class="st0" d="M44.8,21c-3-2.9-6-4.2-9-3.8c-3.6,0.5-5.9,3.3-6.6,4.3c-3.3-0.8-4-3.7-4.1-3.8c-0.1-0.4-0.4-0.6-0.8-0.5
				c-0.4,0.1-0.6,0.4-0.5,0.8c0,0.2,0.9,4.1,5.6,4.9l0.5,0.1l0.2-0.4c0,0,2.2-3.6,5.9-4.1c2.5-0.3,5.1,0.8,7.8,3.4
				c5.4,5.2,5.3,11.9,3.4,16.5c-0.2,0.4-0.3,0.7-0.5,1.1c-0.1-0.1-0.2-0.1-0.3-0.1c-0.4,0-0.7,0.3-0.7,0.7c0,0.2,0.1,0.5,0.3,0.6
				c-0.3,0.5-0.6,1-1,1.4c0-0.4-0.3-0.7-0.7-0.7c-0.4,0-0.7,0.3-0.7,0.7c0,0.4,0.3,0.7,0.7,0.7c0,0,0.1,0,0.1,0
				c-0.5,0.5-0.9,1-1.5,1.4c0,0,0,0,0,0c0-0.4-0.3-0.7-0.7-0.7c-0.4,0-0.7,0.3-0.7,0.7c0,0.3,0.2,0.6,0.6,0.7
				c-0.5,0.3-0.9,0.7-1.4,0.9c-0.1-0.1-0.3-0.2-0.5-0.2c-0.4,0-0.7,0.3-0.7,0.7c0,0,0,0.1,0,0.1c-1.8,0.8-3.9,1.2-6,1.2h-0.1l-0.1,0
				c0,0-5,0.6-10.7-2.8l-0.5-0.3l-0.4,0.5c0,0-0.5,0.6-1.3,0.6c-0.8,0.1-1.8-0.5-2.8-1.5c-0.7-0.7-1.6-0.9-2.5-0.5
				c-0.6,0.3-2.1,1.3-2.1,4.7c0,0.4,0.3,0.7,0.7,0.7c0.4,0,0.7-0.3,0.7-0.7c0-2.2,0.7-3.2,1.3-3.5c0.3-0.1,0.7-0.1,1,0.2
				c0.9,0.9,1.8,1.5,2.7,1.7c0.1,0.1,0.2,0.1,0.4,0.1c0.1,0,0.1,0,0.1,0c0.2,0,0.4,0,0.6,0c0.8-0.1,1.4-0.4,1.8-0.7
				c4.2,2.4,7.9,2.8,9.8,2.8c0.6,0,1.1,0,1.2-0.1c6.4,0.1,12.1-3.7,14.7-9.9C51.2,32.6,49.8,25.7,44.8,21z"/>
			<path class="st0" d="M14.4,40.1c2.6-1.6,6.4,0,7.5,0.5c0,0,0.1,0.1,0.1,0.1c0.1,0,0.2,0.1,0.2,0.1l0.5,0.3l0.4-0.4
				c2-2.3,5-1.4,5.1-1.3l0.8,0.3l0.1-0.8c0.2-1.9,2.9-2.9,2.9-2.9l0.4-0.2v-4.6L32,30.9c-1.9-0.9-2-3.4-2-3.4l0-0.5l-0.5-0.1
				c-7.9-1.5-9-7-9.1-7.2c-0.1-0.4-0.4-0.6-0.8-0.5c-0.4,0.1-0.6,0.4-0.5,0.8c0,0.3,1.3,6.4,9.7,8.2c0.1,0.9,0.6,2.8,2.3,3.8v2.9
				c-0.8,0.4-2.6,1.4-3.1,3.1c-1.2-0.2-3.6-0.4-5.5,1.5c-1.4-0.6-5.5-2.3-8.6-0.4c-2.4,1.4-3.6,4.5-3.6,9.2c0,0.4,0.3,0.7,0.7,0.7
				c0.4,0,0.7-0.3,0.7-0.7C11.5,44,12.5,41.3,14.4,40.1z"/>
			<path class="st0" d="M40.4,37.4c0.4,0,0.7,0.3,0.7,0.7c0,0.4-0.3,0.7-0.7,0.7c-0.4,0-0.7-0.3-0.7-0.7
				C39.8,37.7,40.1,37.4,40.4,37.4z"/>
			<path class="st0" d="M44.5,37.4c0.4,0,0.7,0.3,0.7,0.7c0,0.4-0.3,0.7-0.7,0.7c-0.4,0-0.7-0.3-0.7-0.7
				C43.8,37.7,44.1,37.4,44.5,37.4z"/>
			<path class="st0" d="M46.5,35.4c0.4,0,0.7,0.3,0.7,0.7c0,0.4-0.3,0.7-0.7,0.7c-0.4,0-0.7-0.3-0.7-0.7
				C45.8,35.7,46.1,35.4,46.5,35.4z"/>
			<path class="st0" d="M26.3,39.4c0.4,0,0.7,0.3,0.7,0.7c0,0.4-0.3,0.7-0.7,0.7c-0.4,0-0.7-0.3-0.7-0.7
				C25.6,39.7,25.9,39.4,26.3,39.4z"/>
			<path class="st0" d="M30.3,39.4c0.4,0,0.7,0.3,0.7,0.7c0,0.4-0.3,0.7-0.7,0.7c-0.4,0-0.7-0.3-0.7-0.7
				C29.7,39.7,30,39.4,30.3,39.4z"/>
			<path class="st0" d="M34.4,39.4c0.4,0,0.7,0.3,0.7,0.7c0,0.4-0.3,0.7-0.7,0.7c-0.4,0-0.7-0.3-0.7-0.7
				C33.7,39.7,34,39.4,34.4,39.4z"/>
			<path class="st0" d="M38.4,39.4c0.4,0,0.7,0.3,0.7,0.7c0,0.4-0.3,0.7-0.7,0.7c-0.4,0-0.7-0.3-0.7-0.7
				C37.7,39.7,38.1,39.4,38.4,39.4z"/>
			<path class="st0" d="M42.5,39.4c0.4,0,0.7,0.3,0.7,0.7c0,0.4-0.3,0.7-0.7,0.7c-0.4,0-0.7-0.3-0.7-0.7
				C41.8,39.7,42.1,39.4,42.5,39.4z"/>
			<path class="st0" d="M20.2,41.4c0.4,0,0.7,0.3,0.7,0.7c0,0.4-0.3,0.7-0.7,0.7c-0.4,0-0.7-0.3-0.7-0.7
				C19.5,41.7,19.9,41.4,20.2,41.4z"/>
			<path class="st0" d="M24.3,41.4c0.4,0,0.7,0.3,0.7,0.7c0,0.4-0.3,0.7-0.7,0.7c-0.4,0-0.7-0.3-0.7-0.7
				C23.6,41.7,23.9,41.4,24.3,41.4z"/>
			<path class="st0" d="M26.3,43.5c0.4,0,0.7,0.3,0.7,0.7c0,0.4-0.3,0.7-0.7,0.7c-0.4,0-0.7-0.3-0.7-0.7
				C25.6,43.8,25.9,43.5,26.3,43.5z"/>
			<path class="st0" d="M28.3,41.4c0.4,0,0.7,0.3,0.7,0.7c0,0.4-0.3,0.7-0.7,0.7c-0.4,0-0.7-0.3-0.7-0.7
				C27.6,41.7,27.9,41.4,28.3,41.4z"/>
			<path class="st0" d="M32.4,41.4c0.4,0,0.7,0.3,0.7,0.7c0,0.4-0.3,0.7-0.7,0.7c-0.4,0-0.7-0.3-0.7-0.7
				C31.7,41.7,32,41.4,32.4,41.4z"/>
			<path class="st0" d="M28.3,45.5c0.4,0,0.7,0.3,0.7,0.7c0,0.4-0.3,0.7-0.7,0.7c-0.4,0-0.7-0.3-0.7-0.7
				C27.6,45.8,27.9,45.5,28.3,45.5z"/>
			<path class="st0" d="M32.4,45.5c0.4,0,0.7,0.3,0.7,0.7c0,0.4-0.3,0.7-0.7,0.7c-0.4,0-0.7-0.3-0.7-0.7
				C31.7,45.8,32,45.5,32.4,45.5z"/>
			<path class="st0" d="M30.3,43.5c0.4,0,0.7,0.3,0.7,0.7c0,0.4-0.3,0.7-0.7,0.7c-0.4,0-0.7-0.3-0.7-0.7
				C29.7,43.8,30,43.5,30.3,43.5z"/>
			<path class="st0" d="M34.4,43.5c0.4,0,0.7,0.3,0.7,0.7c0,0.4-0.3,0.7-0.7,0.7c-0.4,0-0.7-0.3-0.7-0.7
				C33.7,43.8,34,43.5,34.4,43.5z"/>
			<path class="st0" d="M36.4,41.4c0.4,0,0.7,0.3,0.7,0.7c0,0.4-0.3,0.7-0.7,0.7c-0.4,0-0.7-0.3-0.7-0.7
				C35.7,41.7,36,41.4,36.4,41.4z"/>
			<path class="st0" d="M40.4,41.4c0.4,0,0.7,0.3,0.7,0.7c0,0.4-0.3,0.7-0.7,0.7c-0.4,0-0.7-0.3-0.7-0.7
				C39.8,41.7,40.1,41.4,40.4,41.4z"/>
			<path class="st0" d="M36.4,45.5c0.4,0,0.7,0.3,0.7,0.7c0,0.4-0.3,0.7-0.7,0.7c-0.4,0-0.7-0.3-0.7-0.7
				C35.7,45.8,36,45.5,36.4,45.5z"/>
			<path class="st0" d="M38.4,43.5c0.4,0,0.7,0.3,0.7,0.7c0,0.4-0.3,0.7-0.7,0.7c-0.4,0-0.7-0.3-0.7-0.7
				C37.7,43.8,38.1,43.5,38.4,43.5z"/>
		</g>
	</g>
	<path class="st1" d="M30,66c-1.9,0-3.8-0.5-5.5-1.5l-18.9-11C2.1,51.6,0,47.9,0,44V22c0-3.9,2.1-7.6,5.5-9.6l18.9-11
		c3.4-2,7.7-2,11.1,0l18.9,11c3.4,2,5.5,5.7,5.5,9.6V44c0,3.9-2.1,7.6-5.5,9.6l-18.9,11C33.8,65.5,31.9,66,30,66z M30,1.5
		c-1.7,0-3.3,0.4-4.8,1.3l-18.9,11c-3,1.7-4.8,4.9-4.8,8.3V44c0,3.4,1.8,6.6,4.8,8.3l18.9,11c3,1.7,6.6,1.7,9.6,0l18.9-11
		c3-1.7,4.8-4.9,4.8-8.3V22c0-3.4-1.8-6.6-4.8-8.3l-18.9-11C33.3,1.9,31.7,1.5,30,1.5z"/>
</g>
</svg>
