<?xml version="1.0" encoding="utf-8"?>
<!-- Generator: Adobe Illustrator 26.4.1, SVG Export Plug-In . SVG Version: 6.00 Build 0)  -->
<svg version="1.1" id="Capa_1" xmlns="http://www.w3.org/2000/svg" xmlns:xlink="http://www.w3.org/1999/xlink" x="0px" y="0px"
	 viewBox="0 0 60 66" style="enable-background:new 0 0 60 66;" xml:space="preserve">
<style type="text/css">
	.st0{fill:#363769;}
	.st1{fill:#373769;}
</style>
<g>
	<g>
		<path class="st0" d="M44.2,36.5c-1.7,0-3.2,1.4-3.2,3.2c0,1.7,1.4,3.2,3.2,3.2c1.7,0,3.2-1.4,3.2-3.2
			C47.3,37.9,45.9,36.5,44.2,36.5z M44.2,41.2c-0.9,0-1.6-0.7-1.6-1.6c0-0.9,0.7-1.6,1.6-1.6s1.6,0.7,1.6,1.6
			C45.7,40.5,45,41.2,44.2,41.2z"/>
		<path class="st0" d="M41.8,44.5h-4.4c-1.6,0-2.9,1.3-2.9,3c0,1.6,1.3,3,2.9,3h4.4c1.6,0,2.9-1.3,2.9-3
			C44.8,45.8,43.4,44.5,41.8,44.5z M38.8,48.8h-1.4c-0.7,0-1.3-0.6-1.3-1.4s0.6-1.4,1.3-1.4h1.4V48.8z M41.8,48.8h-1.4v-2.7h1.4
			c0.7,0,1.3,0.6,1.3,1.4S42.6,48.8,41.8,48.8z"/>
		<path class="st0" d="M29,26.6v-11H15.2v11h1.8V29L17,29.1l-4.3,3.4v17.9h18.8V32.5L27.1,29v-2.5H29z M20.9,17.2h2.5v7.8h-2.5V17.2
			z M16.8,24.9v-7.8h2.5v7.8H16.8z M29.9,48.8H14.3V35.2h15.6V48.8z M30.3,33.6H13.9l4.7-3.7v-3.3h6.9v3.3L30.3,33.6z M24.9,24.9
			v-7.8h2.4v7.8H24.9z"/>
		<path class="st0" d="M21.1,45.9l2,0c2.2-0.2,3.9-2.1,3.9-4.3v-3.4h-1.4c-1.3,0-2.5,0.6-3.4,1.6l-0.2,0.2l-0.2-0.2
			c-0.8-1-2.1-1.6-3.4-1.6h-1.4v3.4C17.2,43.8,18.9,45.7,21.1,45.9z M22.9,42.6c0-1.3,0.9-2.5,2.2-2.7l0.3-0.1v1.8
			c0,1.3-0.9,2.5-2.2,2.7l-0.3,0.1V42.6z M18.8,39.8l0.3,0.1c1.3,0.3,2.2,1.4,2.2,2.7v1.8L21,44.3c-1.3-0.3-2.2-1.4-2.2-2.7V39.8z"
			/>
	</g>
	<path class="st1" d="M30,66c-1.9,0-3.8-0.5-5.5-1.5l-18.9-11C2.1,51.6,0,47.9,0,44V22c0-3.9,2.1-7.6,5.5-9.6l18.9-11
		c3.4-2,7.7-2,11.1,0l18.9,11c3.4,2,5.5,5.7,5.5,9.6V44c0,3.9-2.1,7.6-5.5,9.6l-18.9,11C33.8,65.5,31.9,66,30,66z M30,1.5
		c-1.7,0-3.3,0.4-4.8,1.3l-18.9,11c-3,1.7-4.8,4.9-4.8,8.3V44c0,3.4,1.8,6.6,4.8,8.3l18.9,11c3,1.7,6.6,1.7,9.6,0l18.9-11
		c3-1.7,4.8-4.9,4.8-8.3V22c0-3.4-1.8-6.6-4.8-8.3l-18.9-11C33.3,1.9,31.7,1.5,30,1.5z"/>
</g>
</svg>
