<?xml version="1.0" encoding="utf-8"?>
<!-- Generator: Adobe Illustrator 26.4.1, SVG Export Plug-In . SVG Version: 6.00 Build 0)  -->
<svg version="1.1" id="Capa_1" xmlns="http://www.w3.org/2000/svg" xmlns:xlink="http://www.w3.org/1999/xlink" x="0px" y="0px"
	 viewBox="0 0 60 66" style="enable-background:new 0 0 60 66;" xml:space="preserve">
<style type="text/css">
	.st0{fill:#363769;}
</style>
<g>
	<path class="st0" d="M24.2,42.5l-0.6,0.1c-0.5,0.1-0.8,0.6-0.7,1.1c0.1,0.4,0.5,0.7,0.9,0.7c0.1,0,0.1,0,0.2,0l0.7-0.2
		c0.3,0.7,0.7,1.3,1.2,1.8l-0.4,0.3c-0.4,0.3-0.5,0.9-0.2,1.3c0.2,0.2,0.5,0.4,0.8,0.4c0.2,0,0.4-0.1,0.6-0.2l0.6-0.5
		c0.5,0.4,1,0.7,1.5,1l-0.1,0.8c-0.1,0.5,0.3,1,0.8,1.1c0.1,0,0.1,0,0.2,0c0.5,0,0.9-0.3,0.9-0.8l0.1-0.4c0.3,0.1,0.6,0.1,0.9,0.1
		c1.1,0,1.9-0.6,2.3-1.2c0.6-1,0.4-2.3-0.5-3c-0.1,0-0.1-0.1-0.2-0.1l0.1-0.1c0.4-0.4,0.4-1,0.1-1.3c-0.4-0.4-1-0.4-1.3-0.1
		l-0.7,0.6c-0.6-0.3-1.2-0.7-1.5-1.4l0.7-0.5c0.4-0.3,0.5-0.9,0.2-1.3c-0.3-0.4-0.9-0.5-1.3-0.2l-0.1,0.1c-0.3-0.6-0.8-1-1.4-1.2
		c-1-0.3-2.2-0.1-2.9,0.7C24.5,40.6,24.1,41.3,24.2,42.5z M26.3,41.6c0.2-0.2,0.6-0.3,1-0.2c0.2,0.1,0.3,0.2,0.4,0.4
		c0.4,3,2.4,3.9,3.7,4.4c0.4,0.2,0.7,0.3,0.9,0.5c0.1,0.1,0.2,0.4,0.1,0.5c-0.2,0.3-0.7,0.4-1.5,0.1c-2.2-0.8-3.8-2.4-4.5-4.4
		C26.1,42.5,26,41.9,26.3,41.6z"/>
	<path class="st0" d="M29.4,33.3c-0.4-0.4-1-0.4-1.3,0c-0.4,0.4-0.4,1,0,1.3l13.2,13.2c-3.2,2.5-7.2,3.8-11.3,3.8
		c-10.3,0-18.6-8.3-18.6-18.6c0-4.1,1.3-8,3.8-11.3l7.6,7.5c0.4,0.4,1,0.4,1.3,0c0.4-0.4,0.4-1,0-1.3l-8.3-8.2
		c-0.2-0.2-0.4-0.3-0.7-0.3c-0.3,0-0.5,0.1-0.7,0.3c-3.2,3.7-4.9,8.4-4.9,13.3c0,11.3,9.2,20.5,20.5,20.5c4.9,0,9.6-1.7,13.3-4.9
		c0.2-0.2,0.3-0.4,0.3-0.7c0-0.3-0.1-0.5-0.3-0.7L29.4,33.3z"/>
	<path class="st0" d="M47.3,15.7C42.7,11.1,36.5,8.6,30,8.6H30c-6.5,0-12.6,2.6-17.2,7.2C8.1,20.4,5.6,26.5,5.6,33
		c0,6.5,2.5,12.6,7.1,17.3c4.6,4.6,10.7,7.1,17.3,7.1c6.5,0,12.6-2.5,17.2-7.1c4.6-4.6,7.2-10.7,7.2-17.2V33
		C54.4,26.5,51.9,20.3,47.3,15.7z M52.5,33c0,12.4-10.1,22.5-22.5,22.5C17.6,55.5,7.5,45.4,7.5,33c0-12.4,10.1-22.5,22.5-22.5H30
		C42.4,10.5,52.5,20.6,52.5,33L52.5,33z"/>
	<path class="st0" d="M30,12.5c-4.6,0-8.9,1.5-12.5,4.2c-0.2,0.2-0.4,0.4-0.4,0.7c0,0.3,0.1,0.5,0.3,0.7l20,20c0,0,0,0,0,0l2.3,2.3
		l5.1,5.1c0.2,0.2,0.4,0.3,0.7,0.3c0,0,0,0,0.1,0c0.3,0,0.5-0.2,0.7-0.4c2.8-3.6,4.2-7.9,4.2-12.5C50.5,21.7,41.3,12.5,30,12.5z
		 M39.5,37.5c1.6-1.7,1.5-3.6,1.5-4.9c0,0,0,0,0,0c0,0,0,0,0,0c0,0,0,0,0,0c0-0.4,0-0.9,0-1.1c0.1-0.3,0.4-0.5,0.7-0.4
		c0.5,0,0.9,0.6,0.9,1.6v0c0.1,1.1,0,2.1-0.2,3c0,0.1,0,0.1,0,0.2c-0.3,1.1-0.8,2.2-1.5,3.1L39.5,37.5z M45.4,43.4l-3.2-3.2
		c0.7-0.9,1.3-1.9,1.7-2.9l0.4,0.2c0.1,0.1,0.3,0.1,0.4,0.1c0.4,0,0.7-0.2,0.9-0.5c0.2-0.5,0-1-0.4-1.3l-0.7-0.4
		c0.1-0.6,0.2-1.3,0.2-2h0.5c0.5,0,1-0.4,1-1c0-0.5-0.4-1-1-1h-0.7c-0.4-1.7-1.5-2.4-2.6-2.5c-1.2-0.1-2.4,0.7-2.7,1.9
		c-0.1,0.2-0.1,0.4-0.1,0.7h-0.6c-0.5,0-1,0.4-1,1c0,0.5,0.4,1,1,1h0.6c0,0.9-0.2,1.8-0.9,2.6L19.6,17.6c3.1-2.1,6.7-3.2,10.4-3.2
		c10.3,0,18.6,8.3,18.6,18.6C48.6,36.8,47.5,40.3,45.4,43.4z"/>
	<path class="st0" d="M17,42c0.2,0.1,0.4,0.1,0.7,0.1c0.5,0,1.1-0.1,1.5-0.4c0.7-0.4,1.1-1.1,1.3-1.8s0-1.5-0.4-2.2
		s-1.1-1.1-1.8-1.3c-0.8-0.2-1.5,0-2.2,0.4c-0.7,0.4-1.1,1.1-1.3,1.8c-0.2,0.8,0,1.5,0.4,2.2C15.6,41.4,16.2,41.8,17,42z M16.7,38.9
		c0.1-0.3,0.2-0.5,0.5-0.6c0.2-0.1,0.3-0.2,0.5-0.2c0.1,0,0.2,0,0.2,0c0.3,0.1,0.5,0.2,0.6,0.5c0.1,0.2,0.2,0.5,0.1,0.8
		c-0.1,0.5-0.7,0.9-1.2,0.8C16.9,40,16.5,39.5,16.7,38.9z"/>
	<path class="st0" d="M19.3,29.8c-0.4-0.7-1.1-1.1-1.8-1.3c-0.8-0.2-1.5-0.1-2.2,0.4c-0.7,0.4-1.1,1.1-1.3,1.8
		c-0.2,0.8,0,1.5,0.4,2.2c0.4,0.7,1.1,1.1,1.8,1.3c0.2,0.1,0.4,0.1,0.7,0.1c1.3,0,2.5-0.9,2.8-2.3C19.9,31.3,19.8,30.5,19.3,29.8z
		 M17.8,31.6c-0.1,0.5-0.7,0.9-1.2,0.8c-0.3-0.1-0.5-0.2-0.6-0.5c-0.1-0.2-0.2-0.5-0.1-0.8c0.1-0.3,0.2-0.5,0.5-0.6
		c0.2-0.1,0.3-0.2,0.5-0.2c0.1,0,0.2,0,0.2,0c0.3,0.1,0.5,0.2,0.6,0.5S17.9,31.3,17.8,31.6z"/>
	<path class="st0" d="M29.9,18.4c-0.8-0.2-1.5-0.1-2.2,0.4c-0.7,0.4-1.1,1.1-1.3,1.8c-0.2,0.8-0.1,1.5,0.4,2.2
		c0.4,0.7,1.1,1.1,1.8,1.3c0.2,0.1,0.5,0.1,0.7,0.1c0.5,0,1.1-0.1,1.5-0.4c0.7-0.4,1.1-1.1,1.3-1.8C32.4,20.3,31.4,18.7,29.9,18.4z
		 M30.2,21.4c-0.1,0.3-0.2,0.5-0.5,0.6c-0.2,0.1-0.5,0.2-0.8,0.1c-0.3-0.1-0.5-0.2-0.6-0.5c-0.1-0.2-0.2-0.5-0.1-0.8
		c0.1-0.3,0.2-0.5,0.5-0.6c0.2-0.1,0.3-0.2,0.5-0.2c0.1,0,0.2,0,0.2,0C30,20.3,30.3,20.9,30.2,21.4z"/>
	<path class="st0" d="M37.1,21.5c-0.7-0.2-1.5,0-2.1,0.3c-0.6,0.4-1.1,1-1.2,1.7c-0.2,0.7,0,1.5,0.3,2.1c0.4,0.6,1,1.1,1.7,1.2
		C36,27,36.2,27,36.4,27c0.5,0,1-0.1,1.5-0.4c0.6-0.4,1.1-1,1.2-1.7C39.5,23.4,38.6,21.9,37.1,21.5z M37.3,24.4L37.3,24.4
		c-0.1,0.2-0.2,0.4-0.4,0.5c-0.2,0.1-0.4,0.2-0.7,0.1c-0.2-0.1-0.4-0.2-0.5-0.4c-0.1-0.2-0.2-0.4-0.1-0.7c0.1-0.2,0.2-0.4,0.4-0.5
		c0.1-0.1,0.3-0.1,0.5-0.1c0.1,0,0.1,0,0.2,0c0.2,0.1,0.4,0.2,0.5,0.4C37.3,24,37.3,24.2,37.3,24.4z"/>
	<path class="st0" d="M26.1,32.2c0.2,0,0.4-0.1,0.6-0.2c0.4-0.3,0.5-0.9,0.1-1.3l0,0c-0.3-0.4-0.9-0.5-1.3-0.1
		c-0.4,0.3-0.5,0.9-0.1,1.3l0,0C25.5,32.1,25.8,32.2,26.1,32.2z"/>
</g>
</svg>
