<?xml version="1.0" encoding="utf-8"?>
<!-- Generator: Adobe Illustrator 26.4.1, SVG Export Plug-In . SVG Version: 6.00 Build 0)  -->
<svg version="1.1" id="Capa_1" xmlns="http://www.w3.org/2000/svg" xmlns:xlink="http://www.w3.org/1999/xlink" x="0px" y="0px"
	 viewBox="0 0 55 60" style="enable-background:new 0 0 55 60;" xml:space="preserve">
<style type="text/css">
	.st0{fill:#FFCDA8;}
	.st1{fill:#FF5B47;}
	.st2{fill:#E53E2D;}
	.st3{fill:#FFFFFF;}
	.st4{fill:#E6E6E6;}
</style>
<g>
	<path class="st0" d="M50.1,48.5L32.4,58.7c-3,1.7-6.7,1.7-9.7,0L4.9,48.5c-3-1.7-4.9-4.9-4.9-8.3V19.8c0-3.4,1.8-6.6,4.9-8.3
		L22.6,1.3c3-1.7,6.7-1.7,9.7,0l17.8,10.2c3,1.7,4.9,4.9,4.9,8.3v20.4C55,43.6,53.2,46.8,50.1,48.5z"/>
	<path class="st1" d="M41.3,38c-0.8,3.4-6,5.1-11.7,3.8c-2-0.5-3.7-1.2-5.2-2.1l0,0c-2.7-1.7-4.2-4.1-3.7-6.3
		c0.8-3.4,6-5.1,11.7-3.8C38.1,30.8,42.1,34.6,41.3,38z"/>
	<g>
		<path class="st2" d="M31.1,35.5c-3.1-0.7-5.4-2.6-5.7-4.4c-0.2,0.3-0.4,0.6-0.4,0.9c-0.5,2.2,2.1,4.6,5.7,5.5
			c3.7,0.8,7-0.2,7.6-2.4c0.1-0.3,0.1-0.7,0-1C37,35.5,34.2,36.2,31.1,35.5z"/>
		<path class="st2" d="M27.2,33.8l-0.9,1.5c0,0-3.8,1.3-1.9,4.3c-2.7-1.7-4.2-4.1-3.7-6.3c0.8-3.4,6-5.1,11.7-3.8
			C32.4,29.5,26,30.8,27.2,33.8z"/>
	</g>
	<g>
		<path class="st1" d="M27.3,23.4c-1,4.5-8,6.7-15.5,5c-2.6-0.6-4.9-1.6-6.8-2.8l0,0c-3.5-2.3-5.5-5.4-4.9-8.4c1-4.5,8-6.7,15.5-5
			S28.3,19,27.3,23.4z"/>
		<g>
			<path class="st2" d="M13.8,20.1c-4.1-0.9-7.1-3.4-7.6-5.9c-0.3,0.4-0.5,0.8-0.6,1.2c-0.7,2.9,2.7,6.1,7.6,7.2s9.3-0.3,10-3.2
				c0.1-0.4,0.1-0.9,0-1.3C21.7,20.2,17.9,21,13.8,20.1z"/>
			<path class="st2" d="M8.7,17.8l-1.2,2c0,0-5,1.7-2.5,5.7c-3.5-2.3-5.5-5.4-4.9-8.4c1-4.5,8-6.7,15.5-5C15.6,12.2,7.1,14,8.7,17.8
				z"/>
		</g>
	</g>
	<ellipse class="st3" cx="22.9" cy="40.7" rx="9.9" ry="9.8"/>
	<path class="st4" d="M20.6,50.2c-5.3-1.3-8.5-6.6-7.2-11.8c1.3-5.3,6.6-8.5,11.9-7.2c-2.4-0.6-5.3,3.2-6.6,8.5
		C17.3,44.9,18.2,49.7,20.6,50.2z"/>
	<ellipse class="st3" cx="40.8" cy="15.1" rx="9.9" ry="9.8"/>
	<path class="st4" d="M42.2,24.8c-5.4,0.8-10.4-3-11.2-8.3c-0.8-5.4,3-10.3,8.4-11.1c-2.4,0.3-3.7,5-3,10.3
		C37.2,21.1,39.8,25.1,42.2,24.8z"/>
	<path class="st1" d="M52,45.2c-1.1-0.3-2.3-0.5-3.5-0.6c-7.7-0.8-14.2,2.3-14.7,6.8c-0.2,1.9,0.7,3.7,2.3,5.2l14.1-8.1
		c1.3-0.7,2.4-1.8,3.2-3C53,45.4,52.5,45.3,52,45.2z"/>
	<path class="st2" d="M39.4,47.7c-0.2,0.4-0.4,0.8-0.4,1.3c-0.2,1.5,1.1,3.3,2.7,4.4l2.7-1.5c0,0-1.5-0.6-2.2-1c0,0-0.1-0.1-0.1-0.1
		C40.6,49.9,39.8,48.9,39.4,47.7z"/>
	<path class="st1" d="M2,42.3c-0.6,0.2-1.1,0.4-1.6,0.6c0.7,2.3,2.3,4.3,4.4,5.5l9.1,5.2c3.1-3.1,4.4-6.7,3-9.5
		C15,40.4,8.5,39.6,2,42.3z"/>
	<path class="st2" d="M10.4,42.7c0.1,1.9-1.8,4.9-4.4,6.5l2.5,1.4c2.5-2.1,3.7-4.8,2.7-6.8C11,43.4,10.7,43,10.4,42.7z"/>
	<path class="st1" d="M55,23.7c-6.9,1.4-11.9,5.7-11.3,9.9c0.4,3,3.4,5.2,7.6,6.1h0c1,0.2,2.6,0.5,3.7,0.5V23.7z"/>
	<path class="st2" d="M55,34.1v-2.6c-1.1,0-2.1-0.2-3-0.5c-1.7-0.5-3-1.3-3.7-2.5c-0.1,0.4-0.1,0.9-0.1,1.3c0.2,1.5,1.5,2.7,3.4,3.5
		C52.6,33.8,53.7,34.1,55,34.1z"/>
	<path class="st2" d="M55,24.4v-0.7c-6.9,1.4-11.9,5.7-11.3,9.9c0.4,3,3.4,5.2,7.6,6.1c-3.8-2.8,0.3-6.2,0.3-6.2l0.4-2.3v0
		C49.9,28.9,53.1,25.9,55,24.4z"/>
</g>
</svg>
