<?xml version="1.0" encoding="utf-8"?>
<!-- Generator: Adobe Illustrator 26.4.1, SVG Export Plug-In . SVG Version: 6.00 Build 0)  -->
<svg version="1.1" id="Capa_1" xmlns="http://www.w3.org/2000/svg" xmlns:xlink="http://www.w3.org/1999/xlink" x="0px" y="0px"
	 viewBox="0 0 60 66" style="enable-background:new 0 0 60 66;" xml:space="preserve">
<style type="text/css">
	.st0{fill:#373869;}
</style>
<g>
	<g>
		<path class="st0" d="M33.3,44c-0.6,0-1.1,0.5-1.1,1.1c0,0.6,0.5,1.1,1.1,1.1s1.1-0.5,1.1-1.1C34.3,44.4,33.9,44,33.3,44z"/>
		<path class="st0" d="M14.6,16.7c-5.3,1.8-9.3,4.6-11.4,8.1C3,25,3,25.2,3,25.4v0v5.3c0,0.7,0.7,1.2,1.4,1c2.7-0.9,6.2-1.4,9.8-1.4
			c5.1,0,9.9,1,12.6,2.6c-3.3,2-8.5,2.6-12.5,2.6c-0.2,0-5.1,0.2-9.9-1.4c-0.7-0.2-1.4,0.3-1.4,1v6.1c0,1,0.5,2,1.4,2.6
			c13.2,9.2,33.6,9.9,45,4C53.6,45.5,57,42,57,37.2v-6.9c0-7.3-8.3-12-15.4-14.1c0,0,0,0,0,0c-3.9-1.1-8.3-1.7-12.7-1.7
			C23.8,14.4,18.7,15.3,14.6,16.7z M47.9,21c1.6,2.6,2.5,5.4,2.6,8.2h-2.2c0,0,0,0,0,0c-0.2-3.4-1.5-6.8-3.6-9.7
			C45.9,19.9,46.9,20.4,47.9,21z M13.5,37.6c0.6,1.5,1.4,3,2.4,4.3c-3.7-1.2-6.8-2.9-8.9-5C8.9,37.4,11.2,37.6,13.5,37.6z M19.5,43
			c-1.6-1.5-2.8-3.4-3.7-5.4c0.7,0,1.4-0.1,2.3-0.2c1.1,2.2,2.6,4.3,4.3,6C21.3,43.3,20.4,43.2,19.5,43z M19.4,17.5
			c0.9-0.2,1.9-0.4,2.8-0.5c-1.7,1.7-3.2,3.8-4.3,6c-0.6-0.1-1.3-0.1-1.9-0.1c-0.1,0-0.2,0-0.4,0C16.6,20.9,17.9,19.1,19.4,17.5z
			 M28.9,16.5c4.1,0,8.2,0.6,11.9,1.6c3,2.9,5.1,7.1,5.4,11.1H44c-0.5-5.9-5.7-10.6-11.8-10.6c-3.9,0-7.6,1.9-9.7,5.1
			c-0.7-0.2-1.5-0.3-2.2-0.4c1.4-2.7,3.5-5.1,5.7-6.7C27,16.5,28,16.5,28.9,16.5z M39.6,29.2c-0.5-3.5-3.7-6.3-7.4-6.3
			c-2.1,0-4.1,0.9-5.5,2.4c-0.6-0.3-1.3-0.6-2.1-0.8c1.8-2.3,4.6-3.6,7.6-3.6c4.9,0,9.1,3.8,9.7,8.4H39.6z M28.6,26.3
			c1-0.8,2.3-1.3,3.6-1.3c2.6,0,4.8,1.8,5.3,4.2h-2.3c-0.4-1.2-1.6-2.1-3-2.1c-0.8,0-1.5,0.3-2,0.7C29.8,27.3,29.3,26.8,28.6,26.3z
			 M32.2,29.2c0.6,0,1.1,0.5,1.1,1.1c0,0.6-0.5,1.1-1.1,1.1c-0.6,0-1.2-0.5-1.2-1.1S31.6,29.2,32.2,29.2z M30.2,32.7
			c0.6,0.4,1.3,0.7,2,0.7c1.4,0,2.6-0.9,3-2.1h2.3c-0.5,2.4-2.7,4.2-5.3,4.2c-1.3,0-2.6-0.5-3.6-1.3C29.3,33.7,29.8,33.2,30.2,32.7z
			 M26.7,35.3c1.4,1.5,3.4,2.4,5.5,2.4c3.8,0,6.9-2.8,7.4-6.3h2.2c-0.6,4.7-4.7,8.4-9.7,8.4c-3,0-5.8-1.4-7.6-3.6
			C25.4,35.9,26.1,35.6,26.7,35.3z M44.7,41.1c2.1-2.9,3.4-6.4,3.6-9.8h2.2c-0.2,2.8-1.1,5.6-2.7,8.2C46.7,40.2,45.5,40.7,44.7,41.1
			z M52.7,31.3h2.2c-0.3,2.3-1.7,4.1-3.4,5.7C52.2,35.1,52.6,33.2,52.7,31.3z M15.8,18.5c-1,1.3-1.8,2.8-2.4,4.3
			c-2.3,0-4.5,0.3-6.6,0.7C9.1,21.3,12.3,19.7,15.8,18.5z M5.1,29.2v-3.1c6.7-2,16.5-1.4,21.4,1.3c1.6,0.9,2.5,1.9,2.5,2.8
			c0,0.4-0.2,0.9-0.5,1.2c-3-2.1-8.4-3.3-14.3-3.3C10.9,28.1,7.8,28.5,5.1,29.2z M54.9,37.2c0,4.4-3.6,7.2-6.6,8.7
			C38.1,51.3,18.4,51,5.5,42.1c-0.3-0.2-0.4-0.5-0.4-0.9v-3.1c2.3,2.3,5.5,4.2,9.4,5.6c4.6,1.6,9.7,2.4,14.5,2.4
			c0.6,0,1.1-0.5,1.1-1.1S29.5,44,28.9,44c-1,0-2,0-3-0.1c-2.2-1.6-4.3-4-5.7-6.7c0.7-0.1,1.5-0.3,2.2-0.4c2.2,3.2,5.8,5.1,9.7,5.1
			c6.1,0,11.2-4.7,11.8-10.6h2.2c-0.3,4-2.3,8.2-5.4,11.1c-1.1,0.3-2.3,0.6-3.5,0.8c-0.6,0.1-1,0.7-0.8,1.2c0.1,0.6,0.7,1,1.2,0.8
			c5.4-1,11.4-3.2,15.4-7c0.7-0.7,1.3-1.3,1.8-2V37.2z M54.8,29.2h-2.2c-0.1-1.9-0.5-3.8-1.2-5.6C53.4,25.3,54.5,27.2,54.8,29.2z"/>
	</g>
</g>
</svg>
