<svg version="1.1" id="Layer_1" xmlns="http://www.w3.org/2000/svg" xmlns:xlink="http://www.w3.org/1999/xlink" x="0px" y="0px" width="57px" height="57px" viewBox="0 0 57 57" enable-background="new 0 0 57 57" xml:space="preserve">
<g>
	<path fill="#3DB39E" d="M28.5,56.5c-15.38,0-28-12.621-28-28s12.62-28,28-28c15.378,0,28,12.621,28,28S43.878,56.5,28.5,56.5z"/>
    <path fill="#37A18E" d="M56.5,28.5c0-15.379-12.622-28-28-28v56C43.878,56.5,56.5,43.879,56.5,28.5z"/>
    <path fill="#F2F1EF" d="M33.421,15.374c0-2.713-2.207-4.922-4.921-4.922c-2.715,0-4.922,2.209-4.922,4.922   c0,2.714,2.207,4.923,4.922,4.923C31.214,20.297,33.421,18.088,33.421,15.374z"/>
    <path fill="#E6E5E3" d="M33.421,15.374c0-2.713-2.207-4.922-4.921-4.922v9.845C31.214,20.297,33.421,18.088,33.421,15.374z"/>
    <path fill="#F2F1EF" d="M20.297,39.984v3.28h16.405v-3.28h-3.281V23.578H20.297v3.281h3.281v13.125H20.297z"/>
    <path fill="#E6E5E3" d="M33.421,23.578H28.5v19.687h8.202v-3.28h-3.281V23.578z"/>
</g>
</svg>