<?xml version="1.0" encoding="UTF-8" standalone="no"?>
<!-- Generator: Adobe Illustrator 22.1.0, SVG Export Plug-In . SVG Version: 6.00 Build 0)  -->

<svg
   version="1.1"
   id="Capa_1"
   x="0px"
   y="0px"
   viewBox="0 0 12.5 13.375"
   xml:space="preserve"
   xmlns="http://www.w3.org/2000/svg"><defs
   id="defs2" />
<path
   class="st1"
   d="m 12.1,2.475 -5.7,-2.4 c -0.1,-0.1 -0.3,-0.1 -0.4,0 l -5.7,2.4 C 0.1,2.575 0,2.775 0,2.975 v 7.5 c 0,0.2 0.1,0.4 0.3,0.5 l 5.7,2.4 c 0.1,0 0.1,0 0.2,0 0.1,0 0.1,0 0.2,0 v 0 c 0.2,-0.1 0.7,-0.3 2.2,-0.9 l 3.6,-1.5 c 0.2,-0.1 0.3,-0.3 0.3,-0.5 v -7.5 c -0.1,-0.2 -0.2,-0.4 -0.4,-0.5 z m -1.6,0.5 -4.4,1.8 -1.8,-0.7 4.3,-1.9 z m -8.8,0 4.4,-1.8 1.1,0.4 -4.3,1.9 z m 1.3,4 c 0.3,0 0.5,-0.2 0.5,-0.5 v -1.6 l 2,0.8 v 6.3 l -4.7,-1.9 v -6.3 l 1.6,0.6 v 2 c 0.1,0.4 0.3,0.6 0.6,0.6 z m 3.6,5 v -6.3 l 4.7,-1.9 v 6.3 z"
   id="path2"
   fill="#FFFFFF"/>
</svg>
