<?xml version="1.0" encoding="UTF-8" standalone="no"?>
<!-- Created with Inkscape (http://www.inkscape.org/) -->

<svg
   viewBox="0 0 3.6380208 4.2597919"
   version="1.1"
   xmlns="http://www.w3.org/2000/svg">
  <defs
     id="defs1" />
  <g
     id="layer1"
     transform="translate(-62.441666,-73.554167)">
    <g
       id="g8"
       transform="matrix(0.26458333,0,0,0.26458333,57.778385,72.628125)">
		<g
   id="g3">
			<g
   id="g2">
				<path
   class="st1"
   d="M 29,6.3 C 30,5.8 30.7,5.1 31.3,4.2 31.4,4.1 31.4,3.9 31.3,3.7 31.2,3.5 31,3.5 30.9,3.5 H 18.1 c -0.2,0 -0.3,0.1 -0.4,0.2 -0.1,0.1 -0.1,0.3 0,0.5 0.5,0.9 1.3,1.6 2.3,2.1 0.8,0.4 1.8,0.7 2.7,0.8 v 1.2 h -2.3 c -0.8,0 -1.6,0.6 -1.7,1.5 l -1,7.9 c -0.1,0.5 0.1,1 0.4,1.3 0.3,0.4 0.8,0.6 1.3,0.6 h 10.1 c 0.5,0 0.9,-0.2 1.3,-0.6 0.3,-0.4 0.5,-0.8 0.4,-1.3 l -1,-7.9 C 30.1,9 29.4,8.3 28.5,8.3 H 26.2 V 7.1 C 27.3,7 28.2,6.8 29,6.3 Z m -0.4,3 c 0.4,0 0.7,0.3 0.7,0.6 l 1,7.9 c 0,0.2 0,0.4 -0.2,0.6 -0.1,0.2 -0.3,0.2 -0.5,0.2 H 19.5 C 19.3,18.6 19.1,18.5 19,18.4 18.9,18.2 18.8,18 18.8,17.8 l 1,-7.9 c 0,-0.4 0.3,-0.6 0.7,-0.6 z m -5,-1 V 7.1 h 1.7 V 8.3 Z M 25.9,6.1 H 23.2 C 21.6,6.1 20.1,5.5 19.1,4.4 H 30 c -1,1.1 -2.5,1.7 -4.1,1.7 z"
   id="path2"
   style="fill:#ffffff" />

			</g>

		</g>

		<g
   id="g5">
			<g
   id="g4">
				<path
   class="st1"
   d="m 24.5,10 c -2.2,0 -3.9,1.8 -3.9,3.9 0,2.2 1.8,3.9 3.9,3.9 2.2,0 3.9,-1.8 3.9,-3.9 0,-2.1 -1.7,-3.9 -3.9,-3.9 z m 0,6.9 c -1.6,0 -3,-1.3 -3,-3 0,-1.7 1.3,-3 3,-3 1.7,0 3,1.3 3,3 0,1.7 -1.4,3 -3,3 z"
   id="path3"
   style="fill:#ffffff" />

			</g>

		</g>

		<g
   id="g7">
			<g
   id="g6">
				<path
   class="st1"
   d="m 24.8,13.6 c -0.2,-0.2 -0.5,-0.2 -0.7,0 L 23,14.7 c -0.2,0.2 -0.2,0.5 0,0.7 0.1,0.1 0.2,0.1 0.3,0.1 0.1,0 0.2,0 0.3,-0.1 l 1.1,-1.1 C 25,14.1 25,13.7 24.8,13.6 Z"
   id="path5"
   style="fill:#ffffff" />

			</g>

		</g>

	</g>
  </g>
</svg>
