<?xml version="1.0" encoding="UTF-8" standalone="no"?>
<svg
   version="1.1"
   id="Capa_1"
   x="0px"
   y="0px"
   fill="#FFD45A"
   viewBox="0 0 14.367852 19.775"
   xml:space="preserve"
   width="14.367852"
   height="19.775"
   xmlns="http://www.w3.org/2000/svg"><defs
   id="defs3" />
<g
   id="g3"
   transform="translate(-19.332147,-5.125)">
	<path
   class="st1"
   d="m 30.2,6.1 c -2.3,-1.3 -5,-1.3 -7.5,0 -0.1,0 -0.2,0.1 -0.3,0.2 -2.6,2 -4.2,6 -2.1,9.6 0.4,0.8 1,1.4 1.7,2 0.3,0.2 0.5,0.6 0.5,0.9 v 3.7 h 1.1 c 0.3,1.4 1.5,2.4 2.9,2.4 1.4,0 2.7,-1 2.9,-2.4 h 1.1 v -3.7 c 0,-0.3 0.2,-0.7 0.5,-0.9 0.7,-0.6 1.3,-1.2 1.7,-2 0.6,-1.1 1,-2.3 1,-3.6 0,-2.6 -1.4,-4.9 -3.5,-6.2 z m -2.3,16.4 c -0.2,0.6 -0.8,1 -1.4,1 -0.6,0 -1.2,-0.4 -1.4,-1 z m -4.3,-5.4 c -0.8,-0.5 -1.5,-1.2 -2,-2 -1.7,-3 -0.4,-6 1.6,-7.6 0.1,-0.1 0.1,-0.1 0.2,-0.2 2,-1.1 4.2,-1.1 6,0 1.7,1 2.8,2.9 2.8,4.9 0,1 -0.3,2 -0.8,2.9 -0.5,0.8 -1.2,1.5 -2,2 L 29,17.4 v 1.4 H 24 V 17.4 Z M 29,20.2 V 21 h -5 v -0.8 z"
   id="path2" />
	<path
   class="st1"
   d="m 25.8,15.7 v 0.9 h 1.5 v -0.9 c 0.4,-0.1 0.9,-0.3 1.2,-0.5 l 0.7,0.7 1,-1 -0.7,-0.7 C 29.7,13.8 29.9,13.4 30,13 h 0.9 V 11.5 H 30 c -0.1,-0.4 -0.3,-0.9 -0.5,-1.2 l 0.7,-0.7 -1,-1 -0.7,0.7 C 28.1,9.1 27.7,8.9 27.3,8.8 v -1 H 25.8 V 8.7 C 25.4,8.8 24.9,9 24.6,9.2 l -0.7,-0.7 -1,1 0.7,0.7 c -0.2,0.4 -0.4,0.8 -0.5,1.2 H 22.2 V 13 H 23 c 0.1,0.4 0.3,0.9 0.5,1.2 l -0.7,0.7 1,1 0.7,-0.7 c 0.4,0.3 0.9,0.4 1.3,0.5 z m -1.4,-3.5 c 0,-1.2 0.9,-2.1 2.1,-2.1 1.2,0 2.1,0.9 2.1,2.1 0,1.2 -0.9,2.1 -2.1,2.1 -1.1,0.1 -2.1,-0.9 -2.1,-2.1 z"
   id="path3" />
	<rect
   x="25.799999"
   y="11.5"
   class="st1"
   width="1.5"
   height="1.5"
   id="rect3" />
</g>
</svg>
