<?xml version="1.0" encoding="UTF-8" standalone="no"?>
<svg
   width="5.3135853mm"
   height="2.3084896mm"
   viewBox="0 0 5.3135853 2.3084896"
   version="1.1"
   id="svg1"
   xmlns="http://www.w3.org/2000/svg">
  <defs
     id="defs1" />
  <g
     id="layer1"
     transform="translate(-19.314583,-79.110416)">
    <g
       id="g7"
       transform="matrix(0.26458333,0,0,0.26458333,15.542001,77.212031)">
		<g
   id="g4">
			<g
   id="g2">
				<path
   class="st1"
   d="m 33,15 c -0.1,0 -0.1,0 -0.2,0 L 31,14.1 29.3,14.9 c -0.2,0.1 -0.4,0.1 -0.5,0 -0.1,-0.1 -0.2,-0.3 -0.2,-0.5 l 0.2,-2.2 c 0,-0.3 0.3,-0.5 0.5,-0.4 0.3,0 0.5,0.3 0.4,0.5 l -0.1,1.3 1.1,-0.5 c 0.1,-0.1 0.3,-0.1 0.4,0 l 1.1,0.5 -0.3,-1.3 c 0,-0.2 0,-0.3 0.1,-0.4 L 32.9,11 31.6,10.8 c -0.2,0 -0.3,-0.1 -0.4,-0.3 L 30.6,9.4 30.1,10.5 C 30,10.7 29.7,10.8 29.4,10.7 29.2,10.6 29.1,10.3 29.2,10 l 1,-1.9 c 0.1,-0.2 0.3,-0.3 0.4,-0.3 0,0 0,0 0,0 0.2,0 0.4,0.1 0.4,0.3 l 0.9,1.7 2,0.4 c 0.2,0 0.3,0.2 0.4,0.3 0.1,0.2 0,0.4 -0.1,0.5 l -1.4,1.4 0.4,1.9 c 0,0.2 0,0.4 -0.2,0.5 0.2,0.1 0.1,0.2 0,0.2 z"
   id="path2"
   style="fill:#ffffff" />

			</g>

			<g
   id="g3">
				<path
   class="st1"
   d="m 15.8,15 c -0.1,0 -0.2,0 -0.3,-0.1 -0.1,-0.1 -0.2,-0.3 -0.2,-0.5 L 15.7,12.5 14.4,11 c -0.1,-0.1 -0.2,-0.3 -0.1,-0.5 0.1,-0.2 0.2,-0.3 0.4,-0.3 l 2,-0.4 0.9,-1.7 c 0,-0.1 0.2,-0.2 0.4,-0.2 0.2,0 0.4,0.1 0.4,0.3 l 1,1.9 c 0.1,0.2 0,0.5 -0.2,0.7 -0.2,0.1 -0.5,0 -0.7,-0.2 L 18,9.5 17.4,10.6 c -0.1,0.1 -0.2,0.2 -0.4,0.3 l -1.3,0.1 0.9,0.9 c 0.1,0.1 0.2,0.3 0.1,0.4 l -0.3,1.3 1.1,-0.5 c 0.1,-0.1 0.3,-0.1 0.4,0 l 1.1,0.5 v -1.3 c 0,-0.3 0.2,-0.5 0.4,-0.5 0.3,0 0.5,0.2 0.5,0.4 l 0.2,2.2 c 0,0.2 -0.1,0.4 -0.2,0.5 -0.1,0.1 -0.3,0.1 -0.5,0 L 17.7,14.1 16,14.9 c -0.1,0 -0.1,0.1 -0.2,0.1 z"
   id="path3"
   style="fill:#ffffff" />

			</g>

		</g>

		<g
   id="g6">
			<g
   id="g5">
				<path
   class="st1"
   d="m 21.8,15.9 c -0.1,0 -0.2,0 -0.3,-0.1 -0.1,-0.1 -0.2,-0.3 -0.2,-0.5 l 0.5,-2.6 -1.9,-1.9 C 19.8,10.7 19.7,10.5 19.8,10.3 19.9,10.1 20,10 20.2,10 L 23,9.5 24,7.4 c 0.2,-0.3 0.7,-0.3 0.9,0 L 26,9.5 28.8,10 c 0.2,0 0.3,0.2 0.4,0.3 0.1,0.2 0,0.4 -0.1,0.5 l -1.9,1.9 0.5,2.6 c 0,0.2 0,0.4 -0.2,0.5 -0.1,0.1 -0.3,0.1 -0.5,0.1 L 24.6,14.8 22,15.9 c -0.1,0 -0.1,0 -0.2,0 z m 2.6,-2.2 c 0.1,0 0.1,0 0.2,0 l 1.7,0.8 -0.3,-1.9 c 0,-0.2 0,-0.3 0.1,-0.4 l 1.4,-1.4 -2,-0.3 c -0.2,0 -0.3,-0.1 -0.4,-0.3 l -0.8,-1.5 -0.8,1.5 c -0.1,0.1 -0.2,0.2 -0.4,0.3 l -2,0.3 1.4,1.4 c 0.1,0.1 0.2,0.3 0.1,0.4 l -0.3,1.9 1.7,-0.8 c 0.3,0 0.3,0 0.4,0 z"
   id="path4"
   style="fill:#ffffff" />

			</g>

		</g>

	</g>
  </g>
</svg>
