<?xml version="1.0" encoding="UTF-8" standalone="no"?>
<svg
   width="4.1804166mm"
   height="4.1804166mm"
   viewBox="0 0 4.1804166 4.1804166"
   version="1.1"
   id="svg1"
   xmlns="http://www.w3.org/2000/svg">
  <defs
     id="defs1" />
  <g
     id="layer1"
     transform="translate(-70.379166,-58.472917)">
    <g
       id="g5"
       transform="matrix(0.26458333,0,0,0.26458333,65.987083,57.520417)">
		<g
   id="g4">
			<g
   id="g3">
				<path
   class="st1"
   d="m 22,11.8 h 0.7 l -0.2,1.3 c 0,0.3 0.3,0.4 0.6,0.4 0.2,0 0.4,-0.1 0.4,-0.3 l 0.3,-1.4 h 1 l -0.2,1.3 c 0,0.3 0.3,0.4 0.6,0.4 0.2,0 0.4,-0.1 0.5,-0.3 L 26,11.8 h 0.9 c 0.2,0 0.3,-0.2 0.3,-0.4 C 27.2,11.2 27,11 26.9,11 H 26.2 L 26.4,9.9 H 27 c 0.2,0 0.3,-0.2 0.3,-0.4 C 27.3,9.2 27.2,9 27,9 H 26.3 L 26.5,7.9 C 26.5,7.6 26.2,7.5 26,7.5 25.8,7.5 25.6,7.6 25.5,7.7 L 25.3,9 h -1 L 24.5,7.9 C 24.5,7.6 24.2,7.5 24,7.5 23.8,7.5 23.6,7.6 23.5,7.7 L 23.2,9 H 22.3 C 22.2,9 22,9.2 22,9.4 c 0,0.3 0.1,0.4 0.3,0.4 H 23 L 22.9,11 H 22 c -0.2,0 -0.3,0.2 -0.3,0.4 0,0.3 0.1,0.4 0.3,0.4 z m 2.1,-1.9 h 1 L 24.9,11 h -1 z"
   id="path2"
   style="fill:#ffffff" />

				<path
   class="st1"
   d="M 31.8,3.6 H 17.2 c -0.3,0 -0.6,0.3 -0.6,0.6 v 12.2 c 0,0.3 0.3,0.6 0.6,0.6 h 5.5 l 1.3,2.1 c 0.1,0.2 0.3,0.3 0.5,0.3 0.2,0 0.4,-0.1 0.5,-0.3 L 26.3,17 h 5.5 c 0.3,0 0.6,-0.3 0.6,-0.6 V 4.3 C 32.4,3.9 32.1,3.6 31.8,3.6 Z M 31.2,15.9 H 26 c -0.2,0 -0.4,0.1 -0.5,0.3 l -1,1.5 -1,-1.5 C 23.4,16 23.2,15.9 23,15.9 h -5.2 v -11 h 13.3 v 11 z"
   id="path3"
   style="fill:#ffffff" />

			</g>

		</g>

	</g>
  </g>
</svg>
