<?xml version="1.0" encoding="UTF-8" standalone="no"?>
<!-- Created with Inkscape (http://www.inkscape.org/) -->

<svg
   viewBox="0 0 4.1392565 4.1539602"
   version="1.1"
   id="svg1"
   xmlns="http://www.w3.org/2000/svg">
  <defs
     id="defs1" />
  <g
     id="layer1"
     transform="translate(-102.92294,-146.31458)">
    <path
       class="st1"
       d="m 106.94458,148.72229 -0.52916,0.52916 c -0.0529,0.0529 -0.15875,0.0529 -0.23813,0 -0.0529,-0.0529 -0.0529,-0.15875 0,-0.23812 l 0.52917,-0.52917 c 0.0265,-0.0265 0.0265,-0.0529 0,-0.0529 0,0 -0.0265,-0.0265 -0.0529,-0.0265 h -0.47625 c -0.0794,0 -0.15875,-0.0794 -0.15875,-0.15875 v -1.5875 h -2.01083 v 1.5875 c 0,0.0794 -0.0794,0.15875 -0.15875,0.15875 h -0.55563 c -0.0265,0 -0.0529,0.0265 -0.0529,0.0265 0,0.0264 0,0.0264 0,0.0529 l 1.64041,1.61396 c 0.0529,0.0529 0.15875,0.0529 0.23813,0 l 0.52916,-0.52917 c 0.0529,-0.0529 0.15875,-0.0529 0.23813,0 0.0529,0.0529 0.0529,0.15875 0,0.23813 l -0.52917,0.52917 c -0.10583,0.10583 -0.21166,0.13229 -0.34396,0.13229 -0.13229,0 -0.23812,-0.0529 -0.34395,-0.13229 l -1.64042,-1.61396 c -0.10583,-0.10584 -0.13229,-0.26459 -0.0794,-0.42334 0.0529,-0.13229 0.18521,-0.23812 0.34396,-0.23812 h 0.37042 v -1.5875 c 0,-0.0794 0.0794,-0.15875 0.15875,-0.15875 h 2.35479 c 0.0794,0 0.15875,0.0794 0.15875,0.15875 v 1.5875 H 106.68 c 0.15875,0 0.29104,0.0794 0.34396,0.23812 0.0794,0.15875 0.0265,0.3175 -0.0794,0.42334 z m -1.79916,-1.27 c 0.13229,0 0.21166,0.10583 0.26458,0.18521 0.0529,0.0794 0.15875,0.10583 0.21167,0.0529 0.0794,-0.0529 0.10583,-0.15875 0.0529,-0.21166 -0.13229,-0.21167 -0.3175,-0.3175 -0.52916,-0.3175 -0.18521,0 -0.37042,0.10583 -0.50271,0.29104 -0.0529,0.0529 -0.0794,0.13229 -0.10584,0.21166 h -0.13229 c -0.0794,0 -0.15875,0.0794 -0.15875,0.15875 0,0.0794 0.0794,0.15875 0.15875,0.15875 h 0.0529 c 0,0.0265 0,0.0529 0,0.0794 0,0.0265 0,0.0529 0,0.0794 h -0.0794 c -0.0794,0 -0.15875,0.0794 -0.15875,0.15875 0,0.0794 0.0794,0.15875 0.15875,0.15875 h 0.1323 c 0.0264,0.0794 0.0529,0.1323 0.10583,0.21167 0.13229,0.18521 0.3175,0.29104 0.50271,0.29104 0.21166,0 0.39687,-0.10583 0.52916,-0.3175 0.0529,-0.0794 0.0265,-0.18521 -0.0529,-0.21166 -0.0794,-0.0529 -0.18521,-0.0265 -0.21167,0.0529 -0.0265,0.0529 -0.13229,0.15875 -0.26458,0.15875 -0.10584,0 -0.18521,-0.0529 -0.23813,-0.15875 h 0.18521 c 0.0794,0 0.15875,-0.0794 0.15875,-0.15875 0,-0.0794 -0.0794,-0.15875 -0.15875,-0.15875 h -0.3175 c 0,-0.0265 0,-0.0529 0,-0.0794 0,-0.0265 0,-0.0529 0,-0.0794 h 0.3175 c 0.0794,0 0.15875,-0.0794 0.15875,-0.15875 0,-0.0794 -0.0794,-0.15875 -0.15875,-0.15875 h -0.21167 c 0.10584,-0.15875 0.18521,-0.23812 0.29105,-0.23812 z"
       id="path2"
       fill="#ffffff"
       style="stroke-width:0.264583" />
  </g>
</svg>
