<?xml version="1.0" encoding="UTF-8" standalone="no"?>
<!-- Created with Inkscape (http://www.inkscape.org/) -->

<svg
   width="3.6777084mm"
   height="4.2817106mm"
   viewBox="0 0 3.6777084 4.2817106"
   version="1.1"
   id="svg1"
   xmlns="http://www.w3.org/2000/svg">
  <defs
     id="defs1" />
  <g
     id="layer1"
     transform="translate(-103.1875,-146.31458)">
    <g
       id="g4"
       transform="matrix(0.26458333,0,0,0.26458333,98.557292,145.41046)">
		<path
   class="st1"
   d="m 30.7,11.5 c 0.3,-0.4 0.7,-0.8 0.7,-1.3 0,-0.5 -0.4,-1 -0.7,-1.3 -0.2,-0.2 -0.4,-0.4 -0.4,-0.6 -0.1,-0.2 0,-0.4 0,-0.7 0,-0.5 0.1,-1 -0.2,-1.5 C 29.8,5.6 29.2,5.5 28.7,5.4 28.4,5.3 28.2,5.3 28,5.2 27.9,5.1 27.7,4.9 27.6,4.6 27.4,4.2 27.1,3.7 26.6,3.5 26.1,3.3 25.6,3.5 25.1,3.7 24.8,3.9 24.6,4 24.4,4 c 0,0 0,0 0,0 C 24.2,4 24,3.9 23.7,3.8 23.2,3.6 22.7,3.4 22.2,3.6 c -0.5,0.2 -0.8,0.6 -1,1 -0.1,0.2 -0.3,0.5 -0.4,0.6 -0.2,0.1 -0.4,0.2 -0.7,0.2 -0.5,0.1 -1,0.2 -1.3,0.7 -0.3,0.4 -0.3,1 -0.2,1.5 0,0.3 0.1,0.5 0,0.7 -0.1,0.2 -0.2,0.4 -0.4,0.6 -0.3,0.4 -0.7,0.8 -0.7,1.3 0,0.5 0.4,1 0.7,1.3 0.2,0.2 0.4,0.4 0.4,0.6 0.1,0.2 0,0.4 0,0.7 0,0.5 -0.1,1 0.2,1.5 0.3,0.5 0.9,0.6 1.4,0.7 0.1,0 0.3,0.1 0.4,0.1 v 4 c 0,0.2 0.1,0.3 0.2,0.4 0.1,0.1 0.3,0.1 0.4,0.1 l 3.3,-1 3.3,1 c 0,0 0.1,0 0.1,0 0.1,0 0.2,0 0.3,-0.1 0.1,-0.1 0.2,-0.2 0.2,-0.4 v -4 c 0.1,0 0.3,-0.1 0.4,-0.1 0.5,-0.1 1,-0.2 1.3,-0.7 0.3,-0.4 0.3,-1 0.2,-1.5 0,-0.3 -0.1,-0.5 0,-0.7 0,-0.2 0.2,-0.4 0.4,-0.6 z m -9.2,4.7 c 0.2,0.2 0.4,0.5 0.7,0.6 0.5,0.2 1,0 1.5,-0.2 0.1,0 0.1,-0.1 0.2,-0.1 v 1.2 l -2.4,0.7 z m 3.4,1.4 v -1.1 c 0.1,0 0.1,0 0.2,0.1 0.3,0.1 0.7,0.3 1.1,0.3 0.1,0 0.3,0 0.4,-0.1 0.3,-0.1 0.6,-0.3 0.7,-0.6 v 2.1 z m 5,-6.7 c -0.2,0.3 -0.5,0.6 -0.6,0.9 -0.1,0.4 -0.1,0.7 0,1.1 0,0.3 0.1,0.7 0,0.8 -0.1,0.1 -0.4,0.2 -0.7,0.3 -0.4,0.1 -0.8,0.2 -1.1,0.4 -0.3,0.2 -0.5,0.6 -0.7,0.9 -0.2,0.3 -0.3,0.6 -0.5,0.6 -0.2,0.1 -0.5,-0.1 -0.8,-0.2 -0.3,-0.1 -0.7,-0.3 -1.1,-0.3 0,0 0,0 0,0 0,0 0,0 0,0 0,0 0,0 0,0 0,0 0,0 0,0 -0.4,0 -0.7,0.2 -1.1,0.3 C 23,15.8 22.7,16 22.5,15.9 22.3,15.8 22.2,15.6 22,15.3 21.8,15 21.6,14.6 21.3,14.4 21,14.2 20.6,14.1 20.3,14 20,13.9 19.6,13.9 19.5,13.7 c -0.1,-0.1 -0.1,-0.5 0,-0.8 0,-0.4 0.1,-0.7 0,-1.1 -0.1,-0.4 -0.4,-0.7 -0.6,-0.9 -0.2,-0.2 -0.4,-0.5 -0.4,-0.7 0,-0.2 0.2,-0.4 0.4,-0.7 0.2,-0.3 0.5,-0.6 0.6,-0.9 0.1,-0.4 0.1,-0.7 0,-1.1 0,-0.3 -0.1,-0.7 0,-0.8 C 19.6,6.6 19.9,6.5 20.2,6.4 20.6,6.3 21,6.2 21.3,6 21.6,5.8 21.8,5.4 22,5.1 22.2,4.8 22.3,4.5 22.5,4.5 22.7,4.4 23,4.6 23.3,4.7 23.6,4.9 24,5 24.4,5 v 0 c 0.4,0 0.7,-0.2 1.1,-0.3 0.3,-0.1 0.6,-0.3 0.8,-0.2 0.2,0.1 0.3,0.3 0.5,0.6 0.2,0.3 0.4,0.7 0.7,0.9 0.3,0.2 0.7,0.3 1,0.4 0.3,0.1 0.7,0.1 0.8,0.3 0.1,0.1 0.1,0.5 0,0.8 0,0.4 -0.1,0.7 0,1.1 0.1,0.4 0.4,0.7 0.6,0.9 0.2,0.2 0.4,0.5 0.4,0.7 0.1,0.2 -0.2,0.4 -0.4,0.7 z"
   id="path2"
   style="fill:#ffffff" />

		<path
   class="st1"
   d="m 24.4,5.7 c -2.5,0 -4.6,2 -4.6,4.5 0,2.5 2,4.5 4.6,4.5 2.5,0 4.6,-2 4.6,-4.5 C 28.9,7.7 26.9,5.7 24.4,5.7 Z m 0,8 c -1.9,0 -3.5,-1.6 -3.5,-3.5 0,-1.9 1.6,-3.5 3.5,-3.5 1.9,0 3.5,1.6 3.5,3.5 0,1.9 -1.6,3.5 -3.5,3.5 z"
   id="path3"
   style="fill:#ffffff" />

		<path
   class="st1"
   d="m 24.4,8.1 h -0.7 c -0.3,0 -0.6,0.2 -0.6,0.5 0,0.3 0.2,0.5 0.6,0.5 h 0.2 V 12 c 0,0.3 0.2,0.5 0.6,0.5 0.3,0 0.6,-0.2 0.6,-0.5 V 8.7 C 25,8.4 24.7,8.1 24.4,8.1 Z"
   id="path4"
   style="fill:#ffffff" />

	</g>
  </g>
</svg>
