<?xml version="1.0" encoding="utf-8"?>
<!-- Generator: Adobe Illustrator 16.0.0, SVG Export Plug-In . SVG Version: 6.00 Build 0)  -->
<!DOCTYPE svg PUBLIC "-//W3C//DTD SVG 1.1//EN" "http://www.w3.org/Graphics/SVG/1.1/DTD/svg11.dtd">
<svg version="1.1" id="Layer_1" xmlns="http://www.w3.org/2000/svg" xmlns:xlink="http://www.w3.org/1999/xlink" x="0px" y="0px"
	 width="26px" height="23px" viewBox="0 0 26 23" enable-background="new 0 0 26 23" xml:space="preserve">
<g>
	<g>
		<g>
			<path fill="#FFFFFF" d="M10.403,8.767c-0.564,0-1.023,0.464-1.023,1.037s0.459,1.037,1.023,1.037s1.023-0.464,1.023-1.037
				S10.968,8.767,10.403,8.767z"/>
			<path fill="#FFFFFF" d="M15.587,8.759c-0.568,0-1.031,0.468-1.031,1.045s0.463,1.045,1.031,1.045c0.57,0,1.033-0.468,1.033-1.045
				S16.157,8.759,15.587,8.759z"/>
			<path fill="#FFFFFF" d="M22.96,17.384c0.627-1.253,0.951-2.67,0.953-4.212l1.225-0.283l-0.354-1.52l-0.98,0.227
				c-0.117-0.839-0.326-1.673-0.621-2.482c0.871-2.465,0.967-5.319,0.26-8.097l-0.197-0.771l-0.766,0.211
				c-0.332,0.092-3.205,0.91-4.572,2.233c-0.203-0.117-0.408-0.228-0.617-0.331c-1.371-0.682-2.816-1.026-4.291-1.026
				s-2.918,0.345-4.291,1.026C8.499,2.463,8.294,2.573,8.093,2.69C6.724,1.367,3.851,0.549,3.521,0.458L2.753,0.246L2.558,1.018
				c-0.707,2.776-0.611,5.631,0.26,8.097c-0.295,0.809-0.506,1.643-0.623,2.482l-0.98-0.228l-0.352,1.52l1.223,0.283
				c0.004,1.542,0.326,2.959,0.953,4.212L0.862,17.89l0.352,1.52l2.701-0.627c0.408,0.529,0.883,1.019,1.422,1.463
				c1.963,1.618,4.684,2.509,7.662,2.509s5.699-0.891,7.662-2.509c0.539-0.444,1.014-0.934,1.422-1.463l2.701,0.627l0.354-1.52
				L22.96,17.384z M3.89,2.207C4.778,2.512,6.017,3.017,6.763,3.6C6.226,4.024,5.722,4.503,5.249,5.034
				c-0.527,0.596-0.996,1.238-1.4,1.915C3.567,5.44,3.579,3.821,3.89,2.207z M11.981,15.926c-0.404-0.402-0.615-0.826-0.615-1.036
				c0-0.188,0.033-0.201,0.152-0.251c0.34-0.144,1.008-0.16,1.48-0.16s1.143,0.017,1.482,0.16c0.119,0.05,0.15,0.063,0.15,0.251
				c0,0.21-0.211,0.634-0.615,1.036c-0.396,0.396-0.82,0.611-1.018,0.611S12.378,16.322,11.981,15.926z M21.382,17.018l-3.006-0.698
				l-0.354,1.521l2.348,0.545c-0.217,0.23-0.449,0.449-0.701,0.656c-1.514,1.25-3.584,1.992-5.891,2.13v-3.229
				c0.613-0.236,1.113-0.684,1.342-0.912c0.322-0.322,1.072-1.176,1.072-2.14c0-0.789-0.393-1.39-1.107-1.688
				c-0.475-0.201-1.08-0.283-2.086-0.283S11.39,13,10.913,13.201C10.2,13.5,9.806,14.101,9.806,14.89c0,0.964,0.75,1.817,1.072,2.14
				c0.23,0.229,0.729,0.676,1.342,0.912v3.229c-2.307-0.138-4.377-0.88-5.891-2.13c-0.25-0.207-0.484-0.426-0.701-0.656l2.348-0.545
				l-0.354-1.521l-3.006,0.698c-0.582-1.024-0.908-2.197-0.963-3.48l3.969,0.922l0.354-1.521L3.72,11.951
				c0.266-2.12,1.215-4.212,2.697-5.881c1.818-2.049,4.156-3.177,6.582-3.177s4.766,1.128,6.584,3.177
				c1.48,1.669,2.43,3.761,2.695,5.881l-4.256,0.988l0.354,1.52l3.969-0.922C22.29,14.82,21.964,15.993,21.382,17.018z
				 M22.149,6.949c-0.404-0.677-0.873-1.319-1.4-1.915c-0.471-0.531-0.979-1.01-1.512-1.435c0.744-0.582,1.982-1.087,2.871-1.392
				C22.419,3.821,22.431,5.44,22.149,6.949z"/>
		</g>
	</g>
</g>
</svg>
