<?xml version="1.0" encoding="utf-8"?>
<!-- Generator: Adobe Illustrator 16.0.0, SVG Export Plug-In . SVG Version: 6.00 Build 0)  -->
<!DOCTYPE svg PUBLIC "-//W3C//DTD SVG 1.1//EN" "http://www.w3.org/Graphics/SVG/1.1/DTD/svg11.dtd">
<svg version="1.1" id="Layer_1" xmlns="http://www.w3.org/2000/svg" xmlns:xlink="http://www.w3.org/1999/xlink" x="0px" y="0px"
	 width="26px" height="23px" viewBox="0 0 26 23" enable-background="new 0 0 26 23" xml:space="preserve">
<g>
	<g>
		<g>
			<path fill="#FFFFFF" d="M23.921,6.394c-0.758-1.276-1.822-2.49-2.541-3.127c-1.57-1.391-2.879-1.356-3.52-1.213
				c-0.27,0.061-0.518,0.16-0.734,0.293C16.007,1.518,14.646,1.11,13,1.11c-1.646,0-3.008,0.407-4.125,1.237
				C8.657,2.214,8.411,2.114,8.141,2.054C7.5,1.91,6.19,1.876,4.622,3.267C3.903,3.903,2.836,5.117,2.079,6.394
				c-1.027,1.729-1.254,3.126-0.68,4.155c0.703,1.257,1.77,1.577,2.629,1.657c-0.211,0.821-0.342,1.7-0.342,2.795
				c0,1.451,0.33,2.699,0.982,3.711c0.572,0.889,1.396,1.602,2.449,2.116C9.065,21.779,11.409,21.89,13,21.89
				c1.592,0,3.934-0.11,5.881-1.062c1.055-0.515,1.879-1.228,2.451-2.116c0.65-1.012,0.982-2.26,0.982-3.711
				c0-1.095-0.131-1.974-0.344-2.795c0.861-0.08,1.928-0.4,2.629-1.657C25.177,9.52,24.948,8.122,23.921,6.394z M4.481,10.77
				C3.719,10.75,3.1,10.603,2.672,9.837c-0.291-0.519-0.051-1.503,0.66-2.698c0.674-1.135,1.641-2.237,2.256-2.781
				C6.602,3.46,7.362,3.41,7.719,3.458C6.655,4.755,6.002,6.44,5.458,8.079C5.231,8.758,5.014,9.337,4.803,9.897
				C4.69,10.197,4.583,10.486,4.481,10.77z M12.049,15.55c-0.377-0.377-0.576-0.771-0.576-0.969c0-0.175,0.031-0.188,0.143-0.234
				c0.318-0.133,0.943-0.148,1.385-0.148s1.067,0.016,1.385,0.148c0.111,0.047,0.141,0.06,0.141,0.234
				c0,0.197-0.197,0.592-0.575,0.969c-0.371,0.371-0.768,0.571-0.951,0.571C12.815,16.121,12.42,15.921,12.049,15.55z
				 M18.241,19.518c-1.119,0.548-2.6,0.844-4.512,0.903v-2.987c0.573-0.221,1.04-0.638,1.252-0.853c0.303-0.301,1.004-1.098,1.004-2
				c0-0.736-0.369-1.297-1.035-1.578c-0.443-0.188-1.01-0.264-1.95-0.264c-0.941,0-1.506,0.076-1.949,0.264
				c-0.668,0.281-1.035,0.842-1.035,1.578c0,0.902,0.701,1.699,1.002,2c0.215,0.215,0.68,0.632,1.254,0.853v2.987
				c-1.912-0.06-3.395-0.355-4.514-0.903C6,18.657,5.143,17.181,5.143,15.001c0-1.864,0.432-3.008,1.025-4.591
				C6.374,9.864,6.606,9.244,6.84,8.54C8.129,4.667,9.493,2.568,13,2.568c3.508,0,4.872,2.099,6.161,5.972
				c0.234,0.704,0.467,1.324,0.67,1.87c0.596,1.583,1.025,2.726,1.025,4.591C20.856,17.181,20.001,18.657,18.241,19.518z
				 M23.329,9.837c-0.428,0.766-1.047,0.913-1.809,0.933c-0.104-0.284-0.211-0.572-0.322-0.872c-0.211-0.561-0.43-1.14-0.654-1.818
				c-0.547-1.639-1.197-3.324-2.262-4.621c0.357-0.048,1.117,0.002,2.131,0.9c0.613,0.543,1.58,1.646,2.256,2.78
				C23.378,8.334,23.62,9.318,23.329,9.837z"/>
			<path fill="#FFFFFF" d="M10.573,8.86c-0.527,0-0.955,0.434-0.955,0.969s0.428,0.969,0.955,0.969c0.529,0,0.959-0.434,0.959-0.969
				S11.102,8.86,10.573,8.86z"/>
			<path fill="#FFFFFF" d="M15.419,8.853c-0.531,0-0.965,0.437-0.965,0.977c0,0.539,0.434,0.977,0.965,0.977
				c0.533,0,0.965-0.438,0.965-0.977C16.384,9.289,15.952,8.853,15.419,8.853z"/>
		</g>
	</g>
</g>
</svg>
