<?xml version="1.0" encoding="utf-8"?>
<!-- Generator: Adobe Illustrator 16.0.0, SVG Export Plug-In . SVG Version: 6.00 Build 0)  -->
<!DOCTYPE svg PUBLIC "-//W3C//DTD SVG 1.1//EN" "http://www.w3.org/Graphics/SVG/1.1/DTD/svg11.dtd">
<svg version="1.1" id="Layer_1" xmlns="http://www.w3.org/2000/svg" xmlns:xlink="http://www.w3.org/1999/xlink" x="0px" y="0px"
	 width="59px" height="59px" viewBox="0 0 59 59" enable-background="new 0 0 59 59" xml:space="preserve">
<g>
	<g>
		<g>
			<path fill="#E84253" d="M53.84,11.298V1.555H21.387v9.743l-3.605,9.015v19.104h-3.605c-4.17,0-7.61,3.162-8.061,7.213h-0.61
				l-3.95,7.9v2.916h33.354h0.902h21.635V20.312L53.84,11.298z M34.008,55.643H18.683H3.357v-0.688l3.261-6.522h3.05v-1.803H7.937
				c0.44-3.055,3.066-5.41,6.239-5.41h7.211h1.803c3.173,0,5.799,2.355,6.238,5.41H11.471v1.803h7.212h12.063l3.262,6.522V55.643z
				 M48.43,55.643H35.811v-1.113l-3.95-7.9h-0.61c-0.242-2.18-1.352-4.099-2.973-5.41h12.04v-1.803H23.189V24.092h21.635v15.324
				h-2.703v1.803h4.507V22.288H21.387v17.128h-1.803V20.658l3.605-9.014V3.357h28.847v7.939l-3.606,9.016V55.643z M50.72,55.643
				l2.219-4.992l2.218,4.992H50.72z M55.643,52.297L53.84,48.24v-2.514h-1.804v2.514l-1.803,4.057V20.658l1.803-4.507v27.772h1.804
				V16.151l1.803,4.507V52.297z"/>
			<path fill="#E84253" d="M42.23,31.754c0.506-0.631,0.791-1.422,0.791-2.254c0-1.988-1.617-3.605-3.605-3.605
				c-1.677,0-3.091,1.151-3.492,2.704H32.09c-0.4-1.553-1.814-2.704-3.493-2.704c-1.987,0-3.604,1.617-3.604,3.605
				c0,0.832,0.285,1.623,0.791,2.254c-0.506,0.631-0.791,1.422-0.791,2.254c0,1.988,1.617,3.605,3.606,3.605
				c1.677,0,3.091-1.15,3.492-2.704h3.833c0.401,1.554,1.815,2.704,3.493,2.704c1.988,0,3.606-1.617,3.606-3.605
				C43.021,33.176,42.736,32.385,42.23,31.754z M40.409,32.506c0.508,0.336,0.811,0.896,0.811,1.502c0,0.994-0.81,1.803-1.804,1.803
				s-1.803-0.809-1.803-1.803v-0.901h-7.212v0.901c0,0.994-0.81,1.803-1.803,1.803c-0.994,0-1.804-0.809-1.804-1.803
				c0-0.605,0.303-1.166,0.811-1.502l1.133-0.752l-1.133-0.751c-0.508-0.336-0.811-0.897-0.811-1.503
				c0-0.994,0.81-1.803,1.804-1.803c0.993,0,1.803,0.809,1.803,1.803v0.902h7.212V29.5c0-0.994,0.809-1.803,1.803-1.803
				s1.804,0.809,1.804,1.803c0,0.605-0.303,1.167-0.811,1.503l-1.133,0.751L40.409,32.506z"/>
			<path fill="#E84253" d="M22.288,52.037c0-1.988-1.616-3.605-3.605-3.605s-3.606,1.617-3.606,3.605s1.617,3.605,3.606,3.605
				S22.288,54.025,22.288,52.037z M18.683,53.84c-0.995,0-1.803-0.809-1.803-1.803s0.808-1.803,1.803-1.803
				c0.993,0,1.804,0.809,1.804,1.803S19.676,53.84,18.683,53.84z"/>
		</g>
	</g>
</g>
</svg>
