<?xml version="1.0" encoding="utf-8"?>
<!-- Generator: Adobe Illustrator 16.0.0, SVG Export Plug-In . SVG Version: 6.00 Build 0)  -->
<!DOCTYPE svg PUBLIC "-//W3C//DTD SVG 1.1//EN" "http://www.w3.org/Graphics/SVG/1.1/DTD/svg11.dtd">
<svg version="1.1" id="Layer_1" xmlns="http://www.w3.org/2000/svg" xmlns:xlink="http://www.w3.org/1999/xlink" x="0px" y="0px"
	 width="62px" height="55px" viewBox="0 0 62 55" enable-background="new 0 0 62 55" xml:space="preserve">
<g>
	<g>
		<g>
			<path fill="#E84253" d="M60.04,42.596c-2.124-3.725-6.017-4.422-6.775-4.523c-0.044-0.006-0.089-0.008-0.134-0.008H42.48
				l-0.421-0.422c0.542-0.189,1.061-0.438,1.542-0.736c0.494-0.309,0.914-0.654,1.285-1.014l3.943,1.127l0.553-1.935l-3.156-0.901
				c0.418-0.711,0.679-1.381,0.824-1.865c0.028-0.096,0.043-0.192,0.043-0.291v-2.068l2.409-1.031l-0.792-1.85l-1.617,0.693v-0.774
				c0-0.183-0.048-0.361-0.143-0.519l-3.019-5.029c-0.159-0.266-0.433-0.443-0.739-0.482c-0.303-0.033-0.615,0.068-0.834,0.289
				l-2.724,2.723h-0.59V11.316l1.423-1.422h1.29l2.765,1.842c0.463,0.31,1.087,0.184,1.396-0.277l2.012-3.02
				c0.225-0.338,0.225-0.777,0-1.115l-4.024-6.036c-0.187-0.28-0.501-0.448-0.837-0.448h-3.018c-0.382,0-0.73,0.215-0.901,0.557
				l-1.733,3.467H26.589l-1.734-3.467c-0.171-0.342-0.518-0.557-0.899-0.557h-4.024c-0.325,0-0.63,0.156-0.817,0.421l-5.031,7.043
				c-0.285,0.399-0.24,0.947,0.107,1.296l2.012,2.012c0.34,0.34,0.871,0.391,1.27,0.125l2.765-1.842h2.298l0.416,0.416v10.936
				c-2.656,0.965-9.908,4.275-13.014,12.436c-1.832,4.815-1.426,9.311-0.75,12.256l-2.334-1.4v-3.455c0-1.15-0.64-2.186-1.668-2.699
				c-1.029-0.516-2.241-0.404-3.162,0.285c-0.755,0.567-1.206,1.471-1.206,2.414v7.043c0,0.346,0.18,0.668,0.474,0.852l8.048,5.031
				c0.16,0.1,0.344,0.152,0.534,0.152h20.12h4.024h21.127c0.156,0,0.311-0.036,0.449-0.105l4.025-2.012
				c0.183-0.091,0.33-0.234,0.43-0.412C60.151,51.443,62.558,47.006,60.04,42.596z M33.011,44.094l-5.958-0.02l-0.006,2.014
				l5.963,0.019v6.042h-2.013c0-2.219-1.805-4.023-4.023-4.023h-2.013c0-4.992-4.061-9.055-9.055-9.055H14.9v2.012h1.006
				c3.883,0,7.043,3.158,7.043,7.043v1.006c0,0.555,0.449,1.006,1.006,1.006h3.019c1.109,0,2.012,0.902,2.012,2.012H10.158
				l-7.33-4.582v-6.484c0-0.314,0.149-0.615,0.4-0.805c0.312-0.234,0.706-0.27,1.055-0.095c0.349,0.173,0.557,0.51,0.557,0.899
				v4.023c0,0.354,0.187,0.682,0.488,0.863l5.029,3.018c0.366,0.219,0.83,0.186,1.16-0.088c0.328-0.272,0.449-0.721,0.303-1.121
				c-0.752-2.049-2.26-7.453-0.005-13.381c0.148-0.389,0.316-0.756,0.484-1.121l0.002,0.002c3.388-7.361,10.55-9.914,11.952-10.352
				c0.422-0.129,0.707-0.518,0.707-0.959V9.895c0-0.268-0.105-0.523-0.294-0.711L23.66,8.176c-0.188-0.188-0.443-0.294-0.711-0.294
				h-3.019c-0.198,0-0.394,0.06-0.559,0.169l-2.331,1.555l-0.827-0.826l4.235-5.928h2.884l1.735,3.468
				c0.17,0.341,0.518,0.557,0.898,0.557H38.04c0.381,0,0.729-0.216,0.9-0.557l1.733-3.468h1.857l3.354,5.03l-1.081,1.623
				l-2.181-1.454c-0.165-0.109-0.36-0.169-0.559-0.169h-2.012c-0.269,0-0.523,0.105-0.712,0.294l-2.012,2.014
				c-0.189,0.188-0.296,0.443-0.296,0.711v13.078h-2.602l-2.723-2.723c-0.22-0.221-0.528-0.324-0.834-0.289
				c-0.308,0.039-0.581,0.217-0.739,0.482l-3.019,5.029c-0.095,0.157-0.144,0.336-0.144,0.519v0.774l-1.616-0.691l-0.792,1.849
				l2.408,1.03v1.588v0.48c0,0.099,0.015,0.195,0.043,0.291c0.185,0.615,0.55,1.523,1.199,2.444l-3.608,1.353L25.314,38l4.381-1.643
				c0.238,0.191,0.494,0.375,0.771,0.549c0.771,0.48,1.638,0.824,2.544,1.016V44.094z M58.414,50.395l-3.509,1.754h-9.099
				l-0.725-2.176v-2.55l1.288-1.932c0.16-0.241,0.43-0.386,0.719-0.386c0.435,0,0.657,0.287,0.732,0.41
				c0.077,0.123,0.232,0.451,0.038,0.839l-0.659,1.32c-0.192,0.388-0.118,0.854,0.189,1.161l1.005,1.006
				c0.189,0.189,0.445,0.295,0.713,0.295h5.029v-2.012h-4.614l-0.197-0.199l0.336-0.671c0.448-0.897,0.4-1.943-0.127-2.796
				c-0.527-0.854-1.442-1.365-2.445-1.365c-0.963,0-1.857,0.479-2.394,1.28l-1.456,2.187c-0.109,0.166-0.169,0.359-0.169,0.558
				v3.019c0,0.107,0.018,0.215,0.053,0.318l0.563,1.693h-3.634v-7.043H38.04v7.043h-3.019v-7.045v-8.046
				c0-0.519-0.396-0.954-0.912-1.003c-0.736-0.067-1.428-0.266-2.066-0.578l1.32-0.496l-0.707-1.884l-2.475,0.929
				c-0.653-0.771-1.012-1.586-1.196-2.152v-0.328v-0.724l2.622,1.124l0.792-1.85l-3.414-1.462v-1.358l2.211-3.686l2.107,2.106
				c0.188,0.188,0.444,0.295,0.712,0.295h4.024h2.013c0.268,0,0.521-0.106,0.711-0.295l2.107-2.106l2.211,3.686v1.358l-3.414,1.463
				l0.791,1.849l2.623-1.123v1.051c-0.15,0.465-0.421,1.096-0.871,1.733l-1.87-0.534l-0.552,1.936l0.722,0.205
				c-0.768,0.473-1.624,0.757-2.551,0.844c-0.389,0.036-0.722,0.293-0.854,0.66c-0.132,0.367-0.04,0.776,0.235,1.053l2.012,2.012
				c0.188,0.189,0.444,0.295,0.712,0.295H53.06c0.575,0.088,3.616,0.68,5.234,3.517C59.95,46.496,58.818,49.506,58.414,50.395z"/>
		</g>
	</g>
	<g>
		<g>
			<rect x="26.974" y="10.9" fill="#E84253" width="2.012" height="2.012"/>
		</g>
	</g>
	<g>
		<g>
			<rect x="33.01" y="10.9" fill="#E84253" width="2.012" height="2.012"/>
		</g>
	</g>
	<g>
		<g>
			<rect x="28.985" y="14.924" fill="#E84253" width="4.024" height="2.012"/>
		</g>
	</g>
	<g>
		<g>
			<rect x="33.01" y="28.003" fill="#E84253" width="2.012" height="2.013"/>
		</g>
	</g>
	<g>
		<g>
			<rect x="39.046" y="28.003" fill="#E84253" width="2.013" height="2.013"/>
		</g>
	</g>
	<g>
		<g>
			<rect x="36.028" y="31.021" fill="#E84253" width="2.012" height="2.012"/>
		</g>
	</g>
</g>
</svg>
