<?xml version="1.0" encoding="utf-8"?>
<!-- Generator: Adobe Illustrator 16.0.0, SVG Export Plug-In . SVG Version: 6.00 Build 0)  -->
<!DOCTYPE svg PUBLIC "-//W3C//DTD SVG 1.1//EN" "http://www.w3.org/Graphics/SVG/1.1/DTD/svg11.dtd">
<svg version="1.1" id="Layer_1" xmlns="http://www.w3.org/2000/svg" xmlns:xlink="http://www.w3.org/1999/xlink" x="0px" y="0px"
	 width="59px" height="59px" viewBox="0 0 59 59" enable-background="new 0 0 59 59" xml:space="preserve">
<g>
	<g>
		<g>
			<path fill="#E84253" d="M29.5,6.888c-12.467,0-22.609,10.143-22.609,22.609c0,12.468,10.143,22.611,22.609,22.611
				c4.166,0,8.236-1.143,11.771-3.303c0.528-0.322,0.693-1.012,0.373-1.539c-0.322-0.527-1.012-0.693-1.54-0.372
				c-3.184,1.946-6.852,2.976-10.604,2.976c-11.232,0-20.371-9.14-20.371-20.373c0-11.232,9.139-20.371,20.371-20.371
				c11.233,0,20.373,9.138,20.373,20.372c0,3.955-1.137,7.79-3.281,11.091c-0.337,0.518-0.191,1.211,0.328,1.547
				c0.518,0.338,1.211,0.191,1.549-0.328c2.383-3.664,3.643-7.92,3.643-12.31C52.111,17.03,41.968,6.888,29.5,6.888z"/>
		</g>
	</g>
	<g>
		<g>
			<path fill="#E84253" d="M45.383,44.021c-0.432-0.44-1.143-0.448-1.582-0.015l-0.037,0.035c-0.44,0.434-0.447,1.143-0.015,1.584
				c0.22,0.223,0.509,0.335,0.8,0.335c0.282,0,0.566-0.106,0.785-0.321l0.034-0.035C45.811,45.171,45.816,44.462,45.383,44.021z"/>
		</g>
	</g>
	<g>
		<g>
			<path fill="#E84253" d="M57.225,31.848c-0.838-1.449-0.838-3.25,0-4.699c0.926-1.605,1.172-3.475,0.693-5.265
				c-0.479-1.79-1.627-3.286-3.232-4.212c-1.45-0.837-2.351-2.397-2.351-4.07c0-3.826-3.112-6.938-6.938-6.938
				c-1.673,0-3.232-0.9-4.068-2.35C39.414,1,35.163-0.139,31.85,1.773c-1.449,0.837-3.25,0.837-4.699,0
				C23.837-0.139,19.586,1,17.674,4.313c-0.837,1.449-2.397,2.35-4.07,2.35c-3.826,0-6.938,3.112-6.938,6.938
				c0,1.673-0.901,3.232-2.351,4.07c-1.604,0.926-2.753,2.422-3.231,4.212c-0.48,1.79-0.235,3.66,0.692,5.265
				c0.837,1.45,0.837,3.25,0,4.7c-0.927,1.604-1.173,3.475-0.692,5.265c0.479,1.79,1.627,3.286,3.231,4.213
				c1.449,0.836,2.351,2.396,2.351,4.069c0,3.826,3.111,6.938,6.938,6.938c1.673,0,3.232,0.9,4.07,2.35
				c0.926,1.605,2.422,2.753,4.211,3.232c0.598,0.16,1.205,0.24,1.809,0.239c1.201,0,2.389-0.314,3.457-0.932
				c1.449-0.838,3.25-0.838,4.699,0c1.605,0.926,3.475,1.173,5.265,0.692c1.79-0.479,3.286-1.627,4.214-3.232
				c0.836-1.449,2.396-2.35,4.068-2.35c3.826,0,6.938-3.112,6.938-6.938c0-1.674,0.9-3.233,2.351-4.07
				c1.605-0.927,2.753-2.423,3.232-4.213C58.396,35.323,58.15,33.452,57.225,31.848z M55.285,32.967
				c0.627,1.087,0.795,2.354,0.471,3.565c-0.326,1.213-1.104,2.227-2.19,2.854c-2.141,1.235-3.469,3.538-3.469,6.009
				c0,2.591-2.108,4.699-4.7,4.699c-2.471,0-4.772,1.329-6.008,3.469c-0.627,1.087-1.642,1.864-2.853,2.19
				c-1.214,0.324-2.479,0.158-3.567-0.47c-2.139-1.235-4.799-1.235-6.938,0c-1.088,0.628-2.354,0.794-3.566,0.47
				c-1.212-0.326-2.225-1.104-2.854-2.19c-1.234-2.14-3.537-3.469-6.008-3.469c-2.592,0-4.699-2.108-4.699-4.699
				c0-2.471-1.329-4.773-3.469-6.009c-1.088-0.627-1.865-1.641-2.189-2.854c-0.326-1.212-0.159-2.479,0.469-3.565
				c1.236-2.141,1.236-4.798,0-6.938c-0.628-1.087-0.795-2.354-0.469-3.565c0.324-1.212,1.102-2.227,2.189-2.854
				c2.14-1.235,3.469-3.538,3.469-6.009c0-2.591,2.107-4.699,4.699-4.699c2.471,0,4.773-1.329,6.008-3.469
				c0.87-1.506,2.453-2.349,4.078-2.349c0.797,0,1.604,0.203,2.342,0.628c2.139,1.236,4.799,1.236,6.938,0
				c2.244-1.295,5.125-0.524,6.42,1.721c1.235,2.14,3.537,3.469,6.01,3.469c2.59,0,4.698,2.108,4.698,4.699
				c0,2.471,1.328,4.773,3.469,6.009c1.087,0.627,1.864,1.641,2.19,2.854c0.324,1.212,0.156,2.479-0.471,3.565
				C54.05,28.168,54.05,30.826,55.285,32.967z"/>
		</g>
	</g>
	<g>
		<g>
			<path fill="#E84253" d="M42.322,28.771c0.783-0.763,1.06-1.884,0.721-2.924c-0.338-1.04-1.219-1.784-2.302-1.941l-6.001-0.871
				l-2.683-5.438c-0.483-0.981-1.464-1.59-2.558-1.59s-2.073,0.609-2.557,1.59l-2.541,5.147c-0.09,0.182-0.262,0.306-0.462,0.336
				l-5.681,0.825c-1.082,0.157-1.965,0.901-2.303,1.941c-0.339,1.04-0.062,2.161,0.723,2.925l4.11,4.006
				c0.144,0.142,0.21,0.345,0.176,0.544l-0.97,5.658c-0.186,1.077,0.248,2.146,1.133,2.789c0.887,0.643,2.037,0.726,3.006,0.217
				l5.08-2.671c0.179-0.095,0.392-0.095,0.572,0l5.08,2.671c0.422,0.222,0.876,0.331,1.33,0.331c0.588,0,1.174-0.185,1.674-0.548
				c0.884-0.643,1.319-1.712,1.134-2.789l-0.97-5.658c-0.034-0.199,0.031-0.402,0.176-0.543L42.322,28.771z M36.648,31.175
				c-0.672,0.656-0.979,1.6-0.82,2.524l0.971,5.657c0.059,0.34-0.151,0.533-0.244,0.601c-0.092,0.067-0.34,0.207-0.646,0.047
				l-5.081-2.671c-0.415-0.219-0.871-0.328-1.327-0.328c-0.455,0-0.912,0.109-1.328,0.328l-5.08,2.671
				c-0.305,0.16-0.553,0.021-0.646-0.047c-0.093-0.067-0.302-0.261-0.244-0.601l0.971-5.657c0.158-0.925-0.148-1.87-0.82-2.524
				l-4.111-4.007c-0.245-0.24-0.19-0.52-0.154-0.629c0.035-0.109,0.154-0.368,0.496-0.417l5.681-0.826
				c0.928-0.135,1.731-0.718,2.147-1.56l2.54-5.147c0.152-0.309,0.435-0.343,0.55-0.343s0.398,0.034,0.55,0.343l2.944,5.964
				c0.163,0.331,0.479,0.561,0.844,0.613l6.582,0.956c0.34,0.05,0.459,0.309,0.494,0.417c0.035,0.108,0.092,0.388-0.155,0.629
				L36.648,31.175z"/>
		</g>
	</g>
	<g>
		<g>
			<path fill="#E84253" d="M26.316,13.084c-0.156-0.598-0.77-0.954-1.367-0.796c-5.25,1.385-9.666,5.197-11.812,10.197
				c-0.243,0.568,0.02,1.226,0.589,1.47c0.143,0.062,0.293,0.091,0.439,0.091c0.435,0,0.848-0.254,1.03-0.678
				c1.876-4.372,5.735-7.705,10.323-8.915C26.118,14.295,26.475,13.683,26.316,13.084z"/>
		</g>
	</g>
	<g>
		<g>
			<path fill="#E84253" d="M29.5,11.7h-0.067c-0.618,0.002-1.119,0.504-1.117,1.122c0.002,0.618,0.502,1.117,1.119,1.117
				c0.002,0,0.002,0,0.002,0H29.5c0.617,0,1.119-0.501,1.119-1.119C30.619,12.201,30.117,11.7,29.5,11.7z"/>
		</g>
	</g>
</g>
</svg>
