<?xml version="1.0" encoding="utf-8"?>
<!-- Generator: Adobe Illustrator 16.0.0, SVG Export Plug-In . SVG Version: 6.00 Build 0)  -->
<!DOCTYPE svg PUBLIC "-//W3C//DTD SVG 1.1//EN" "http://www.w3.org/Graphics/SVG/1.1/DTD/svg11.dtd">
<svg version="1.1" id="Layer_1" xmlns="http://www.w3.org/2000/svg" xmlns:xlink="http://www.w3.org/1999/xlink" x="0px" y="0px"
     width="340px" height="275px" viewBox="0 0 340 275" enable-background="new 0 0 340 275" xml:space="preserve">
<g>
	<path fill-rule="evenodd" clip-rule="evenodd" fill="#F6BE88" d="M14.638,176.383c2.821,2.065,2.149,5.05,3.385,8.003
		c1.235,2.954,2.521,6.551,1.685,6.812c-0.838,0.262-4.408-5.647-4.541-5.169c-0.132,0.479-0.483,7.344-0.704,10.167
		c-0.222,2.822-0.661,4.196-1.675,3.777c-1.014-0.422-0.439-10.523-0.439-10.219c0,0.303-1.587,11.828-3.266,11.397
		c-1.672-0.431,0.488-12.028,0.488-12.028s-2.249,9.721-3.57,9.153c-1.323-0.567,1.543-9.607,1.543-9.607s-3.57,6.96-3.968,5.48
		c-0.396-1.476,2.73-7.298,2.776-7.601c0.046-0.306-0.177-4.529,0.925-7.436C8.381,176.21,11.024,175.061,14.638,176.383z"/>
    <path fill-rule="evenodd" clip-rule="evenodd" fill="#EEB074" d="M13.935,177.426c0.735,0.773,1.581,1.991,2.095,3.786
		c1.057,3.703,1.322,5.29,1.499,5.554c0.106,0.162,1.336,2.533,2.284,4.372c0.608-0.545-0.614-3.94-1.79-6.752
		c-1.235-2.953-0.563-5.938-3.385-8.003c-0.157-0.057-0.314-0.109-0.466-0.159c-0.558-0.174-1.088-0.289-1.594-0.345
		c-0.05,0.268-0.074,0.396-0.074,0.396S13.156,176.604,13.935,177.426z"/>
    <g>
		<path fill-rule="evenodd" clip-rule="evenodd" fill="#27261D" d="M251.043,275h12.889c1.414-26.874,3.107-58.52,3.308-59.729
			c0.203-1.223,8.664,31.718,15.767,59.729h13.404c-3.596-28.422-8.313-55.338-13.106-85.145
			c-21.181-8.524-13.51-8.024-35.368-0.771c0,0,0.106,1.103,0.289,21.572C248.322,221.693,249.749,250.65,251.043,275z"/>
        <path fill-rule="evenodd" clip-rule="evenodd" fill="#1D2B31" d="M56.82,275c7.1-28,15.549-60.896,15.754-59.675
			c0.201,1.209,1.892,32.813,3.304,59.675h12.894c1.295-24.338,2.72-53.262,2.818-64.289c0.183-20.468,0.288-21.571,0.288-21.571
			c-21.857-7.254-14.188-7.756-35.368,0.77c-4.789,29.786-9.503,56.688-13.1,85.091H56.82z"/>
        <polygon fill-rule="evenodd" clip-rule="evenodd" fill="#A8CB38" points="76.475,109.123 67.527,106.216 50.515,109.167
			52.54,196.345 97.941,197.648 99.699,109.519 85.862,106.216 		"/>
        <path fill-rule="evenodd" clip-rule="evenodd" fill="#EAA462" d="M72.376,94.138h8.638v12.078h4.849
			c0,5.062-4.104,9.165-9.169,9.165c-5.062,0-9.166-4.104-9.166-9.165h4.849V94.138z"/>
        <path fill-rule="evenodd" clip-rule="evenodd" fill="#3E3B3A" d="M96.705,31.204c0,0,4.938,6.258,6.967,9.344
			c2.025,3.084-1.5,22.213-1.5,21.42s-9.167-26.444-9.167-26.444L96.705,31.204z"/>
        <path fill-rule="evenodd" clip-rule="evenodd" fill="#F6BE88" d="M106.623,67.898c0,29.043-10.947,32.95-27.271,32.95
			c-13.371,0-24.754-2.068-28.407-19.963c-0.805-3.954-3.443-7.73-3.443-12.987c0-29.048,13.235-41.134,29.562-41.134
			S106.623,38.851,106.623,67.898z"/>
        <path fill-rule="evenodd" clip-rule="evenodd" fill="#3E3B3A" d="M41.571,37.643c3.348-1.411,6.698-3.174,6.698-3.174l0.706-5.29
			c27.287-13.777,19.454-7.99,45.043-9.079c8.285-0.352,11.372-2.556,11.372-2.556c-1.695,24.822-25.244,34.091-46.984,29.354
			c0,0-1.231,10.843-1.145,18.246c0.087,7.404,0,9.609,0,9.609l-2.909-0.09c0,0,0.265-9.695-2.909-11.193s-3.942,4.429-3.942,4.429
			C44.087,62.108,37.573,39.325,41.571,37.643z"/>
        <path fill-rule="evenodd" clip-rule="evenodd" fill="#F6BE88" d="M47.256,57.649c4.188,0,7.867,4.953,8.219,11.062
			c0.35,6.109-2.757,11.063-6.942,11.063c-4.187,0-7.866-4.954-8.216-11.063C39.964,62.603,43.072,57.649,47.256,57.649z"/>
        <path fill-rule="evenodd" clip-rule="evenodd" fill="#F6BE88" d="M58.266,115.951l-7.733-6.02c0,0-9.633,3.991-24.616,21.975
			c-14.985,17.981-17.807,51.828-17.807,51.828h4.76C18.123,148.402,30.883,136.878,58.266,115.951z"/>
        <path fill-rule="evenodd" clip-rule="evenodd" fill="#F6BE88" d="M92.312,109.362l5.188,8.9c0,0,10.628-1.447,30.56-13.72
			s33.386-43.46,33.386-43.46l-4.512-1.517C140.701,91.388,124.933,98.247,92.312,109.362z"/>
        <path fill-rule="evenodd" clip-rule="evenodd" fill="#EBA460" d="M50.269,69.925c0-1.272,0.719-2.305,1.605-2.305
			c0.13,0,0.253,0.022,0.373,0.063c-0.108-1.702-0.558-3.228-1.228-4.376c-0.772-1.324-1.843-2.143-3.021-2.143
			c-0.081,0-0.164,0.004-0.243,0.011c-0.947,0.091-1.813,0.709-2.5,1.689c-0.938,1.343-1.534,3.359-1.534,5.616
			c0,4.039,1.914,7.315,4.277,7.315c0.402,0,0.791-0.095,1.16-0.274c1.067-0.515,1.963-1.718,2.518-3.312
			C50.883,72.069,50.269,71.099,50.269,69.925z"/>
        <path fill-rule="evenodd" clip-rule="evenodd" fill="#A8CB38" d="M58.263,120.684c-4.207,2.014-13.265,8.954-16.703,12.56
			l-9.223-8.626c-0.976-0.915,9.118-10.57,18.445-15.497c2.176-1.15,8.157-1.842,10.851-1.882L58.263,120.684z"/>
        <path fill-rule="evenodd" clip-rule="evenodd" fill="#A8CB38" d="M89.068,107.505c0.266-0.045,2.378-0.123,8.551-1.146
			c6.172-1.022,15.871-4.823,15.871-4.823l4.182,14.519c0,0-8.77,5.112-15.115,5.599c-6.348,0.483-8.508-0.176-8.508-0.176
			L89.068,107.505z"/>
        <path fill-rule="evenodd" clip-rule="evenodd" fill="#F6BE88" d="M157.692,61.09c-2.822-2.064-2.149-5.048-3.385-8.002
			c-1.234-2.953-2.521-6.55-1.684-6.812c0.838-0.261,4.408,5.647,4.541,5.169c0.131-0.478,0.482-7.344,0.703-10.168
			c0.221-2.822,0.662-4.194,1.677-3.775c1.013,0.42,0.438,10.521,0.438,10.219c0-0.305,1.587-11.83,3.261-11.398
			c1.676,0.431-0.483,12.028-0.483,12.028s2.247-9.722,3.57-9.153c1.322,0.566-1.542,9.609-1.542,9.609s3.57-6.96,3.967-5.484
			c0.396,1.479-2.732,7.298-2.776,7.603c-0.046,0.305,0.177,4.529-0.927,7.435C163.949,61.265,161.307,62.412,157.692,61.09z"/>
        <path fill-rule="evenodd" clip-rule="evenodd" fill="#3E3B3A" d="M81.234,65.181c-2.812-4.52-7.223-6.146-10.639-1.041
			l-0.906,1.31C67.617,55.965,84.222,57.989,81.234,65.181z"/>
        <path fill-rule="evenodd" clip-rule="evenodd" fill="#3E3B3A" d="M101.855,64.361c-2.816-4.518-7.228-6.147-10.643-1.04
			l-0.904,1.309C88.235,55.147,104.84,57.171,101.855,64.361z"/>
        <path fill-rule="evenodd" clip-rule="evenodd" fill="#3E3B3A" d="M69.467,52.951h11.194c0.532,0,0.971,0.437,0.971,0.971v0.351
			c0,0.535-0.438,0.971-0.971,0.971H69.467c-0.532,0-0.969-0.436-0.969-0.971v-0.351C68.498,53.388,68.935,52.951,69.467,52.951z"/>
        <path fill-rule="evenodd" clip-rule="evenodd" fill="#3E3B3A" d="M89.477,52.29h11.193c0.533,0,0.971,0.438,0.971,0.971v0.352
			c0,0.533-0.438,0.971-0.971,0.971H89.477c-0.533,0-0.969-0.438-0.969-0.971v-0.352C88.508,52.728,88.943,52.29,89.477,52.29z"/>
        <path fill-rule="evenodd" clip-rule="evenodd" fill="#642528" d="M91.822,79.04c0.418,1.189,0.652,2.5,0.652,3.879
			c0,5.404-3.572,9.785-7.979,9.785s-7.977-4.381-7.977-9.785c0-1.379,0.232-2.689,0.65-3.879H91.822z"/>
        <path fill-rule="evenodd" clip-rule="evenodd" fill="#EFEFEF" d="M90.576,79.04H77.17c-0.418,1.189-0.65,2.5-0.65,3.879
			c0,0.046,0,0.091,0,0.135h12.911c0.632,0,1.146-0.516,1.146-1.146V79.04z"/>
        <path fill-rule="evenodd" clip-rule="evenodd" fill="#F08A65" d="M94.765,73.71c0.937,5.619-17.486,6.325-9.255-12.605
			C87.009,69.146,94.635,72.928,94.765,73.71z"/>
        <polygon fill-rule="evenodd" clip-rule="evenodd" fill="#EF8236" points="263.688,109.069 272.635,106.161 289.65,109.112
			287.622,196.29 242.221,197.592 240.463,109.466 254.301,106.161 		"/>
        <path fill-rule="evenodd" clip-rule="evenodd" fill="#EAA462" d="M267.788,94.084h-8.641v12.077h-4.847
			c0,5.064,4.104,9.167,9.166,9.167c5.063,0,9.168-4.103,9.168-9.167h-4.847V94.084z"/>
        <path fill-rule="evenodd" clip-rule="evenodd" fill="#7D4028" d="M238.735,33.131c0,0-4.936,6.258-6.962,9.344
			c-2.029,3.085,1.496,22.214,1.496,21.421c0-0.795,9.169-26.446,9.169-26.446L238.735,33.131z"/>
        <path fill-rule="evenodd" clip-rule="evenodd" fill="#F6BE88" d="M233.539,67.679c0,29.043,10.946,32.95,27.273,32.95
			c13.371,0,24.753-2.069,28.404-19.963c0.807-3.955,3.443-7.73,3.443-12.987c0-29.047-13.235-41.135-29.56-41.135
			C246.774,26.544,233.539,38.632,233.539,67.679z"/>
        <path fill-rule="evenodd" clip-rule="evenodd" fill="#964C2F" d="M284.367,62.065c0.088,1.061-3.791,16.31-6.7,18.952
			c-2.907,2.644-6.128-4.188-10.976-4.452c-8.568-0.469-27.394-2.979-31.428,7.47c-0.876,2.271,3.487,12.188,5.028,14.613
			c1.545,2.424,2.116,2.819,2.205,2.335s0.529-0.793,0.529-0.793s2.6,3.217,3.525,2.688c0.925-0.527,1.277-1.101,1.765-1.013
			c0.483,0.089,4.008,4.099,5.021,2.953c1.016-1.146,1.721-1.982,2.603-1.499c0.881,0.485,4.893,2.513,5.816,2.072
			c0.926-0.44,3.172-2.336,3.35-2.072c0.176,0.265,0.934,2.072,1.808,1.454c0.874-0.616,6.655-2.819,6.742-2.381
			c0.09,0.443,1.544,0.531,2.866-0.264c1.322-0.793,2.952-2.775,2.952-2.775s1.366,0.705,2.338-0.441
			c0.967-1.146,3.57-5.687,4.273-12.738c0.705-7.051-1.32-14.865-1.365-15.541c-0.044-0.679,0.838-8.787,0.838-8.787L284.367,62.065
			z"/>
        <path fill-rule="evenodd" clip-rule="evenodd" fill="#964C2F" d="M298.593,37.589c-3.352-1.412-6.7-3.173-6.7-3.173l-0.704-5.291
			c-23.903-12.069-58.302-0.306-56.315,14.863c1.039,7.942,14.742,10.062,46.794-1.642c0,0,1.323,15.338,1.234,22.743
			c-0.087,7.405,0,9.607,0,9.607l2.91-0.088c0,0-0.265-9.696,2.907-11.194c3.174-1.499,3.941,4.43,3.941,4.43
			C296.074,62.054,302.592,39.271,298.593,37.589z"/>
        <path fill-rule="evenodd" clip-rule="evenodd" fill="#F6BE88" d="M292.905,57.595c-4.188,0-7.865,4.953-8.217,11.063
			c-0.353,6.108,2.757,11.062,6.942,11.062c4.187,0,7.865-4.953,8.217-11.062C300.199,62.548,297.092,57.595,292.905,57.595z"/>
        <path fill-rule="evenodd" clip-rule="evenodd" fill="#F6BE88" d="M281.897,115.896l7.734-6.018c0,0,9.63,3.991,24.614,21.973
			c14.986,17.983,17.805,51.832,17.805,51.832h-4.759C322.039,148.35,309.28,136.825,281.897,115.896z"/>
        <path fill-rule="evenodd" clip-rule="evenodd" fill="#F6BE88" d="M247.851,109.31l-5.188,8.899c0,0-10.627-1.447-30.56-13.719
			c-19.932-12.272-33.387-43.461-33.387-43.461l4.513-1.516C199.462,91.334,215.227,98.194,247.851,109.31z"/>
        <path fill-rule="evenodd" clip-rule="evenodd" fill="#EBA460" d="M289.896,69.871c0-1.272-0.721-2.303-1.609-2.303
			c-0.129,0-0.253,0.021-0.37,0.062c0.107-1.703,0.555-3.229,1.227-4.375c0.773-1.324,1.841-2.145,3.023-2.145
			c0.08,0,0.161,0.004,0.239,0.013c0.949,0.089,1.815,0.71,2.499,1.688c0.94,1.343,1.535,3.359,1.535,5.614
			c0,4.043-1.915,7.317-4.273,7.317c-0.403,0-0.794-0.096-1.163-0.274c-1.068-0.513-1.964-1.717-2.519-3.312
			C289.282,72.015,289.896,71.046,289.896,69.871z"/>
        <path fill-rule="evenodd" clip-rule="evenodd" fill="#EF8236" d="M281.899,120.63c4.209,2.013,13.265,8.955,16.706,12.562
			l9.219-8.628c0.977-0.915-9.116-10.571-18.442-15.498c-2.18-1.15-8.158-1.842-10.852-1.881L281.899,120.63z"/>
        <path fill-rule="evenodd" clip-rule="evenodd" fill="#EF8236" d="M251.092,107.45c-0.262-0.045-2.378-0.123-8.548-1.146
			c-6.173-1.022-15.874-4.821-15.874-4.821l-4.181,14.518c0,0,8.772,5.112,15.116,5.598c6.347,0.483,8.507-0.178,8.507-0.178
			L251.092,107.45z"/>
        <path fill-rule="evenodd" clip-rule="evenodd" fill="#F6BE88" d="M182.471,61.038c2.821-2.065,2.149-5.05,3.385-8.004
			c1.232-2.953,2.521-6.553,1.684-6.812c-0.838-0.261-4.408,5.646-4.539,5.168c-0.133-0.479-0.485-7.345-0.707-10.166
			c-0.219-2.825-0.661-4.197-1.674-3.777c-1.015,0.42-0.441,10.521-0.441,10.22c0-0.306-1.585-11.833-3.261-11.4
			c-1.674,0.43,0.483,12.029,0.483,12.029s-2.248-9.722-3.57-9.154c-1.322,0.569,1.544,9.609,1.544,9.609s-3.57-6.959-3.967-5.483
			c-0.396,1.477,2.732,7.298,2.778,7.603c0.042,0.303-0.179,4.529,0.925,7.434C176.212,61.211,178.855,62.36,182.471,61.038z"/>
        <path fill-rule="evenodd" clip-rule="evenodd" fill="#F6BE88" d="M325.448,174.296c-2.646,2.682-1.828,5.558-2.874,8.805
			c-1.047,3.249-2.108,7.158-1.278,7.244c0.835,0.088,4.002-6.639,4.158-6.183c0.155,0.456,0.873,7.323,1.242,10.133
			c0.367,2.81,0.874,4.103,1.841,3.466c0.967-0.639-0.139-10.733-0.123-10.426c0.017,0.307,2.193,11.629,3.807,10.839
			c1.613-0.788-1.127-12.062-1.127-12.062s2.417,10.55,3.678,9.695c1.264-0.853-1.72-10.582-1.72-10.582s3.074,8.269,3.382,6.692
			c0.308-1.579-2.273-8.788-2.333-9.085c-0.062-0.299-0.076-4.618-1.311-7.323C331.557,172.803,328.909,172.196,325.448,174.296z"/>
        <path fill-rule="evenodd" clip-rule="evenodd" fill="#3E3B3A" d="M258.927,65.126c2.814-4.518,7.226-6.146,10.641-1.04
			l0.907,1.311C272.546,55.911,255.942,57.937,258.927,65.126z"/>
        <path fill-rule="evenodd" clip-rule="evenodd" fill="#3E3B3A" d="M238.309,64.308c2.813-4.52,7.227-6.147,10.64-1.04l0.908,1.309
			C251.928,55.093,235.322,57.117,238.309,64.308z"/>
        <path fill-rule="evenodd" clip-rule="evenodd" fill="#944626" d="M270.695,52.898h-11.196c-0.533,0-0.967,0.435-0.967,0.968v0.354
			c0,0.532,0.434,0.968,0.967,0.968h11.196c0.534,0,0.969-0.436,0.969-0.968v-0.354C271.664,53.333,271.229,52.898,270.695,52.898z"
        />
        <path fill-rule="evenodd" clip-rule="evenodd" fill="#944626" d="M250.687,52.237h-11.195c-0.534,0-0.97,0.436-0.97,0.969v0.354
			c0,0.532,0.436,0.969,0.97,0.969h11.195c0.534,0,0.971-0.437,0.971-0.969v-0.354C251.657,52.673,251.221,52.237,250.687,52.237z"
        />
        <path fill-rule="evenodd" clip-rule="evenodd" fill="#642528" d="M248.339,78.986c-0.419,1.19-0.649,2.502-0.649,3.879
			c0,5.403,3.572,9.785,7.977,9.785s7.978-4.382,7.978-9.785c0-1.377-0.234-2.688-0.652-3.879H248.339z"/>
        <path fill-rule="evenodd" clip-rule="evenodd" fill="#BF5347" d="M251.873,91.477c1.13,0.747,2.421,1.174,3.793,1.174
			c3.702,0,6.812-3.091,7.714-7.283c-0.985-0.123-2.065-0.124-3.201,0.016c-4.586,0.572-8.308,3.266-8.308,6.017
			C251.871,91.425,251.873,91.45,251.873,91.477z"/>
        <path fill-rule="evenodd" clip-rule="evenodd" fill="#EFEFEF" d="M249.585,78.986h13.406c0.418,1.19,0.652,2.502,0.652,3.879
			c0,0.045,0,0.089,0,0.134H250.73c-0.629,0-1.146-0.515-1.146-1.145V78.986z"/>
        <path fill-rule="evenodd" clip-rule="evenodd" fill="#F08A65" d="M245.397,73.655c-0.935,5.62,17.487,6.326,9.258-12.605
			C253.155,69.091,245.529,72.876,245.397,73.655z"/>
        <path fill-rule="evenodd" clip-rule="evenodd" fill="#964C2F" d="M277.204,35.247c-1.411,0.177-42.331,8.741-42.331,8.741
			s-2.536-6.009-2.623-17.117c-0.09-11.105,6.698-15.073,9.693-16.747c3-1.677,4.321-1.853,3.703-1.5
			c-0.616,0.354-3.347,5.377-3.261,9.258c0.089,3.876,7.976-5.515,7.89-5.029c-0.089,0.484,1.365,6.037,1.674,5.199
			c0.309-0.837,5.111-4.054,8.198-4.715c3.086-0.661,3.965-0.661,3.965-0.661l-2.996,4.716c0,0,6.787-1.498,9.872-1.851
			c3.086-0.354,5.199,0.265,3.969,0.704c-1.234,0.441-1.941,1.498-1.941,1.498s5.73-1.85,12.429,1.764
			c6.699,3.613,7.943,15.669,7.943,15.669L277.204,35.247z"/>
        <path fill-rule="evenodd" clip-rule="evenodd" fill="#944626" d="M234.873,43.988c0.166,1.274,0.658,2.398,1.502,3.34
			c0.528,0.593,1.195,1.11,2.008,1.55c5.942,3.217,19.605,2.115,43.284-6.531c0,0,1.323,15.338,1.234,22.743
			c-0.016,1.282-0.025,2.407-0.032,3.394c0.002-0.002,0.002-0.006,0.005-0.008c0.012-0.043,0.024-0.087,0.038-0.136
			c0.392-1.41,1.418-5.837,2.595-12.432c0.609-3.434,1.786-8.419,2.805-12.531c1.01-4.08,1.865-7.302,1.865-7.302l-5.656,0.808
			l-3.601,0.515c0,0,0.693-0.994,1.569-2.173c0.1-0.136,0.201-0.272,0.305-0.411c1.136-1.515,2.462-3.177,2.974-3.41
			c0.852-0.388-1.279-0.435-5.972,0.627c-0.661,0.15-1.373,0.322-2.136,0.52c-6.17,1.586-11.889,5.008-11.889,5.008l1.398-8.447
			c0,0-2.997,0.97-7.494,4.32c-2.762,2.059-4.824,4.816-6.007,6.635c-0.739,1.142-1.133,1.916-1.133,1.916s-0.386-0.587-0.913-1.488
			c-1.23-2.111-3.221-5.96-2.787-8.12c0.511-2.556-1.854,5.507-2.503,9.222c-0.138,0.771-0.196,1.357-0.142,1.619
			c0.108,0.518-0.797,0.062-2.119-1.148c-0.704-0.643-1.525-1.498-2.377-2.533c-0.329-0.4-0.66-0.827-0.993-1.279
			c-0.792-1.075-1.581-2.294-2.298-3.629c-0.111-0.21-0.225-0.426-0.333-0.645c-0.896-1.777-1.648-3.743-2.105-5.839
			c-2.116-9.695,2.028-15.323,2.028-15.323c-2.865,2.502-5.804,6.723-5.744,14.054c0.044,5.694,0.733,10.049,1.392,12.94
			C234.271,42.562,234.873,43.988,234.873,43.988z"/>
        <path fill-rule="evenodd" clip-rule="evenodd" fill="#964C2F" d="M296.154,77.664c0,0-1.35,3.807-3.688,7.905
			c-2.335,4.1-7.266,6.52-7.468,6.379c-0.203-0.142,1.222-7.832,1.222-7.832c1.452-1.184,1.531-3.902,2.72-5.138l0.624,0.316
			C291.566,80.748,294.483,78.92,296.154,77.664z"/>
        <path fill-rule="evenodd" clip-rule="evenodd" fill="#854123" d="M263.159,95.859c-0.274,0.251-2.304,0.896-4.012,1.41
			c-1.305,0.393-2.425,0.706-2.425,0.706s-1.1-2.116-1.409-1.852c-0.309,0.265-2.6,2.116-3.085,1.983
			c-0.485-0.132-3.481-4.848-3.568-4.274c-0.091,0.573-0.573,3.393-1.545,2.645c-0.968-0.75-4.1-3.614-4.496-2.954
			c-0.284,0.476-0.297,1.884-0.936,2.099c-0.248,0.085-0.596-0.015-1.09-0.424c-0.852-0.701-2.344-2.311-3.664-3.765
			c1.164,3.017,2.606,6.021,3.362,7.215c1.545,2.424,2.116,2.819,2.205,2.335s0.529-0.793,0.529-0.793s2.6,3.217,3.525,2.688
			c0.925-0.527,1.277-1.101,1.765-1.013c0.483,0.089,4.008,4.099,5.021,2.953c1.016-1.146,1.721-1.982,2.603-1.499
			c0.477,0.264,1.88,0.981,3.207,1.514c1.119,0.446,2.188,0.76,2.609,0.559c0.926-0.44,3.172-2.336,3.35-2.072
			c0.176,0.265,0.934,2.072,1.808,1.454c0.156-0.108,0.467-0.27,0.874-0.455c1.877-0.862,5.797-2.287,5.868-1.926
			c0.09,0.443,1.544,0.531,2.866-0.264c1.322-0.793,2.952-2.775,2.952-2.775s1.366,0.705,2.338-0.441
			c0.668-0.792,2.123-3.213,3.187-6.965c-0.028-0.021-0.024-0.176,0-0.436c0.157-1.648,1.222-7.396,1.222-7.396
			c0.104-3.471-0.326-6.938-0.753-9.496l-0.127,0.004c-0.333,1.986-2.068,11.302-5.874,16.168c-4.276,5.464-8.067,6.434-8.067,6.434
			s0.661-2.6,0.265-2.424c-0.223,0.101-2.203,1.169-3.876,1.994c-1.293,0.636-2.401,1.125-2.38,0.916
			C265.449,97.226,263.644,95.419,263.159,95.859z"/>
        <path fill-rule="evenodd" clip-rule="evenodd" fill="#E27626" d="M240.71,121.761l1.511,75.831l6.04-0.172l19.287-0.554
			c-6.925-2.654-20.33-0.519-21.277-3.541c-0.944-3.023-0.359-54.387-1.915-71.641c-0.229-2.516-0.4-4.43-0.496-5.525
			c-0.062-0.678-0.095-1.043-0.095-1.043l-3.135,2.66c0,0-0.396-0.104-1.048-0.279c-2.7-0.724-9.787-2.659-11.419-3.439
			c-0.336-0.16-0.601-0.613-0.811-1.259c-1.054-3.243-0.683-11.315-0.683-11.315l-2.773,9.636l-1.407,4.882
			c0,0,8.772,5.112,15.116,5.598C238.779,121.688,239.809,121.738,240.71,121.761z"/>
        <path fill-rule="evenodd" clip-rule="evenodd" fill="#E27626" d="M287.622,196.29l1.649-70.924
			c-0.93-0.682-1.854-1.338-2.738-1.939l-1.162,11.081c0,0-2.23,39.688-3.747,54.596c-0.321,3.147-0.609,5.188-0.837,5.521
			c-1.312,1.899-7.093,2.065-7.093,2.065l10.839-0.309L287.622,196.29z"/>
        <path fill-rule="evenodd" clip-rule="evenodd" fill="#E27626" d="M289.271,125.366c3.646,2.678,7.387,5.784,9.334,7.825
			l2.135-1.999l3.594-3.365l-12.378-4.086l-1.824-0.604l-0.789-0.83l-2.425-2.544l-0.385,3.663
			C287.418,124.028,288.342,124.685,289.271,125.366z"/>
        <path fill-rule="evenodd" clip-rule="evenodd" fill="#BF5347" d="M86.978,92.22c-0.483-1.763-2.062-3.649-4.35-4.944
			c-1.974-1.117-4.056-1.555-5.722-1.336c1.039,3.926,4.045,6.765,7.59,6.765C85.363,92.704,86.196,92.535,86.978,92.22z"/>
        <path fill-rule="evenodd" clip-rule="evenodd" fill="#EEB074" d="M220.048,104.798c-4.321-1.676-21.157-14.633-29.091-26.357
			c-6.598-9.748-8.805-15.474-9.361-17.127c-0.968,0.259-1.857,0.325-2.654,0.221c1.829,4.062,14.723,31.602,33.162,42.956
			c4.386,2.7,8.322,4.876,11.793,6.629l1.93-6.7C224.825,105.097,222.884,105.896,220.048,104.798z"/>
        <path fill-rule="evenodd" clip-rule="evenodd" fill="#EEB074" d="M178.941,61.534c0.797,0.104,1.687,0.038,2.654-0.221
			c-0.112-0.336-0.157-0.502-0.157-0.502s-0.365-0.092-0.927-0.385c-0.843-0.439-2.123-1.334-3.262-3.053
			c-1.893-2.864-2.223-6.898-2.223-6.898l-3.371-7.407c-0.118-0.026-0.203,0.033-0.249,0.199c-0.396,1.477,2.732,7.298,2.778,7.603
			c0.042,0.303-0.179,4.529,0.925,7.434C175.811,60.152,177.136,61.292,178.941,61.534z"/>
        <path fill-rule="evenodd" clip-rule="evenodd" fill="#EEB074" d="M325.448,174.296c-2.646,2.682-1.828,5.558-2.874,8.805
			c-0.506,1.573-1.018,3.302-1.315,4.676c0,0,2.139-5.19,2.844-7.48c0.422-1.364,1.185-3.427,1.737-4.875
			c0.373-0.987,0.65-1.688,0.65-1.688s-1.417-17.062-8.821-28.434c-7.403-11.371-13.335-17.473-13.335-17.473l-3.594,3.365
			c12.868,11.687,20.53,23.131,24.843,43.022C325.538,174.241,325.493,174.269,325.448,174.296z"/>
        <path fill-rule="evenodd" clip-rule="evenodd" fill="#EEB074" d="M280.294,67.377c-0.353,0.31-7.582,5.291-7.582,5.291
			s-0.862,2.839-1.682,5.745c2.611,1.908,4.694,4.371,6.637,2.604c1.739-1.581,3.825-7.667,5.202-12.534
			c0.007-0.986,0.017-2.111,0.032-3.394c0.089-7.405-1.234-22.743-1.234-22.743c-23.679,8.646-37.342,9.748-43.284,6.531
			c-0.812-0.439-1.479-0.957-2.008-1.55c0,0,0.612,0.995,1.87,1.938c0.892,0.664,2.107,1.303,3.661,1.542
			c3.747,0.57,17.496-0.135,25.343-2.338c7.844-2.203,10.445-2.247,10.445-2.247S280.646,67.069,280.294,67.377z"/>
        <path fill-rule="evenodd" clip-rule="evenodd" fill="#98BA43" d="M97.941,197.648l1.514-75.833
			c-3.679,0.092-5.18-0.277-5.382-0.333c-0.405,13.568-1.861,62.112-2.025,67.655c-0.008,0.295-0.013,0.471-0.015,0.509
			c-0.023,0.879-8.17,7.597-8.17,7.597l8.037,0.23L97.941,197.648z"/>
        <path fill-rule="evenodd" clip-rule="evenodd" fill="#98BA43" d="M102.557,121.653c6.346-0.486,15.115-5.599,15.115-5.599
			l-1.405-4.882l-0.747-2.596c-0.962,1.771-1.999,3.247-3.119,4.466c-3.455,3.754-7.696,5.077-12.875,5.178
			c-0.559,0.011-1.131,0.007-1.713-0.01c-0.116-0.003-0.232-0.006-0.35-0.011c-1.059-0.037-2.152-0.117-3.283-0.227
			c0,0-0.04,1.283-0.106,3.509c0.202,0.056,1.703,0.425,5.382,0.333C100.354,121.792,101.383,121.742,102.557,121.653z"/>
        <path fill-rule="evenodd" clip-rule="evenodd" fill="#EEB074" d="M116.267,111.173c3.472-1.754,7.405-3.928,11.792-6.63
			c18.438-11.354,31.334-38.894,33.164-42.957c-0.615,0.085-1.281,0.062-1.999-0.069c-9.174,23.346-23.716,33.477-43.704,47.061
			L116.267,111.173z"/>
        <path fill-rule="evenodd" clip-rule="evenodd" fill="#EEB074" d="M159.224,61.517c0.718,0.131,1.384,0.154,1.999,0.069
			c1.801-0.241,3.128-1.379,3.83-3.228c1.104-2.905,0.881-7.13,0.927-7.435c0.044-0.305,3.173-6.124,2.776-7.603
			c-0.005-0.01-0.007-0.022-0.012-0.033l-3.232,6.437c0,0-1.307,6.889-2.687,9.125c-0.683,1.105-1.533,1.668-2.218,1.951
			c-0.695,0.291-1.221,0.296-1.221,0.296C159.333,61.236,159.278,61.376,159.224,61.517z"/>
        <path fill-rule="evenodd" clip-rule="evenodd" fill="#EEB074" d="M14.172,176.224c4.231-21.104,11.966-32.914,25.251-44.979
			l-2.119-1.979c0,0-7.172,6.946-13.605,17.524c-6.435,10.577-8.198,15.778-9.475,21.421c-0.982,4.34-1.472,6.773-1.646,7.667
			C13.084,175.935,13.614,176.05,14.172,176.224z"/>
        <path fill-rule="evenodd" clip-rule="evenodd" fill="#98BA43" d="M39.423,131.245l2.137,1.998
			c1.943-2.037,5.687-5.143,9.331-7.822c1.013-0.744,2.015-1.454,2.972-2.098l-0.104-3.02c-0.479,0.04-0.962,0.123-1.446,0.239
			c-0.506,0.122-1.012,0.279-1.523,0.47c-4.58,1.705-9.375,5.936-13.485,8.254L39.423,131.245z"/>
        <path fill-rule="evenodd" clip-rule="evenodd" fill="#98BA43" d="M50.891,125.421l1.649,70.924l3.087,0.089l17.339,0.498
			l-16.705-4.398l-2.398-69.21C52.905,123.967,51.903,124.677,50.891,125.421z"/>
        <path fill-rule="evenodd" clip-rule="evenodd" fill="#363533" d="M58.406,46.897c13.118,2.858,26.897,0.616,36.134-7.064
			c1.231-1.025,2.385-2.15,3.444-3.369c0.494-0.569,0.969-1.162,1.421-1.773c3.348-4.533,5.513-10.237,5.985-17.146
			c0,0-3.397,6.389-8.332,11.061c-1.49,1.409-2.752,2.472-3.793,3.27c-2.408,1.854-3.612,2.283-3.612,2.283l1.294-3.824l0.821-2.434
			c0,0-0.784,0.659-2.19,1.688c-2.377,1.734-6.537,4.518-11.738,6.951c-8.285,3.879-14.191,3.791-14.191,3.791l1.766-5.907
			c0,0-7.936,4.937-11.55,9.961c-3.613,5.024-2.646,8.462-2.646,8.462l2.75,9.969c0.758,1.548,1.276,3.355,1.459,5.293l1.834,6.646
			c0,0,0.087-2.205,0-9.609C57.175,57.74,58.406,46.897,58.406,46.897z"/>
        <path fill-rule="evenodd" clip-rule="evenodd" fill="#EEB074" d="M50.944,80.886c2.998,14.684,11.199,18.711,21.432,19.684
			c2.237,0.215,4.574,0.279,6.976,0.279c0.56,0,1.114-0.004,1.662-0.014c8.648-0.158,15.662-1.682,20.146-7.953
			c-5.341,3.501-12.867,5.409-20.146,5.438c-2.978,0.011-5.912-0.293-8.638-0.932c-3.599-0.843-6.833-2.271-9.32-4.327
			c-7.362-6.082-9.501-15.843-9.501-15.843l-0.817,0.585c-0.645,0.693-1.38,1.227-2.183,1.562
			C50.708,79.873,50.842,80.378,50.944,80.886z"/>
        <path fill-rule="evenodd" clip-rule="evenodd" fill="#EEB074" d="M58.406,46.897c0,0-1.231,10.843-1.145,18.246
			c0.087,7.404,0,9.609,0,9.609l3.766-23.959c0,0,12.213,1.951,23.711-2.114c5.285-1.872,8.512-4.604,10.453-7.011
			c2.281-2.828,2.793-5.205,2.793-5.205c-1.06,1.219-2.213,2.344-3.444,3.369C85.304,47.514,71.524,49.756,58.406,46.897z"/>
        <path fill-rule="evenodd" clip-rule="evenodd" fill="#98BA43" d="M86.764,119.196c2.27-0.967,3.857-2.488,4.966-4.229
			l-2.661-7.463c0.114-0.019,0.576-0.045,1.564-0.15l-4.771-1.139c0,5.062-4.104,9.165-9.169,9.165
			c-5.062,0-9.166-4.104-9.166-9.165l-5.895,1.022l-0.99,3.947c0.691,1.297,1.567,2.737,2.674,4.308
			C68.686,123.109,77.861,122.986,86.764,119.196z"/>
        <path fill-rule="evenodd" clip-rule="evenodd" fill="#E27626" d="M248.357,115.122c2.842,3.686,11.352,10.771,20.079,7.158
			c5.208-2.155,8.72-7.954,10.765-12.43l-0.671-2.666l-5.896-1.023c0,5.064-4.104,9.167-9.168,9.167
			c-5.062,0-9.166-4.103-9.166-9.167l-4.771,1.138c0.988,0.106,1.449,0.133,1.562,0.151L248.357,115.122z"/>
        <path fill-rule="evenodd" clip-rule="evenodd" fill="#98BA43" d="M60.643,111.186l0.99-3.947
			c-0.713,0.011-1.651,0.066-2.688,0.164c0.031,0.093,0.066,0.187,0.103,0.284C59.424,108.694,59.938,109.866,60.643,111.186z"/>
        <path fill-rule="evenodd" clip-rule="evenodd" fill="#98BA43" d="M89.068,107.505l2.661,7.463c0.755-1.185,1.288-2.468,1.663-3.75
			c0.236-0.814,0.412-1.626,0.54-2.41c0.037-0.215,0.067-0.431,0.097-0.643c0.058-0.436,0.103-0.86,0.138-1.268
			c-1.589,0.23-2.734,0.371-3.534,0.457C89.645,107.46,89.183,107.486,89.068,107.505z"/>
        <path fill-rule="evenodd" clip-rule="evenodd" fill="#E27626" d="M278.53,107.185l0.671,2.666
			c0.385-0.852,0.721-1.655,1.006-2.375c0.025-0.07,0.053-0.14,0.079-0.207C279.62,107.221,279.021,107.19,278.53,107.185z"/>
        <path fill-rule="evenodd" clip-rule="evenodd" fill="#E27626" d="M248.357,115.122l2.734-7.672
			c-0.113-0.019-0.574-0.045-1.562-0.151c-0.795-0.084-1.932-0.223-3.507-0.451c0.014,0.391,0.04,0.818,0.078,1.272
			c0.019,0.199,0.038,0.403,0.06,0.611c0.096,0.845,0.249,1.752,0.483,2.648C246.995,112.729,247.536,114.056,248.357,115.122z"/>
        <path fill-rule="evenodd" clip-rule="evenodd" fill="#17232B" d="M46.999,275l11.962-75.012l13.83-3.057l-17.339-0.498
			c-4.42,27.227-8.713,52.25-12.044,78.566H46.999z"/>
        <path fill-rule="evenodd" clip-rule="evenodd" fill="#17232B" d="M88.771,275c1.295-24.338,2.72-53.262,2.818-64.289
			c0.053-5.854,0.099-10.124,0.136-13.237l-8.037-0.23L83.395,275H88.771z"/>
        <path fill-rule="evenodd" clip-rule="evenodd" fill="#22231C" d="M263.932,275c1.414-26.874,3.107-58.52,3.308-59.729
			c0.005-0.019,0.01-0.029,0.017-0.031l-4.32-8.893L258.461,275H263.932z"/>
        <path fill-rule="evenodd" clip-rule="evenodd" fill="#22231C" d="M296.413,275c-3.332-26.336-7.629-51.376-12.055-78.618
			l-10.839,0.309L289.577,275H296.413z"/>
	</g>
</g>
</svg>